<?xml version="1.0" encoding="utf-8"?>
<!-- Generator: Adobe Illustrator 23.0.0, SVG Export Plug-In . SVG Version: 6.00 Build 0)  -->
<svg version="1.1" id="Layer_1" xmlns="http://www.w3.org/2000/svg" xmlns:xlink="http://www.w3.org/1999/xlink" x="0px" y="0px"
	 viewBox="0 0 500 90" style="enable-background:new 0 0 500 90;" xml:space="preserve">
<style type="text/css">
	.st0{fill:url(#Rectángulo_575_3_);}
	.st1{fill:url(#Rectángulo_575_4_);}
	.st2{fill:#DC0047;}
	.st3{fill:url(#Rectángulo_575_5_);}
	.st4{fill:#D1D3D4;}
	.st5{fill:#FFFFFF;}
	.st6{enable-background:new    ;}
	.st7{fill:#1178F2;}
</style>
<linearGradient id="Rectángulo_575_3_" gradientUnits="userSpaceOnUse" x1="-158.4353" y1="126.2594" x2="502.6905" y2="-5.2735">
	<stop  offset="0" style="stop-color:#1450AD"/>
	<stop  offset="1" style="stop-color:#017BBC"/>
</linearGradient>
<rect id="Rectángulo_575_2_" class="st0" width="500" height="90"/>
<g>
	<path class="st5" d="M103.87,21.91h-3.08v8.92h-2.53v-8.92h-3.08V19.9h8.69V21.91z"/>
	<path class="st5" d="M110.61,23.05v7.78h-1.44c-0.29,0-0.48-0.13-0.57-0.39l-0.13-0.45c-0.15,0.15-0.31,0.28-0.46,0.39
		c-0.16,0.12-0.33,0.22-0.51,0.3c-0.18,0.08-0.38,0.15-0.59,0.19c-0.21,0.05-0.44,0.07-0.69,0.07c-0.42,0-0.8-0.07-1.13-0.22
		c-0.33-0.15-0.6-0.35-0.83-0.62c-0.22-0.27-0.4-0.58-0.51-0.94c-0.12-0.36-0.17-0.76-0.17-1.19v-4.94h2.33v4.94
		c0,0.39,0.09,0.68,0.26,0.89c0.17,0.21,0.43,0.31,0.77,0.31c0.25,0,0.49-0.05,0.72-0.16c0.22-0.11,0.44-0.25,0.65-0.44v-5.54
		H110.61z"/>
	<path class="st5" d="M121.36,24.89c-0.07,0.09-0.14,0.15-0.2,0.2c-0.07,0.05-0.16,0.07-0.28,0.07c-0.11,0-0.22-0.03-0.31-0.08
		c-0.09-0.05-0.2-0.12-0.31-0.18c-0.11-0.07-0.25-0.13-0.4-0.18s-0.35-0.08-0.58-0.08c-0.29,0-0.53,0.05-0.74,0.16
		s-0.38,0.25-0.51,0.45c-0.13,0.2-0.23,0.43-0.3,0.72s-0.1,0.6-0.1,0.96c0,0.74,0.14,1.32,0.43,1.72c0.29,0.4,0.68,0.6,1.19,0.6
		c0.27,0,0.48-0.03,0.64-0.1c0.16-0.07,0.29-0.14,0.4-0.22c0.11-0.08,0.21-0.16,0.3-0.23c0.09-0.07,0.21-0.1,0.35-0.1
		c0.19,0,0.33,0.07,0.42,0.2l0.68,0.83c-0.24,0.28-0.49,0.5-0.76,0.67c-0.27,0.17-0.54,0.31-0.81,0.4c-0.28,0.1-0.56,0.17-0.84,0.2
		c-0.28,0.04-0.55,0.06-0.82,0.06c-0.48,0-0.93-0.09-1.36-0.27c-0.43-0.18-0.81-0.44-1.14-0.78c-0.33-0.34-0.59-0.76-0.78-1.26
		s-0.29-1.07-0.29-1.71c0-0.56,0.08-1.08,0.25-1.57s0.42-0.91,0.74-1.27c0.33-0.36,0.73-0.64,1.21-0.84
		c0.48-0.2,1.04-0.31,1.68-0.31c0.61,0,1.15,0.1,1.6,0.29c0.46,0.19,0.88,0.48,1.25,0.85L121.36,24.89z"/>
	<path class="st5" d="M129.92,23.05v7.78h-1.44c-0.29,0-0.48-0.13-0.57-0.39l-0.14-0.45c-0.15,0.15-0.31,0.28-0.46,0.39
		c-0.16,0.12-0.33,0.22-0.51,0.3s-0.38,0.15-0.59,0.19c-0.21,0.05-0.44,0.07-0.69,0.07c-0.42,0-0.8-0.07-1.13-0.22
		c-0.33-0.15-0.6-0.35-0.83-0.62c-0.23-0.27-0.4-0.58-0.51-0.94c-0.12-0.36-0.17-0.76-0.17-1.19v-4.94h2.33v4.94
		c0,0.39,0.09,0.68,0.26,0.89c0.17,0.21,0.43,0.31,0.77,0.31c0.25,0,0.49-0.05,0.72-0.16c0.22-0.11,0.44-0.25,0.65-0.44v-5.54
		H129.92z"/>
	<path class="st5" d="M133.41,27.35c0.08,0.65,0.27,1.12,0.59,1.41c0.32,0.29,0.73,0.44,1.24,0.44c0.27,0,0.5-0.03,0.7-0.1
		c0.2-0.06,0.37-0.14,0.52-0.22c0.15-0.08,0.29-0.15,0.42-0.22c0.13-0.06,0.26-0.1,0.4-0.1c0.18,0,0.33,0.07,0.42,0.2l0.67,0.83
		c-0.24,0.28-0.5,0.5-0.78,0.67c-0.28,0.17-0.56,0.31-0.85,0.4c-0.29,0.1-0.58,0.17-0.88,0.2c-0.29,0.04-0.57,0.06-0.84,0.06
		c-0.54,0-1.06-0.09-1.53-0.27c-0.48-0.18-0.89-0.44-1.25-0.79s-0.64-0.78-0.85-1.31c-0.21-0.52-0.31-1.13-0.31-1.81
		c0-0.52,0.09-1.01,0.27-1.48c0.18-0.46,0.43-0.87,0.76-1.22c0.33-0.35,0.74-0.63,1.21-0.83c0.47-0.2,1.01-0.31,1.6-0.31
		c0.52,0,0.99,0.08,1.41,0.24c0.43,0.16,0.79,0.39,1.1,0.7s0.55,0.68,0.72,1.12c0.17,0.44,0.26,0.94,0.26,1.5
		c0,0.18-0.01,0.32-0.02,0.43c-0.01,0.11-0.04,0.2-0.08,0.26s-0.09,0.11-0.16,0.14c-0.07,0.03-0.15,0.04-0.26,0.04H133.41z
		 M136.33,26c0-0.19-0.02-0.36-0.07-0.54c-0.05-0.18-0.13-0.33-0.23-0.47s-0.25-0.25-0.42-0.33c-0.17-0.08-0.39-0.13-0.64-0.13
		c-0.44,0-0.79,0.13-1.03,0.38c-0.25,0.25-0.42,0.62-0.5,1.09H136.33z"/>
	<path class="st5" d="M141.72,23.89c0.15-0.14,0.3-0.27,0.46-0.39c0.16-0.12,0.33-0.22,0.51-0.3c0.18-0.08,0.38-0.15,0.59-0.2
		c0.21-0.05,0.44-0.07,0.69-0.07c0.42,0,0.8,0.07,1.13,0.22c0.33,0.15,0.6,0.35,0.83,0.61c0.22,0.26,0.39,0.57,0.51,0.94
		s0.17,0.76,0.17,1.18v4.94h-2.33v-4.94c0-0.38-0.09-0.68-0.26-0.89c-0.17-0.21-0.43-0.32-0.77-0.32c-0.25,0-0.49,0.05-0.72,0.16
		c-0.22,0.11-0.44,0.25-0.65,0.44v5.55h-2.32v-7.78h1.44c0.29,0,0.48,0.13,0.57,0.39L141.72,23.89z"/>
	<path class="st5" d="M150.81,30.94c-0.37,0-0.7-0.05-0.98-0.16s-0.52-0.26-0.71-0.46s-0.34-0.44-0.44-0.72s-0.15-0.59-0.15-0.94
		v-4.02h-0.66c-0.12,0-0.22-0.04-0.31-0.12c-0.08-0.08-0.13-0.19-0.13-0.34v-0.91l1.24-0.24l0.46-1.9c0.06-0.24,0.23-0.36,0.51-0.36
		h1.22v2.27h1.93v1.59h-1.93v3.86c0,0.18,0.04,0.33,0.13,0.45c0.09,0.12,0.21,0.18,0.38,0.18c0.08,0,0.16-0.01,0.21-0.03
		c0.06-0.02,0.11-0.04,0.15-0.06c0.04-0.02,0.08-0.04,0.12-0.06c0.04-0.02,0.08-0.03,0.13-0.03c0.07,0,0.13,0.02,0.17,0.05
		s0.09,0.08,0.13,0.15l0.71,1.1c-0.3,0.23-0.64,0.39-1.01,0.51S151.21,30.94,150.81,30.94z"/>
	<path class="st5" d="M153.61,24.13c0.47-0.42,0.99-0.72,1.56-0.93c0.57-0.2,1.19-0.3,1.84-0.3c0.47,0,0.89,0.08,1.27,0.23
		c0.38,0.15,0.7,0.36,0.96,0.64c0.26,0.27,0.46,0.6,0.6,0.97s0.21,0.79,0.21,1.23v4.86H159c-0.22,0-0.39-0.03-0.5-0.09
		c-0.11-0.06-0.21-0.18-0.28-0.38l-0.17-0.43c-0.19,0.17-0.38,0.31-0.56,0.44c-0.18,0.13-0.37,0.23-0.56,0.32
		c-0.19,0.09-0.4,0.15-0.61,0.2s-0.46,0.06-0.72,0.06c-0.35,0-0.68-0.05-0.97-0.14s-0.54-0.23-0.74-0.41
		c-0.2-0.18-0.36-0.4-0.47-0.67c-0.11-0.27-0.17-0.58-0.17-0.93c0-0.28,0.07-0.56,0.21-0.85c0.14-0.29,0.38-0.55,0.73-0.79
		c0.35-0.24,0.81-0.44,1.4-0.6c0.59-0.16,1.32-0.25,2.21-0.27v-0.33c0-0.45-0.09-0.78-0.28-0.99c-0.19-0.2-0.45-0.3-0.8-0.3
		c-0.27,0-0.5,0.03-0.67,0.09s-0.33,0.13-0.47,0.2c-0.14,0.08-0.27,0.14-0.4,0.2s-0.29,0.09-0.46,0.09c-0.16,0-0.29-0.04-0.41-0.12
		c-0.11-0.08-0.2-0.18-0.27-0.28L153.61,24.13z M157.8,27.66c-0.46,0.02-0.85,0.06-1.15,0.12c-0.3,0.06-0.54,0.14-0.71,0.23
		s-0.3,0.19-0.36,0.31s-0.1,0.24-0.1,0.38c0,0.26,0.07,0.45,0.22,0.56c0.15,0.11,0.36,0.16,0.64,0.16c0.3,0,0.56-0.05,0.79-0.16
		c0.23-0.11,0.45-0.28,0.68-0.51V27.66z"/>
	<path class="st5" d="M166.92,27.35c0.08,0.65,0.27,1.12,0.59,1.41c0.32,0.29,0.73,0.44,1.24,0.44c0.27,0,0.5-0.03,0.7-0.1
		s0.37-0.14,0.52-0.22c0.15-0.08,0.29-0.15,0.42-0.22c0.13-0.06,0.26-0.1,0.4-0.1c0.19,0,0.33,0.07,0.42,0.2l0.68,0.83
		c-0.24,0.28-0.5,0.5-0.78,0.67c-0.28,0.17-0.56,0.31-0.85,0.4c-0.29,0.1-0.58,0.17-0.88,0.2c-0.29,0.04-0.57,0.06-0.84,0.06
		c-0.54,0-1.06-0.09-1.53-0.27c-0.48-0.18-0.9-0.44-1.25-0.79s-0.64-0.78-0.85-1.31c-0.21-0.52-0.31-1.13-0.31-1.81
		c0-0.52,0.09-1.01,0.27-1.48c0.18-0.46,0.43-0.87,0.77-1.22c0.33-0.35,0.73-0.63,1.21-0.83c0.47-0.2,1.01-0.31,1.6-0.31
		c0.51,0,0.99,0.08,1.41,0.24c0.43,0.16,0.8,0.39,1.1,0.7c0.31,0.3,0.55,0.68,0.72,1.12c0.17,0.44,0.26,0.94,0.26,1.5
		c0,0.18-0.01,0.32-0.02,0.43c-0.02,0.11-0.04,0.2-0.08,0.26s-0.09,0.11-0.16,0.14c-0.07,0.03-0.15,0.04-0.26,0.04H166.92z
		 M169.85,26c0-0.19-0.02-0.36-0.07-0.54s-0.13-0.33-0.23-0.47c-0.11-0.14-0.25-0.25-0.42-0.33s-0.39-0.13-0.64-0.13
		c-0.44,0-0.79,0.13-1.04,0.38s-0.42,0.62-0.5,1.09H169.85z"/>
	<path class="st5" d="M178.04,24.75c-0.06,0.09-0.12,0.16-0.19,0.2s-0.15,0.06-0.26,0.06c-0.11,0-0.22-0.02-0.33-0.07
		c-0.11-0.05-0.23-0.1-0.36-0.15c-0.13-0.05-0.27-0.11-0.43-0.15c-0.16-0.05-0.34-0.07-0.55-0.07c-0.29,0-0.52,0.06-0.68,0.17
		s-0.24,0.27-0.24,0.47c0,0.15,0.05,0.27,0.15,0.36c0.1,0.1,0.24,0.18,0.41,0.25c0.17,0.07,0.36,0.14,0.58,0.21
		c0.21,0.07,0.44,0.14,0.66,0.22c0.23,0.08,0.45,0.17,0.66,0.28c0.21,0.11,0.41,0.24,0.58,0.4c0.17,0.16,0.31,0.35,0.41,0.57
		c0.1,0.23,0.15,0.5,0.15,0.81c0,0.39-0.07,0.74-0.21,1.06c-0.14,0.33-0.35,0.61-0.63,0.84c-0.28,0.24-0.62,0.42-1.03,0.55
		c-0.41,0.13-0.88,0.19-1.41,0.19c-0.27,0-0.53-0.02-0.79-0.07c-0.27-0.05-0.52-0.12-0.77-0.2c-0.25-0.08-0.48-0.19-0.69-0.3
		c-0.21-0.12-0.39-0.24-0.54-0.38l0.54-0.85c0.06-0.1,0.14-0.18,0.23-0.24c0.09-0.06,0.21-0.09,0.36-0.09
		c0.13,0,0.26,0.03,0.36,0.09c0.11,0.06,0.22,0.13,0.35,0.19c0.13,0.07,0.27,0.14,0.44,0.2c0.17,0.06,0.38,0.09,0.63,0.09
		c0.18,0,0.33-0.02,0.46-0.06c0.13-0.04,0.23-0.09,0.3-0.15s0.13-0.14,0.17-0.22c0.03-0.08,0.05-0.16,0.05-0.25
		c0-0.16-0.05-0.28-0.16-0.38c-0.1-0.1-0.24-0.19-0.41-0.26c-0.17-0.07-0.36-0.14-0.58-0.2c-0.22-0.06-0.44-0.13-0.66-0.21
		c-0.23-0.08-0.45-0.18-0.66-0.29s-0.41-0.26-0.58-0.43c-0.17-0.17-0.31-0.38-0.41-0.63s-0.16-0.55-0.16-0.91
		c0-0.33,0.06-0.64,0.19-0.94c0.13-0.3,0.32-0.56,0.57-0.78c0.25-0.22,0.57-0.4,0.96-0.54s0.83-0.2,1.35-0.2
		c0.28,0,0.55,0.02,0.81,0.07c0.26,0.05,0.51,0.12,0.74,0.21c0.23,0.09,0.44,0.2,0.63,0.32c0.19,0.12,0.36,0.26,0.5,0.4
		L178.04,24.75z"/>
	<path class="st5" d="M182.56,30.94c-0.37,0-0.7-0.05-0.98-0.16c-0.28-0.11-0.52-0.26-0.71-0.46s-0.34-0.44-0.44-0.72
		c-0.1-0.28-0.15-0.59-0.15-0.94v-4.02h-0.66c-0.12,0-0.22-0.04-0.31-0.12c-0.09-0.08-0.13-0.19-0.13-0.34v-0.91l1.24-0.24l0.46-1.9
		c0.06-0.24,0.23-0.36,0.51-0.36h1.21v2.27h1.93v1.59h-1.93v3.86c0,0.18,0.04,0.33,0.13,0.45s0.21,0.18,0.38,0.18
		c0.08,0,0.16-0.01,0.21-0.03c0.06-0.02,0.11-0.04,0.15-0.06c0.04-0.02,0.08-0.04,0.12-0.06s0.08-0.03,0.13-0.03
		c0.07,0,0.13,0.02,0.17,0.05c0.04,0.03,0.09,0.08,0.13,0.15l0.71,1.1c-0.3,0.23-0.64,0.39-1.01,0.51S182.96,30.94,182.56,30.94z"/>
	<path class="st5" d="M185.37,24.13c0.47-0.42,0.99-0.72,1.56-0.93c0.57-0.2,1.19-0.3,1.84-0.3c0.47,0,0.89,0.08,1.27,0.23
		s0.7,0.36,0.96,0.64s0.46,0.6,0.6,0.97c0.14,0.38,0.21,0.79,0.21,1.23v4.86h-1.07c-0.22,0-0.39-0.03-0.5-0.09s-0.21-0.18-0.28-0.38
		l-0.17-0.43c-0.19,0.17-0.38,0.31-0.56,0.44s-0.37,0.23-0.56,0.32c-0.19,0.09-0.4,0.15-0.61,0.2c-0.22,0.04-0.46,0.06-0.72,0.06
		c-0.35,0-0.68-0.05-0.97-0.14s-0.54-0.23-0.74-0.41c-0.2-0.18-0.36-0.4-0.47-0.67c-0.11-0.27-0.17-0.58-0.17-0.93
		c0-0.28,0.07-0.56,0.21-0.85s0.38-0.55,0.73-0.79c0.35-0.24,0.81-0.44,1.4-0.6s1.32-0.25,2.21-0.27v-0.33
		c0-0.45-0.09-0.78-0.28-0.99c-0.19-0.2-0.45-0.3-0.8-0.3c-0.27,0-0.5,0.03-0.68,0.09c-0.17,0.06-0.33,0.13-0.47,0.2
		c-0.14,0.08-0.27,0.14-0.4,0.2c-0.13,0.06-0.29,0.09-0.47,0.09c-0.16,0-0.29-0.04-0.4-0.12c-0.11-0.08-0.2-0.18-0.27-0.28
		L185.37,24.13z M189.55,27.66c-0.47,0.02-0.85,0.06-1.15,0.12c-0.3,0.06-0.54,0.14-0.71,0.23c-0.18,0.09-0.3,0.19-0.36,0.31
		c-0.07,0.11-0.1,0.24-0.1,0.38c0,0.26,0.07,0.45,0.22,0.56c0.15,0.11,0.36,0.16,0.64,0.16c0.3,0,0.56-0.05,0.79-0.16
		c0.23-0.11,0.45-0.28,0.68-0.51V27.66z M191.55,19.78l-1.95,1.97c-0.12,0.11-0.22,0.2-0.33,0.24c-0.1,0.05-0.25,0.07-0.42,0.07
		h-1.39l1.02-1.84c0.08-0.14,0.19-0.26,0.3-0.33c0.11-0.08,0.29-0.12,0.52-0.12H191.55z"/>
	<path class="st5" d="M199.38,20.92c0,0.19-0.04,0.36-0.11,0.52c-0.07,0.16-0.18,0.3-0.31,0.43c-0.13,0.12-0.28,0.22-0.45,0.29
		c-0.17,0.07-0.36,0.11-0.55,0.11c-0.19,0-0.37-0.04-0.53-0.11s-0.31-0.17-0.44-0.29c-0.13-0.12-0.23-0.27-0.3-0.43
		c-0.07-0.16-0.11-0.34-0.11-0.52c0-0.19,0.04-0.37,0.11-0.53c0.07-0.17,0.17-0.31,0.3-0.44c0.13-0.13,0.27-0.22,0.44-0.29
		s0.34-0.1,0.53-0.1c0.2,0,0.38,0.03,0.55,0.1c0.17,0.07,0.32,0.17,0.45,0.29c0.13,0.13,0.23,0.27,0.31,0.44
		C199.35,20.55,199.38,20.73,199.38,20.92z M199.14,23.05v7.78h-2.33v-7.78H199.14z"/>
	<path class="st5" d="M202.92,23.89c0.15-0.14,0.3-0.27,0.46-0.39c0.16-0.12,0.33-0.22,0.51-0.3s0.38-0.15,0.59-0.2
		c0.21-0.05,0.44-0.07,0.69-0.07c0.42,0,0.8,0.07,1.13,0.22c0.33,0.15,0.6,0.35,0.83,0.61s0.4,0.57,0.51,0.94
		c0.11,0.36,0.17,0.76,0.17,1.18v4.94h-2.32v-4.94c0-0.38-0.09-0.68-0.26-0.89c-0.18-0.21-0.43-0.32-0.77-0.32
		c-0.26,0-0.49,0.05-0.72,0.16c-0.22,0.11-0.44,0.25-0.65,0.44v5.55h-2.33v-7.78h1.44c0.29,0,0.48,0.13,0.57,0.39L202.92,23.89z"/>
	<path class="st5" d="M209.15,24.13c0.47-0.42,0.99-0.72,1.56-0.93c0.57-0.2,1.19-0.3,1.84-0.3c0.47,0,0.89,0.08,1.27,0.23
		c0.38,0.15,0.7,0.36,0.96,0.64c0.26,0.27,0.46,0.6,0.6,0.97s0.21,0.79,0.21,1.23v4.86h-1.06c-0.22,0-0.39-0.03-0.5-0.09
		c-0.11-0.06-0.21-0.18-0.28-0.38l-0.17-0.43c-0.19,0.17-0.38,0.31-0.56,0.44c-0.18,0.13-0.37,0.23-0.56,0.32
		c-0.19,0.09-0.4,0.15-0.61,0.2s-0.46,0.06-0.72,0.06c-0.35,0-0.68-0.05-0.97-0.14s-0.54-0.23-0.74-0.41
		c-0.2-0.18-0.36-0.4-0.47-0.67c-0.11-0.27-0.17-0.58-0.17-0.93c0-0.28,0.07-0.56,0.21-0.85c0.14-0.29,0.38-0.55,0.73-0.79
		c0.35-0.24,0.81-0.44,1.4-0.6c0.59-0.16,1.32-0.25,2.21-0.27v-0.33c0-0.45-0.09-0.78-0.28-0.99c-0.19-0.2-0.45-0.3-0.8-0.3
		c-0.27,0-0.5,0.03-0.67,0.09s-0.33,0.13-0.47,0.2c-0.14,0.08-0.27,0.14-0.4,0.2s-0.29,0.09-0.46,0.09c-0.16,0-0.29-0.04-0.41-0.12
		c-0.11-0.08-0.2-0.18-0.27-0.28L209.15,24.13z M213.33,27.66c-0.46,0.02-0.85,0.06-1.15,0.12c-0.3,0.06-0.54,0.14-0.71,0.23
		s-0.3,0.19-0.36,0.31s-0.1,0.24-0.1,0.38c0,0.26,0.07,0.45,0.22,0.56c0.15,0.11,0.36,0.16,0.64,0.16c0.3,0,0.56-0.05,0.79-0.16
		c0.23-0.11,0.45-0.28,0.68-0.51V27.66z"/>
	<path class="st5" d="M222.8,24.89c-0.07,0.09-0.14,0.15-0.2,0.2c-0.07,0.05-0.16,0.07-0.28,0.07c-0.11,0-0.22-0.03-0.31-0.08
		c-0.09-0.05-0.2-0.12-0.31-0.18c-0.12-0.07-0.25-0.13-0.4-0.18c-0.16-0.05-0.35-0.08-0.58-0.08c-0.29,0-0.53,0.05-0.74,0.16
		s-0.38,0.25-0.51,0.45s-0.23,0.43-0.3,0.72c-0.06,0.28-0.1,0.6-0.1,0.96c0,0.74,0.14,1.32,0.43,1.72c0.29,0.4,0.68,0.6,1.19,0.6
		c0.27,0,0.48-0.03,0.64-0.1c0.16-0.07,0.29-0.14,0.4-0.22c0.11-0.08,0.21-0.16,0.3-0.23c0.09-0.07,0.21-0.1,0.35-0.1
		c0.18,0,0.33,0.07,0.42,0.2l0.67,0.83c-0.24,0.28-0.49,0.5-0.76,0.67c-0.27,0.17-0.54,0.31-0.81,0.4c-0.28,0.1-0.56,0.17-0.84,0.2
		c-0.28,0.04-0.55,0.06-0.82,0.06c-0.48,0-0.93-0.09-1.36-0.27c-0.43-0.18-0.81-0.44-1.14-0.78c-0.33-0.34-0.59-0.76-0.78-1.26
		s-0.29-1.07-0.29-1.71c0-0.56,0.08-1.08,0.25-1.57s0.42-0.91,0.74-1.27c0.33-0.36,0.73-0.64,1.21-0.84
		c0.48-0.2,1.04-0.31,1.68-0.31c0.61,0,1.15,0.1,1.6,0.29c0.46,0.19,0.88,0.48,1.25,0.85L222.8,24.89z"/>
	<path class="st5" d="M232.79,30.82h-2.33v-6.17h-3.25v3.86c0,0.18,0.04,0.33,0.13,0.45c0.09,0.12,0.21,0.18,0.38,0.18
		c0.08,0,0.16-0.01,0.21-0.03c0.06-0.02,0.11-0.04,0.15-0.06c0.04-0.02,0.08-0.04,0.12-0.06c0.04-0.02,0.08-0.03,0.13-0.03
		c0.07,0,0.13,0.02,0.17,0.05s0.09,0.08,0.13,0.15l0.71,1.1c-0.3,0.23-0.64,0.39-1.01,0.51s-0.76,0.17-1.16,0.17
		c-0.37,0-0.7-0.05-0.98-0.16s-0.52-0.26-0.71-0.46s-0.34-0.44-0.44-0.72s-0.15-0.59-0.15-0.94v-4.02h-0.66
		c-0.12,0-0.22-0.04-0.31-0.12c-0.08-0.08-0.13-0.19-0.13-0.34v-0.91l1.24-0.25l0.46-1.89c0.06-0.24,0.23-0.36,0.51-0.36h1.22v2.27
		h5.58V30.82z M233.11,20.91c0,0.19-0.04,0.36-0.11,0.52c-0.08,0.17-0.18,0.31-0.31,0.43s-0.28,0.22-0.45,0.29
		c-0.17,0.07-0.36,0.11-0.55,0.11c-0.19,0-0.37-0.04-0.53-0.11c-0.17-0.07-0.31-0.17-0.44-0.29c-0.13-0.12-0.23-0.27-0.3-0.43
		s-0.11-0.34-0.11-0.52s0.04-0.36,0.11-0.53c0.07-0.17,0.17-0.31,0.3-0.44c0.13-0.12,0.27-0.22,0.44-0.29
		c0.17-0.07,0.34-0.11,0.53-0.11c0.19,0,0.38,0.04,0.55,0.11c0.17,0.07,0.32,0.17,0.45,0.29c0.13,0.12,0.23,0.27,0.31,0.44
		C233.07,20.55,233.11,20.72,233.11,20.91z"/>
	<path class="st5" d="M241.74,23.05l-3.02,7.78h-2.11l-3.02-7.78h1.94c0.17,0,0.3,0.04,0.42,0.12c0.11,0.08,0.19,0.17,0.23,0.29
		l1.08,3.49c0.09,0.28,0.18,0.56,0.25,0.83s0.14,0.54,0.19,0.81c0.11-0.54,0.26-1.09,0.46-1.64l1.13-3.49
		c0.04-0.11,0.11-0.21,0.23-0.29c0.11-0.08,0.24-0.12,0.39-0.12H241.74z"/>
	<path class="st5" d="M242.13,24.13c0.47-0.42,0.99-0.72,1.56-0.93c0.57-0.2,1.19-0.3,1.84-0.3c0.47,0,0.89,0.08,1.27,0.23
		c0.38,0.15,0.7,0.36,0.96,0.64c0.26,0.27,0.46,0.6,0.6,0.97c0.14,0.38,0.21,0.79,0.21,1.23v4.86h-1.06c-0.22,0-0.39-0.03-0.5-0.09
		c-0.11-0.06-0.21-0.18-0.28-0.38l-0.17-0.43c-0.2,0.17-0.38,0.31-0.56,0.44c-0.18,0.13-0.37,0.23-0.56,0.32
		c-0.19,0.09-0.4,0.15-0.62,0.2c-0.22,0.04-0.46,0.06-0.72,0.06c-0.36,0-0.68-0.05-0.97-0.14s-0.54-0.23-0.74-0.41
		c-0.2-0.18-0.36-0.4-0.47-0.67c-0.11-0.27-0.17-0.58-0.17-0.93c0-0.28,0.07-0.56,0.21-0.85c0.14-0.29,0.38-0.55,0.73-0.79
		c0.35-0.24,0.81-0.44,1.4-0.6s1.32-0.25,2.21-0.27v-0.33c0-0.45-0.09-0.78-0.28-0.99c-0.19-0.2-0.45-0.3-0.8-0.3
		c-0.28,0-0.5,0.03-0.68,0.09s-0.33,0.13-0.47,0.2c-0.14,0.08-0.27,0.14-0.4,0.2c-0.13,0.06-0.29,0.09-0.47,0.09
		c-0.16,0-0.29-0.04-0.4-0.12c-0.11-0.08-0.2-0.18-0.27-0.28L242.13,24.13z M246.31,27.66c-0.47,0.02-0.85,0.06-1.15,0.12
		c-0.3,0.06-0.54,0.14-0.71,0.23s-0.3,0.19-0.36,0.31c-0.07,0.11-0.1,0.24-0.1,0.38c0,0.26,0.07,0.45,0.22,0.56
		c0.15,0.11,0.36,0.16,0.64,0.16c0.3,0,0.56-0.05,0.79-0.16c0.22-0.11,0.45-0.28,0.68-0.51V27.66z"/>
	<path class="st5" d="M255.71,24.01c0.31-0.32,0.65-0.59,1.04-0.8s0.85-0.31,1.38-0.31c0.41,0,0.78,0.09,1.13,0.27
		c0.34,0.18,0.64,0.44,0.89,0.78c0.25,0.34,0.45,0.76,0.59,1.25c0.14,0.49,0.21,1.05,0.21,1.68c0,0.58-0.08,1.13-0.24,1.62
		c-0.16,0.49-0.39,0.93-0.68,1.29c-0.29,0.36-0.64,0.65-1.05,0.85c-0.41,0.2-0.86,0.31-1.35,0.31c-0.41,0-0.75-0.06-1.02-0.17
		c-0.27-0.11-0.52-0.27-0.75-0.47v2.99h-2.32V23.05h1.44c0.29,0,0.48,0.13,0.57,0.39L255.71,24.01z M255.85,28.71
		c0.17,0.19,0.37,0.32,0.57,0.41c0.21,0.08,0.42,0.12,0.64,0.12c0.22,0,0.41-0.04,0.59-0.13c0.18-0.08,0.34-0.22,0.47-0.41
		s0.24-0.43,0.31-0.73c0.07-0.3,0.11-0.66,0.11-1.09c0-0.41-0.03-0.75-0.09-1.03c-0.06-0.28-0.14-0.51-0.25-0.68
		c-0.11-0.17-0.24-0.3-0.39-0.37c-0.15-0.07-0.32-0.11-0.5-0.11c-0.34,0-0.62,0.06-0.84,0.19c-0.22,0.13-0.43,0.31-0.63,0.55V28.71z
		"/>
	<path class="st5" d="M265.73,22.93c0.59,0,1.13,0.09,1.61,0.28c0.48,0.19,0.9,0.45,1.25,0.8c0.35,0.34,0.62,0.76,0.81,1.26
		c0.19,0.49,0.29,1.05,0.29,1.66c0,0.62-0.1,1.18-0.29,1.68s-0.46,0.92-0.81,1.27c-0.35,0.35-0.76,0.61-1.25,0.8
		c-0.49,0.19-1.02,0.28-1.61,0.28c-0.6,0-1.14-0.09-1.62-0.28c-0.49-0.19-0.91-0.45-1.26-0.8c-0.35-0.35-0.63-0.77-0.82-1.27
		c-0.19-0.5-0.29-1.06-0.29-1.68c0-0.61,0.1-1.17,0.29-1.66c0.19-0.49,0.47-0.91,0.82-1.26c0.35-0.35,0.77-0.61,1.26-0.8
		C264.6,23.02,265.14,22.93,265.73,22.93z M265.73,29.22c0.53,0,0.93-0.19,1.18-0.57c0.25-0.38,0.38-0.95,0.38-1.72
		s-0.13-1.34-0.38-1.72s-0.65-0.56-1.18-0.56c-0.55,0-0.95,0.19-1.21,0.56s-0.38,0.95-0.38,1.72s0.13,1.34,0.38,1.72
		C264.78,29.03,265.18,29.22,265.73,29.22z"/>
	<path class="st5" d="M273.04,24.25c0.24-0.42,0.52-0.75,0.83-0.99s0.67-0.36,1.08-0.36c0.35,0,0.64,0.08,0.86,0.25l-0.15,1.71
		c-0.02,0.11-0.07,0.19-0.12,0.22c-0.06,0.04-0.14,0.06-0.24,0.06c-0.04,0-0.09,0-0.16-0.01c-0.06,0-0.13-0.01-0.2-0.02
		c-0.07-0.01-0.14-0.01-0.21-0.02c-0.07-0.01-0.14-0.01-0.2-0.01c-0.34,0-0.61,0.09-0.81,0.27c-0.2,0.18-0.37,0.43-0.51,0.75v4.73
		h-2.32v-7.78h1.38c0.11,0,0.21,0.01,0.29,0.03c0.08,0.02,0.14,0.05,0.2,0.09s0.09,0.1,0.12,0.17c0.03,0.07,0.05,0.16,0.07,0.26
		L273.04,24.25z"/>
	<path class="st5" d="M286.72,23.05v7.78h-1.44c-0.29,0-0.48-0.13-0.57-0.39l-0.13-0.45c-0.15,0.15-0.3,0.28-0.46,0.39
		s-0.33,0.22-0.51,0.3s-0.38,0.15-0.59,0.19c-0.21,0.05-0.44,0.07-0.69,0.07c-0.43,0-0.8-0.07-1.13-0.22
		c-0.33-0.15-0.6-0.35-0.83-0.62c-0.22-0.27-0.39-0.58-0.51-0.94c-0.12-0.36-0.17-0.76-0.17-1.19v-4.94h2.33v4.94
		c0,0.39,0.09,0.68,0.26,0.89c0.17,0.21,0.43,0.31,0.77,0.31c0.25,0,0.49-0.05,0.72-0.16c0.22-0.11,0.44-0.25,0.65-0.44v-5.54
		H286.72z"/>
	<path class="st5" d="M290.44,23.89c0.15-0.14,0.3-0.27,0.46-0.39c0.16-0.12,0.33-0.22,0.51-0.3s0.38-0.15,0.59-0.2
		c0.21-0.05,0.44-0.07,0.69-0.07c0.42,0,0.8,0.07,1.13,0.22s0.6,0.35,0.83,0.61c0.22,0.26,0.39,0.57,0.51,0.94s0.17,0.76,0.17,1.18
		v4.94h-2.32v-4.94c0-0.38-0.09-0.68-0.26-0.89c-0.17-0.21-0.43-0.32-0.77-0.32c-0.25,0-0.49,0.05-0.72,0.16s-0.44,0.25-0.65,0.44
		v5.55h-2.32v-7.78h1.44c0.29,0,0.48,0.13,0.57,0.39L290.44,23.89z"/>
	<path class="st5" d="M302.22,27.35c0.07,0.65,0.27,1.12,0.59,1.41s0.73,0.44,1.24,0.44c0.27,0,0.5-0.03,0.7-0.1
		s0.37-0.14,0.52-0.22c0.15-0.08,0.29-0.15,0.42-0.22c0.13-0.06,0.26-0.1,0.4-0.1c0.18,0,0.32,0.07,0.42,0.2l0.67,0.83
		c-0.24,0.28-0.5,0.5-0.78,0.67c-0.28,0.17-0.56,0.31-0.85,0.4c-0.29,0.1-0.58,0.17-0.88,0.2c-0.29,0.04-0.57,0.06-0.84,0.06
		c-0.55,0-1.06-0.09-1.53-0.27c-0.48-0.18-0.9-0.44-1.25-0.79s-0.64-0.78-0.85-1.31c-0.21-0.52-0.31-1.13-0.31-1.81
		c0-0.52,0.09-1.01,0.27-1.48c0.18-0.46,0.43-0.87,0.76-1.22c0.33-0.35,0.74-0.63,1.21-0.83c0.47-0.2,1.01-0.31,1.6-0.31
		c0.52,0,0.99,0.08,1.41,0.24c0.43,0.16,0.79,0.39,1.1,0.7s0.55,0.68,0.72,1.12c0.17,0.44,0.26,0.94,0.26,1.5
		c0,0.18-0.01,0.32-0.02,0.43c-0.01,0.11-0.04,0.2-0.08,0.26s-0.09,0.11-0.16,0.14c-0.07,0.03-0.15,0.04-0.26,0.04H302.22z
		 M305.15,26c0-0.19-0.02-0.36-0.07-0.54s-0.13-0.33-0.23-0.47s-0.25-0.25-0.42-0.33s-0.39-0.13-0.64-0.13
		c-0.44,0-0.79,0.13-1.03,0.38c-0.25,0.25-0.42,0.62-0.5,1.09H305.15z"/>
	<path class="st5" d="M310.57,24.25c0.24-0.42,0.52-0.75,0.83-0.99s0.67-0.36,1.08-0.36c0.35,0,0.63,0.08,0.85,0.25l-0.15,1.71
		c-0.03,0.11-0.07,0.19-0.12,0.22c-0.06,0.04-0.14,0.06-0.24,0.06c-0.04,0-0.09,0-0.16-0.01c-0.06,0-0.13-0.01-0.2-0.02
		c-0.07-0.01-0.14-0.01-0.21-0.02c-0.07-0.01-0.14-0.01-0.2-0.01c-0.34,0-0.61,0.09-0.81,0.27c-0.2,0.18-0.37,0.43-0.51,0.75v4.73
		h-2.33v-7.78h1.38c0.12,0,0.21,0.01,0.29,0.03c0.08,0.02,0.14,0.05,0.2,0.09c0.05,0.04,0.09,0.1,0.12,0.17
		c0.03,0.07,0.05,0.16,0.07,0.26L310.57,24.25z"/>
	<path class="st5" d="M316.29,24.25c0.24-0.42,0.52-0.75,0.83-0.99s0.67-0.36,1.08-0.36c0.35,0,0.63,0.08,0.85,0.25l-0.15,1.71
		c-0.03,0.11-0.07,0.19-0.12,0.22c-0.06,0.04-0.14,0.06-0.24,0.06c-0.04,0-0.09,0-0.16-0.01c-0.07,0-0.13-0.01-0.2-0.02
		c-0.07-0.01-0.14-0.01-0.21-0.02c-0.07-0.01-0.14-0.01-0.2-0.01c-0.34,0-0.61,0.09-0.81,0.27c-0.2,0.18-0.37,0.43-0.51,0.75v4.73
		h-2.33v-7.78h1.38c0.12,0,0.21,0.01,0.29,0.03c0.08,0.02,0.14,0.05,0.19,0.09c0.05,0.04,0.09,0.1,0.12,0.17
		c0.03,0.07,0.05,0.16,0.07,0.26L316.29,24.25z"/>
	<path class="st5" d="M323.29,22.93c0.59,0,1.13,0.09,1.61,0.28c0.48,0.19,0.9,0.45,1.25,0.8c0.35,0.34,0.62,0.76,0.81,1.26
		c0.19,0.49,0.29,1.05,0.29,1.66c0,0.62-0.1,1.18-0.29,1.68s-0.46,0.92-0.81,1.27c-0.35,0.35-0.76,0.61-1.25,0.8
		c-0.49,0.19-1.02,0.28-1.61,0.28c-0.6,0-1.14-0.09-1.62-0.28c-0.49-0.19-0.91-0.45-1.26-0.8c-0.35-0.35-0.63-0.77-0.82-1.27
		c-0.19-0.5-0.29-1.06-0.29-1.68c0-0.61,0.1-1.17,0.29-1.66c0.19-0.49,0.47-0.91,0.82-1.26c0.35-0.35,0.77-0.61,1.26-0.8
		C322.15,23.02,322.69,22.93,323.29,22.93z M323.29,29.22c0.53,0,0.93-0.19,1.18-0.57c0.25-0.38,0.38-0.95,0.38-1.72
		s-0.13-1.34-0.38-1.72s-0.65-0.56-1.18-0.56c-0.55,0-0.95,0.19-1.21,0.56s-0.38,0.95-0.38,1.72s0.13,1.34,0.38,1.72
		C322.34,29.03,322.74,29.22,323.29,29.22z"/>
	<path class="st5" d="M330.59,24.25c0.24-0.42,0.52-0.75,0.83-0.99s0.67-0.36,1.08-0.36c0.35,0,0.64,0.08,0.86,0.25l-0.15,1.71
		c-0.02,0.11-0.07,0.19-0.12,0.22c-0.06,0.04-0.14,0.06-0.24,0.06c-0.04,0-0.09,0-0.16-0.01c-0.06,0-0.13-0.01-0.2-0.02
		c-0.07-0.01-0.14-0.01-0.21-0.02c-0.07-0.01-0.14-0.01-0.2-0.01c-0.34,0-0.61,0.09-0.81,0.27c-0.2,0.18-0.37,0.43-0.51,0.75v4.73
		h-2.32v-7.78h1.38c0.11,0,0.21,0.01,0.29,0.03c0.08,0.02,0.14,0.05,0.2,0.09s0.09,0.1,0.12,0.17c0.03,0.07,0.05,0.16,0.07,0.26
		L330.59,24.25z"/>
	<path class="st5" d="M339.21,27.35c0.07,0.65,0.27,1.12,0.59,1.41c0.32,0.29,0.73,0.44,1.24,0.44c0.27,0,0.5-0.03,0.7-0.1
		c0.19-0.06,0.37-0.14,0.52-0.22c0.15-0.08,0.29-0.15,0.42-0.22c0.13-0.06,0.26-0.1,0.4-0.1c0.19,0,0.32,0.07,0.42,0.2l0.68,0.83
		c-0.24,0.28-0.5,0.5-0.78,0.67c-0.28,0.17-0.56,0.31-0.86,0.4c-0.29,0.1-0.58,0.17-0.88,0.2c-0.29,0.04-0.57,0.06-0.84,0.06
		c-0.55,0-1.06-0.09-1.53-0.27c-0.48-0.18-0.9-0.44-1.25-0.79s-0.64-0.78-0.85-1.31c-0.21-0.52-0.31-1.13-0.31-1.81
		c0-0.52,0.09-1.01,0.27-1.48c0.18-0.46,0.43-0.87,0.77-1.22c0.33-0.35,0.73-0.63,1.21-0.83c0.47-0.2,1.01-0.31,1.6-0.31
		c0.51,0,0.99,0.08,1.41,0.24c0.43,0.16,0.8,0.39,1.1,0.7c0.31,0.3,0.55,0.68,0.72,1.12c0.17,0.44,0.26,0.94,0.26,1.5
		c0,0.18-0.01,0.32-0.02,0.43c-0.02,0.11-0.04,0.2-0.08,0.26s-0.09,0.11-0.16,0.14c-0.07,0.03-0.15,0.04-0.26,0.04H339.21z
		 M342.14,26c0-0.19-0.02-0.36-0.07-0.54c-0.05-0.18-0.13-0.33-0.23-0.47c-0.11-0.14-0.25-0.25-0.42-0.33
		c-0.18-0.08-0.39-0.13-0.64-0.13c-0.44,0-0.79,0.13-1.04,0.38s-0.42,0.62-0.5,1.09H342.14z"/>
	<path class="st5" d="M347.53,23.89c0.15-0.14,0.3-0.27,0.46-0.39c0.16-0.12,0.33-0.22,0.51-0.3s0.38-0.15,0.59-0.2
		c0.21-0.05,0.44-0.07,0.69-0.07c0.42,0,0.8,0.07,1.13,0.22c0.33,0.15,0.6,0.35,0.83,0.61s0.4,0.57,0.51,0.94
		c0.11,0.36,0.17,0.76,0.17,1.18v4.94h-2.32v-4.94c0-0.38-0.09-0.68-0.26-0.89c-0.18-0.21-0.43-0.32-0.77-0.32
		c-0.26,0-0.49,0.05-0.72,0.16c-0.22,0.11-0.44,0.25-0.65,0.44v5.55h-2.33v-7.78h1.44c0.29,0,0.48,0.13,0.57,0.39L347.53,23.89z"/>
	<path class="st5" d="M359.31,27.35c0.07,0.65,0.27,1.12,0.59,1.41c0.32,0.29,0.73,0.44,1.24,0.44c0.27,0,0.5-0.03,0.7-0.1
		c0.19-0.06,0.37-0.14,0.52-0.22c0.15-0.08,0.29-0.15,0.42-0.22c0.13-0.06,0.26-0.1,0.4-0.1c0.19,0,0.32,0.07,0.42,0.2l0.68,0.83
		c-0.24,0.28-0.5,0.5-0.78,0.67c-0.28,0.17-0.56,0.31-0.86,0.4c-0.29,0.1-0.58,0.17-0.88,0.2c-0.29,0.04-0.57,0.06-0.84,0.06
		c-0.55,0-1.06-0.09-1.53-0.27c-0.48-0.18-0.9-0.44-1.25-0.79s-0.64-0.78-0.85-1.31c-0.21-0.52-0.31-1.13-0.31-1.81
		c0-0.52,0.09-1.01,0.27-1.48c0.18-0.46,0.43-0.87,0.77-1.22c0.33-0.35,0.73-0.63,1.21-0.83c0.47-0.2,1.01-0.31,1.6-0.31
		c0.51,0,0.99,0.08,1.41,0.24c0.43,0.16,0.8,0.39,1.1,0.7c0.31,0.3,0.55,0.68,0.72,1.12c0.17,0.44,0.26,0.94,0.26,1.5
		c0,0.18-0.01,0.32-0.02,0.43c-0.02,0.11-0.04,0.2-0.08,0.26s-0.09,0.11-0.16,0.14c-0.07,0.03-0.15,0.04-0.26,0.04H359.31z
		 M362.24,26c0-0.19-0.02-0.36-0.07-0.54c-0.05-0.18-0.13-0.33-0.23-0.47c-0.11-0.14-0.25-0.25-0.42-0.33
		c-0.18-0.08-0.39-0.13-0.64-0.13c-0.44,0-0.79,0.13-1.04,0.38s-0.42,0.62-0.5,1.09H362.24z"/>
	<path class="st5" d="M367.81,19.6v11.23h-2.33V19.6H367.81z"/>
	<path class="st5" d="M375.03,24.01c0.31-0.32,0.65-0.59,1.04-0.8s0.85-0.31,1.38-0.31c0.41,0,0.78,0.09,1.13,0.27
		c0.34,0.18,0.64,0.44,0.89,0.78c0.25,0.34,0.45,0.76,0.59,1.25c0.14,0.49,0.21,1.05,0.21,1.68c0,0.58-0.08,1.13-0.24,1.62
		c-0.16,0.49-0.39,0.93-0.68,1.29c-0.29,0.36-0.64,0.65-1.05,0.85c-0.41,0.2-0.86,0.31-1.35,0.31c-0.41,0-0.75-0.06-1.02-0.17
		c-0.27-0.11-0.52-0.27-0.75-0.47v2.99h-2.32V23.05h1.44c0.29,0,0.48,0.13,0.57,0.39L375.03,24.01z M375.17,28.71
		c0.17,0.19,0.37,0.32,0.57,0.41c0.21,0.08,0.42,0.12,0.64,0.12c0.22,0,0.41-0.04,0.59-0.13c0.18-0.08,0.34-0.22,0.47-0.41
		s0.24-0.43,0.31-0.73c0.07-0.3,0.11-0.66,0.11-1.09c0-0.41-0.03-0.75-0.09-1.03c-0.06-0.28-0.14-0.51-0.25-0.68
		c-0.11-0.17-0.24-0.3-0.39-0.37c-0.15-0.07-0.32-0.11-0.5-0.11c-0.34,0-0.62,0.06-0.84,0.19c-0.22,0.13-0.43,0.31-0.63,0.55V28.71z
		"/>
	<path class="st5" d="M381.3,24.13c0.47-0.42,0.99-0.72,1.56-0.93c0.57-0.2,1.19-0.3,1.84-0.3c0.47,0,0.89,0.08,1.27,0.23
		c0.38,0.15,0.7,0.36,0.96,0.64c0.26,0.27,0.46,0.6,0.6,0.97s0.21,0.79,0.21,1.23v4.86h-1.06c-0.22,0-0.39-0.03-0.5-0.09
		c-0.11-0.06-0.21-0.18-0.28-0.38l-0.17-0.43c-0.19,0.17-0.38,0.31-0.56,0.44c-0.18,0.13-0.37,0.23-0.56,0.32
		c-0.19,0.09-0.4,0.15-0.61,0.2s-0.46,0.06-0.72,0.06c-0.35,0-0.68-0.05-0.97-0.14s-0.54-0.23-0.74-0.41
		c-0.2-0.18-0.36-0.4-0.47-0.67c-0.11-0.27-0.17-0.58-0.17-0.93c0-0.28,0.07-0.56,0.21-0.85c0.14-0.29,0.38-0.55,0.73-0.79
		c0.35-0.24,0.81-0.44,1.4-0.6c0.59-0.16,1.32-0.25,2.21-0.27v-0.33c0-0.45-0.09-0.78-0.28-0.99c-0.19-0.2-0.45-0.3-0.8-0.3
		c-0.27,0-0.5,0.03-0.67,0.09s-0.33,0.13-0.47,0.2c-0.14,0.08-0.27,0.14-0.4,0.2s-0.29,0.09-0.46,0.09c-0.16,0-0.29-0.04-0.41-0.12
		c-0.11-0.08-0.2-0.18-0.27-0.28L381.3,24.13z M385.48,27.66c-0.46,0.02-0.85,0.06-1.15,0.12c-0.3,0.06-0.54,0.14-0.71,0.23
		s-0.3,0.19-0.36,0.31s-0.1,0.24-0.1,0.38c0,0.26,0.07,0.45,0.22,0.56c0.15,0.11,0.36,0.16,0.64,0.16c0.3,0,0.56-0.05,0.79-0.16
		c0.23-0.11,0.45-0.28,0.68-0.51V27.66z"/>
	<path class="st5" d="M396.29,23.29v0.85c0,0.13-0.04,0.23-0.11,0.31c-0.07,0.07-0.2,0.13-0.37,0.17l-0.56,0.13
		c0.03,0.11,0.05,0.22,0.07,0.34c0.02,0.12,0.03,0.24,0.03,0.36c0,0.39-0.08,0.74-0.24,1.05s-0.39,0.57-0.67,0.79
		c-0.28,0.22-0.62,0.39-1,0.5c-0.39,0.12-0.8,0.18-1.24,0.18c-0.12,0-0.24,0-0.35-0.01c-0.11-0.01-0.23-0.02-0.34-0.04
		c-0.17,0.1-0.25,0.22-0.25,0.35c0,0.13,0.07,0.22,0.21,0.28c0.14,0.06,0.32,0.1,0.55,0.12s0.49,0.04,0.78,0.04
		c0.29,0.01,0.59,0.03,0.9,0.05c0.31,0.03,0.6,0.07,0.9,0.14c0.29,0.06,0.55,0.17,0.78,0.31c0.23,0.15,0.42,0.34,0.55,0.58
		c0.14,0.24,0.21,0.55,0.21,0.93c0,0.35-0.08,0.69-0.25,1.03s-0.42,0.63-0.75,0.89s-0.73,0.47-1.21,0.63s-1.03,0.24-1.65,0.24
		c-0.61,0-1.14-0.06-1.58-0.17c-0.44-0.11-0.81-0.27-1.1-0.45c-0.29-0.19-0.51-0.4-0.65-0.65c-0.14-0.24-0.21-0.5-0.21-0.76
		c0-0.34,0.1-0.63,0.3-0.86s0.48-0.42,0.84-0.55c-0.19-0.11-0.34-0.26-0.45-0.44c-0.11-0.18-0.17-0.41-0.17-0.7
		c0-0.11,0.02-0.24,0.06-0.36c0.04-0.13,0.1-0.25,0.19-0.38c0.09-0.12,0.2-0.24,0.33-0.35c0.13-0.11,0.29-0.21,0.47-0.29
		c-0.4-0.21-0.73-0.5-0.96-0.85s-0.35-0.76-0.35-1.23c0-0.39,0.08-0.74,0.25-1.05s0.39-0.58,0.68-0.8c0.29-0.22,0.63-0.38,1.02-0.5
		c0.39-0.12,0.81-0.18,1.27-0.18c0.66,0,1.25,0.13,1.75,0.38H396.29z M394,31.11c0-0.19-0.08-0.32-0.25-0.4s-0.38-0.14-0.64-0.18
		c-0.27-0.03-0.56-0.06-0.89-0.06c-0.33-0.01-0.65-0.03-0.98-0.06c-0.15,0.1-0.26,0.21-0.36,0.33c-0.09,0.12-0.14,0.26-0.14,0.42
		c0,0.11,0.02,0.21,0.07,0.3s0.13,0.17,0.25,0.23s0.28,0.12,0.48,0.15c0.2,0.04,0.46,0.06,0.77,0.06c0.33,0,0.61-0.02,0.82-0.06
		c0.21-0.04,0.39-0.1,0.51-0.17c0.13-0.07,0.22-0.15,0.27-0.25C393.97,31.33,394,31.22,394,31.11z M392.2,26.53
		c0.39,0,0.66-0.1,0.84-0.29c0.17-0.19,0.26-0.44,0.26-0.75c0-0.31-0.09-0.56-0.26-0.74c-0.17-0.18-0.45-0.27-0.84-0.27
		s-0.66,0.09-0.84,0.27c-0.17,0.18-0.26,0.43-0.26,0.74c0,0.15,0.02,0.29,0.06,0.41c0.04,0.13,0.11,0.23,0.2,0.33
		s0.2,0.17,0.34,0.22C391.84,26.5,392.01,26.53,392.2,26.53z"/>
	<path class="st5" d="M400.7,22.93c0.59,0,1.13,0.09,1.61,0.28c0.48,0.19,0.9,0.45,1.25,0.8c0.35,0.34,0.62,0.76,0.81,1.26
		c0.19,0.49,0.29,1.05,0.29,1.66c0,0.62-0.1,1.18-0.29,1.68s-0.46,0.92-0.81,1.27c-0.35,0.35-0.76,0.61-1.25,0.8
		c-0.49,0.19-1.02,0.28-1.61,0.28c-0.6,0-1.14-0.09-1.62-0.28s-0.91-0.45-1.26-0.8c-0.35-0.35-0.63-0.77-0.82-1.27
		c-0.19-0.5-0.29-1.06-0.29-1.68c0-0.61,0.1-1.17,0.29-1.66c0.19-0.49,0.47-0.91,0.82-1.26c0.35-0.35,0.77-0.61,1.26-0.8
		C399.57,23.02,400.11,22.93,400.7,22.93z M400.7,29.22c0.53,0,0.93-0.19,1.18-0.57c0.25-0.38,0.38-0.95,0.38-1.72
		s-0.13-1.34-0.38-1.72c-0.25-0.38-0.65-0.56-1.18-0.56c-0.55,0-0.95,0.19-1.21,0.56s-0.38,0.95-0.38,1.72s0.13,1.34,0.38,1.72
		C399.75,29.03,400.15,29.22,400.7,29.22z"/>
</g>
<g id="Grupo_1445_2_" transform="translate(317 -694)">
	<g transform="matrix(1, 0, 0, 1, -553, 689)">
		<path id="Rectángulo_171-2_17_" class="st5" d="M437.47,51.53h97.07c8.14,0,14.73,6.6,14.73,14.73l0,0
			c0,8.14-6.6,14.73-14.73,14.73h-97.07c-8.14,0-14.73-6.6-14.73-14.73l0,0C422.73,58.13,429.33,51.53,437.47,51.53z"/>
	</g>
	<g class="st6">
		<path class="st7" d="M-99.73,760.23h-1.62c-0.18,0-0.33-0.04-0.44-0.13c-0.11-0.09-0.2-0.2-0.25-0.33l-0.68-1.92h-4.01l-0.68,1.92
			c-0.05,0.12-0.13,0.22-0.24,0.32c-0.12,0.09-0.26,0.14-0.44,0.14h-1.63l3.93-10.06h2.13L-99.73,760.23z M-103.23,756.41
			l-1.09-3.08c-0.06-0.16-0.13-0.35-0.2-0.57c-0.07-0.22-0.14-0.45-0.2-0.71c-0.06,0.26-0.13,0.5-0.2,0.72s-0.14,0.41-0.2,0.57
			l-1.08,3.06H-103.23z"/>
		<path class="st7" d="M-94.07,754.68c-0.06,0.07-0.11,0.13-0.17,0.17c-0.06,0.04-0.13,0.06-0.24,0.06c-0.09,0-0.18-0.03-0.27-0.08
			c-0.09-0.05-0.18-0.11-0.29-0.17c-0.11-0.06-0.24-0.12-0.4-0.17c-0.15-0.05-0.34-0.08-0.57-0.08c-0.29,0-0.53,0.05-0.75,0.16
			c-0.21,0.1-0.38,0.25-0.52,0.45s-0.24,0.43-0.31,0.71s-0.1,0.59-0.1,0.94c0,0.73,0.15,1.29,0.44,1.68
			c0.29,0.39,0.69,0.58,1.2,0.58c0.18,0,0.33-0.02,0.45-0.05c0.13-0.03,0.24-0.07,0.33-0.11c0.09-0.05,0.18-0.1,0.25-0.15
			c0.07-0.06,0.14-0.11,0.2-0.15c0.06-0.05,0.12-0.08,0.19-0.11c0.06-0.03,0.13-0.05,0.21-0.05c0.15,0,0.26,0.06,0.35,0.17
			l0.55,0.69c-0.2,0.24-0.42,0.43-0.65,0.59c-0.23,0.15-0.47,0.28-0.72,0.37c-0.25,0.09-0.5,0.15-0.75,0.19
			c-0.25,0.03-0.51,0.05-0.76,0.05c-0.44,0-0.85-0.08-1.25-0.25c-0.39-0.16-0.74-0.4-1.03-0.72c-0.3-0.31-0.53-0.7-0.7-1.16
			s-0.26-0.98-0.26-1.57c0-0.52,0.08-1.01,0.23-1.46c0.15-0.45,0.38-0.84,0.67-1.16c0.3-0.33,0.66-0.59,1.1-0.77
			c0.44-0.19,0.94-0.28,1.52-0.28c0.55,0,1.02,0.09,1.44,0.26c0.41,0.18,0.78,0.43,1.11,0.76L-94.07,754.68z"/>
		<path class="st7" d="M-90.07,760.34c-0.32,0-0.61-0.05-0.86-0.14c-0.25-0.09-0.46-0.23-0.63-0.41c-0.17-0.18-0.3-0.39-0.39-0.64
			c-0.09-0.25-0.13-0.53-0.13-0.85v-3.85h-0.67c-0.1,0-0.19-0.03-0.26-0.1s-0.11-0.16-0.11-0.29v-0.75l1.14-0.21l0.39-1.85
			c0.05-0.21,0.19-0.31,0.42-0.31h1v2.18h1.84v1.33h-1.84v3.73c0,0.2,0.05,0.36,0.14,0.47c0.09,0.12,0.23,0.17,0.41,0.17
			c0.09,0,0.17-0.01,0.24-0.03c0.06-0.02,0.12-0.04,0.17-0.07c0.05-0.03,0.09-0.05,0.13-0.07c0.04-0.02,0.08-0.03,0.12-0.03
			c0.06,0,0.1,0.01,0.14,0.04c0.04,0.03,0.07,0.07,0.11,0.13l0.58,0.92c-0.26,0.21-0.56,0.37-0.89,0.47
			C-89.37,760.29-89.72,760.34-90.07,760.34z"/>
		<path class="st7" d="M-81.03,753.08v7.15h-1.18c-0.25,0-0.4-0.11-0.47-0.33l-0.13-0.5c-0.14,0.14-0.29,0.27-0.44,0.38
			c-0.15,0.12-0.32,0.21-0.49,0.3c-0.17,0.08-0.36,0.15-0.56,0.19s-0.42,0.07-0.66,0.07c-0.39,0-0.73-0.07-1.04-0.2
			c-0.3-0.13-0.56-0.32-0.76-0.56c-0.2-0.24-0.36-0.53-0.46-0.86s-0.16-0.7-0.16-1.1v-4.54h1.91v4.54c0,0.4,0.09,0.71,0.27,0.93
			c0.18,0.22,0.45,0.33,0.81,0.33c0.27,0,0.52-0.06,0.76-0.18c0.24-0.12,0.46-0.28,0.67-0.48v-5.14H-81.03z"/>
		<path class="st7" d="M-79.61,754.07c0.42-0.38,0.89-0.66,1.39-0.85c0.51-0.19,1.06-0.28,1.65-0.28c0.42,0,0.81,0.07,1.14,0.21
			c0.34,0.14,0.62,0.33,0.85,0.58s0.41,0.54,0.54,0.88c0.13,0.34,0.19,0.72,0.19,1.12v4.49h-0.87c-0.18,0-0.32-0.03-0.41-0.08
			c-0.09-0.05-0.17-0.16-0.23-0.32l-0.15-0.46c-0.18,0.16-0.35,0.3-0.52,0.42c-0.17,0.12-0.34,0.22-0.52,0.3
			c-0.18,0.08-0.37,0.14-0.58,0.18c-0.21,0.04-0.44,0.06-0.69,0.06c-0.31,0-0.6-0.04-0.86-0.12c-0.26-0.08-0.48-0.21-0.67-0.37
			c-0.19-0.16-0.33-0.37-0.43-0.61c-0.1-0.24-0.15-0.53-0.15-0.85c0-0.26,0.07-0.53,0.2-0.79s0.36-0.5,0.69-0.72
			c0.33-0.21,0.76-0.39,1.3-0.53c0.54-0.14,1.22-0.22,2.04-0.24v-0.37c0-0.45-0.09-0.78-0.28-0.99s-0.46-0.32-0.82-0.32
			c-0.26,0-0.48,0.03-0.66,0.09c-0.18,0.06-0.33,0.13-0.46,0.2c-0.13,0.07-0.26,0.14-0.37,0.2c-0.12,0.06-0.25,0.09-0.4,0.09
			c-0.13,0-0.25-0.03-0.34-0.1c-0.09-0.07-0.17-0.15-0.23-0.24L-79.61,754.07z M-75.72,757.24c-0.47,0.02-0.85,0.06-1.16,0.12
			c-0.31,0.06-0.56,0.13-0.74,0.23c-0.18,0.09-0.31,0.2-0.39,0.32c-0.08,0.12-0.11,0.25-0.11,0.38c0,0.28,0.08,0.47,0.23,0.59
			c0.15,0.12,0.37,0.17,0.65,0.17c0.32,0,0.6-0.06,0.83-0.17c0.23-0.11,0.47-0.29,0.7-0.53V757.24z"/>
		<path class="st7" d="M-70.43,749.89v10.34h-1.91v-10.34H-70.43z"/>
		<path class="st7" d="M-66.63,751.05c0,0.16-0.03,0.31-0.1,0.45s-0.15,0.26-0.26,0.37c-0.11,0.11-0.24,0.19-0.38,0.25
			c-0.15,0.06-0.3,0.09-0.47,0.09c-0.16,0-0.31-0.03-0.45-0.09c-0.14-0.06-0.26-0.14-0.37-0.25c-0.11-0.11-0.19-0.23-0.25-0.37
			c-0.06-0.14-0.09-0.29-0.09-0.45c0-0.16,0.03-0.31,0.09-0.45c0.06-0.14,0.15-0.26,0.25-0.37c0.11-0.11,0.23-0.19,0.37-0.25
			s0.29-0.09,0.45-0.09c0.17,0,0.32,0.03,0.47,0.09c0.15,0.06,0.27,0.14,0.38,0.25c0.11,0.11,0.19,0.23,0.26,0.37
			C-66.67,750.74-66.63,750.89-66.63,751.05z M-66.86,753.08v7.15h-1.91v-7.15H-66.86z"/>
		<path class="st7" d="M-60,753.86c0,0.13-0.02,0.26-0.07,0.39c-0.05,0.13-0.11,0.23-0.18,0.31l-3.21,4.23h3.37v1.44h-5.58v-0.79
			c0-0.08,0.02-0.18,0.07-0.3c0.04-0.12,0.1-0.23,0.18-0.34l3.24-4.28h-3.29v-1.44H-60V753.86z"/>
		<path class="st7" d="M-58.97,754.07c0.42-0.38,0.89-0.66,1.39-0.85c0.51-0.19,1.06-0.28,1.65-0.28c0.42,0,0.81,0.07,1.14,0.21
			c0.34,0.14,0.62,0.33,0.85,0.58s0.41,0.54,0.54,0.88c0.13,0.34,0.19,0.72,0.19,1.12v4.49h-0.87c-0.18,0-0.32-0.03-0.41-0.08
			c-0.09-0.05-0.17-0.16-0.23-0.32l-0.15-0.46c-0.18,0.16-0.35,0.3-0.52,0.42c-0.17,0.12-0.34,0.22-0.52,0.3
			c-0.18,0.08-0.37,0.14-0.58,0.18c-0.21,0.04-0.44,0.06-0.69,0.06c-0.31,0-0.6-0.04-0.86-0.12c-0.26-0.08-0.48-0.21-0.67-0.37
			c-0.19-0.16-0.33-0.37-0.43-0.61c-0.1-0.24-0.15-0.53-0.15-0.85c0-0.26,0.07-0.53,0.2-0.79s0.36-0.5,0.69-0.72
			c0.33-0.21,0.76-0.39,1.3-0.53c0.54-0.14,1.22-0.22,2.04-0.24v-0.37c0-0.45-0.09-0.78-0.28-0.99s-0.46-0.32-0.82-0.32
			c-0.26,0-0.48,0.03-0.66,0.09c-0.18,0.06-0.33,0.13-0.46,0.2c-0.13,0.07-0.26,0.14-0.37,0.2c-0.12,0.06-0.25,0.09-0.4,0.09
			c-0.13,0-0.25-0.03-0.34-0.1c-0.09-0.07-0.17-0.15-0.23-0.24L-58.97,754.07z M-55.08,757.24c-0.47,0.02-0.85,0.06-1.16,0.12
			c-0.31,0.06-0.56,0.13-0.74,0.23c-0.18,0.09-0.31,0.2-0.39,0.32c-0.08,0.12-0.11,0.25-0.11,0.38c0,0.28,0.08,0.47,0.23,0.59
			c0.15,0.12,0.37,0.17,0.65,0.17c0.32,0,0.6-0.06,0.83-0.17c0.23-0.11,0.47-0.29,0.7-0.53V757.24z"/>
		<path class="st7" d="M-48.58,754.07c0.42-0.38,0.89-0.66,1.39-0.85c0.51-0.19,1.06-0.28,1.65-0.28c0.42,0,0.81,0.07,1.14,0.21
			c0.34,0.14,0.62,0.33,0.85,0.58s0.41,0.54,0.54,0.88c0.13,0.34,0.19,0.72,0.19,1.12v4.49h-0.87c-0.18,0-0.32-0.03-0.41-0.08
			c-0.09-0.05-0.17-0.16-0.23-0.32l-0.15-0.46c-0.18,0.16-0.35,0.3-0.52,0.42c-0.17,0.12-0.34,0.22-0.52,0.3
			c-0.18,0.08-0.37,0.14-0.58,0.18c-0.21,0.04-0.44,0.06-0.69,0.06c-0.31,0-0.6-0.04-0.86-0.12c-0.26-0.08-0.48-0.21-0.67-0.37
			c-0.19-0.16-0.33-0.37-0.43-0.61c-0.1-0.24-0.15-0.53-0.15-0.85c0-0.26,0.07-0.53,0.2-0.79s0.36-0.5,0.69-0.72
			c0.33-0.21,0.76-0.39,1.3-0.53c0.54-0.14,1.22-0.22,2.04-0.24v-0.37c0-0.45-0.09-0.78-0.28-0.99s-0.46-0.32-0.82-0.32
			c-0.26,0-0.48,0.03-0.66,0.09c-0.18,0.06-0.33,0.13-0.46,0.2c-0.13,0.07-0.26,0.14-0.37,0.2c-0.12,0.06-0.25,0.09-0.4,0.09
			c-0.13,0-0.25-0.03-0.34-0.1c-0.09-0.07-0.17-0.15-0.23-0.24L-48.58,754.07z M-44.68,757.24c-0.47,0.02-0.85,0.06-1.16,0.12
			c-0.31,0.06-0.56,0.13-0.74,0.23c-0.18,0.09-0.31,0.2-0.39,0.32c-0.08,0.12-0.11,0.25-0.11,0.38c0,0.28,0.08,0.47,0.23,0.59
			c0.15,0.12,0.37,0.17,0.65,0.17c0.32,0,0.6-0.06,0.83-0.17c0.23-0.11,0.47-0.29,0.7-0.53V757.24z"/>
		<path class="st7" d="M-34.99,753.08v9.46h-1.91v-3.15c-0.28,0.29-0.59,0.52-0.94,0.69s-0.75,0.26-1.22,0.26
			c-0.38,0-0.73-0.08-1.05-0.24c-0.32-0.16-0.6-0.4-0.83-0.71c-0.23-0.31-0.42-0.69-0.54-1.15c-0.13-0.45-0.19-0.97-0.19-1.55
			c0-0.53,0.07-1.03,0.22-1.48c0.15-0.46,0.35-0.85,0.62-1.19s0.59-0.59,0.97-0.78c0.38-0.19,0.8-0.28,1.26-0.28
			c0.22,0,0.42,0.02,0.6,0.06c0.18,0.04,0.35,0.09,0.5,0.16s0.29,0.15,0.42,0.26c0.13,0.1,0.25,0.21,0.37,0.34l0.09-0.35
			c0.07-0.22,0.23-0.33,0.47-0.33H-34.99z M-36.9,754.94c-0.18-0.21-0.38-0.35-0.59-0.44c-0.21-0.08-0.43-0.12-0.67-0.12
			c-0.23,0-0.44,0.04-0.63,0.13c-0.19,0.09-0.35,0.23-0.49,0.41c-0.14,0.19-0.24,0.43-0.32,0.72c-0.07,0.29-0.11,0.64-0.11,1.04
			c0,0.4,0.03,0.73,0.09,1.01s0.15,0.5,0.26,0.67s0.25,0.29,0.41,0.37s0.34,0.11,0.54,0.11c0.34,0,0.62-0.07,0.85-0.2
			c0.23-0.13,0.44-0.32,0.65-0.57V754.94z"/>
		<path class="st7" d="M-27.14,753.08v7.15h-1.18c-0.25,0-0.4-0.11-0.47-0.33l-0.13-0.5c-0.14,0.14-0.29,0.27-0.44,0.38
			c-0.15,0.12-0.32,0.21-0.49,0.3c-0.17,0.08-0.36,0.15-0.56,0.19s-0.42,0.07-0.66,0.07c-0.39,0-0.73-0.07-1.04-0.2
			c-0.3-0.13-0.56-0.32-0.76-0.56c-0.2-0.24-0.36-0.53-0.46-0.86s-0.16-0.7-0.16-1.1v-4.54h1.91v4.54c0,0.4,0.09,0.71,0.27,0.93
			c0.18,0.22,0.45,0.33,0.81,0.33c0.27,0,0.52-0.06,0.76-0.18c0.24-0.12,0.46-0.28,0.67-0.48v-5.14H-27.14z"/>
		<path class="st7" d="M-23.58,753.08v7.15h-1.91v-7.15H-23.58z M-21.92,750.06l-1.75,1.82c-0.09,0.1-0.18,0.17-0.27,0.2
			c-0.09,0.04-0.21,0.06-0.35,0.06h-1.15l0.97-1.69c0.07-0.13,0.15-0.23,0.25-0.29c0.1-0.06,0.25-0.1,0.45-0.1H-21.92z"/>
	</g>
</g>
</svg>
