<?xml version="1.0" encoding="utf-8"?>
<!-- Generator: Adobe Illustrator 23.0.0, SVG Export Plug-In . SVG Version: 6.00 Build 0)  -->
<svg version="1.1" id="Layer_1" xmlns="http://www.w3.org/2000/svg" xmlns:xlink="http://www.w3.org/1999/xlink" x="0px" y="0px"
	 viewBox="0 0 1920 55" style="enable-background:new 0 0 1920 55;" xml:space="preserve">
<style type="text/css">
	.st0{fill:url(#Rectángulo_575_3_);}
	.st1{fill:url(#Rectángulo_575_4_);}
	.st2{fill:#DC0047;}
	.st3{fill:url(#Rectángulo_575_5_);}
	.st4{fill:#D1D3D4;}
	.st5{fill:#FFFFFF;}
	.st6{enable-background:new    ;}
	.st7{fill:#1178F2;}
</style>
<linearGradient id="Rectángulo_575_3_" gradientUnits="userSpaceOnUse" x1="-1.1934" y1="283.5515" x2="1920.8066" y2="-228.4485">
	<stop  offset="0" style="stop-color:#1450AD"/>
	<stop  offset="1" style="stop-color:#017BBC"/>
</linearGradient>
<rect id="Rectángulo_575" class="st0" width="1920" height="55"/>
<g>
	<g transform="matrix(1, 0, 0, 1, -553, 689)">
		<path id="Rectángulo_171-2_14_" class="st5" d="M1649.29-677.1h112c9.39,0,17,7.61,17,17l0,0c0,9.39-7.61,17-17,17h-112
			c-9.39,0-17-7.61-17-17l0,0C1632.29-669.48,1639.9-677.1,1649.29-677.1z"/>
	</g>
	<g class="st6">
		<path class="st7" d="M1113.15,35.57h-1.86c-0.21,0-0.38-0.05-0.51-0.15c-0.13-0.1-0.23-0.22-0.29-0.38l-0.78-2.22h-4.62
			l-0.78,2.22c-0.05,0.13-0.15,0.25-0.28,0.36c-0.13,0.11-0.3,0.16-0.5,0.16h-1.88l4.54-11.61h2.46L1113.15,35.57z M1109.12,31.16
			l-1.26-3.55c-0.07-0.19-0.15-0.41-0.24-0.66c-0.08-0.25-0.16-0.52-0.24-0.82c-0.08,0.3-0.15,0.57-0.24,0.83
			c-0.08,0.25-0.16,0.47-0.24,0.66l-1.25,3.54H1109.12z"/>
		<path class="st7" d="M1119.69,29.16c-0.06,0.09-0.13,0.15-0.19,0.2s-0.15,0.07-0.27,0.07c-0.11,0-0.21-0.03-0.31-0.09
			c-0.1-0.06-0.21-0.13-0.34-0.2c-0.13-0.07-0.28-0.14-0.46-0.2c-0.18-0.06-0.4-0.09-0.66-0.09c-0.33,0-0.62,0.06-0.86,0.18
			s-0.44,0.29-0.6,0.52c-0.16,0.22-0.28,0.5-0.36,0.82c-0.08,0.32-0.12,0.68-0.12,1.08c0,0.84,0.17,1.49,0.51,1.94
			c0.34,0.45,0.8,0.67,1.39,0.67c0.2,0,0.38-0.02,0.52-0.05c0.15-0.03,0.27-0.08,0.38-0.13s0.2-0.11,0.28-0.18
			c0.08-0.06,0.16-0.12,0.23-0.18c0.07-0.05,0.14-0.1,0.22-0.13c0.07-0.03,0.15-0.05,0.24-0.05c0.17,0,0.3,0.06,0.4,0.19l0.63,0.8
			c-0.23,0.27-0.49,0.5-0.75,0.68s-0.54,0.32-0.83,0.42c-0.29,0.1-0.57,0.18-0.87,0.22c-0.29,0.04-0.58,0.06-0.87,0.06
			c-0.51,0-0.99-0.09-1.44-0.28c-0.45-0.19-0.85-0.46-1.19-0.83c-0.34-0.36-0.61-0.81-0.81-1.34c-0.2-0.53-0.3-1.13-0.3-1.81
			c0-0.6,0.09-1.16,0.26-1.68c0.18-0.52,0.43-0.96,0.78-1.34s0.76-0.68,1.27-0.89s1.09-0.32,1.75-0.32c0.63,0,1.18,0.1,1.66,0.3
			c0.47,0.2,0.9,0.5,1.28,0.88L1119.69,29.16z"/>
		<path class="st7" d="M1124.3,35.7c-0.37,0-0.7-0.05-0.99-0.16s-0.53-0.26-0.73-0.47s-0.35-0.45-0.45-0.74
			c-0.1-0.29-0.15-0.61-0.15-0.98V28.9h-0.78c-0.12,0-0.22-0.04-0.3-0.11c-0.08-0.07-0.12-0.19-0.12-0.34v-0.86l1.32-0.24l0.45-2.14
			c0.06-0.24,0.22-0.36,0.49-0.36h1.15v2.51h2.13v1.54h-2.13v4.3c0,0.23,0.05,0.41,0.16,0.54c0.11,0.13,0.27,0.2,0.47,0.2
			c0.11,0,0.2-0.01,0.27-0.04c0.07-0.02,0.14-0.05,0.19-0.08c0.05-0.03,0.1-0.06,0.15-0.08c0.04-0.02,0.09-0.04,0.14-0.04
			c0.06,0,0.12,0.01,0.16,0.04c0.04,0.03,0.09,0.08,0.13,0.15l0.66,1.06c-0.3,0.24-0.65,0.42-1.03,0.54
			C1125.11,35.63,1124.71,35.7,1124.3,35.7z"/>
		<path class="st7" d="M1134.73,27.32v8.25h-1.36c-0.28,0-0.46-0.13-0.54-0.38l-0.14-0.58c-0.17,0.16-0.34,0.31-0.51,0.44
			c-0.18,0.13-0.36,0.25-0.56,0.34c-0.2,0.1-0.42,0.17-0.65,0.22c-0.23,0.05-0.48,0.08-0.76,0.08c-0.45,0-0.85-0.08-1.2-0.23
			c-0.35-0.16-0.64-0.37-0.88-0.65c-0.23-0.28-0.41-0.61-0.54-0.99c-0.12-0.38-0.18-0.8-0.18-1.26v-5.24h2.21v5.24
			c0,0.46,0.1,0.81,0.32,1.07c0.21,0.25,0.52,0.38,0.94,0.38c0.31,0,0.6-0.07,0.87-0.2c0.27-0.14,0.53-0.32,0.78-0.56v-5.93H1134.73
			z"/>
		<path class="st7" d="M1136.37,28.46c0.49-0.44,1.02-0.76,1.61-0.98s1.22-0.32,1.9-0.32c0.49,0,0.93,0.08,1.32,0.24
			c0.39,0.16,0.71,0.38,0.98,0.67c0.27,0.29,0.48,0.63,0.62,1.02c0.14,0.4,0.22,0.83,0.22,1.3v5.18h-1.01
			c-0.21,0-0.37-0.03-0.48-0.09s-0.2-0.18-0.27-0.37l-0.18-0.53c-0.21,0.18-0.41,0.34-0.6,0.48c-0.19,0.14-0.4,0.25-0.6,0.35
			c-0.21,0.09-0.43,0.16-0.67,0.21s-0.5,0.07-0.8,0.07c-0.36,0-0.69-0.05-0.99-0.14c-0.3-0.1-0.56-0.24-0.77-0.43
			c-0.22-0.19-0.38-0.42-0.5-0.71c-0.12-0.28-0.18-0.61-0.18-0.98c0-0.3,0.08-0.61,0.23-0.91s0.42-0.58,0.8-0.83
			c0.38-0.25,0.88-0.45,1.5-0.62c0.63-0.16,1.41-0.25,2.36-0.28v-0.42c0-0.52-0.11-0.9-0.33-1.14c-0.22-0.24-0.53-0.36-0.94-0.36
			c-0.3,0-0.56,0.04-0.76,0.11s-0.38,0.15-0.53,0.23c-0.15,0.08-0.29,0.16-0.43,0.23s-0.29,0.11-0.46,0.11
			c-0.15,0-0.28-0.04-0.39-0.12s-0.19-0.17-0.26-0.28L1136.37,28.46z M1140.87,32.12c-0.54,0.03-0.99,0.07-1.34,0.14
			c-0.36,0.07-0.64,0.15-0.85,0.26c-0.21,0.11-0.36,0.23-0.45,0.36c-0.09,0.14-0.13,0.28-0.13,0.44c0,0.32,0.09,0.55,0.27,0.68
			c0.18,0.13,0.43,0.2,0.75,0.2c0.37,0,0.69-0.06,0.96-0.2s0.54-0.33,0.8-0.61V32.12z"/>
		<path class="st7" d="M1146.97,23.64v11.93h-2.21V23.64H1146.97z"/>
		<path class="st7" d="M1151.35,24.98c0,0.19-0.04,0.36-0.11,0.52s-0.17,0.3-0.3,0.42c-0.13,0.12-0.27,0.22-0.44,0.29
			s-0.35,0.1-0.54,0.1c-0.18,0-0.35-0.04-0.52-0.1s-0.31-0.17-0.43-0.29c-0.12-0.12-0.22-0.26-0.29-0.42
			c-0.07-0.16-0.11-0.33-0.11-0.52s0.04-0.36,0.11-0.52c0.07-0.16,0.17-0.3,0.29-0.43c0.12-0.12,0.27-0.22,0.43-0.29
			s0.33-0.1,0.52-0.1c0.19,0,0.37,0.03,0.54,0.1s0.31,0.17,0.44,0.29c0.13,0.12,0.23,0.27,0.3,0.43
			C1151.31,24.61,1151.35,24.79,1151.35,24.98z M1151.08,27.32v8.25h-2.21v-8.25H1151.08z"/>
		<path class="st7" d="M1158.99,28.22c0,0.15-0.03,0.3-0.08,0.45c-0.05,0.15-0.12,0.27-0.21,0.36l-3.7,4.88h3.89v1.66h-6.44v-0.91
			c0-0.09,0.03-0.21,0.08-0.34c0.05-0.14,0.12-0.27,0.21-0.39l3.74-4.94h-3.79v-1.66h6.31V28.22z"/>
		<path class="st7" d="M1160.19,28.46c0.49-0.44,1.02-0.76,1.61-0.98s1.22-0.32,1.9-0.32c0.49,0,0.93,0.08,1.32,0.24
			c0.39,0.16,0.71,0.38,0.98,0.67c0.27,0.29,0.48,0.63,0.62,1.02c0.14,0.4,0.22,0.83,0.22,1.3v5.18h-1.01
			c-0.21,0-0.37-0.03-0.48-0.09s-0.2-0.18-0.27-0.37l-0.18-0.53c-0.21,0.18-0.41,0.34-0.6,0.48c-0.19,0.14-0.4,0.25-0.6,0.35
			c-0.21,0.09-0.43,0.16-0.67,0.21s-0.5,0.07-0.8,0.07c-0.36,0-0.69-0.05-0.99-0.14c-0.3-0.1-0.56-0.24-0.77-0.43
			c-0.22-0.19-0.38-0.42-0.5-0.71c-0.12-0.28-0.18-0.61-0.18-0.98c0-0.3,0.08-0.61,0.23-0.91s0.42-0.58,0.8-0.83
			c0.38-0.25,0.88-0.45,1.5-0.62c0.63-0.16,1.41-0.25,2.36-0.28v-0.42c0-0.52-0.11-0.9-0.33-1.14c-0.22-0.24-0.53-0.36-0.94-0.36
			c-0.3,0-0.56,0.04-0.76,0.11s-0.38,0.15-0.53,0.23c-0.15,0.08-0.29,0.16-0.43,0.23s-0.29,0.11-0.46,0.11
			c-0.15,0-0.28-0.04-0.39-0.12s-0.19-0.17-0.26-0.28L1160.19,28.46z M1164.68,32.12c-0.54,0.03-0.99,0.07-1.34,0.14
			c-0.36,0.07-0.64,0.15-0.85,0.26c-0.21,0.11-0.36,0.23-0.45,0.36c-0.09,0.14-0.13,0.28-0.13,0.44c0,0.32,0.09,0.55,0.27,0.68
			c0.18,0.13,0.43,0.2,0.75,0.2c0.37,0,0.69-0.06,0.96-0.2s0.54-0.33,0.8-0.61V32.12z"/>
		<path class="st7" d="M1172.18,28.46c0.49-0.44,1.02-0.76,1.61-0.98s1.22-0.32,1.9-0.32c0.49,0,0.93,0.08,1.32,0.24
			c0.39,0.16,0.71,0.38,0.98,0.67c0.27,0.29,0.48,0.63,0.62,1.02c0.14,0.4,0.22,0.83,0.22,1.3v5.18h-1.01
			c-0.21,0-0.37-0.03-0.48-0.09s-0.2-0.18-0.27-0.37l-0.18-0.53c-0.21,0.18-0.41,0.34-0.6,0.48c-0.19,0.14-0.4,0.25-0.6,0.35
			c-0.21,0.09-0.43,0.16-0.67,0.21s-0.5,0.07-0.8,0.07c-0.36,0-0.69-0.05-0.99-0.14c-0.3-0.1-0.56-0.24-0.77-0.43
			c-0.22-0.19-0.38-0.42-0.5-0.71c-0.12-0.28-0.18-0.61-0.18-0.98c0-0.3,0.08-0.61,0.23-0.91s0.42-0.58,0.8-0.83
			c0.38-0.25,0.88-0.45,1.5-0.62c0.63-0.16,1.41-0.25,2.36-0.28v-0.42c0-0.52-0.11-0.9-0.33-1.14c-0.22-0.24-0.53-0.36-0.94-0.36
			c-0.3,0-0.56,0.04-0.76,0.11s-0.38,0.15-0.53,0.23c-0.15,0.08-0.29,0.16-0.43,0.23s-0.29,0.11-0.46,0.11
			c-0.15,0-0.28-0.04-0.39-0.12s-0.19-0.17-0.26-0.28L1172.18,28.46z M1176.67,32.12c-0.54,0.03-0.99,0.07-1.34,0.14
			c-0.36,0.07-0.64,0.15-0.85,0.26c-0.21,0.11-0.36,0.23-0.45,0.36c-0.09,0.14-0.13,0.28-0.13,0.44c0,0.32,0.09,0.55,0.27,0.68
			c0.18,0.13,0.43,0.2,0.75,0.2c0.37,0,0.69-0.06,0.96-0.2s0.54-0.33,0.8-0.61V32.12z"/>
		<path class="st7" d="M1187.86,27.32v10.91h-2.21v-3.64c-0.32,0.33-0.68,0.6-1.08,0.8c-0.4,0.2-0.87,0.3-1.41,0.3
			c-0.44,0-0.85-0.09-1.22-0.28c-0.37-0.19-0.69-0.46-0.96-0.82c-0.27-0.36-0.48-0.8-0.63-1.32c-0.15-0.52-0.22-1.12-0.22-1.79
			c0-0.61,0.08-1.18,0.25-1.71c0.17-0.53,0.41-0.98,0.72-1.37c0.31-0.38,0.68-0.69,1.12-0.9s0.92-0.33,1.46-0.33
			c0.25,0,0.48,0.02,0.69,0.07s0.4,0.11,0.57,0.19s0.33,0.18,0.48,0.3c0.15,0.12,0.29,0.25,0.43,0.39l0.1-0.4
			c0.08-0.26,0.26-0.38,0.54-0.38H1187.86z M1185.65,29.46c-0.21-0.24-0.43-0.41-0.68-0.5c-0.24-0.1-0.5-0.14-0.77-0.14
			c-0.27,0-0.51,0.05-0.73,0.15c-0.22,0.1-0.41,0.26-0.56,0.48s-0.28,0.49-0.36,0.83c-0.08,0.34-0.13,0.74-0.13,1.2
			c0,0.46,0.03,0.85,0.1,1.17c0.07,0.32,0.17,0.58,0.3,0.78c0.13,0.2,0.29,0.34,0.48,0.43c0.19,0.09,0.4,0.13,0.62,0.13
			c0.39,0,0.72-0.08,0.98-0.23c0.26-0.15,0.51-0.37,0.75-0.66V29.46z"/>
		<path class="st7" d="M1196.92,27.32v8.25h-1.36c-0.28,0-0.46-0.13-0.54-0.38l-0.14-0.58c-0.17,0.16-0.34,0.31-0.51,0.44
			c-0.18,0.13-0.36,0.25-0.56,0.34c-0.2,0.1-0.42,0.17-0.65,0.22c-0.23,0.05-0.48,0.08-0.76,0.08c-0.45,0-0.85-0.08-1.2-0.23
			c-0.35-0.16-0.64-0.37-0.88-0.65c-0.23-0.28-0.41-0.61-0.54-0.99c-0.12-0.38-0.18-0.8-0.18-1.26v-5.24h2.21v5.24
			c0,0.46,0.1,0.81,0.32,1.07c0.21,0.25,0.52,0.38,0.94,0.38c0.31,0,0.6-0.07,0.87-0.2c0.27-0.14,0.53-0.32,0.78-0.56v-5.93H1196.92
			z"/>
		<path class="st7" d="M1201.02,27.32v8.25h-2.21v-8.25H1201.02z M1202.94,23.83l-2.02,2.1c-0.11,0.11-0.21,0.19-0.32,0.24
			c-0.1,0.05-0.24,0.07-0.4,0.07h-1.33l1.12-1.95c0.08-0.15,0.18-0.26,0.29-0.34c0.11-0.07,0.29-0.11,0.52-0.11H1202.94z"/>
	</g>
	<g>
		<path class="st5" d="M705.4,24.87h-3.69v10.7h-3.04v-10.7h-3.69v-2.41h10.42V24.87z"/>
		<path class="st5" d="M713.49,26.23v9.33h-1.73c-0.35,0-0.58-0.16-0.68-0.47l-0.16-0.54c-0.18,0.17-0.37,0.33-0.56,0.47
			c-0.19,0.14-0.4,0.26-0.62,0.36s-0.46,0.18-0.71,0.23c-0.26,0.06-0.53,0.09-0.83,0.09c-0.51,0-0.96-0.09-1.35-0.27
			c-0.39-0.18-0.72-0.42-0.99-0.74c-0.27-0.32-0.47-0.69-0.61-1.13c-0.14-0.43-0.21-0.91-0.21-1.42v-5.92h2.79v5.92
			c0,0.46,0.1,0.82,0.31,1.07c0.21,0.25,0.52,0.38,0.93,0.38c0.31,0,0.59-0.06,0.86-0.19c0.27-0.13,0.53-0.3,0.78-0.53v-6.65H713.49
			z"/>
		<path class="st5" d="M726.4,28.45c-0.08,0.1-0.17,0.18-0.24,0.24c-0.08,0.06-0.19,0.09-0.33,0.09c-0.14,0-0.26-0.03-0.37-0.1
			c-0.11-0.07-0.24-0.14-0.37-0.22c-0.14-0.08-0.3-0.15-0.49-0.22c-0.19-0.07-0.42-0.1-0.69-0.1c-0.34,0-0.64,0.06-0.89,0.19
			c-0.25,0.13-0.45,0.31-0.62,0.54c-0.16,0.23-0.28,0.52-0.36,0.86c-0.08,0.34-0.12,0.72-0.12,1.15c0,0.89,0.17,1.58,0.52,2.06
			c0.34,0.48,0.82,0.72,1.43,0.72c0.32,0,0.58-0.04,0.77-0.12c0.19-0.08,0.35-0.17,0.48-0.27c0.13-0.1,0.25-0.19,0.36-0.27
			c0.11-0.08,0.25-0.13,0.42-0.13c0.22,0,0.39,0.08,0.5,0.24l0.81,1c-0.29,0.33-0.59,0.6-0.91,0.81c-0.32,0.21-0.64,0.37-0.98,0.49
			s-0.67,0.2-1,0.24c-0.34,0.04-0.66,0.07-0.98,0.07c-0.57,0-1.11-0.11-1.63-0.32c-0.52-0.22-0.98-0.53-1.37-0.94
			c-0.39-0.41-0.71-0.92-0.94-1.52s-0.35-1.28-0.35-2.05c0-0.67,0.1-1.3,0.3-1.89c0.2-0.59,0.5-1.09,0.89-1.52
			c0.39-0.43,0.88-0.77,1.46-1.01c0.58-0.25,1.25-0.37,2.01-0.37c0.73,0,1.37,0.12,1.93,0.35c0.55,0.23,1.05,0.58,1.49,1.03
			L726.4,28.45z"/>
		<path class="st5" d="M736.67,26.23v9.33h-1.73c-0.35,0-0.58-0.16-0.68-0.47l-0.16-0.54c-0.18,0.17-0.37,0.33-0.56,0.47
			c-0.19,0.14-0.4,0.26-0.62,0.36s-0.46,0.18-0.71,0.23c-0.26,0.06-0.53,0.09-0.83,0.09c-0.51,0-0.96-0.09-1.35-0.27
			c-0.39-0.18-0.72-0.42-0.99-0.74c-0.27-0.32-0.47-0.69-0.61-1.13c-0.14-0.43-0.21-0.91-0.21-1.42v-5.92H731v5.92
			c0,0.46,0.1,0.82,0.31,1.07c0.21,0.25,0.52,0.38,0.93,0.38c0.31,0,0.59-0.06,0.86-0.19c0.27-0.13,0.53-0.3,0.78-0.53v-6.65H736.67
			z"/>
		<path class="st5" d="M740.85,31.4c0.09,0.78,0.33,1.35,0.71,1.7c0.38,0.35,0.88,0.53,1.49,0.53c0.32,0,0.6-0.04,0.84-0.12
			c0.23-0.08,0.44-0.16,0.63-0.26c0.18-0.1,0.35-0.18,0.5-0.26c0.15-0.08,0.31-0.12,0.48-0.12c0.22,0,0.39,0.08,0.5,0.24l0.81,1
			c-0.29,0.33-0.6,0.6-0.93,0.81c-0.33,0.21-0.68,0.37-1.03,0.49s-0.7,0.2-1.05,0.24c-0.35,0.04-0.69,0.07-1,0.07
			c-0.65,0-1.27-0.11-1.84-0.32s-1.07-0.53-1.5-0.95c-0.43-0.42-0.77-0.94-1.02-1.57c-0.25-0.62-0.37-1.35-0.37-2.18
			c0-0.62,0.11-1.21,0.32-1.77c0.21-0.56,0.52-1.05,0.92-1.47c0.4-0.42,0.88-0.75,1.45-1c0.57-0.25,1.21-0.37,1.92-0.37
			c0.62,0,1.18,0.1,1.7,0.29c0.51,0.19,0.95,0.47,1.32,0.84c0.37,0.37,0.66,0.81,0.86,1.35c0.21,0.53,0.31,1.13,0.31,1.8
			c0,0.21-0.01,0.38-0.03,0.51c-0.02,0.13-0.05,0.24-0.1,0.31c-0.05,0.08-0.11,0.13-0.19,0.16c-0.08,0.03-0.18,0.05-0.31,0.05
			H740.85z M744.36,29.78c0-0.22-0.03-0.44-0.09-0.65c-0.06-0.21-0.15-0.4-0.28-0.56c-0.13-0.16-0.3-0.3-0.51-0.4
			s-0.47-0.15-0.76-0.15c-0.53,0-0.94,0.15-1.24,0.45c-0.3,0.3-0.5,0.74-0.59,1.31H744.36z"/>
		<path class="st5" d="M750.83,27.24c0.18-0.17,0.37-0.32,0.56-0.47c0.19-0.14,0.4-0.27,0.62-0.36c0.22-0.1,0.46-0.18,0.71-0.23
			c0.25-0.06,0.53-0.09,0.83-0.09c0.51,0,0.96,0.09,1.35,0.27c0.39,0.18,0.72,0.42,0.99,0.74c0.27,0.32,0.47,0.69,0.61,1.13
			c0.14,0.44,0.21,0.91,0.21,1.42v5.93h-2.79v-5.93c0-0.46-0.1-0.81-0.31-1.07c-0.21-0.25-0.52-0.38-0.93-0.38
			c-0.31,0-0.59,0.06-0.86,0.19c-0.27,0.13-0.53,0.3-0.78,0.53v6.66h-2.79v-9.33h1.73c0.35,0,0.58,0.16,0.68,0.47L750.83,27.24z"/>
		<path class="st5" d="M761.73,35.71c-0.44,0-0.84-0.06-1.17-0.19c-0.34-0.13-0.62-0.31-0.86-0.55c-0.23-0.24-0.41-0.52-0.53-0.86
			c-0.12-0.34-0.18-0.71-0.18-1.13v-4.82h-0.79c-0.14,0-0.27-0.05-0.37-0.14c-0.1-0.09-0.15-0.23-0.15-0.41v-1.09l1.49-0.29
			l0.55-2.28c0.07-0.29,0.28-0.43,0.61-0.43h1.46v2.73h2.31v1.91h-2.31v4.64c0,0.22,0.05,0.39,0.16,0.54
			c0.1,0.14,0.26,0.21,0.45,0.21c0.1,0,0.19-0.01,0.26-0.03c0.07-0.02,0.13-0.04,0.18-0.07c0.05-0.03,0.1-0.05,0.14-0.07
			s0.1-0.03,0.16-0.03c0.08,0,0.15,0.02,0.2,0.06c0.05,0.04,0.1,0.1,0.16,0.18l0.85,1.32c-0.36,0.27-0.77,0.47-1.22,0.61
			S762.21,35.71,761.73,35.71z"/>
		<path class="st5" d="M765.1,27.53c0.56-0.5,1.19-0.87,1.88-1.11c0.69-0.24,1.42-0.36,2.21-0.36c0.56,0,1.07,0.09,1.53,0.27
			c0.45,0.18,0.84,0.44,1.15,0.77c0.31,0.33,0.56,0.72,0.72,1.17c0.17,0.45,0.25,0.94,0.25,1.48v5.83h-1.28
			c-0.26,0-0.46-0.04-0.6-0.11s-0.25-0.22-0.34-0.45l-0.2-0.51c-0.23,0.2-0.46,0.37-0.67,0.52c-0.22,0.15-0.44,0.28-0.67,0.38
			c-0.23,0.11-0.48,0.18-0.74,0.23c-0.26,0.05-0.55,0.08-0.87,0.08c-0.43,0-0.81-0.06-1.16-0.17c-0.35-0.11-0.64-0.27-0.89-0.49
			c-0.24-0.22-0.43-0.48-0.56-0.81c-0.13-0.32-0.2-0.69-0.2-1.11c0-0.34,0.08-0.68,0.25-1.02c0.17-0.34,0.46-0.66,0.87-0.94
			c0.41-0.28,0.97-0.52,1.67-0.72c0.7-0.19,1.59-0.3,2.66-0.32v-0.4c0-0.55-0.11-0.94-0.34-1.18c-0.23-0.24-0.54-0.36-0.96-0.36
			c-0.33,0-0.6,0.04-0.81,0.11c-0.21,0.07-0.4,0.15-0.56,0.24c-0.17,0.09-0.33,0.17-0.48,0.24c-0.16,0.07-0.34,0.11-0.56,0.11
			c-0.19,0-0.35-0.05-0.49-0.14c-0.13-0.1-0.24-0.21-0.32-0.34L765.1,27.53z M770.12,31.77c-0.56,0.02-1.02,0.07-1.38,0.14
			c-0.36,0.07-0.65,0.16-0.85,0.27c-0.21,0.11-0.36,0.23-0.44,0.37c-0.08,0.14-0.12,0.29-0.12,0.45c0,0.32,0.09,0.54,0.26,0.67
			c0.17,0.13,0.43,0.19,0.77,0.19c0.36,0,0.67-0.06,0.94-0.19s0.54-0.33,0.82-0.61V31.77z"/>
		<path class="st5" d="M781.07,31.4c0.09,0.78,0.33,1.35,0.71,1.7c0.38,0.35,0.88,0.53,1.49,0.53c0.32,0,0.6-0.04,0.84-0.12
			c0.23-0.08,0.44-0.16,0.63-0.26c0.18-0.1,0.35-0.18,0.5-0.26c0.15-0.08,0.31-0.12,0.48-0.12c0.22,0,0.39,0.08,0.5,0.24l0.81,1
			c-0.29,0.33-0.6,0.6-0.93,0.81c-0.33,0.21-0.68,0.37-1.03,0.49s-0.7,0.2-1.05,0.24c-0.35,0.04-0.69,0.07-1,0.07
			c-0.65,0-1.27-0.11-1.84-0.32s-1.07-0.53-1.5-0.95c-0.43-0.42-0.77-0.94-1.02-1.57c-0.25-0.62-0.37-1.35-0.37-2.18
			c0-0.62,0.11-1.21,0.32-1.77c0.21-0.56,0.52-1.05,0.92-1.47c0.4-0.42,0.88-0.75,1.45-1c0.57-0.25,1.21-0.37,1.92-0.37
			c0.62,0,1.18,0.1,1.7,0.29c0.51,0.19,0.95,0.47,1.32,0.84c0.37,0.37,0.66,0.81,0.86,1.35c0.21,0.53,0.31,1.13,0.31,1.8
			c0,0.21-0.01,0.38-0.03,0.51c-0.02,0.13-0.05,0.24-0.1,0.31c-0.05,0.08-0.11,0.13-0.19,0.16c-0.08,0.03-0.18,0.05-0.31,0.05
			H781.07z M784.58,29.78c0-0.22-0.03-0.44-0.09-0.65c-0.06-0.21-0.15-0.4-0.28-0.56c-0.13-0.16-0.3-0.3-0.51-0.4
			s-0.47-0.15-0.76-0.15c-0.53,0-0.94,0.15-1.24,0.45c-0.3,0.3-0.5,0.74-0.59,1.31H784.58z"/>
		<path class="st5" d="M794.41,28.28c-0.07,0.11-0.15,0.2-0.23,0.24c-0.08,0.05-0.18,0.07-0.31,0.07c-0.13,0-0.26-0.03-0.4-0.09
			c-0.13-0.06-0.27-0.12-0.43-0.18c-0.15-0.07-0.33-0.13-0.52-0.18c-0.19-0.06-0.41-0.09-0.66-0.09c-0.35,0-0.63,0.07-0.81,0.2
			s-0.28,0.32-0.28,0.56c0,0.17,0.06,0.32,0.18,0.43c0.12,0.11,0.29,0.21,0.49,0.3c0.2,0.09,0.43,0.17,0.69,0.25
			c0.26,0.08,0.52,0.17,0.79,0.26c0.27,0.1,0.53,0.21,0.79,0.34c0.26,0.13,0.49,0.29,0.69,0.48c0.2,0.19,0.37,0.42,0.49,0.69
			c0.12,0.27,0.18,0.59,0.18,0.97c0,0.46-0.08,0.89-0.25,1.28c-0.17,0.39-0.42,0.73-0.75,1.01s-0.74,0.5-1.23,0.66
			c-0.49,0.16-1.05,0.23-1.69,0.23c-0.32,0-0.64-0.03-0.95-0.09c-0.32-0.06-0.63-0.14-0.92-0.24c-0.3-0.1-0.57-0.22-0.82-0.36
			s-0.47-0.29-0.65-0.45l0.65-1.03c0.07-0.12,0.16-0.21,0.27-0.28c0.11-0.07,0.25-0.1,0.43-0.1c0.16,0,0.31,0.04,0.44,0.11
			c0.13,0.07,0.27,0.15,0.42,0.23c0.15,0.08,0.33,0.16,0.53,0.23c0.2,0.07,0.45,0.11,0.76,0.11c0.22,0,0.4-0.02,0.55-0.07
			c0.15-0.05,0.27-0.11,0.36-0.18c0.09-0.08,0.16-0.16,0.2-0.26c0.04-0.1,0.06-0.19,0.06-0.3c0-0.19-0.06-0.34-0.19-0.46
			c-0.13-0.12-0.29-0.22-0.49-0.31c-0.2-0.09-0.44-0.17-0.7-0.24c-0.26-0.07-0.53-0.16-0.8-0.26c-0.27-0.1-0.54-0.21-0.8-0.35
			s-0.49-0.31-0.7-0.51c-0.2-0.21-0.37-0.46-0.5-0.76c-0.13-0.3-0.19-0.66-0.19-1.09c0-0.4,0.08-0.77,0.23-1.13
			c0.15-0.36,0.38-0.67,0.69-0.94c0.31-0.27,0.69-0.48,1.15-0.64c0.46-0.16,1-0.24,1.62-0.24c0.34,0,0.66,0.03,0.98,0.09
			c0.31,0.06,0.61,0.14,0.89,0.25c0.28,0.11,0.53,0.24,0.76,0.38c0.23,0.15,0.43,0.31,0.6,0.48L794.41,28.28z"/>
		<path class="st5" d="M799.84,35.71c-0.44,0-0.84-0.06-1.17-0.19c-0.34-0.13-0.62-0.31-0.86-0.55c-0.23-0.24-0.41-0.52-0.53-0.86
			c-0.12-0.34-0.18-0.71-0.18-1.13v-4.82h-0.79c-0.14,0-0.27-0.05-0.37-0.14c-0.1-0.09-0.15-0.23-0.15-0.41v-1.09l1.49-0.29
			l0.55-2.28c0.07-0.29,0.28-0.43,0.61-0.43h1.46v2.73h2.31v1.91h-2.31v4.64c0,0.22,0.05,0.39,0.16,0.54
			c0.1,0.14,0.26,0.21,0.45,0.21c0.1,0,0.19-0.01,0.26-0.03c0.07-0.02,0.13-0.04,0.18-0.07c0.05-0.03,0.1-0.05,0.14-0.07
			s0.1-0.03,0.16-0.03c0.08,0,0.15,0.02,0.2,0.06c0.05,0.04,0.1,0.1,0.16,0.18l0.85,1.32c-0.36,0.27-0.77,0.47-1.22,0.61
			S800.32,35.71,799.84,35.71z"/>
		<path class="st5" d="M803.2,27.53c0.56-0.5,1.19-0.87,1.88-1.11c0.69-0.24,1.42-0.36,2.21-0.36c0.56,0,1.07,0.09,1.53,0.27
			c0.45,0.18,0.84,0.44,1.15,0.77c0.31,0.33,0.56,0.72,0.72,1.17c0.17,0.45,0.25,0.94,0.25,1.48v5.83h-1.28
			c-0.26,0-0.46-0.04-0.6-0.11s-0.25-0.22-0.34-0.45l-0.2-0.51c-0.23,0.2-0.46,0.37-0.67,0.52c-0.22,0.15-0.44,0.28-0.67,0.38
			c-0.23,0.11-0.48,0.18-0.74,0.23c-0.26,0.05-0.55,0.08-0.87,0.08c-0.43,0-0.81-0.06-1.16-0.17c-0.35-0.11-0.64-0.27-0.89-0.49
			c-0.24-0.22-0.43-0.48-0.56-0.81c-0.13-0.32-0.2-0.69-0.2-1.11c0-0.34,0.08-0.68,0.25-1.02c0.17-0.34,0.46-0.66,0.87-0.94
			c0.41-0.28,0.97-0.52,1.67-0.72c0.7-0.19,1.59-0.3,2.66-0.32v-0.4c0-0.55-0.11-0.94-0.34-1.18c-0.23-0.24-0.54-0.36-0.96-0.36
			c-0.33,0-0.6,0.04-0.81,0.11c-0.21,0.07-0.4,0.15-0.56,0.24c-0.17,0.09-0.33,0.17-0.48,0.24c-0.16,0.07-0.34,0.11-0.56,0.11
			c-0.19,0-0.35-0.05-0.49-0.14c-0.13-0.1-0.24-0.21-0.32-0.34L803.2,27.53z M808.23,31.77c-0.56,0.02-1.02,0.07-1.38,0.14
			c-0.36,0.07-0.65,0.16-0.85,0.27c-0.21,0.11-0.36,0.23-0.44,0.37c-0.08,0.14-0.12,0.29-0.12,0.45c0,0.32,0.09,0.54,0.26,0.67
			c0.17,0.13,0.43,0.19,0.77,0.19c0.36,0,0.67-0.06,0.94-0.19s0.54-0.33,0.82-0.61V31.77z M810.63,22.31l-2.34,2.37
			c-0.14,0.14-0.27,0.24-0.4,0.29c-0.13,0.06-0.29,0.09-0.5,0.09h-1.67l1.22-2.21c0.1-0.17,0.22-0.31,0.36-0.4
			c0.14-0.09,0.35-0.14,0.63-0.14H810.63z"/>
		<path class="st5" d="M820.02,23.68c0,0.22-0.04,0.43-0.14,0.63c-0.09,0.2-0.21,0.37-0.37,0.51c-0.16,0.15-0.34,0.26-0.54,0.35
			c-0.21,0.09-0.43,0.13-0.66,0.13c-0.23,0-0.44-0.04-0.64-0.13c-0.2-0.09-0.37-0.2-0.53-0.35c-0.15-0.15-0.27-0.32-0.36-0.51
			c-0.09-0.19-0.13-0.4-0.13-0.63c0-0.23,0.04-0.44,0.13-0.64c0.09-0.2,0.21-0.37,0.36-0.52c0.15-0.15,0.33-0.27,0.53-0.35
			c0.2-0.08,0.41-0.13,0.64-0.13c0.23,0,0.45,0.04,0.66,0.13c0.21,0.08,0.39,0.2,0.54,0.35c0.16,0.15,0.28,0.32,0.37,0.52
			C819.98,23.24,820.02,23.45,820.02,23.68z M819.74,26.23v9.33h-2.79v-9.33H819.74z"/>
		<path class="st5" d="M824.26,27.24c0.18-0.17,0.37-0.32,0.56-0.47c0.19-0.14,0.4-0.27,0.62-0.36c0.22-0.1,0.46-0.18,0.71-0.23
			c0.25-0.06,0.53-0.09,0.83-0.09c0.51,0,0.96,0.09,1.35,0.27c0.39,0.18,0.72,0.42,0.99,0.74c0.27,0.32,0.47,0.69,0.61,1.13
			c0.14,0.44,0.21,0.91,0.21,1.42v5.93h-2.79v-5.93c0-0.46-0.1-0.81-0.31-1.07c-0.21-0.25-0.52-0.38-0.93-0.38
			c-0.31,0-0.59,0.06-0.86,0.19c-0.27,0.13-0.53,0.3-0.78,0.53v6.66h-2.79v-9.33h1.73c0.35,0,0.58,0.16,0.68,0.47L824.26,27.24z"/>
		<path class="st5" d="M831.74,27.53c0.56-0.5,1.19-0.87,1.88-1.11c0.69-0.24,1.42-0.36,2.21-0.36c0.56,0,1.07,0.09,1.53,0.27
			c0.45,0.18,0.84,0.44,1.15,0.77c0.31,0.33,0.56,0.72,0.72,1.17c0.17,0.45,0.25,0.94,0.25,1.48v5.83h-1.28
			c-0.26,0-0.46-0.04-0.6-0.11s-0.25-0.22-0.34-0.45l-0.2-0.51c-0.23,0.2-0.46,0.37-0.67,0.52c-0.22,0.15-0.44,0.28-0.67,0.38
			c-0.23,0.11-0.48,0.18-0.74,0.23c-0.26,0.05-0.55,0.08-0.87,0.08c-0.43,0-0.81-0.06-1.16-0.17c-0.35-0.11-0.64-0.27-0.89-0.49
			c-0.24-0.22-0.43-0.48-0.56-0.81c-0.13-0.32-0.2-0.69-0.2-1.11c0-0.34,0.08-0.68,0.25-1.02c0.17-0.34,0.46-0.66,0.87-0.94
			c0.41-0.28,0.97-0.52,1.67-0.72c0.7-0.19,1.59-0.3,2.66-0.32v-0.4c0-0.55-0.11-0.94-0.34-1.18c-0.23-0.24-0.54-0.36-0.96-0.36
			c-0.33,0-0.6,0.04-0.81,0.11c-0.21,0.07-0.4,0.15-0.56,0.24c-0.17,0.09-0.33,0.17-0.48,0.24c-0.16,0.07-0.34,0.11-0.56,0.11
			c-0.19,0-0.35-0.05-0.49-0.14c-0.13-0.1-0.24-0.21-0.32-0.34L831.74,27.53z M836.76,31.77c-0.56,0.02-1.02,0.07-1.38,0.14
			c-0.36,0.07-0.65,0.16-0.85,0.27c-0.21,0.11-0.36,0.23-0.44,0.37c-0.08,0.14-0.12,0.29-0.12,0.45c0,0.32,0.09,0.54,0.26,0.67
			c0.17,0.13,0.43,0.19,0.77,0.19c0.36,0,0.67-0.06,0.94-0.19s0.54-0.33,0.82-0.61V31.77z"/>
		<path class="st5" d="M848.12,28.45c-0.08,0.1-0.17,0.18-0.24,0.24c-0.08,0.06-0.19,0.09-0.33,0.09c-0.14,0-0.26-0.03-0.37-0.1
			c-0.11-0.07-0.24-0.14-0.37-0.22c-0.14-0.08-0.3-0.15-0.49-0.22c-0.19-0.07-0.42-0.1-0.69-0.1c-0.34,0-0.64,0.06-0.89,0.19
			c-0.25,0.13-0.45,0.31-0.62,0.54c-0.16,0.23-0.28,0.52-0.36,0.86c-0.08,0.34-0.12,0.72-0.12,1.15c0,0.89,0.17,1.58,0.52,2.06
			c0.34,0.48,0.82,0.72,1.43,0.72c0.32,0,0.58-0.04,0.77-0.12c0.19-0.08,0.35-0.17,0.48-0.27c0.13-0.1,0.25-0.19,0.36-0.27
			c0.11-0.08,0.25-0.13,0.42-0.13c0.22,0,0.39,0.08,0.5,0.24l0.81,1c-0.29,0.33-0.59,0.6-0.91,0.81c-0.32,0.21-0.64,0.37-0.98,0.49
			s-0.67,0.2-1,0.24c-0.34,0.04-0.66,0.07-0.98,0.07c-0.57,0-1.11-0.11-1.63-0.32c-0.52-0.22-0.98-0.53-1.37-0.94
			c-0.39-0.41-0.71-0.92-0.94-1.52s-0.35-1.28-0.35-2.05c0-0.67,0.1-1.3,0.3-1.89c0.2-0.59,0.5-1.09,0.89-1.52
			c0.39-0.43,0.88-0.77,1.46-1.01c0.58-0.25,1.25-0.37,2.01-0.37c0.73,0,1.37,0.12,1.93,0.35c0.55,0.23,1.05,0.58,1.49,1.03
			L848.12,28.45z"/>
		<path class="st5" d="M860.11,35.57h-2.79v-7.41h-3.91v4.64c0,0.22,0.05,0.39,0.16,0.54c0.1,0.14,0.26,0.21,0.45,0.21
			c0.1,0,0.19-0.01,0.26-0.03c0.07-0.02,0.13-0.04,0.18-0.07c0.05-0.03,0.1-0.05,0.14-0.07s0.1-0.03,0.16-0.03
			c0.08,0,0.15,0.02,0.2,0.06c0.05,0.04,0.1,0.1,0.16,0.18l0.85,1.32c-0.36,0.27-0.77,0.47-1.22,0.61s-0.92,0.2-1.4,0.2
			c-0.44,0-0.84-0.06-1.17-0.19c-0.34-0.13-0.62-0.31-0.86-0.55c-0.23-0.24-0.41-0.52-0.53-0.86c-0.12-0.34-0.18-0.71-0.18-1.13
			v-4.82h-0.79c-0.14,0-0.27-0.05-0.37-0.14c-0.1-0.09-0.15-0.23-0.15-0.41v-1.09l1.49-0.3l0.55-2.27c0.07-0.29,0.28-0.43,0.61-0.43
			h1.46v2.73h6.7V35.57z M860.5,23.67c0,0.22-0.04,0.43-0.14,0.63c-0.09,0.2-0.21,0.37-0.37,0.52c-0.16,0.15-0.34,0.26-0.54,0.35
			c-0.21,0.08-0.43,0.13-0.66,0.13c-0.23,0-0.44-0.04-0.64-0.13c-0.2-0.08-0.37-0.2-0.53-0.35c-0.15-0.15-0.27-0.32-0.36-0.52
			c-0.09-0.2-0.13-0.41-0.13-0.63c0-0.22,0.04-0.43,0.13-0.63c0.09-0.2,0.21-0.37,0.36-0.52c0.15-0.15,0.33-0.26,0.53-0.35
			c0.2-0.09,0.41-0.13,0.64-0.13c0.23,0,0.45,0.04,0.66,0.13c0.21,0.09,0.39,0.2,0.54,0.35c0.16,0.15,0.28,0.32,0.37,0.52
			C860.45,23.24,860.5,23.45,860.5,23.67z"/>
		<path class="st5" d="M870.86,26.23l-3.62,9.33h-2.54l-3.62-9.33h2.32c0.2,0,0.36,0.05,0.5,0.14s0.23,0.21,0.27,0.35l1.3,4.19
			c0.11,0.34,0.21,0.67,0.3,1c0.09,0.32,0.16,0.65,0.23,0.97c0.13-0.65,0.31-1.3,0.55-1.97l1.35-4.19c0.05-0.14,0.14-0.25,0.27-0.35
			c0.13-0.09,0.29-0.14,0.47-0.14H870.86z"/>
		<path class="st5" d="M871.31,27.53c0.56-0.5,1.19-0.87,1.88-1.11c0.69-0.24,1.42-0.36,2.21-0.36c0.56,0,1.07,0.09,1.53,0.27
			c0.45,0.18,0.84,0.44,1.15,0.77c0.31,0.33,0.56,0.72,0.72,1.17c0.17,0.45,0.25,0.94,0.25,1.48v5.83h-1.28
			c-0.26,0-0.46-0.04-0.6-0.11s-0.25-0.22-0.34-0.45l-0.2-0.51c-0.23,0.2-0.46,0.37-0.67,0.52c-0.22,0.15-0.44,0.28-0.67,0.38
			c-0.23,0.11-0.48,0.18-0.74,0.23c-0.26,0.05-0.55,0.08-0.87,0.08c-0.43,0-0.81-0.06-1.16-0.17c-0.35-0.11-0.64-0.27-0.89-0.49
			c-0.24-0.22-0.43-0.48-0.56-0.81c-0.13-0.32-0.2-0.69-0.2-1.11c0-0.34,0.08-0.68,0.25-1.02c0.17-0.34,0.46-0.66,0.87-0.94
			c0.41-0.28,0.97-0.52,1.67-0.72c0.7-0.19,1.59-0.3,2.66-0.32v-0.4c0-0.55-0.11-0.94-0.34-1.18c-0.23-0.24-0.54-0.36-0.96-0.36
			c-0.33,0-0.6,0.04-0.81,0.11c-0.21,0.07-0.4,0.15-0.56,0.24c-0.17,0.09-0.33,0.17-0.48,0.24c-0.16,0.07-0.34,0.11-0.56,0.11
			c-0.19,0-0.35-0.05-0.49-0.14c-0.13-0.1-0.24-0.21-0.32-0.34L871.31,27.53z M876.34,31.77c-0.56,0.02-1.02,0.07-1.38,0.14
			c-0.36,0.07-0.65,0.16-0.85,0.27c-0.21,0.11-0.36,0.23-0.44,0.37c-0.08,0.14-0.12,0.29-0.12,0.45c0,0.32,0.09,0.54,0.26,0.67
			c0.17,0.13,0.43,0.19,0.77,0.19c0.36,0,0.67-0.06,0.94-0.19s0.54-0.33,0.82-0.61V31.77z"/>
		<path class="st5" d="M887.61,27.39c0.37-0.39,0.78-0.71,1.25-0.96c0.46-0.25,1.02-0.37,1.66-0.37c0.49,0,0.94,0.11,1.35,0.32
			c0.41,0.22,0.77,0.53,1.07,0.94c0.3,0.41,0.54,0.91,0.71,1.5c0.17,0.59,0.26,1.26,0.26,2.01c0,0.7-0.1,1.35-0.29,1.94
			c-0.2,0.59-0.47,1.11-0.82,1.55c-0.35,0.44-0.77,0.78-1.26,1.03s-1.03,0.37-1.62,0.37c-0.49,0-0.89-0.07-1.22-0.21
			c-0.33-0.14-0.63-0.32-0.9-0.56v3.58h-2.79V26.23h1.73c0.35,0,0.58,0.16,0.68,0.47L887.61,27.39z M887.78,33.03
			c0.21,0.23,0.44,0.39,0.68,0.49c0.25,0.1,0.5,0.14,0.77,0.14c0.26,0,0.49-0.05,0.71-0.15c0.22-0.1,0.4-0.27,0.56-0.49
			c0.16-0.22,0.28-0.52,0.37-0.88c0.09-0.36,0.14-0.8,0.14-1.31c0-0.49-0.04-0.91-0.11-1.24c-0.07-0.34-0.17-0.61-0.3-0.81
			c-0.13-0.21-0.28-0.36-0.46-0.45s-0.38-0.14-0.6-0.14c-0.41,0-0.74,0.08-1.01,0.22c-0.26,0.15-0.52,0.37-0.76,0.66V33.03z"/>
		<path class="st5" d="M899.65,26.09c0.71,0,1.35,0.11,1.93,0.33c0.58,0.22,1.08,0.54,1.5,0.95c0.42,0.41,0.74,0.92,0.97,1.51
			c0.23,0.59,0.35,1.26,0.35,1.99c0,0.74-0.12,1.41-0.35,2.01c-0.23,0.6-0.56,1.1-0.97,1.52c-0.42,0.42-0.92,0.74-1.5,0.96
			s-1.23,0.34-1.93,0.34c-0.71,0-1.36-0.11-1.95-0.34c-0.59-0.22-1.09-0.55-1.51-0.96c-0.42-0.42-0.75-0.92-0.98-1.52
			c-0.23-0.6-0.35-1.27-0.35-2.01c0-0.74,0.12-1.4,0.35-1.99c0.23-0.59,0.56-1.09,0.98-1.51c0.42-0.41,0.93-0.73,1.51-0.95
			C898.28,26.2,898.93,26.09,899.65,26.09z M899.65,33.64c0.64,0,1.11-0.23,1.42-0.68c0.3-0.45,0.45-1.14,0.45-2.07
			c0-0.92-0.15-1.61-0.45-2.06c-0.3-0.45-0.78-0.67-1.42-0.67c-0.66,0-1.14,0.22-1.45,0.67c-0.31,0.45-0.46,1.14-0.46,2.06
			c0,0.92,0.15,1.61,0.46,2.07C898.5,33.42,898.99,33.64,899.65,33.64z"/>
		<path class="st5" d="M908.41,27.67c0.29-0.5,0.62-0.9,0.99-1.19c0.37-0.29,0.81-0.43,1.29-0.43c0.42,0,0.76,0.1,1.03,0.3
			l-0.18,2.05c-0.03,0.13-0.08,0.22-0.15,0.27c-0.07,0.05-0.16,0.07-0.28,0.07c-0.05,0-0.11,0-0.19-0.01
			c-0.08-0.01-0.16-0.01-0.24-0.02s-0.17-0.02-0.26-0.03s-0.17-0.01-0.24-0.01c-0.41,0-0.73,0.11-0.98,0.32
			c-0.24,0.22-0.45,0.52-0.62,0.9v5.67h-2.79v-9.33h1.66c0.14,0,0.25,0.01,0.35,0.04c0.09,0.02,0.17,0.06,0.23,0.11
			c0.06,0.05,0.11,0.12,0.14,0.2c0.03,0.08,0.06,0.19,0.09,0.31L908.41,27.67z"/>
		<path class="st5" d="M924.83,26.23v9.33h-1.73c-0.35,0-0.58-0.16-0.68-0.47l-0.16-0.54c-0.18,0.17-0.37,0.33-0.56,0.47
			c-0.19,0.14-0.4,0.26-0.62,0.36s-0.46,0.18-0.71,0.23c-0.26,0.06-0.53,0.09-0.83,0.09c-0.51,0-0.96-0.09-1.35-0.27
			c-0.39-0.18-0.72-0.42-0.99-0.74c-0.27-0.32-0.47-0.69-0.61-1.13c-0.14-0.43-0.21-0.91-0.21-1.42v-5.92h2.79v5.92
			c0,0.46,0.1,0.82,0.31,1.07c0.21,0.25,0.52,0.38,0.93,0.38c0.31,0,0.59-0.06,0.86-0.19c0.27-0.13,0.53-0.3,0.78-0.53v-6.65H924.83
			z"/>
		<path class="st5" d="M929.29,27.24c0.18-0.17,0.37-0.32,0.56-0.47c0.19-0.14,0.4-0.27,0.62-0.36c0.22-0.1,0.46-0.18,0.71-0.23
			c0.25-0.06,0.53-0.09,0.83-0.09c0.51,0,0.96,0.09,1.35,0.27c0.39,0.18,0.72,0.42,0.99,0.74c0.27,0.32,0.47,0.69,0.61,1.13
			c0.14,0.44,0.21,0.91,0.21,1.42v5.93h-2.79v-5.93c0-0.46-0.1-0.81-0.31-1.07c-0.21-0.25-0.52-0.38-0.93-0.38
			c-0.31,0-0.59,0.06-0.86,0.19c-0.27,0.13-0.53,0.3-0.78,0.53v6.66h-2.79v-9.33h1.73c0.35,0,0.58,0.16,0.68,0.47L929.29,27.24z"/>
		<path class="st5" d="M943.43,31.4c0.09,0.78,0.33,1.35,0.71,1.7c0.38,0.35,0.88,0.53,1.49,0.53c0.32,0,0.6-0.04,0.84-0.12
			c0.23-0.08,0.44-0.16,0.63-0.26c0.18-0.1,0.35-0.18,0.5-0.26c0.15-0.08,0.31-0.12,0.48-0.12c0.22,0,0.39,0.08,0.5,0.24l0.81,1
			c-0.29,0.33-0.6,0.6-0.93,0.81c-0.33,0.21-0.68,0.37-1.03,0.49s-0.7,0.2-1.05,0.24c-0.35,0.04-0.69,0.07-1,0.07
			c-0.65,0-1.27-0.11-1.84-0.32s-1.07-0.53-1.5-0.95c-0.43-0.42-0.77-0.94-1.02-1.57c-0.25-0.62-0.37-1.35-0.37-2.18
			c0-0.62,0.11-1.21,0.32-1.77c0.21-0.56,0.52-1.05,0.92-1.47c0.4-0.42,0.88-0.75,1.45-1c0.57-0.25,1.21-0.37,1.92-0.37
			c0.62,0,1.18,0.1,1.7,0.29c0.51,0.19,0.95,0.47,1.32,0.84c0.37,0.37,0.66,0.81,0.86,1.35c0.21,0.53,0.31,1.13,0.31,1.8
			c0,0.21-0.01,0.38-0.03,0.51c-0.02,0.13-0.05,0.24-0.1,0.31c-0.05,0.08-0.11,0.13-0.19,0.16c-0.08,0.03-0.18,0.05-0.31,0.05
			H943.43z M946.94,29.78c0-0.22-0.03-0.44-0.09-0.65c-0.06-0.21-0.15-0.4-0.28-0.56c-0.13-0.16-0.3-0.3-0.51-0.4
			s-0.47-0.15-0.76-0.15c-0.53,0-0.94,0.15-1.24,0.45c-0.3,0.3-0.5,0.74-0.59,1.31H946.94z"/>
		<path class="st5" d="M953.45,27.67c0.29-0.5,0.62-0.9,0.99-1.19c0.37-0.29,0.81-0.43,1.29-0.43c0.42,0,0.76,0.1,1.03,0.3
			l-0.18,2.05c-0.03,0.13-0.08,0.22-0.15,0.27c-0.07,0.05-0.16,0.07-0.28,0.07c-0.05,0-0.11,0-0.19-0.01
			c-0.08-0.01-0.16-0.01-0.24-0.02s-0.17-0.02-0.26-0.03s-0.17-0.01-0.24-0.01c-0.41,0-0.73,0.11-0.98,0.32
			c-0.24,0.22-0.45,0.52-0.62,0.9v5.67h-2.79v-9.33h1.66c0.14,0,0.25,0.01,0.35,0.04c0.09,0.02,0.17,0.06,0.23,0.11
			c0.06,0.05,0.11,0.12,0.14,0.2c0.03,0.08,0.06,0.19,0.09,0.31L953.45,27.67z"/>
		<path class="st5" d="M960.31,27.67c0.29-0.5,0.62-0.9,0.99-1.19c0.37-0.29,0.81-0.43,1.29-0.43c0.42,0,0.76,0.1,1.03,0.3
			l-0.18,2.05c-0.03,0.13-0.08,0.22-0.15,0.27c-0.07,0.05-0.16,0.07-0.28,0.07c-0.05,0-0.11,0-0.19-0.01
			c-0.08-0.01-0.16-0.01-0.24-0.02s-0.17-0.02-0.26-0.03s-0.17-0.01-0.24-0.01c-0.41,0-0.73,0.11-0.98,0.32
			c-0.24,0.22-0.45,0.52-0.62,0.9v5.67h-2.79v-9.33h1.66c0.14,0,0.25,0.01,0.35,0.04c0.09,0.02,0.17,0.06,0.23,0.11
			c0.06,0.05,0.11,0.12,0.14,0.2c0.03,0.08,0.06,0.19,0.09,0.31L960.31,27.67z"/>
		<path class="st5" d="M968.71,26.09c0.71,0,1.35,0.11,1.93,0.33c0.58,0.22,1.08,0.54,1.5,0.95c0.42,0.41,0.74,0.92,0.97,1.51
			c0.23,0.59,0.35,1.26,0.35,1.99c0,0.74-0.12,1.41-0.35,2.01c-0.23,0.6-0.56,1.1-0.97,1.52c-0.42,0.42-0.92,0.74-1.5,0.96
			s-1.23,0.34-1.93,0.34c-0.71,0-1.36-0.11-1.95-0.34c-0.59-0.22-1.09-0.55-1.51-0.96c-0.42-0.42-0.75-0.92-0.98-1.52
			c-0.23-0.6-0.35-1.27-0.35-2.01c0-0.74,0.12-1.4,0.35-1.99c0.23-0.59,0.56-1.09,0.98-1.51c0.42-0.41,0.93-0.73,1.51-0.95
			C967.35,26.2,968,26.09,968.71,26.09z M968.71,33.64c0.64,0,1.11-0.23,1.42-0.68c0.3-0.45,0.45-1.14,0.45-2.07
			c0-0.92-0.15-1.61-0.45-2.06c-0.3-0.45-0.78-0.67-1.42-0.67c-0.66,0-1.14,0.22-1.45,0.67c-0.31,0.45-0.46,1.14-0.46,2.06
			c0,0.92,0.15,1.61,0.46,2.07C967.57,33.42,968.05,33.64,968.71,33.64z"/>
		<path class="st5" d="M977.48,27.67c0.29-0.5,0.62-0.9,0.99-1.19c0.37-0.29,0.81-0.43,1.29-0.43c0.42,0,0.76,0.1,1.03,0.3
			l-0.18,2.05c-0.03,0.13-0.08,0.22-0.15,0.27c-0.07,0.05-0.16,0.07-0.28,0.07c-0.05,0-0.11,0-0.19-0.01
			c-0.08-0.01-0.16-0.01-0.24-0.02s-0.17-0.02-0.26-0.03s-0.17-0.01-0.24-0.01c-0.41,0-0.73,0.11-0.98,0.32
			c-0.24,0.22-0.45,0.52-0.62,0.9v5.67h-2.79v-9.33h1.66c0.14,0,0.25,0.01,0.35,0.04c0.09,0.02,0.17,0.06,0.23,0.11
			c0.06,0.05,0.11,0.12,0.14,0.2c0.03,0.08,0.06,0.19,0.09,0.31L977.48,27.67z"/>
		<path class="st5" d="M987.82,31.4c0.09,0.78,0.33,1.35,0.71,1.7c0.38,0.35,0.88,0.53,1.49,0.53c0.32,0,0.6-0.04,0.84-0.12
			c0.23-0.08,0.44-0.16,0.63-0.26c0.18-0.1,0.35-0.18,0.5-0.26c0.15-0.08,0.31-0.12,0.48-0.12c0.22,0,0.39,0.08,0.5,0.24l0.81,1
			c-0.29,0.33-0.6,0.6-0.93,0.81c-0.33,0.21-0.68,0.37-1.03,0.49s-0.7,0.2-1.05,0.24c-0.35,0.04-0.69,0.07-1,0.07
			c-0.65,0-1.27-0.11-1.84-0.32s-1.07-0.53-1.5-0.95c-0.43-0.42-0.77-0.94-1.02-1.57c-0.25-0.62-0.37-1.35-0.37-2.18
			c0-0.62,0.11-1.21,0.32-1.77c0.21-0.56,0.52-1.05,0.92-1.47c0.4-0.42,0.88-0.75,1.45-1c0.57-0.25,1.21-0.37,1.92-0.37
			c0.62,0,1.18,0.1,1.7,0.29c0.51,0.19,0.95,0.47,1.32,0.84c0.37,0.37,0.66,0.81,0.86,1.35c0.21,0.53,0.31,1.13,0.31,1.8
			c0,0.21-0.01,0.38-0.03,0.51c-0.02,0.13-0.05,0.24-0.1,0.31c-0.05,0.08-0.11,0.13-0.19,0.16c-0.08,0.03-0.18,0.05-0.31,0.05
			H987.82z M991.33,29.78c0-0.22-0.03-0.44-0.09-0.65c-0.06-0.21-0.15-0.4-0.28-0.56c-0.13-0.16-0.3-0.3-0.51-0.4
			s-0.47-0.15-0.76-0.15c-0.53,0-0.94,0.15-1.24,0.45c-0.3,0.3-0.5,0.74-0.59,1.31H991.33z"/>
		<path class="st5" d="M997.8,27.24c0.18-0.17,0.37-0.32,0.56-0.47c0.19-0.14,0.4-0.27,0.62-0.36c0.22-0.1,0.46-0.18,0.71-0.23
			c0.25-0.06,0.53-0.09,0.83-0.09c0.51,0,0.96,0.09,1.35,0.27c0.39,0.18,0.72,0.42,0.99,0.74c0.27,0.32,0.47,0.69,0.61,1.13
			c0.14,0.44,0.21,0.91,0.21,1.42v5.93h-2.79v-5.93c0-0.46-0.1-0.81-0.31-1.07c-0.21-0.25-0.52-0.38-0.93-0.38
			c-0.31,0-0.59,0.06-0.86,0.19c-0.27,0.13-0.53,0.3-0.78,0.53v6.66h-2.79v-9.33h1.73c0.35,0,0.58,0.16,0.68,0.47L997.8,27.24z"/>
		<path class="st5" d="M1011.94,31.4c0.09,0.78,0.33,1.35,0.71,1.7c0.38,0.35,0.88,0.53,1.49,0.53c0.32,0,0.6-0.04,0.84-0.12
			c0.23-0.08,0.44-0.16,0.63-0.26c0.18-0.1,0.35-0.18,0.5-0.26c0.15-0.08,0.31-0.12,0.48-0.12c0.22,0,0.39,0.08,0.5,0.24l0.81,1
			c-0.29,0.33-0.6,0.6-0.93,0.81c-0.33,0.21-0.68,0.37-1.03,0.49s-0.7,0.2-1.05,0.24c-0.35,0.04-0.69,0.07-1,0.07
			c-0.65,0-1.27-0.11-1.84-0.32s-1.07-0.53-1.5-0.95c-0.43-0.42-0.77-0.94-1.02-1.57c-0.25-0.62-0.37-1.35-0.37-2.18
			c0-0.62,0.11-1.21,0.32-1.77c0.21-0.56,0.52-1.05,0.92-1.47c0.4-0.42,0.88-0.75,1.45-1c0.57-0.25,1.21-0.37,1.92-0.37
			c0.62,0,1.18,0.1,1.7,0.29c0.51,0.19,0.95,0.47,1.32,0.84c0.37,0.37,0.66,0.81,0.86,1.35c0.21,0.53,0.31,1.13,0.31,1.8
			c0,0.21-0.01,0.38-0.03,0.51c-0.02,0.13-0.05,0.24-0.1,0.31c-0.05,0.08-0.11,0.13-0.19,0.16c-0.08,0.03-0.18,0.05-0.31,0.05
			H1011.94z M1015.45,29.78c0-0.22-0.03-0.44-0.09-0.65c-0.06-0.21-0.15-0.4-0.28-0.56c-0.13-0.16-0.3-0.3-0.51-0.4
			s-0.47-0.15-0.76-0.15c-0.53,0-0.94,0.15-1.24,0.45c-0.3,0.3-0.5,0.74-0.59,1.31H1015.45z"/>
		<path class="st5" d="M1022.13,22.09v13.47h-2.79V22.09H1022.13z"/>
		<path class="st5" d="M1030.8,27.39c0.37-0.39,0.78-0.71,1.25-0.96c0.46-0.25,1.02-0.37,1.66-0.37c0.49,0,0.94,0.11,1.35,0.32
			c0.41,0.22,0.77,0.53,1.07,0.94c0.3,0.41,0.54,0.91,0.71,1.5c0.17,0.59,0.26,1.26,0.26,2.01c0,0.7-0.1,1.35-0.29,1.94
			c-0.2,0.59-0.47,1.11-0.82,1.55c-0.35,0.44-0.77,0.78-1.26,1.03s-1.03,0.37-1.62,0.37c-0.49,0-0.89-0.07-1.22-0.21
			c-0.33-0.14-0.63-0.32-0.9-0.56v3.58h-2.79V26.23h1.73c0.35,0,0.58,0.16,0.68,0.47L1030.8,27.39z M1030.97,33.03
			c0.21,0.23,0.44,0.39,0.68,0.49c0.25,0.1,0.5,0.14,0.77,0.14c0.26,0,0.49-0.05,0.71-0.15c0.22-0.1,0.4-0.27,0.56-0.49
			c0.16-0.22,0.28-0.52,0.37-0.88c0.09-0.36,0.14-0.8,0.14-1.31c0-0.49-0.04-0.91-0.11-1.24c-0.07-0.34-0.17-0.61-0.3-0.81
			c-0.13-0.21-0.28-0.36-0.46-0.45s-0.38-0.14-0.6-0.14c-0.41,0-0.74,0.08-1.01,0.22c-0.26,0.15-0.52,0.37-0.76,0.66V33.03z"/>
		<path class="st5" d="M1038.32,27.53c0.56-0.5,1.19-0.87,1.88-1.11c0.69-0.24,1.42-0.36,2.21-0.36c0.56,0,1.07,0.09,1.53,0.27
			c0.45,0.18,0.84,0.44,1.15,0.77c0.31,0.33,0.56,0.72,0.72,1.17c0.17,0.45,0.25,0.94,0.25,1.48v5.83h-1.28
			c-0.26,0-0.46-0.04-0.6-0.11s-0.25-0.22-0.34-0.45l-0.2-0.51c-0.23,0.2-0.46,0.37-0.67,0.52c-0.22,0.15-0.44,0.28-0.67,0.38
			c-0.23,0.11-0.48,0.18-0.74,0.23c-0.26,0.05-0.55,0.08-0.87,0.08c-0.43,0-0.81-0.06-1.16-0.17c-0.35-0.11-0.64-0.27-0.89-0.49
			c-0.24-0.22-0.43-0.48-0.56-0.81c-0.13-0.32-0.2-0.69-0.2-1.11c0-0.34,0.08-0.68,0.25-1.02c0.17-0.34,0.46-0.66,0.87-0.94
			c0.41-0.28,0.97-0.52,1.67-0.72c0.7-0.19,1.59-0.3,2.66-0.32v-0.4c0-0.55-0.11-0.94-0.34-1.18c-0.23-0.24-0.54-0.36-0.96-0.36
			c-0.33,0-0.6,0.04-0.81,0.11c-0.21,0.07-0.4,0.15-0.56,0.24c-0.17,0.09-0.33,0.17-0.48,0.24c-0.16,0.07-0.34,0.11-0.56,0.11
			c-0.19,0-0.35-0.05-0.49-0.14c-0.13-0.1-0.24-0.21-0.32-0.34L1038.32,27.53z M1043.35,31.77c-0.56,0.02-1.02,0.07-1.38,0.14
			c-0.36,0.07-0.65,0.16-0.85,0.27c-0.21,0.11-0.36,0.23-0.44,0.37c-0.08,0.14-0.12,0.29-0.12,0.45c0,0.32,0.09,0.54,0.26,0.67
			c0.17,0.13,0.43,0.19,0.77,0.19c0.36,0,0.67-0.06,0.94-0.19s0.54-0.33,0.82-0.61V31.77z"/>
		<path class="st5" d="M1056.31,26.52v1.02c0,0.16-0.04,0.28-0.13,0.37c-0.09,0.09-0.24,0.16-0.45,0.21l-0.67,0.15
			c0.04,0.13,0.06,0.27,0.09,0.4c0.02,0.14,0.03,0.28,0.03,0.43c0,0.47-0.1,0.89-0.29,1.26c-0.2,0.37-0.46,0.69-0.8,0.95
			c-0.34,0.26-0.74,0.46-1.2,0.6c-0.46,0.14-0.96,0.21-1.49,0.21c-0.14,0-0.29,0-0.42-0.01c-0.14-0.01-0.27-0.03-0.4-0.05
			c-0.2,0.13-0.31,0.27-0.31,0.42c0,0.16,0.08,0.27,0.25,0.34s0.39,0.12,0.67,0.14c0.28,0.03,0.59,0.05,0.94,0.05
			c0.35,0.01,0.71,0.03,1.08,0.06c0.37,0.03,0.72,0.09,1.08,0.17c0.35,0.08,0.66,0.2,0.94,0.38c0.28,0.17,0.5,0.41,0.67,0.7
			c0.17,0.29,0.25,0.66,0.25,1.11c0,0.42-0.1,0.83-0.31,1.23c-0.2,0.4-0.5,0.76-0.9,1.07c-0.4,0.31-0.88,0.56-1.46,0.75
			c-0.58,0.19-1.24,0.28-1.98,0.28c-0.73,0-1.36-0.07-1.89-0.21c-0.53-0.14-0.97-0.32-1.32-0.54c-0.35-0.23-0.61-0.48-0.78-0.78
			c-0.17-0.29-0.25-0.6-0.25-0.92c0-0.41,0.12-0.76,0.36-1.04s0.58-0.5,1.01-0.67c-0.23-0.14-0.41-0.31-0.54-0.53
			c-0.13-0.22-0.2-0.49-0.2-0.84c0-0.14,0.02-0.28,0.07-0.44c0.05-0.15,0.12-0.3,0.23-0.45c0.1-0.15,0.24-0.29,0.39-0.42
			c0.16-0.13,0.34-0.25,0.56-0.35c-0.49-0.26-0.87-0.6-1.15-1.02c-0.28-0.42-0.42-0.92-0.42-1.48c0-0.47,0.1-0.89,0.3-1.26
			s0.47-0.69,0.81-0.95c0.34-0.26,0.75-0.46,1.22-0.6s0.97-0.21,1.52-0.21c0.79,0,1.49,0.15,2.11,0.45H1056.31z M1053.56,35.91
			c0-0.22-0.1-0.38-0.3-0.48s-0.46-0.17-0.77-0.21c-0.32-0.04-0.67-0.07-1.07-0.08s-0.78-0.03-1.17-0.07
			c-0.17,0.12-0.32,0.25-0.43,0.4s-0.17,0.31-0.17,0.5c0,0.13,0.03,0.25,0.09,0.36c0.06,0.11,0.16,0.2,0.3,0.28
			c0.14,0.08,0.34,0.14,0.58,0.18c0.24,0.05,0.55,0.07,0.92,0.07c0.4,0,0.73-0.02,0.99-0.07c0.26-0.05,0.46-0.11,0.62-0.2
			c0.15-0.08,0.26-0.18,0.32-0.3C1053.53,36.18,1053.56,36.05,1053.56,35.91z M1051.4,30.41c0.46,0,0.8-0.12,1-0.35
			c0.21-0.23,0.31-0.53,0.31-0.9c0-0.38-0.1-0.67-0.31-0.89c-0.21-0.22-0.54-0.32-1-0.32c-0.46,0-0.8,0.11-1,0.32
			c-0.21,0.22-0.31,0.51-0.31,0.89c0,0.18,0.03,0.35,0.08,0.49c0.05,0.15,0.13,0.28,0.24,0.39c0.11,0.11,0.24,0.2,0.41,0.26
			S1051.17,30.41,1051.4,30.41z"/>
		<path class="st5" d="M1061.61,26.09c0.71,0,1.35,0.11,1.93,0.33c0.58,0.22,1.08,0.54,1.5,0.95c0.42,0.41,0.74,0.92,0.97,1.51
			c0.23,0.59,0.35,1.26,0.35,1.99c0,0.74-0.12,1.41-0.35,2.01c-0.23,0.6-0.56,1.1-0.97,1.52c-0.42,0.42-0.92,0.74-1.5,0.96
			s-1.23,0.34-1.93,0.34c-0.71,0-1.36-0.11-1.95-0.34c-0.59-0.22-1.09-0.55-1.51-0.96c-0.42-0.42-0.75-0.92-0.98-1.52
			c-0.23-0.6-0.35-1.27-0.35-2.01c0-0.74,0.12-1.4,0.35-1.99c0.23-0.59,0.56-1.09,0.98-1.51c0.42-0.41,0.93-0.73,1.51-0.95
			C1060.24,26.2,1060.89,26.09,1061.61,26.09z M1061.61,33.64c0.64,0,1.11-0.23,1.42-0.68c0.3-0.45,0.45-1.14,0.45-2.07
			c0-0.92-0.15-1.61-0.45-2.06c-0.3-0.45-0.78-0.67-1.42-0.67c-0.66,0-1.14,0.22-1.45,0.67c-0.31,0.45-0.46,1.14-0.46,2.06
			c0,0.92,0.15,1.61,0.46,2.07C1060.46,33.42,1060.95,33.64,1061.61,33.64z"/>
	</g>
</g>
</svg>
