<svg id="Layer_1" data-name="Layer 1" xmlns="http://www.w3.org/2000/svg" xmlns:xlink="http://www.w3.org/1999/xlink" viewBox="0 0 198 26.74"><defs><style>.cls-1{fill:#0fa3f4;}.cls-2{fill:#c2c3c9;}.cls-3{fill:#0d85d6;}.cls-4{fill:url(#linear-gradient);}.cls-5{fill:url(#linear-gradient-2);}</style><linearGradient id="linear-gradient" x1="9.81" y1="4.04" x2="8.5" y2="4.67" gradientUnits="userSpaceOnUse"><stop offset="0" stop-color="#006daa"/><stop offset="1" stop-color="#006daa" stop-opacity="0"/></linearGradient><linearGradient id="linear-gradient-2" x1="14.47" y1="15.77" x2="12.73" y2="16.28" xlink:href="#linear-gradient"/></defs><title>Artboard 14</title><path class="cls-1" d="M36.58,14.52a10.28,10.28,0,0,1-.41,3A6.94,6.94,0,0,1,35,19.9a5.43,5.43,0,0,1-2,1.52,6.19,6.19,0,0,1-2.69.55,7.14,7.14,0,0,1-1.57-.16,7.88,7.88,0,0,1-1.42-.47v5.4h-4V7.84c.36-.11.78-.21,1.25-.32s1-.18,1.48-.25,1-.14,1.57-.18,1-.07,1.54-.07a8.85,8.85,0,0,1,3.15.53,6.59,6.59,0,0,1,2.33,1.5,6.45,6.45,0,0,1,1.46,2.36A9.26,9.26,0,0,1,36.58,14.52Zm-4.13.11a4.93,4.93,0,0,0-.84-3,2.91,2.91,0,0,0-2.5-1.14c-.36,0-.7,0-1,0s-.57.06-.77.09V18a3.77,3.77,0,0,0,1,.41,4.67,4.67,0,0,0,1.23.16Q32.45,18.53,32.45,14.63Z"/><path class="cls-1" d="M48.32,11c-.37-.09-.79-.19-1.28-.29a7.85,7.85,0,0,0-1.58-.15,8.76,8.76,0,0,0-.91.07,6.89,6.89,0,0,0-.8.15v11h-4V8.11a26.45,26.45,0,0,1,2.57-.72,14.61,14.61,0,0,1,3.3-.34c.22,0,.48,0,.79,0s.62.06.92.11.62.1.93.16a5.07,5.07,0,0,1,.79.23Z"/><path class="cls-1" d="M50.22,14.63a8.82,8.82,0,0,1,.58-3.34A7.19,7.19,0,0,1,52.34,8.9a6.33,6.33,0,0,1,2.18-1.44A6.79,6.79,0,0,1,57.06,7a6.32,6.32,0,0,1,4.81,1.86,7.72,7.72,0,0,1,1.77,5.5q0,.36,0,.78c0,.28,0,.53,0,.75H54.37a2.69,2.69,0,0,0,1.17,2,4.69,4.69,0,0,0,2.77.74,11.29,11.29,0,0,0,2.19-.21,7.75,7.75,0,0,0,1.75-.5l.55,3.3a5.76,5.76,0,0,1-.87.33,11.42,11.42,0,0,1-1.21.28c-.45.08-.92.15-1.43.21s-1,.08-1.52.08a9,9,0,0,1-3.35-.57,6.68,6.68,0,0,1-2.37-1.57,6.21,6.21,0,0,1-1.38-2.36A9.35,9.35,0,0,1,50.22,14.63Zm9.51-1.55a4.19,4.19,0,0,0-.18-1,2.55,2.55,0,0,0-.46-.88,2.45,2.45,0,0,0-.79-.62,2.48,2.48,0,0,0-1.18-.25,2.81,2.81,0,0,0-1.17.23,2.3,2.3,0,0,0-.81.62,2.75,2.75,0,0,0-.51.88,6.22,6.22,0,0,0-.26,1Z"/><path class="cls-1" d="M66.76,7.84A23.37,23.37,0,0,1,72.85,7a8.3,8.3,0,0,1,3,.48,4.6,4.6,0,0,1,1.91,1.35,5.27,5.27,0,0,1,1,2.07,11,11,0,0,1,.3,2.67V21.7h-4V14.09a5.47,5.47,0,0,0-.52-2.79,2.11,2.11,0,0,0-1.93-.82c-.29,0-.59,0-.92,0s-.62.06-.87.09V21.7h-4Z"/><path class="cls-1" d="M95.37,21.23c-.36.11-.78.22-1.25.32s-1,.18-1.48.26-1,.13-1.58.17-1,.07-1.53.07a8.82,8.82,0,0,1-3.15-.52A6.25,6.25,0,0,1,84,20.05a6.47,6.47,0,0,1-1.45-2.35,8.88,8.88,0,0,1-.51-3.1,10.66,10.66,0,0,1,.44-3.15,6.74,6.74,0,0,1,1.25-2.38,5.25,5.25,0,0,1,2-1.5,6.62,6.62,0,0,1,2.71-.52A6.36,6.36,0,0,1,90,7.21a8.25,8.25,0,0,1,1.34.47V1.18L95.37.53Zm-9.16-6.82a4.93,4.93,0,0,0,.85,3,2.88,2.88,0,0,0,2.49,1.15c.37,0,.7,0,1,0s.56-.06.76-.1V11.06a3.28,3.28,0,0,0-1-.41,4.75,4.75,0,0,0-1.24-.17Q86.21,10.48,86.21,14.41Z"/><path class="cls-1" d="M103.6,3.2A2.23,2.23,0,0,1,102.88,5a2.58,2.58,0,0,1-3.4,0,2.23,2.23,0,0,1-.72-1.76,2.25,2.25,0,0,1,.72-1.76,2.58,2.58,0,0,1,3.4,0A2.25,2.25,0,0,1,103.6,3.2Zm-.38,18.5h-4V7.35h4Z"/><path class="cls-1" d="M106.34,14.63a8.81,8.81,0,0,1,.59-3.34,7.33,7.33,0,0,1,1.53-2.39,6.37,6.37,0,0,1,2.19-1.44A6.75,6.75,0,0,1,113.19,7,6.32,6.32,0,0,1,118,8.83a7.76,7.76,0,0,1,1.76,5.5c0,.24,0,.5,0,.78s0,.53-.06.75H110.5a2.69,2.69,0,0,0,1.17,2,4.67,4.67,0,0,0,2.77.74,11.27,11.27,0,0,0,2.18-.21,8,8,0,0,0,1.76-.5l.54,3.3a5.76,5.76,0,0,1-.87.33,10.37,10.37,0,0,1-1.21.28c-.44.08-.92.15-1.42.21s-1,.08-1.53.08a9,9,0,0,1-3.35-.57,6.64,6.64,0,0,1-2.36-1.57,6.23,6.23,0,0,1-1.39-2.36A9.35,9.35,0,0,1,106.34,14.63Zm9.51-1.55a4.19,4.19,0,0,0-.18-1,2.55,2.55,0,0,0-.46-.88,2.44,2.44,0,0,0-2-.87,2.81,2.81,0,0,0-1.17.23,2.5,2.5,0,0,0-.81.62,2.55,2.55,0,0,0-.5.88,5.36,5.36,0,0,0-.26,1Z"/><path class="cls-1" d="M122.89,7.84a21.4,21.4,0,0,1,2.66-.56A22.17,22.17,0,0,1,129,7a8.22,8.22,0,0,1,3,.48,4.57,4.57,0,0,1,1.92,1.35,5.26,5.26,0,0,1,1,2.07,11,11,0,0,1,.3,2.67V21.7h-4.05V14.09a5.6,5.6,0,0,0-.51-2.79,2.13,2.13,0,0,0-1.93-.82c-.29,0-.6,0-.93,0s-.61.06-.87.09V21.7h-4Z"/><path class="cls-1" d="M151.49,21.23c-.36.11-.78.22-1.25.32s-1,.18-1.48.26-1,.13-1.57.17-1.05.07-1.54.07a8.82,8.82,0,0,1-3.15-.52,6.41,6.41,0,0,1-2.34-1.48,6.61,6.61,0,0,1-1.45-2.35,9.12,9.12,0,0,1-.5-3.1,10.67,10.67,0,0,1,.43-3.15,6.91,6.91,0,0,1,1.25-2.38,5.28,5.28,0,0,1,2-1.5,6.6,6.6,0,0,1,2.7-.52,6.3,6.3,0,0,1,1.51.16,8.25,8.25,0,0,1,1.34.47V1.18l4.05-.65Zm-9.15-6.82a5,5,0,0,0,.84,3,2.88,2.88,0,0,0,2.5,1.15c.36,0,.7,0,1,0s.56-.06.76-.1V11.06a3.28,3.28,0,0,0-1-.41,4.68,4.68,0,0,0-1.23-.17Q142.34,10.48,142.34,14.41Z"/><path class="cls-1" d="M168.66,14.5a9.27,9.27,0,0,1-.49,3.09,6.52,6.52,0,0,1-1.41,2.4,6.25,6.25,0,0,1-2.21,1.54,7.28,7.28,0,0,1-2.9.55,7.15,7.15,0,0,1-2.86-.55A6.29,6.29,0,0,1,156.57,20a7.18,7.18,0,0,1-1.44-2.4,9,9,0,0,1-.51-3.09,8.49,8.49,0,0,1,.53-3.09A6.92,6.92,0,0,1,156.61,9a6.67,6.67,0,0,1,2.23-1.53A7.22,7.22,0,0,1,161.65,7a7.3,7.3,0,0,1,2.84.54A6.53,6.53,0,0,1,166.71,9a6.86,6.86,0,0,1,1.43,2.37A8.71,8.71,0,0,1,168.66,14.5Zm-4.13,0a5.08,5.08,0,0,0-.75-3,2.42,2.42,0,0,0-2.13-1.08,2.46,2.46,0,0,0-2.14,1.08,5,5,0,0,0-.76,3,5.14,5.14,0,0,0,.76,3,2.44,2.44,0,0,0,2.14,1.11,2.4,2.4,0,0,0,2.13-1.11A5.22,5.22,0,0,0,164.53,14.5Z"/><path class="cls-1" d="M174.94,19.54a2.28,2.28,0,0,1-.78,1.87,2.71,2.71,0,0,1-3.5,0,2.28,2.28,0,0,1-.78-1.87,2.28,2.28,0,0,1,.78-1.87,2.71,2.71,0,0,1,3.5,0A2.28,2.28,0,0,1,174.94,19.54Z"/><path class="cls-2" d="M183.36,22a10.44,10.44,0,0,1-2.87-.38,4.32,4.32,0,0,1-1.74-1,3.35,3.35,0,0,1-.87-1.55,8.65,8.65,0,0,1-.23-2.06V1.18l4-.65V16.16a5.8,5.8,0,0,0,.08,1,1.84,1.84,0,0,0,.31.74,1.74,1.74,0,0,0,.67.49,3.43,3.43,0,0,0,1.17.24Z"/><path class="cls-2" d="M191.78,7a9.18,9.18,0,0,1,3,.41,4.62,4.62,0,0,1,1.91,1.17,4.36,4.36,0,0,1,1,1.85,9.19,9.19,0,0,1,.3,2.43v8.46c-.58.13-1.39.28-2.42.45a23.41,23.41,0,0,1-3.75.26,11.41,11.41,0,0,1-2.51-.25,5.4,5.4,0,0,1-1.94-.8,3.68,3.68,0,0,1-1.25-1.46,5.06,5.06,0,0,1-.44-2.21,4.15,4.15,0,0,1,.51-2.13,3.8,3.8,0,0,1,1.34-1.39,5.89,5.89,0,0,1,1.93-.75,10.41,10.41,0,0,1,2.25-.23c.53,0,1,0,1.4.06a7.36,7.36,0,0,1,1,.18v-.38a2.22,2.22,0,0,0-.63-1.66,3,3,0,0,0-2.17-.63,13.8,13.8,0,0,0-2,.15,8.88,8.88,0,0,0-1.74.42L187,7.65c.24-.07.53-.15.89-.23a11.21,11.21,0,0,1,1.15-.22c.42-.07.86-.12,1.32-.17S191.31,7,191.78,7Zm.33,11.89q.58,0,1.14,0a7.67,7.67,0,0,0,.87-.08V15.67c-.17,0-.41-.07-.74-.11a7.25,7.25,0,0,0-.89-.06,9.19,9.19,0,0,0-1.08.07,2.84,2.84,0,0,0-.88.26,1.6,1.6,0,0,0-.6.52,1.49,1.49,0,0,0-.22.82,1.39,1.39,0,0,0,.64,1.32A3.49,3.49,0,0,0,192.11,18.86Z"/><path class="cls-3" d="M16,17.81l-1.24-3.73H7.41C8.46,11,9.6,8,10.8,5L8.72.5A195.9,195.9,0,0,0,0,22.31H4.78c.45-1.51.91-3,1.39-4.5Z"/><path class="cls-4" d="M10.8,5,8.72.5Q8.07,1.86,7.46,3.23c.71,1.66,1.41,3.33,2.07,5C10,7.16,10.37,6.09,10.8,5Z"/><path class="cls-5" d="M14.77,14.08h-3c.44,1.24.87,2.48,1.29,3.73h3Z"/><path class="cls-1" d="M16.06,22.31h0A185.59,185.59,0,0,0,7.61,0h4.3A193.91,193.91,0,0,1,21,22.31"/></svg>