<?xml version="1.0" encoding="utf-8"?>
<!-- Generator: Adobe Illustrator 23.0.0, SVG Export Plug-In . SVG Version: 6.00 Build 0)  -->
<svg version="1.1" id="Layer_1" xmlns="http://www.w3.org/2000/svg" xmlns:xlink="http://www.w3.org/1999/xlink" x="0px" y="0px"
	 viewBox="0 0 57.1 64.6" style="enable-background:new 0 0 57.1 64.6;" xml:space="preserve">
<style type="text/css">
	.st0{fill:#010300;}
</style>
<g id="Grupo_2187" transform="translate(-1006.557 -2480.056)">
	<g id="Grupo_2185" transform="translate(1463.887 2506.489) rotate(168)">
		<path id="Trazado_3445" class="st0" d="M448.7,63.7c0.7-0.1,1.2-0.6,1-1.1c-0.3-0.5-1-0.8-1.6-0.6l-1.5,0.2
			c-1,0.2-2.3,0.3-4.1,0.7l-3,0.6c-1.1,0.2-2.3,0.4-3.4,0.8l-3.8,1l-4.1,1.3c-3,1-5.9,2.2-8.8,3.5c-1.5,0.6-3,1.5-4.5,2.2
			c-1.6,0.7-2.9,1.7-4.4,2.5l-1.1,0.7l-1,0.7l-2.1,1.4c-0.7,0.5-1.4,1-2.1,1.5l-2,1.6c-1.3,1.1-2.5,2.2-3.8,3.4l-1.7,1.8
			c-0.6,0.6-1.1,1.2-1.6,1.8c-1,1.2-2,2.5-2.8,3.8l-1.3,2c-0.4,0.7-0.7,1.3-1,2c-0.3,0.7-0.7,1.3-0.9,2c-0.2,0.7-0.5,1.4-0.7,2
			l-0.3,1l-0.1,0.3l0,0.1l0,0.2l-0.1,0.5c-0.2,0.6-0.3,1.3-0.4,2c-1.7,7.5,4.7,7.2,6,5.1c0-0.6,0.4-5.9,0.5-6.5l0.1-0.5l0-0.1v0
			l0-0.1l0.1-0.2l0.3-0.9l0.5-1.9c0.2-0.6,0.5-1.2,0.7-1.9c0.3-0.6,0.5-1.3,0.8-1.9l1-1.9c0.7-1.3,1.4-2.5,2.2-3.7
			c0.4-0.6,0.8-1.2,1.3-1.8l1.4-1.8c1-1.1,2.1-2.3,3.2-3.4l1.8-1.6c0.6-0.5,1.1-1.1,1.8-1.5l1.9-1.5l1-0.7l1-0.7
			c2.7-1.8,5.4-3.4,8.3-4.8c2.7-1.3,5.5-2.5,8.4-3.5l3.9-1.3l3.7-1c1.1-0.3,2.3-0.5,3.3-0.7l2.8-0.6c1.8-0.3,3.2-0.5,4.1-0.6
			L448.7,63.7L448.7,63.7z"/>
		<path id="Trazado_3446" class="st0" d="M451.8,59.6c-0.7,0.1-1.3,0.1-2,0.1c-1.4,0-2.8-0.1-4.1-0.4c-0.7-0.2-1.4-0.4-2-0.6
			c-0.7-0.3-1.3-0.5-1.9-0.8c-0.6-0.3-1.2-0.7-1.8-1.1c-0.6-0.4-1.2-0.8-1.7-1.3l-0.8-0.7c-0.3-0.3-0.5-0.5-0.8-0.8
			c0-0.1-0.1-0.1-0.2-0.1c-0.6-0.5-1.4-0.4-1.9,0.2c-0.5,0.6-0.4,1.4,0.2,1.9c0,0,0,0,0,0c0.3,0.2,0.6,0.5,0.9,0.7l0.9,0.8
			c0.6,0.5,1.2,0.9,1.9,1.4c0.6,0.4,1.3,0.9,2,1.3s1.4,0.8,2.1,1.2l1.1,0.5l1.1,0.5l1.1,0.5c-0.9,0.6-1.7,1.3-2.5,2
			c-1.1,0.9-2,2-2.8,3.2c-0.4,0.6-0.8,1.2-1.1,1.9c-0.1,0.3-0.3,0.7-0.4,1c0,0.1-0.1,0.3-0.2,0.4c-0.2,0.4-0.3,0.8-0.3,1.2
			c0,0.4,0.1,0.8,0.4,1.1c0.3,0.4,0.1,0.1,0.1,0.2l0,0h0h0l0,0l0.1,0.1c0.2,0.2,0.5,0.3,0.8,0.4c0.3,0.1,0.7,0,1-0.1
			c0.3-0.2,0.6-0.4,0.8-0.8c0-0.1,0.1-0.2,0.1-0.3c0,0.2-0.1,0.3-0.1,0.3c-0.1,0.2,0.1,0,0.1,0c0.3-0.1,0.6-0.3,1-0.5
			c0.6-0.3,1.2-0.7,1.7-1c1.1-0.7,2.1-1.5,3.1-2.4c1-0.9,1.9-1.8,2.8-2.7l2.8-2.7l0.6-0.5c0.9-0.9,0.9-2.4,0-3.3
			C453.2,59.7,452.5,59.5,451.8,59.6L451.8,59.6z M439.6,71.4c0.1,0,0.1-0.1,0.2-0.1c-0.3,0.1-0.6,0.3-0.7,0.6
			C439.2,71.7,439.4,71.5,439.6,71.4z M440,71.3c0,0-0.1,0-0.1,0C439.9,71.3,439.9,71.3,440,71.3z M439,72L439,72L439,72L439,72z
			 M438.9,72.3C438.9,72.3,438.9,72.4,438.9,72.3C438.9,72.4,438.9,72.3,438.9,72.3L438.9,72.3z M439,73.1c0,0,0,0.1,0,0.1
			C439,73.2,439,73.2,439,73.1C439,73.1,439,73.1,439,73.1L439,73.1z M439.1,73.3c0.1,0.1,0.2,0.3,0.3,0.4c0,0-0.1,0-0.1-0.1
			C439.2,73.5,439.1,73.4,439.1,73.3L439.1,73.3z M439.9,73.9c-0.1,0-0.2-0.1-0.3-0.1c-0.1-0.1-0.2-0.1-0.3-0.2
			c0.2,0.2,0.5,0.3,0.7,0.3C440,74,439.9,73.9,439.9,73.9L439.9,73.9z"/>
	</g>
</g>
</svg>
