<svg xmlns="http://www.w3.org/2000/svg" xmlns:xlink="http://www.w3.org/1999/xlink" width="467.846" height="302.295" viewBox="0 0 467.846 302.295">
  <defs>
    <linearGradient id="linear-gradient" x1="-21.629" y1="6.656" x2="4.506" y2="-0.55" gradientUnits="objectBoundingBox">
      <stop offset="0" stop-color="#4e87d0"/>
      <stop offset="0.005" stop-color="#7116e7"/>
      <stop offset="1" stop-color="#7e8dc1"/>
    </linearGradient>
    <linearGradient id="linear-gradient-2" x1="-6.907" y1="2.391" x2="2.164" y2="0.104" xlink:href="#linear-gradient"/>
    <linearGradient id="linear-gradient-3" x1="-186.593" y1="-450.189" x2="-161.294" y2="-461.972" gradientUnits="objectBoundingBox">
      <stop offset="0" stop-color="#f9b776"/>
      <stop offset="1" stop-color="#f47960"/>
    </linearGradient>
    <linearGradient id="linear-gradient-4" x1="-3.466" y1="2.209" x2="1.691" y2="0.053" xlink:href="#linear-gradient"/>
  </defs>
  <g id="Grupo_5538" data-name="Grupo 5538" transform="translate(-13996.5 14173.879)">
    <g id="Grupo_5537" data-name="Grupo 5537" transform="translate(13296.428 -14302.708)">
      <g id="Grupo_4586" data-name="Grupo 4586" transform="translate(700.072 128.829)">
        <g id="Grupo_4585" data-name="Grupo 4585" transform="translate(0 0)">
          <path id="Path_2397" data-name="Path 2397" d="M6317.93,6942.012c-183.412,110.332-188.628,214.462-96.448,236.591s314.153,16.729,367.537-25.286S6501.342,6831.684,6317.93,6942.012Z" transform="translate(-6162.777 -6911.052)" fill="#fff"/>
          <ellipse id="Ellipse_72" data-name="Ellipse 72" cx="38.733" cy="38.733" rx="38.733" ry="38.733" transform="translate(72.65)" fill="#0fa3f4" opacity="0.33"/>
          <ellipse id="Ellipse_71" data-name="Ellipse 71" cx="35.179" cy="35.179" rx="35.179" ry="35.179" transform="translate(397.488 168.474)" fill="#0fa3f4" opacity="0.33"/>
        </g>
      </g>
      <g id="Grupo_4825" data-name="Grupo 4825" transform="translate(725.197 138.664)">
        <g id="Grupo_4571" data-name="Grupo 4571" transform="translate(0 0.052)">
          <path id="Trazado_8827" data-name="Trazado 8827" d="M10411.575,6057.064s2.955,2.851-16.618,5.969,4.734-7.259,4.734-7.259Z" transform="translate(-10297.571 -5860.333)" fill="#5609ba"/>
          <path id="Trazado_8828" data-name="Trazado 8828" d="M10358.846,5719.761s-8.2-10.344-3.666-12.944,5.979,1.445,6.991,2.167,1.3,6.357,1.588,8.093a170.86,170.86,0,0,1,2.4,60.81l-8.476-9.506S10361.013,5753.806,10358.846,5719.761Z" transform="translate(-10280.927 -5686.656)" fill="#fcb986"/>
          <path id="Trazado_8829" data-name="Trazado 8829" d="M10348.371,5834.95a45.9,45.9,0,0,0,6.615-5.019s7.256-.364,8.872,6.534l-.479,14.236s-11.644-10.368-11.8-10.387S10348.371,5834.95,10348.371,5834.95Z" transform="translate(-10278.227 -5748.206)" fill="url(#linear-gradient)"/>
          <path id="Trazado_8830" data-name="Trazado 8830" d="M10258.318,6071.618s27.206-15.211,48.74-17.234c0,0-1.917,13.422-2.041,13.937s-22.67,3.469-45.073,10.664C10259.944,6078.983,10256.172,6074.863,10258.318,6071.618Z" transform="translate(-10233.187 -5859.643)" fill="#fcb986"/>
          <path id="Trazado_8831" data-name="Trazado 8831" d="M10253.564,6098.634a18.009,18.009,0,0,1,2.706-6.088c-4.906-4.576-2.259-8.476-2.259-8.476-1.626.416-4.151-1.137-6.194-1.333l.012-.021c-1.186-.108-2.548-.08-3.082,1.8a45.98,45.98,0,0,0-1.75,9.782,27.967,27.967,0,0,0,.235,5.567c.014.1.027.194.041.29s.03.195.046.293a25.716,25.716,0,0,0,1.6,5.883c2.94,7.232,9.621,6.935,9.064,2.8C10253.028,6102.047,10252.847,6101.541,10253.564,6098.634Z" transform="translate(-10225.887 -5873.692)" fill="#8416ff"/>
          <path id="Trazado_8832" data-name="Trazado 8832" d="M10318.9,6228.9c-6.693-7.308-13.467-16.252-13.467-16.252-8.8.923-7.474-1.513-7.474-1.513s-4.205,2.415-5.579,3.4c-3.056,2.2,3.408,7.44,10.8,11.6.391.22.786.424,1.188.619a27.947,27.947,0,0,0,10.008,2.83c-.356-.078-.7-.164-1.051-.252C10316.864,6229.763,10319.352,6229.4,10318.9,6228.9Z" transform="translate(-10250.04 -5937.466)" fill="#8416ff"/>
          <path id="Trazado_8833" data-name="Trazado 8833" d="M10326.687,5955.494s-.182.284-.458.78h0l0,.013c-1.271,2.267-4.637,9.038-3.46,15.227.374,4.907,1.848,9.573,2.16,15.651.588,11.611-4.453,34.9-4.453,34.9-5.485,20.143-14.889,36.83-16.582,62.792,0,0,1,3,6.829,2.178,0,0,6.95-26.917,16.518-46.011,8.537-17.046,16.626-30.935,20.545-51.926a263.981,263.981,0,0,0,4.271-37.18Z" transform="translate(-10256.142 -5808.77)" fill="#fcb986"/>
          <path id="Trazado_8834" data-name="Trazado 8834" d="M10254.263,5774.37c-2.228,5.5-7.774,13.317-12.655,13.439-2.388.06-5.05.044-6.4,2.434a9.4,9.4,0,0,0-.771,5.359,5.468,5.468,0,0,1,.031,1.653c-.32,1.409-1.837.893-2.983.4-4.835-2.1-9.709-.324-12.238,4.466-1.726,3.265-2.438,7.786-4.711,10.27-.793.866-1.743,1.442-2.558,2.27-2.17,2.209-3.246,6.263-2.823,10.626.243,2.484,2.213,9.048,6.5,11.278,4.266,2.22,13.6,4.336,16.271-3.68,2.174-6.519,9.574-3.3,15.142-4.823s9.623-4.4,9.533-10.223c-.25-5.344,5.276-4.331,8.969-9.754,2-2.942,3.9-9,.522-13.615" transform="translate(-10209.061 -5720.622)" fill="#01017a"/>
          <path id="Trazado_8835" data-name="Trazado 8835" d="M10320.242,5680.4s18.539-6.5,26.415-10.911l2.842,1.518-14.629,10.768Z" transform="translate(-10264.259 -5668.554)" fill="#efe1ff"/>
          <path id="Trazado_8836" data-name="Trazado 8836" d="M10274.386,5675.721c.445-.639,28.327,4.408,28.327,4.408l15.767-12.5,2.226.65-17.992,12.935s-16.4,5.781-18.646,8.961c0,0-30.2-3.315-29.623-3.247S10272.217,5678.827,10274.386,5675.721Z" transform="translate(-10231.589 -5667.627)" fill="#e8799e"/>
          <path id="Trazado_8837" data-name="Trazado 8837" d="M10333.573,5838.131s14.9,5.145,18.628,10.692,4.979,35.983,3.4,52.239c0,0-15.719,6.866-25.066-2.059,0,0,11.729-14.722-18.893-40.888l1.182-14.6Z" transform="translate(-10259.992 -5752.277)" fill="url(#linear-gradient-2)"/>
          <path id="Trazado_8838" data-name="Trazado 8838" d="M10334.727,5818.7s1.3,10.139,6.359,13.752c0,0-9.25,3.612-14.307-.723v-9.683Z" transform="translate(-10267.505 -5742.629)" fill="#fcb986"/>
          <path id="Trazado_8839" data-name="Trazado 8839" d="M10317.172,5776.444s6.643,1.994,11.959,10.7,2.547,13.3-1.439,14.32-10.056,1.589-17.109-3.645S10308.572,5774.159,10317.172,5776.444Z" transform="translate(-10257.807 -5721.555)" fill="#fcb986"/>
          <path id="Trazado_8840" data-name="Trazado 8840" d="M10307.435,5784.495s-6.246-12.909,5.642-14.359l3.013,1.656s3.561-7.92-3.994-10.7-15.626,1.069-17.633,11.059-1.819,16.512,3.756,20.583,11.939.562,11.939.562-10.771-4.819-7.2-8.416c1.823-1.834,3.771.076,3.771.076Z" transform="translate(-10250.883 -5713.596)" fill="#01017a"/>
          <path id="Trazado_8841" data-name="Trazado 8841" d="M10312.267,5807.375s-3.173-6.654-6.106-3.549,3.322,6.1,5.74,7.033Z" transform="translate(-10256.886 -5734.837)" fill="url(#linear-gradient-3)"/>
          <path id="Trazado_8842" data-name="Trazado 8842" d="M10302.507,5872.679c-.684-26.145-14.248-33.671-25.952-12.428s-12.573,34.4-12.142,46.536,4.337,19.221,16.042,19.221,11.564-7.532,10.623-12C10290.884,5913.086,10303.193,5898.827,10302.507,5872.679Zm-15.647,6.938s-4.963-16.149-1.207-23.267,7.868-6.358,10.876,1.446.982,40.176-4.8,48.125C10291.729,5905.921,10289.937,5887.566,10286.859,5879.617Z" transform="translate(-10236.499 -5757.138)" fill="#e8799e"/>
          <path id="Trazado_8843" data-name="Trazado 8843" d="M10234.833,5749.189s22.732,33.25,38.826,46.686c0,0,6.007,10.255-1.018,13.434,0,0-23.5-11.128-41.712-57.808,0,0-9.934-12.032-7.441-16.329,3.566-6.159,8.092,5.489,8.092,5.489s1.445.361,1.737-.868,2.094-4.334,1.658,2.024S10234.833,5749.189,10234.833,5749.189Z" transform="translate(-10216.024 -5700.27)" fill="#fcb986"/>
          <path id="Trazado_8844" data-name="Trazado 8844" d="M10339.933,5951.917s-.87,27.774,18.06,53.586c-14.844-1.076-15.059,14.733-26.779,15.916-8.054.813-21.531-15.833-29.791-15.486-17.876.753-22.01-16.562-22.01-16.562s15.486,4.517,22.8-7.313,4.715-13.766,12.36-26.563" transform="translate(-10243.988 -5808.77)" fill="url(#linear-gradient-4)"/>
        </g>
        <g id="Grupo_4580" data-name="Grupo 4580" transform="translate(128.237 8.144)">
          <path id="Trazado_8845" data-name="Trazado 8845" d="M10542.824,5975.8s9.571,18.726,13.768,32.49a208.6,208.6,0,0,1,47.341,28.307l-5.776,7.129-53.409-24.14-15.9-13.984s2.473,17.358,3.332,26.209c0,0,30.651,22.078,37.533,28.207l-5.161,10s-36.779-20-45.491-26.134-10.8-29.812-13.84-66.947S10542.824,5975.8,10542.824,5975.8Z" transform="translate(-10484.252 -5820.944)" fill="#8d54fa"/>
          <path id="Trazado_8846" data-name="Trazado 8846" d="M10615.978,5826.613l-4.011,10.079v6.506s24.278-6.757,42.923-30.423l-9.1-5.671S10634.513,5821.411,10615.978,5826.613Z" transform="translate(-10537.333 -5744.967)" fill="#f9b776"/>
          <path id="Trazado_8847" data-name="Trazado 8847" d="M10475.254,5708.585s-.288-10.838-1.3-14.089-6.142-13.514-8.886-10.117-1.014,7.01,3.18,20.159c0,0,2.6,53.04,13.874,58.82l8.381-11.85S10478.364,5720.146,10475.254,5708.585Z" transform="translate(-10463.74 -5683.699)" fill="#f9b776"/>
          <path id="Trazado_8848" data-name="Trazado 8848" d="M10540.012,5797.082l-6.4-12.353,6.4-12.167,26.438,6.935s6.252,5.863-.468,8.5c0,0,3.281,4.939-2.635,7.282S10540.012,5797.082,10540.012,5797.082Z" transform="translate(-10498.433 -5727.818)" fill="#191933"/>
          <path id="Trazado_8849" data-name="Trazado 8849" d="M10549.233,5764.612a3.676,3.676,0,0,0-2.343,1.173,4.709,4.709,0,0,0-4.917-2.964,4.775,4.775,0,0,0-4.148,3.149,5.372,5.372,0,0,0-8.468,4.335,5.071,5.071,0,0,0-4.631,5.294,4.628,4.628,0,0,0,1.7,3.157,6.008,6.008,0,0,0-1.77,4.767,6.141,6.141,0,0,0,3.531,4.934,5.784,5.784,0,0,0-.389,2.657,6.553,6.553,0,0,0,7.351,5.625,7.324,7.324,0,0,0,2.273-.583,3.945,3.945,0,0,0,7.178-2.592,4.038,4.038,0,0,0-.291-1.146c.051,0,.1.007.151,0a2.214,2.214,0,1,0-2.4-2.187,3.993,3.993,0,0,0-.672-.192c0-.049,0-.1-.006-.148a6.152,6.152,0,0,0-3.529-4.936,5.811,5.811,0,0,0,.387-2.656,6.144,6.144,0,0,0-3.564-4.949,4.516,4.516,0,0,0,.573-1.64,5.369,5.369,0,0,0,4.8-4.6,5.022,5.022,0,0,0,2.718.511,4.97,4.97,0,0,0,2.873-1.232c.443,2.426,2.355,4.176,4.471,3.985,2.265-.2,3.908-2.556,3.665-5.251S10551.5,5764.409,10549.233,5764.612Z" transform="translate(-10493.973 -5722.971)" fill="#191933"/>
          <path id="Trazado_8850" data-name="Trazado 8850" d="M10556.6,5756.283a3.676,3.676,0,0,0-2.346,1.173,4.7,4.7,0,0,0-4.914-2.964,4.771,4.771,0,0,0-4.147,3.149,5.374,5.374,0,0,0-8.471,4.336,5.069,5.069,0,0,0-4.629,5.293,4.628,4.628,0,0,0,1.7,3.157,6,6,0,0,0-1.769,4.766,6.141,6.141,0,0,0,3.53,4.937,5.8,5.8,0,0,0-.392,2.655,6.559,6.559,0,0,0,7.354,5.625,7.322,7.322,0,0,0,2.274-.583,3.944,3.944,0,0,0,7.177-2.593,4.125,4.125,0,0,0-.289-1.145c.048,0,.1.006.148,0a2.214,2.214,0,1,0-2.4-2.187,4.144,4.144,0,0,0-.673-.191c0-.049,0-.1-.007-.149a6.145,6.145,0,0,0-3.53-4.934,5.89,5.89,0,0,0,.39-2.658,6.158,6.158,0,0,0-3.565-4.948,4.662,4.662,0,0,0,.575-1.639,5.373,5.373,0,0,0,4.8-4.6,5.065,5.065,0,0,0,5.592-.722c.439,2.427,2.352,4.176,4.471,3.986,2.267-.206,3.907-2.556,3.663-5.253S10558.87,5756.079,10556.6,5756.283Z" transform="translate(-10497.631 -5718.835)" fill="#191933"/>
          <path id="Trazado_8851" data-name="Trazado 8851" d="M10572.514,5778.427a3.677,3.677,0,0,0-1.549-2.113,4.7,4.7,0,0,0,2.094-5.343,4.77,4.77,0,0,0-3.8-3.56,5.371,5.371,0,0,0-5.7-7.62,5.071,5.071,0,0,0-6-3.673,4.633,4.633,0,0,0-2.829,2.205,6.016,6.016,0,0,0-4.993-.942,6.142,6.142,0,0,0-4.272,4.311,5.822,5.822,0,0,0-2.684.063,6.557,6.557,0,0,0-4.309,8.194,7.323,7.323,0,0,0,.956,2.142,3.938,3.938,0,0,0,4.845,6.161c.011.05.011.1.023.148a2.215,2.215,0,1,0,1.753-2.735,4.043,4.043,0,0,0,.077-.7c.045-.011.1-.017.142-.029a6.131,6.131,0,0,0,4.271-4.312,5.81,5.81,0,0,0,2.686-.062,6.151,6.151,0,0,0,4.279-4.347,4.6,4.6,0,0,0,1.714.291,5.371,5.371,0,0,0,5.342,3.961,5.061,5.061,0,0,0,1.65,5.39c-2.316.843-3.721,3.023-3.178,5.077.585,2.2,3.178,3.421,5.794,2.728S10573.1,5780.628,10572.514,5778.427Z" transform="translate(-10500.724 -5719.579)" fill="#191933"/>
          <path id="Trazado_8852" data-name="Trazado 8852" d="M10660.514,5762.8l23.473,22.848-14.8,17.5-24.931-23.888Z" transform="translate(-10553.362 -5722.972)" fill="#ff4d82"/>
          <path id="Trazado_8853" data-name="Trazado 8853" d="M10477.51,5696.221s-4.727-4.33-3.264.6,5.8,10.766,5.89,12.514C10480.136,5709.336,10480.449,5699.954,10477.51,5696.221Z" transform="translate(-10468.817 -5689.043)" fill="#ffc999"/>
          <path id="Trazado_8854" data-name="Trazado 8854" d="M10548.656,5811.635s-4.072.428-3.435-3.775,3.55-3.238,4-2.01S10551.659,5811.014,10548.656,5811.635Z" transform="translate(-10504.159 -5743.822)" fill="#f9b776"/>
          <path id="Trazado_8855" data-name="Trazado 8855" d="M10670.192,5762.8l23.848,22.306-15.826,18.751s-23.412-21.354-23.629-21.678S10670.192,5762.8,10670.192,5762.8Z" transform="translate(-10558.49 -5722.972)" fill="#8416ff"/>
          <path id="Trazado_8856" data-name="Trazado 8856" d="M10703.921,5772.907c3.331,3.008,7.37,7.984,4.117,9.3s-11.325.29-12.247-.687S10693.244,5763.26,10703.921,5772.907Z" transform="translate(-10578.614 -5726.541)" fill="#f9b776"/>
          <path id="Trazado_8857" data-name="Trazado 8857" d="M10573.425,5784.105c-.515-2.85-11.234-8.2-12.507-2.689s-7.166,4.974-7.166,4.974a10.847,10.847,0,0,1,.1,1.419c-.015,1.229-.217,5.7-2.28,5.762l-.586,3.124s5.084,17.1,13.967,14.656S10575.983,5791.61,10573.425,5784.105Z" transform="translate(-10507.057 -5731.026)" fill="#f9b776"/>
          <path id="Trazado_8858" data-name="Trazado 8858" d="M10503.65,5813.8s8.156,15.334,17.681,17.6,27.531,1.575,35.9-1.7-.468,15.288-.468,15.288l-16.55,9.564s-6.887,16.753-3.872,48.6c0,0-24.884,4.851-37.607,1.14,0,0-4.335-25.648-2.829-60.708l-3.906-20.4S10494.184,5815.422,10503.65,5813.8Z" transform="translate(-10477.771 -5748.291)" fill="#9de1f6"/>
          <path id="Trazado_8859" data-name="Trazado 8859" d="M10553.785,5828.169l1.662,6.936s-10.691,8.094-14.523-5.2c0,0,2.314-1.229,5.061-11.851S10553.785,5828.169,10553.785,5828.169Z" transform="translate(-10502.061 -5748.898)" fill="#f9b776"/>
          <g id="Grupo_4575" data-name="Grupo 4575" transform="translate(112.161 210.136)">
            <g id="Grupo_4573" data-name="Grupo 4573" transform="translate(0 0.026)">
              <g id="Grupo_4572" data-name="Grupo 4572">
                <path id="Trazado_8860" data-name="Trazado 8860" d="M10698.166,6103.668c2.072,4.721,5.069,14.039,2.127,23.678-2.506,8.21-9.854,8.543-9.652,3.962.345-7.85.491-8.423-.582-11.536a19.789,19.789,0,0,0-3.564-6.4,11.058,11.058,0,0,0,2.073-11.624C10691.517,6102.228,10696.091,6098.948,10698.166,6103.668Z" transform="translate(-10686.494 -6101.082)" fill="#472385"/>
              </g>
            </g>
            <g id="Grupo_4574" data-name="Grupo 4574" transform="translate(8.212)">
              <path id="Trazado_8861" data-name="Trazado 8861" d="M10702.8,6101.03a3.743,3.743,0,0,1,3.719,2.63,48.4,48.4,0,0,1,2.778,10.292,30.574,30.574,0,0,1-.8,12.776c-.723,2.466-1.432,4.032-2.793,5.283a34.455,34.455,0,0,0,2.623-13.957C10707.931,6109.9,10702.83,6101.079,10702.8,6101.03Z" transform="translate(-10702.804 -6101.03)" fill="#9c9cd5"/>
            </g>
          </g>
          <g id="Grupo_4579" data-name="Grupo 4579" transform="translate(78.61 238.218)">
            <g id="Grupo_4577" data-name="Grupo 4577">
              <g id="Grupo_4576" data-name="Grupo 4576">
                <path id="Trazado_8862" data-name="Trazado 8862" d="M10625.853,6157.177h0a23.478,23.478,0,0,0,5.852-.32c4.021-.835,3.468,8.221,1.363,17.229s-8.3,15.51-9.365,14.676c-4.444-3.489-.481-11.6-2.244-17.544a9.71,9.71,0,0,0-1.6-4.1C10627.091,6160.728,10625.853,6157.177,10625.853,6157.177Z" transform="translate(-10619.859 -6156.803)" fill="#472385"/>
              </g>
            </g>
            <g id="Grupo_4578" data-name="Grupo 4578" transform="translate(7.729)">
              <path id="Trazado_8863" data-name="Trazado 8863" d="M10639.325,6156.857c4.021-.835,3.468,8.221,1.365,17.229a30.43,30.43,0,0,1-5.479,11.542C10643.338,6171.683,10639.325,6156.857,10639.325,6156.857Z" transform="translate(-10635.211 -6156.803)" fill="#9c9cd5"/>
            </g>
          </g>
        </g>
        <g id="Grupo_4581" data-name="Grupo 4581" transform="translate(287.82 0)">
          <path id="Trazado_8864" data-name="Trazado 8864" d="M10840.542,5747.368a6.016,6.016,0,0,1,1.616-5.639,10.887,10.887,0,0,1,5.348-2.842,18.6,18.6,0,0,1,22.979,20.117c-.283,2.522.842,2.809,1.239,6.287s-.421,7.757,1.257,9.942,2.246,3.491,1.74,6c-.33,1.643-3.593,1.958-3.142,3.558s6.392,3.179,6.5,8.641-3.3,5.6-3.282,9.191c.019,3.947,7.658,2.877,6.338,15.72s-18.024,11.943-20.9,12.833-6.562,11.031-14.571,4.068c-8.321-7.233-.131-42.525-4.179-44.038s-5.427-13.585-2.623-21.5" transform="translate(-10808.832 -5702.69)" fill="#22343d"/>
          <path id="Trazado_8865" data-name="Trazado 8865" d="M10877.115,5995.263c-11.038-9.111-14.653-7.831-14.653-7.831s-2.743-15.607-3.009-21.389a126.607,126.607,0,0,1-.025-18.931c.649-9.539-11.273-19.293-11.273-19.293l-26.012,6.895c-2.025,23.992,4.335,50.118,14.883,77.865a238.36,238.36,0,0,1,9.2,29.122l0-.014s4.062,9.253,10.25-4.327c-1.349-20.752-3.993-35.908-3.993-35.908s11.894,1.337,20.218,3.053C10875.223,6004.4,10878.028,6002.711,10877.115,5995.263Z" transform="translate(-10801.075 -5796.754)" fill="#2c2a40"/>
          <path id="Trazado_8866" data-name="Trazado 8866" d="M10942.871,5726.2l-19.511-23.3,13.984-18.751,26.012,21.351-14.253,20.324Z" transform="translate(-10851.515 -5675.774)" fill="#8416ff"/>
          <path id="Trazado_8867" data-name="Trazado 8867" d="M10967.813,5742.832c.055-.326,14.9-20.708,14.9-20.708l1.644,1.347-13.507,19.362Z" transform="translate(-10873.585 -5694.631)" fill="#fef"/>
          <path id="Trazado_8868" data-name="Trazado 8868" d="M10884.722,5783.03a65.032,65.032,0,0,0,28.5-35.661s.215-4.769-1.407-6.828.975-4.444,3.358,2.059l4.987,5.854s-13.548,40.753-35.443,46.823Z" transform="translate(-10832.332 -5702.691)" fill="#fcb986"/>
          <path id="Trazado_8869" data-name="Trazado 8869" d="M10788.393,5684.122s1.492-2.091,2.735-3.562,2.151-2.874,3.779-3.577c0,0-1.715-1.827-5.23,1.024,0,0,2.436-10.824-2.154-10.476s-5.893,6.185-4.281,16.64c0,0-8.937,38.392,6.533,62.2l10.445-7.829A72.225,72.225,0,0,1,10788.393,5684.122Z" transform="translate(-10780.673 -5667.524)" fill="#fcb986"/>
          <path id="Trazado_8870" data-name="Trazado 8870" d="M10844.293,5753.853s-7.168-.217-6.9-7.371,2.737-9.755,6.9-14.09,9.961-7.732,13.192-3.9,7.937,9.61,8.264,15.319,3.5,8.6-.766,15.536-8.756,4.263-12.041-1.156A8.524,8.524,0,0,0,10844.293,5753.853Z" transform="translate(-10808.832 -5696.965)" fill="#22343d"/>
          <path id="Trazado_8871" data-name="Trazado 8871" d="M10837.879,5761.341c-2.859,7.438-2.167,17.744,4.7,19.914s11.488-3.021,14.02-6.586,4.046-14.335-2.167-17.589S10842.649,5748.943,10837.879,5761.341Z" transform="translate(-10808.287 -5710.129)" fill="#fcb986"/>
          <path id="Trazado_8872" data-name="Trazado 8872" d="M10873.554,5788.337s6.865-1.3,5.058,1.662-5.636,3.612-7.081,2.312S10873.554,5788.337,10873.554,5788.337Z" transform="translate(-10825.607 -5727.363)" fill="#fcb986"/>
          <path id="Trazado_8873" data-name="Trazado 8873" d="M10874.245,6204.146s-7.7,16.438,0,16.222,20.163-33.708,5.746-27.64Z" transform="translate(-10825.433 -5927.91)" fill="#2c2a40"/>
          <path id="Trazado_8874" data-name="Trazado 8874" d="M10946.152,6078.862s3.758-3.4,6.07,5.273,2.456,20.379-3.034,18.644-4.483-15.741-4.483-15.741Z" transform="translate(-10862.074 -5871.418)" fill="#2c2a40"/>
          <path id="Trazado_8875" data-name="Trazado 8875" d="M10870.349,6149.694l0,.014c2.708,11.342,3.4,19.486,3.227,25.072-.287,9.539.146,12.574.146,12.574,8.673,1.012,7.66-19.076,7.66-19.076,0-8.041-.312-15.8-.771-22.912C10874.412,6158.946,10870.349,6149.694,10870.349,6149.694Z" transform="translate(-10825.193 -5904.762)" fill="#fcb986"/>
          <path id="Trazado_8876" data-name="Trazado 8876" d="M10935.744,6086.813c6.575,2.529,1.88-15.536,1.88-15.536-3.987-4.029-7.385-7.124-10.278-9.513.913,7.451-1.894,9.137-4.4,9.244a28.7,28.7,0,0,1,7.241,2.148C10934.516,6075.757,10935.744,6086.813,10935.744,6086.813Z" transform="translate(-10851.307 -5863.255)" fill="#fcb986"/>
          <path id="Trazado_8877" data-name="Trazado 8877" d="M10810.488,5879.693s-7.232-40.148-11.733-63.307c0,0,2.8-7.99,10.442-7.831,0,0,9.581,11.028,37.162,6.56,0,0-2.608,4.547-.418,13.538,0,0-14.025,14.739-5.782,43.214A32.754,32.754,0,0,1,10810.488,5879.693Z" transform="translate(-10789.65 -5737.541)" fill="#80e5ff"/>
          <path id="Trazado_8878" data-name="Trazado 8878" d="M10840.4,5801.746s0,8.408-5.7,11.87c0,0,4.8,9.212,15.9,2.492,0,0-1.45-8-1-14Z" transform="translate(-10807.498 -5734.161)" fill="#fcb986"/>
        </g>
      </g>
    </g>
  </g>
</svg>
