<svg xmlns="http://www.w3.org/2000/svg" viewBox="0 0 50.115 12.837">
  <defs>
    <style>
      .cls-1 {
        fill: #626262;
      }
    </style>
  </defs>
  <g id="Group_942" data-name="Group 942" transform="translate(0 0.019)">
    <path id="Path_1430" data-name="Path 1430" class="cls-1" d="M98.078,1.314A6.892,6.892,0,0,1,104.022.225c.762.2,1.611.544,1.786,1.285a7.283,7.283,0,0,1-.392,1.786,4.866,4.866,0,0,0-3.615-.849,3.978,3.978,0,0,0-2.831,2.33A5.1,5.1,0,0,0,98.644,8.8a2.617,2.617,0,0,0,1.742,1.524,4.316,4.316,0,0,0,3.7-.871c-.2.762-.283,1.546-.544,2.308-.24.631-1.045.849-1.72.958a6.158,6.158,0,0,1-5.1-1.241,5.462,5.462,0,0,1-1.459-4.355A7.886,7.886,0,0,1,98.078,1.314Z" transform="translate(-74.517 0)"/>
    <g id="Group_808" data-name="Group 808" transform="translate(9.554 0.179)">
      <path id="Path_1431" data-name="Path 1431" class="cls-1" d="M45.993,1.2a22.031,22.031,0,0,1,3.985-.3,5.713,5.713,0,0,1,3.44,1.067,2.483,2.483,0,0,1,.24,3.506A3.917,3.917,0,0,1,51.5,6.7a2.9,2.9,0,0,1,1.677,1.2,3.365,3.365,0,0,1-.98,4.268,6.981,6.981,0,0,1-3.919,1.241,9.959,9.959,0,0,1-3.114-.283,1.662,1.662,0,0,1-1.132-.98,3.525,3.525,0,0,1,0-2.069C44.687,7.1,45.318,4.135,45.993,1.2ZM48.454,3c-.174.849-.392,1.7-.544,2.548-.044.24.283.348.5.3A3.667,3.667,0,0,0,50.958,5.2a1.233,1.233,0,0,0-.152-2.025A5.047,5.047,0,0,0,48.454,3ZM47.408,7.771c-.24.806-.37,1.633-.566,2.461-.065.348-.261.74.044,1.045a5.494,5.494,0,0,0,2.787-.414,1.627,1.627,0,0,0,.5-2.591C49.412,7.662,48.345,7.815,47.408,7.771Z" transform="translate(-43.876 -0.887)"/>
    </g>
    <g id="Group_809" data-name="Group 809" transform="translate(30.572 0.242)">
      <path id="Path_1432" data-name="Path 1432" class="cls-1" d="M143.078,1.49a11.516,11.516,0,0,1,2.874-.3,8.1,8.1,0,0,1,3.9.631A2.832,2.832,0,0,1,151.4,3.994a4.8,4.8,0,0,1-2.809,4.965,8.77,8.77,0,0,1-4.377.61c-.24.958-.414,1.938-.653,2.9a1.565,1.565,0,0,1-1.111,1.154c-.675.065-1.372,0-2.047.022C141.336,9.59,142.164,5.518,143.078,1.49Zm2.678,1.829c-.261,1.176-.523,2.352-.762,3.506-.087.24.109.457.348.566a3.777,3.777,0,0,0,2.134-.3,2.4,2.4,0,0,0,1.154-3.136C148.043,3.1,146.715,3.254,145.757,3.319Z" transform="translate(-140.4 -1.181)"/>
    </g>
    <path id="Path_1433" data-name="Path 1433" class="cls-1" d="M6,7.047A3.574,3.574,0,0,1,7.72,4.892a1.066,1.066,0,0,1,1.2.435A6.324,6.324,0,0,1,8.9,9.53,9.558,9.558,0,0,0,6,7.047Z" transform="translate(-4.694 -3.796)"/>
    <path id="Path_1434" data-name="Path 1434" class="cls-1" d="M4.725,7.1A8.883,8.883,0,0,1,7.556,9.5a3.242,3.242,0,0,1,.936,2.417,3.774,3.774,0,0,1-1.023,2A15.661,15.661,0,0,1,3.832,16.9a2.5,2.5,0,0,1-1.916.414A3.008,3.008,0,0,1,0,15.636a9.3,9.3,0,0,0,4.7-4.355A5.555,5.555,0,0,0,4.725,7.1Z" transform="translate(0 -5.569)"/>
    <path id="Path_1435" data-name="Path 1435" class="cls-1" d="M197.1,7.047a3.574,3.574,0,0,1,1.72-2.156,1.066,1.066,0,0,1,1.2.435A6.325,6.325,0,0,1,200,9.53,9.558,9.558,0,0,0,197.1,7.047Z" transform="translate(-154.182 -3.796)"/>
    <path id="Path_1436" data-name="Path 1436" class="cls-1" d="M195.825,7.1a8.882,8.882,0,0,1,2.831,2.4,3.242,3.242,0,0,1,.936,2.417,3.774,3.774,0,0,1-1.023,2,15.661,15.661,0,0,1-3.636,2.983,2.5,2.5,0,0,1-1.916.414,3.008,3.008,0,0,1-1.916-1.677,9.3,9.3,0,0,0,4.7-4.355A5.555,5.555,0,0,0,195.825,7.1Z" transform="translate(-149.489 -5.569)"/>
  </g>
</svg>
