<svg xmlns="http://www.w3.org/2000/svg" xmlns:xlink="http://www.w3.org/1999/xlink" viewBox="0 0 731.39 441.81"><defs><style>.cls-1{fill:url(#linear-gradient);}.cls-2{fill:url(#linear-gradient-2);}.cls-3{fill:url(#linear-gradient-3);}.cls-4,.cls-8{fill:#fff;}.cls-5,.cls-8{opacity:0.5;}.cls-5{fill:url(#linear-gradient-4);}.cls-6{fill:url(#linear-gradient-5);}.cls-7{fill:url(#linear-gradient-6);}.cls-9{fill:url(#linear-gradient-7);}.cls-10{fill:url(#linear-gradient-8);}.cls-11{fill:url(#linear-gradient-9);}.cls-12{fill:url(#linear-gradient-10);}.cls-13{fill:url(#linear-gradient-11);}.cls-14{fill:url(#linear-gradient-12);}.cls-15{fill:url(#linear-gradient-13);}.cls-16{fill:url(#linear-gradient-14);}.cls-17{fill:url(#linear-gradient-15);}.cls-18{fill:url(#linear-gradient-16);}.cls-19{fill:url(#linear-gradient-17);}.cls-20{fill:url(#linear-gradient-18);}.cls-21{fill:url(#linear-gradient-19);}.cls-22{fill:url(#linear-gradient-20);}.cls-23{fill:url(#linear-gradient-21);}.cls-24{fill:url(#linear-gradient-22);}.cls-25{fill:url(#linear-gradient-23);}.cls-26{fill:#96246d;}.cls-27{fill:#2b3582;}.cls-28{fill:#feb37c;}.cls-29{fill:#0058c2;}.cls-30{fill:#f8d116;}.cls-31{fill:url(#linear-gradient-24);}.cls-32{fill:#00aeef;opacity:0.33;}</style><linearGradient id="linear-gradient" x1="53.52" y1="377.88" x2="613.23" y2="102.87" gradientUnits="userSpaceOnUse"><stop offset="0" stop-color="#5ca1c9"/><stop offset="1" stop-color="#7edfb5"/></linearGradient><linearGradient id="linear-gradient-2" x1="310.88" y1="356.92" x2="432.87" y2="-9.07" gradientUnits="userSpaceOnUse"><stop offset="0" stop-color="#2b3582"/><stop offset="1" stop-color="#150e42"/></linearGradient><linearGradient id="linear-gradient-3" x1="339.8" y1="375.63" x2="394.95" y2="-82.47" gradientUnits="userSpaceOnUse"><stop offset="0" stop-color="#a737d5"/><stop offset="1" stop-color="#ef497a"/></linearGradient><linearGradient id="linear-gradient-4" x1="124.02" y1="216.8" x2="605.74" y2="216.8" gradientUnits="userSpaceOnUse"><stop offset="0" stop-color="#b37cff"/><stop offset="1" stop-color="#f895e7"/></linearGradient><linearGradient id="linear-gradient-5" x1="340.52" y1="515.85" x2="386.49" y2="264.48" xlink:href="#linear-gradient-2"/><linearGradient id="linear-gradient-6" x1="356.53" y1="172.61" x2="5.98" y2="380.52" gradientUnits="userSpaceOnUse"><stop offset="0" stop-color="#53d8ff"/><stop offset="1" stop-color="#3840f7"/></linearGradient><linearGradient id="linear-gradient-7" x1="-504.38" y1="-710.7" x2="-536.62" y2="-965.27" gradientTransform="matrix(-1, 0, 0, 1, 53.86, 0)" gradientUnits="userSpaceOnUse"><stop offset="0" stop-color="#50e7b7"/><stop offset="1" stop-color="#323992"/></linearGradient><linearGradient id="linear-gradient-8" x1="14645.28" y1="-783.58" x2="14613.04" y2="-1038.15" gradientTransform="translate(-14308.1)" xlink:href="#linear-gradient-7"/><linearGradient id="linear-gradient-9" x1="12672.26" y1="-3347.54" x2="12640.02" y2="-3602.11" gradientTransform="translate(-12228.87 -2523.99) rotate(22.93)" xlink:href="#linear-gradient-7"/><linearGradient id="linear-gradient-10" x1="415.76" y1="285.68" x2="637.72" y2="243.71" gradientUnits="userSpaceOnUse"><stop offset="0" stop-color="#9cfffb"/><stop offset="1" stop-color="#9bfffa"/></linearGradient><linearGradient id="linear-gradient-11" x1="436.7" y1="258.16" x2="460.47" y2="258.16" gradientUnits="userSpaceOnUse"><stop offset="0" stop-color="#2c759e"/><stop offset="1" stop-color="#051042"/></linearGradient><linearGradient id="linear-gradient-12" x1="445.76" y1="258.27" x2="476.71" y2="258.27" xlink:href="#linear-gradient-2"/><linearGradient id="linear-gradient-13" x1="415.18" y1="226.54" x2="459.34" y2="226.54" xlink:href="#linear-gradient-2"/><linearGradient id="linear-gradient-14" x1="491.81" y1="196.93" x2="387.46" y2="316.42" xlink:href="#linear-gradient-11"/><linearGradient id="linear-gradient-15" x1="469.32" y1="211.49" x2="409.68" y2="279.79" gradientTransform="matrix(1, 0, 0, 1, 0, 0)" xlink:href="#linear-gradient-7"/><linearGradient id="linear-gradient-16" x1="459.45" y1="202.97" x2="419.92" y2="257.6" gradientTransform="matrix(1, 0, 0, 1, 0, 0)" xlink:href="#linear-gradient-7"/><linearGradient id="linear-gradient-17" x1="462.43" y1="224.27" x2="466.07" y2="224.27" gradientUnits="userSpaceOnUse"><stop offset="0" stop-color="#e40045"/><stop offset="1" stop-color="#5c0e16"/></linearGradient><linearGradient id="linear-gradient-18" x1="476.25" y1="236.3" x2="490.11" y2="236.3" xlink:href="#linear-gradient-2"/><linearGradient id="linear-gradient-19" x1="479.05" y1="222.55" x2="486.89" y2="222.55" xlink:href="#linear-gradient-2"/><linearGradient id="linear-gradient-20" x1="376.3" y1="313.36" x2="799.39" y2="233.35" xlink:href="#linear-gradient-11"/><linearGradient id="linear-gradient-21" x1="385.83" y1="312.73" x2="789.12" y2="236.47" xlink:href="#linear-gradient-2"/><linearGradient id="linear-gradient-22" x1="467.49" y1="263.67" x2="489.04" y2="263.67" xlink:href="#linear-gradient-10"/><linearGradient id="linear-gradient-23" x1="865" y1="1230.74" x2="832.19" y2="1276.1" gradientTransform="matrix(0.99, -0.12, 0.12, 0.99, -513.5, -840.17)" xlink:href="#linear-gradient-2"/><linearGradient id="linear-gradient-24" x1="5929.36" y1="-1687.76" x2="5956.26" y2="-1653.13" gradientTransform="translate(-5911.12 673.66) rotate(11.24)" xlink:href="#linear-gradient-2"/></defs><title>Artboard 136</title><g id="menú_desplegable_de_carrito" data-name="menú desplegable de carrito"><path class="cls-1" d="M0,305c.92-33.51,17.37-63.6,58.25-101.77s53-85.71,53.91-122.36,20.6-61.53,119.94-64.2,116.61-1.52,166,24.23S476.54,69.05,547.41,63.6s116,40.89,141.14,83.9,10,107.52,6.06,141.44,7.27,63.6-20.6,86-522.35,26.76-563.95,21.51S-1.39,356.48,0,305Z"/><path class="cls-2" d="M625.88,370.2a9.58,9.58,0,0,1-9.55,9.54H99.79a9.58,9.58,0,0,1-9.56-9.54L85.94,73.35c0-5.24,6.18-15.49,17.51-14.72L608.27,45.57A24.06,24.06,0,0,1,633,70.19Z"/><path class="cls-3" d="M616.45,361a9.07,9.07,0,0,1-9,9H112.24a9.06,9.06,0,0,1-9-9L99.15,91.56c.48-16.21,14.7-22,23.31-21.7l483.84-13A16.92,16.92,0,0,1,623.65,74.2Z"/><path class="cls-4" d="M108.56,232.47a.77.77,0,0,1-.77-.76l-.32-21.86a.77.77,0,0,1,.76-.78.8.8,0,0,1,.78.76l.32,21.85a.79.79,0,0,1-.76.79Z"/><path class="cls-4" d="M107.77,178.91a.77.77,0,0,1-.77-.76l-1.23-83.7c0-5.6,1.75-10.08,5.13-13.31,6.15-5.89,15.77-5.59,16.17-5.58l154.5-4.15a.78.78,0,0,1,.79.75.76.76,0,0,1-.74.79L127.07,77.1c-.44,0-9.42-.29-15.1,5.15-3.07,2.94-4.63,7-4.66,12.19l1.23,83.69a.76.76,0,0,1-.76.78Z"/><path class="cls-5" d="M125,346.09c.52-22.27.33-219.5-1-236.53s25.25-20.23,66-22.15,384.38-9.5,393.23-10.22c19.89-1.62,24,28.11,22,92.65-1.49,48.49-4,128.36-5.11,165.09A20.26,20.26,0,0,1,580,354.57c-82.7.23-399.65,1.14-420.75,1.77C134.93,357.06,124.82,354.92,125,346.09Z"/><path class="cls-6" d="M654.74,404.38H71.84a13.08,13.08,0,0,1-13-13h0a13.08,13.08,0,0,1,13-13h582.9a13.07,13.07,0,0,1,13,13h0A13.07,13.07,0,0,1,654.74,404.38Z"/><path class="cls-4" d="M556.68,326.86H166.62c-5.67,0-10.12-4.69-10.12-10.68V115.86a10.36,10.36,0,0,1,10.05-10.63l0,.77,0-.77,390-7.26A10.14,10.14,0,0,1,564,101a10.84,10.84,0,0,1,3.1,7.58V316.18A10.54,10.54,0,0,1,556.68,326.86ZM166.58,106.77a8.84,8.84,0,0,0-8.54,9.09V316.18c0,5.13,3.77,9.14,8.58,9.14H556.68a9,9,0,0,0,8.83-9.14V108.61a9.3,9.3,0,0,0-2.66-6.5,8.65,8.65,0,0,0-6.27-2.6Z"/><rect class="cls-7" x="173.44" y="133.53" width="243.4" height="150.97" rx="7.5" ry="7.5"/><path class="cls-4" d="M525.45,183.59H442.73a9.63,9.63,0,0,1-9.71-9.75V142.36a9.56,9.56,0,0,1,9.71-9.6h82.72c5.75,0,10.79,4.49,10.79,9.6v31.48C536.24,179,531.2,183.59,525.45,183.59ZM442.73,134.3a7.93,7.93,0,0,0-8.17,8.06v31.48a8.11,8.11,0,0,0,8.17,8.21h82.72c4.84,0,9.25-3.91,9.25-8.21V142.36c0-4.29-4.32-8.06-9.25-8.06Z"/><path class="cls-4" d="M525.45,246.76H442.73a9.38,9.38,0,0,1-9.71-9.47V205.81a9.71,9.71,0,0,1,9.71-9.89h82.72c5.65,0,10.79,4.71,10.79,9.89v31.48C536.24,242.42,531.3,246.76,525.45,246.76Zm-82.72-49.3a8.19,8.19,0,0,0-8.17,8.35v31.48a7.88,7.88,0,0,0,8.17,7.93h82.72c4.93,0,9.25-3.71,9.25-7.93V205.81c0-4.37-4.41-8.35-9.25-8.35Z"/><path class="cls-4" d="M525.45,309.92H442.73c-5.62,0-9.71-3.86-9.71-9.19V269.26c0-4.9,3.71-10.18,9.71-10.18h82.72c5.65,0,10.79,4.85,10.79,10.18v31.47C536.24,305.8,531.4,309.92,525.45,309.92Zm-82.72-49.3c-5,0-8.17,4.48-8.17,8.64v31.47c0,4.43,3.44,7.65,8.17,7.65h82.72c5,0,9.25-3.5,9.25-7.65V269.26c0-4.44-4.5-8.64-9.25-8.64Z"/><path class="cls-8" d="M330.3,294.4c-23.28-.06-128.81-.31-152.14-.09a4.75,4.75,0,0,0-4.72,4.58v2.55a4.58,4.58,0,0,0,4.49,4.57l151.92,3.49a5.39,5.39,0,0,0,3.64-1.3,5,5,0,0,0,1.71-3.27v-6A4.87,4.87,0,0,0,330.3,294.4Z"/><path class="cls-4" d="M566.28,120.43h-409a.77.77,0,1,1,0-1.54h409a.77.77,0,1,1,0,1.54Z"/><path class="cls-4" d="M516.93,114.27h-.67a4.68,4.68,0,0,1-4.67-4.67v-.67a4.68,4.68,0,0,1,4.67-4.67h.67a4.67,4.67,0,0,1,4.67,4.67v.67A4.68,4.68,0,0,1,516.93,114.27Zm-.67-8.47a3.13,3.13,0,0,0-3.13,3.13v.67a3.13,3.13,0,0,0,3.13,3.13h.67a3.13,3.13,0,0,0,3.13-3.13v-.67a3.13,3.13,0,0,0-3.13-3.13Z"/><path class="cls-4" d="M534.65,114.27H534a4.68,4.68,0,0,1-4.67-4.67v-.67a4.67,4.67,0,0,1,4.67-4.67h.67a4.68,4.68,0,0,1,4.67,4.67v.67A4.68,4.68,0,0,1,534.65,114.27ZM534,105.8a3.13,3.13,0,0,0-3.13,3.13v.67a3.13,3.13,0,0,0,3.13,3.13h.67a3.13,3.13,0,0,0,3.13-3.13v-.67a3.13,3.13,0,0,0-3.13-3.13Z"/><path class="cls-4" d="M553.13,114.27h-.66a4.68,4.68,0,0,1-4.68-4.67v-.67a4.68,4.68,0,0,1,4.68-4.67h.66a4.68,4.68,0,0,1,4.68,4.67v.67A4.68,4.68,0,0,1,553.13,114.27Zm-.66-8.47a3.14,3.14,0,0,0-3.14,3.13v.67a3.14,3.14,0,0,0,3.14,3.13h.66a3.14,3.14,0,0,0,3.14-3.13v-.67a3.14,3.14,0,0,0-3.14-3.13Z"/><path class="cls-4" d="M189.62,177.43a.76.76,0,0,1-.77-.77V147.39a.77.77,0,0,1,.77-.77H212a.77.77,0,0,1,0,1.54H190.39v28.5A.76.76,0,0,1,189.62,177.43Z"/><path class="cls-4" d="M400.67,177.43a.77.77,0,0,1-.77-.77v-28.5H378.34a.77.77,0,1,1,0-1.54h22.33a.77.77,0,0,1,.77.77v29.27A.76.76,0,0,1,400.67,177.43Z"/><path class="cls-4" d="M212,266.78H189.62a.76.76,0,0,1-.77-.77v-28.5a.77.77,0,1,1,1.54,0v27.73H212a.77.77,0,1,1,0,1.54Z"/><path class="cls-4" d="M400.67,266.78H378.34a.77.77,0,1,1,0-1.54H399.9V237.51a.77.77,0,0,1,1.54,0V266A.76.76,0,0,1,400.67,266.78Z"/><path class="cls-4" d="M290.93,246.76a37.36,37.36,0,1,1,37.34-37.38v0A37.38,37.38,0,0,1,290.93,246.76Zm0-73.18a35.82,35.82,0,1,0,35.8,35.84v0A35.84,35.84,0,0,0,290.93,173.58Z"/><path class="cls-4" d="M280.52,228.33a1.93,1.93,0,0,1-1.95-1.89l-.9-33.29a3.15,3.15,0,0,1,4.48-2.93L315,205.6a3.14,3.14,0,0,1,.14,5.62l-29,15.47a1.95,1.95,0,1,1-1.83-3.44L312,208.49l-30.39-14.21.86,32.05a1.94,1.94,0,0,1-1.9,2Z"/><path class="cls-9" d="M392.66,435.65A2.78,2.78,0,0,0,395.2,434l58-130.62a2.66,2.66,0,0,0-1.45-3.52,2.81,2.81,0,0,0-3.64,1.4l-58,130.62a2.64,2.64,0,0,0,1.44,3.52A2.84,2.84,0,0,0,392.66,435.65Z"/><path class="cls-10" d="M512,435.65a2.79,2.79,0,0,1-2.55-1.62l-58-130.62a2.64,2.64,0,0,1,1.45-3.52,2.8,2.8,0,0,1,3.63,1.4l58,130.62a2.66,2.66,0,0,1-1.45,3.52A2.83,2.83,0,0,1,512,435.65Z"/><path class="cls-11" d="M454.82,441.58a2.76,2.76,0,0,1-1.71-2.48l-2.56-142.91a2.66,2.66,0,0,1,2.71-2.68,2.81,2.81,0,0,1,2.8,2.71l2.55,142.91a2.65,2.65,0,0,1-2.7,2.68A3,3,0,0,1,454.82,441.58Z"/><path class="cls-12" d="M458.53,297.88c0,2.49-2.43,4.15-5,4.15h0a3.86,3.86,0,0,1-4.16-4.15V259.63c0-2.48,1.54-4.59,4.16-4.59h0c2.62,0,5,2.11,5,4.59Z"/><path class="cls-13" d="M436.7,249.65l.69,10a1.65,1.65,0,0,0,1.73,1.51h5.55v3.23c0,1.36.09,2.16,1.46,2.16h3.69l7.56.08,3.09-17Z"/><path class="cls-14" d="M445.76,249.65l3.92,17,12.36.21a2.5,2.5,0,0,0,2.5-2.16l.55-4.13,4.23.06a6.13,6.13,0,0,0,6.16-4.92l1.23-6.09Z"/><path class="cls-15" d="M449.05,201.89h-6.56c-2.25,0-4.09,1.24-4.19,3.49l-.24,5H422.41a7.08,7.08,0,0,0-6.86,7l-.37,26.74a7,7,0,0,0,2,5,6.91,6.91,0,0,0,4.88,2.1h37.3Z"/><path class="cls-16" d="M495.36,244l-1.48-26.87a7.08,7.08,0,0,0-6.85-6.73H467.77v-5.68c0-1.15-1-2.26-1.89-3.05a4.9,4.9,0,0,0-3.42-1.13l-11.82.73a4.36,4.36,0,0,0-3.12,1.61,3.68,3.68,0,0,0-.85,3.1l.85,4.42H435.39c-3.79,0-6.13,3.58-6.13,7.37v26.61c0,3.79,2.34,6.84,6.13,6.84h53.12a6.86,6.86,0,0,0,6.85-7.22Z"/><path class="cls-17" d="M470.32,221.27a4.17,4.17,0,0,0-3.15-1.43H438.33a4.2,4.2,0,0,0-4.2,4.19v15.15a4.2,4.2,0,0,0,4.2,4.19h26.86a4.2,4.2,0,0,0,4.16-3.65l2-15.14A4.16,4.16,0,0,0,470.32,221.27Z"/><path class="cls-18" d="M452.56,209.93a2,2,0,0,1-2-1.62l-.24-1.17a2.59,2.59,0,0,1,.41-1.94,2.34,2.34,0,0,1,1.56-1h8.37a2.94,2.94,0,0,1,2.46,2.53v.34a2.21,2.21,0,0,1-2,2l-8.24.85Zm-.24-5a1.63,1.63,0,0,0-1.13.69,1.69,1.69,0,0,0-.3,1.29l.24,1.21a1.49,1.49,0,0,0,1.59,1.18l8.62-.83c.75-.08,1.81-.69,1.81-1.44v-.34c0-.8-1.66-1.76-2.46-1.76Z"/><circle class="cls-19" cx="464.25" cy="224.27" r="1.82"/><path class="cls-20" d="M479.45,235c0-.77,0-4.92.47-5.06s6.34,0,6.34,0V235h3.85v4.63h-5l.28,3.08h-5.47l.05-3.95-3.73.82V235Z"/><circle class="cls-21" cx="482.97" cy="222.55" r="3.92"/><path class="cls-22" d="M464.69,299.76c0,2.27-2.95,3.81-5.53,3.81H437.68c-2.58,0-4.57-1.54-4.57-3.81v-.17c0-2.27,2-3.73,4.57-3.73h21.48c2.58,0,5.53,1.46,5.53,3.73Z"/><path class="cls-23" d="M470.09,299.86c0,2.33-2.19,3.71-4.77,3.71H443.84c-2.57,0-3.79-1.38-3.79-3.71v-.17c0-2.33,1.22-3.83,3.79-3.83h21.48c2.58,0,4.77,1.5,4.77,3.83Z"/><path class="cls-24" d="M470,255.13c.57-.16,19.05,15.69,19.05,15.69l-3,1.39-18.11-13S466.07,256.25,470,255.13Z"/><path class="cls-25" d="M488.67,268.67a2.48,2.48,0,0,0-2.89.11c-1.46,1.15-3.15,3.07-.87,4.69,3.51,2.48,18.38,14.55,20.44,13S510.83,283.27,488.67,268.67Z"/><path class="cls-26" d="M277.29,180.61s89.56-44.24,60.27-76.82-83.89-19.56-86.65,14.73S314.6,144.76,277.29,180.61Z"/><path class="cls-4" d="M330,113H290.46a.77.77,0,1,1,0-1.54H330a.77.77,0,0,1,0,1.54Z"/><path class="cls-4" d="M278.73,113H267a.77.77,0,1,1,0-1.54h11.73a.77.77,0,0,1,0,1.54Z"/><path class="cls-4" d="M331.31,121H316.47a.77.77,0,1,1,0-1.54h14.84a.77.77,0,1,1,0,1.54Z"/><path class="cls-4" d="M294.7,121H268.33a.77.77,0,1,1,0-1.54H294.7a.77.77,0,0,1,0,1.54Z"/><path class="cls-4" d="M332.65,129H293.2a.77.77,0,1,1,0-1.54h39.45a.77.77,0,0,1,0,1.54Z"/><path class="cls-4" d="M283.32,129H269.66a.77.77,0,0,1,0-1.54h13.66a.77.77,0,1,1,0,1.54Z"/><path class="cls-27" d="M212.8,434.59a1.21,1.21,0,0,0,1,1.75l26.24.17a.94.94,0,0,0,.9-1c0-.5,0-1,0-1.46h0a33.11,33.11,0,0,0-1.15-8.74,4.83,4.83,0,0,0-4.79-3.51l-2.19.07c-11.67,2.8-17.57,9.25-19.89,12.49a1.86,1.86,0,0,0-.11.19"/><path class="cls-27" d="M286.9,434.7a1.74,1.74,0,0,0-.1-.19c-2.32-3.24-8.23-9.69-19.89-12.49l-5.6-.18s-2.49,4.33-2.54,12.36c0,.47,0,1,0,1.46a1,1,0,0,0,.9,1l26.25-.17A1.21,1.21,0,0,0,286.9,434.7Z"/><path class="cls-28" d="M192.92,294.44l10,.62,2.24,29.34s2.18,2.38,2.07,7.77-.64,5.92-1.37,5.22-.55-3.54-1.56-4.45-1.66,2.62-.83,4.69,3.95,12.08.92,8.95a21.77,21.77,0,0,1-5.88-13.13,25.26,25.26,0,0,1,1-8.29Z"/><path class="cls-28" d="M229.32,414.38l1.84,8.82a1.43,1.43,0,0,0,1.23,1.19,12.43,12.43,0,0,0,2.84,0,1.83,1.83,0,0,0,1.44-2.13l-1.28-7.84Z"/><path class="cls-28" d="M260.27,413.36c.07.42.83,6.76,1.13,9.22a1.22,1.22,0,0,0,1,1.1,13.14,13.14,0,0,0,3.84-.06,1.66,1.66,0,0,0,1.26-1.66V412Z"/><path class="cls-29" d="M255.78,297.66S269.28,349,269,413.51a2.49,2.49,0,0,1-2,2.43,28.9,28.9,0,0,1-6.26.73,2.33,2.33,0,0,1-2.21-1.94c-1.89-11.1-12.75-73.62-18.94-83.78,0,0-4.07,55.69-2.77,84.59a1.38,1.38,0,0,1-1.21,1.42,22.89,22.89,0,0,1-5,0,1.85,1.85,0,0,1-1.64-1.56c-1.35-9.39-9.1-65.31-8.77-105.58,0-2.28,6-12.15,6-12.15Z"/><path class="cls-30" d="M228.42,218.27S204.49,214.81,211,245.1s10.75,46.2,12,58.75c4.28,2.75,31.74,0,32.8-.54s1.46.64,1.39-4.76,8.85-49.13,9.58-51.71,22,29.28,18.91,10.4S267,214.29,250,215.78,228.42,218.27,228.42,218.27Z"/><path class="cls-30" d="M266.73,246.84s18.3,21.67,20.75,21.67,4.49-8.13,4.49-8.13l-12.62-21.61Z"/><path class="cls-28" d="M231.93,202.07,230.18,220s10.08,3,17.42-2.14l-5.16-16.29Z"/><path class="cls-28" d="M250.82,184.83s2.69,12.37,1.84,18.41-.34,10.17-7.48,10-12.29-4.76-14.26-11.34c0,0-3.11-10.15-1.26-13.69S250.82,184.83,250.82,184.83Z"/><path class="cls-31" d="M234.13,198.09l.43-.09a1,1,0,0,0,.72-1.22c-.6-2.07-1.64-6.76,1-7.28,3.41-.67,16.45-.73,20-4.64s2.24-9.73-.91-12a.48.48,0,0,0-.66.08l-.4.49a.47.47,0,0,1-.84-.26h0a.48.48,0,0,0-.83-.29c-1.09,1.16-3.76,2.87-10,2.79-8.83-.12-15.15,2.21-16.46,8.07a.48.48,0,0,1-.8.24c-.56-.51-1.53-.89-3.1,0-2.73,1.51-2.79,6.8,1.51,12a.48.48,0,0,1-.17.75c-1.05.42-2.73,1.58.48,4.22a12.42,12.42,0,0,0,7.24,3.15.48.48,0,0,0,.49-.49l-.11-5.4a.47.47,0,0,1,.57-.48Z"/><path class="cls-28" d="M234.13,199.23s-.44-7.65-4.11-6.26.07,8.48,2.64,9.28Z"/><path class="cls-28" d="M307.58,217.13a12.93,12.93,0,0,0-6.5-11.13,13.52,13.52,0,0,0-4-1.57c-1.49-2.3-1.62,13.47-1.62,13.47v0a6,6,0,0,0-.42.57,6.35,6.35,0,0,1,0-1.15c.32-2.91-1.91-3.46-1.91-2.77s-.91,5.09-1.21,6.85,4.55,7.82,5.13,8.56a0,0,0,0,0,0,0l.05.17s-11.64,37.37-10.4,38.06c.63.36,8.9,6.88,12.23,3.37,3-3.23,5.35-35.88,5.72-41.55,0,0,2.15-1.47,2.74-7.58a.08.08,0,0,0,0,0,3.64,3.64,0,0,0,.11-.75,1.82,1.82,0,0,0,0-.32A41.7,41.7,0,0,0,307.58,217.13Z"/><path class="cls-30" d="M220.84,219c-.8-.74-28.05,4-28.05,56.32v19.28l10.61.61,12.54-44.07S228.19,225.69,220.84,219Z"/><circle class="cls-32" cx="138.08" cy="41.89" r="38.93"/><circle class="cls-32" cx="688.74" cy="338.32" r="38.93"/></g></svg>