<?xml version="1.0" encoding="utf-8"?>
<!-- Generator: Adobe Illustrator 22.0.1, SVG Export Plug-In . SVG Version: 6.00 Build 0)  -->
<svg version="1.1" id="Layer_1" xmlns="http://www.w3.org/2000/svg" xmlns:xlink="http://www.w3.org/1999/xlink" x="0px" y="0px"
	 viewBox="0 0 82 82" style="enable-background:new 0 0 82 82;" xml:space="preserve">
<style type="text/css">
	.st0{fill:#E89C69;}
	.st1{fill:#DD2B79;}
	.st2{fill:url(#Path_2744_1_);}
	.st3{fill:url(#Path_2745_1_);}
	.st4{fill:#FEB37C;}
	.st5{fill:url(#Path_2749_1_);}
	.st6{fill:#AFB9D2;}
	.st7{fill:#D5DCED;}
	.st8{fill:#FFFFFF;}
	.st9{fill:#F5DCB4;}
	.st10{fill:#00AEEF;}
</style>
<g>
	<g id="Artboard_4">
		<g id="Group_1513" transform="translate(-1026.841 -1204.754)">
			<path id="Path_2742" class="st0" d="M1056.4,1261.1l7-1.6l3.6,11.1c0,0,16.4,0.9,18.6,4.4c2.2,3.6,0.9,3.2,0.6,3.2
				c-0.3-0.1-1.6-2.2-1.6-2.2s0.9,2.5,0.2,2.4c-0.8-0.1-2.2-2.5-2.2-2.5s0.9,3,0.1,2.5c-0.9-0.5-1.3-2.1-1.3-2.1s0.9,2,0,1.9
				c-0.9-0.1-1.8-1.9-1.8-1.9c-1.1,0.2-2.1,0.3-3.2,0.2c-1.1-0.2-13.1,0.2-14.9-1.4S1056.4,1261.1,1056.4,1261.1z"/>
			<path id="Path_2743" class="st1" d="M1058.5,1280.1h-28.9l1.7-20.5c0,0-2.1-15.4,7.7-17.2c5.8-1.6,5.8-1.6,5.8-1.6
				s7.4-1.2,13.6,1.6c6.2,2.8,6.3,20.8,6.3,20.8l-4.9,1.5L1058.5,1280.1z"/>
			<g id="Group_1505" transform="translate(1039.869 1270.613)">
				
					<linearGradient id="Path_2744_1_" gradientUnits="userSpaceOnUse" x1="-1375.9194" y1="280.5312" x2="-1378.7811" y2="284.884" gradientTransform="matrix(4.4401 0 0 -6.3751 6107.5688 1791.0854)">
					<stop  offset="0" style="stop-color:#CB236D"/>
					<stop  offset="1" style="stop-color:#4C246D"/>
				</linearGradient>
				<path id="Path_2744" class="st2" d="M-4.6-4.9C-4.7-4.9-4.7-4.9-4.6-4.9L-8-9.7C-8-9.8-8-9.9-8-10s0.2,0,0.2,0l0,0l3.2,4.7
					C-4.5-5-4.5-5-4.6-4.9L-4.6-4.9z"/>
			</g>
			<g id="Group_1506" transform="translate(1049.661 1258.829)">
				
					<linearGradient id="Path_2745_1_" gradientUnits="userSpaceOnUse" x1="-1464.9082" y1="418.0989" x2="-1467.3347" y2="419.9366" gradientTransform="matrix(5.2415 0 0 -15.0992 7675.248 6323.5815)">
					<stop  offset="0" style="stop-color:#CB236D"/>
					<stop  offset="1" style="stop-color:#4C246D"/>
				</linearGradient>
				<path id="Path_2745" class="st3" d="M-7.3,4.5c-0.1,0-0.2-0.1-0.2-0.2c0-0.1,0-0.1,0.1-0.1l1.2-0.9l-3.9-10.7
					c0-0.1,0-0.2,0.1-0.2c0.1,0,0.2,0,0.2,0.1L-6,3.3C-6,3.3-6,3.3-6,3.4L-7.3,4.5C-7.3,4.5-7.3,4.5-7.3,4.5z"/>
			</g>
			<path id="Path_2746" class="st4" d="M1035.8,1266.1l6.5-3l5.7,10.1c0,0,16.2-2.5,19.1,0.6c2.8,3.1,1.5,3,1.2,3
				c-0.3,0-2.1-1.8-2.1-1.8s1.4,2.2,0.7,2.3c-0.7,0.1-2.7-2-2.7-2s1.6,2.8,0.6,2.5c-0.9-0.3-1.7-1.8-1.7-1.8s1.3,1.7,0.4,1.8
				c-0.9,0.1-2.1-1.4-2.1-1.4c-1,0.5-2.1,0.8-3.2,0.9c-1.2,0-12.7,2.9-14.8,1.7C1041.4,1277.5,1035.8,1266.1,1035.8,1266.1z"/>
			<path id="Path_2747" class="st4" d="M1048.7,1229.7l-6,12.3c0,0,5.4,4.6,11.3,2.7l1.3-12.7L1048.7,1229.7z"/>
			<g id="Group_1507" transform="translate(1052.437 1208.754)">
				<path id="Path_2748" class="st4" d="M12.9,11.9c0,0,0.4,9.7-1,14.2s-1.6,7.7-7,6.6c-5.5-1-8.7-5.3-9.3-10.6c0,0-1-8.2,0.9-10.6
					S12.9,11.9,12.9,11.9z"/>
				
					<linearGradient id="Path_2749_1_" gradientUnits="userSpaceOnUse" x1="-1738.6918" y1="473.6564" x2="-1738.1631" y2="472.6592" gradientTransform="matrix(38.1964 0 0 -26.0834 67095.5313 13241.7754)">
					<stop  offset="0" style="stop-color:#2B3582"/>
					<stop  offset="1" style="stop-color:#150E42"/>
				</linearGradient>
				<path id="Path_2749" class="st5" d="M-1.5,19.7l0.6,0.2c0,0-0.6-6.4,2.1-6.5s12.6,1.7,15.8-0.9c3.2-2.4,3-7.1,0.9-9.3
					c-0.2-0.2-0.3-0.2-0.5,0l-0.4,0.3c-0.2,0.2-0.4,0.1-0.6,0c-0.1-0.1-0.1-0.2-0.1-0.2l0,0c0.1-0.2-0.1-0.5-0.2-0.5
					c-0.1,0-0.2,0-0.2,0.1c-0.9,0.7-3.2,1.7-8,0.8C1.3,2.6-3.8,3.5-5.6,7.8C-5.7,7.9-5.9,8-6.1,7.9c-0.1,0-0.2-0.1-0.2-0.2
					c-0.3-0.5-1-0.9-2.4-0.4c-2.3,0.8-3,4.8-0.5,9.3c0.1,0.2,0.1,0.4-0.2,0.5c0,0-0.1,0-0.1,0.1c-0.9,0.2-2.3,0.9-0.2,3.2
					c2.1,2.5,3.8,2.9,4.4,3c0.2,0,0.3-0.1,0.4-0.2l1.3-4c0.1-0.2,0.2-0.3,0.5-0.2l0,0L-1.5,19.7z"/>
				<path id="Path_2750" class="st4" d="M-1.6,20.6c0,0,0.7-5.9-2.3-5.3c-3,0.6-1.1,6.5,0.8,7.4L-1.6,20.6z"/>
			</g>
			<path id="Path_2751" class="st6" d="M1101,1267.9h-26.1c-1.5,0-2.6-2.4-2.6-5.2v-31.4c0-2.9,1.2-5.2,2.6-5.2h26.1
				c1.5,0,2.6,2.4,2.6,5.2v31.4C1103.6,1265.6,1102.4,1267.9,1101,1267.9z"/>
			<path id="Path_2752" class="st7" d="M1103,1267.9h-24.2c-1.3,0-2.4-2.4-2.4-5.2v-31.4c0-2.9,1.1-5.2,2.4-5.2h24.2
				c1.3,0,2.4,2.4,2.4,5.2v31.4C1105.4,1265.6,1104.4,1267.9,1103,1267.9z"/>
			<path id="Path_2753" class="st7" d="M1093.2,1280.1h-33c-1.8,0-3.3-0.2-3.3-0.3v-1.7c0-0.2,1.5-0.3,3.3-0.3h33
				c1.8,0,3.3,0.2,3.3,0.3v1.7C1096.5,1280,1095,1280.1,1093.2,1280.1z"/>
			<path id="Path_2754" class="st6" d="M1100.3,1277l-1.6-20.7c-0.1-1.6-0.9-2.7-1.8-2.7h-4.1c-0.9,0-1.7,1.1-1.8,2.7l-1.6,20.7v3.1
				h10.9L1100.3,1277z"/>
			<ellipse id="Ellipse_219" class="st8" cx="1093.1" cy="1243.5" rx="2.5" ry="3.5"/>
			<path id="Path_2755" class="st9" d="M1107.5,1286.8h-79.2c-0.8,0-1.4-0.8-1.4-1.7l0,0v-3.3c0-0.9,0.6-1.7,1.4-1.7l0,0h79.2
				c0.8,0,1.4,0.8,1.4,1.7l0,0v3.3C1108.9,1286,1108.3,1286.8,1107.5,1286.8L1107.5,1286.8z"/>
			<g id="Group_1508" transform="translate(1054.987 1209.256)">
				<path id="Path_2756" class="st10" d="M-5.5,12.8c0,0,4.4-9.3,11.5-9.3C4.8,2.8,3.4,2.7,2,3c-2.2,0.6-8.4,4.6-9.3,9.8
					C-5.9,13.4-5.5,12.8-5.5,12.8z"/>
				<path id="Path_2757" class="st10" d="M-6.5,11.9c-4,0.2-4.3,5-4.3,5c-0.9,3.4-0.2,5.3,1,6.4c1.3,1.1,3.2,1,4.3-0.2
					c0.3-0.4,0.6-0.8,0.7-1.3c0.2-0.9,0.5-1.8,0.6-2.1C-3.9,18.9-2.6,11.8-6.5,11.9z"/>
			</g>
		</g>
	</g>
</g>
</svg>
