<svg id="Layer_1" data-name="Layer 1" xmlns="http://www.w3.org/2000/svg" xmlns:xlink="http://www.w3.org/1999/xlink" viewBox="0 0 231.6 216.59"><defs><style>.cls-1{fill:url(#linear-gradient);}.cls-2{fill:#0fa3f4;opacity:0.33;isolation:isolate;}.cls-3{fill:#fff;}.cls-4{fill:url(#linear-gradient-2);}.cls-5{fill:url(#linear-gradient-3);}</style><linearGradient id="linear-gradient" x1="19.66" y1="117.6" x2="216.98" y2="117.6" gradientUnits="userSpaceOnUse"><stop offset="0" stop-color="#68b7c1"/><stop offset="1" stop-color="#7edfb5"/></linearGradient><linearGradient id="linear-gradient-2" x1="153.75" y1="26.74" x2="18.75" y2="182.74" gradientUnits="userSpaceOnUse"><stop offset="0" stop-color="#f92a2a"/><stop offset="1" stop-color="#a81717"/></linearGradient><linearGradient id="linear-gradient-3" x1="183.54" y1="52.52" x2="48.54" y2="208.52" xlink:href="#linear-gradient-2"/></defs><title>Suscripción - Mailing - Suscripción cancelada</title><path class="cls-1" d="M81.3,69.46C4.1,127.74,6.69,174.78,49.17,180.36s142-7.38,164-28.79S158.5,11.18,81.3,69.46Z"/><circle id="Ellipse_72" data-name="Ellipse 72" class="cls-2" cx="19.66" cy="130.28" r="19.66"/><circle id="Ellipse_71" data-name="Ellipse 71" class="cls-2" cx="208.29" cy="153.59" r="23.31"/><path id="Path_2588" data-name="Path 2588" class="cls-3" d="M109.43,51.7l3.38,3.14L117.39,49l5.5,29.24L137.35,101l-11.08,25.23L148.63,140l-20,46.15s.94-5.76-8.52.53L94.92,135.72l12.39-31.08L88.71,87.36l14.15-33Z"/><path class="cls-4" d="M109.43,51.7s-10.29-23.89-43.19-21S12.56,63,15.08,94.87,57,141.6,74.54,151.37a203.43,203.43,0,0,1,45.55,35.28l7.73-42.72-22.55-9.81,13.17-32.54L97.2,85.92Z"/><path class="cls-5" d="M128.61,186.12l7.73-43.36-22.69-9.59,13.64-32.68L105.56,85.36l11.25-33.12s1.07-22,34.37-29c17.68-3.69,53.29,4.29,63.14,39.15,13.32,47-26.63,62.37-48.74,83.42A401.77,401.77,0,0,0,128.61,186.12Z"/></svg>