<svg id="Group_533" data-name="Group 533" xmlns="http://www.w3.org/2000/svg" viewBox="0 0 137.295 21.93">
  <defs>
    <style>
      .cls-1 {
        fill: #fff;
        fill-rule: evenodd;
      }
    </style>
  </defs>
  <path id="Path_771" data-name="Path 771" class="cls-1" d="M69.987,6.328l3.854,4.12-3.854,2.658V6.328Zm-.8-.133a22.7,22.7,0,0,1-2.392.93V15.5a6.041,6.041,0,0,1-.133,1.861,1.092,1.092,0,0,1-.665.665v.4l2.658.665c.665.266,1.462.665,2.525,1.2L76.1,16.828l-.4-.4-2.127,1.462-3.589-1.462V13.771L76.5,9.252,72.513,4.6c-1.595.665-2.924,1.462-3.323,1.595Z" transform="translate(21.72 1.514)"/>
  <path id="Path_772" data-name="Path 772" class="cls-1" d="M87.416,4.5l3.854,2.259L89.543,9.285l-3.19-1.861v9.171l3.057,1.329L91,16.861l.4.4-4.253,3.057a20.422,20.422,0,0,0-2.525-1.2,22.144,22.144,0,0,0-2.525-.665v-.4a1.772,1.772,0,0,0,.665-.8,5.207,5.207,0,0,0,.266-1.728V7.424A11.082,11.082,0,0,0,87.416,4.5Z" transform="translate(27.018 1.481)"/>
  <path id="Path_773" data-name="Path 773" class="cls-1" d="M100.516,7.557a7.846,7.846,0,0,1,2.259,1.063v9.171l-3.323-1.462V7.158a9.156,9.156,0,0,1,1.063.4Zm.665-3.057A13.385,13.385,0,0,1,96.13,7.291v8.24a3.817,3.817,0,0,1-.266,1.595,3.524,3.524,0,0,1-.665.8l.133.266a6.951,6.951,0,0,1,2.392.4,14.1,14.1,0,0,1,3.19,1.595,13.482,13.482,0,0,1,1.728-1.2c.665-.4,1.861-.93,3.323-1.595V6.494A15.713,15.713,0,0,1,101.181,4.5Z" transform="translate(31.329 1.481)"/>
  <path id="Path_774" data-name="Path 774" class="cls-1" d="M44.951,7.557A9.887,9.887,0,0,1,47.21,8.62v9.171l-3.19-1.462V7.158a6.48,6.48,0,0,1,.93.4Zm.8-3.057A13.386,13.386,0,0,1,40.7,7.291v8.24a4.586,4.586,0,0,1-.133,1.595,3.524,3.524,0,0,1-.665.8l.133.266a6.208,6.208,0,0,1,2.259.4,14.1,14.1,0,0,1,3.19,1.595,13.481,13.481,0,0,1,1.728-1.2c.665-.4,1.861-.93,3.323-1.595V6.494A15.713,15.713,0,0,1,45.748,4.5Z" transform="translate(13.131 1.481)"/>
  <path id="Path_775" data-name="Path 775" class="cls-1" d="M22.244,18.74l-.8.665-1.728-1.329V3.589l1.2-1.2L17.991,0,15.2,2.392l1.2,1.2V17.81a1.921,1.921,0,0,1-.266.93c-.133.266-.4.4-.665.665v.266a6.034,6.034,0,0,1,1.861.8c.4.266,1.063.8,1.994,1.462L22.643,19.4l-.4-.665Z" transform="translate(5.002)"/>
  <path id="Path_776" data-name="Path 776" class="cls-1" d="M44.2,15.617l-.4.266a14.889,14.889,0,0,1-3.589,2.127,10.912,10.912,0,0,1-3.721.665h-.665V3.124a5.576,5.576,0,0,0,3.19.93c1.861,0,3.589-1.329,4.918-3.19L43.407.6a3.172,3.172,0,0,1-2.392,1.329A8.541,8.541,0,0,1,36.895.2L30.382,5.649V11.9a8.34,8.34,0,0,1-.133,2.525,3.307,3.307,0,0,1-.665.93A8.23,8.23,0,0,1,27.724,9.9a7.825,7.825,0,0,1,1.329-4.519,12.757,12.757,0,0,1,2.924-3.19l.133-.133-.4-.4-.133.133a17.3,17.3,0,0,0-4.918,3.987A9.308,9.308,0,0,0,24.8,11.63a10.262,10.262,0,0,0,1.329,5.051A9.123,9.123,0,0,0,29.851,20.4,11,11,0,0,0,34.9,21.731a8.588,8.588,0,0,0,3.589-.665,11.947,11.947,0,0,0,3.19-1.595A14.776,14.776,0,0,0,44.2,16.548l.266-.532-.266-.4Zm-9.038,2.924a7.656,7.656,0,0,1-2.791-.93,11.779,11.779,0,0,1-2.392-1.861,29.02,29.02,0,0,0,2.924-2.791,2.717,2.717,0,0,0,.665-1.2,5.061,5.061,0,0,0,.133-1.728V3.789l1.462-1.2V18.541Z" transform="translate(8.161 0.066)"/>
  <path id="Path_777" data-name="Path 777" class="cls-1" d="M82.339,4.5l-3.19,2.791a1.6,1.6,0,0,0-.4-1.063A10.483,10.483,0,0,0,77.023,4.5L73.7,7.291l.4.532c.4-.4.665-.665.93-.665s.4.133.532.4a3.1,3.1,0,0,1,.266,1.462v6.114c0,.8,0,1.462-.266,1.728a2.491,2.491,0,0,1-.8.93v.266a8.922,8.922,0,0,1,1.994.8,12.2,12.2,0,0,1,1.994,1.462l3.456-2.658-.4-.532-.8.665-1.728-1.329V8.089l1.063-.93c.8.93,1.329,1.462,2.127,1.462,1.462,0,3.456-2.259,3.456-2.259l-.266-.266c-1.462,1.2-2.525-.93-3.323-1.595Z" transform="translate(24.254 1.481)"/>
  <path id="Path_778" data-name="Path 778" class="cls-1" d="M19.272,15.65l-.4.266a14.889,14.889,0,0,1-3.589,2.127,10.912,10.912,0,0,1-3.721.665h-.532V11.8a3.881,3.881,0,0,0,1.2.266c1.595,0,3.323-1.595,4.386-3.323l-.532-.266a2.524,2.524,0,0,1-1.994,1.063,6.363,6.363,0,0,1-3.19-1.2V3.157a5.576,5.576,0,0,0,3.19.93c1.861,0,3.589-1.329,4.918-3.19l-.4-.4a3.172,3.172,0,0,1-2.392,1.329c-1.063,0-2.392-.665-4.12-1.728L5.582,5.549v6.513a8.339,8.339,0,0,1-.133,2.525,2.191,2.191,0,0,1-.665.8A8.361,8.361,0,0,1,2.791,9.935,7.825,7.825,0,0,1,4.12,5.416a11.312,11.312,0,0,1,3.057-3.19l.133-.133-.4-.266-.133.133A19.765,19.765,0,0,0,1.861,5.815,10.194,10.194,0,0,0,0,11.663a9.911,9.911,0,0,0,1.329,5.051,9.123,9.123,0,0,0,3.721,3.721A11.443,11.443,0,0,0,10.1,21.764,11.4,11.4,0,0,0,13.69,21.1a11.947,11.947,0,0,0,3.19-1.595A9.342,9.342,0,0,0,19.4,16.581l.266-.532-.4-.4Zm-8.9-13.158V8.34L8.9,9.669V3.821l1.462-1.329ZM7.576,17.777a11.779,11.779,0,0,1-2.392-1.861,29.021,29.021,0,0,0,2.924-2.791,5.387,5.387,0,0,0,.665-1.2c0-.266.133-.532.133-1.063a15.591,15.591,0,0,0,1.462.665v7.177a7.656,7.656,0,0,1-2.791-.93Z" transform="translate(0 0.033)"/>
  <path id="Path_779" data-name="Path 779" class="cls-1" d="M67.609,6.892,69.07,5.43l.4.4c-.532.532-.93.8-1.063,1.2l-.4.8V15.93c0,.8,0,1.329.266,1.595q.2.4.4.4c.133,0,.266-.133.8-.532l.4.4-3.19,2.525c-.665-.532-1.329-1.063-1.462-1.462a3.778,3.778,0,0,1-.532-1.595V8.487L63.223,7.158,61.495,8.753v8.107l1.2,1.329L59.9,20.316,57.109,18.19l1.063-1.329V9.816a2.969,2.969,0,0,0-.266-1.595c-.133-.4-.532-.665-1.2-1.2L54.982,8.487v8.24l1.2,1.329-2.791,2.127-2.924-2.127,1.2-1.329V9.285a3.016,3.016,0,0,0-.4-1.728.712.712,0,0,0-.532-.4,3.716,3.716,0,0,0-1.063.665L49.4,7.291,52.723,4.5a6.474,6.474,0,0,1,1.329,1.063,1.688,1.688,0,0,1,.532.93,3.334,3.334,0,0,1,.133,1.329L58.837,4.5A7.956,7.956,0,0,1,60.7,6.361a2.451,2.451,0,0,1,.532,1.728L65.083,4.5l2.525,2.392Z" transform="translate(16.257 1.481)"/>
  <path id="Path_780" data-name="Path 780" class="cls-1" d="M89.7,2.694c.8.93,1.595,1.994,2.525,1.994,1.462,0,3.456-2.259,3.456-2.259l-.266-.266c-1.329,1.2-2.392-.8-3.057-1.462L89.7,2.694Z" transform="translate(29.519 0.23)"/>
  <path id="Path_781" data-name="Path 781" class="cls-1" d="M95.548,17.425c-.532.4-.665.532-.8.532s-.266-.133-.4-.4a3.818,3.818,0,0,1-.266-1.595V7.989l1.2-1.2L92.491,4.4,89.7,6.792l1.2,1.2v9.171a3.256,3.256,0,0,0,.532,1.595,7.477,7.477,0,0,0,1.462,1.462l3.19-2.525-.532-.266Z" transform="translate(29.519 1.448)"/>
</svg>
