<svg id="regla" xmlns="http://www.w3.org/2000/svg" viewBox="0 0 58 58"><defs><style>.cls-1{fill:#4191e0;}.cls-2{fill:#ebf0f8;}</style></defs><title>Artboard 56</title><circle class="cls-1" cx="29" cy="29" r="29"/><path class="cls-2" d="M20.42,45.47l-8.65,4.72a7.76,7.76,0,0,0-1.39,1,29,29,0,0,0,37.24.1,7.29,7.29,0,0,0-1.53-1l-9.26-4.64a3.52,3.52,0,0,1-2-3.16V38.83c.26-.3.56-.68.88-1.13a21.24,21.24,0,0,0,2.88-5.8,2.92,2.92,0,0,0,2.07-2.77V25.25a2.85,2.85,0,0,0-1-2.15V17.48s1.16-8.72-10.67-8.72-10.66,8.72-10.66,8.72V23.1a2.85,2.85,0,0,0-1,2.15v3.88a2.9,2.9,0,0,0,1.35,2.44,19.27,19.27,0,0,0,3.51,7.26v3.55a3.53,3.53,0,0,1-1.85,3.09Zm0,0"/></svg>