<svg xmlns="http://www.w3.org/2000/svg" viewBox="0 0 90.43 95.36"><defs><style>.cls-1{fill:#dddcfb;}.cls-2{fill:#4b3f8e;}.cls-3{fill:#ededed;}.cls-4{fill:#0fa3f4;}.cls-5{fill:#fff;}</style></defs><title>Artboard 128</title><g id="menú_desplegable_de_carrito" data-name="menú desplegable de carrito"><path class="cls-1" d="M74,23,51,0H0V95.36H74Zm0,0"/><path class="cls-2" d="M16.44,37.81H57.55a1.64,1.64,0,1,0,0-3.28H16.44a1.64,1.64,0,1,0,0,3.28Zm0,0"/><path class="cls-2" d="M16.44,24.66H32.88a1.65,1.65,0,1,0,0-3.29H16.44a1.65,1.65,0,0,0,0,3.29Zm0,0"/><path class="cls-2" d="M57.55,47.68H16.44a1.65,1.65,0,0,0,0,3.29H57.55a1.65,1.65,0,0,0,0-3.29Zm0,0"/><path class="cls-2" d="M57.55,60.84H16.44a1.64,1.64,0,1,0,0,3.28H57.55a1.64,1.64,0,1,0,0-3.28Zm0,0"/><path class="cls-2" d="M57.55,74H16.44a1.65,1.65,0,0,0,0,3.29H57.55a1.65,1.65,0,0,0,0-3.29Zm0,0"/><path class="cls-3" d="M51,0V23H74Zm0,0"/><rect class="cls-4" x="54.25" y="59.19" width="36.18" height="36.17"/><rect class="cls-5" x="70.28" y="66.7" width="4.12" height="20.67"/><path class="cls-5" d="M72.34,90.43l-11.5-11,2.42-2.32,9.08,8.7,9.09-8.7,2.42,2.32Zm0,0"/></g></svg>