<?xml version="1.0" encoding="utf-8"?>
<!-- Generator: Adobe Illustrator 22.0.1, SVG Export Plug-In . SVG Version: 6.00 Build 0)  -->
<svg version="1.1" xmlns="http://www.w3.org/2000/svg" xmlns:xlink="http://www.w3.org/1999/xlink" x="0px" y="0px"
	 viewBox="0 0 9.7 16.9" style="enable-background:new 0 0 9.7 16.9;" xml:space="preserve">
<style type="text/css">
	.st0{fill:#D1D3D4;}
	.st1{fill:#E6E7E8;}
	.st2{fill:#F1F2F2;}
	.st3{fill:#0FA3F4;}
	.st4{fill-rule:evenodd;clip-rule:evenodd;fill:#F4F4F4;}
	.st5{fill:none;stroke:#FFFFFF;stroke-miterlimit:10;}
	.st6{fill:#FCCC30;}
	.st7{fill-rule:evenodd;clip-rule:evenodd;fill:#231F20;}
	.st8{fill:#414042;}
	.st9{fill:#75BB00;}
	.st10{fill:#969696;}
	.st11{fill:#626262;}
	.st12{fill-rule:evenodd;clip-rule:evenodd;fill:#FFFFFF;}
	.st13{fill:#FFFFFF;}
	.st14{fill-rule:evenodd;clip-rule:evenodd;fill:#414042;}
	.st15{fill:#5D5D5D;}
	.st16{fill:#212121;}
	.st17{fill:#99EE00;}
	.st18{fill-rule:evenodd;clip-rule:evenodd;fill:#F1F2F2;}
	.st19{fill-rule:evenodd;clip-rule:evenodd;fill:#626262;}
	.st20{fill-rule:evenodd;clip-rule:evenodd;fill:#212121;}
	.st21{fill-rule:evenodd;clip-rule:evenodd;fill:#58595B;}
	.st22{fill:#A7A9AC;}
	.st23{fill-rule:evenodd;clip-rule:evenodd;fill:#D1D3D4;}
	.st24{fill:#0D85D6;}
	.st25{fill:none;stroke:#444242;stroke-width:1.2517;stroke-miterlimit:10;}
	.st26{fill:url(#SVGID_19_);}
	.st27{fill:url(#SVGID_20_);}
	.st28{fill:none;stroke:#5D5D5D;stroke-miterlimit:10;}
	.st29{fill:#58595B;}
	.st30{fill:#6D6E71;}
	.st31{fill:#808285;}
	.st32{fill-rule:evenodd;clip-rule:evenodd;fill:#282828;}
	.st33{fill:#EC008C;}
	.st34{fill:url(#SVGID_23_);}
	.st35{fill:url(#SVGID_24_);}
	.st36{fill:#00A79D;}
	.st37{fill:#F4F4F4;}
	.st38{fill:#E5E5E5;}
	.st39{fill-rule:evenodd;clip-rule:evenodd;fill:#0FA3F4;}
	.st40{fill:#F15A29;}
	.st41{fill:url(#SVGID_55_);}
	.st42{fill:url(#SVGID_56_);}
	.st43{fill:#27AAE1;}
	.st44{fill:#88CE00;}
	.st45{fill:#1178F2;}
	.st46{fill:#00A651;}
	.st47{display:none;}
	.st48{display:inline;}
	.st49{display:inline;fill:#808285;}
	.st50{display:inline;fill:#D1D3D4;}
	.st51{fill:none;stroke:#0FA3F4;stroke-miterlimit:10;}
	.st52{fill:#D91023;}
	.st53{fill:#0038A5;}
</style>
<g id="regla">
	<g>
		<path class="st13" d="M4.8,16.9C2.2,16.9,0,15,0,12.8V2.9h1.3v9.8c0,1.7,1.6,3,3.5,3s3.5-1.4,3.5-3V2.6c0-1-1-1.5-2.2-1.5
			C5,1.1,4.1,1.9,4.1,2.9l0,9.9c0,0.4,0.3,0.7,0.8,0.7c0.4,0,0.8-0.3,0.8-0.7v-8h1.3v8c0,1-0.9,1.8-2.1,1.8c-1.1,0-2.1-0.8-2.1-1.8
			V2.9C2.8,1.3,4.3,0,6.2,0C8,0,9.7,1,9.7,2.6v10.2C9.7,15,7.5,16.9,4.8,16.9z"/>
	</g>
</g>
<g id="Dropdown" class="st47">
</g>
<g id="Popaup_recursos" class="st47">
	<rect x="-1811.1" y="-807" class="st49" width="1900" height="2851.4"/>
</g>
<g id="Menú_carrito" class="st47">
</g>
<g id="Menú_país" class="st47">
</g>
<g id="Menú_editar_o_borrar_comentario" class="st47">
</g>
</svg>
