<svg xmlns="http://www.w3.org/2000/svg" viewBox="0 0 517.6 356.6"><defs><style>.cls-1{fill:#001736;}.cls-2{fill:#feb37c;}.cls-3{fill:#ee8a56;}.cls-4{fill:#003676;}.cls-5{fill:#0058c2;}.cls-6{fill:#f08a57;}.cls-7{fill:#dd2b79;}.cls-8{fill:#ff65ab;}.cls-9{fill:#b71a5f;}.cls-10{fill:#7893b0;}.cls-11{fill:#a7c4e4;}.cls-12{fill:#052e4c;}</style></defs><title>Artboard 121 copy 3</title><g id="menú_desplegable_de_carrito" data-name="menú desplegable de carrito"><path class="cls-1" d="M131.93,208.29s-4.17,9.33,9.33,23.58,27.8,19.21,36.34,13.67-6-36.79-6-36.79S149.43,198.83,131.93,208.29Z"/><path class="cls-1" d="M184.3,248.25c-4.33,7-.62,16.3,17.09,28.12,21.46,14.34,30.06-.5,30.06-.5s9.44-17,5.94-28.12S202.7,218.62,184.3,248.25Z"/><path class="cls-2" d="M39.76,274.37s26.5-14,33-18S96,235.83,120.51,241.6c0,0,37.5-52.37,60-63.3,0,0,17.25-6.62,28.75,26.23,0,0-37.83,38.26-70,57.09,0,0-4,3.25-25.25,6.63S48.89,289.37,33.89,300Z"/><path class="cls-2" d="M97.76,292.37s30.5-.75,37.5-2.25,19.08-4.42,42.29-1.71c0,0,30-85.29,34-88.79,0,0,25.25-10.5,40.75,25.25,0,0-7.75,40-52,80,0,0-12.25,13-22.37,14s-61.75-8-81.5-7.25Z"/><path class="cls-3" d="M178,318.87c10.12-1,22.37-14,22.37-14a191.27,191.27,0,0,0,38.54-47.38l-9.2-3.12s-22.34,37.42-43.34,51.75-49.18-1.33-84.42-3.33l-5.09,3.73-.36,5.1C116.26,310.87,167.88,319.88,178,318.87Z"/><path class="cls-3" d="M132.92,254.34c-16.4,8-36.3-3-97.4,39.08l-.92,4,.39,1.93c15.84-10.69,58.33-27.78,79.14-31.08,21.25-3.38,25.25-6.63,25.25-6.63,14.6-8.54,30.36-21.09,43.22-32.24l-11.47-9.7S149.46,246.22,132.92,254.34Z"/><path class="cls-3" d="M152.38,209.1a26.56,26.56,0,0,1,8.62,22c-1,14.41,11.14-3.22,11.14-3.22l4.62-9.19L175.64,214l-17.5-6.4Z"/><path class="cls-3" d="M196.89,239.81s20.62,7.21,20.62,18.76a53.49,53.49,0,0,1-4,20.3l6.15-3.25,14.87-23.28-10.1-19.22-20.4,1.5Z"/><g id="_Group_" data-name="&lt;Group&gt;"><path class="cls-4" d="M415.86,19c1.73,1.42-1.15,8.34-1.15,8.34-3.71,1.15-4.37-1-3.3-2.41S415.86,19,415.86,19Z"/><path class="cls-3" d="M399.62,55.4s5.46-6.11,10.11-11.68c0,1.67-.05,4.5-.21,7.85l-9.14,10.17A22.16,22.16,0,0,0,399.62,55.4Z"/><path class="cls-4" d="M404,18.33c4.11-.31,3.77,3.47,3.77,3.47-2.36,1.09-4.48,2.4-4.68.19A7.67,7.67,0,0,1,404,18.33Z"/><path class="cls-2" d="M392.69,87.41c-4.64-1.06-6.42-6.09-6.95-11.39A8.5,8.5,0,0,0,387,72.47s3.41,4,7.63,1.39c3.13-1.94,5.61-6.42,5.74-12.12l9.14-10.17c-.29,7-1,16.2-2.8,22.29C403.56,84.69,399.47,88,392.69,87.41Z"/><path class="cls-3" d="M392.69,87.41l-13.45,17.38-26-21,5-5.73a21.52,21.52,0,0,0,10.44,3.62c10.79,1,15.24-2.66,17.06-5.65C386.27,81.32,388.05,86.35,392.69,87.41Z"/><path class="cls-5" d="M400.38,61.74a22.16,22.16,0,0,0-.76-6.34s5.46-6.11,10.11-11.68v0a92.51,92.51,0,0,0,5.9-7.57c2.87-4.53,2-7.7-.92-8.83-3.72,1.15-4.37-1-3.3-2.41S415.86,19,415.86,19a1.15,1.15,0,0,0-.76-.27c-2.34-.05-5.22,1.66-6.56,2.55a2.31,2.31,0,0,1-.76.54c-2.36,1.09-4.48,2.4-4.68.19a7.67,7.67,0,0,1,.91-3.66,16.42,16.42,0,0,0-6.25,2.19s-11.64-1.65-27.13,5.06S347.93,46,347.92,54.64c0,6.08,1.78,17.5,10.32,23.41a21.52,21.52,0,0,0,10.44,3.62c10.79,1,15.24-2.66,17.06-5.65A8.5,8.5,0,0,0,387,72.47s3.41,4,7.63,1.39c3.13-1.94,5.61-6.42,5.74-12.12"/></g><g id="_Group_2" data-name="&lt;Group&gt;"><path class="cls-2" d="M515.05,31.73c.67,1,2.62,1.66,1.5,4.91s-7.25,9.59-12.61,14.12-6.71,5.2-9.59,10.11-5.58,14.42-13,26.65c-4.86,8-9.81,16.11-13.58,21.53,0,0-12.76.43-21.22-1.08a47.84,47.84,0,0,1-15.82-6.4c4.39-.14,10.89-.25,13.25.14,0,0,4.83-10.35,8.46-16.09s20.68-24,25.21-29.05S486.06,43,490.13,32.11s9.36-16.31,15.39-22.27,8.23-7.85,8.69-7.32,2.11,3.62-1,6.8-8.54,8.37-8.38,12.38c0,0,2-.09,4.6,2.63A58,58,0,0,1,515.05,31.73Z"/><path class="cls-3" d="M446.57,108c8.46,1.51,21.22,1.08,21.22,1.08a36.73,36.73,0,0,1-4.77,6c-3.32,2.86-8.52,5.2-17.35,6.71s-20.09,2.34-20.09,2.34l.91-22.34s1.79-.07,4.25-.14h0A47.84,47.84,0,0,0,446.57,108Z"/><path class="cls-2" d="M247.19,80.35l-1,10.61c-3.84,3.72-37.51,12.62-38.56,12.9,0,0,0,0,0,0C192,103,181.85,99.48,178,99.43c-4.42-.06-11.36.84-18.51-2a57.34,57.34,0,0,0-19-4c-5.34-.2-8.46-2.42-4.93-2.47s14.19-.75,17.1-1.86c0,0-12.57-2.35-16.4-4.44s-5.23-4.92.2-4.11S151.19,81.89,154,82c0,0-12.47-3.34-14.59-5.15s-4.43-6.57,2.51-3.69a68.24,68.24,0,0,0,16.61,4.27s-9.06-10.45-4.73-9c0,0,2.22,1.11,6,3.22s11.28,9,14.6,10.35,5.53,3.84,10.87,3.33,21.63-4,34.21-5.73S239.65,78.05,247.19,80.35Z"/><path class="cls-6" d="M246.22,91l-.83,9.14s-11.68,4.05-31.1,4q-3.45,0-6.63-.21C208.71,103.58,242.38,94.68,246.22,91Z"/></g><g id="_Group_3" data-name="&lt;Group&gt;"><path class="cls-7" d="M430.73,107.58c-2.08-.28-4.37-.51-6.86-.65-1-.07-2.11-.11-3.21-.14a169.16,169.16,0,0,0-46.11,5.7c-14.33,3.73-22.64,9-27.14,13-.1.39-.18.77-.27,1.17-4.22,20.53,24.1,22.84,24.1,22.84,11.32-9.36,24.15-20.83,28.84-21.44s5.73-.75,14.95-1.35c3.65-.24,7.06-.56,9.85-.85,1.8-.18,3.35-.36,4.53-.5,1.6-.18,2.53-.32,2.53-.32S435.5,117.44,430.73,107.58Z"/><path class="cls-8" d="M423.33,97.69s-2.88-.12-7.26-.26l-2.44-.09c-12.25-.37-32.51-.78-39.08.35,0,0-22.3,8.08-27.14,27.77,4.5-3.93,12.81-9.24,27.14-13a169.16,169.16,0,0,1,46.11-5.7c1.1,0,2.17.07,3.21.14,2.49.14,4.78.37,6.86.65A34.61,34.61,0,0,0,423.33,97.69Z"/><path class="cls-8" d="M262.11,72.61c-1.91.52-3.77,1-5.51,1.57a77.74,77.74,0,0,0-9,3.28s-2.92,2.44-4.52,9.34l9.23-1.46.42-.07,4.74-1.15C261.12,83.24,266.16,82,270,81a57,57,0,0,1,13.85-1.49,87.53,87.53,0,0,1,14.59-13C293.88,65.74,276.22,68.82,262.11,72.61Z"/><path class="cls-7" d="M270,81c-3.88,1-8.92,2.2-12.57,3.08l-4.74,1.15-.42.07-9.23,1.46a49.42,49.42,0,0,0-.76,15.45l7.36-.15,4.13-.08,16.87-.33a1.25,1.25,0,0,0,.07-.23c2.65-8.6,7.9-16.1,13.14-21.91A57,57,0,0,0,270,81Z"/><path class="cls-8" d="M364.3,82c3.48,2.54,6.13,6.72,7.85,10.14-9.68,5.16-25.24,16.13-33.27,30.07-10.66,18.51-17.7,23.34-31.59,31.6s-27,4.42-41.27,12.48c-10.54,5.94-19.45,20-23.39,27-2.66-2.39-4.39-4.11-4.39-4.11l-31.62-36.79c-.36-2.73.08-4.53,7.61-5.29s28.84-7.09,44.54-18c15.46-10.7,23.6-27.11,23.84-27.62h0S294.3,81.34,299,77.21s18.05-8.24,22.05-8.54l.64,0C347.4,65.53,357.66,77.16,364.3,82Z"/><path class="cls-9" d="M283.89,79.55l.55,6.59-7.54,15.43-6.22.12a1.25,1.25,0,0,0,.07-.23C273.4,92.86,278.65,85.36,283.89,79.55Z"/><path class="cls-9" d="M298.48,66.59c5.73,1.07,19.47,1.9,22.6,2.08-4,.3-17.32,4.41-22.05,8.54s-16.4,24.25-16.4,24.25l-5.73.11,7.54-15.43-.55-6.59A87.53,87.53,0,0,1,298.48,66.59Z"/><path class="cls-9" d="M347.14,126.63c.09-.4.17-.78.27-1.17,4.84-19.69,27.14-27.77,27.14-27.77a43.13,43.13,0,0,0-2.4-5.56c-9.68,5.17-25.24,16.13-33.27,30.07-10.66,18.51-17.7,23.34-31.59,31.6s-27,4.42-41.27,12.48c-10.54,5.94-19.45,20-23.39,27,6.11,5.5,17.13,14.56,23.24,14.36,8.75-.31,10.27-5.44,12.37-10s5.44-12.68,11.93-15.4,27.64-8.3,45.6-14.19c14.39-4.72,21.24-7.8,29.22-13.66,2-1.44,4-3.06,6.25-4.91C371.24,149.47,342.92,147.16,347.14,126.63Z"/></g><path class="cls-10" d="M89.09,289.77s7.85-3.17,12.22,2.57c0,0,3.18,12-6.11,27.75S85.92,337.78,80,347a15.11,15.11,0,0,1-18,6.34Z"/><path class="cls-11" d="M69.76,315c5.53-14.37,14.95-25.9,21.59-26.08s2.11,13.1,0,19.44-12.53,23.85-14.64,30.49S73.39,357,62.06,353.33,64.48,328.72,69.76,315Z"/><path class="cls-10" d="M8.17,329.62l25.6-61.46s9.42-3.45,10,7-5.14,18-7.1,24.3-13.13,20.83-14.19,23.25S16.62,332.49,8.17,329.62Z"/><path class="cls-11" d="M8.17,295.51C15,286,23.27,274.22,28.7,270.75s8.3-3.63,9.51-2.12.3,6.8-5,17.37-10,20.53-11.93,28.38-8,17.15-12.23,15.9S-3.42,311.74,8.17,295.51Z"/><path class="cls-4" d="M348.4,50.55s0,2.62,16.29,4c16.71,1.4,29.13-2.11,39.85-13.58s11.33-12.53,11.33-12.53,5.58.3,1.2,6-31.54,42.79-68.83,25C348,56.39,347.46,54.31,348.4,50.55Z"/><path class="cls-4" d="M184.3,248.25s9.71-13.76,21.46-7.94,32.12,18.56,25.62,35.56c0,0,16.22-22.46,20.85-47.81,3.83-21,16.21-22.38,16.21-22.38s4.45-33.59-30.2-42.57c0,0-14.72-9.07-23.35-9.36,0,0-18.64.36-37.79,21.54s-40.17,31-45.17,33c0,0,14-4.17,27.17,4s23,24.75,18.49,33.25l19.67-14.92S190.64,239.58,184.3,248.25Z"/><path class="cls-5" d="M91.67,209.1a11.67,11.67,0,0,0-1.46.69A15,15,0,0,0,91.67,209.1Z"/><path class="cls-12" d="M216.93,213.62s-2.58-27.77-8.25-15.43c-4.55,9.9-30.75,18.44-41.13,20.66,8.31,8,13.5,20.17,10,26.69l19.67-14.92a66.44,66.44,0,0,0-6.6,14.92l.63-.17c2.13-3.83,6.62-8.94,14.47-5.06l1.72.87,0,0Z"/><path class="cls-5" d="M205.83,240.31c11.75,5.81,32.12,18.56,25.62,35.56,0,0,16.22-22.46,20.85-47.81,3.83-21,16.21-22.38,16.21-22.38s4.45-33.59-30.2-42.57C205.12,173.26,205,204.62,204.5,207.6s-5.87,17.17-8.86,22.4c-2.58,4.5-8,13-11.34,18.25C184.3,248.25,194.08,234.49,205.83,240.31Z"/><path class="cls-4" d="M231.45,275.87s14.06-17.3,24-48.45c6.24-19.6,13.08-21.74,13.08-21.74s1.89-14.28-6.4-26.71c-17.83,6.15-15.23,36.45-24.1,54.9a56.92,56.92,0,0,1-14,18.64C230.08,258.27,234.85,267,231.45,275.87Z"/><path class="cls-5" d="M188.81,243.54s9.29-13.74,35.22,9l.38-13.26L211,230.12l-9.5-.12S190,234.43,188.81,243.54Z"/><path class="cls-2" d="M477.13,204.53c-.05-.17-.11-.32-.17-.49l-.54,1.2Z"/></g></svg>