<svg xmlns="http://www.w3.org/2000/svg" xmlns:xlink="http://www.w3.org/1999/xlink" viewBox="0 0 1217.64 586.47"><defs><style>.cls-1{fill:url(#linear-gradient);}.cls-14,.cls-2{fill:#00aeef;}.cls-2{opacity:0.33;}.cls-3{fill:#8c8dc8;}.cls-4{fill:#b0b0e2;}.cls-5{fill:#b2b3e3;}.cls-6{fill:#c48fd5;}.cls-7{fill:#fff;}.cls-8{fill:#f3dcf9;}.cls-9{fill:#dddbfa;}.cls-10{fill:#afb1e2;}.cls-11{fill:#ededed;}.cls-12{fill:#babae4;}.cls-13{fill:#4b3f8e;}.cls-15{fill:#dddcfb;}.cls-16{fill:#01408d;}.cls-17{fill:#166fd8;}.cls-18{fill:#0058c2;}.cls-19{fill:#9a0201;}.cls-20{fill:#fc6868;}.cls-21{fill:#fe2525;}.cls-22{fill:#ebb200;}.cls-23{fill:#d49f02;}.cls-24{fill:#f9d008;}.cls-25{fill:#eee4cb;}.cls-26{fill:#00a0d1;}.cls-27{fill:#00779b;}.cls-28{fill:#fcf7eb;}.cls-29{fill:#e2d8bd;}.cls-30{fill:#d02c5f;}.cls-31{fill:#ac2956;}.cls-32{fill:#ed497c;}.cls-33{fill:#0d85d6;}.cls-34{fill:#df337d;}.cls-35{fill:#ff65a7;}.cls-36{fill:#b1cbda;}.cls-37{fill:#dae7ef;}.cls-38{fill:#f6fbfe;}.cls-39{fill:#67aaf9;}.cls-40{fill:#5771f4;}.cls-41{fill:#3e51b0;}.cls-42{fill:#788dfd;}.cls-43{fill:#3794dc;}</style><linearGradient id="linear-gradient" x1="133.47" y1="394.4" x2="1170.92" y2="-55.52" gradientUnits="userSpaceOnUse"><stop offset="0" stop-color="#68b7c1"/><stop offset="1" stop-color="#7edfb5"/></linearGradient></defs><title>Artboard 121 copy</title><g id="menú_desplegable_de_carrito" data-name="menú desplegable de carrito"><path class="cls-1" d="M67.39,0S21.72,67.16,45.05,132.58s60.67,85.25,161,122.5,189.57,57.61,283,104.64c58.38,29.39,94.83,70.95,119.66,130.16C621,519.16,661.7,547,700.05,547c133.47,0,450.47-157.4,515.47-547Z"/><circle class="cls-2" cx="62.54" cy="159.65" r="59.95"/><circle class="cls-2" cx="799.29" cy="535.46" r="46.25"/><polygon class="cls-3" points="790.31 302.09 808.73 420.9 814.46 426.49 815.37 422.87 801.48 298.47 790.31 302.09"/><path class="cls-4" d="M658.66,511.33l5.94-2.82s2.62-100,3.22-113.32.61-20.76,16.31-30.11,94.55-55.21,100.59-58.76,15.63-7.32,16.61,3.92,13.13,116.25,13.13,116.25l2.52-2.12L803.59,289.86,686.14,358.58l-17.81,9.64-21.8.11,4.59,9.55,4.22,122.58Z"/><path class="cls-3" d="M353.81,317.49,361,313s14.49-86,15.7-89.07,1.33-6.55,5.17-4.36l-14-10.23L352.91,313.77Z"/><path class="cls-5" d="M365.38,206,351.8,315.26l2,2.23s12.08-84.34,13.69-93.2,4-10.06,9.86-7.24,250.21,145.13,259,150.26,11.17,11.47,12.38,28.08,4.83,111.71,4.83,111.71l5.13,4.23V381.2s-1.81-8.15-14.19-13.89S365.38,206,365.38,206Z"/><path class="cls-6" d="M358.47,192.49,365.38,206l239.4,139s42.81,24.9,47,27.11,9.86,2.72,18.82-2.82S803.81,292,803.81,292l2.76-6.8Z"/><path class="cls-7" d="M361.41,196.72c10.92,6.47,268.17,155.19,279.24,161.83s22.74,9.67,36.63,2,127.22-73.42,131.07-76.52,8.6-10.49-2.19-17.21S526,105.84,522,103.57s-16.61-6.87-31.7,1.89S367,176.89,362.17,179.76,351.3,190.72,361.41,196.72Z"/><path class="cls-8" d="M802.61,267.29c-12.76-7.17-270.23-155.87-277.25-160s-19.17-8-32.91,0S367.5,178.9,367.5,178.9c-6.64,3.83-15.7,10.37-1.51,18.32s258.56,149.46,269.32,155.7,24.26,16.1,46.3,2.61S796,288.88,802.61,285,815.37,274.47,802.61,267.29Zm-5.89,16.08c-6.64,3.85-102.28,59.71-120.09,69.6s-24.61,4.83-35-.91-253.78-146.79-269.08-155-2.06-14.49,2.92-17.26c0,0,97.22-54,114.33-65.22s24.06-8.45,31.1-4.53,265,151.5,275.31,157.61S803.37,279.52,796.72,283.37Z"/><polygon class="cls-9" points="536.76 174.19 551.25 165.88 677.91 236.24 659.19 247.56 536.76 174.19"/><polygon class="cls-10" points="585.14 195.63 622.51 217.29 630.13 214.57 588.31 190.49 585.14 195.63"/><polygon class="cls-11" points="585.14 198.34 585.14 195.63 622.51 217.29 622.51 220.23 585.14 198.34"/><polygon class="cls-12" points="630.13 214.57 630.13 217.29 622.51 220.23 622.51 217.29 630.13 214.57"/><path class="cls-11" d="M538.27,154.11v4.68c0,1.81.15,5,5.43,7.85s108.1,62.05,111.57,64.16,6.11,3,7.4,2.16l2-10.61-116-70.66Z"/><path class="cls-7" d="M541.64,54.71l7.05-2.6L666,119.94s3.27,1.91,3.27,4.63L660,127.79Z"/><polygon class="cls-10" points="662.67 232.97 669.31 228.69 669.31 124.57 660 127.79 662.67 232.97"/><path class="cls-13" d="M538.27,154.11l124.39,71.71V132.07c0-4.23.31-7.55-6.94-11.78S546.57,57.49,543.4,55.38s-5.13.9-5.13,7.4Z"/><polygon class="cls-14" points="543.85 151.69 543.85 62.37 656.58 126.99 656.58 216.16 543.85 151.69"/><path class="cls-9" d="M496.06,210.91v2.46a1.7,1.7,0,0,0,.87,1.61s93.69,55.6,97,57.18,7.67,1.51,12.13-1.47,32.53-19.78,32.53-19.78.66-.78.67-3.54Z"/><path class="cls-10" d="M496.06,209.58v2.47a1.68,1.68,0,0,0,.87,1.6s93.69,55.6,97,57.18,7.67,1.52,12.13-1.47,32.53-19.77,32.53-19.77.66-.79.67-3.55Z"/><path class="cls-11" d="M496.74,210.49c-1.29-1-.64-2.22,1.09-3.27s32.71-19.57,34.68-20.55,3.52-1.28,5.65,0,97.59,55.87,99.4,56.91,3.22,2.77-1.71,5.37-30,17.4-32.67,19-5.18,2.52-11.41-1.2S496.74,210.49,496.74,210.49Z"/><polygon class="cls-10" points="531.97 223.23 527.35 226.06 560.65 245.32 565.31 242.47 531.97 223.23"/><polygon class="cls-10" points="577.42 249.46 572.75 252.32 577.21 254.9 581.89 252.04 577.42 249.46"/><polygon class="cls-10" points="523.81 218.52 519.19 221.34 524.69 224.52 529.31 221.69 523.81 218.52"/><polygon class="cls-10" points="567.97 244.01 563.31 246.86 570.09 250.78 574.76 247.93 567.97 244.01"/><polygon class="cls-10" points="503.21 206.64 498.62 209.45 502.63 211.77 507.23 208.96 503.21 206.64"/><polygon class="cls-10" points="516.5 214.31 511.9 217.13 516.53 219.81 521.14 216.99 516.5 214.31"/><polygon class="cls-10" points="509.89 210.49 505.29 213.31 509.24 215.59 513.84 212.77 509.89 210.49"/><polygon class="cls-10" points="595.76 263.43 593.91 264.56 598.63 267.29 600.49 266.16 595.76 263.43"/><polygon class="cls-10" points="589.33 259.72 587.49 260.85 591.25 263.02 593.1 261.9 589.33 259.72"/><polygon class="cls-10" points="581.7 255.32 579.87 256.44 584.83 259.31 586.67 258.19 581.7 255.32"/><polygon class="cls-10" points="580.43 242.46 575.86 239.81 571.2 242.66 575.77 245.31 580.43 242.46"/><polygon class="cls-10" points="559.25 230.19 554.78 227.61 550.14 230.45 554.61 233.04 559.25 230.19"/><polygon class="cls-10" points="526.27 216.59 530.88 213.77 525.58 210.71 520.98 213.53 526.27 216.59"/><polygon class="cls-10" points="538.16 217.99 533.54 215.31 528.92 218.14 533.54 220.81 538.16 217.99"/><polygon class="cls-10" points="573.2 238.27 568.87 235.76 564.21 238.61 568.54 241.12 573.2 238.27"/><polygon class="cls-10" points="544.15 221.45 540.82 219.53 536.2 222.36 539.52 224.28 544.15 221.45"/><polygon class="cls-10" points="587.81 246.72 583.09 244 578.42 246.85 583.13 249.59 587.81 246.72"/><polygon class="cls-10" points="552.12 226.07 546.8 222.99 542.18 225.82 547.49 228.91 552.12 226.07"/><polygon class="cls-10" points="595.13 250.96 590.47 248.26 585.78 251.13 590.45 253.83 595.13 250.96"/><polygon class="cls-10" points="597.79 252.5 593.1 255.37 605.94 262.82 610.64 259.94 597.79 252.5"/><polygon class="cls-10" points="522.92 209.17 510.82 201.98 506.23 204.79 518.32 211.99 522.92 209.17"/><polygon class="cls-10" points="566.21 234.22 561.91 231.73 557.26 234.58 561.56 237.07 566.21 234.22"/><polygon class="cls-10" points="555.38 220.15 550.58 217.37 545.96 220.2 550.75 222.99 555.38 220.15"/><polygon class="cls-10" points="590.56 240.51 586.06 237.91 581.39 240.76 585.88 243.37 590.56 240.51"/><polygon class="cls-10" points="547.92 215.83 543.42 213.23 538.8 216.05 543.3 218.66 547.92 215.83"/><polygon class="cls-10" points="569.33 228.22 564.87 225.64 560.23 228.48 564.68 231.07 569.33 228.22"/><polygon class="cls-10" points="532.51 212.4 536.15 214.51 540.76 211.69 537.12 209.58 532.51 212.4"/><polygon class="cls-10" points="583.4 236.37 579.19 233.93 574.53 236.78 578.74 239.22 583.4 236.37"/><polygon class="cls-10" points="562.21 224.1 558.04 221.69 553.41 224.53 557.57 226.94 562.21 224.1"/><polygon class="cls-10" points="593.22 242.05 588.54 244.91 592.78 247.37 597.46 244.5 593.22 242.05"/><polygon class="cls-10" points="576.53 232.39 571.99 229.76 567.34 232.61 571.88 235.24 576.53 232.39"/><polygon class="cls-10" points="526.96 203.7 517.27 198.04 512.68 200.84 522.36 206.51 526.96 203.7"/><polygon class="cls-10" points="607.88 250.53 603.18 253.41 612.5 258.81 617.2 255.93 607.88 250.53"/><polygon class="cls-10" points="605.22 248.99 600.12 246.04 595.43 248.91 600.53 251.87 605.22 248.99"/><polygon class="cls-10" points="525.01 208.05 529.85 210.86 534.46 208.04 529.61 205.24 525.01 208.05"/><polygon class="cls-10" points="589.04 231.67 584.39 228.98 579.74 231.83 584.38 234.53 589.04 231.67"/><polygon class="cls-10" points="596.5 235.99 591.7 233.21 587.04 236.07 591.83 238.85 596.5 235.99"/><polygon class="cls-10" points="537.58 207.37 541.92 209.89 546.54 207.07 542.19 204.55 537.58 207.37"/><polygon class="cls-10" points="602.98 239.74 599.15 237.53 594.48 240.39 598.3 242.6 602.98 239.74"/><polygon class="cls-10" points="572.41 227.58 577.08 230.29 581.73 227.44 577.05 224.74 572.41 227.58"/><polygon class="cls-10" points="544.58 211.44 548.65 213.8 553.27 210.97 549.2 208.61 544.58 211.44"/><polygon class="cls-10" points="558.42 219.47 562.87 222.05 567.51 219.21 563.05 216.63 558.42 219.47"/><polygon class="cls-10" points="551.31 215.38 555.79 217.93 560.39 215.05 555.91 212.51 551.31 215.38"/><polygon class="cls-10" points="534.92 205.83 539.53 203.01 534.94 200.36 530.34 203.17 534.92 205.83"/><polygon class="cls-10" points="532.28 198.82 524 193.91 519.41 196.72 527.68 201.63 532.28 198.82"/><polygon class="cls-10" points="619.67 249.4 614.97 252.28 619.18 254.72 623.88 251.84 619.67 249.4"/><polygon class="cls-10" points="617.01 247.86 612.96 245.52 608.27 248.39 612.32 250.74 617.01 247.86"/><polygon class="cls-10" points="565.53 223.59 569.75 226.04 574.4 223.2 570.17 220.75 565.53 223.59"/><polygon class="cls-10" points="610.3 243.98 605.63 241.28 600.95 244.14 605.62 246.85 610.3 243.98"/><polygon class="cls-10" points="568.97 217.63 573.68 220.36 578.33 217.52 573.61 214.79 568.97 217.63"/><polygon class="cls-10" points="561.62 213.36 566.32 216.09 570.95 213.25 566.24 210.53 561.62 213.36"/><polygon class="cls-10" points="583.55 226.09 587.47 228.36 592.13 225.51 588.21 223.24 583.55 226.09"/><polygon class="cls-10" points="597.44 234.15 601.5 236.5 606.13 233.67 606.37 233.75 602.11 231.29 597.44 234.15"/><polygon class="cls-10" points="576.34 221.9 580.9 224.55 585.55 221.7 580.98 219.06 576.34 221.9"/><polygon class="cls-10" points="555 209.52 558.96 211.82 563.58 208.99 559.62 206.69 555 209.52"/><polygon class="cls-10" points="533.33 196.95 538.34 199.86 542.94 197.04 537.92 194.13 533.33 196.95"/><polygon class="cls-10" points="535.26 192.6 530.57 189.89 525.99 192.7 530.67 195.41 535.26 192.6"/><polygon class="cls-10" points="541 201.4 545.38 203.94 549.99 201.12 545.6 198.58 541 201.4"/><polygon class="cls-10" points="548.04 205.48 552.34 207.98 556.96 205.16 552.65 202.66 548.04 205.48"/><polygon class="cls-10" points="590.13 229.9 594.79 232.61 599.46 229.75 594.79 227.05 590.13 229.9"/><polygon class="cls-10" points="608.23 240.41 612.91 237.54 608.84 235.18 604.16 238.04 608.23 240.41"/><polygon class="cls-10" points="623.35 243.58 618.65 246.45 625.86 250.63 630.56 247.75 623.35 243.58"/><polygon class="cls-10" points="615.57 239.08 610.88 241.94 616 244.91 620.69 242.04 615.57 239.08"/><polygon class="cls-10" points="591.91 219.86 586.77 216.88 584.29 218.4 589.43 221.38 591.91 219.86"/><polygon class="cls-10" points="547.5 194.16 542.77 191.42 540.35 192.9 545.07 195.64 547.5 194.16"/><polygon class="cls-10" points="599.25 224.11 594.57 221.4 592.09 222.92 596.76 225.63 599.25 224.11"/><polygon class="cls-10" points="613.77 232.51 609.52 230.05 607.02 231.58 611.27 234.05 613.77 232.51"/><polygon class="cls-10" points="606.86 228.51 601.9 225.65 599.41 227.17 604.36 230.04 606.86 228.51"/><polygon class="cls-10" points="584.11 215.35 580.01 212.98 577.55 214.49 581.64 216.86 584.11 215.35"/><polygon class="cls-10" points="569.71 207.01 565.72 204.7 563.26 206.2 567.26 208.51 569.71 207.01"/><polygon class="cls-10" points="577.36 211.44 572.37 208.55 569.91 210.06 574.89 212.94 577.36 211.44"/><polygon class="cls-10" points="563.06 203.16 557.42 199.9 554.98 201.39 560.61 204.66 563.06 203.16"/><polygon class="cls-10" points="554.76 198.36 550.16 195.69 547.73 197.18 552.32 199.85 554.76 198.36"/><polygon class="cls-10" points="621.38 236.92 616.43 234.05 613.92 235.59 618.86 238.46 621.38 236.92"/><polygon class="cls-10" points="540.11 189.88 535.24 187.03 532.82 188.51 537.69 191.36 540.11 189.88"/><polygon class="cls-10" points="628.79 241.2 624.04 238.46 621.52 240 626.26 242.75 628.79 241.2"/><polygon class="cls-10" points="631.45 242.74 628.92 244.29 632.66 246.46 635.2 244.91 631.45 242.74"/><polygon class="cls-10" points="592.18 257.98 590.71 258.84 594.47 261.01 595.95 260.15 592.18 257.98"/><path class="cls-15" d="M710.43,261.37S692.31,271.79,689,273.53s-2.11,3.85.91,5.81,33.66,19.63,37.74,22,8.45,2.87,16.76-1.51,29.83-17.67,33.51-20.15,9.51-6.65,0-10.12-19.78-7.32-19.78-7.32Z"/><path class="cls-16" d="M705.35,253.37v16c0,2.31,3.48,17.61,29.32,17.61s29.55-13.89,29.55-16.1V251.56Z"/><path class="cls-17" d="M682.5,238.08v4.32a5.81,5.81,0,0,0,2.82,3.12c2.31,1.31,40.26,23.76,43.38,25S737,272.9,743.29,269s41.47-24.76,41.47-24.76,2.06-1,2.08-2.71,0-3.42,0-3.42Z"/><path class="cls-18" d="M686.53,233.85c-3.53,2-5.84,4.43-2.22,6.54s40.16,23.45,43.88,25.56a14.36,14.36,0,0,0,13,0c3.52-2,41.56-24.45,44.18-26.06s1.71-3.32-2.22-5.34-43.47-25.06-46.09-26.47-5.54-.3-9.76,1.92S686.53,233.85,686.53,233.85Z"/><path class="cls-19" d="M773.31,265.38s-.76,10.79-3.25,14.26a10,10,0,0,0,12.3-.15s-3.25-8.78-3.24-14.11Z"/><ellipse class="cls-20" cx="776.18" cy="263.68" rx="5.21" ry="4.42"/><path class="cls-21" d="M735.64,235.56s32.91,7.45,37.14,8.35,5.13,2.92,5.13,5.69v11.62c0,1-.15,2.67-1.86,2.67s-2.11-1.61-2.11-3.27.15-9.36.15-10.37-.2-2.36-1.56-2.66-37.14-8.56-38.4-8.91a1.45,1.45,0,0,1-1.21-1.91C733.12,236.06,733.53,235.08,735.64,235.56Z"/><polygon class="cls-22" points="410.18 143.64 474.64 181.08 474.64 194.52 410.18 157.23 410.18 143.64"/><polygon class="cls-23" points="476.8 190.44 476.8 182.29 519.18 156.87 519.18 154.31 474.64 181.08 474.64 194.52 519.18 168.2 519.18 165 476.8 190.44"/><polygon class="cls-24" points="519.18 154.31 456.68 121.75 410.18 143.64 474.64 181.08 519.18 154.31"/><polygon class="cls-23" points="413.85 141.91 477.73 179.23 479.71 178.04 416.04 140.88 413.85 141.91"/><polygon class="cls-24" points="516.61 164.17 476.8 187.35 476.8 190.44 519.18 165 516.61 164.17"/><polygon class="cls-25" points="516.61 164.17 516.61 158.41 476.8 182.29 476.8 187.35 516.61 164.17"/><polygon class="cls-26" points="412.79 137.46 477 174.4 477 177.82 412.79 140.98 412.79 137.46"/><polygon class="cls-27" points="522.7 137.46 522.7 151.55 477 177.82 477 174.4 519.88 149.54 519.88 141.49 477 166.55 477 163.43 522.7 137.46"/><polygon class="cls-26" points="477 166.55 412.79 129.44 412.79 125.96 477 163.43 477 166.55"/><polygon class="cls-14" points="412.79 125.96 454.46 103.95 522.7 137.46 477 163.43 412.79 125.96"/><polygon class="cls-14" points="412.79 137.46 415.19 136.63 477 171.98 518.37 148.46 518.37 142.37 519.88 141.49 519.88 149.54 477 174.4 412.79 137.46"/><polygon class="cls-28" points="415.19 136.63 415.19 130.82 477 166.55 477 171.98 415.19 136.63"/><polygon class="cls-29" points="518.37 142.37 518.37 148.46 477 171.98 477 166.55 518.37 142.37"/><polygon class="cls-27" points="448.79 106.94 516.68 140.89 518.71 139.73 450.88 105.84 448.79 106.94"/><polygon class="cls-30" points="411.84 109.18 476.3 146.62 476.3 160.06 411.84 122.77 411.84 109.18"/><polygon class="cls-31" points="478.46 155.98 478.46 147.83 520.84 122.4 520.84 119.85 476.3 146.62 476.3 160.06 520.84 133.74 520.84 130.54 478.46 155.98"/><polygon class="cls-32" points="520.84 119.85 461.05 86.01 411.84 109.18 476.3 146.62 520.84 119.85"/><polygon class="cls-30" points="415.51 107.45 479.38 144.76 481.37 143.57 417.7 106.42 415.51 107.45"/><polygon class="cls-32" points="518.27 129.71 478.46 152.88 478.46 155.98 520.84 130.54 518.27 129.71"/><polygon class="cls-25" points="518.27 129.71 518.27 123.94 478.46 147.83 478.46 152.88 518.27 129.71"/><ellipse class="cls-33" cx="603.14" cy="137.13" rx="22.49" ry="39.21" transform="translate(54.04 421.86) rotate(-40.22)"/><path class="cls-34" d="M615.12,125.27c-12.74-15.06-30.07-21.35-38.71-14a12.85,12.85,0,0,0-1.33,1.33l-6.55,6.54,8.12,27.27,6.74,4.84.44.53c6.87,8.12,15.07,13.69,22.53,16l8.3,6,7.88-7.87C631.18,158.47,627.86,140.33,615.12,125.27Z"/><ellipse class="cls-35" cx="591.59" cy="146.36" rx="20.49" ry="35.72" transform="translate(45.35 416.58) rotate(-40.22)"/><polygon class="cls-7" points="581.26 123.55 581.26 160.68 610.39 158.27 581.26 123.55"/><g id="_Group_" data-name="&lt;Group&gt;"><path class="cls-36" d="M658.84,300.43a10.24,10.24,0,0,1,1.37-.46,9.66,9.66,0,0,0,.12-1.51h0c3.26.59,1.4,2.61-.85,3.71A1.57,1.57,0,0,0,658.84,300.43Z"/><path class="cls-15" d="M643.3,314.56c-6.73.35-11.77-.61-15.19-3.88a5.81,5.81,0,0,1-1.16-6.82,5.38,5.38,0,0,0,1.77,3.35c4.42,4.53,10.56,7.09,16.67,2.93s9.54-6.77,12.2-7.29a8,8,0,0,0,1.91-.68C658.8,306.22,648.49,314.29,643.3,314.56Z"/><path class="cls-37" d="M660.18,295.91a13.22,13.22,0,0,1,.15,2.55,53.07,53.07,0,0,0-6.06-.71A21,21,0,0,1,660.18,295.91Z"/><path class="cls-36" d="M628.72,307.21a5.38,5.38,0,0,1-1.77-3.35,4.59,4.59,0,0,1,1.38-3.52,12.69,12.69,0,0,0-.22,1.89s0,2.62,3.72,5.13a13.29,13.29,0,0,0,14,0,65.84,65.84,0,0,1,10.66-6c1-.41,1.75-.7,2.3-.89a1.57,1.57,0,0,1,.66,1.74,8,8,0,0,1-1.91.68c-2.66.52-6.09,3.11-12.2,7.29S633.14,311.74,628.72,307.21Z"/><path class="cls-36" d="M652.18,288.88c4.14-.9,6.15,3.14,6.15,3.14-3.66-1.67-10.76,1.87-12.31,1.28C644.85,292.84,648,289.79,652.18,288.88Z"/><path class="cls-37" d="M658.84,300.43c-.55.19-1.3.48-2.3.89a65.84,65.84,0,0,0-10.66,6,13.29,13.29,0,0,1-14,0c-3.72-2.51-3.72-5.13-3.72-5.13a12.69,12.69,0,0,1,.22-1.89,11.89,11.89,0,0,1,1.17-3.4,28.82,28.82,0,0,0,7.51,5.19c4,1.61,6.2.21,10.07-1.16,1.85-.65,4.5-2.05,7.19-3.22a53.07,53.07,0,0,1,6.06.71,9.66,9.66,0,0,1-.12,1.51A10.24,10.24,0,0,0,658.84,300.43Z"/><path class="cls-38" d="M658.33,292s-2-4-6.15-3.14-7.33,4-6.16,4.42C647.57,293.89,654.67,290.35,658.33,292Zm-6.52-3.88c6,.68,7.86,4.62,8.37,7.77a21,21,0,0,0-5.91,1.84c-2.69,1.17-5.34,2.57-7.19,3.22-3.87,1.37-6,2.77-10.07,1.16a28.82,28.82,0,0,1-7.51-5.19C633.18,289.92,643.4,287.19,651.81,288.14Z"/></g><polygon class="cls-3" points="791.63 302.16 810.13 421.56 815.9 427.17 816.81 423.53 802.85 298.52 791.63 302.16"/><path class="cls-4" d="M659.33,512.43l6-2.83s2.63-100.53,3.24-113.88.6-20.87,16.38-30.26,95-55.49,101.09-59,15.7-7.36,16.69,3.94,13.2,116.82,13.2,116.82l2.53-2.12L805,289.87l-118,69.05L669,368.61l-21.91.12,4.62,9.59L656,501.51Z"/><path class="cls-3" d="M353,317.64l7.18-4.56s14.57-86.47,15.78-89.51,1.34-6.58,5.19-4.38l-14.07-10.28-15,105Z"/><path class="cls-5" d="M364.6,205.57,351,315.39l2,2.25s12.14-84.76,13.76-93.66,4-10.12,9.91-7.28,251.44,145.84,260.24,151,11.23,11.53,12.44,28.22,4.85,112.27,4.85,112.27l5.16,4.24V381.66s-1.82-8.19-14.26-14S364.6,205.57,364.6,205.57Z"/><path class="cls-6" d="M357.66,192l6.94,13.55L605.18,345.22s43,25,47.27,27.23,9.92,2.74,18.92-2.83S805.19,292,805.19,292l2.78-6.83Z"/><path class="cls-7" d="M360.61,196.27c11,6.5,269.49,156,280.62,162.63s22.86,9.71,36.81,2S805.89,287.14,809.75,284s8.65-10.54-2.19-17.29S526,104.93,522,102.66s-16.69-6.9-31.86,1.9-123.95,71.78-128.8,74.66S350.45,190.24,360.61,196.27Z"/><path class="cls-8" d="M804,267.19C791.17,260,532.42,110.55,525.37,106.38s-19.27-8-33.07,0-125.57,72-125.57,72c-6.68,3.85-15.78,10.42-1.52,18.41S625,347,635.87,353.24s24.37,16.18,46.52,2.63,115-67,121.6-70.85S816.81,274.4,804,267.19Zm-5.92,16.16c-6.67,3.87-102.78,60-120.68,69.94s-24.73,4.85-35.2-.91-255-147.52-270.4-155.76-2.08-14.56,2.93-17.35c0,0,97.7-54.31,114.9-65.54s24.17-8.49,31.25-4.55S787.15,261.43,797.54,267.57,804.75,279.48,798.07,283.35Z"/><polygon class="cls-9" points="536.82 173.63 551.39 165.28 678.67 235.98 659.86 247.36 536.82 173.63"/><polygon class="cls-10" points="585.45 195.17 623 216.94 630.66 214.21 588.63 190.01 585.45 195.17"/><polygon class="cls-11" points="585.45 197.9 585.45 195.17 623 216.94 623 219.9 585.45 197.9"/><polygon class="cls-12" points="630.66 214.21 630.66 216.94 623 219.9 623 216.94 630.66 214.21"/><path class="cls-11" d="M538.34,153.45v4.7c0,1.82.15,5,5.46,7.89s108.63,62.35,112.12,64.48,6.14,3,7.43,2.17l2-10.67L548.81,151Z"/><path class="cls-7" d="M541.73,53.56l7.08-2.62,117.93,68.17S670,121,670,123.76L660.67,127Z"/><polygon class="cls-10" points="663.35 232.69 670.03 228.39 670.03 123.76 660.67 127 663.35 232.69"/><path class="cls-13" d="M538.34,153.45l125,72.06V131.3c0-4.25.31-7.59-7-11.84S546.69,56.35,543.5,54.23s-5.16.91-5.16,7.43Z"/><polygon class="cls-39" points="543.95 151.02 543.95 61.26 657.23 126.19 657.23 215.8 543.95 151.02"/><path class="cls-9" d="M495.93,210.53V213a1.71,1.71,0,0,0,.86,1.61s94.16,55.87,97.47,57.46,7.71,1.52,12.18-1.47,32.7-19.88,32.7-19.88.66-.79.67-3.56Z"/><path class="cls-10" d="M495.93,209.19v2.48a1.7,1.7,0,0,0,.86,1.61s94.16,55.87,97.47,57.47,7.71,1.52,12.18-1.48,32.7-19.87,32.7-19.87.66-.79.67-3.57Z"/><path class="cls-11" d="M496.6,210.11c-1.28-1-.64-2.24,1.1-3.29s32.87-19.67,34.85-20.65,3.54-1.29,5.68,0,98.08,56.15,99.9,57.19,3.23,2.78-1.72,5.4-30.17,17.49-32.83,19.1-5.21,2.53-11.48-1.21S496.6,210.11,496.6,210.11Z"/><polygon class="cls-10" points="532.01 222.91 527.37 225.75 560.83 245.11 565.51 242.25 532.01 222.91"/><polygon class="cls-10" points="577.69 249.27 572.99 252.15 577.48 254.74 582.18 251.86 577.69 249.27"/><polygon class="cls-10" points="523.81 218.18 519.17 221.01 524.69 224.21 529.33 221.37 523.81 218.18"/><polygon class="cls-10" points="568.19 243.79 563.5 246.66 570.32 250.6 575.01 247.73 568.19 243.79"/><polygon class="cls-10" points="503.11 206.24 498.5 209.06 502.53 211.39 507.15 208.56 503.11 206.24"/><polygon class="cls-10" points="516.47 213.94 511.84 216.78 516.5 219.47 521.13 216.63 516.47 213.94"/><polygon class="cls-10" points="509.82 210.11 505.2 212.94 509.17 215.23 513.79 212.4 509.82 210.11"/><polygon class="cls-10" points="596.12 263.31 594.26 264.45 599 267.19 600.87 266.05 596.12 263.31"/><polygon class="cls-10" points="589.66 259.58 587.81 260.71 591.59 262.9 593.44 261.77 589.66 259.58"/><polygon class="cls-10" points="581.99 255.16 580.15 256.29 585.13 259.17 586.98 258.04 581.99 255.16"/><polygon class="cls-10" points="580.72 242.23 576.12 239.57 571.43 242.44 576.02 245.1 580.72 242.23"/><polygon class="cls-10" points="559.43 229.91 554.94 227.31 550.27 230.16 554.76 232.76 559.43 229.91"/><polygon class="cls-10" points="526.28 216.24 530.91 213.41 525.59 210.33 520.97 213.16 526.28 216.24"/><polygon class="cls-10" points="538.23 217.64 533.59 214.95 528.95 217.79 533.59 220.48 538.23 217.64"/><polygon class="cls-10" points="573.45 238.03 569.09 235.5 564.41 238.37 568.77 240.89 573.45 238.03"/><polygon class="cls-10" points="544.25 221.12 540.9 219.19 536.26 222.03 539.6 223.97 544.25 221.12"/><polygon class="cls-10" points="588.12 246.52 583.39 243.78 578.69 246.65 583.42 249.4 588.12 246.52"/><polygon class="cls-10" points="552.26 225.76 546.92 222.67 542.27 225.52 547.61 228.62 552.26 225.76"/><polygon class="cls-10" points="595.49 250.78 590.8 248.06 586.09 250.94 590.78 253.66 595.49 250.78"/><polygon class="cls-10" points="598.16 252.33 593.45 255.21 606.35 262.7 611.08 259.8 598.16 252.33"/><polygon class="cls-10" points="522.92 208.78 510.76 201.55 506.14 204.38 518.3 211.61 522.92 208.78"/><polygon class="cls-10" points="566.42 233.96 562.1 231.46 557.43 234.31 561.75 236.82 566.42 233.96"/><polygon class="cls-10" points="555.54 219.82 550.71 217.02 546.07 219.87 550.89 222.66 555.54 219.82"/><polygon class="cls-10" points="590.89 240.28 586.37 237.66 581.68 240.53 586.19 243.15 590.89 240.28"/><polygon class="cls-10" points="548.04 215.48 543.52 212.86 538.88 215.7 543.4 218.32 548.04 215.48"/><polygon class="cls-10" points="569.56 227.93 565.07 225.33 560.41 228.19 564.89 230.79 569.56 227.93"/><polygon class="cls-10" points="532.55 212.03 536.21 214.15 540.85 211.31 537.18 209.19 532.55 212.03"/><polygon class="cls-10" points="583.69 236.11 579.47 233.66 574.79 236.53 579.01 238.98 583.69 236.11"/><polygon class="cls-10" points="562.4 223.79 558.21 221.36 553.56 224.21 557.74 226.64 562.4 223.79"/><polygon class="cls-10" points="593.56 241.82 588.86 244.7 593.12 247.17 597.82 244.29 593.56 241.82"/><polygon class="cls-10" points="576.8 232.12 572.23 229.47 567.56 232.34 572.12 234.98 576.8 232.12"/><polygon class="cls-10" points="526.97 203.28 517.24 197.59 512.62 200.41 522.35 206.11 526.97 203.28"/><polygon class="cls-10" points="608.29 250.35 603.58 253.23 612.93 258.66 617.66 255.77 608.29 250.35"/><polygon class="cls-10" points="605.62 248.8 600.49 245.83 595.79 248.72 600.91 251.69 605.62 248.8"/><polygon class="cls-10" points="525.02 207.66 529.88 210.48 534.51 207.65 529.64 204.83 525.02 207.66"/><polygon class="cls-10" points="589.37 231.39 584.69 228.69 580.01 231.55 584.68 234.26 589.37 231.39"/><polygon class="cls-10" points="596.86 235.73 592.04 232.94 587.35 235.81 592.16 238.6 596.86 235.73"/><polygon class="cls-10" points="537.65 206.97 542.02 209.51 546.65 206.67 542.28 204.14 537.65 206.97"/><polygon class="cls-10" points="603.37 239.5 599.53 237.28 594.83 240.15 598.67 242.38 603.37 239.5"/><polygon class="cls-10" points="572.65 227.28 577.34 230 582.02 227.14 577.32 224.42 572.65 227.28"/><polygon class="cls-10" points="544.68 211.06 548.78 213.43 553.42 210.59 549.32 208.22 544.68 211.06"/><polygon class="cls-10" points="558.6 219.13 563.06 221.72 567.72 218.87 563.25 216.28 558.6 219.13"/><polygon class="cls-10" points="551.45 215.02 555.95 217.58 560.58 214.69 556.07 212.14 551.45 215.02"/><polygon class="cls-10" points="534.98 205.43 539.61 202.59 534.99 199.92 530.37 202.75 534.98 205.43"/><polygon class="cls-10" points="532.32 198.38 524.01 193.45 519.39 196.27 527.7 201.2 532.32 198.38"/><polygon class="cls-10" points="620.15 249.21 615.43 252.1 619.65 254.55 624.38 251.66 620.15 249.21"/><polygon class="cls-10" points="617.48 247.66 613.4 245.31 608.69 248.19 612.76 250.55 617.48 247.66"/><polygon class="cls-10" points="565.73 223.27 569.98 225.73 574.65 222.88 570.4 220.41 565.73 223.27"/><polygon class="cls-10" points="610.73 243.76 606.04 241.04 601.34 243.93 606.02 246.64 610.73 243.76"/><polygon class="cls-10" points="569.2 217.28 573.93 220.03 578.6 217.17 573.85 214.43 569.2 217.28"/><polygon class="cls-10" points="561.8 212.99 566.53 215.73 571.18 212.88 566.45 210.15 561.8 212.99"/><polygon class="cls-10" points="583.85 225.78 587.79 228.07 592.47 225.2 588.52 222.92 583.85 225.78"/><polygon class="cls-10" points="597.81 233.88 601.89 236.25 606.53 233.41 606.78 233.49 602.5 231.01 597.81 233.88"/><polygon class="cls-10" points="576.6 221.58 581.18 224.23 585.85 221.37 581.27 218.72 576.6 221.58"/><polygon class="cls-10" points="555.15 209.13 559.13 211.44 563.78 208.6 559.8 206.29 555.15 209.13"/><polygon class="cls-10" points="533.37 196.5 538.42 199.42 543.04 196.59 537.99 193.67 533.37 196.5"/><polygon class="cls-10" points="535.32 192.12 530.61 189.41 526 192.23 530.71 194.95 535.32 192.12"/><polygon class="cls-10" points="541.09 200.97 545.49 203.53 550.12 200.69 545.71 198.14 541.09 200.97"/><polygon class="cls-10" points="548.16 205.07 552.49 207.59 557.12 204.75 552.79 202.24 548.16 205.07"/><polygon class="cls-10" points="590.46 229.62 595.14 232.33 599.83 229.46 595.14 226.75 590.46 229.62"/><polygon class="cls-10" points="608.65 240.17 613.35 237.29 609.26 234.92 604.56 237.8 608.65 240.17"/><polygon class="cls-10" points="623.84 243.36 619.12 246.25 626.36 250.45 631.09 247.55 623.84 243.36"/><polygon class="cls-10" points="616.02 238.84 611.32 241.72 616.45 244.7 621.17 241.81 616.02 238.84"/><polygon class="cls-10" points="592.25 219.53 587.08 216.53 584.6 218.06 589.76 221.05 592.25 219.53"/><polygon class="cls-10" points="547.62 193.69 542.86 190.94 540.43 192.43 545.18 195.19 547.62 193.69"/><polygon class="cls-10" points="599.62 223.79 594.92 221.07 592.43 222.6 597.12 225.32 599.62 223.79"/><polygon class="cls-10" points="614.22 232.24 609.94 229.76 607.43 231.3 611.7 233.78 614.22 232.24"/><polygon class="cls-10" points="607.27 228.22 602.29 225.34 599.79 226.87 604.76 229.75 607.27 228.22"/><polygon class="cls-10" points="584.41 214.99 580.29 212.6 577.82 214.12 581.93 216.51 584.41 214.99"/><polygon class="cls-10" points="569.94 206.61 565.92 204.29 563.46 205.79 567.47 208.12 569.94 206.61"/><polygon class="cls-10" points="577.62 211.06 572.61 208.16 570.14 209.67 575.15 212.57 577.62 211.06"/><polygon class="cls-10" points="563.25 202.74 557.59 199.46 555.13 200.96 560.79 204.25 563.25 202.74"/><polygon class="cls-10" points="554.91 197.91 550.29 195.24 547.85 196.73 552.47 199.41 554.91 197.91"/><polygon class="cls-10" points="621.86 236.66 616.89 233.79 614.37 235.33 619.34 238.21 621.86 236.66"/><polygon class="cls-10" points="540.19 189.39 535.3 186.53 532.87 188.02 537.76 190.88 540.19 189.39"/><polygon class="cls-10" points="629.31 240.97 624.53 238.21 622 239.76 626.77 242.53 629.31 240.97"/><polygon class="cls-10" points="631.98 242.52 629.44 244.07 633.2 246.26 635.75 244.7 631.98 242.52"/><polygon class="cls-10" points="592.52 257.83 591.04 258.69 594.82 260.88 596.3 260.01 592.52 257.83"/><path class="cls-15" d="M711.35,261.24s-18.2,10.47-21.54,12.22-2.12,3.86.91,5.84,33.83,19.72,37.93,22.15,8.49,2.88,16.84-1.52,30-17.76,33.68-20.25,9.56-6.68,0-10.17-19.88-7.36-19.88-7.36Z"/><path class="cls-16" d="M706.25,253.2v16.08c0,2.33,3.5,17.7,29.46,17.7s29.7-14,29.7-16.18V251.38Z"/><path class="cls-17" d="M683.28,237.83v4.35a5.85,5.85,0,0,0,2.84,3.13c2.32,1.32,40.45,23.87,43.59,25.09s8.29,2.42,14.67-1.52S786.05,244,786.05,244s2.07-1,2.1-2.73,0-3.44,0-3.44Z"/><path class="cls-18" d="M687.33,233.58c-3.54,2-5.86,4.45-2.22,6.57s40.35,23.57,44.09,25.69a14.42,14.42,0,0,0,13,0c3.54-2,41.77-24.57,44.4-26.19s1.72-3.34-2.22-5.36-43.7-25.19-46.32-26.6-5.57-.31-9.82,1.92S687.33,233.58,687.33,233.58Z"/><path class="cls-19" d="M774.54,265.26s-.76,10.85-3.26,14.34a10.05,10.05,0,0,0,12.36-.15s-3.26-8.82-3.26-14.19Z"/><ellipse class="cls-20" cx="777.42" cy="263.56" rx="5.23" ry="4.44"/><path class="cls-21" d="M736.69,235.3s33.07,7.48,37.32,8.39,5.16,2.94,5.16,5.72v11.68c0,1-.15,2.68-1.87,2.68s-2.13-1.62-2.13-3.29.16-9.4.16-10.41-.21-2.38-1.57-2.68-37.32-8.6-38.59-9a1.45,1.45,0,0,1-1.21-1.92C734.16,235.81,734.57,234.82,736.69,235.3Z"/><polygon class="cls-22" points="409.62 142.93 474.4 180.55 474.4 194.06 409.62 156.58 409.62 142.93"/><polygon class="cls-23" points="476.57 189.96 476.57 181.77 519.15 156.22 519.15 153.65 474.4 180.55 474.4 194.06 519.15 167.61 519.15 164.39 476.57 189.96"/><polygon class="cls-24" points="519.15 153.65 456.35 120.93 409.62 142.93 474.4 180.55 519.15 153.65"/><polygon class="cls-23" points="413.31 141.19 477.5 178.69 479.49 177.49 415.51 140.16 413.31 141.19"/><polygon class="cls-24" points="516.57 163.56 476.57 186.85 476.57 189.96 519.15 164.39 516.57 163.56"/><polygon class="cls-25" points="516.57 163.56 516.57 157.76 476.57 181.77 476.57 186.85 516.57 163.56"/><polygon class="cls-40" points="412.25 136.72 476.77 173.84 476.77 177.27 412.25 140.26 412.25 136.72"/><polygon class="cls-41" points="522.69 136.72 522.69 150.88 476.77 177.27 476.77 173.84 519.86 148.85 519.86 140.76 476.77 165.95 476.77 162.81 522.69 136.72"/><polygon class="cls-40" points="476.77 165.95 412.25 128.65 412.25 125.16 476.77 162.81 476.77 165.95"/><polygon class="cls-42" points="412.25 125.16 454.12 103.04 522.69 137.12 476.77 162.81 412.25 125.16"/><polygon class="cls-42" points="412.25 136.72 414.66 135.88 476.77 171.41 518.34 147.77 518.34 141.65 519.86 140.76 519.86 148.85 476.77 173.84 412.25 136.72"/><polygon class="cls-28" points="414.66 135.88 414.66 130.04 476.77 165.95 476.77 171.41 414.66 135.88"/><polygon class="cls-29" points="518.34 141.65 518.34 147.77 476.77 171.41 476.77 165.95 518.34 141.65"/><polygon class="cls-30" points="411.29 108.3 476.07 145.92 476.07 159.42 411.29 121.95 411.29 108.3"/><polygon class="cls-31" points="478.24 155.33 478.24 147.13 520.82 121.58 520.82 119.02 476.07 145.92 476.07 159.42 520.82 132.97 520.82 129.76 478.24 155.33"/><polygon class="cls-32" points="520.82 119.02 460.74 85.01 411.29 108.3 476.07 145.92 520.82 119.02"/><polygon class="cls-30" points="414.98 106.56 479.17 144.06 481.16 142.86 417.17 105.52 414.98 106.56"/><polygon class="cls-32" points="518.24 128.93 478.24 152.22 478.24 155.33 520.82 129.76 518.24 128.93"/><polygon class="cls-25" points="518.24 128.93 518.24 123.13 478.24 147.13 478.24 152.22 518.24 128.93"/><ellipse class="cls-43" cx="603.54" cy="136.38" rx="22.6" ry="39.4" transform="translate(54.61 421.93) rotate(-40.22)"/><path class="cls-34" d="M615.57,124.47c-12.8-15.14-30.22-21.46-38.9-14.12a12.85,12.85,0,0,0-1.33,1.33l-6.59,6.57,8.16,27.41,6.78,4.86c.15.18.29.36.44.53,6.9,8.17,15.14,13.76,22.64,16l8.34,6,7.91-7.9C631.71,157.83,628.37,139.6,615.57,124.47Z"/><ellipse class="cls-35" cx="591.93" cy="145.66" rx="20.59" ry="35.89" transform="translate(45.88 416.63) rotate(-40.22)"/><polygon class="cls-7" points="581.54 122.73 581.54 160.05 610.82 157.63 581.54 122.73"/><g id="_Group_2" data-name="&lt;Group&gt;"><path class="cls-36" d="M659.5,300.49a10.17,10.17,0,0,1,1.39-.46,9.9,9.9,0,0,0,.12-1.52h0c3.28.59,1.41,2.62-.85,3.73A1.56,1.56,0,0,0,659.5,300.49Z"/><path class="cls-15" d="M643.9,314.69c-6.78.35-11.84-.61-15.27-3.9a5.83,5.83,0,0,1-1.17-6.85,5.5,5.5,0,0,0,1.77,3.37c4.45,4.55,10.62,7.12,16.77,2.94s9.58-6.8,12.25-7.32a8,8,0,0,0,1.92-.69C659.47,306.31,649.1,314.42,643.9,314.69Z"/><path class="cls-37" d="M660.85,296a13.41,13.41,0,0,1,.16,2.56,56.73,56.73,0,0,0-6.09-.72A21.53,21.53,0,0,1,660.85,296Z"/><path class="cls-36" d="M629.23,307.31a5.5,5.5,0,0,1-1.77-3.37,4.62,4.62,0,0,1,1.39-3.54,10.62,10.62,0,0,0-.22,1.9s0,2.63,3.74,5.15a13.34,13.34,0,0,0,14.11,0,66,66,0,0,1,10.72-6.06c1-.42,1.76-.71,2.3-.9a1.56,1.56,0,0,1,.67,1.75,8,8,0,0,1-1.92.69c-2.67.52-6.11,3.12-12.25,7.32S633.68,311.86,629.23,307.31Z"/><path class="cls-36" d="M652.82,288.89C657,288,659,292,659,292c-3.67-1.67-10.81,1.88-12.36,1.29C645.45,292.87,648.64,289.8,652.82,288.89Z"/><path class="cls-37" d="M659.5,300.49c-.54.19-1.29.48-2.3.9a66,66,0,0,0-10.72,6.06,13.34,13.34,0,0,1-14.11,0c-3.74-2.52-3.74-5.15-3.74-5.15a10.62,10.62,0,0,1,.22-1.9A11.72,11.72,0,0,1,630,297c1.56,1.42,4.66,4.07,7.55,5.22,4.06,1.61,6.23.21,10.12-1.17,1.86-.65,4.52-2.06,7.23-3.24a56.73,56.73,0,0,1,6.09.72,9.9,9.9,0,0,1-.12,1.52A10.17,10.17,0,0,0,659.5,300.49Z"/><path class="cls-38" d="M659,292s-2-4.07-6.17-3.15-7.37,4-6.19,4.44C648.18,293.92,655.32,290.37,659,292Zm-6.55-3.9c6,.68,7.9,4.64,8.41,7.81a21.53,21.53,0,0,0-5.93,1.84c-2.71,1.18-5.37,2.59-7.23,3.24-3.89,1.38-6.06,2.78-10.12,1.17-2.89-1.15-6-3.8-7.55-5.22C633.73,289.93,644,287.19,652.44,288.14Z"/></g></g></svg>