<svg xmlns="http://www.w3.org/2000/svg" viewBox="0 0 467.43 461.25"><defs><style>.cls-1{fill:#8c8dc8;}.cls-2{fill:#b0b0e2;}.cls-3{fill:#b2b3e3;}.cls-4{fill:#c48fd5;}.cls-5{fill:#fff;}.cls-6{fill:#f3dcf9;}.cls-7{fill:#dddbfa;}.cls-8{fill:#afb1e2;}.cls-9{fill:#ededed;}.cls-10{fill:#babae4;}.cls-11{fill:#4b3f8e;}.cls-12{fill:#00aeef;}.cls-13{fill:#dddcfb;}.cls-14{fill:#01408d;}.cls-15{fill:#166fd8;}.cls-16{fill:#0058c2;}.cls-17{fill:#9a0201;}.cls-18{fill:#fc6868;}.cls-19{fill:#fe2525;}.cls-20{fill:#ebb200;}.cls-21{fill:#d49f02;}.cls-22{fill:#f9d008;}.cls-23{fill:#eee4cb;}.cls-24{fill:#00a0d1;}.cls-25{fill:#00779b;}.cls-26{fill:#fcf7eb;}.cls-27{fill:#e2d8bd;}.cls-28{fill:#d02c5f;}.cls-29{fill:#ac2956;}.cls-30{fill:#ed497c;}.cls-31{fill:#0d85d6;}.cls-32{fill:#df337d;}.cls-33{fill:#ff65a7;}.cls-34{fill:#b1cbda;}.cls-35{fill:#dae7ef;}.cls-36{fill:#f6fbfe;}</style></defs><title>Artboard 121</title><g id="menú_desplegable_de_carrito" data-name="menú desplegable de carrito"><polygon class="cls-1" points="439.33 251.15 457.75 369.96 463.49 375.55 464.39 371.93 450.5 247.53 439.33 251.15"/><path class="cls-2" d="M307.69,460.39l5.94-2.82s2.61-100,3.22-113.32.6-20.76,16.3-30.11,94.56-55.21,100.6-58.76,15.62-7.32,16.6,3.92,13.14,116.25,13.14,116.25l2.51-2.12L452.62,238.92,335.17,307.64l-17.82,9.63-21.8.12,4.59,9.55,4.23,122.58Z"/><path class="cls-1" d="M2.84,266.55,10,262s14.5-86,15.7-89.07,1.33-6.55,5.17-4.36l-14-10.23L1.93,262.83Z"/><path class="cls-3" d="M14.4,155,.83,264.32l2,2.23s12.08-84.34,13.69-93.2,4-10.06,9.86-7.24,250.2,145.13,259,150.26,11.17,11.47,12.38,28.08,4.83,111.71,4.83,111.71l5.13,4.23V330.26s-1.81-8.15-14.19-13.89S14.4,155,14.4,155Z"/><path class="cls-4" d="M7.5,141.55,14.4,155,253.81,294s42.81,24.9,47,27.11,9.86,2.72,18.82-2.82,133.16-77.2,133.16-77.2l2.77-6.8Z"/><path class="cls-5" d="M10.44,145.78C21.35,152.25,278.6,301,289.67,307.61s22.75,9.66,36.64,2,127.21-73.42,131.06-76.52,8.61-10.49-2.19-17.21S175,54.9,171.07,52.63s-16.61-6.87-31.71,1.89S16,126,11.19,128.82.33,139.78,10.44,145.78Z"/><path class="cls-6" d="M451.64,216.35c-12.76-7.17-270.23-155.87-277.25-160s-19.18-8-32.91,0S16.53,128,16.53,128C9.88,131.79.83,138.33,15,146.28S273.57,295.74,284.34,302s24.26,16.1,46.3,2.61,114.43-66.65,121-70.5S464.39,223.52,451.64,216.35Zm-5.89,16.08c-6.64,3.85-102.28,59.71-120.1,69.6s-24.6,4.83-35-.91S36.86,154.33,21.56,146.13s-2.06-14.49,2.92-17.26c0,0,97.22-54.05,114.33-65.22s24.05-8.45,31.1-4.53,265,151.5,275.31,157.61S452.39,228.58,445.75,232.43Z"/><polygon class="cls-7" points="185.78 123.25 200.28 114.94 326.94 185.29 308.22 196.62 185.78 123.25"/><polygon class="cls-8" points="234.17 144.69 271.53 166.35 279.16 163.63 237.34 139.55 234.17 144.69"/><polygon class="cls-9" points="234.17 147.4 234.17 144.69 271.53 166.35 271.53 169.29 234.17 147.4"/><polygon class="cls-10" points="279.16 163.63 279.16 166.35 271.53 169.29 271.53 166.35 279.16 163.63"/><path class="cls-9" d="M187.29,103.17v4.68c0,1.81.15,5,5.44,7.85s108.09,62.05,111.56,64.16,6.11,3,7.4,2.16l2-10.61-116-70.66Z"/><path class="cls-5" d="M190.67,3.77l7-2.6L315.06,69s3.27,1.91,3.27,4.63L309,76.85Z"/><polygon class="cls-8" points="311.69 182.02 318.33 177.75 318.33 73.63 309.02 76.85 311.69 182.02"/><path class="cls-11" d="M187.29,103.17l124.4,71.71V81.13c0-4.23.3-7.55-6.94-11.78S195.6,6.55,192.43,4.44s-5.14.9-5.14,7.39Z"/><polygon class="cls-12" points="192.88 100.75 192.88 11.43 305.6 76.05 305.6 165.22 192.88 100.75"/><path class="cls-7" d="M145.09,160v2.46A1.71,1.71,0,0,0,146,164s93.7,55.6,97,57.18,7.67,1.51,12.12-1.47S287.6,200,287.6,200s.65-.78.66-3.54Z"/><path class="cls-8" d="M145.09,158.64v2.47a1.7,1.7,0,0,0,.86,1.6s93.7,55.6,97,57.18,7.67,1.52,12.12-1.47,32.54-19.77,32.54-19.77.65-.79.66-3.55Z"/><path class="cls-9" d="M145.76,159.55c-1.28-1-.64-2.22,1.1-3.27s32.7-19.57,34.67-20.55,3.52-1.28,5.65,0,97.6,55.87,99.41,56.91,3.22,2.77-1.71,5.37-30,17.4-32.67,19-5.18,2.52-11.42-1.2S145.76,159.55,145.76,159.55Z"/><polygon class="cls-8" points="180.99 172.29 176.37 175.12 209.67 194.38 214.33 191.53 180.99 172.29"/><polygon class="cls-8" points="226.45 198.52 221.77 201.38 226.24 203.96 230.92 201.1 226.45 198.52"/><polygon class="cls-8" points="172.83 167.58 168.22 170.4 173.71 173.58 178.33 170.75 172.83 167.58"/><polygon class="cls-8" points="217 193.07 212.33 195.92 219.11 199.84 223.78 196.98 217 193.07"/><polygon class="cls-8" points="152.24 155.7 147.65 158.51 151.66 160.83 156.25 158.01 152.24 155.7"/><polygon class="cls-8" points="165.53 163.37 160.93 166.19 165.56 168.87 170.17 166.04 165.53 163.37"/><polygon class="cls-8" points="158.91 159.55 154.32 162.36 158.27 164.65 162.87 161.83 158.91 159.55"/><polygon class="cls-8" points="244.79 212.49 242.94 213.62 247.66 216.35 249.51 215.22 244.79 212.49"/><polygon class="cls-8" points="238.36 208.78 236.52 209.91 240.28 212.08 242.12 210.96 238.36 208.78"/><polygon class="cls-8" points="230.73 204.38 228.9 205.5 233.86 208.37 235.69 207.25 230.73 204.38"/><polygon class="cls-8" points="229.46 191.52 224.89 188.87 220.22 191.72 224.79 194.37 229.46 191.52"/><polygon class="cls-8" points="208.28 179.25 203.81 176.67 199.17 179.51 203.63 182.1 208.28 179.25"/><polygon class="cls-8" points="175.29 165.66 179.9 162.83 174.61 159.77 170 162.59 175.29 165.66"/><polygon class="cls-8" points="187.18 167.05 182.56 164.37 177.95 167.2 182.57 169.87 187.18 167.05"/><polygon class="cls-8" points="222.23 187.33 217.89 184.82 213.24 187.67 217.57 190.18 222.23 187.33"/><polygon class="cls-8" points="193.17 170.51 189.84 168.59 185.22 171.41 188.54 173.34 193.17 170.51"/><polygon class="cls-8" points="236.83 195.78 232.12 193.06 227.45 195.91 232.15 198.65 236.83 195.78"/><polygon class="cls-8" points="201.15 175.13 195.83 172.05 191.2 174.88 196.51 177.97 201.15 175.13"/><polygon class="cls-8" points="244.16 200.02 239.49 197.32 234.81 200.19 239.47 202.89 244.16 200.02"/><polygon class="cls-8" points="246.82 201.56 242.13 204.43 254.97 211.88 259.67 209 246.82 201.56"/><polygon class="cls-8" points="171.95 158.23 159.85 151.04 155.25 153.85 167.35 161.05 171.95 158.23"/><polygon class="cls-8" points="215.23 183.28 210.93 180.79 206.29 183.64 210.58 186.13 215.23 183.28"/><polygon class="cls-8" points="204.41 169.21 199.6 166.43 194.98 169.26 199.78 172.05 204.41 169.21"/><polygon class="cls-8" points="239.58 189.57 235.08 186.97 230.42 189.82 234.91 192.43 239.58 189.57"/><polygon class="cls-8" points="196.95 164.89 192.44 162.29 187.83 165.11 192.32 167.72 196.95 164.89"/><polygon class="cls-8" points="218.36 177.28 213.9 174.7 209.25 177.54 213.71 180.13 218.36 177.28"/><polygon class="cls-8" points="181.53 161.46 185.17 163.57 189.79 160.75 186.14 158.64 181.53 161.46"/><polygon class="cls-8" points="232.42 185.43 228.22 182.99 223.56 185.84 227.76 188.28 232.42 185.43"/><polygon class="cls-8" points="211.24 173.16 207.07 170.75 202.44 173.59 206.6 176 211.24 173.16"/><polygon class="cls-8" points="242.24 191.11 237.57 193.97 241.8 196.43 246.48 193.56 242.24 191.11"/><polygon class="cls-8" points="225.56 181.45 221.01 178.82 216.37 181.67 220.9 184.3 225.56 181.45"/><polygon class="cls-8" points="175.98 152.76 166.29 147.09 161.7 149.9 171.38 155.57 175.98 152.76"/><polygon class="cls-8" points="256.9 199.59 252.21 202.47 261.52 207.87 266.23 204.99 256.9 199.59"/><polygon class="cls-8" points="254.24 198.05 249.14 195.1 244.46 197.97 249.55 200.92 254.24 198.05"/><polygon class="cls-8" points="174.04 157.11 178.88 159.92 183.48 157.1 178.64 154.3 174.04 157.11"/><polygon class="cls-8" points="238.07 180.73 233.42 178.04 228.76 180.89 233.41 183.59 238.07 180.73"/><polygon class="cls-8" points="245.52 185.05 240.73 182.27 236.06 185.13 240.85 187.91 245.52 185.05"/><polygon class="cls-8" points="186.6 156.43 190.95 158.95 195.56 156.13 191.21 153.61 186.6 156.43"/><polygon class="cls-8" points="252 188.8 248.18 186.59 243.51 189.45 247.32 191.66 252 188.8"/><polygon class="cls-8" points="221.43 176.64 226.1 179.35 230.76 176.5 226.08 173.79 221.43 176.64"/><polygon class="cls-8" points="193.61 160.5 197.68 162.86 202.3 160.03 198.22 157.67 193.61 160.5"/><polygon class="cls-8" points="207.45 168.53 211.9 171.11 216.53 168.27 212.08 165.69 207.45 168.53"/><polygon class="cls-8" points="200.34 164.44 204.82 166.99 209.42 164.11 204.93 161.57 200.34 164.44"/><polygon class="cls-8" points="183.95 154.89 188.55 152.07 183.96 149.42 179.36 152.23 183.95 154.89"/><polygon class="cls-8" points="181.3 147.88 173.03 142.97 168.44 145.78 176.71 150.69 181.3 147.88"/><polygon class="cls-8" points="268.7 198.46 264 201.34 268.21 203.78 272.91 200.9 268.7 198.46"/><polygon class="cls-8" points="266.04 196.92 261.99 194.58 257.3 197.45 261.34 199.8 266.04 196.92"/><polygon class="cls-8" points="214.55 172.65 218.78 175.1 223.42 172.26 219.19 169.81 214.55 172.65"/><polygon class="cls-8" points="259.33 193.04 254.66 190.34 249.98 193.2 254.64 195.91 259.33 193.04"/><polygon class="cls-8" points="218 166.69 222.71 169.42 227.35 166.58 222.63 163.85 218 166.69"/><polygon class="cls-8" points="210.64 162.42 215.34 165.15 219.97 162.31 215.27 159.59 210.64 162.42"/><polygon class="cls-8" points="232.58 175.15 236.5 177.42 241.16 174.57 237.23 172.3 232.58 175.15"/><polygon class="cls-8" points="246.47 183.21 250.53 185.56 255.15 182.73 255.4 182.81 251.14 180.35 246.47 183.21"/><polygon class="cls-8" points="225.37 170.96 229.92 173.61 234.57 170.76 230.01 168.12 225.37 170.96"/><polygon class="cls-8" points="204.02 158.58 207.99 160.88 212.61 158.05 208.64 155.75 204.02 158.58"/><polygon class="cls-8" points="182.35 146.01 187.37 148.92 191.97 146.1 186.94 143.19 182.35 146.01"/><polygon class="cls-8" points="184.28 141.66 179.6 138.95 175.01 141.76 179.69 144.47 184.28 141.66"/><polygon class="cls-8" points="190.02 150.46 194.41 153 199.01 150.18 194.63 147.64 190.02 150.46"/><polygon class="cls-8" points="197.06 154.54 201.37 157.04 205.99 154.22 201.67 151.72 197.06 154.54"/><polygon class="cls-8" points="239.15 178.96 243.81 181.67 248.48 178.81 243.81 176.11 239.15 178.96"/><polygon class="cls-8" points="257.25 189.46 261.94 186.6 257.86 184.24 253.18 187.1 257.25 189.46"/><polygon class="cls-8" points="272.37 192.64 267.68 195.51 274.88 199.69 279.58 196.81 272.37 192.64"/><polygon class="cls-8" points="264.59 188.14 259.91 191 265.02 193.97 269.71 191.1 264.59 188.14"/><polygon class="cls-8" points="240.94 168.92 235.79 165.94 233.32 167.46 238.46 170.44 240.94 168.92"/><polygon class="cls-8" points="196.52 143.22 191.79 140.48 189.37 141.96 194.1 144.7 196.52 143.22"/><polygon class="cls-8" points="248.27 173.17 243.6 170.46 241.11 171.98 245.78 174.69 248.27 173.17"/><polygon class="cls-8" points="262.8 181.57 258.54 179.11 256.04 180.64 260.29 183.11 262.8 181.57"/><polygon class="cls-8" points="255.88 177.57 250.93 174.71 248.44 176.23 253.38 179.1 255.88 177.57"/><polygon class="cls-8" points="233.14 164.41 229.04 162.03 226.57 163.54 230.66 165.92 233.14 164.41"/><polygon class="cls-8" points="218.74 156.07 214.74 153.76 212.29 155.26 216.28 157.57 218.74 156.07"/><polygon class="cls-8" points="226.38 160.5 221.4 157.61 218.94 159.12 223.92 162 226.38 160.5"/><polygon class="cls-8" points="212.08 152.22 206.44 148.96 204 150.45 209.63 153.72 212.08 152.22"/><polygon class="cls-8" points="203.78 147.42 199.18 144.75 196.75 146.24 201.35 148.91 203.78 147.42"/><polygon class="cls-8" points="270.4 185.98 265.46 183.11 262.95 184.65 267.89 187.52 270.4 185.98"/><polygon class="cls-8" points="189.13 138.94 184.26 136.09 181.85 137.57 186.72 140.42 189.13 138.94"/><polygon class="cls-8" points="277.81 190.26 273.06 187.51 270.55 189.06 275.29 191.81 277.81 190.26"/><polygon class="cls-8" points="280.47 191.8 277.94 193.35 281.69 195.52 284.22 193.97 280.47 191.8"/><polygon class="cls-8" points="241.21 207.04 239.74 207.9 243.5 210.07 244.97 209.21 241.21 207.04"/><path class="cls-13" d="M359.45,210.43S341.34,220.85,338,222.59s-2.12,3.85.9,5.81,33.67,19.62,37.74,22,8.46,2.87,16.76-1.51,29.84-17.67,33.52-20.15,9.51-6.65,0-10.12-19.78-7.32-19.78-7.32Z"/><path class="cls-14" d="M354.37,202.43v16c0,2.31,3.49,17.61,29.32,17.61s29.56-13.89,29.56-16.11V200.62Z"/><path class="cls-15" d="M331.52,187.13v4.33a5.86,5.86,0,0,0,2.82,3.12c2.32,1.31,40.26,23.75,43.38,25S386,222,392.32,218s41.46-24.76,41.46-24.76,2.06-1,2.09-2.71,0-3.43,0-3.43Z"/><path class="cls-16" d="M335.55,182.91c-3.52,2-5.84,4.43-2.21,6.54S373.49,212.9,377.22,215a14.34,14.34,0,0,0,13,0c3.52-2,41.57-24.45,44.18-26.06s1.72-3.32-2.21-5.34-43.48-25.06-46.09-26.47-5.54-.3-9.77,1.92S335.55,182.91,335.55,182.91Z"/><path class="cls-17" d="M422.33,214.43s-.75,10.8-3.24,14.27a10,10,0,0,0,12.3-.15s-3.25-8.78-3.25-14.12Z"/><ellipse class="cls-18" cx="425.2" cy="212.74" rx="5.21" ry="4.42"/><path class="cls-19" d="M384.67,184.62s32.91,7.45,37.13,8.35,5.14,2.92,5.14,5.69v11.62c0,1-.15,2.67-1.87,2.67s-2.11-1.61-2.11-3.27.15-9.36.15-10.37-.2-2.36-1.56-2.66-37.14-8.56-38.39-8.91a1.45,1.45,0,0,1-1.21-1.91C382.15,185.12,382.56,184.14,384.67,184.62Z"/><polygon class="cls-20" points="59.2 92.7 123.67 130.14 123.67 143.58 59.2 106.29 59.2 92.7"/><polygon class="cls-21" points="125.83 139.5 125.83 131.35 168.2 105.93 168.2 103.37 123.67 130.14 123.67 143.58 168.2 117.26 168.2 114.06 125.83 139.5"/><polygon class="cls-22" points="168.2 103.37 105.7 70.81 59.2 92.7 123.67 130.14 168.2 103.37"/><polygon class="cls-21" points="62.87 90.97 126.75 128.29 128.73 127.09 65.06 89.94 62.87 90.97"/><polygon class="cls-22" points="165.63 113.23 125.83 136.41 125.83 139.5 168.2 114.06 165.63 113.23"/><polygon class="cls-23" points="165.63 113.23 165.63 107.47 125.83 131.35 125.83 136.41 165.63 113.23"/><polygon class="cls-24" points="61.82 86.52 126.03 123.46 126.03 126.88 61.82 90.04 61.82 86.52"/><polygon class="cls-25" points="171.72 86.52 171.72 100.61 126.03 126.88 126.03 123.46 168.91 98.6 168.91 90.55 126.03 115.61 126.03 112.49 171.72 86.52"/><polygon class="cls-24" points="126.03 115.61 61.82 78.49 61.82 75.02 126.03 112.49 126.03 115.61"/><polygon class="cls-12" points="61.82 75.02 103.49 53.01 171.72 86.52 126.03 112.49 61.82 75.02"/><polygon class="cls-12" points="61.82 86.52 64.22 85.69 126.03 121.04 167.4 97.52 167.4 91.43 168.91 90.55 168.91 98.6 126.03 123.46 61.82 86.52"/><polygon class="cls-26" points="64.22 85.69 64.22 79.88 126.03 115.61 126.03 121.04 64.22 85.69"/><polygon class="cls-27" points="167.4 91.43 167.4 97.52 126.03 121.04 126.03 115.61 167.4 91.43"/><polygon class="cls-25" points="97.82 56 165.71 89.95 167.74 88.79 99.91 54.9 97.82 56"/><polygon class="cls-28" points="60.86 58.24 125.33 95.68 125.33 109.11 60.86 71.83 60.86 58.24"/><polygon class="cls-29" points="127.49 105.04 127.49 96.89 169.86 71.46 169.86 68.91 125.33 95.68 125.33 109.11 169.86 82.8 169.86 79.6 127.49 105.04"/><polygon class="cls-30" points="169.86 68.91 110.08 35.07 60.86 58.24 125.33 95.68 169.86 68.91"/><polygon class="cls-28" points="64.53 56.51 128.41 93.83 130.39 92.63 66.72 55.48 64.53 56.51"/><polygon class="cls-30" points="167.29 78.77 127.49 101.94 127.49 105.04 169.86 79.6 167.29 78.77"/><polygon class="cls-23" points="167.29 78.77 167.29 73 127.49 96.89 127.49 101.94 167.29 78.77"/><ellipse class="cls-31" cx="252.17" cy="86.19" rx="22.49" ry="39.21" transform="translate(3.96 183.2) rotate(-40.22)"/><path class="cls-32" d="M264.14,74.33c-12.73-15.06-30.06-21.35-38.7-14a12.85,12.85,0,0,0-1.33,1.33l-6.55,6.54,8.12,27.27,6.74,4.84.43.53c6.87,8.12,15.08,13.69,22.53,15.95l8.3,6,7.88-7.86C280.2,107.53,276.88,89.39,264.14,74.33Z"/><ellipse class="cls-33" cx="240.62" cy="95.42" rx="20.49" ry="35.72" transform="translate(-4.73 177.92) rotate(-40.22)"/><polygon class="cls-5" points="230.28 72.61 230.28 109.74 259.42 107.33 230.28 72.61"/><g id="_Group_" data-name="&lt;Group&gt;"><path class="cls-34" d="M307.86,249.49a9.91,9.91,0,0,1,1.38-.46,9.66,9.66,0,0,0,.12-1.51h0c3.26.59,1.4,2.61-.84,3.71A1.57,1.57,0,0,0,307.86,249.49Z"/><path class="cls-13" d="M292.33,263.62c-6.74.35-11.78-.61-15.19-3.88a5.79,5.79,0,0,1-1.16-6.82,5.36,5.36,0,0,0,1.76,3.35c4.42,4.53,10.57,7.09,16.68,2.93s9.54-6.77,12.2-7.29a8,8,0,0,0,1.91-.68C307.82,255.28,297.51,263.35,292.33,263.62Z"/><path class="cls-35" d="M309.2,245a13.31,13.31,0,0,1,.16,2.55,53.32,53.32,0,0,0-6.06-.71A20.92,20.92,0,0,1,309.2,245Z"/><path class="cls-34" d="M277.74,256.27a5.36,5.36,0,0,1-1.76-3.35,4.58,4.58,0,0,1,1.37-3.52,11.51,11.51,0,0,0-.21,1.89s0,2.62,3.72,5.13a13.28,13.28,0,0,0,14,0,65.86,65.86,0,0,1,10.67-6c1-.41,1.75-.7,2.29-.89a1.57,1.57,0,0,1,.67,1.74,8,8,0,0,1-1.91.68c-2.66.52-6.09,3.11-12.2,7.29S282.16,260.8,277.74,256.27Z"/><path class="cls-34" d="M301.21,237.94c4.14-.91,6.14,3.14,6.14,3.14-3.66-1.67-10.76,1.87-12.3,1.28C293.88,241.9,297.05,238.85,301.21,237.94Z"/><path class="cls-35" d="M307.86,249.49c-.54.19-1.29.48-2.29.89a65.86,65.86,0,0,0-10.67,6,13.28,13.28,0,0,1-14,0c-3.72-2.51-3.72-5.13-3.72-5.13a12.34,12.34,0,0,1,1.39-5.29,28.48,28.48,0,0,0,7.51,5.19c4,1.61,6.19.2,10.07-1.16,1.85-.65,4.49-2.05,7.19-3.22a53.32,53.32,0,0,1,6.06.71,9.66,9.66,0,0,1-.12,1.51A9.91,9.91,0,0,0,307.86,249.49Z"/><path class="cls-36" d="M307.35,241.08s-2-4.05-6.14-3.14-7.33,4-6.16,4.42C296.59,243,303.69,239.41,307.35,241.08Zm-6.52-3.88c6,.68,7.86,4.62,8.37,7.77a20.92,20.92,0,0,0-5.9,1.84c-2.7,1.17-5.34,2.57-7.19,3.22-3.88,1.36-6,2.77-10.07,1.16a28.48,28.48,0,0,1-7.51-5.19C282.21,239,292.43,236.25,300.83,237.2Z"/></g></g></svg>