<svg xmlns="http://www.w3.org/2000/svg" width="592.652" height="353.45" viewBox="0 0 592.652 353.45">
  <g id="Grupo_2088" data-name="Grupo 2088" transform="translate(-11737.215 -759.39)">
    <g id="Grupo_2088-2" data-name="Grupo 2088" transform="translate(11997.953 793.793)">
      <path id="Trazado_3255" data-name="Trazado 3255" d="M12402.87,965.962l13.142,84.773,4.094,3.985.646-2.585-9.91-88.759Z" transform="translate(-12089.987 -821.996)" fill="#8c8dc8"/>
      <path id="Trazado_3256" data-name="Trazado 3256" d="M12292.48,1114.273l4.237-2.01s1.867-71.381,2.3-80.86.431-14.813,11.633-21.481,67.468-39.4,71.776-41.928,11.148-5.224,11.849,2.8,9.372,82.942,9.372,82.942l1.795-1.508-9.551-95.976-83.8,49.028-12.711,6.878-15.555.085,3.275,6.809,3.017,87.466Z" transform="translate(-12073.527 -821.011)" fill="#b0b0e2"/>
      <path id="Trazado_3257" data-name="Trazado 3257" d="M12041.349,966.741l5.1-3.232s10.341-61.4,11.2-63.553.95-4.672,3.687-3.109l-9.994-7.3-10.64,74.54Z" transform="translate(-12039.914 -811.788)" fill="#8c8dc8"/>
      <path id="Trazado_3258" data-name="Trazado 3258" d="M12049.475,886.794l-9.687,77.975,1.436,1.592s8.617-60.178,9.768-66.5,2.871-7.181,7.037-5.17,178.523,103.553,184.771,107.215,7.971,8.186,8.832,20.035,3.447,79.711,3.447,79.711l3.662,3.016v-92.852s-1.293-5.817-10.125-9.91S12049.475,886.794,12049.475,886.794Z" transform="translate(-12039.787 -811.408)" fill="#b2b3e3"/>
      <path id="Trazado_3259" data-name="Trazado 3259" d="M12045.312,875.627l4.928,9.623,170.817,99.149s30.548,17.76,33.563,19.34,7.039,1.939,13.43-2.011,95.016-55.088,95.016-55.088l1.975-4.846Z" transform="translate(-12040.552 -809.864)" fill="#c48fd5"/>
      <path id="Trazado_3260" data-name="Trazado 3260" d="M12047.116,868.092c7.788,4.618,191.342,110.733,199.241,115.473s16.229,6.894,26.14,1.437,90.77-52.387,93.517-54.595,6.14-7.487-1.562-12.28-199.923-114.881-202.724-116.5-11.849-4.9-22.62,1.347-88.006,50.968-91.452,53.014S12039.9,863.814,12047.116,868.092Z" transform="translate(-12040.259 -799.312)" fill="#fff"/>
      <path id="Trazado_3261" data-name="Trazado 3261" d="M12362.213,918.711c-9.1-5.117-192.814-111.219-197.823-114.18a22.4,22.4,0,0,0-23.482,0c-9.8,5.709-89.153,51.111-89.153,51.111-4.74,2.729-11.2,7.4-1.077,13.07s184.482,106.64,192.167,111.092,17.307,11.49,33.033,1.867,81.65-47.557,86.336-50.3S12371.314,923.827,12362.213,918.711Zm-4.2,11.471c-4.738,2.747-72.978,42.6-85.688,49.658s-17.558,3.447-24.99-.646-181.073-104.737-191.988-110.59-1.473-10.341,2.083-12.316c0,0,69.369-38.563,81.578-46.534s17.162-6.032,22.189-3.232,189.062,108.095,196.44,112.457S12362.751,927.436,12358.011,930.183Z" transform="translate(-12040.552 -799.574)" fill="#f3dcf9"/>
    </g>
    <g id="Grupo_2089" data-name="Grupo 2089" transform="translate(12129.925 759.39)">
      <path id="Trazado_3262" data-name="Trazado 3262" d="M12192.932,859.522l10.342-5.924,90.375,50.2-13.356,8.079Z" transform="translate(-12192.932 -772.415)" fill="#dddbfa"/>
      <path id="Trazado_3263" data-name="Trazado 3263" d="M12233,877.635l26.659,15.457,5.44-1.939-29.838-17.181Z" transform="translate(-12198.472 -775.232)" fill="#afb1e2"/>
      <path id="Trazado_3264" data-name="Trazado 3264" d="M12233,880.162v-1.939l26.659,15.457v2.1Z" transform="translate(-12198.472 -775.82)" fill="#ededed"/>
      <path id="Trazado_3265" data-name="Trazado 3265" d="M12269.371,893.91v1.939l-5.439,2.1v-2.1Z" transform="translate(-12202.748 -777.989)" fill="#babae4"/>
      <path id="Trazado_3266" data-name="Trazado 3266" d="M12194.182,843.571v3.339c0,1.293.107,3.555,3.878,5.6s77.125,44.272,79.6,45.78,4.362,2.135,5.28,1.544l1.417-7.576-82.745-50.412Z" transform="translate(-12193.105 -770.791)" fill="#ededed"/>
      <path id="Trazado_3267" data-name="Trazado 3267" d="M12196.974,761.247l5.027-1.857,83.732,48.4s2.333,1.365,2.333,3.3l-6.642,2.3Z" transform="translate(-12193.491 -759.39)" fill="#fff"/>
      <path id="Trazado_3268" data-name="Trazado 3268" d="M12296.878,896.731l4.738-3.052V819.39l-6.642,2.3Z" transform="translate(-12207.042 -767.686)" fill="#afb1e2"/>
      <path id="Trazado_3269" data-name="Trazado 3269" d="M12194.182,832.469l88.759,51.166V816.742c0-3.016.216-5.386-4.954-8.4s-77.881-44.81-80.143-46.318-3.662.646-3.662,5.278Z" transform="translate(-12193.105 -759.688)" fill="#4b3f8e"/>
      <path id="Trazado_3270" data-name="Trazado 3270" d="M12198.808,831.622V767.89l80.428,46.1v63.625Z" transform="translate(-12193.745 -760.565)" fill="#00aeef"/>
    </g>
    <g id="Grupo_2091" data-name="Grupo 2091" transform="translate(12100.886 854.793)">
      <path id="Trazado_3271" data-name="Trazado 3271" d="M12159.235,890.877v1.76a1.213,1.213,0,0,0,.617,1.146s66.852,39.668,69.2,40.8,5.474,1.08,8.651-1.049,23.213-14.111,23.213-14.111a4.335,4.335,0,0,0,.477-2.528Z" transform="translate(-12159.234 -872.973)" fill="#dddbfa"/>
      <path id="Trazado_3272" data-name="Trazado 3272" d="M12159.235,889.777v1.76a1.213,1.213,0,0,0,.617,1.146s66.852,39.668,69.2,40.8,5.474,1.08,8.651-1.049,23.213-14.111,23.213-14.111a4.335,4.335,0,0,0,.477-2.528Z" transform="translate(-12159.234 -872.821)" fill="#afb1e2"/>
      <path id="Trazado_3273" data-name="Trazado 3273" d="M12159.717,887.707c-.914-.706-.457-1.588.781-2.332s23.337-13.966,24.743-14.666a3.651,3.651,0,0,1,4.03,0c1.522.915,69.636,39.866,70.929,40.606s2.3,1.975-1.222,3.835-21.416,12.416-23.312,13.565-3.7,1.8-8.146-.862S12159.717,887.707,12159.717,887.707Z" transform="translate(-12159.234 -870.1)" fill="#ededed"/>
      <g id="Grupo_2090" data-name="Grupo 2090" transform="translate(1.828 0.87)">
        <path id="Trazado_3274" data-name="Trazado 3274" d="M12188.438,901.081l-3.3,2.019,23.762,13.744,3.324-2.035Z" transform="translate(-12164.645 -875.254)" fill="#afb1e2"/>
        <path id="Trazado_3275" data-name="Trazado 3275" d="M12226.067,922.8l-3.336,2.041,3.186,1.842,3.339-2.043Z" transform="translate(-12169.842 -878.256)" fill="#afb1e2"/>
        <path id="Trazado_3276" data-name="Trazado 3276" d="M12181.68,897.18l-3.291,2.015,3.92,2.267,3.295-2.017Z" transform="translate(-12163.711 -874.714)" fill="#afb1e2"/>
        <path id="Trazado_3277" data-name="Trazado 3277" d="M12218.242,918.283l-3.327,2.036,4.838,2.8,3.332-2.04Z" transform="translate(-12168.76 -877.632)" fill="#afb1e2"/>
        <path id="Trazado_3278" data-name="Trazado 3278" d="M12164.631,887.341l-3.275,2,2.861,1.655,3.279-2.006Z" transform="translate(-12161.355 -873.354)" fill="#afb1e2"/>
        <path id="Trazado_3279" data-name="Trazado 3279" d="M12175.635,893.692l-3.284,2.011,3.3,1.912,3.289-2.013Z" transform="translate(-12162.877 -874.232)" fill="#afb1e2"/>
        <path id="Trazado_3280" data-name="Trazado 3280" d="M12170.158,890.531l-3.28,2.008,2.817,1.629,3.283-2.01Z" transform="translate(-12162.118 -873.795)" fill="#afb1e2"/>
        <path id="Trazado_3281" data-name="Trazado 3281" d="M12241.574,934.368l-1.318.806,3.368,1.948,1.322-.808Z" transform="translate(-12172.265 -879.856)" fill="#afb1e2"/>
        <path id="Trazado_3282" data-name="Trazado 3282" d="M12236.252,931.3l-1.313.8,2.685,1.553,1.316-.8Z" transform="translate(-12171.529 -879.431)" fill="#afb1e2"/>
        <path id="Trazado_3283" data-name="Trazado 3283" d="M12229.937,927.652l-1.308.8,3.539,2.047,1.312-.8Z" transform="translate(-12170.656 -878.927)" fill="#afb1e2"/>
        <path id="Trazado_3284" data-name="Trazado 3284" d="M12228.038,916.7l-3.262-1.888-3.327,2.036,3.258,1.89Z" transform="translate(-12169.663 -877.152)" fill="#afb1e2"/>
        <path id="Trazado_3285" data-name="Trazado 3285" d="M12210.513,906.551l-3.187-1.845-3.31,2.026,3.185,1.848Z" transform="translate(-12167.255 -875.755)" fill="#afb1e2"/>
        <path id="Trazado_3286" data-name="Trazado 3286" d="M12183.641,894.912l3.289-2.013-3.778-2.187-3.284,2.01Z" transform="translate(-12163.915 -873.82)" fill="#afb1e2"/>
        <path id="Trazado_3287" data-name="Trazado 3287" d="M12193.035,896.433l-3.3-1.909-3.293,2.014,3.294,1.911Z" transform="translate(-12164.824 -874.347)" fill="#afb1e2"/>
        <path id="Trazado_3288" data-name="Trazado 3288" d="M12222.08,913.247l-3.094-1.791-3.321,2.033,3.09,1.793Z" transform="translate(-12168.864 -876.688)" fill="#afb1e2"/>
        <path id="Trazado_3289" data-name="Trazado 3289" d="M12198.139,899.388l-2.374-1.374-3.3,2.018,2.372,1.376Z" transform="translate(-12165.657 -874.83)" fill="#afb1e2"/>
        <path id="Trazado_3290" data-name="Trazado 3290" d="M12234.125,920.22l-3.363-1.946-3.332,2.04,3.359,1.949Z" transform="translate(-12170.491 -877.631)" fill="#afb1e2"/>
        <path id="Trazado_3291" data-name="Trazado 3291" d="M12204.516,903.079l-3.795-2.2-3.3,2.022,3.791,2.2Z" transform="translate(-12166.341 -875.226)" fill="#afb1e2"/>
        <path id="Trazado_3292" data-name="Trazado 3292" d="M12240.2,923.734l-3.33-1.928-3.341,2.044,3.326,1.93Z" transform="translate(-12171.333 -878.119)" fill="#afb1e2"/>
        <path id="Trazado_3293" data-name="Trazado 3293" d="M12242.932,925.317l-3.348,2.048,9.16,5.315,3.357-2.054Z" transform="translate(-12172.171 -878.605)" fill="#afb1e2"/>
        <path id="Trazado_3294" data-name="Trazado 3294" d="M12179.566,888.615l-8.636-5.131-3.276,2.006,8.63,5.134Z" transform="translate(-12162.227 -872.821)" fill="#afb1e2"/>
        <path id="Trazado_3295" data-name="Trazado 3295" d="M12216.293,909.9l-3.068-1.776-3.315,2.029,3.064,1.778Z" transform="translate(-12168.068 -876.227)" fill="#afb1e2"/>
        <path id="Trazado_3296" data-name="Trazado 3296" d="M12207.275,898.213l-3.429-1.985-3.3,2.02,3.425,1.987Z" transform="translate(-12166.774 -874.583)" fill="#afb1e2"/>
        <path id="Trazado_3297" data-name="Trazado 3297" d="M12236.428,915.089l-3.211-1.858-3.33,2.038,3.207,1.86Z" transform="translate(-12170.83 -876.934)" fill="#afb1e2"/>
        <path id="Trazado_3298" data-name="Trazado 3298" d="M12201.131,894.656l-3.212-1.859-3.293,2.016,3.207,1.861Z" transform="translate(-12165.955 -874.108)" fill="#afb1e2"/>
        <path id="Trazado_3299" data-name="Trazado 3299" d="M12218.86,904.919l-3.184-1.842-3.312,2.027,3.18,1.845Z" transform="translate(-12168.408 -875.53)" fill="#afb1e2"/>
        <path id="Trazado_3300" data-name="Trazado 3300" d="M12189.413,891.79l2.6,1.507,3.291-2.015-2.6-1.5Z" transform="translate(-12165.235 -873.691)" fill="#afb1e2"/>
        <path id="Trazado_3301" data-name="Trazado 3301" d="M12230.536,911.678l-3-1.737-3.325,2.034,3,1.739Z" transform="translate(-12170.046 -876.479)" fill="#afb1e2"/>
        <path id="Trazado_3302" data-name="Trazado 3302" d="M12213,901.527l-2.974-1.721-3.307,2.024,2.97,1.723Z" transform="translate(-12167.627 -875.077)" fill="#afb1e2"/>
        <path id="Trazado_3303" data-name="Trazado 3303" d="M12239.144,916.661l-3.335,2.042,3.021,1.754,3.34-2.044Z" transform="translate(-12171.65 -877.408)" fill="#afb1e2"/>
        <path id="Trazado_3304" data-name="Trazado 3304" d="M12224.814,908.366l-3.243-1.877-3.318,2.031,3.239,1.879Z" transform="translate(-12169.222 -876.002)" fill="#afb1e2"/>
        <path id="Trazado_3305" data-name="Trazado 3305" d="M12183.181,884.259l-6.914-4.041-3.274,2,6.908,4.044Z" transform="translate(-12162.965 -872.369)" fill="#afb1e2"/>
        <path id="Trazado_3306" data-name="Trazado 3306" d="M12251.279,923.686l-3.35,2.049,6.647,3.856,3.354-2.054Z" transform="translate(-12173.324 -878.379)" fill="#afb1e2"/>
        <path id="Trazado_3307" data-name="Trazado 3307" d="M12248.5,922.074l-3.641-2.106-3.341,2.045,3.635,2.109Z" transform="translate(-12172.438 -877.865)" fill="#afb1e2"/>
        <path id="Trazado_3308" data-name="Trazado 3308" d="M12183.208,888.19l3.452,2,3.286-2.011-3.456-2Z" transform="translate(-12164.376 -873.194)" fill="#afb1e2"/>
        <path id="Trazado_3309" data-name="Trazado 3309" d="M12235.158,907.762l-3.318-1.921-3.322,2.034,3.314,1.923Z" transform="translate(-12170.643 -875.912)" fill="#afb1e2"/>
        <path id="Trazado_3310" data-name="Trazado 3310" d="M12241.312,911.325l-3.421-1.98-3.329,2.037,3.418,1.983Z" transform="translate(-12171.477 -876.396)" fill="#afb1e2"/>
        <path id="Trazado_3311" data-name="Trazado 3311" d="M12193.613,887.627l3.1,1.8,3.291-2.014-3.1-1.8Z" transform="translate(-12165.816 -873.115)" fill="#afb1e2"/>
        <path id="Trazado_3312" data-name="Trazado 3312" d="M12246.788,914.495l-2.727-1.578-3.335,2.041,2.724,1.58Z" transform="translate(-12172.329 -876.89)" fill="#afb1e2"/>
        <path id="Trazado_3313" data-name="Trazado 3313" d="M12222.448,904.355l3.335,1.934,3.32-2.032-3.338-1.932Z" transform="translate(-12169.802 -875.426)" fill="#afb1e2"/>
        <path id="Trazado_3314" data-name="Trazado 3314" d="M12199.409,890.99l2.907,1.687,3.3-2.018-2.909-1.685Z" transform="translate(-12166.616 -873.58)" fill="#afb1e2"/>
        <path id="Trazado_3315" data-name="Trazado 3315" d="M12210.869,897.638l3.175,1.841,3.307-2.025-3.176-1.839Z" transform="translate(-12168.2 -874.498)" fill="#afb1e2"/>
        <path id="Trazado_3316" data-name="Trazado 3316" d="M12204.982,894.253l3.2,1.815,3.283-2.052-3.2-1.812Z" transform="translate(-12167.388 -874.026)" fill="#afb1e2"/>
        <path id="Trazado_3317" data-name="Trazado 3317" d="M12190.889,886.047l3.284-2.01-3.275-1.9-3.281,2.008Z" transform="translate(-12164.986 -872.635)" fill="#afb1e2"/>
        <path id="Trazado_3318" data-name="Trazado 3318" d="M12187.75,880.3l-5.9-3.5-3.276,2,5.9,3.5Z" transform="translate(-12163.736 -871.897)" fill="#afb1e2"/>
        <path id="Trazado_3319" data-name="Trazado 3319" d="M12261.046,922.749l-3.353,2.052,3,1.741,3.356-2.054Z" transform="translate(-12174.675 -878.25)" fill="#afb1e2"/>
        <path id="Trazado_3320" data-name="Trazado 3320" d="M12258.382,921.206l-2.89-1.673-3.346,2.049,2.885,1.675Z" transform="translate(-12173.908 -877.805)" fill="#afb1e2"/>
        <path id="Trazado_3321" data-name="Trazado 3321" d="M12216.753,901.05l3.015,1.749,3.314-2.028-3.019-1.747Z" transform="translate(-12169.016 -874.969)" fill="#afb1e2"/>
        <path id="Trazado_3322" data-name="Trazado 3322" d="M12252.758,917.95l-3.332-1.928-3.34,2.044,3.327,1.931Z" transform="translate(-12173.07 -877.32)" fill="#afb1e2"/>
        <path id="Trazado_3323" data-name="Trazado 3323" d="M12219.6,896.116l3.363,1.951,3.311-2.027-3.366-1.949Z" transform="translate(-12169.409 -874.287)" fill="#afb1e2"/>
        <path id="Trazado_3324" data-name="Trazado 3324" d="M12213.514,892.583l3.354,1.946,3.3-2.023-3.357-1.943Z" transform="translate(-12168.566 -873.799)" fill="#afb1e2"/>
        <path id="Trazado_3325" data-name="Trazado 3325" d="M12231.679,903.12l2.8,1.623,3.322-2.034-2.8-1.621Z" transform="translate(-12171.08 -875.255)" fill="#afb1e2"/>
        <path id="Trazado_3326" data-name="Trazado 3326" d="M12243.179,909.792l2.9,1.681,3.3-2.019.175.058-3.038-1.759Z" transform="translate(-12172.668 -876.176)" fill="#afb1e2"/>
        <path id="Trazado_3327" data-name="Trazado 3327" d="M12225.706,899.656l3.252,1.887,3.317-2.031-3.256-1.884Z" transform="translate(-12170.253 -874.776)" fill="#afb1e2"/>
        <path id="Trazado_3328" data-name="Trazado 3328" d="M12208.035,889.405l2.827,1.64,3.3-2.019-2.83-1.638Z" transform="translate(-12167.81 -873.36)" fill="#afb1e2"/>
        <path id="Trazado_3329" data-name="Trazado 3329" d="M12190.091,878.995l3.579,2.077,3.281-2.009-3.584-2.075Z" transform="translate(-12165.33 -871.923)" fill="#afb1e2"/>
        <path id="Trazado_3330" data-name="Trazado 3330" d="M12190.63,875.4l-3.344-1.931-3.273,2,3.341,1.932Z" transform="translate(-12164.488 -871.437)" fill="#afb1e2"/>
        <path id="Trazado_3331" data-name="Trazado 3331" d="M12196.444,882.681l3.126,1.814,3.286-2.012-3.129-1.811Z" transform="translate(-12166.208 -872.432)" fill="#afb1e2"/>
        <path id="Trazado_3332" data-name="Trazado 3332" d="M12202.271,886.06l3.073,1.783,3.293-2.016-3.076-1.781Z" transform="translate(-12167.014 -872.899)" fill="#afb1e2"/>
        <path id="Trazado_3333" data-name="Trazado 3333" d="M12237.123,906.279l3.324,1.929,3.33-2.038-3.33-1.926Z" transform="translate(-12171.831 -875.691)" fill="#afb1e2"/>
        <path id="Trazado_3334" data-name="Trazado 3334" d="M12251.642,914.7l3.342-2.045-2.907-1.682-3.336,2.043Z" transform="translate(-12173.438 -876.622)" fill="#afb1e2"/>
        <path id="Trazado_3335" data-name="Trazado 3335" d="M12264.088,917.928l-3.35,2.05,5.141,2.983,3.356-2.054Z" transform="translate(-12175.096 -877.583)" fill="#afb1e2"/>
        <path id="Trazado_3336" data-name="Trazado 3336" d="M12257.65,914.2l-3.343,2.046,3.646,2.116,3.348-2.049Z" transform="translate(-12174.207 -877.068)" fill="#afb1e2"/>
        <path id="Trazado_3337" data-name="Trazado 3337" d="M12237.729,897.95l-3.67-2.124-1.767,1.081,3.666,2.127Z" transform="translate(-12171.163 -874.527)" fill="#afb1e2"/>
        <path id="Trazado_3338" data-name="Trazado 3338" d="M12201.007,876.692l-3.375-1.954-1.729,1.058,3.372,1.956Z" transform="translate(-12166.133 -871.612)" fill="#afb1e2"/>
        <path id="Trazado_3339" data-name="Trazado 3339" d="M12243.852,901.5l-3.334-1.93-1.773,1.085,3.331,1.933Z" transform="translate(-12172.055 -875.044)" fill="#afb1e2"/>
        <path id="Trazado_3340" data-name="Trazado 3340" d="M12255.926,908.484l-3.035-1.757-1.786,1.093,3.032,1.759Z" transform="translate(-12173.765 -876.034)" fill="#afb1e2"/>
        <path id="Trazado_3341" data-name="Trazado 3341" d="M12250.122,905.125l-3.535-2.046-1.779,1.089,3.531,2.048Z" transform="translate(-12172.894 -875.53)" fill="#afb1e2"/>
        <path id="Trazado_3342" data-name="Trazado 3342" d="M12231.389,894.28l-2.924-1.692-1.758,1.077,2.918,1.694Z" transform="translate(-12170.392 -874.08)" fill="#afb1e2"/>
        <path id="Trazado_3343" data-name="Trazado 3343" d="M12219.479,887.387l-2.853-1.651-1.747,1.07,2.849,1.653Z" transform="translate(-12168.756 -873.132)" fill="#afb1e2"/>
        <path id="Trazado_3344" data-name="Trazado 3344" d="M12225.694,890.984l-3.557-2.059-1.754,1.073,3.553,2.061Z" transform="translate(-12169.517 -873.573)" fill="#afb1e2"/>
        <path id="Trazado_3345" data-name="Trazado 3345" d="M12213.783,884.088l-4.022-2.328-1.742,1.066,4.019,2.331Z" transform="translate(-12167.808 -872.582)" fill="#afb1e2"/>
        <path id="Trazado_3346" data-name="Trazado 3346" d="M12207.033,880.181l-3.285-1.9-1.735,1.062,3.28,1.9Z" transform="translate(-12166.977 -872.101)" fill="#afb1e2"/>
        <path id="Trazado_3347" data-name="Trazado 3347" d="M12262.145,912.084l-3.531-2.044-1.791,1.1,3.527,2.046Z" transform="translate(-12174.555 -876.492)" fill="#afb1e2"/>
        <path id="Trazado_3348" data-name="Trazado 3348" d="M12194.871,873.139l-3.475-2.029-1.725,1.055,3.474,2.031Z" transform="translate(-12165.27 -871.11)" fill="#afb1e2"/>
        <path id="Trazado_3349" data-name="Trazado 3349" d="M12268.3,915.647l-3.388-1.96-1.8,1.1,3.383,1.963Z" transform="translate(-12175.425 -876.997)" fill="#afb1e2"/>
        <path id="Trazado_3350" data-name="Trazado 3350" d="M12271.043,917.235l-1.8,1.1,2.674,1.552,1.808-1.106Z" transform="translate(-12176.271 -877.487)" fill="#afb1e2"/>
        <path id="Trazado_3351" data-name="Trazado 3351" d="M12238.654,929.851l-1.05.613,2.685,1.553,1.052-.615Z" transform="translate(-12171.897 -879.231)" fill="#afb1e2"/>
      </g>
    </g>
    <g id="Grupo_2092" data-name="Grupo 2092" transform="translate(12233.904 870.234)">
      <path id="Trazado_3352" data-name="Trazado 3352" d="M12334.051,932.663s-12.926,7.432-15.3,8.671-1.509,2.747.646,4.148,24.021,14,26.93,15.727,6.031,2.047,11.956-1.077,21.286-12.609,23.914-14.381,6.785-4.74,0-7.217-14.112-5.224-14.112-5.224Z" transform="translate(-12314.112 -894.191)" fill="#dddcfb"/>
      <path id="Trazado_3353" data-name="Trazado 3353" d="M12332.523,925.831v11.418c0,1.652,2.485,12.567,20.919,12.567s21.09-9.91,21.09-11.49V924.538Z" transform="translate(-12316.213 -893.068)" fill="#01408d"/>
      <path id="Trazado_3354" data-name="Trazado 3354" d="M12313.605,913.371v3.089a4.16,4.16,0,0,0,2.012,2.226c1.653.933,28.726,16.948,30.952,17.81a11.014,11.014,0,0,0,10.411-1.077c4.524-2.8,29.587-17.666,29.587-17.666s1.473-.719,1.49-1.939,0-2.442,0-2.442Z" transform="translate(-12313.598 -891.524)" fill="#166fd8"/>
      <path id="Trazado_3355" data-name="Trazado 3355" d="M12316.478,906.85c-2.514,1.437-4.164,3.16-1.579,4.668s28.652,16.732,31.309,18.24a10.27,10.27,0,0,0,9.265,0c2.513-1.436,29.658-17.45,31.524-18.6s1.222-2.37-1.58-3.805-31.022-17.881-32.89-18.887-3.949-.216-6.965,1.364S12316.478,906.85,12316.478,906.85Z" transform="translate(-12313.596 -888.019)" fill="#0058c2"/>
      <path id="Trazado_3356" data-name="Trazado 3356" d="M12388.422,935.975s-.538,7.7-2.314,10.18a7.145,7.145,0,0,0,8.778-.108s-2.319-6.262-2.315-10.072Z" transform="translate(-12323.621 -894.649)" fill="#9a0201"/>
      <ellipse id="Elipse_301" data-name="Elipse 301" cx="3.716" cy="3.151" rx="3.716" ry="3.151" transform="translate(63.132 36.964)" fill="#fc6868"/>
      <path id="Trazado_3357" data-name="Trazado 3357" d="M12357.288,911.274s23.481,5.314,26.5,5.961,3.662,2.082,3.662,4.057v8.294c0,.682-.108,1.9-1.329,1.9s-1.509-1.149-1.509-2.334.108-6.678.108-7.4-.144-1.688-1.113-1.9-26.5-6.1-27.4-6.355a1.03,1.03,0,0,1-.861-1.364C12355.492,911.633,12355.784,910.933,12357.288,911.274Z" transform="translate(-12319.362 -891.221)" fill="#fe2525"/>
    </g>
    <g id="Grupo_2096" data-name="Grupo 2096" transform="translate(12039.605 783.581)">
      <g id="Grupo_2093" data-name="Grupo 2093" transform="translate(0 25.501)">
        <path id="Trazado_3358" data-name="Trazado 3358" d="M12088.124,835.18l45.994,26.714v9.587l-45.994-26.606Z" transform="translate(-12088.124 -819.561)" fill="#ebb200"/>
        <path id="Trazado_3359" data-name="Trazado 3359" d="M12143.043,869.794v-5.817l30.232-18.14v-1.824l-31.777,19.1V872.7l31.777-18.779v-2.283Z" transform="translate(-12095.503 -820.783)" fill="#d49f02"/>
        <path id="Trazado_3360" data-name="Trazado 3360" d="M12088.123,835.18" transform="translate(-12088.123 -819.561)" fill="none" stroke="#fe2525" stroke-miterlimit="10" stroke-width="1"/>
        <path id="Trazado_3361" data-name="Trazado 3361" d="M12165.9,840.286l-44.595-23.231-33.177,15.619,45.994,26.714Z" transform="translate(-12088.124 -817.055)" fill="#f9d008"/>
        <path id="Trazado_3362" data-name="Trazado 3362" d="M12091.163,833.631l45.577,26.624,1.413-.85-45.43-26.509Z" transform="translate(-12088.543 -819.245)" fill="#d49f02"/>
        <path id="Trazado_3363" data-name="Trazado 3363" d="M12178.373,852.865" transform="translate(-12100.602 -822.006)" fill="none"/>
        <path id="Trazado_3364" data-name="Trazado 3364" d="M12171.692,852.18l-28.4,16.535v2.208l30.233-18.153Z" transform="translate(-12095.751 -821.912)" fill="#f9d008"/>
        <path id="Trazado_3365" data-name="Trazado 3365" d="M12171.692,851.52v-4.115l-28.4,17.041v3.609Z" transform="translate(-12095.751 -821.251)" fill="#eee4cb"/>
      </g>
      <g id="Grupo_2094" data-name="Grupo 2094" transform="translate(1.867 12.797)">
        <path id="Trazado_3366" data-name="Trazado 3366" d="M12090.29,830.063l45.814,26.355v2.442l-45.814-26.283Z" transform="translate(-12090.29 -806.149)" fill="#00a0d1"/>
        <path id="Trazado_3367" data-name="Trazado 3367" d="M12176.06,830.063v10.054l-32.6,18.743v-2.442l30.592-17.737v-5.745l-30.592,17.881V848.59Z" transform="translate(-12097.642 -806.149)" fill="#00779b"/>
        <path id="Trazado_3368" data-name="Trazado 3368" d="M12136.1,849.5l-45.814-26.481v-2.481l45.814,26.735Z" transform="translate(-12090.29 -804.833)" fill="#00a0d1"/>
        <path id="Trazado_3369" data-name="Trazado 3369" d="M12090.29,818.018l29.73-15.705,48.688,23.913-32.6,18.527Z" transform="translate(-12090.29 -802.313)" fill="#00aeef"/>
        <path id="Trazado_3370" data-name="Trazado 3370" d="M12090.29,829.968l1.712-.59,44.1,25.222,29.515-16.786V833.47l1.077-.63v5.745l-30.592,17.737Z" transform="translate(-12090.29 -806.055)" fill="#00aeef"/>
        <path id="Trazado_3371" data-name="Trazado 3371" d="M12092.277,828.712v-4.147l44.1,25.491v3.878Z" transform="translate(-12090.565 -805.39)" fill="#fcf7eb"/>
        <path id="Trazado_3372" data-name="Trazado 3372" d="M12172.971,834.127v4.343l-29.515,16.786v-3.878Z" transform="translate(-12097.642 -806.711)" fill="#e2d8bd"/>
        <path id="Trazado_3373" data-name="Trazado 3373" d="M12120.095,804.662l48.44,24.228,1.447-.83-48.4-24.181Z" transform="translate(-12094.411 -802.529)" fill="#00779b"/>
      </g>
      <g id="Grupo_2095" data-name="Grupo 2095" transform="translate(1.185)">
        <path id="Trazado_3374" data-name="Trazado 3374" d="M12089.5,806.646l46,26.714v9.587l-46-26.606Z" transform="translate(-12089.498 -790.115)" fill="#d02c5f"/>
        <path id="Trazado_3375" data-name="Trazado 3375" d="M12144.417,841.259v-5.817l30.232-18.14v-1.824l-31.776,19.1v9.587l31.776-18.779v-2.283Z" transform="translate(-12096.878 -791.336)" fill="#ac2956"/>
        <path id="Trazado_3376" data-name="Trazado 3376" d="M12089.5,806.646" transform="translate(-12089.498 -790.115)" fill="none" stroke="#fe2525" stroke-miterlimit="10" stroke-width="1"/>
        <path id="Trazado_3377" data-name="Trazado 3377" d="M12167.27,811.605l-42.658-24.143-35.113,16.531,46,26.714Z" transform="translate(-12089.498 -787.463)" fill="#ed497c"/>
        <path id="Trazado_3378" data-name="Trazado 3378" d="M12092.538,805.1l45.576,26.624,1.415-.85-45.43-26.509Z" transform="translate(-12089.918 -789.799)" fill="#d02c5f"/>
        <path id="Trazado_3379" data-name="Trazado 3379" d="M12179.748,824.33" transform="translate(-12101.977 -792.56)" fill="none"/>
        <path id="Trazado_3380" data-name="Trazado 3380" d="M12173.066,823.646l-28.4,16.535v2.208l30.232-18.153Z" transform="translate(-12097.126 -792.465)" fill="#ed497c"/>
        <path id="Trazado_3381" data-name="Trazado 3381" d="M12173.066,822.985V818.87l-28.4,17.041v3.609Z" transform="translate(-12097.126 -791.805)" fill="#eee4cb"/>
      </g>
    </g>
    <g id="Grupo_2097" data-name="Grupo 2097" transform="translate(12141.431 788.332)">
      <ellipse id="Elipse_302" data-name="Elipse 302" cx="16.046" cy="27.974" rx="16.046" ry="27.974" transform="matrix(0.764, -0.646, 0.646, 0.764, 5.543, 20.721)" fill="#0d85d6"/>
      <path id="Trazado_3382" data-name="Trazado 3382" d="M12252.481,818.012c-9.089-10.749-21.454-15.236-27.619-10.022a8.656,8.656,0,0,0-.946.944l-4.676,4.665,5.794,19.461,4.812,3.452c.1.126.2.253.31.377,4.9,5.8,10.756,9.768,16.076,11.383l5.92,4.248,5.622-5.609C12263.939,841.7,12261.569,828.76,12252.481,818.012Z" transform="translate(-12208.077 -794.751)" fill="#df337d"/>
      <ellipse id="Elipse_303" data-name="Elipse 303" cx="14.619" cy="25.486" rx="14.619" ry="25.486" transform="matrix(0.764, -0.646, 0.646, 0.764, 0, 28.287)" fill="#ff65a7"/>
      <path id="Trazado_3383" data-name="Trazado 3383" d="M12229.776,818.541v26.5l20.789-1.724Z" transform="translate(-12209.534 -796.511)" fill="#fff"/>
    </g>
    <g id="Grupo_2122" data-name="Grupo 2122" transform="translate(11737.213 861.84)">
      <g id="Grupo_2107" data-name="Grupo 2107" transform="translate(246.638 11.326)">
        <g id="Grupo_2098" data-name="Grupo 2098" transform="translate(42.32 21.284)">
          <path id="Trazado_3384" data-name="Trazado 3384" d="M12072.866,916.12s7.458,0,8.122,2.154-.971,7.815-8.455,8.4v-1.006s5.889-2.154,6.607-4.272.933-3.555-6.607-4.057Z" transform="translate(-12072.533 -916.12)" fill="#2e3192"/>
        </g>
        <g id="Grupo_2105" data-name="Grupo 2105">
          <g id="Grupo_2104" data-name="Grupo 2104">
            <g id="Grupo_2099" data-name="Grupo 2099" transform="translate(44.974 0.478)">
              <path id="Trazado_3385" data-name="Trazado 3385" d="M12079.119,891.975c1.233,1.017-.817,5.955-.817,5.955-2.654.819-3.119-.724-2.361-1.724S12079.119,891.975,12079.119,891.975Z" transform="translate(-12075.612 -891.975)" fill="#003676"/>
            </g>
            <g id="Grupo_2100" data-name="Grupo 2100" transform="translate(36.892 18.135)">
              <path id="Trazado_3386" data-name="Trazado 3386" d="M12066.232,920.8s3.895-4.36,7.212-8.333c0,1.189-.033,3.206-.146,5.6l-6.522,7.256A15.755,15.755,0,0,0,12066.232,920.8Z" transform="translate(-12066.232 -912.465)" fill="#ee8a56"/>
            </g>
            <g id="Grupo_2101" data-name="Grupo 2101" transform="translate(39.363)">
              <path id="Trazado_3387" data-name="Trazado 3387" d="M12069.768,891.433a2.259,2.259,0,0,1,2.688,2.482c-1.689.776-3.2,1.706-3.344.129A5.436,5.436,0,0,1,12069.768,891.433Z" transform="translate(-12069.102 -891.421)" fill="#003676"/>
            </g>
            <g id="Grupo_2102" data-name="Grupo 2102" transform="translate(26.99 23.736)">
              <path id="Trazado_3388" data-name="Trazado 3388" d="M12059.7,944.533c-3.31-.758-4.576-4.343-4.955-8.126a6.035,6.035,0,0,0,.9-2.533s2.431,2.844,5.446.991c2.232-1.379,4-4.576,4.093-8.643l6.523-7.256c-.206,4.955-.732,11.556-2,15.9C12067.453,942.594,12064.541,944.964,12059.7,944.533Z" transform="translate(-12054.743 -918.965)" fill="#feb37c"/>
            </g>
            <g id="Grupo_2103" data-name="Grupo 2103" transform="translate(3.826 41.178)">
              <path id="Trazado_3389" data-name="Trazado 3389" d="M12055.982,947.331l-9.592,12.4-18.527-14.986s1.594-1.844,3.542-4.093a15.3,15.3,0,0,0,7.446,2.585c7.7.724,10.874-1.9,12.176-4.033C12051.406,942.988,12052.673,946.573,12055.982,947.331Z" transform="translate(-12027.863 -939.205)" fill="#ee8a56"/>
            </g>
            <path id="Trazado_3390" data-name="Trazado 3390" d="M12060.856,922.414a15.755,15.755,0,0,0-.543-4.524s3.895-4.36,7.212-8.333c0-.184,0-.346.007-.488,0,.141,0,.3-.007.488,1.827-2.189,3.481-4.257,4.215-5.4,2.043-3.232,1.447-5.5-.654-6.3-2.654.819-3.119-.724-2.361-1.723s3.179-4.231,3.179-4.231a.839.839,0,0,0-.543-.19c-1.671-.034-3.722,1.181-4.678,1.818a1.687,1.687,0,0,1-.543.388c-1.689.776-3.2,1.706-3.344.129a5.446,5.446,0,0,1,.654-2.611,11.73,11.73,0,0,0-4.463,1.568s-8.309-1.181-19.355,3.611-16.2,14.6-16.21,20.733c0,4.335,1.276,12.487,7.368,16.7a15.3,15.3,0,0,0,7.446,2.585c7.7.724,10.875-1.9,12.177-4.033a6.025,6.025,0,0,0,.9-2.534s2.431,2.844,5.446.991c2.232-1.379,4-4.576,4.094-8.643" transform="translate(-12023.422 -891.423)" fill="#0058c2"/>
          </g>
        </g>
        <g id="Grupo_2106" data-name="Grupo 2106" transform="translate(34.533 23.079)">
          <path id="Trazado_3391" data-name="Trazado 3391" d="M12064.246,927.108s-.934.646-.719,1.508,1.006.431,2.084,0,11.346-7.613,12.638-8.186,2.083-2.227.935-2.227S12064.246,927.108,12064.246,927.108Z" transform="translate(-12063.495 -918.203)" fill="#dd2b79"/>
        </g>
      </g>
      <g id="Grupo_2109" data-name="Grupo 2109" transform="translate(93.152)">
        <g id="Grupo_2108" data-name="Grupo 2108">
          <path id="Trazado_3392" data-name="Trazado 3392" d="M12152.163,899.184c.474.7,1.869,1.181,1.067,3.5s-5.17,6.842-9,10.074-4.792,3.714-6.843,7.213-3.981,10.289-9.264,19.019c-3.464,5.722-7,11.5-9.686,15.365,0,0-9.108.3-15.141-.776a34.062,34.062,0,0,1-11.289-4.567,76.214,76.214,0,0,1,9.454.1s3.446-7.385,6.032-11.478,14.761-17.123,17.993-20.733,5.979-9.695,8.884-17.45,6.678-11.633,10.987-15.89,5.869-5.6,6.2-5.222a3.688,3.688,0,0,1-.7,4.852c-2.215,2.258-6.093,5.972-5.98,8.833,0,0,1.456-.06,3.283,1.879A40.879,40.879,0,0,1,12152.163,899.184Z" transform="translate(-11879.42 -878.277)" fill="#feb37c"/>
          <path id="Trazado_3393" data-name="Trazado 3393" d="M12102.71,964.925c6.033,1.077,15.141.776,15.141.776a26.368,26.368,0,0,1-3.4,4.24c-2.37,2.042-6.085,3.714-12.383,4.791s-14.333,1.672-14.333,1.672l.647-15.942s1.274-.052,3.033-.1h.009A34.051,34.051,0,0,0,12102.71,964.925Z" transform="translate(-11878.827 -889.626)" fill="#ee8a56"/>
          <path id="Trazado_3394" data-name="Trazado 3394" d="M11926.929,941.4l-.691,7.575c-2.739,2.654-26.765,9.005-27.514,9.2-.01.009-.01,0-.01,0-11.159-.629-18.406-3.128-21.189-3.163-3.154-.043-8.109.6-13.211-1.4a41.066,41.066,0,0,0-13.572-2.878c-3.809-.138-6.031-1.724-3.516-1.758s10.125-.534,12.2-1.327c0,0-8.97-1.68-11.7-3.171s-3.731-3.507.146-2.93,10.557.957,12.564,1.017c0,0-8.9-2.378-10.411-3.671s-3.161-4.688,1.794-2.637a48.63,48.63,0,0,0,11.848,3.051s-6.462-7.454-3.378-6.454c0,0,1.586.793,4.31,2.3s8.048,6.437,10.418,7.385,3.947,2.74,7.756,2.378,15.434-2.87,24.413-4.093S11921.551,939.764,11926.929,941.4Z" transform="translate(-11845.311 -885.81)" fill="#feb37c"/>
          <path id="Trazado_3395" data-name="Trazado 3395" d="M11934.808,951.578l-.593,6.523s-8.334,2.887-22.19,2.826c-1.646-.009-3.224-.06-4.73-.146C11908.043,960.583,11932.068,954.232,11934.808,951.578Z" transform="translate(-11853.881 -888.412)" fill="#f08a57"/>
        </g>
      </g>
      <g id="Grupo_2112" data-name="Grupo 2112" transform="translate(145.76 45.675)">
        <g id="Grupo_2111" data-name="Grupo 2111">
          <path id="Trazado_3396" data-name="Trazado 3396" d="M12082.375,965.244c-1.481-.206-3.119-.371-4.895-.464-.741-.052-1.507-.078-2.292-.1a120.771,120.771,0,0,0-32.9,4.067c-10.22,2.663-16.148,6.455-19.362,9.256-.07.275-.131.551-.19.835-3.016,14.65,17.191,16.3,17.191,16.3,8.084-6.678,17.235-14.865,20.579-15.3s4.094-.535,10.668-.966c2.6-.172,5.041-.4,7.032-.6,1.283-.128,2.386-.258,3.231-.361,1.137-.13,1.8-.224,1.8-.224S12085.779,972.276,12082.375,965.244Z" transform="translate(-11922.408 -935.894)" fill="#dd2b79"/>
          <path id="Trazado_3397" data-name="Trazado 3397" d="M12077.172,957.066s-2.051-.085-5.18-.19c-.551-.017-1.128-.034-1.74-.06-8.737-.266-23.2-.56-27.886.25,0,0-15.908,5.765-19.362,19.812,3.214-2.8,9.143-6.593,19.362-9.256a120.771,120.771,0,0,1,32.9-4.067c.785.026,1.551.052,2.292.1,1.775.094,3.413.259,4.895.464A24.522,24.522,0,0,0,12077.172,957.066Z" transform="translate(-11922.487 -934.773)" fill="#ff65ab"/>
          <path id="Trazado_3398" data-name="Trazado 3398" d="M11950.2,935.676c-1.362.371-2.689.75-3.93,1.12a54.8,54.8,0,0,0-6.421,2.344s-2.085,1.741-3.223,6.661l6.583-1.043.3-.052s1.4-.336,3.378-.819c2.6-.629,6.205-1.508,8.971-2.2a40.814,40.814,0,0,1,9.885-1.06,62.113,62.113,0,0,1,10.409-9.246C11972.867,930.773,11960.27,932.97,11950.2,935.676Z" transform="translate(-11910.544 -931.281)" fill="#ff65ab"/>
          <path id="Trazado_3399" data-name="Trazado 3399" d="M11955.741,943.19c-2.766.689-6.368,1.568-8.971,2.2-1.981.483-3.378.819-3.378.819l-.3.052-6.583,1.043a35.267,35.267,0,0,0-.543,11.022l5.248-.1,2.946-.061,12.039-.233c.018-.052.034-.1.051-.163a42.842,42.842,0,0,1,9.377-15.633A40.819,40.819,0,0,0,11955.741,943.19Z" transform="translate(-11910.429 -932.78)" fill="#dd2b79"/>
          <g id="Grupo_2110" data-name="Grupo 2110" transform="translate(0 1.225)">
            <path id="Trazado_3400" data-name="Trazado 3400" d="M12018.933,942.568a20.57,20.57,0,0,1,5.6,7.23c-6.912,3.688-18.011,11.513-23.741,21.457-7.608,13.211-12.633,16.657-22.542,22.552s-19.252,3.154-29.446,8.9c-7.523,4.24-13.875,14.27-16.692,19.234-1.9-1.706-3.128-2.93-3.128-2.93l-22.562-26.249c-.258-1.948.053-3.232,5.431-3.774,5.394-.534,20.578-5.058,31.781-12.814,11.029-7.635,16.838-19.346,17.01-19.708l.009-.009s8.333-14.357,11.7-17.3,12.883-5.877,15.735-6.093l.457.026C12006.867,930.823,12014.192,939.121,12018.933,942.568Z" transform="translate(-11906.359 -932.703)" fill="#ff65ab"/>
          </g>
          <path id="Trazado_3401" data-name="Trazado 3401" d="M11979.311,931.4a62.181,62.181,0,0,0-10.41,9.246,42.843,42.843,0,0,0-9.376,15.632c-.018.06-.034.112-.052.164l4.438-.086,4.085-.078s8.333-14.357,11.7-17.3,12.882-5.876,15.734-6.092C11993.2,932.755,11983.4,932.159,11979.311,931.4Z" transform="translate(-11913.703 -931.298)" fill="#b71a5f"/>
          <path id="Trazado_3402" data-name="Trazado 3402" d="M12010.817,977.161c.06-.284.12-.56.19-.835,3.455-14.047,19.362-19.812,19.362-19.812a31.088,31.088,0,0,0-1.706-3.972c-6.911,3.688-18.01,11.512-23.74,21.456-7.608,13.211-12.633,16.658-22.543,22.552s-19.251,3.155-29.446,8.9c-7.523,4.24-13.874,14.27-16.691,19.235,4.36,3.929,12.228,10.393,16.588,10.245,6.239-.215,7.325-3.878,8.825-7.109,1.517-3.231,3.878-9.048,8.514-10.987s19.716-5.928,32.531-10.125c10.271-3.369,15.156-5.567,20.854-9.746,1.405-1.033,2.86-2.188,4.455-3.506C12028.01,993.457,12007.8,991.811,12010.817,977.161Z" transform="translate(-11910.491 -934.221)" fill="#b71a5f"/>
        </g>
      </g>
      <g id="Grupo_2113" data-name="Grupo 2113" transform="translate(18.011 107.965)">
        <path id="Trazado_3403" data-name="Trazado 3403" d="M11765.653,1088.015s18.528-11.633,26.284-15.727,10.426-6.261,14.326-7.181c4.167-.982,12.1-.287,17.127,0,0,0,18.743-24.344,28.8-32.961s14.009-11.92,16.053-14.219,12.1-12.064,23.587-14.363a65.252,65.252,0,0,1,16.66,6.679l-17.666,29.73-4.524,2.37s-8.042,7.613-19.029,17.881-26,19.461-29.8,22.118-13.357,4.022-17.738,4.237-22.62,7.4-22.835,7.683-31.741,17.235-38.778,21.472Z" transform="translate(-11758.114 -1003.565)" fill="#003676"/>
      </g>
      <g id="Grupo_2114" data-name="Grupo 2114" transform="translate(18.011 122.174)">
        <path id="Trazado_3404" data-name="Trazado 3404" d="M11796.893,1096.543c.215-.287,18.455-7.468,22.835-7.683s13.932-1.581,17.738-4.237,18.814-11.849,29.8-22.118,19.029-17.881,19.029-17.881l4.524-2.37,9.516-16.013-5.233-6.187s-6.723,3.313-21.229,14.947-24.416,27.288-29.3,31.74-19.1,10.916-28.293,11.777-17.521,5.457-29.443,11.776-26.032,17.826-26.032,17.826l-2.691,9.894C11765.151,1113.777,11796.676,1096.831,11796.893,1096.543Z" transform="translate(-11758.114 -1020.054)" fill="#001736"/>
      </g>
      <g id="Grupo_2115" data-name="Grupo 2115" transform="translate(66.16 114.644)">
        <path id="Trazado_3405" data-name="Trazado 3405" d="M11814.742,1120.971s27.145.431,39.64,1.077,20.467,4.74,32.531-6.248,28.868-28.007,36.193-46.965,5.6-21.974,10.125-24.56l4.523-2.585s3.663-23.913-21.543-30.376c0,0-25.637,7.109-22.19,32.1,0,0-18.957,49.981-21.112,57.306,0,0-.646,0-7.324-.646s-8.617-1.508-18.636-.969-27.684,3.016-29.406,3.016l-3.555,5.6Z" transform="translate(-11813.988 -1011.315)" fill="#0058c2"/>
      </g>
      <g id="Grupo_2116" data-name="Grupo 2116" transform="translate(66.162 121.556)">
        <path id="Trazado_3406" data-name="Trazado 3406" d="M11814.744,1122.08s27.145.431,39.64,1.077,20.467,4.74,32.53-6.248,28.869-28.006,36.193-46.965,5.6-21.974,10.125-24.56l4.524-2.585s2.129-13.994-8.154-23.464c-6.674,1.488-11.029,11.586-17.7,21.023-7.612,10.772-16.8,45.384-23.123,59.891s-15.368,10.772-17.953,11.2-25.278-3.447-34.471-4.453c-5.543-.606-15.155.3-21.917,1.119l-.452.713Z" transform="translate(-11813.989 -1019.336)" fill="#003676"/>
      </g>
      <g id="Grupo_2117" data-name="Grupo 2117" transform="translate(42.678 204.395)">
        <path id="Trazado_3407" data-name="Trazado 3407" d="M11806.02,1116.09s5.6-2.262,8.726,1.831c0,0,2.262,8.589-4.363,19.806s-6.624,12.617-10.825,19.188a10.764,10.764,0,0,1-12.818,4.524Z" transform="translate(-11786.738 -1115.466)" fill="#7893b0"/>
      </g>
      <g id="Grupo_2118" data-name="Grupo 2118" transform="translate(39.572 204.394)">
        <path id="Trazado_3408" data-name="Trazado 3408" d="M11791.733,1134.079c3.942-10.251,10.664-18.482,15.4-18.612s1.508,9.348,0,13.872-8.94,17.02-10.448,21.759-2.37,12.926-10.448,10.341S11787.963,1143.881,11791.733,1134.079Z" transform="translate(-11783.134 -1115.465)" fill="#a7c4e4"/>
      </g>
      <g id="Grupo_2119" data-name="Grupo 2119" transform="translate(4.223 188.769)">
        <path id="Trazado_3409" data-name="Trazado 3409" d="M11742.113,1142.02l18.527-44.487s6.463-1.831,6.895,5.6-3.664,12.818-5.062,17.343-9.373,14.865-10.127,16.589S11748.145,1144.067,11742.113,1142.02Z" transform="translate(-11742.113 -1097.333)" fill="#7893b0"/>
      </g>
      <g id="Grupo_2120" data-name="Grupo 2120" transform="translate(0 189.288)">
        <path id="Trazado_3410" data-name="Trazado 3410" d="M11741.437,1117.759c4.85-6.8,10.771-15.188,14.648-17.666s5.925-2.585,6.787-1.508.215,4.847-3.555,12.388-7.109,14.649-8.511,20.251-5.708,12.239-8.725,11.344S11733.172,1129.341,11741.437,1117.759Z" transform="translate(-11737.214 -1097.936)" fill="#a7c4e4"/>
      </g>
      <g id="Grupo_2121" data-name="Grupo 2121" transform="translate(246.596 18.538)">
        <path id="Trazado_3411" data-name="Trazado 3411" d="M12023.759,915.582s-.033,1.87,11.624,2.843c11.929.994,20.79-1.508,28.438-9.695s8.079-8.94,8.079-8.94,3.985.215.862,4.309-22.5,30.528-49.111,17.817C12023.449,919.751,12023.094,918.269,12023.759,915.582Z" transform="translate(-12023.373 -899.79)" fill="#003676"/>
      </g>
    </g>
    <g id="Grupo_2124" data-name="Grupo 2124" transform="translate(12193.834 927.676)">
      <g id="Grupo_2123" data-name="Grupo 2123">
        <path id="Trazado_3412" data-name="Trazado 3412" d="M12294.012,964.774a7.267,7.267,0,0,1,.982-.327,7.214,7.214,0,0,0,.087-1.077h.007c2.328.422,1,1.861-.6,2.646A1.117,1.117,0,0,0,12294.012,964.774Z" transform="translate(-12270.817 -955.878)" fill="#b1cbda"/>
        <path id="Trazado_3413" data-name="Trazado 3413" d="M12279.209,975.28c-4.809.25-8.4-.431-10.841-2.766a4.145,4.145,0,0,1-.827-4.869,3.854,3.854,0,0,0,1.258,2.4c3.154,3.232,7.54,5.058,11.9,2.085s6.809-4.826,8.7-5.2a5.549,5.549,0,0,0,1.361-.491C12290.266,969.334,12282.905,975.091,12279.209,975.28Z" transform="translate(-12267.097 -956.303)" fill="#dddcfb"/>
        <path id="Trazado_3414" data-name="Trazado 3414" d="M12294.446,961.259a9.339,9.339,0,0,1,.112,1.818,39.808,39.808,0,0,0-4.325-.508A15.134,15.134,0,0,1,12294.446,961.259Z" transform="translate(-12270.297 -955.587)" fill="#dae7ef"/>
        <path id="Trazado_3415" data-name="Trazado 3415" d="M12268.868,969.832a3.856,3.856,0,0,1-1.259-2.4,3.257,3.257,0,0,1,.982-2.508,8.392,8.392,0,0,0-.154,1.344s0,1.87,2.653,3.662a9.481,9.481,0,0,0,10.022,0,46.759,46.759,0,0,1,7.608-4.309c.716-.293,1.25-.5,1.638-.638a1.116,1.116,0,0,1,.474,1.241,5.543,5.543,0,0,1-1.36.491c-1.9.371-4.344,2.215-8.705,5.2S12272.021,973.064,12268.868,969.832Z" transform="translate(-12267.165 -956.094)" fill="#b1cbda"/>
        <path id="Trazado_3416" data-name="Trazado 3416" d="M12287.769,955.424c2.956-.646,4.386,2.24,4.386,2.24-2.611-1.189-7.679,1.336-8.78.913C12282.538,958.25,12284.8,956.07,12287.769,955.424Z" transform="translate(-12269.322 -954.767)" fill="#b1cbda"/>
        <path id="Trazado_3417" data-name="Trazado 3417" d="M12290.494,964.6c-.387.138-.922.345-1.637.638a46.721,46.721,0,0,0-7.609,4.309,9.48,9.48,0,0,1-10.021,0c-2.654-1.792-2.654-3.662-2.654-3.662a9.061,9.061,0,0,1,.99-3.774,20.362,20.362,0,0,0,5.361,3.706c2.879,1.146,4.42.146,7.186-.827,1.318-.465,3.207-1.465,5.129-2.3a39.894,39.894,0,0,1,4.326.508,7.118,7.118,0,0,1-.088,1.077A7.27,7.27,0,0,0,12290.494,964.6Z" transform="translate(-12267.301 -955.704)" fill="#dae7ef"/>
        <path id="Trazado_3418" data-name="Trazado 3418" d="M12290.291,957.574s-1.43-2.887-4.386-2.241-5.231,2.826-4.395,3.154C12282.613,958.91,12287.681,956.385,12290.291,957.574Zm-4.652-2.766c4.291.483,5.609,3.292,5.972,5.541a15.141,15.141,0,0,0-4.214,1.31c-1.922.836-3.81,1.836-5.128,2.3-2.766.974-4.308,1.973-7.186.827a20.362,20.362,0,0,1-5.361-3.705C12272.351,956.075,12279.641,954.127,12285.639,954.808Z" transform="translate(-12267.46 -954.677)" fill="#f6fbfe"/>
      </g>
    </g>
  </g>
</svg>
