<svg xmlns="http://www.w3.org/2000/svg" viewBox="0 0 517.6 356.6"><defs><style>.cls-1{fill:#2e3192;}.cls-2{fill:#003676;}.cls-3{fill:#ee8a56;}.cls-4{fill:#feb37c;}.cls-5{fill:#0058c2;}.cls-6{fill:#dd2b79;}.cls-7{fill:#f08a57;}.cls-8{fill:#ff65ab;}.cls-9{fill:#b71a5f;}.cls-10{fill:#001736;}.cls-11{fill:#7893b0;}.cls-12{fill:#a7c4e4;}</style></defs><title>Artboard 121 copy 2</title><g id="menú_desplegable_de_carrito" data-name="menú desplegable de carrito"><path class="cls-1" d="M407.69,48.14s10.46,0,11.39,3-1.36,11-11.85,11.77V61.52s8.25-3,9.26-6,1.3-5-9.26-5.69Z"/><g id="_Group_" data-name="&lt;Group&gt;"><path class="cls-2" d="M415.86,19c1.73,1.42-1.15,8.34-1.15,8.34-3.71,1.15-4.37-1-3.3-2.41S415.86,19,415.86,19Z"/><path class="cls-3" d="M399.62,55.4s5.46-6.11,10.11-11.68c0,1.67-.05,4.5-.21,7.85l-9.14,10.17A22.16,22.16,0,0,0,399.62,55.4Z"/><path class="cls-2" d="M404,18.33c4.11-.31,3.77,3.47,3.77,3.47-2.36,1.09-4.48,2.4-4.68.19A7.67,7.67,0,0,1,404,18.33Z"/><path class="cls-4" d="M392.69,87.41c-4.64-1.06-6.42-6.09-6.95-11.39A8.5,8.5,0,0,0,387,72.47s3.41,4,7.63,1.39c3.13-1.94,5.61-6.42,5.74-12.12l9.14-10.17c-.29,7-1,16.2-2.8,22.29C403.56,84.69,399.47,88,392.69,87.41Z"/><path class="cls-3" d="M392.69,87.41l-13.45,17.38-26-21,5-5.73a21.52,21.52,0,0,0,10.44,3.62c10.79,1,15.24-2.66,17.06-5.65C386.27,81.32,388.05,86.35,392.69,87.41Z"/><path class="cls-5" d="M400.38,61.74a22.16,22.16,0,0,0-.76-6.34s5.46-6.11,10.11-11.68v0a92.51,92.51,0,0,0,5.9-7.57c2.87-4.53,2-7.7-.92-8.83-3.72,1.15-4.37-1-3.3-2.41S415.86,19,415.86,19a1.15,1.15,0,0,0-.76-.27c-2.34-.05-5.22,1.66-6.56,2.55a2.31,2.31,0,0,1-.76.54c-2.36,1.09-4.48,2.4-4.68.19a7.67,7.67,0,0,1,.91-3.66,16.42,16.42,0,0,0-6.25,2.19s-11.64-1.65-27.13,5.06S347.93,46,347.92,54.64c0,6.08,1.78,17.5,10.32,23.41a21.52,21.52,0,0,0,10.44,3.62c10.79,1,15.24-2.66,17.06-5.65A8.5,8.5,0,0,0,387,72.47s3.41,4,7.63,1.39c3.13-1.94,5.61-6.42,5.74-12.12"/></g><path class="cls-6" d="M397.36,63.13s-1.3.91-1,2.12,1.41.6,2.92,0S415.18,54.58,417,53.77s2.92-3.12,1.31-3.12S397.36,63.13,397.36,63.13Z"/><g id="_Group_2" data-name="&lt;Group&gt;"><path class="cls-4" d="M515.05,31.73c.67,1,2.62,1.66,1.5,4.91s-7.25,9.59-12.61,14.12-6.71,5.2-9.59,10.11-5.58,14.42-13,26.65c-4.86,8-9.81,16.11-13.58,21.53,0,0-12.76.43-21.22-1.08a47.84,47.84,0,0,1-15.82-6.4c4.39-.14,10.89-.25,13.25.14,0,0,4.83-10.35,8.46-16.09s20.68-24,25.21-29.05S486.06,43,490.13,32.11s9.36-16.31,15.39-22.27,8.23-7.85,8.69-7.32,2.11,3.62-1,6.8-8.54,8.37-8.38,12.38c0,0,2-.09,4.6,2.63A58,58,0,0,1,515.05,31.73Z"/><path class="cls-3" d="M446.57,108c8.46,1.51,21.22,1.08,21.22,1.08a36.73,36.73,0,0,1-4.77,6c-3.32,2.86-8.52,5.2-17.35,6.71s-20.09,2.34-20.09,2.34l.91-22.34s1.79-.07,4.25-.14h0A47.84,47.84,0,0,0,446.57,108Z"/><path class="cls-4" d="M247.19,80.35l-1,10.61c-3.84,3.72-37.51,12.62-38.56,12.9,0,0,0,0,0,0C192,103,181.85,99.48,178,99.43c-4.42-.06-11.36.84-18.51-2a57.34,57.34,0,0,0-19-4c-5.34-.2-8.46-2.42-4.93-2.47s14.19-.75,17.1-1.86c0,0-12.57-2.35-16.4-4.44s-5.23-4.92.2-4.11S151.19,81.89,154,82c0,0-12.47-3.34-14.59-5.15s-4.43-6.57,2.51-3.69a68.24,68.24,0,0,0,16.61,4.27s-9.06-10.45-4.73-9c0,0,2.22,1.11,6,3.22s11.28,9,14.6,10.35,5.53,3.84,10.87,3.33,21.63-4,34.21-5.73S239.65,78.05,247.19,80.35Z"/><path class="cls-7" d="M246.22,91l-.83,9.14s-11.68,4.05-31.1,4q-3.45,0-6.63-.21C208.71,103.58,242.38,94.68,246.22,91Z"/></g><g id="_Group_3" data-name="&lt;Group&gt;"><path class="cls-6" d="M430.73,107.58c-2.08-.28-4.37-.51-6.86-.65-1-.07-2.11-.11-3.21-.14a169.16,169.16,0,0,0-46.11,5.7c-14.33,3.73-22.64,9-27.14,13-.1.39-.18.77-.27,1.17-4.22,20.53,24.1,22.84,24.1,22.84,11.32-9.36,24.15-20.83,28.84-21.44s5.73-.75,14.95-1.35c3.65-.24,7.06-.56,9.85-.85,1.8-.18,3.35-.36,4.53-.5,1.6-.18,2.53-.32,2.53-.32S435.5,117.44,430.73,107.58Z"/><path class="cls-8" d="M423.33,97.69s-2.88-.12-7.26-.26l-2.44-.09c-12.25-.37-32.51-.78-39.08.35,0,0-22.3,8.08-27.14,27.77,4.5-3.93,12.81-9.24,27.14-13a169.16,169.16,0,0,1,46.11-5.7c1.1,0,2.17.07,3.21.14,2.49.14,4.78.37,6.86.65A34.61,34.61,0,0,0,423.33,97.69Z"/><path class="cls-8" d="M262.11,72.61c-1.91.52-3.77,1-5.51,1.57a77.74,77.74,0,0,0-9,3.28s-2.92,2.44-4.52,9.34l9.23-1.46.42-.07,4.74-1.15C261.12,83.24,266.16,82,270,81a57,57,0,0,1,13.85-1.49,87.53,87.53,0,0,1,14.59-13C293.88,65.74,276.22,68.82,262.11,72.61Z"/><path class="cls-6" d="M270,81c-3.88,1-8.92,2.2-12.57,3.08l-4.74,1.15-.42.07-9.23,1.46a49.42,49.42,0,0,0-.76,15.45l7.36-.15,4.13-.08,16.87-.33a1.25,1.25,0,0,0,.07-.23c2.65-8.6,7.9-16.1,13.14-21.91A57,57,0,0,0,270,81Z"/><path class="cls-8" d="M364.3,82c3.48,2.54,6.13,6.72,7.85,10.14-9.68,5.16-25.24,16.13-33.27,30.07-10.66,18.51-17.7,23.34-31.59,31.6s-27,4.42-41.27,12.48c-10.54,5.94-19.45,20-23.39,27-2.66-2.39-4.39-4.11-4.39-4.11l-31.62-36.79c-.36-2.73.08-4.53,7.61-5.29s28.84-7.09,44.54-18c15.46-10.7,23.6-27.11,23.84-27.62h0S294.3,81.34,299,77.21s18.05-8.24,22.05-8.54l.64,0C347.4,65.53,357.66,77.16,364.3,82Z"/><path class="cls-9" d="M283.89,79.55l.55,6.59-7.54,15.43-6.22.12a1.25,1.25,0,0,0,.07-.23C273.4,92.86,278.65,85.36,283.89,79.55Z"/><path class="cls-9" d="M298.48,66.59c5.73,1.07,19.47,1.9,22.6,2.08-4,.3-17.32,4.41-22.05,8.54s-16.4,24.25-16.4,24.25l-5.73.11,7.54-15.43-.55-6.59A87.53,87.53,0,0,1,298.48,66.59Z"/><path class="cls-9" d="M347.14,126.63c.09-.4.17-.78.27-1.17,4.84-19.69,27.14-27.77,27.14-27.77a43.13,43.13,0,0,0-2.4-5.56c-9.68,5.17-25.24,16.13-33.27,30.07-10.66,18.51-17.7,23.34-31.59,31.6s-27,4.42-41.27,12.48c-10.54,5.94-19.45,20-23.39,27,6.11,5.5,17.13,14.56,23.24,14.36,8.75-.31,10.27-5.44,12.37-10s5.44-12.68,11.93-15.4,27.64-8.3,45.6-14.19c14.39-4.72,21.24-7.8,29.22-13.66,2-1.44,4-3.06,6.25-4.91C371.24,149.47,342.92,147.16,347.14,126.63Z"/></g><path class="cls-2" d="M38.06,272.11s26-16.31,36.84-22S95,240,95,240s17-.4,24,0c0,0,26.27-34.12,40.36-46.19S179,177.1,181.83,173.88s17-16.91,33.06-20.13c0,0,10.07,2,23.35,9.36l-24.76,41.67-6.34,3.32s-11.27,10.66-26.67,25.06-36.43,27.27-41.77,31-18.72,5.63-24.85,5.93-31.71,10.37-32,10.77S37.36,305,27.49,311Z"/><path class="cls-10" d="M81.84,280.86c.3-.4,25.87-10.46,32-10.77s19.52-2.21,24.85-5.93,26.37-16.61,41.77-31,26.67-25.06,26.67-25.06l6.34-3.32,13.34-22.45-7.34-8.67s-9.42,4.65-29.75,21-34.22,38.25-41.06,44.48S121.9,254.39,109,255.6s-24.55,7.65-41.26,16.51-36.49,25-36.49,25L27.49,311C37.36,305,81.54,281.26,81.84,280.86Z"/><path class="cls-5" d="M96,316.79s38,.61,55.56,1.51,28.68,6.64,45.59-8.75,40.46-39.26,50.72-65.83,7.85-30.79,14.19-34.42l6.34-3.62s5.14-33.51-30.19-42.57c0,0-35.93,10-31.1,45,0,0-26.57,70-29.59,80.31,0,0-.9,0-10.26-.91s-12.08-2.11-26.12-1.35-38.8,4.22-41.21,4.22l-5,7.85Z"/><path class="cls-2" d="M96,316.79s38.05.61,55.56,1.51,28.68,6.64,45.59-8.75,40.46-39.26,50.73-65.83,7.85-30.79,14.19-34.42l6.34-3.62s3-19.61-11.43-32.88c-9.36,2.08-15.46,16.23-24.81,29.46-10.66,15.1-23.55,63.61-32.4,83.94s-21.54,15.09-25.16,15.7-35.43-4.83-48.31-6.24c-7.77-.85-21.24.42-30.72,1.56l-.63,1Z"/><path class="cls-11" d="M89.09,289.77s7.85-3.17,12.22,2.57c0,0,3.18,12-6.11,27.75S85.92,337.78,80,347a15.11,15.11,0,0,1-18,6.34Z"/><path class="cls-12" d="M69.76,315c5.53-14.37,14.95-25.9,21.59-26.08s2.11,13.1,0,19.44-12.53,23.85-14.64,30.49S73.39,357,62.06,353.33,64.48,328.72,69.76,315Z"/><path class="cls-11" d="M8.17,329.62l26-62.34s9.06-2.57,9.67,7.85-5.14,18-7.1,24.3-13.13,20.83-14.19,23.25S16.62,332.49,8.17,329.62Z"/><path class="cls-12" d="M8.17,295.51C15,286,23.27,274.22,28.7,270.75s8.3-3.63,9.51-2.12.3,6.8-5,17.37-10,20.53-11.93,28.38-8,17.15-12.23,15.9S-3.42,311.74,8.17,295.51Z"/><path class="cls-2" d="M348.4,50.55s0,2.62,16.29,4c16.71,1.4,29.13-2.11,39.85-13.58s11.33-12.53,11.33-12.53,5.58.3,1.2,6-31.54,42.79-68.83,25C348,56.39,347.46,54.31,348.4,50.55Z"/></g></svg>