<svg xmlns="http://www.w3.org/2000/svg" xmlns:xlink="http://www.w3.org/1999/xlink" width="201.619" height="141.179" viewBox="0 0 201.619 141.179">
  <defs>
    <linearGradient id="linear-gradient" x1="0.019" y1="1.062" x2="0.906" y2="0.064" gradientUnits="objectBoundingBox">
      <stop offset="0" stop-color="#68b7c1"/>
      <stop offset="1" stop-color="#7edfb5"/>
    </linearGradient>
    <linearGradient id="linear-gradient-2" x1="0.411" y1="0.932" x2="0.634" y2="-0.163" gradientUnits="objectBoundingBox">
      <stop offset="0" stop-color="#2b3582"/>
      <stop offset="1" stop-color="#150e42"/>
    </linearGradient>
    <linearGradient id="linear-gradient-3" x1="0.459" y1="1.018" x2="0.564" y2="-0.445" gradientUnits="objectBoundingBox">
      <stop offset="0" stop-color="#a737d5"/>
      <stop offset="1" stop-color="#ef497a"/>
    </linearGradient>
    <linearGradient id="linear-gradient-4" y1="0.5" x2="1" y2="0.5" gradientUnits="objectBoundingBox">
      <stop offset="0" stop-color="#b37cff"/>
      <stop offset="1" stop-color="#f895e7"/>
    </linearGradient>
    <linearGradient id="linear-gradient-5" x1="0.463" y1="5.274" x2="0.538" y2="-4.364" xlink:href="#linear-gradient-2"/>
    <linearGradient id="linear-gradient-6" x1="0.752" y1="0.259" x2="-0.688" y2="1.636" gradientUnits="objectBoundingBox">
      <stop offset="0" stop-color="#53d8ff"/>
      <stop offset="1" stop-color="#3840f7"/>
    </linearGradient>
  </defs>
  <g id="Grupo_1698" data-name="Grupo 1698" transform="translate(-619.275 -53.623)">
    <g id="Grupo_1697" data-name="Grupo 1697">
      <g id="Grupo_1679" data-name="Grupo 1679" transform="translate(529 31)">
        <g id="Grupo_1672" data-name="Grupo 1672" transform="translate(-527 -29)">
          <g id="Grupo_1668" data-name="Grupo 1668">
            <g id="Grupo_1666" data-name="Grupo 1666" transform="translate(20.819)">
              <g id="Grupo_1653" data-name="Grupo 1653" transform="translate(588.574 61.107)">
                <path id="Trazado_2678" data-name="Trazado 2678" d="M81.308,67.83C11.2,127.743,13.555,176.1,52.124,181.835s128.938-7.582,148.909-29.6S151.41,7.918,81.308,67.83Z" transform="translate(-13.07 -51.472)" fill="url(#linear-gradient)"/>
                <circle id="Ellipse_71" data-name="Ellipse 71" cx="18.31" cy="18.31" r="18.31" transform="translate(162.881 29.148)" fill="#0fa3f4" opacity="0.33"/>
                <circle id="Ellipse_71-2" data-name="Ellipse 71" cx="18.31" cy="18.31" r="18.31" transform="translate(7.881 54.148)" fill="#0fa3f4" opacity="0.33"/>
              </g>
            </g>
            <g id="Grupo_1665" data-name="Grupo 1665" transform="translate(-772 179.623)">
              <g id="Grupo_1664" data-name="Grupo 1664" transform="translate(1394 -128)">
                <g id="Grupo_1656" data-name="Grupo 1656" transform="translate(0 25.134)">
                  <g id="Grupo_1655" data-name="Grupo 1655" transform="translate(8.234)">
                    <path id="Trazado_2851" data-name="Trazado 2851" d="M6069.161,12010.657a2.906,2.906,0,0,1-2.9,2.9H5909.511a2.906,2.906,0,0,1-2.9-2.9l-1.3-90.08a5.049,5.049,0,0,1,5.316-4.47l153.194-3.963a7.3,7.3,0,0,1,7.5,7.471Z" transform="translate(-5905.308 -11912.142)" fill="url(#linear-gradient-2)"/>
                    <path id="Trazado_2852" data-name="Trazado 2852" d="M6075.5,12015.763a2.751,2.751,0,0,1-2.743,2.741H5922.5a2.75,2.75,0,0,1-2.743-2.741l-1.231-81.776a6.749,6.749,0,0,1,7.075-6.585l146.827-3.939a5.127,5.127,0,0,1,5.262,5.254Z" transform="translate(-5914.512 -11920.025)" fill="url(#linear-gradient-3)"/>
                    <g id="Grupo_1654" data-name="Grupo 1654" transform="translate(6.019 7.846)">
                      <path id="Trazado_2853" data-name="Trazado 2853" d="M5927.169,12082.754a.234.234,0,0,1-.234-.23l-.1-6.632a.234.234,0,0,1,.23-.237.24.24,0,0,1,.238.23l.1,6.631a.235.235,0,0,1-.23.238Z" transform="translate(-5926.324 -12033.88)" fill="#fff"/>
                      <path id="Trazado_2854" data-name="Trazado 2854" d="M5925.75,11970.618a.234.234,0,0,1-.234-.23l-.374-25.4a5.389,5.389,0,0,1,1.558-4.041,7.414,7.414,0,0,1,4.905-1.692l46.886-1.259a.239.239,0,0,1,.24.229.234.234,0,0,1-.228.239l-46.9,1.259a6.894,6.894,0,0,0-4.582,1.563,4.937,4.937,0,0,0-1.413,3.7l.373,25.4a.234.234,0,0,1-.23.237Z" transform="translate(-5925.143 -11937.996)" fill="#fff"/>
                    </g>
                    <path id="Trazado_2855" data-name="Trazado 2855" d="M5943.7,12025.329c.158-6.759.1-66.61-.289-71.779s7.662-6.139,20.022-6.72,116.645-2.886,119.33-3.1c6.036-.49,7.285,8.531,6.681,28.116-.454,14.713-1.206,38.951-1.551,50.1a6.151,6.151,0,0,1-6.137,5.962c-25.1.068-121.277.345-127.681.535C5946.707,12028.657,5943.637,12028.009,5943.7,12025.329Z" transform="translate(-5931.838 -11934.13)" opacity="0.5" fill="url(#linear-gradient-4)"/>
                  </g>
                  <path id="Trazado_2856" data-name="Trazado 2856" d="M6059.02,12252.8H5882.131a3.971,3.971,0,0,1-3.958-3.959h0a3.969,3.969,0,0,1,3.958-3.957H6059.02a3.969,3.969,0,0,1,3.957,3.957h0A3.971,3.971,0,0,1,6059.02,12252.8Z" transform="translate(-5878.174 -12143.907)" fill="url(#linear-gradient-5)"/>
                </g>
                <path id="Trazado_2857" data-name="Trazado 2857" d="M6097.309,12034.015H5978.943a3.128,3.128,0,0,1-3.073-3.243v-60.788a3.149,3.149,0,0,1,3.051-3.228l0,.233,0-.233,118.35-2.2a3.06,3.06,0,0,1,2.245.927,3.293,3.293,0,0,1,.94,2.3v62.99A3.2,3.2,0,0,1,6097.309,12034.015Zm-118.379-66.791a2.685,2.685,0,0,0-2.592,2.76v60.788a2.666,2.666,0,0,0,2.6,2.775h118.366a2.733,2.733,0,0,0,2.681-2.775v-62.99a2.82,2.82,0,0,0-.806-1.971,2.618,2.618,0,0,0-1.9-.788Z" transform="translate(-5946.223 -11923.516)" fill="#fff"/>
                <rect id="Rectángulo_1128" data-name="Rectángulo 1128" width="73.864" height="45.814" rx="7.501" transform="translate(34.79 51.829)" fill="url(#linear-gradient-6)"/>
                <g id="Grupo_1657" data-name="Grupo 1657" transform="translate(113.562 51.595)">
                  <path id="Trazado_2858" data-name="Trazado 2858" d="M6280.444,12014.767h-25.1a2.921,2.921,0,0,1-2.945-2.96v-9.552a2.9,2.9,0,0,1,2.945-2.915h25.1a3.192,3.192,0,0,1,3.274,2.915v9.552A3.211,3.211,0,0,1,6280.444,12014.767Zm-25.1-14.96a2.408,2.408,0,0,0-2.478,2.448v9.552a2.462,2.462,0,0,0,2.478,2.493h25.1a2.77,2.77,0,0,0,2.807-2.493v-9.552a2.716,2.716,0,0,0-2.807-2.448Z" transform="translate(-6252.396 -11999.34)" fill="#fff"/>
                  <path id="Trazado_2859" data-name="Trazado 2859" d="M6280.444,12077.929h-25.1a2.846,2.846,0,0,1-2.945-2.874v-9.553a2.946,2.946,0,0,1,2.945-3h25.1a3.272,3.272,0,0,1,3.274,3v9.553A3.136,3.136,0,0,1,6280.444,12077.929Zm-25.1-14.96a2.483,2.483,0,0,0-2.478,2.533v9.553a2.389,2.389,0,0,0,2.478,2.406h25.1a2.7,2.7,0,0,0,2.807-2.406v-9.553a2.787,2.787,0,0,0-2.807-2.533Z" transform="translate(-6252.396 -12043.334)" fill="#fff"/>
                  <path id="Trazado_2860" data-name="Trazado 2860" d="M6280.444,12141.091h-25.1a2.775,2.775,0,0,1-2.945-2.787v-9.552a3.029,3.029,0,0,1,2.945-3.088h25.1a3.311,3.311,0,0,1,3.274,3.088v9.552A3.064,3.064,0,0,1,6280.444,12141.091Zm-25.1-14.959a2.561,2.561,0,0,0-2.478,2.62v9.552a2.324,2.324,0,0,0,2.478,2.32h25.1a2.634,2.634,0,0,0,2.807-2.32v-9.552a2.864,2.864,0,0,0-2.807-2.62Z" transform="translate(-6252.396 -12087.329)" fill="#fff"/>
                </g>
                <path id="Trazado_2861" data-name="Trazado 2861" d="M6040.417,12160.858c-7.065-.017-39.091-.091-46.171-.023a1.435,1.435,0,0,0-1.43,1.387v.775a1.392,1.392,0,0,0,1.36,1.388l46.1,1.059a1.638,1.638,0,0,0,1.1-.4,1.505,1.505,0,0,0,.521-.993v-1.809A1.479,1.479,0,0,0,6040.417,12160.858Z" transform="translate(-5958.026 -12060.213)" fill="#fff" opacity="0.5"/>
                <path id="Trazado_2862" data-name="Trazado 2862" d="M6100.223,11985.942H5976.1a.233.233,0,1,1,0-.467h124.119a.233.233,0,0,1,0,.467Z" transform="translate(-5946.223 -11938.088)" fill="#fff"/>
                <path id="Trazado_2863" data-name="Trazado 2863" d="M6332.584,11973.879h-.2a1.42,1.42,0,0,1-1.418-1.418v-.2a1.42,1.42,0,0,1,1.418-1.419h.2a1.42,1.42,0,0,1,1.417,1.419v.2A1.42,1.42,0,0,1,6332.584,11973.879Zm-.2-2.571a.952.952,0,0,0-.951.951v.2a.952.952,0,0,0,.951.951h.2a.952.952,0,0,0,.95-.951v-.2a.952.952,0,0,0-.95-.951Z" transform="translate(-6193.56 -11927.893)" fill="#fff"/>
                <path id="Trazado_2864" data-name="Trazado 2864" d="M6350.3,11973.879h-.2a1.42,1.42,0,0,1-1.418-1.418v-.2a1.42,1.42,0,0,1,1.418-1.419h.2a1.42,1.42,0,0,1,1.418,1.419v.2A1.42,1.42,0,0,1,6350.3,11973.879Zm-.2-2.571a.952.952,0,0,0-.951.951v.2a.952.952,0,0,0,.951.951h.2a.951.951,0,0,0,.95-.951v-.2a.951.951,0,0,0-.95-.951Z" transform="translate(-6205.899 -11927.893)" fill="#fff"/>
                <path id="Trazado_2865" data-name="Trazado 2865" d="M6368.786,11973.879h-.2a1.42,1.42,0,0,1-1.418-1.418v-.2a1.421,1.421,0,0,1,1.418-1.419h.2a1.421,1.421,0,0,1,1.418,1.419v.2A1.42,1.42,0,0,1,6368.786,11973.879Zm-.2-2.571a.952.952,0,0,0-.95.951v.2a.952.952,0,0,0,.95.951h.2a.952.952,0,0,0,.95-.951v-.2a.952.952,0,0,0-.95-.951Z" transform="translate(-6218.775 -11927.893)" fill="#fff"/>
                <g id="Grupo_1660" data-name="Grupo 1660" transform="translate(39.465 55.803)">
                  <g id="Grupo_1658" data-name="Grupo 1658">
                    <path id="Trazado_2866" data-name="Trazado 2866" d="M6008.456,12022.554a.233.233,0,0,1-.234-.233v-8.883a.234.234,0,0,1,.234-.234h6.778a.234.234,0,0,1,0,.469h-6.545v8.648A.233.233,0,0,1,6008.456,12022.554Z" transform="translate(-6008.222 -12013.203)" fill="#fff"/>
                    <path id="Trazado_2867" data-name="Trazado 2867" d="M6203.949,12022.554a.233.233,0,0,1-.233-.233v-8.648h-6.545a.234.234,0,0,1,0-.469h6.778a.234.234,0,0,1,.233.234v8.883A.233.233,0,0,1,6203.949,12022.554Z" transform="translate(-6139.67 -12013.203)" fill="#fff"/>
                  </g>
                  <g id="Grupo_1659" data-name="Grupo 1659" transform="translate(0 27.349)">
                    <path id="Trazado_2868" data-name="Trazado 2868" d="M6015.234,12112.442h-6.778a.233.233,0,0,1-.234-.234v-8.648a.234.234,0,0,1,.467,0v8.415h6.545a.234.234,0,1,1,0,.468Z" transform="translate(-6008.222 -12103.326)" fill="#fff"/>
                    <path id="Trazado_2869" data-name="Trazado 2869" d="M6203.949,12112.442h-6.778a.234.234,0,0,1,0-.468h6.545v-8.415a.233.233,0,0,1,.467,0v8.648A.234.234,0,0,1,6203.949,12112.442Z" transform="translate(-6139.67 -12103.326)" fill="#fff"/>
                  </g>
                </g>
                <g id="Grupo_1661" data-name="Grupo 1661" transform="translate(59.099 63.516)">
                  <path id="Trazado_2870" data-name="Trazado 2870" d="M6084.267,12061.3a11.337,11.337,0,1,1,11.331-11.344v.013A11.344,11.344,0,0,1,6084.267,12061.3Zm0-22.207a10.869,10.869,0,1,0,10.863,10.876v-.013A10.875,10.875,0,0,0,6084.267,12039.09Z" transform="translate(-6072.924 -12038.623)" fill="#fff"/>
                  <path id="Trazado_2871" data-name="Trazado 2871" d="M6097.908,12068.16a.591.591,0,0,1-.592-.576l-.271-10.1a.954.954,0,0,1,1.357-.891l9.978,4.668a.952.952,0,0,1,.045,1.7l-8.808,4.7a.593.593,0,0,1-.557-1.047l8.4-4.477-9.221-4.314.26,9.729a.592.592,0,0,1-.576.607Z" transform="translate(-6089.725 -12051.078)" fill="#fff"/>
                </g>
                <g id="Grupo_1662" data-name="Grupo 1662" transform="translate(3.816 6.068)">
                  <path id="Trazado_2872" data-name="Trazado 2872" d="M6061,11889.9a26.326,26.326,0,0,1,0-3.2c.125-1.791.374-3.59.39-5.34a10.623,10.623,0,0,0-.934-4.854c-2.918-1.791-3.886-5.99-6.85-7.7-3.893-2.242-8.7.979-13.1.326-4.225-.627-7.118-4.574-10.265-7.584s-8.283-5.2-11.442-2.2c-1.725,1.637-2.44,4.531-4.656,5.285-1.124.383-2.363.084-3.52.334-1.567.34-2.8,1.639-4.337,2.109-3.309,1.016-6.512-2.02-9.953-2.262-2.147-.154-4.214.795-6.346,1.1-6,.863-11.446-3.3-16.639-6.557a66.35,66.35,0,0,0-28.185-9.787,31.107,31.107,0,0,0-12.253.727c-8.127,2.449-14.818,9.928-23.842,7.965a16.047,16.047,0,0,0-5.753-.332c-10.033,1.48-6.839,11.793-10.354,18.236-1.946,3.566-2.344,7.867-2.188,11.971a10.467,10.467,0,0,0,.792,4.07c.314.666.742,1.268,1.118,1.9.1.172.2.344.294.521,1.133,2.223,1.018,4.912.552,7.383a55.634,55.634,0,0,0-1.384,7.406,10.852,10.852,0,0,0,.3,3.162,6.623,6.623,0,0,0,2.151,3.633c1.132,6.115-.1,12.244.248,18.461a1.491,1.491,0,0,0,.182.758.952.952,0,0,0,1.473-.09,3.049,3.049,0,0,0,.5-1.672q.5-5.238,1-10.477a5.483,5.483,0,0,1,.487-2.1c.5-.916,1.471-1.449,2.032-2.326,1.043-1.629.482-4.133,1.877-5.445.477-.447,1.114-.67,1.614-1.09,1.624-1.365,1.483-5.566,3.273-5.418,1.125.029.407,5.549,1.143,6.416a1.039,1.039,0,0,0,1.394-.08,3.763,3.763,0,0,0,.843-1.709,24.328,24.328,0,0,0,1.093-6.318c.291-6.646,7.077-11.617,13.349-12.746,3.5-.631,7.159-.123,10.588-1.094,2.456-.7,4.658-2.111,6.982-3.193,7.565-3.52,16.257-3.4,24.4-1.844a25.6,25.6,0,0,1,9.012,3.146c3.1,1.965,5.619,5.258,5.7,9.145a2.335,2.335,0,0,0,1.521,2.225c2.421.744,2.888-4.016,5-3.516.963.229,1.306,1.451,1.473,2.467l.719,4.383a3.323,3.323,0,0,0,.554,1.6,1.036,1.036,0,0,0,1.456.236,1.7,1.7,0,0,0,.365-1.088q.342-3.615.993-7.191c.12-.658.372-1.449,1-1.564.575-.105.943.381,1.137,1s.438,1.291,1.061,1.434a1.61,1.61,0,0,0,1.655-.748,3.5,3.5,0,0,0,.4-1.041c.309-1.234.347-2.705.636-3.947.518-2.229,3.037-3.242,5.231-3.33,6.2-.246,12.218,3.965,18.3,2.666,3.63-.777,6.731-3.445,10.4-3.984,2.625-.385,5.266.361,7.837,1.035,2.478.646,5.1,1.234,7.525-.049a4.317,4.317,0,0,1,2.778-.506c2.608.475,2.467,2.85,2.645,4.811.133,1.477.943,3.254,2.361,3.162a8.64,8.64,0,0,1,.861-.111c.973.029,1.514,1.236,1.511,2.256a11.491,11.491,0,0,0-.045,3.035c.267.979,1.541,1.73,2.212.994a2.013,2.013,0,0,0,.379-1.238C6062.026,11897.656,6061.208,11893.781,6061,11889.9Z" transform="translate(-5890.749 -11849.313)" fill="#a8d4eb"/>
                  <path id="Trazado_2873" data-name="Trazado 2873" d="M6061,11886.711c.125-1.793.374-3.592.39-5.342a10.623,10.623,0,0,0-.934-4.854c-2.918-1.791-3.886-5.99-6.85-7.7-3.893-2.242-8.7.979-13.1.326-4.225-.627-7.118-4.574-10.265-7.584s-8.283-5.2-11.442-2.2c-1.725,1.637-2.44,4.531-4.656,5.285-1.124.383-2.363.084-3.52.334-1.567.34-2.8,1.639-4.337,2.109-3.309,1.016-6.512-2.018-9.953-2.262-2.147-.154-4.214.795-6.346,1.1-6,.863-11.446-3.3-16.639-6.557a66.35,66.35,0,0,0-28.185-9.787,31.107,31.107,0,0,0-12.253.727c-8.127,2.449-14.818,9.928-23.842,7.965a16.047,16.047,0,0,0-5.753-.332c-10.033,1.48-6.839,11.793-10.354,18.236-1.946,3.566-2.344,7.867-2.188,11.971a10.467,10.467,0,0,0,.792,4.07c.314.666.742,1.266,1.118,1.9.1.172.2.344.294.521,1.133,2.225,1.018,4.912.552,7.383a55.634,55.634,0,0,0-1.384,7.406,10.852,10.852,0,0,0,.3,3.162l2.2-4.641a4.052,4.052,0,0,1,.833-1.3,7.651,7.651,0,0,1,2.033-.959c1.645-.783,2.52-2.662,3.1-4.451s1.027-3.719,2.268-5.092a7.727,7.727,0,0,1,4.5-2.18c1.659-.295,3.355-.322,5-.666a10.386,10.386,0,0,0,5.821-3.795c1.022-1.244,2.1-2.869,3.668-2.76a5.21,5.21,0,0,1,1.778.645,8.978,8.978,0,0,0,7.19.129c2.175-.918,4.889-3.912,7.116-4.682,2.946-1.021,6.14-.164,9.232.127,9.1.852,17.562-2.07,26.336.6,3.6,1.1,6.822,3.285,10.41,4.42a18.9,18.9,0,0,0,8.158.717,11.011,11.011,0,0,0,3.825-.8,17.513,17.513,0,0,1,3.23-1.771c2.767-.869,5.652.855,8.541.9,1.232.018,2.451-.273,3.683-.322,4.538-.174,8.914,2.943,13.375,2.061,4.1-.812,7.412-4.891,11.572-4.555,2.33.188,4.378,1.768,6.7,2.076,1.869.246,3.73-.354,5.592-.658s3.963-.236,5.363,1.08c.649.611,1.083,1.438,1.729,2.051,1.391,1.324,3.38,1.393,5.31,1.135A26.294,26.294,0,0,1,6061,11886.711Z" transform="translate(-5890.749 -11849.313)" fill="#d2e8f5"/>
                  <path id="Trazado_2874" data-name="Trazado 2874" d="M5903.721,11884.377c1.327-.234,2.635.385,3.932.762a11.37,11.37,0,0,0,7.789-.555c1.676-.758,3.292-1.951,5.116-1.867,1.681.076,3.192,1.244,4.875,1.27,2.044.031,3.736-1.59,5.669-2.287,2.443-.879,5.325-.287,7.521-1.713,1.158-.752,2.088-2.043,3.443-2.205,1.156-.137,2.215.6,3.232,1.2,4.857,2.824,10.9,2.629,16.187.838a9.664,9.664,0,0,1,4.155-.855c2.1.25,3.925,2.092,6.032,1.869a9.266,9.266,0,0,1,2.53-.377,5.107,5.107,0,0,1,1.749.9c2.46,1.574,5.487,1.723,8.369,1.826a7.64,7.64,0,0,0,3.652-.705c.94-.457,1.7-1.24,2.6-1.781a2.715,2.715,0,0,1,2.937-.189c.484.352.775.934,1.242,1.311,1.156.936,2.856.295,4.043-.6.711-.535,1.573-1.187,2.378-.822a3.052,3.052,0,0,1,.966.941,4.958,4.958,0,0,0,5.169,1.568c1.086-.334,2.229-1.061,3.266-.58.436.2.767.592,1.188.822,1.2.658,2.68-.141,4.009.131a12.526,12.526,0,0,1,1.788.711c1.8.67,3.792.074,5.537-.727a25.179,25.179,0,0,0,5.014-3.057,6.037,6.037,0,0,1,7.053.211,19.633,19.633,0,0,0,1.951,1.492,3.819,3.819,0,0,0,2.481.432,20.514,20.514,0,0,1,2.108-.484c1.582-.092,3.1,1.178,4.639.781a6.773,6.773,0,0,0,1.967-1.166,2.363,2.363,0,0,1,2.141-.475c.986.4,1.28,1.787,2.2,2.342a1.953,1.953,0,0,0,2.436-.555c.319-.395.541-.914.989-1.133.737-.363,1.536.289,2.319.525a3.454,3.454,0,0,0,3.01-.807,10.623,10.623,0,0,0-.934-4.854c-2.918-1.791-3.886-5.99-6.85-7.7-3.893-2.242-8.7.98-13.1.326-4.225-.627-7.118-4.574-10.265-7.584s-8.283-5.2-11.442-2.2c-1.725,1.637-2.44,4.531-4.656,5.285-1.125.383-2.363.084-3.52.334-1.567.34-2.8,1.639-4.337,2.109-3.309,1.016-6.512-2.018-9.953-2.262-2.147-.154-4.214.795-6.346,1.1-6,.863-11.446-3.3-16.639-6.557a66.35,66.35,0,0,0-28.185-9.787,31.107,31.107,0,0,0-12.253.727c-8.127,2.449-14.818,9.928-23.842,7.965a16.047,16.047,0,0,0-5.753-.332c-10.033,1.48-6.839,11.793-10.354,18.236-1.947,3.566-2.344,7.867-2.188,11.971a10.467,10.467,0,0,0,.792,4.07c.314.666.742,1.266,1.118,1.9l7.8-7.639A6.652,6.652,0,0,1,5903.721,11884.377Z" transform="translate(-5890.748 -11849.313)" fill="#fff"/>
                </g>
                <g id="Grupo_1663" data-name="Grupo 1663" transform="translate(152.594 0)">
                  <circle id="Elipse_237" data-name="Elipse 237" cx="22.15" cy="22.15" r="22.15" fill="#ca83db"/>
                  <rect id="Rectángulo_1129" data-name="Rectángulo 1129" width="26.166" height="6.233" rx="1.668" transform="translate(12.266 35.659) rotate(-90)" fill="#fff"/>
                  <rect id="Rectángulo_1130" data-name="Rectángulo 1130" width="26.166" height="6.233" rx="1.668" transform="translate(25.637 35.659) rotate(-90)" fill="#fff"/>
                </g>
              </g>
            </g>
          </g>
        </g>
      </g>
    </g>
  </g>
</svg>
