<svg xmlns="http://www.w3.org/2000/svg" xmlns:xlink="http://www.w3.org/1999/xlink" width="206.529" height="149.613" viewBox="0 0 206.529 149.613">
  <defs>
    <linearGradient id="linear-gradient" x1="0.019" y1="1.062" x2="0.906" y2="0.064" gradientUnits="objectBoundingBox">
      <stop offset="0" stop-color="#68b7c1"/>
      <stop offset="1" stop-color="#7edfb5"/>
    </linearGradient>
    <linearGradient id="linear-gradient-2" x1="0.027" y1="0.988" x2="0.988" y2="0.034" gradientUnits="objectBoundingBox">
      <stop offset="0" stop-color="#2c759e"/>
      <stop offset="1" stop-color="#061647"/>
    </linearGradient>
    <linearGradient id="linear-gradient-3" x1="0.326" y1="1.158" x2="0.722" y2="-0.3" gradientUnits="objectBoundingBox">
      <stop offset="0" stop-color="#33d3e9"/>
      <stop offset="0.449" stop-color="#2599e3"/>
      <stop offset="1" stop-color="#0d388e"/>
    </linearGradient>
    <linearGradient id="linear-gradient-4" y1="0.5" x2="1" y2="0.5" gradientUnits="objectBoundingBox">
      <stop offset="0" stop-color="#fac341"/>
      <stop offset="1" stop-color="#f49548"/>
    </linearGradient>
  </defs>
  <g id="Group_1447" data-name="Group 1447" transform="translate(-622 -59.131)">
    <path id="Path_2678" data-name="Path 2678" d="M80.38,68.28c-68.95,61.56-66.63,111.25-28.7,117.14s126.8-7.79,146.44-30.41S149.32,6.72,80.38,68.28Z" transform="translate(608.93 17.014)" fill="url(#linear-gradient)"/>
    <circle id="Ellipse_72" data-name="Ellipse 72" cx="16.16" cy="16.16" r="16.16" transform="translate(622 176.423)" fill="#0fa3f4" opacity="0.33"/>
    <circle id="Ellipse_71" data-name="Ellipse 71" cx="18.31" cy="18.31" r="18.31" transform="translate(791.91 149.463)" fill="#0fa3f4" opacity="0.33"/>
    <g id="Group_1517" data-name="Group 1517" transform="matrix(0.999, -0.035, 0.035, 0.999, -631.164, -1822.23)">
      <g id="Group_1522" data-name="Group 1522">
        <g id="Group_1521" data-name="Group 1521">
          <path id="Path_2769" data-name="Path 2769" d="M1364.238,2062.97H1197.855a4.01,4.01,0,0,1-3.975-4.043V1964.1a4.009,4.009,0,0,1,3.975-4.042l166.383-4.043a4.009,4.009,0,0,1,3.975,4.043v98.873A4.009,4.009,0,0,1,1364.238,2062.97Z" fill="url(#linear-gradient-2)"/>
          <path id="Path_2770" data-name="Path 2770" d="M1359.484,2059.928H1201.651a3.771,3.771,0,0,1-3.771-3.771V1967.7a3.771,3.771,0,0,1,3.771-3.771l157.833-3.771a3.771,3.771,0,0,1,3.771,3.771v92.229A3.771,3.771,0,0,1,1359.484,2059.928Z" fill="url(#linear-gradient-3)"/>
          <rect id="Rectangle_806" data-name="Rectangle 806" width="26.75" height="21.75" rx="2" transform="translate(1210.588 1996.969)" fill="url(#linear-gradient-4)"/>
          <rect id="Rectangle_807" data-name="Rectangle 807" width="32.125" height="8" rx="2" transform="translate(1207.213 2027.094)" fill="#53d9ff"/>
          <rect id="Rectangle_808" data-name="Rectangle 808" width="32.125" height="8" rx="2" transform="translate(1207.213 1971.928)" fill="#53d9fe"/>
          <rect id="Rectangle_809" data-name="Rectangle 809" width="32.125" height="8" rx="2" transform="translate(1243.463 2027.094)" fill="#53d9ff"/>
          <rect id="Rectangle_810" data-name="Rectangle 810" width="32.125" height="8" rx="2" transform="translate(1279.713 2027.094)" fill="#53d9ff"/>
          <rect id="Rectangle_811" data-name="Rectangle 811" width="32.125" height="8" rx="2" transform="translate(1315.963 2027.094)" fill="#53d9ff"/>
          <rect id="Rectangle_812" data-name="Rectangle 812" width="28.611" height="5.25" rx="1.529" transform="translate(1319.477 2044.344)" fill="#7cf3f5"/>
          <rect id="Rectangle_813" data-name="Rectangle 813" width="55.5" height="5.25" rx="2.13" transform="translate(1207.213 2044.344)" fill="#7cf3f5"/>
          <path id="Path_2771" data-name="Path 2771" d="M1217.922,1996.969l2.333,7.542h5.917l2-7.542" fill="none" stroke="#fff" stroke-miterlimit="10" stroke-width="1"/>
          <path id="Path_2772" data-name="Path 2772" d="M1228.172,2018.719l-1.917-7.958h-6.333l-1,7.958" fill="none" stroke="#fff" stroke-miterlimit="10" stroke-width="1"/>
          <path id="Path_2773" data-name="Path 2773" d="M1219.922,2010.761v-6.25h6.25l.083,6.25Z" fill="none" stroke="#fff" stroke-miterlimit="10" stroke-width="1"/>
          <line id="Line_13" data-name="Line 13" x1="9.333" transform="translate(1210.588 2006.011)" fill="none" stroke="#fff" stroke-miterlimit="10" stroke-width="1"/>
          <line id="Line_14" data-name="Line 14" x1="9.333" transform="translate(1210.588 2008.178)" fill="none" stroke="#fff" stroke-miterlimit="10" stroke-width="1"/>
          <line id="Line_15" data-name="Line 15" x2="11.151" transform="translate(1226.188 2005.718)" fill="none" stroke="#fff" stroke-miterlimit="10" stroke-width="1"/>
          <line id="Line_16" data-name="Line 16" x2="11.125" transform="translate(1226.213 2007.636)" fill="none" stroke="#fff" stroke-miterlimit="10" stroke-width="1"/>
        </g>
      </g>
      <g id="Group_1523" data-name="Group 1523">
        <path id="Path_2774" data-name="Path 2774" d="M1368.7,1971.508a25.388,25.388,0,0,1,0-3.241c.132-1.817.4-3.642.414-5.417a10.389,10.389,0,0,0-.99-4.925c-3.093-1.815-4.118-6.075-7.259-7.805-4.125-2.273-9.219.994-13.882.332-4.478-.636-7.544-4.64-10.879-7.694s-8.779-5.271-12.126-2.231c-1.828,1.661-2.587,4.6-4.935,5.362-1.19.389-2.5.085-3.73.338-1.661.345-2.968,1.662-4.6,2.14-3.507,1.031-6.9-2.047-10.548-2.295-2.275-.155-4.466.807-6.726,1.118-6.359.876-12.13-3.346-17.634-6.651a72.41,72.41,0,0,0-29.869-9.926,34.408,34.408,0,0,0-12.986.735c-8.613,2.485-15.7,10.07-25.267,8.079a17.758,17.758,0,0,0-6.1-.336c-10.632,1.5-7.247,11.963-10.972,18.5-2.063,3.619-2.484,7.982-2.319,12.144a10.207,10.207,0,0,0,.839,4.127,22.57,22.57,0,0,0,1.185,1.927c.108.174.215.349.311.53,1.2,2.255,1.079,4.983.585,7.489s-1.331,4.961-1.467,7.512a10.551,10.551,0,0,0,.317,3.206,6.681,6.681,0,0,0,2.28,3.687c1.2,6.2-.1,12.419.263,18.726a1.467,1.467,0,0,0,.192.769,1.038,1.038,0,0,0,1.561-.092,3,3,0,0,0,.528-1.7q.532-5.314,1.064-10.628a5.369,5.369,0,0,1,.517-2.131c.525-.931,1.559-1.471,2.153-2.36,1.106-1.652.512-4.193,1.99-5.523.506-.455,1.18-.681,1.71-1.108,1.722-1.384,1.573-5.644,3.469-5.493,1.194.028.432,5.626,1.211,6.508a1.138,1.138,0,0,0,1.478-.083,3.743,3.743,0,0,0,.892-1.733,23.67,23.67,0,0,0,1.16-6.408c.307-6.742,7.5-11.786,14.146-12.931,3.711-.639,7.587-.125,11.221-1.11,2.6-.7,4.937-2.142,7.4-3.238,8.017-3.57,17.229-3.447,25.861-1.87a27.919,27.919,0,0,1,9.551,3.191c3.29,1.993,5.955,5.335,6.045,9.277a2.37,2.37,0,0,0,1.612,2.255c2.567.757,3.061-4.073,5.3-3.565,1.02.231,1.384,1.472,1.561,2.5q.381,2.223.763,4.445a3.282,3.282,0,0,0,.587,1.619,1.13,1.13,0,0,0,1.543.239,1.669,1.669,0,0,0,.387-1.1q.361-3.669,1.053-7.3c.127-.668.394-1.471,1.064-1.587.61-.107,1,.387,1.2,1.014.212.643.464,1.31,1.125,1.455a1.739,1.739,0,0,0,1.754-.759,3.439,3.439,0,0,0,.42-1.056c.328-1.253.368-2.745.674-4,.549-2.261,3.219-3.289,5.544-3.378,6.573-.25,12.949,4.021,19.393,2.7,3.848-.786,7.135-3.494,11.024-4.04,2.782-.39,5.58.367,8.3,1.049,2.626.657,5.408,1.253,7.975-.049a4.75,4.75,0,0,1,2.944-.512c2.764.48,2.615,2.89,2.8,4.878.142,1.5,1,3.3,2.5,3.208.306-.019.606-.122.913-.113,1.032.03,1.6,1.256,1.6,2.288a11.135,11.135,0,0,0-.048,3.08c.282.993,1.633,1.755,2.344,1.007a1.975,1.975,0,0,0,.4-1.255C1369.782,1979.371,1368.916,1975.441,1368.7,1971.508Z" fill="#a8d4eb"/>
        <path id="Path_2775" data-name="Path 2775" d="M1368.7,1968.268c.132-1.818.4-3.643.414-5.418a10.391,10.391,0,0,0-.99-4.925c-3.093-1.814-4.118-6.074-7.259-7.805-4.125-2.273-9.219.994-13.882.332-4.478-.636-7.544-4.64-10.879-7.693s-8.779-5.272-12.126-2.231c-1.828,1.659-2.587,4.6-4.935,5.361-1.19.389-2.5.084-3.73.338-1.661.345-2.968,1.662-4.6,2.141-3.507,1.03-6.9-2.048-10.548-2.3-2.275-.155-4.466.807-6.726,1.118-6.359.876-12.13-3.346-17.634-6.651a72.41,72.41,0,0,0-29.869-9.926,34.408,34.408,0,0,0-12.986.735c-8.613,2.485-15.7,10.07-25.267,8.08a17.758,17.758,0,0,0-6.1-.337c-10.632,1.5-7.247,11.963-10.972,18.5-2.063,3.619-2.484,7.982-2.319,12.144a10.21,10.21,0,0,0,.839,4.127,22.419,22.419,0,0,0,1.185,1.927c.108.174.215.349.311.53,1.2,2.255,1.079,4.983.585,7.489s-1.331,4.961-1.467,7.512a10.545,10.545,0,0,0,.317,3.206l2.328-4.705a4.049,4.049,0,0,1,.882-1.316,8.273,8.273,0,0,1,2.155-.973c1.743-.794,2.67-2.7,3.28-4.516s1.089-3.771,2.4-5.164a8.354,8.354,0,0,1,4.766-2.213c1.758-.3,3.557-.325,5.3-.675a11.057,11.057,0,0,0,6.168-3.847c1.084-1.264,2.228-2.911,3.888-2.8a5.722,5.722,0,0,1,1.885.655,9.9,9.9,0,0,0,7.62.13c2.306-.93,5.181-3.967,7.541-4.749,3.123-1.035,6.507-.165,9.784.129,9.648.865,18.612-2.1,27.911.612,3.814,1.113,7.229,3.333,11.032,4.484a20.894,20.894,0,0,0,8.646.727,12.087,12.087,0,0,0,4.053-.817,18.867,18.867,0,0,1,3.424-1.8c2.932-.881,5.99.869,9.051.911,1.307.018,2.6-.278,3.9-.326,4.81-.178,9.448,2.986,14.176,2.089,4.345-.824,7.855-4.961,12.264-4.62,2.469.19,4.64,1.8,7.1,2.106,1.981.251,3.954-.358,5.927-.666s4.2-.241,5.684,1.095c.688.619,1.148,1.457,1.832,2.08,1.474,1.343,3.582,1.412,5.628,1.151A25.373,25.373,0,0,1,1368.7,1968.268Z" fill="#d2e8f5"/>
        <path id="Path_2776" data-name="Path 2776" d="M1202.014,1965.9c1.406-.238,2.793.389,4.167.771a12.53,12.53,0,0,0,8.254-.563c1.777-.768,3.489-1.977,5.422-1.894,1.781.078,3.383,1.262,5.166,1.288,2.167.033,3.96-1.613,6.008-2.319,2.59-.892,5.644-.291,7.971-1.737,1.227-.762,2.213-2.073,3.649-2.237,1.225-.14,2.347.612,3.424,1.212,5.148,2.864,11.552,2.667,17.155.85a10.674,10.674,0,0,1,4.4-.869c2.23.254,4.159,2.123,6.392,1.9a10.251,10.251,0,0,1,2.682-.381,5.448,5.448,0,0,1,1.852.919c2.607,1.594,5.815,1.745,8.869,1.851a8.42,8.42,0,0,0,3.871-.716c1-.463,1.8-1.257,2.75-1.807a2.985,2.985,0,0,1,3.113-.192c.513.357.821.946,1.316,1.329,1.225.95,3.027.3,4.284-.607.754-.544,1.668-1.205,2.521-.835a3.2,3.2,0,0,1,1.023.954,5.4,5.4,0,0,0,5.479,1.593c1.152-.341,2.363-1.076,3.461-.589.461.2.812.6,1.259.834,1.272.667,2.841-.143,4.249.132a13.569,13.569,0,0,1,1.9.723c1.9.678,4.018.074,5.868-.738a26.921,26.921,0,0,0,5.313-3.1c2.1-1.575,5.322-1.291,7.475.215a21.285,21.285,0,0,0,2.068,1.514,4.212,4.212,0,0,0,2.629.437,22.061,22.061,0,0,1,2.234-.491c1.676-.094,3.287,1.194,4.916.792a7.255,7.255,0,0,0,2.085-1.183,2.588,2.588,0,0,1,2.268-.481c1.046.41,1.358,1.812,2.33,2.375a2.127,2.127,0,0,0,2.581-.563c.338-.4.573-.926,1.048-1.149.782-.368,1.628.293,2.457.534a3.777,3.777,0,0,0,3.191-.819,10.391,10.391,0,0,0-.99-4.925c-3.093-1.815-4.118-6.074-7.259-7.805-4.125-2.273-9.219.994-13.882.332-4.478-.636-7.544-4.64-10.879-7.693s-8.779-5.272-12.126-2.231c-1.828,1.66-2.587,4.6-4.935,5.361-1.19.389-2.5.084-3.73.339-1.661.344-2.968,1.661-4.6,2.14-3.507,1.03-6.9-2.048-10.548-2.3-2.275-.155-4.466.807-6.726,1.118-6.359.876-12.13-3.346-17.634-6.651a72.41,72.41,0,0,0-29.869-9.926,34.408,34.408,0,0,0-12.986.735c-8.613,2.485-15.7,10.071-25.267,8.079a17.782,17.782,0,0,0-6.1-.336c-10.632,1.5-7.247,11.963-10.972,18.5-2.063,3.619-2.484,7.982-2.319,12.144a10.21,10.21,0,0,0,.839,4.127,22.57,22.57,0,0,0,1.185,1.927l8.271-7.749A7.06,7.06,0,0,1,1202.014,1965.9Z" fill="#fff"/>
      </g>
      <g id="Group_1524" data-name="Group 1524">
        <circle id="Ellipse_221" data-name="Ellipse 221" cx="22.469" cy="22.469" r="22.469" transform="translate(1339.182 1933.542)" fill="#ca83db"/>
        <rect id="Rectangle_814" data-name="Rectangle 814" width="26.542" height="6.323" rx="1.668" transform="translate(1351.625 1969.714) rotate(-90)" fill="#fff"/>
        <rect id="Rectangle_815" data-name="Rectangle 815" width="26.542" height="6.323" rx="1.668" transform="translate(1365.187 1969.714) rotate(-90)" fill="#fff"/>
      </g>
    </g>
  </g>
</svg>
