<svg xmlns="http://www.w3.org/2000/svg" width="66.47" height="81.913" viewBox="0 0 66.47 81.913">
  <g id="Grupo_4411" data-name="Grupo 4411" transform="translate(147.147 -296.892)">
    <g id="Grupo_3452" data-name="Grupo 3452" transform="translate(-147.147 298.102)">
      <path id="Trazado_5939" data-name="Trazado 5939" d="M-145.99,379.822a1.149,1.149,0,0,1-.817-.325,1.158,1.158,0,0,1-.337-.923l.864-12.45a2.8,2.8,0,0,1,.252-1.075l23.3-65.93.41.406,40.737,40.868-50.7,37.962a1.425,1.425,0,0,1-.754.374l-12.832,1.087C-145.91,379.821-145.951,379.822-145.99,379.822Zm24.683-75.907-24.215,61.331a2.278,2.278,0,0,0-.214.88l-.866,12.486a.62.62,0,0,0,.175.5.637.637,0,0,0,.509.167l12.832-1.087a1.015,1.015,0,0,0,.463-.258l46.964-38.09Z" transform="translate(147.147 -299.12)" fill="#fff"/>
    </g>
    <path id="Trazado_5940" data-name="Trazado 5940" d="M-119.159,377.16l-21.084,32.435,18.379-35.117Z" transform="translate(-3.153 -35.436)" fill="#fff"/>
    <path id="Trazado_5941" data-name="Trazado 5941" d="M-99.83,326.49l-20.146,33.026,17.365-35.629Z" transform="translate(-12.41 -12.329)" fill="#fff"/>
    <path id="Trazado_5942" data-name="Trazado 5942" d="M-101.643,314.931l-19.2,33.586,16.343-36.109Z" transform="translate(-12.015 -7.087)" fill="#fff"/>
    <path id="Trazado_5943" data-name="Trazado 5943" d="M-82.821,346.932l-26.4,29.464,22.95-36.163Z" transform="translate(-17.321 -19.795)" fill="#fff"/>
    <path id="Trazado_5944" data-name="Trazado 5944" d="M-61.684,350.586-92.2,378.292l24.875-30.325Z" transform="translate(-25.095 -23.328)" fill="#fff"/>
    <path id="Trazado_5945" data-name="Trazado 5945" d="M-49.187,358.666-75.52,379.129-49.4,353.585Z" transform="translate(-32.714 -25.893)" fill="#fff"/>
    <path id="Trazado_5946" data-name="Trazado 5946" d="M-100.874,301.25l-16.737,32.814,13.1-33.036Z" transform="translate(-13.489 -1.89)" fill="#fff"/>
    <path id="Rectángulo_1830" data-name="Rectángulo 1830" d="M-103.927,296.9l35.7,3.953a2.053,2.053,0,0,1,1.665,1.757l2.7,34.937a1.806,1.806,0,0,1-1.486,2.016l-42.194,5.693a2.193,2.193,0,0,1-2.723-2.651l4.295-44.162A1.811,1.811,0,0,1-103.927,296.9Z" transform="translate(-16.814)" fill="#fff"/>
    <g id="Grupo_3448" data-name="Grupo 3448" transform="translate(-123.365 299.73)">
      <path id="Rectángulo_1830-2" data-name="Rectángulo 1830" d="M-98.915,302.123l32.28,2.51a1.552,1.552,0,0,1,1.377,1.412l2.216,32.084a1.617,1.617,0,0,1-1.331,1.805l-37.1,3.318a1.684,1.684,0,0,1-1.893-1.843l2.617-37.906A1.621,1.621,0,0,1-98.915,302.123Z" transform="translate(103.373 -302.117)" fill="#3f74c9"/>
      <g id="Grupo_2208" data-name="Grupo 2208" transform="translate(8.981 8.335)">
        <path id="Trazado_3452" data-name="Trazado 3452" d="M-67.895,324.664l-6.056-7.206-6.306,7.01-6.584-4.846,1.187,13.147,22.481-.434.83-11.842Z" transform="translate(86.841 -317.458)" fill="#fc0"/>
        <path id="Rectángulo_1828" data-name="Rectángulo 1828" d="M-84.894,347.738l22.588-.568.185,4.148-22.94,1.018Z" transform="translate(86.028 -331.028)" fill="#fc0"/>
      </g>
    </g>
  </g>
</svg>
