<svg xmlns="http://www.w3.org/2000/svg" width="549" height="569.129" viewBox="0 0 549 569.129">
  <g id="Grupo_1469" data-name="Grupo 1469" transform="translate(631 -1113.738)">
    <g id="Grupo_1464" data-name="Grupo 1464" transform="translate(577.162 1297.269)">
      <g id="Grupo_1455" data-name="Grupo 1455" transform="translate(-1208.162 -3.264)">
        <g id="Grupo_1454" data-name="Grupo 1454" transform="translate(50.821 94.924)">
          <path id="Trazado_2476" data-name="Trazado 2476" d="M-1153.657,181.074s11.327,21.453,25.027,14.563,14.791-18.106,29.8-7.479C-1098.827,188.159-1145.826,225.551-1153.657,181.074Z" transform="translate(1153.657 -122.506)" fill="#edef80"/>
          <path id="Trazado_2477" data-name="Trazado 2477" d="M-1056.713,198.4a9.508,9.508,0,0,0-7.513-3.762c-7.955-9.415-12.707-25.4-13.116-42.505-.792-33.063-39.1-33.869-39.1-33.869a97.335,97.335,0,0,1,11.161,8.317c-7.07-.606-16.3-1-4.185,2.526,17.487,5.092,12.031,24.949,12.809,39.075.01.195.02.39.033.586a.212.212,0,0,0,0,.034h0c1.014,15.509,11.62,33.323,22.936,29.728h0l.008,0c.108-.035.216-.078.324-.117C-1072.084,197.986-1066.974,196.664-1056.713,198.4Z" transform="translate(1151.142 -118.261)" fill="#fdae2f"/>
          <path id="Trazado_2478" data-name="Trazado 2478" d="M-1060.441,199.086c7.42,8.781,30.628,1.873,35.483-8.754C-1024.958,190.332-1045.01,171.636-1060.441,199.086Z" transform="translate(1147.357 -122.712)" fill="#edef80"/>
        </g>
        <path id="Trazado_2479" data-name="Trazado 2479" d="M-1208.162,334.72s27.1,15.923,75.363,9.519S-1178.277,318.624-1208.162,334.72Z" transform="translate(1208.162 -37.542)" fill="#5609b8"/>
        <path id="Trazado_2480" data-name="Trazado 2480" d="M-1132.009,310.4c-7.991,16.146-28.421,46.4-25.071,50.6,4.013,5.037,8.008,6.113,12.023,1.575,3-3.388,24.68-25.793,34.682-43.366A81.358,81.358,0,0,1-1132.009,310.4Z" transform="translate(1204.735 -36.323)" fill="#8c54f8"/>
        <path id="Trazado_2481" data-name="Trazado 2481" d="M-1170.661,112.966a78.285,78.285,0,0,1,22.347-13.651c-.641-8.8-15.411-56.025-16.6-57.433-1.235-1.456-6.64-3.064-6.054-.96C-1170.437,42.844-1167.538,96.984-1170.661,112.966Z" transform="translate(1205.652 -18.042)" fill="#f7b576"/>
        <path id="Trazado_2482" data-name="Trazado 2482" d="M-1172.077,39.952a55.742,55.742,0,0,0-6.179-4.377c-2.947-1.684-4.8-4.1-7.911-5.5-1.234-.553-.263-1.536,1.731-1.355a17.56,17.56,0,0,1,11.747,5.676c-.351-.456-1.917-2.53-1.341-2.694.693-.2,3,.578,4.252,2.284,1.917,2.6,3.549,4.7,3.738,6.988" transform="translate(1206.712 -17.285)" fill="#f7b576"/>
        <path id="Trazado_2483" data-name="Trazado 2483" d="M-1169.873,113.254s.776-41.148-1.143-50.753l11.351,2.076,7.751,47.639Z" transform="translate(1205.652 -19.569)" fill="#1450ad"/>
        <path id="Trazado_2484" data-name="Trazado 2484" d="M-1137.6,384.161c-4.347-4.3-9.145-8.034-13.883-11.947-2.493-2.059-4.987-4.117-7.53-6.121-.885-.7-1.787-1.351-2.628-2.057-1.823,1.874-3.88,4.419-4,6.026-.223,2.958,5.356,7.253,9.526,10.046s19.661,19.055,23.347,14.148a5.893,5.893,0,0,0,.733-4.507C-1133.918,387.919-1135.727,386.019-1137.6,384.161Z" transform="translate(1205.289 -39.948)" fill="#9a9ad3"/>
        <path id="Trazado_2485" data-name="Trazado 2485" d="M-1157.368,360.095c.2-.74-6.957,5.47-7.18,8.427s5.355,7.253,9.526,10.047,19.661,19.055,23.348,14.148c2.925-3.893-5.715-13.382-7.621-17.832-2.678-6.25-6.133-8.9-7.272-8.243C-1148.984,368.035-1158.541,364.417-1157.368,360.095Z" transform="translate(1205.215 -39.677)" fill="#472383"/>
        <path id="Trazado_2486" data-name="Trazado 2486" d="M-1092.455,420.136c-5.289-1.381-10.746-2.325-15.951-3.773-13.339-3.71-23.6-7.733-32.081-10.519-2.218,4.355-.315,7.66,2.547,9.509,8.475,5.473,11.152,12.98,26.79,15.737C-1096.248,433.719-1084.538,426.314-1092.455,420.136Z" transform="translate(1203.654 -42.773)" fill="#9a9ad3"/>
        <path id="Trazado_2487" data-name="Trazado 2487" d="M-1131.512,393.335c-2.872.126-13.952,14.037-5.562,19.118s11.159,11.89,26.489,14.654,26.795-3.857,16.539-9.805c-7.584-4.4-18.36-3.7-19.517-8.39-2.177-8.836-3.8-10.691-6.843-12.365C-1121.025,396.206-1128.639,393.209-1131.512,393.335Z" transform="translate(1203.566 -41.927)" fill="#472383"/>
        <path id="Trazado_2489" data-name="Trazado 2489" d="M-1128.832,371.478c-.6,7.775-1.76,12.578-1.47,18.148,6.627,4.561,6.906,4.813,10.861,2.566,6.152-14.5,28.135-55.577,31.45-81.633-11.434-.245-22.892-1.268-34.208-1.615C-1122.625,324.778-1127.875,359.065-1128.832,371.478Z" transform="translate(1202.903 -36.224)" fill="#8c54f8"/>
        <path id="Trazado_2491" data-name="Trazado 2491" d="M-1122.251,65.711c3.806,3.392,9.938,11.58,11.759,18.817s.341,15.463-4.955,19.994c-2.95,2.524-9.487,4.248-15.341,4.185s-15.871-34.882-4.675-43.231C-1133.657,64.129-1126.056,62.319-1122.251,65.711Z" transform="translate(1203.591 -19.655)" fill="#f7b576"/>
        <path id="Trazado_2492" data-name="Trazado 2492" d="M-1050.879,43.775c-6.669,9.443-21.13,26.368-30.471,37.108a55.626,55.626,0,0,1-13.761,10.864c4.332,7.774,5.525,16.131,5.894,24.625,5.823-5.71,12.134-12.024,16.817-19.681,9.709-15.869,26.73-40.221,29.2-48.584C-1042.736,46.546-1050.317,42.979-1050.879,43.775Z" transform="translate(1200.522 -18.296)" fill="#f7b576"/>
        <path id="Trazado_2493" data-name="Trazado 2493" d="M-1126.106,87.878c2.1.767,2.989,3.7,3.554,5.181.119.314,1.092.184,1.331-.089.341-.386,2.3-8.242-.257-12.551-1.534-2.582-4.01-2.4-4.081-3.468-.284-4.3,4.526-5.525,6.542-6.637,5.04-2.78,5.371-9.051,5.073-11.091a1.244,1.244,0,0,0-.24-.653c-.583-.679-1.681.058-2.379.635-2.908,2.408-7.774.339-11.394-.985-10.123-3.7-23.079.033-29.524,6.583-5.033,5.115-6.7,15.126-5.934,20.98,2.15,16.42,10.062,17.479,12.919,18.963,0,0,19.559,8.287,19.6-3.034.008-2.533,3.2-4.215,2.765-6.712s-5.092-1.693-4.23-5.5C-1131.766,86.856-1128.576,86.975-1126.106,87.878Z" transform="translate(1205.15 -19.181)" fill="#191933"/>
        <path id="Trazado_2494" data-name="Trazado 2494" d="M-1122.644,51.66a7.053,7.053,0,0,0-4.365,2.036c-1.251-3.284-4.979-5.495-9.15-5.145a8.817,8.817,0,0,0-7.725,5.468,10.5,10.5,0,0,0-6.656-1.668,9.623,9.623,0,0,0-9.111,9.193c-5.224.619-9.058,4.656-8.621,9.19a7.912,7.912,0,0,0,3.163,5.481,10.059,10.059,0,0,0-3.294,8.274,10.738,10.738,0,0,0,6.576,8.567,9.456,9.456,0,0,0-.726,4.611c.577,5.98,6.706,10.353,13.689,9.767a14.453,14.453,0,0,0,4.231-1.015,7.545,7.545,0,0,0,6.7,2.936,7,7,0,0,0,6.658-7.436,6.422,6.422,0,0,0-.538-1.989c.094,0,.185.011.28,0a3.93,3.93,0,0,0,3.736-4.173,4.051,4.051,0,0,0-4.475-3.484A3.943,3.943,0,0,0-1136,96.135a7.766,7.766,0,0,0-1.253-.333c-.006-.086,0-.171-.009-.257a10.737,10.737,0,0,0-6.575-8.567,9.476,9.476,0,0,0,.725-4.612,10.749,10.749,0,0,0-6.636-8.591,7.685,7.685,0,0,0,1.072-2.845,9.721,9.721,0,0,0,8.94-7.985,9.907,9.907,0,0,0,5.057.888,9.608,9.608,0,0,0,5.352-2.14c.823,4.214,4.384,7.25,8.323,6.919,4.22-.353,7.274-4.436,6.822-9.116S-1118.425,51.306-1122.644,51.66Z" transform="translate(1205.478 -18.624)" fill="#191933"/>
        <path id="Trazado_2495" data-name="Trazado 2495" d="M-1048.214,42.824c.675-3.608,1.374-4.357.8-6.089a22.5,22.5,0,0,0-2.318-4.71,23.907,23.907,0,0,1-3.29-7.264c-.053-.225-.059-1.621,1.265-1.219a5.065,5.065,0,0,1,1.457,1.191A28.358,28.358,0,0,0-1046.342,28c.941.146,1.473-.948,1.719-1.807,1-3.521,3.322-9.88,5.152-9.734s-.3,7.679-.052,8.593,5.818-7.965,7.072-7.792-2.906,8.7-2.328,9.993,7.652-6.775,8.5-6-5.056,9.209-4.875,10.341,5.774-3.386,6.472-3.534c3.491-.743,1.161,1.431.891,1.755-4.219,5.054-12.439,11.334-16.558,16.459" transform="translate(1197.678 -16.457)" fill="#f7b576"/>
        <path id="Trazado_2496" data-name="Trazado 2496" d="M-1172.726,60.212l4.165,10.043s5.668,8.975,29.214-3.121c19.709-10.124,16.275-14.365,16.275-14.365l-5.012-11.336Z" transform="translate(1205.767 -18.145)" fill="#1450ad"/>
        <path id="Trazado_2497" data-name="Trazado 2497" d="M-1203.734,60.5l49.376,7.269,43.436-28.99-45.106-3.5Z" transform="translate(1207.863 -17.73)" fill="#017bbc"/>
        <path id="Trazado_2498" data-name="Trazado 2498" d="M-1153.6,48a42.417,42.417,0,0,0,22.08-2.515c11.88-4.651,26.544-12.529,30.628,1.448s13.434,13.693,18.516,9.175" transform="translate(1204.475 -17.983)" fill="none" stroke="#f1c44e" stroke-linecap="round" stroke-miterlimit="10" stroke-width="2.5"/>
        <path id="Trazado_2499" data-name="Trazado 2499" d="M-1076.777,56.468a7.806,7.806,0,0,0,1.394-3.789l.021.976a3.308,3.308,0,0,1,.625-.821,1.65,1.65,0,0,1,.448.971,1.2,1.2,0,0,0,.357-1.184,6.507,6.507,0,0,1-.812,2.069,2.584,2.584,0,0,1,.229-1.516,2.908,2.908,0,0,1-.278,1.6l1.6-1.576a.465.465,0,0,1,.144-.108c.247-.1.447.182.365.383s-.286.394-.248.6a2.156,2.156,0,0,1,.661-1.6,3.674,3.674,0,0,1-1.637,2.847,6.3,6.3,0,0,1-3.8,1.12" transform="translate(1199.346 -18.891)" fill="none" stroke="#f1c44e" stroke-miterlimit="10" stroke-width="0.905"/>
      </g>
      <g id="Grupo_1458" data-name="Grupo 1458" transform="translate(-836.561 -2.96)">
        <path id="Trazado_2502" data-name="Trazado 2502" d="M-744.652,76.863l7.783-11.516c-3.469-5.03-23.666-27.519-23.857-28.836a40.2,40.2,0,0,1,.669-5.642c.782-4.744.929-9.325,1.961-14.021-1.394-.409-2.486,1.2-3,2.561a50.007,50.007,0,0,0-3.117,14.927,21.967,21.967,0,0,1-1.578-4.235c-.54-1.412-1.627-2.824-3.135-2.924l2.1,8.837a12.577,12.577,0,0,0,.539,1.841c.324.8,1.738,1.948,2.211,2.669C-763.328,41.657-747.653,71.66-744.652,76.863Z" transform="translate(806.876 -16.784)" fill="#fab784"/>
        <path id="Trazado_2503" data-name="Trazado 2503" d="M-676.942,42.258a33.578,33.578,0,0,1-18.494-3.451c-9.762-4.842-21.691-12.754-25.934-.317s-12.121,11.681-16.152,7.32" transform="translate(804.754 -17.801)" fill="none" stroke="#f1c44e" stroke-linecap="round" stroke-miterlimit="10" stroke-width="2.5"/>
        <path id="Trazado_2504" data-name="Trazado 2504" d="M-636.794,64.508l-42.091,3.955L-713.9,39.909l50.453-8.075Z" transform="translate(803.157 -17.801)" fill="#017bbc"/>
        <path id="Trazado_2505" data-name="Trazado 2505" d="M-690.969,58.243l2.138-6.782s6.642-12.893,27.213-3.209c17.219,8.106,11.828,17.479,11.828,17.479l-2.415,7.112Z" transform="translate(801.608 -18.667)" fill="#1450ad"/>
        <path id="Trazado_2506" data-name="Trazado 2506" d="M-666.468,387.211c-1.769,5.446-11.479,25.991-4.976,26.714,5.517.614,10.242-5.174,13.361-11.229a65.881,65.881,0,0,0,4.891-13.208c1.212-5.182,0-7.272-3.2-8.052C-659.629,382.725-662.758,387.2-666.468,387.211Z" transform="translate(800.438 -41.428)" fill="#2c2a40"/>
        <path id="Trazado_2507" data-name="Trazado 2507" d="M-703.944,359.266a25.965,25.965,0,0,1-3.651,5.113,43.191,43.191,0,0,1-13.776,10.162c-.424.413-.831.843-1.279,1.232-2.2,4.388-5.169,10.769-3.013,14.29,1.152,1.879,5.619,2.151,8.933-.536,3.946-3.2,11.7-12.363,13.884-20.495,1.192-4.444.941-4.924-.387-8.043C-703.428,360.531-703.671,359.94-703.944,359.266Z" transform="translate(804.003 -39.929)" fill="#2c2a40"/>
        <path id="Trazado_2508" data-name="Trazado 2508" d="M-695.568,68.521a8.463,8.463,0,0,1,1.385-8.133,15.332,15.332,0,0,1,7.04-4.8A26.618,26.618,0,0,1-663.1,58.666a26.618,26.618,0,0,1,11.2,21.5c-.006,3.57,1.61,3.8,2.7,8.6s.607,10.911,3.291,13.708,3.678,4.534,3.362,8.118c-.208,2.348-4.723,3.291-3.845,5.459s9.429,3.456,10.423,11.076-3.751,8.34-3.172,13.361c.636,5.516,11.155,2.84,11.294,21s-23.36,19.485-27.241,21.173-7.47,16.436-19.748,7.937c-12.751-8.826-6.752-59.439-12.644-60.928s-9.69-18.157-6.991-29.656" transform="translate(801.954 -19.3)" fill="#22343d"/>
        <path id="Trazado_2509" data-name="Trazado 2509" d="M-727.8,337.235c2.117,4.825,9.292,14.054,9.735,17.732s-.126,10.293-1.228,12.929c-1.281,3.065-6.266,11.285-3.9,15.269,2.117,3.566,10.7-6.687,13.82-11.161,3.564-5.111,6.13-11.325,5.015-14.027-1.841-4.464-8.229-21.874-8.229-21.874" transform="translate(804.097 -38.364)" fill="#fab784"/>
        <path id="Trazado_2511" data-name="Trazado 2511" d="M-662.95,342.075c6.258,23.661,8.892,36.484,6.21,45.62s-7.291,14.982-11.6,15.044c-4.714.067.734-11.75,1.058-15.269,1.208-13.1-4.974-32.645-8.247-39.292" transform="translate(800.564 -38.768)" fill="#fab784"/>
        <path id="Trazado_2514" data-name="Trazado 2514" d="M-669.184,31.093a1.9,1.9,0,0,1,1.5.085q1.618.571,3.183,1.277.968.436,1.911.924l.11-.472c-.444-4.609-1.814-8.827-1-13.2.054-.295.185-.654.484-.678s.485.312.587.6a68.054,68.054,0,0,1,2.593,8.637c.1-2.6-.055-7.749.793-10.207a.85.85,0,0,1,.244-.413.6.6,0,0,1,.743.09,1.679,1.679,0,0,1,.391.7,35.273,35.273,0,0,1,1.806,9.07,56.3,56.3,0,0,1,2.435-6.729,3.758,3.758,0,0,1,1.535-1.65.521.521,0,0,1,.779.391,2.817,2.817,0,0,1-.08,1.291c-.515,2.288-.57,5.844-1.427,8.027.835-1.189,6.279-6.888,7.731-6.23,1.038.471-5.166,8.092-5.658,9.1a18.787,18.787,0,0,1-1.468,4.039,6.809,6.809,0,0,1-.371.59c-.715,1.012-2.1,3.993-2.012,4.684.914,7.555,3.647,20.752,4.718,27.613l-9.323-4.892-.788-.413c.1-4.207.242-11.648.045-17.726-.069-2.109-.179-4.055-.347-5.645-.029-.277-.084-.573-.107-.846-1.666-1.252-4.1-2.865-5.762-4.118C-667.321,33.951-668.8,32.775-669.184,31.093Z" transform="translate(800.136 -16.835)" fill="#fab784"/>
        <path id="Trazado_2518" data-name="Trazado 2518" d="M-738.647,46.626a7.412,7.412,0,0,0-2.573,2.567l.376-.8a3.024,3.024,0,0,1-.8.435,1.544,1.544,0,0,1,.049-.958,1.139,1.139,0,0,0-.745.832,6.161,6.161,0,0,1,1.443-1.383,2.492,2.492,0,0,1-.779,1.15,2.806,2.806,0,0,1,.848-1.2l-1.843.689a.4.4,0,0,1-.152.034c-.228-.008-.267-.314-.124-.448s.375-.214.426-.393a2.034,2.034,0,0,1-1.141,1.058,3.387,3.387,0,0,1,2.38-1.708,5.07,5.07,0,0,1,3.334.5" transform="translate(805.169 -18.786)" fill="none" stroke="#f1c44e" stroke-miterlimit="10" stroke-width="0.905"/>
        <path id="Trazado_2553" data-name="Trazado 2553" d="M-758.273,52.533s.464-5.342,4.738-5.8a249.465,249.465,0,0,1,16.812,19.145c6.829,8.948,28.435,36.5,32.733,38.443s13.089,12.56,20.428,12.285,14.775-8.517,16.312-18.711,1.036-42.986,1.036-42.986a25.594,25.594,0,0,1,8.09,2.511,321.728,321.728,0,0,1,6.071,38.7c1.852,20.487-1.523,34.7-3.878,42.623s-9.812,32.89-.393,65.858,5.977,55.261,2.282,87.915,25.191,38.62,25.191,38.62-27.872,26.794-58.678,9.315-36.144-21.381-51.529-17.86c0,0-2.825-8.409-16.641-32.586s12.121-54.3,21.351-69.7,30.788-56.634,19-85.364C-719.633,124.506-721.966,122.32-758.273,52.533Z" transform="translate(806.251 -18.807)" fill="#1450ad"/>
      </g>
      <g id="Grupo_1461" data-name="Grupo 1461" transform="translate(-1002.458 -183.53)">
        <path id="Trazado_2530" data-name="Trazado 2530" d="M-943.053,4.631C-951.326,1.76-958.895,27.1-934.131,38.9s25.146,12.8,28.593,26.068,16.071-6.827,16.071-6.827l-9.183-37.2-25.744-5.988Z" transform="translate(985.077 164.623)" fill="#5609b8"/>
        <path id="Trazado_2531" data-name="Trazado 2531" d="M-879.278,82.031s-19.082,25.6-23.845-21.327,13.54-21.036,13.54-21.036Z" transform="translate(981.896 162.721)" fill="#5609b8"/>
        <path id="Trazado_2532" data-name="Trazado 2532" d="M-799.949-161.932a43.869,43.869,0,0,0-8.617,10.037,17.311,17.311,0,0,1,.5-3.746,3.209,3.209,0,0,0-1.277-3.334q-.987,3.692-1.974,7.384a9.995,9.995,0,0,0-.332,1.575,18.937,18.937,0,0,0,.651,2.806c.011.1.021.449.032.986h.063a11.41,11.41,0,0,0-.121,2.279l1.472,43.342s3.911,3.217,5.881.965a56.772,56.772,0,0,0,4.61-6.8l-7.558-42.087-.073-.038a1.27,1.27,0,0,1,0-.428,34.658,34.658,0,0,1,2.853-3.98c2.573-3.266,4.577-6.642,7.329-9.78C-797.456-163.571-798.985-162.764-799.949-161.932Z" transform="translate(975.661 175.943)" fill="#fab784"/>
        <path id="Trazado_2533" data-name="Trazado 2533" d="M-764.06-49.632c6.28-10.987,20.226-25.936,30.582-24.8,5.067.555,10.69,1.348,14.227-3.318,2.012-2.655,3.017-6.8,3.159-11.109a11.662,11.662,0,0,1,.4-3.508c1.083-2.886,4.141-1.362,6.423.019,9.621,5.819,20.428,3.448,27.143-5.954,4.577-6.409,7.374-15.765,12.883-20.367,1.921-1.6,4.1-2.553,6.052-4.072,5.216-4.049,8.649-12.311,9-21.657.2-5.323-2.1-19.759-10.53-25.694-8.39-5.908-27.524-13.042-35.451,3.142-6.447,13.16-21.179,4.246-33.378,5.883s-21.6,6.553-23.07,18.9c-.988,11.368-12.381,7.653-21.736,18.062-5.078,5.65-10.8,17.909-4.984,28.634" transform="translate(973.913 176.874)" fill="#01017a"/>
        <path id="Trazado_2534" data-name="Trazado 2534" d="M-793.594-76.926c2.029-1.955,5.388,1.786,7.012,4.17s4.317,3.042,6.952.269c5.782-6.085,13.037-8.065,12.716-.952s7.559,6.494,7.1,10.028-15.774,18.264-25.743,15.244S-795.622-74.971-793.594-76.926Z" transform="translate(974.511 170.19)" fill="#fab784"/>
        <path id="Trazado_2535" data-name="Trazado 2535" d="M-679.02-126.928c-1.808-.53-6.6.032-7.61.3,1.827-.948,4.021-3.221,5.712-4.424a2.805,2.805,0,0,0,.833-.793c.18-.307.108-.582-.214-.675a3.244,3.244,0,0,0-1.9.238,54.208,54.208,0,0,0-5.508,3.038,34.517,34.517,0,0,0,4.468-6.85,1.527,1.527,0,0,0,.2-.667.44.44,0,0,0-.376-.461.773.773,0,0,0-.393.135c-1.988,1.132-5.03,4.553-6.67,6.18a65.831,65.831,0,0,0,3.748-7c.113-.239.209-.557.021-.7s-.482.015-.693.176a26.789,26.789,0,0,0-5.426,6.325c-.644.922-1.3,1.854-2.022,2.766-.118.081-.235.163-.352.245q-.252-.827-.548-1.634-.478-1.3-1.071-2.551c-.178-.375-.406-.78-.82-.867a6.514,6.514,0,0,0-.487,4.278c.127,1.046.336,2.334.527,3.567.113.734.217,1.44.3,2.074-9.04,7.39-53.166,43.478-53.9,46.6l18.914,2.981s36.032-41.6,40.576-46.788c.252-.092.477-.166.655-.213s.369-.105.575-.181a18.1,18.1,0,0,0,3.309-1.821c.9-.384,9.136-1.96,8.819-2.826C-678.423-126.677-678.663-126.824-679.02-126.928Z" transform="translate(971.575 174.292)" fill="#fab784"/>
        <path id="Trazado_2536" data-name="Trazado 2536" d="M-964.9,75.838c-.16-.354-15.958-2.943-18.255-4.306s-7-.134-2.544,4.146,12.261,10.184,15,11.626,8.794-5.172,9.255-6.168S-964.9,75.838-964.9,75.838Z" transform="translate(987.548 160.122)" fill="#8316fd"/>
        <path id="Trazado_2537" data-name="Trazado 2537" d="M-917.292,114.069c-.4-.18-14.111,10.314-16.8,11.689-3.888,1.985-4,7.27,2.977,7.458s14.371-3.8,17.755-4.711,3.373-11.368,3-12.589S-917.292,114.069-917.292,114.069Z" transform="translate(984.115 157.212)" fill="#8316fd"/>
        <path id="Trazado_2538" data-name="Trazado 2538" d="M-841.082,5.234s-54.639,3.6-62.685,8.368-55.308,51.765-58.27,56.158c-.687,1.019-2.459,2.329-2.645,3.173-.619,2.793,1.717,5.036,3.252,4.154,2-1.149,47.739-36.269,50.357-39.186s47.341-3.621,55.542-5.167" transform="translate(986.01 164.567)" fill="#fab784"/>
        <path id="Trazado_2539" data-name="Trazado 2539" d="M-834.544,35.959c-13.195-3.622-56.089,4.425-61.815,14.944-7.225,13.272-16.824,47.784-18.326,53.607-.6,2.322-1.952,7.062.375,7.952s4.234.746,4.985-.074,23.83-43.674,29.8-46.565c6.954-3.371,53.661-6.546,65.994-15.417Z" transform="translate(982.687 162.55)" fill="#fab784"/>
        <path id="Trazado_2540" data-name="Trazado 2540" d="M-942.478-2.678c22.111,15.919,11.84,22.73,22.382,32.981s11.745,1.155,21.384,10.423c10.394,9.995,13.821,27.023,16.828,32.094,12.62-15.052,85.241-24.266,98.186-61.556,8.549-24.628,3.981-35.348,19.771-56.326,2.2-2.919,18.295-27.135,18.295-27.135L-757.06-82.761a237.157,237.157,0,0,0-23.61,23.477c-5.4,6.232-20.5,9.594-21.56-1.425s4.3-15.444,4.3-15.444-8.284-23.967-9.278-26.833-3.1,3.13-12.175,5.332c-.083,17.669,2.741,66.694.079,75.964S-907.745,12.93-942.478-2.678Z" transform="translate(984.502 171.932)" fill="#1450ad"/>
        <path id="Trazado_2541" data-name="Trazado 2541" d="M-746.527-89.174c2.45-2.512,7.569-12.341-2.726-22.2-3.939-3.773-17.034-8.926-29.078,9.036-4.13,6.158-6.565,18.118-1.172,24.637,4.233,5.117,7.859,4.832,14.4,3.676s12.122-5.635,15.986-11.037c0,0,2.365,1.171,4.021-.338,1.79-1.629.536-3.178-.436-3.427" transform="translate(973.698 172.698)" fill="#fab784"/>
        <path id="Trazado_2542" data-name="Trazado 2542" d="M-743.474-118.822c-5.959-1.364-12.387-3.034-18.021-2.716-5.645,2.834-10.222,8.259-14.461,13.12,6.231.135,7.278.16,11.111-2.631,3.913-2.849,12.239-5.649,12.384,1.01s1.324,20.72,10.007,19.83S-732.509-116.312-743.474-118.822Z" transform="translate(973.248 173.137)" fill="#01017a"/>
        <path id="Trazado_2543" data-name="Trazado 2543" d="M-810.524-97.35l-1.02-42.09,6.492-4.486s4.455,31.75,7.645,40.973S-803.9-91.274-803.9-91.274Z" transform="translate(975.653 174.647)" fill="#1450ad"/>
        <path id="Trazado_2544" data-name="Trazado 2544" d="M-744.013-83.6s30.724-26.951,38.059-31.737l5.989,5.923s-32.993,37.686-39.17,46.13-10.082-12.867-10.082-12.867Z" transform="translate(971.441 172.715)" fill="#1450ad"/>
        <path id="Trazado_2545" data-name="Trazado 2545" d="M-852.429-54.149a11,11,0,0,0-12.414,6c-2.52,5.012-5.705,10.263-8.461,13.21,7.133-3.1,21.294-7.434,30.2,1.855,9.237,9.635,18.243-1.112,23.919-12.038C-827.437-40.71-838.409-41.019-852.429-54.149Z" transform="translate(979.827 168.598)" fill="#fdae2f"/>
        <path id="Trazado_2546" data-name="Trazado 2546" d="M-873.624-33.524a44.977,44.977,0,0,0-4.417,2.178C-876.924-30.722-875.359-31.669-873.624-33.524Z" transform="translate(980.147 167.186)" fill="#edef80"/>
        <path id="Trazado_2547" data-name="Trazado 2547" d="M-810.828-56.717a82.8,82.8,0,0,1-4.433,10.178c9.94-5.309,15.935-17.463,18.559-22.315a12.134,12.134,0,0,1,11.214-6.534C-797.924-76.008-807.008-67.482-810.828-56.717Z" transform="translate(975.905 170.018)" fill="#edef80"/>
        <path id="Trazado_2548" data-name="Trazado 2548" d="M-795.357-68.854s6-6.169,9.288-3.025,5.429.525,6.391-.436c0,0-2.316-2.792-4.464-3.073S-792.909-74.563-795.357-68.854Z" transform="translate(974.559 170.018)" fill="#fdae2f"/>
        <path id="Trazado_2549" data-name="Trazado 2549" d="M-837.931-30.743c3.723,2.256,13.242,6.14,31.306-23.218l-10.168,8.873Z" transform="translate(977.437 168.567)" fill="#fdae2f"/>
        <g id="Grupo_1460" data-name="Grupo 1460" transform="translate(140.732 98.872)">
          <path id="Trazado_2550" data-name="Trazado 2550" d="M-800.365-36.254s1.908-4.7,9.027-2.132,13.885,2.633,16.935,1.182l-14.953-3.832S-800.435-44.048-800.365-36.254Z" transform="translate(834.166 68.861)" fill="#fdae2f"/>
          <path id="Trazado_2551" data-name="Trazado 2551" d="M-836.616-19.257s6.988-7.131,12.257,2.67S-803.9-3.677-801.292-9.916c0,0-5.409-17.924-2.292-26.5s9.386-8.678,20.67-3.379,20.208-13.653,18.528-26.271a16.034,16.034,0,0,1-5.228-4.766s-14.37,31.716-23.1,27.519c0,0-18.357-3.686-23.955,5.2S-824.8-18.906-836.616-19.257Z" transform="translate(836.616 70.836)" fill="#edef80"/>
          <path id="Trazado_2552" data-name="Trazado 2552" d="M-836.616-15.7s7.817-7.309,12.6,3.273C-824.018-12.423-828.151-15.959-836.616-15.7Z" transform="translate(836.616 67.276)" fill="#fdae2f"/>
        </g>
      </g>
      <g id="Grupo_1463" data-name="Grupo 1463" transform="matrix(0.788, -0.616, 0.616, 0.788, -1022.317, -146.299)">
        <path id="Path_2445" data-name="Path 2445" d="M30.66,77.647c1.58,3.913,3.881,7.473,5.924,11.34C43.113,90.578,49.3,90.4,57,86.87,68.017,81.822,74.252,73.063,74.746,71.2s-2.139-8.135-4.461-11.31" transform="translate(-13.373 -16.909)" fill="#1450ad"/>
        <path id="Path_2446" data-name="Path 2446" d="M72.15,41.587c-.476.742-6.763,4.269-9.948,7.114-7.866,7.177-15.362,13.777-23.228,20.953a6.14,6.14,0,0,1-3.529,1.267C23.1,71.96,1.334,73.633.922,73.2c-.181-.159-.311-.147-.811-1.265C4.289,69.094,32.378,49.31,33.078,49A115.889,115.889,0,0,1,46.262,44.97c6.891-2.174,20.791-5.058,25.09-4.857A2.464,2.464,0,0,1,72.15,41.587Z" transform="translate(0 -8.247)" fill="#1da8d8"/>
        <path id="Path_2446-2" data-name="Path 2446" d="M71.338,40.076c-.476.742-6.763,4.269-9.948,7.114-7.866,7.177-15.362,13.777-23.228,20.953a6.14,6.14,0,0,1-3.53,1.267C22.284,70.449.523,72.122.111,71.689c.792-2.825,31.4-23.865,32.156-24.2a115.89,115.89,0,0,1,13.185-4.035C53.967,40.772,72.375,38.459,71.338,40.076Z" transform="translate(0 -8.001)" fill="#017bbc"/>
        <g id="Grupo_1452" data-name="Grupo 1452" transform="translate(35.01 21.263)">
          <g id="Path_2447" data-name="Path 2447" transform="translate(42.226)">
            <path id="Trazado_2473" data-name="Trazado 2473" d="M138.64,25.291a14.588,14.588,0,0,1,6.209.982l-1.434-.692a5,5,0,0,0,1.487-.162,3.35,3.35,0,0,0-1.239-1.182,2.268,2.268,0,0,1,1.907.4,12.024,12.024,0,0,0-3.411-.479,5.274,5.274,0,0,0,2.339.774,5.929,5.929,0,0,0-2.48-.771l3.029-.77a.557.557,0,0,0,.222-.092c.26-.216-.071-.642-.406-.686s-.712.058-.99-.123a3.907,3.907,0,0,0,2.655.334,6.024,6.024,0,0,0-8.243,3.578" transform="translate(-137.723 -21.702)" fill="#f1c44e"/>
            <path id="Trazado_2474" data-name="Trazado 2474" d="M137.847,26.524a.564.564,0,0,1-.534-.739,6.605,6.605,0,0,1,.274-.693c.02-.044.041-.088.063-.132a.539.539,0,0,1-.01-.074.563.563,0,0,1,.362-.56,6.588,6.588,0,0,1,8.322-2.453.562.562,0,0,1-.11,1.059,4.476,4.476,0,0,1-.821.109.817.817,0,0,1-.2.251,1.359,1.359,0,0,1-.244.141,2.807,2.807,0,0,1,.526.318.562.562,0,0,1-.5.987l-.005,0a.561.561,0,0,1-.169.694.562.562,0,0,1-.6.928,14.143,14.143,0,0,0-5.516-.964c-.028.056-.055.113-.082.17a5.4,5.4,0,0,0-.228.575A.563.563,0,0,1,137.847,26.524Zm1.6-2.256a15.228,15.228,0,0,1,2.716.313,6.024,6.024,0,0,1-.586-.3l-.037,0a.562.562,0,0,1-.093-1.105l1.989-.505-.082-.037a1.17,1.17,0,0,1-.221-.112.544.544,0,0,1-.119-.1,5.508,5.508,0,0,0-3.567,1.851Z" transform="translate(-137.285 -21.263)" fill="#f1c44e"/>
          </g>
          <g id="Path_2448" data-name="Path 2448" transform="translate(0.848 2.471)">
            <path id="Trazado_2475" data-name="Trazado 2475" d="M65.226,48.751l-1.535-.7c.88-1.935,8.66-7.216,15.864-9.586,4.572-1.5,8.109-1.587,10.513-.246a43.068,43.068,0,0,1,5.515,4.08,41.476,41.476,0,0,0,4.69,3.523c.5.287.87.364,1.11.224,1.334-.763,1.368-6.128,1.391-9.679a46.949,46.949,0,0,1,.2-5.226c.459-2.732,2.436-5.475,5.335-5.485l.005,1.687c-2.2.008-3.4,2.427-3.673,4.051a46.5,46.5,0,0,0-.186,4.984c-.031,4.86-.064,9.886-2.239,11.131a2.688,2.688,0,0,1-2.794-.228,42.419,42.419,0,0,1-4.913-3.678,42.105,42.105,0,0,0-5.268-3.912c-1.948-1.087-5.117-.957-9.165.375C73.082,42.371,65.782,47.528,65.226,48.751Z" transform="translate(-63.69 -25.658)" fill="#f1c44e"/>
          </g>
          <circle id="Elipse_75" data-name="Elipse 75" cx="1.546" cy="1.546" r="1.546" transform="translate(41.808 2.617)" fill="#f1c44e"/>
          <circle id="Elipse_76" data-name="Elipse 76" cx="1.546" cy="1.546" r="1.546" transform="translate(0 23.488)" fill="#f1c44e"/>
        </g>
      </g>
    </g>
    <path id="Trazado_2554" data-name="Trazado 2554" d="M-670.125,97.941c-1.28-1.129-3.417-.841-4.974-.248a5.162,5.162,0,0,0-1.045.514,23.463,23.463,0,0,0,1.39-8.3c.145-4.812-.132-9.857-2.669-14.169s-7.926-7.631-13-6.607l-5.166,1.663a43.707,43.707,0,0,0-8.314,20.27c-1.552,10.124,2.72,20.416,6.551,22.768,0,0,3.756.6,10.633-1.428,5.135-1.511,8.13-5.058,10.442-8.74a16.475,16.475,0,0,0,3.052-.669,6.83,6.83,0,0,0,3.287-1.833A2.307,2.307,0,0,0-670.125,97.941Z" transform="translate(543.105 1273.999)" fill="#fab784"/>
    <path id="Trazado_2555" data-name="Trazado 2555" d="M-691.66,116.359c.162,2.513.794,4.924-.1,7.7s-5.95,5.355-3.372,10.313c2.258,4.343,16.114,5.951,19.734-3.321,1.655-4.239-2.479-7.983-4.141-10.094.36-4.383-1.34-9.223-.469-13.335" transform="translate(542.539 1271.386)" fill="#fab784"/>
    <g id="Grupo_1467" data-name="Grupo 1467" transform="translate(-188.477 1388.766)">
      <path id="Trazado_2519" data-name="Trazado 2519" d="M-702.305,169.066s.012-6.106,9.116-6.448,16.688-3.317,19.439-6.31l-18.42,2.459S-705.9,160.4-702.305,169.066Z" transform="translate(731.493 -120.671)" fill="#fdae2f"/>
      <path id="Trazado_2520" data-name="Trazado 2520" d="M-733.565,202.894s4.588-11.109,14.886-2.54,28.653,5.2,28.759-2.946c0,0-14.115-17.573-14.5-28.557s6.569-13.917,21.555-13.086,16.408-24.348,8.847-37.676c0,0-4.248,4.062-7.936,1.534,0,0-1.8,37.383-13.441,36.634,0,0-22.154,4.156-24.4,16.6S-720.211,197.96-733.565,202.894Z" transform="translate(733.565 -118.088)" fill="#edef80"/>
      <path id="Trazado_2521" data-name="Trazado 2521" d="M-733.565,208.617s5.433-11.681,15.539-2.021C-718.026,206.6-724.232,204.51-733.565,208.617Z" transform="translate(733.565 -123.811)" fill="#fdae2f"/>
    </g>
    <g id="Grupo_1468" data-name="Grupo 1468" transform="translate(-259.399 1392.832)">
      <path id="Trazado_2522" data-name="Trazado 2522" d="M-728.657,142.527c-9.471-2.626-15.162-3.6-16.638-3.034l-.054-.021-11.486,5.252c9.781,10.361,43.191-.912,43.191-.912Z" transform="translate(806.059 -123.589)" fill="#fdae2f"/>
      <path id="Trazado_2523" data-name="Trazado 2523" d="M-763.716,139.732c-4.215-1.954-9.14,4.355-10.318,5.3a25.346,25.346,0,0,0-7.283,10.136c-3.181,8.519-28.31,4.987-28.31,4.987s14.729,2.473,15.11,6.476,2.945,15.66,30.417,11.107c0,0,.319-30.587,15.183-38.259-.055-.023-.108-.041-.163-.064C-752.712,140.16-760.147,141.387-763.716,139.732Z" transform="translate(809.627 -123.591)" fill="#edef80"/>
      <path id="Trazado_2524" data-name="Trazado 2524" d="M-693.384,122.448l-3.067,2.449c-4.455,3.308-17.872,12.782-30.165,16.489,15.206,5.147,24.516-1.7,28.841-8.642v.007A24.028,24.028,0,0,0-693.384,122.448Z" transform="translate(804.017 -122.448)" fill="#edef80"/>
    </g>
    <path id="Trazado_2556" data-name="Trazado 2556" d="M-1063.4,50.772s9.524-.079,8.161,6.987c0,0-18.989,32.252-29.851,46.529s-26.431,24.042-29.229,38.766-4.15,43.926-.108,65.941,52.073,64.557,52.908,120.114c0,0-22.553,13.5-38.7,10.99s-17.17-8.827-26.823-9.692-52.159-23.105-81.117-14.452c0,0,53.363-44.763,45.987-74.65s-11.515-65.055-17.863-79.828-3.945-41.793,7.633-53.647c0,0,3.318-6.228,13.712-7.612s22.2,4.044,26.6,8.166a178.309,178.309,0,0,1,18.7-10.37c6.988-3.237,19.344-10.826,24.007-16.2S-1063.4,50.772-1063.4,50.772Z" transform="translate(577.162 1275.228)" fill="#1450ad"/>
    <path id="Trazado_2557" data-name="Trazado 2557" d="M-1169.814,111.355s9.069-6.4,22.226.609,18.2-.373,20.643-1.652c0,0-5.258-.879-7.347-3.6,0,0-5.266-.752-14.258-3S-1164.786,104.209-1169.814,111.355Z" transform="translate(574.57 1271.702)" fill="#edef80"/>
  </g>
</svg>
