<svg xmlns="http://www.w3.org/2000/svg" viewBox="0 0 82.42 34.68"><defs><style>.cls-1{fill:#c12121;}</style></defs><title>Recurso 1</title><g id="Capa_2" data-name="Capa 2"><g id="regla"><path class="cls-1" d="M81.32,14.78c-.35-3.1-.3-11.31-.38-12l0,0c0-.25,0-.49,0-.75-.13-1.65-1-2-1.63-2.06h-.08c-.28,0-3,0-5.47,0V0H3.32A1.27,1.27,0,0,0,3,.07H3a.86.86,0,0,0-.53.29A1.34,1.34,0,0,0,2.1.8a5.89,5.89,0,0,0-.63,2.58C1.32,5.74,1,8.34.85,9.43.54,11.56-.06,14.59,0,15.15c.18,1.62,1.46,1.72,2,1.06a35.74,35.74,0,0,1,.23,5.1c-.3,2.68,3.38,3,3.24-.23a.72.72,0,0,1,.13-.53,6.08,6.08,0,0,0,1.6.42l.34.09C8.3,21.22,9,21.5,9,22a1.16,1.16,0,0,0,1.67.73c.36-.24.74-1.45,1.69-1.29.52.09.83.57,1.08,2.17a17.71,17.71,0,0,1-.59,5.32c-.24,1.25-1,3.67-.12,5.27.68.86,3.58.86,3.5-2-.1-3.75-1-1.91-1.22-8.25,0-.59,0-1.76.58-2.18.4-.3.55-.52.58-.69h.18a1.52,1.52,0,0,0,.23,0l1.32.16a1.51,1.51,0,0,0,0,.56c.2.67-.92,2.11-.18,3a2.17,2.17,0,0,0,2.59.56c1-.5.87-1.34.5-2.06a7.53,7.53,0,0,1-.53-1.41,1.93,1.93,0,0,1,.07-.44c1.1.08,2.15.13,3.08.13,2.35,0,5.72-1.14,6.86-.53s.7,3.11.64,4,1.65,1.45,1.65.54-.26-2-.26-3.12.26-1.25,3.18-1.17A9.76,9.76,0,0,0,38.07,21l3.24-.23a55.4,55.4,0,0,0,9.77.36c3.81-.25,6.86-.49,9.08-.13l.44.08c2.46.46,1.67,1.92,2,2.44a1.44,1.44,0,0,0,1.95.46c.53-.39.47-1.3.5-2a.5.5,0,0,1,.13-.3A35.74,35.74,0,0,0,74.82,21a4.58,4.58,0,0,1,.35,1.8c.06,1-.2,1.72-.06,2.5s.7,1.43,1.57.52a6.9,6.9,0,0,1,.38,2.44c-.26,3.31,3.07,3.26,2.92-.17a27.25,27.25,0,0,1-.08-4.17c0-.17,0-.38,0-.61,0-.46.09-.92.12-1.33a1.42,1.42,0,0,0,2.39-1.06C82.49,20.31,81.56,16.93,81.32,14.78Z"/></g></g></svg>