<svg id="Layer_1" data-name="Layer 1" xmlns="http://www.w3.org/2000/svg" xmlns:xlink="http://www.w3.org/1999/xlink" viewBox="0 0 375 152"><defs><style>.cls-1{fill:url(#linear-gradient);}.cls-2{fill:#2385a5;}</style><linearGradient id="linear-gradient" x1="-419.84" y1="113.3" x2="-419.84" y2="112.91" gradientTransform="matrix(374.98, 0, 0, -391.5, 157617.97, 44356.29)" gradientUnits="userSpaceOnUse"><stop offset="0" stop-color="#3993d0"/><stop offset="1" stop-color="#2273aa"/></linearGradient></defs><title>header_bg</title><rect id="Rectángulo_1893" data-name="Rectángulo 1893" class="cls-1" width="375" height="152"/><polygon class="cls-2" points="49.05 0 0 49.1 0 52.17 52.11 0 49.05 0"/><polygon class="cls-2" points="375 57.86 281.95 151 285.02 151 375 60.93 375 57.86"/><polygon class="cls-2" points="240.92 0 90.08 151 93.14 151 243.99 0 240.92 0"/><polygon class="cls-2" points="59.61 0 0 59.67 0 62.82 62.76 0 59.61 0"/><polygon class="cls-2" points="375 68.43 292.51 151 295.66 151 375 71.58 375 68.43"/><polygon class="cls-2" points="251.49 0 100.64 151 103.78 151 254.63 0 251.49 0"/><polygon class="cls-2" points="38.41 0 0 38.45 0 41.51 41.47 0 38.41 0"/><polygon class="cls-2" points="375 47.2 271.31 151 274.37 151 375 50.27 375 47.2"/><polygon class="cls-2" points="230.28 0 79.44 151 82.5 151 233.35 0 230.28 0"/><polygon class="cls-2" points="70.25 0 0 70.32 0 73.47 73.4 0 70.25 0"/><polygon class="cls-2" points="375 79.08 303.15 151 306.3 151 375 82.23 375 79.08"/><polygon class="cls-2" points="262.13 0 111.28 151 114.43 151 265.27 0 262.13 0"/><polygon class="cls-2" points="375 4.59 228.74 151 231.8 151 375 7.66 375 4.59"/><polygon class="cls-2" points="187.71 0 36.87 151 39.93 151 190.78 0 187.71 0"/><polygon class="cls-2" points="6.4 0 0 6.4 0 9.55 9.54 0 6.4 0"/><polygon class="cls-2" points="375 15.16 239.3 151 242.44 151 375 18.31 375 15.16"/><polygon class="cls-2" points="198.27 0 47.42 151 50.57 151 201.42 0 198.27 0"/><polygon class="cls-2" points="368.94 0 218.1 151 221.16 151 372.01 0 368.94 0"/><polygon class="cls-2" points="177.07 0 26.22 151 29.29 151 180.14 0 177.07 0"/><polygon class="cls-2" points="17.04 0 0 17.06 0 20.21 20.19 0 17.04 0"/><polygon class="cls-2" points="375 25.82 249.94 151 253.09 151 375 28.97 375 25.82"/><polygon class="cls-2" points="208.92 0 58.07 151 61.21 151 212.06 0 208.92 0"/><polygon class="cls-2" points="27.68 0 0 27.71 0 30.86 30.83 0 27.68 0"/><polygon class="cls-2" points="375 36.47 260.58 151 263.73 151 375 39.62 375 36.47"/><polygon class="cls-2" points="219.56 0 68.71 151 71.86 151 222.7 0 219.56 0"/><polygon class="cls-2" points="358.22 0 207.36 151 210.51 151 361.36 0 358.22 0"/><polygon class="cls-2" points="166.34 0 15.49 151 18.64 151 169.49 0 166.34 0"/><polygon class="cls-2" points="123.52 0 0 123.66 0 126.73 126.59 0 123.52 0"/><polygon class="cls-2" points="374 133.43 355.45 152 358.51 152 374 136.49 374 133.43"/><polygon class="cls-2" points="315.39 0 164.57 151 167.64 151 318.46 0 315.39 0"/><polygon class="cls-2" points="134.09 0 0 134.24 0 137.38 137.23 0 134.09 0"/><polygon class="cls-2" points="374 147.15 374 144 366.01 152 369.15 152 374 147.15"/><polygon class="cls-2" points="325.96 0 175.13 151 178.28 151 329.11 0 325.96 0"/><polygon class="cls-2" points="112.87 0 0 113.01 0 116.08 115.94 0 112.87 0"/><polygon class="cls-2" points="374 122.77 344.8 152 347.87 152 374 125.84 374 122.77"/><polygon class="cls-2" points="304.75 0 153.93 151 156.99 151 307.82 0 304.75 0"/><polygon class="cls-2" points="144.73 0 0 144.89 0 148.04 147.87 0 144.73 0"/><polygon class="cls-2" points="336.6 0 185.78 151 188.92 151 339.75 0 336.6 0"/><polygon class="cls-2" points="155.37 0 4.54 151 7.69 151 158.52 0 155.37 0"/><polygon class="cls-2" points="347.25 0 196.42 151 199.56 151 350.39 0 347.25 0"/><polygon class="cls-2" points="80.93 0 0 81.02 0 84.09 84 0 80.93 0"/><polygon class="cls-2" points="375 89.78 313.85 151 316.92 151 375 92.86 375 89.78"/><polygon class="cls-2" points="272.81 0 121.97 151 125.04 151 275.88 0 272.81 0"/><polygon class="cls-2" points="91.51 0 0 91.61 0 94.76 94.65 0 91.51 0"/><polygon class="cls-2" points="375 100.37 324.43 151 327.57 151 375 103.52 375 100.37"/><polygon class="cls-2" points="283.38 0 132.55 151 135.7 151 286.53 0 283.38 0"/><polygon class="cls-2" points="102.16 0 0 102.27 0 105.42 105.3 0 102.16 0"/><polygon class="cls-2" points="375 111.03 335.08 151 338.22 151 375 114.18 375 111.03"/><polygon class="cls-2" points="294.03 0 143.2 151 146.35 151 297.18 0 294.03 0"/></svg>