<svg id="Layer_1" data-name="Layer 1" xmlns="http://www.w3.org/2000/svg" viewBox="0 0 16.9 22"><defs><style>.cls-1{fill:#fff;}</style></defs><title>Ícono Quiz Blanco</title><g id="Artboard_1" data-name="Artboard 1"><g id="Group_206" data-name="Group 206"><path id="Path_140" data-name="Path 140" class="cls-1" d="M16.2,22a.58.58,0,0,0,.6-.6h0V4.63c0-.2-.1-.3-.2-.5L12.7.23c0-.1-.2-.2-.4-.2H.6a.58.58,0,0,0-.6.6v20.7H0a.58.58,0,0,0,.6.6H16.2ZM1.3,1.33H11.7v3.3a.58.58,0,0,0,.6.6h3.2v15.5H1.3Z"/><path id="Path_141" data-name="Path 141" class="cls-1" d="M13.6,6.53h-4a.65.65,0,0,0-.1,1.3h4.1c.4,0,.6-.3.6-.7A.58.58,0,0,0,13.6,6.53Z"/><path id="Path_142" data-name="Path 142" class="cls-1" d="M13.6,11.63h-4a.65.65,0,1,0-.1,1.3h4.1a.67.67,0,0,0,.7-.6.84.84,0,0,0-.7-.7Z"/><path id="Path_143" data-name="Path 143" class="cls-1" d="M13.6,16.83h-4a.65.65,0,0,0-.1,1.3h4.1a.67.67,0,0,0,.7-.6.68.68,0,0,0-.7-.7Z"/><path id="Path_144" data-name="Path 144" class="cls-1" d="M6.6,4.13,4.5,6.23l-.8-.8a.56.56,0,0,0-.9,0,.56.56,0,0,0,0,.9h0l1.3,1.3a.56.56,0,0,0,.9,0H5L7.5,5a.56.56,0,0,0,0-.9C7.2,3.93,6.9,3.83,6.6,4.13Z"/><path id="Path_145" data-name="Path 145" class="cls-1" d="M6.6,9.33l-2.1,2.1-.8-.8a.56.56,0,0,0-.9,0,.56.56,0,0,0,0,.9l1.3,1.3a.56.56,0,0,0,.9,0H5l2.6-2.6a.56.56,0,0,0,0-.9.67.67,0,0,0-1,0Z"/><path id="Path_146" data-name="Path 146" class="cls-1" d="M6.6,14.43l-2.1,2.1-.8-.8a.56.56,0,0,0-.9,0,.56.56,0,0,0,0,.9l1.3,1.3a.56.56,0,0,0,.9,0H5l2.6-2.6a.56.56,0,0,0,0-.9.91.91,0,0,0-1,0Z"/></g></g></svg>