<?xml version="1.0" encoding="utf-8"?>
<!-- Generator: Adobe Illustrator 22.0.1, SVG Export Plug-In . SVG Version: 6.00 Build 0)  -->
<svg version="1.1" id="Layer_1" xmlns="http://www.w3.org/2000/svg" xmlns:xlink="http://www.w3.org/1999/xlink" x="0px" y="0px"
	 viewBox="0 0 16.9 22" style="enable-background:new 0 0 16.9 22;" xml:space="preserve">
   <defs>
    <filter id="fillpartial" primitiveUnits="objectBoundingBox" x="0%" y="0%" width="100%" height="100%">
      <feFlood x="0%" y="0%" width="100%" height="100%" flood-color="red" />
      <feOffset dy="0.5">
        <animate attributeName="dy" from="1" to=".5" dur="3s" />
      </feOffset>
      <feComposite operator="in" in2="SourceGraphic" />
      <feComposite operator="over" in2="SourceGraphic" />
    </filter>
  </defs>
<style type="text/css">
	.st0{fill:#1178F2;}
</style>
<g>
	<g id="Artboard_1">
		<g id="Group_206" transform="translate(0.901 0.032)">
			<path id="Path_140" class="st0" d="M15.3,22c0.4,0,0.6-0.3,0.6-0.6c0,0,0,0,0,0V10.2V4.6c0-0.2-0.1-0.3-0.2-0.5l-3.9-3.9
				C11.8,0.1,11.6,0,11.4,0H-0.3c-0.4,0-0.6,0.3-0.6,0.6l0,3.9v5.7v11.1c0,0,0,0,0,0c0,0.4,0.3,0.6,0.6,0.6H15.3z M0.4,1.3h10.4v3.3
				c0,0.4,0.3,0.6,0.6,0.6c0,0,0,0,0,0h3.2v15.5H0.4V1.3z"/>
			<path id="Path_141" class="st0" d="M12.7,6.5h-4c-0.4,0-0.7,0.3-0.7,0.6c0,0.4,0.3,0.7,0.6,0.7c0,0,0,0,0.1,0h4
				c0.4,0,0.6-0.3,0.6-0.7C13.3,6.8,13.1,6.5,12.7,6.5z"/>
			<path id="Path_142" class="st0" d="M12.7,11.6h-4c-0.4,0-0.7,0.3-0.7,0.6c0,0.4,0.3,0.7,0.6,0.7c0,0,0,0,0.1,0h4
				c0.4,0,0.7-0.3,0.7-0.6C13.4,12,13.1,11.7,12.7,11.6C12.8,11.6,12.7,11.6,12.7,11.6z"/>
			<path id="Path_143" class="st0" d="M12.7,16.8h-4c-0.4,0-0.7,0.3-0.7,0.6c0,0.4,0.3,0.7,0.6,0.7c0,0,0,0,0.1,0h4
				c0.4,0,0.7-0.3,0.7-0.6C13.4,17.1,13.1,16.8,12.7,16.8C12.8,16.8,12.7,16.8,12.7,16.8z"/>
			<path id="Path_144" class="st0" d="M5.7,4.1L3.6,6.2L2.8,5.4c-0.3-0.3-0.7-0.3-0.9,0C1.6,5.6,1.6,6,1.9,6.3l0,0l1.3,1.3
				c0.2,0.3,0.7,0.3,0.9,0c0,0,0,0,0,0L6.6,5c0.3-0.3,0.3-0.7,0-0.9S6,3.8,5.7,4.1z"/>
			<path id="Path_145" class="st0" d="M5.7,9.3l-2.1,2.1l-0.8-0.8c-0.3-0.3-0.7-0.3-0.9,0c-0.3,0.3-0.3,0.7,0,0.9l1.3,1.3
				c0.2,0.3,0.7,0.3,0.9,0c0,0,0,0,0,0l2.6-2.6c0.3-0.3,0.3-0.7,0-0.9C6.4,9,6,9,5.7,9.3L5.7,9.3z"/>
			<path id="Path_146" class="st0" d="M5.7,14.4l-2.1,2.1l-0.8-0.8c-0.3-0.3-0.7-0.3-0.9,0c-0.3,0.3-0.3,0.7,0,0.9l1.3,1.3
				c0.2,0.3,0.7,0.3,0.9,0c0,0,0,0,0,0l2.6-2.6c0.3-0.3,0.3-0.7,0-0.9C6.4,14.2,6,14.2,5.7,14.4L5.7,14.4L5.7,14.4z"/>
		</g>
	</g>
</g>
</svg>
