<svg xmlns="http://www.w3.org/2000/svg" xmlns:xlink="http://www.w3.org/1999/xlink" viewBox="0 0 655.34 448.77"><defs><style>.cls-1,.cls-8{fill:none;}.cls-14,.cls-2,.cls-5,.cls-6{fill:#fff;}.cls-3{fill:url(#linear-gradient);}.cls-12,.cls-4{fill:#d789f2;}.cls-5{opacity:0.65;}.cls-6{opacity:0.5;}.cls-7{fill:url(#linear-gradient-2);}.cls-12,.cls-8{stroke:#fff;stroke-miterlimit:10;stroke-width:1.38px;}.cls-9{fill:#f8e6ff;}.cls-10{fill:#f2dafb;opacity:0.69;}.cls-11{fill:#fdfafe;}.cls-13{fill:url(#linear-gradient-3);}.cls-14{opacity:0.87;}.cls-15{fill:url(#linear-gradient-4);}.cls-16{fill:url(#linear-gradient-5);}.cls-17{fill:url(#linear-gradient-6);}.cls-18{fill:url(#linear-gradient-7);}.cls-19{fill:url(#linear-gradient-8);}.cls-20{fill:url(#linear-gradient-9);}.cls-21{fill:url(#linear-gradient-10);}.cls-22{fill:url(#linear-gradient-11);}.cls-23{fill:url(#linear-gradient-12);}.cls-24{fill:url(#linear-gradient-13);}.cls-25{fill:url(#linear-gradient-14);}.cls-26{fill:url(#linear-gradient-15);}.cls-27{fill:url(#linear-gradient-16);}.cls-28{fill:url(#linear-gradient-17);}.cls-29{fill:url(#linear-gradient-18);}.cls-30{fill:url(#linear-gradient-19);}.cls-31{fill:url(#linear-gradient-20);}.cls-32{fill:url(#linear-gradient-21);}.cls-33{fill:url(#linear-gradient-22);}.cls-34{fill:url(#linear-gradient-23);}.cls-35{clip-path:url(#clip-path);}.cls-36{fill:url(#linear-gradient-24);}.cls-37{fill:url(#linear-gradient-25);}.cls-38{fill:url(#linear-gradient-26);}.cls-39{fill:url(#linear-gradient-27);}.cls-40{fill:url(#linear-gradient-28);}.cls-41{fill:#feb37c;}.cls-42{fill:url(#linear-gradient-29);}.cls-43{fill:url(#linear-gradient-30);}.cls-44{fill:url(#linear-gradient-31);}.cls-45{fill:url(#linear-gradient-32);}.cls-46{fill:url(#linear-gradient-33);}.cls-47{fill:url(#linear-gradient-34);}.cls-48{fill:url(#linear-gradient-35);}.cls-49{fill:url(#linear-gradient-36);}.cls-50{fill:url(#linear-gradient-37);}.cls-51{fill:url(#linear-gradient-38);}.cls-52{fill:#7893b0;}.cls-53{fill:#a1b5c9;}.cls-54{fill:#0058c2;}.cls-55{fill:#f89953;}.cls-56{fill:#ff65ab;}.cls-57{fill:url(#linear-gradient-39);}.cls-58{fill:#80b3e4;}.cls-59{fill:#e2f6fc;}.cls-60{fill:#ec448f;}.cls-61{fill:url(#linear-gradient-40);}.cls-62{fill:#248cba;}.cls-63{fill:#57a6d3;}.cls-64{fill:url(#Degradado_sin_nombre_38);}.cls-65{fill:#f8d116;}.cls-66{fill:url(#Degradado_sin_nombre_38-2);}.cls-67{fill:#03698c;}.cls-68{fill:#4b3f8e;}.cls-69{fill:#ebb200;}.cls-70{fill:#00aeef;opacity:0.33;}</style><linearGradient id="linear-gradient" x1="205.69" y1="186.83" x2="425.33" y2="186.83" gradientTransform="translate(-12.27 3.71) rotate(-0.54)" gradientUnits="userSpaceOnUse"><stop offset="0" stop-color="#2b3582"/><stop offset="1" stop-color="#150e42"/></linearGradient><linearGradient id="linear-gradient-2" x1="153.92" y1="226.59" x2="579.85" y2="-22.59" gradientTransform="translate(-12.27 3.71) rotate(-0.54)" gradientUnits="userSpaceOnUse"><stop offset="0" stop-color="#53d8ff"/><stop offset="1" stop-color="#3840f7"/></linearGradient><linearGradient id="linear-gradient-3" x1="586.38" y1="-830.12" x2="387.6" y2="-668.35" gradientTransform="translate(-61.7 830.82) rotate(4.53)" gradientUnits="userSpaceOnUse"><stop offset="0" stop-color="#a737d5"/><stop offset="1" stop-color="#ef497a"/></linearGradient><linearGradient id="linear-gradient-4" x1="611.88" y1="-798.78" x2="413.11" y2="-637.01" xlink:href="#linear-gradient-3"/><linearGradient id="linear-gradient-5" x1="615.27" y1="-794.61" x2="416.5" y2="-632.85" gradientTransform="translate(-203.14 -366.83) rotate(90)" xlink:href="#linear-gradient-3"/><linearGradient id="linear-gradient-6" x1="622.89" y1="-785.26" x2="424.11" y2="-623.49" xlink:href="#linear-gradient-3"/><linearGradient id="linear-gradient-7" x1="308.32" y1="-542.3" x2="74.61" y2="-352.1" gradientTransform="translate(218.88 512.5) rotate(4.59)" xlink:href="#linear-gradient-2"/><linearGradient id="linear-gradient-8" x1="338.32" y1="-505.45" x2="104.59" y2="-315.25" gradientTransform="translate(218.88 512.5) rotate(4.59)" gradientUnits="userSpaceOnUse"><stop offset="0" stop-color="#cb236d"/><stop offset="1" stop-color="#4c246d"/></linearGradient><linearGradient id="linear-gradient-9" x1="342.31" y1="-500.55" x2="108.58" y2="-310.35" gradientTransform="matrix(0, 1, -1, 0, 72.44, -112.03)" xlink:href="#linear-gradient-8"/><linearGradient id="linear-gradient-10" x1="351.25" y1="-489.56" x2="117.53" y2="-299.35" xlink:href="#linear-gradient-8"/><linearGradient id="linear-gradient-11" x1="486.23" y1="26.64" x2="305.42" y2="145.47" gradientTransform="translate(-12.27 3.71) rotate(-0.54)" xlink:href="#linear-gradient-8"/><linearGradient id="linear-gradient-12" x1="400.76" y1="29.77" x2="500.22" y2="29.77" xlink:href="#linear-gradient-2"/><linearGradient id="linear-gradient-13" x1="400.76" y1="39.58" x2="500.22" y2="39.58" gradientTransform="translate(-11.92 -0.51)" xlink:href="#linear-gradient-2"/><linearGradient id="linear-gradient-14" x1="429.89" y1="47.47" x2="500.22" y2="47.47" xlink:href="#linear-gradient-2"/><linearGradient id="linear-gradient-15" x1="337.84" y1="74.48" x2="491.41" y2="74.48" xlink:href="#linear-gradient-2"/><linearGradient id="linear-gradient-16" x1="376.73" y1="92.07" x2="377.74" y2="92.07" xlink:href="#linear-gradient-2"/><linearGradient id="linear-gradient-17" x1="416.14" y1="113.11" x2="417.15" y2="113.11" xlink:href="#linear-gradient-2"/><linearGradient id="linear-gradient-18" x1="444.64" y1="104.03" x2="447.09" y2="104.03" xlink:href="#linear-gradient-2"/><linearGradient id="linear-gradient-19" x1="474.65" y1="112.47" x2="475.65" y2="112.47" xlink:href="#linear-gradient-2"/><linearGradient id="linear-gradient-20" x1="326.21" y1="85.6" x2="335.98" y2="85.6" xlink:href="#linear-gradient-2"/><linearGradient id="linear-gradient-21" x1="326.21" y1="38.47" x2="335.98" y2="38.47" xlink:href="#linear-gradient-2"/><linearGradient id="linear-gradient-22" x1="328.38" y1="129.01" x2="497.74" y2="129.01" xlink:href="#linear-gradient-2"/><linearGradient id="linear-gradient-23" x1="328.38" y1="129.01" x2="497.74" y2="129.01" xlink:href="#linear-gradient-2"/><clipPath id="clip-path"><rect class="cls-1" x="212.8" y="40.08" width="189.89" height="167.71" transform="translate(-1.15 2.89) rotate(-0.54)"/></clipPath><linearGradient id="linear-gradient-24" x1="281.58" y1="313.21" x2="299.59" y2="313.21" xlink:href="#linear-gradient"/><linearGradient id="linear-gradient-25" x1="326.68" y1="291.96" x2="261.14" y2="343.42" xlink:href="#linear-gradient-2"/><linearGradient id="linear-gradient-26" x1="415.67" y1="-6" x2="346.21" y2="65.96" xlink:href="#linear-gradient-2"/><linearGradient id="linear-gradient-27" x1="380.56" y1="38.81" x2="346.15" y2="78.23" gradientTransform="translate(-12.27 3.71) rotate(-0.54)" gradientUnits="userSpaceOnUse"><stop offset="0" stop-color="#fdf53f"/><stop offset="1" stop-color="#d93c65"/></linearGradient><linearGradient id="linear-gradient-28" x1="391.1" y1="28.19" x2="372.95" y2="51.66" xlink:href="#linear-gradient-2"/><linearGradient id="linear-gradient-29" x1="286.59" y1="292.7" x2="283.15" y2="322.74" gradientTransform="translate(-12.27 3.71) rotate(-0.54)" gradientUnits="userSpaceOnUse"><stop offset="0" stop-color="#f9b776"/><stop offset="1" stop-color="#f47960"/></linearGradient><linearGradient id="linear-gradient-30" x1="338.32" y1="306.79" x2="272.78" y2="358.25" xlink:href="#linear-gradient-2"/><linearGradient id="linear-gradient-31" x1="309.01" y1="313.69" x2="334.95" y2="313.69" xlink:href="#linear-gradient"/><linearGradient id="linear-gradient-32" x1="314.62" y1="295.91" x2="311.18" y2="325.95" xlink:href="#linear-gradient-29"/><linearGradient id="linear-gradient-33" x1="355.51" y1="158.57" x2="245.44" y2="329.37" gradientTransform="translate(-12.27 3.71) rotate(-0.54)" gradientUnits="userSpaceOnUse"><stop offset="0" stop-color="#7c27dd"/><stop offset="1" stop-color="#2b41d9"/></linearGradient><linearGradient id="linear-gradient-34" x1="320.92" y1="85.83" x2="218.44" y2="310.72" gradientTransform="translate(-12.27 3.71) rotate(-0.54)" xlink:href="#linear-gradient-3"/><linearGradient id="linear-gradient-35" x1="-3121.26" y1="3532.78" x2="-3093.41" y2="3532.78" gradientTransform="translate(-202.99 -4583.23) rotate(-47.27)" xlink:href="#linear-gradient"/><linearGradient id="linear-gradient-36" x1="283.12" y1="111.39" x2="255.92" y2="161.37" gradientTransform="translate(-12.27 3.71) rotate(-0.54)" xlink:href="#linear-gradient-3"/><linearGradient id="linear-gradient-37" x1="293.78" y1="204.43" x2="284.55" y2="220.85" xlink:href="#linear-gradient"/><linearGradient id="linear-gradient-38" x1="156.03" y1="271.13" x2="46.97" y2="452.89" gradientUnits="userSpaceOnUse"><stop offset="0" stop-color="#cb236d"/><stop offset="1" stop-color="#73246d"/></linearGradient><linearGradient id="linear-gradient-39" x1="-2226.81" y1="844.13" x2="-2218.88" y2="889.37" gradientTransform="translate(1226.8 -1841.85) rotate(-39.67)" xlink:href="#linear-gradient"/><linearGradient id="linear-gradient-40" x1="571.47" y1="228.26" x2="525.62" y2="483.49" xlink:href="#linear-gradient-38"/><linearGradient id="Degradado_sin_nombre_38" x1="533.89" y1="283" x2="597.07" y2="283" gradientUnits="userSpaceOnUse"><stop offset="0.01" stop-color="#004970"/><stop offset="1" stop-color="#00606d"/></linearGradient><linearGradient id="Degradado_sin_nombre_38-2" x1="539.31" y1="240.81" x2="575.61" y2="263.45" xlink:href="#Degradado_sin_nombre_38"/></defs><title>Artboard 137</title><g id="menú_desplegable_de_carrito" data-name="menú desplegable de carrito"><path class="cls-2" d="M125.52,166.24c48.31-52.25,125.57-74,250.57-74s256.5,74.83,229,179-112.47,105.13-152,104.63-85.18,7.84-121.52,22.67S250.15,444.21,190,421,9.44,291.78,125.52,166.24Z"/><path class="cls-3" d="M213.08,25.08a16.51,16.51,0,0,0-15.27,16.23c-.81,52.26-3.32,232.54-.71,296.39A12.81,12.81,0,0,0,209.62,350c33.47.79,129.77,2.66,184.49-.15a21.6,21.6,0,0,0,20.51-21.32c.62-54.85,1.68-209.14-4.94-279.75a17.64,17.64,0,0,0-16-15.91C357.23,29.57,260.35,21.57,213.08,25.08Z"/><path class="cls-4" d="M211.56,57.41c-1.43,42.82-5.86,185.24-3.53,237.86a14.89,14.89,0,0,0,14.15,14.24c31.66,1.55,112.87,4.88,159.26.72a16.74,16.74,0,0,0,15.22-15.94c1.94-43.68,7.45-176.31,5.21-228.35a16.47,16.47,0,0,0-15.14-15.69C352.47,47.5,264.47,41,225,43.53A14.4,14.4,0,0,0,211.56,57.41Z"/><path class="cls-5" d="M306.44,343.9a14.22,14.22,0,1,1,14.09-14.35A14.24,14.24,0,0,1,306.44,343.9Zm-.25-27.43a13.21,13.21,0,1,0,13.34,13.09A13.22,13.22,0,0,0,306.19,316.47Z"/><path class="cls-6" d="M280.45,33.58h0a3,3,0,0,0,2.88,3c7.91.34,30.19,1.3,40.15,1.79a3,3,0,0,0,3.09-3.61l-.06-.33A3,3,0,0,0,323.8,32c-6.73-.55-27.05-2.07-40.49-1.46A3,3,0,0,0,280.45,33.58Z"/><path class="cls-7" d="M218.24,67.66c2.25,26.06,8.39,110,10.13,133.94a7,7,0,0,0,6.93,6.45l143.58.35a7,7,0,0,0,7-6.67l5.65-130a7,7,0,0,0-6.77-7.27L225.37,60.11A7,7,0,0,0,218.24,67.66Z"/><path class="cls-8" d="M321,267.67a18.42,18.42,0,0,1-18.24,18.59c-10.17.09-20.27-7.52-20.36-17.69s9.85-19,20-19.14A18.42,18.42,0,0,1,321,267.67Z"/><path class="cls-9" d="M299.34,279.2h0A2.44,2.44,0,0,1,296.9,277l-1.81-15.49a2.45,2.45,0,0,1,2.6-2.73l1.66.12a2.45,2.45,0,0,1,2.28,2.41l.14,15.38A2.45,2.45,0,0,1,299.34,279.2Z"/><path class="cls-9" d="M304.44,261.09l.14,15.63a2.45,2.45,0,0,0,2.44,2.43h.39a2.45,2.45,0,0,0,2.45-2.38l.42-15.65a2.45,2.45,0,0,0-2.47-2.51h-.95A2.45,2.45,0,0,0,304.44,261.09Z"/><path class="cls-8" d="M359.77,267.31a14,14,0,0,1-13.9,14.16c-7.75.07-15.45-5.73-15.52-13.48s7.51-14.51,15.25-14.58A14,14,0,0,1,359.77,267.31Z"/><path class="cls-9" d="M339.87,261.45,340,274a2,2,0,0,0,1.95,1.94h.32a2,2,0,0,0,2-1.91l.33-12.5a2,2,0,0,0-2-2h-.77A2,2,0,0,0,339.87,261.45Z"/><path class="cls-9" d="M347.38,261l-.54,13.09a1,1,0,0,0,1.8.77l6.27-6.57a1,1,0,0,0,0-1.41l-5.72-6.53A1.05,1.05,0,0,0,347.38,261Z"/><path class="cls-8" d="M246,268.38a14,14,0,0,0,14.17,13.89c7.74-.07,15.33-6,15.26-13.76s-7.78-14.37-15.53-14.3A14,14,0,0,0,246,268.38Z"/><path class="cls-9" d="M265.76,262.15l.12,12.49a2,2,0,0,1-1.92,2h-.31a1.94,1.94,0,0,1-2-1.86l-.57-12.5a2,2,0,0,1,1.93-2h.77A2,2,0,0,1,265.76,262.15Z"/><path class="cls-9" d="M258.24,261.8l.78,13.07a1.05,1.05,0,0,1-1.79.81l-6.39-6.45a1.06,1.06,0,0,1-.05-1.42l5.6-6.62A1,1,0,0,1,258.24,261.8Z"/><path class="cls-10" d="M219.08,232.5l.18,1.62a2.91,2.91,0,0,0,2.92,2.6l157.44-1.48a2.92,2.92,0,0,0,2.89-2.94h0a2.92,2.92,0,0,0-2.91-2.89L222,229.27A2.91,2.91,0,0,0,219.08,232.5Z"/><path class="cls-11" d="M319.86,233.94c-.2-1.51-.44-3-.67-4.58L222,229.27a2.91,2.91,0,0,0-2.9,3.23l.18,1.62a2.91,2.91,0,0,0,2.92,2.6l98-.92C320,235.15,319.94,234.52,319.86,233.94Z"/><circle class="cls-12" cx="320.62" cy="232.42" r="5.27" transform="translate(42.48 514.3) rotate(-81.32)"/><path class="cls-13" d="M556.14,180.28,420.6,169.53A10.68,10.68,0,0,1,410.76,159l-1.35-91.31A10.68,10.68,0,0,1,420.73,56.9L565,65.59A10.67,10.67,0,0,1,575,77.1l-7.4,93.37A10.69,10.69,0,0,1,556.14,180.28Z"/><path class="cls-14" d="M417.43,76.49l-.16,78.85a6.62,6.62,0,0,0,6,6.6l130,11.68a6.62,6.62,0,0,0,7.18-6.06l6.69-84.38a6.6,6.6,0,0,0-6.29-7.12L424.33,69.9A6.61,6.61,0,0,0,417.43,76.49Z"/><path class="cls-15" d="M479.64,144.8l73.53,3.62a1.34,1.34,0,0,1,1.27,1.44l-.09,1.18a1.34,1.34,0,0,1-1.42,1.23l-73.45-4.8a1.34,1.34,0,0,1-1.24-1.44h0A1.34,1.34,0,0,1,479.64,144.8Z"/><rect class="cls-16" x="514.15" y="117.31" width="3.18" height="76.27" rx="1.34" ry="1.34" transform="translate(320.04 657.3) rotate(-85.47)"/><path class="cls-17" d="M499.5,160.52l0,.22a1.34,1.34,0,0,0,1.23,1.44l51.09,4a1.33,1.33,0,0,0,1.44-1.22l.08-1a1.33,1.33,0,0,0-1.25-1.44l-51.16-3.24A1.33,1.33,0,0,0,499.5,160.52Z"/><path class="cls-18" d="M531.43,150.15,372.07,137.37A12.54,12.54,0,0,1,360.52,125L359,17.67A12.58,12.58,0,0,1,372.34,5L542,15.31a12.56,12.56,0,0,1,11.76,13.54L545,138.63A12.57,12.57,0,0,1,531.43,150.15Z"/><path class="cls-14" d="M368.44,28l-.27,92.71a7.77,7.77,0,0,0,7.07,7.76l152.82,13.87a7.77,7.77,0,0,0,8.45-7.12l8-99.2a7.77,7.77,0,0,0-7.39-8.38L376.56,20.24A7.77,7.77,0,0,0,368.44,28Z"/><path class="cls-19" d="M441.51,108.36,528,112.69a1.58,1.58,0,0,1,1.49,1.7l-.11,1.39a1.57,1.57,0,0,1-1.67,1.44l-86.35-5.72a1.57,1.57,0,0,1-1.46-1.7h0A1.56,1.56,0,0,1,441.51,108.36Z"/><rect class="cls-20" x="482.09" y="76.08" width="3.74" height="89.67" rx="1.57" ry="1.57" transform="matrix(0.08, -1, 1, 0.08, 324.76, 593.66)"/><path class="cls-21" d="M464.84,126.87l0,.25a1.58,1.58,0,0,0,1.45,1.7l60.07,4.81a1.57,1.57,0,0,0,1.69-1.44l.1-1.22a1.57,1.57,0,0,0-1.47-1.69l-60.15-3.86A1.59,1.59,0,0,0,464.84,126.87Z"/><path class="cls-22" d="M491.75,150l-177.31,1.66a13.93,13.93,0,0,1-14-12.5L288.16,20.73A13.93,13.93,0,0,1,301.62,5.36L490.08,0A13.93,13.93,0,0,1,504.41,13.8L505.55,136A13.94,13.94,0,0,1,491.75,150Z"/><path class="cls-14" d="M299.59,31.19l8.89,102.44a8.63,8.63,0,0,0,8.58,7.88l170.19.18a8.61,8.61,0,0,0,8.63-8.69l-1-110.38a8.63,8.63,0,0,0-9-8.53l-178,7.74A8.63,8.63,0,0,0,299.59,31.19Z"/><path class="cls-23" d="M390.44,29.4l95.94-3.77a1.74,1.74,0,0,1,1.81,1.72l0,1.55a1.75,1.75,0,0,1-1.71,1.76l-95.95,2.23a1.75,1.75,0,0,1-1.79-1.73h0A1.75,1.75,0,0,1,390.44,29.4Z"/><rect class="cls-24" x="388.84" y="36.99" width="99.46" height="4.15" rx="1.75" ry="1.75" transform="translate(-0.35 4.11) rotate(-0.54)"/><path class="cls-25" d="M418.05,47.53v.29a1.74,1.74,0,0,0,1.76,1.73l66.84-.62a1.75,1.75,0,0,0,1.73-1.77V45.81a1.74,1.74,0,0,0-1.79-1.73l-66.83,1.69A1.74,1.74,0,0,0,418.05,47.53Z"/><path class="cls-26" d="M463.43,99.79a.71.71,0,0,1-.48-.16l-29-23.13-28.2,21.06a.76.76,0,0,1-1-.11l-39.95-47c-4.45,4-33.31,29.77-37.16,33.19a.75.75,0,1,1-1-1.12l37.74-33.71a.7.7,0,0,1,.55-.19.75.75,0,0,1,.52.26l40,47.07,28.11-21a.75.75,0,0,1,.92,0l29,23.1,15.28-13.6a.75.75,0,1,1,1,1.12l-15.75,14A.72.72,0,0,1,463.43,99.79Z"/><path class="cls-27" d="M366.13,126.19a.5.5,0,0,1-.5-.5l0-1.51a.51.51,0,0,1,1,0v1.51A.5.5,0,0,1,366.13,126.19Zm0-5a.5.5,0,0,1-.51-.5l0-1.51a.5.5,0,0,1,.5-.5.5.5,0,0,1,.51.49v1.51A.5.5,0,0,1,366.09,121.16Zm0-5a.5.5,0,0,1-.51-.5v-1.51a.5.5,0,0,1,1,0l0,1.51A.5.5,0,0,1,366,116.13Zm-.05-5a.51.51,0,0,1-.51-.5v-1.51a.51.51,0,0,1,1,0v1.51A.5.5,0,0,1,366,111.1Zm-.05-5a.5.5,0,0,1-.5-.5l0-1.51a.5.5,0,0,1,.5-.5.5.5,0,0,1,.51.49v1.51A.5.5,0,0,1,365.94,106.07Zm0-5a.5.5,0,0,1-.51-.5V99a.5.5,0,0,1,1,0l0,1.51A.51.51,0,0,1,365.9,101Zm0-5a.5.5,0,0,1-.51-.5V94a.5.5,0,0,1,.5-.5.49.49,0,0,1,.5.49l0,1.51A.5.5,0,0,1,365.85,96Zm-.05-5a.51.51,0,0,1-.51-.5V89a.51.51,0,0,1,1,0v1.51A.5.5,0,0,1,365.8,91Zm0-5a.5.5,0,0,1-.51-.5l0-1.51a.5.5,0,0,1,.5-.5.5.5,0,0,1,.51.49v1.51A.5.5,0,0,1,365.76,86Zm-.05-5a.5.5,0,0,1-.51-.5V78.91a.5.5,0,0,1,1,0l0,1.51A.5.5,0,0,1,365.71,80.92Zm0-5a.51.51,0,0,1-.51-.5V73.88a.51.51,0,0,1,1,0v1.51A.5.5,0,0,1,365.66,75.89Zm-.05-5a.5.5,0,0,1-.5-.5l0-1.51a.5.5,0,0,1,.5-.5.5.5,0,0,1,.51.49v1.51A.5.5,0,0,1,365.61,70.86Zm0-5a.5.5,0,0,1-.51-.5l0-1.51a.51.51,0,0,1,.5-.5.5.5,0,0,1,.51.5l0,1.5A.51.51,0,0,1,365.57,65.83Zm-.05-5a.5.5,0,0,1-.51-.5V58.79a.5.5,0,0,1,.5-.5.5.5,0,0,1,.5.5l0,1.5A.5.5,0,0,1,365.52,60.8Z"/><path class="cls-28" d="M405.55,126.75a.5.5,0,0,1-.51-.5l0-1.51a.51.51,0,0,1,.5-.51.5.5,0,0,1,.51.5v1.51A.5.5,0,0,1,405.55,126.75Zm-.05-5a.5.5,0,0,1-.51-.5v-1.51a.5.5,0,1,1,1,0l0,1.51A.51.51,0,0,1,405.5,121.72Zm-.05-5a.51.51,0,0,1-.51-.5v-1.51a.5.5,0,0,1,.5-.51.51.51,0,0,1,.51.5v1.51A.51.51,0,0,1,405.45,116.69Zm0-5a.5.5,0,0,1-.51-.5l0-1.51a.51.51,0,0,1,1,0v1.51A.5.5,0,0,1,405.41,111.66Zm-.05-5a.5.5,0,0,1-.51-.5v-1.51a.5.5,0,0,1,.49-.51.5.5,0,0,1,.51.5l0,1.51A.51.51,0,0,1,405.36,106.63Zm-.05-5a.51.51,0,0,1-.51-.5V99.59a.5.5,0,0,1,.5-.51.5.5,0,0,1,.5.5l0,1.51A.51.51,0,0,1,405.31,101.6Z"/><path class="cls-29" d="M435.5,127.43A.51.51,0,0,1,435,127l-.06-1.51a.5.5,0,0,1,.48-.52.48.48,0,0,1,.53.48l.06,1.51a.5.5,0,0,1-.48.52Zm-.2-5a.5.5,0,0,1-.51-.48l-.06-1.51a.5.5,0,0,1,1,0l.06,1.51a.49.49,0,0,1-.48.52Zm-.21-5a.5.5,0,0,1-.5-.48l-.06-1.51a.49.49,0,0,1,.48-.52.5.5,0,0,1,.52.48l.06,1.51a.5.5,0,0,1-.48.52Zm-.2-5a.5.5,0,0,1-.51-.48l-.06-1.51a.5.5,0,0,1,.48-.52.49.49,0,0,1,.53.48l.06,1.51a.5.5,0,0,1-.48.52Zm-.2-5a.51.51,0,0,1-.51-.49l-.06-1.5a.5.5,0,0,1,.48-.53.49.49,0,0,1,.52.49l.07,1.5a.51.51,0,0,1-.49.53Zm-.21-5a.5.5,0,0,1-.5-.48l-.06-1.51a.5.5,0,1,1,1,0l.06,1.51a.5.5,0,0,1-.48.52Zm-.2-5a.5.5,0,0,1-.51-.48l-.06-1.51a.51.51,0,0,1,.49-.52.52.52,0,0,1,.52.48l.06,1.51a.5.5,0,0,1-.48.52Zm-.2-5a.51.51,0,0,1-.51-.48l-.06-1.51a.5.5,0,0,1,.48-.52.49.49,0,0,1,.52.48l.07,1.51a.51.51,0,0,1-.49.52Zm-.21-5a.49.49,0,0,1-.5-.48l-.06-1.51a.49.49,0,0,1,.48-.52.48.48,0,0,1,.52.48l.06,1.51a.5.5,0,0,1-.48.52Zm-.2-5a.51.51,0,0,1-.51-.49l-.06-1.5a.51.51,0,0,1,.49-.53.49.49,0,0,1,.52.49l.06,1.5a.51.51,0,0,1-.48.53Z"/><path class="cls-30" d="M464,123a.5.5,0,0,1-.51-.49V121a.5.5,0,1,1,1,0l0,1.51A.5.5,0,0,1,464,123Zm0-5a.49.49,0,0,1-.5-.49l0-1.51a.5.5,0,0,1,.5-.51.51.51,0,0,1,.51.5v1.51A.5.5,0,0,1,464,118Zm0-5a.5.5,0,0,1-.51-.49l0-1.51a.51.51,0,0,1,1,0v1.51A.49.49,0,0,1,463.93,113Zm-.05-5a.5.5,0,0,1-.51-.49v-1.51a.5.5,0,1,1,1,0l0,1.51A.5.5,0,0,1,463.88,107.94Zm-.05-5a.5.5,0,0,1-.51-.49v-1.51a.5.5,0,0,1,.5-.51.51.51,0,0,1,.51.5v1.51A.5.5,0,0,1,463.83,102.91Z"/><path class="cls-31" d="M324.19,134.8a.75.75,0,0,1-.75-.69l-9-95.67a.76.76,0,0,1,.68-.82.75.75,0,0,1,.82.68l9,95.67a.75.75,0,0,1-.68.82Z"/><polygon class="cls-32" points="312.92 41.6 315.23 38.81 318.01 41.12 317.81 38.96 315.02 36.65 312.71 39.44 312.92 41.6"/><path class="cls-33" d="M484.19,128.83l-166.13,1.56a.76.76,0,0,1-.76-.75.75.75,0,0,1,.75-.76l166.12-1.56a.76.76,0,0,1,0,1.51Z"/><polygon class="cls-34" points="481.2 130.66 483.73 128.08 481.15 125.54 483.32 125.52 485.9 128.06 483.37 130.64 481.2 130.66"/><g class="cls-35"><path class="cls-36" d="M290.31,320.51a1.37,1.37,0,0,0-.05-.4c-2.1-8-12.22-12.94-12.22-12.94l-4,.35c-2.23,7.11-1.89,11.45-1.5,13.39a1.24,1.24,0,0,0,0,.16A94.6,94.6,0,0,0,290.31,320.51Z"/><path class="cls-37" d="M272.59,321.07a1.71,1.71,0,0,0,1.28,1.26c4.69.94,12.12.08,15.25-.36a1.46,1.46,0,0,0,1.19-1.46A94.6,94.6,0,0,1,272.59,321.07Z"/><path class="cls-38" d="M328.32,60.86l26.2-9.79,2.06,4.22L331.4,65.05A3.47,3.47,0,0,1,328.32,60.86Z"/><path class="cls-39" d="M354.52,51.07c-.75,2.35,2.06,4.22,2.06,4.22l4.74-3.41A9.26,9.26,0,0,1,360.8,50Z"/><path class="cls-40" d="M360.8,50a9.26,9.26,0,0,0,.52,1.86l3.5-2.53Z"/><path class="cls-41" d="M255.45,178.42a37,37,0,0,1-8.59,6.4,71.57,71.57,0,0,0,15.94,13.91l2,4.37,6.2-7.57S259.69,190.05,255.45,178.42Z"/><path class="cls-42" d="M272.39,301.59l1.77,8.12a1.32,1.32,0,0,0,1.14,1.08,11.22,11.22,0,0,0,2.62-.06,1.68,1.68,0,0,0,1.31-2L278,301.54Z"/><path class="cls-43" d="M307.59,320.66c-4.41-.09-6.69-.58-7.87-1.05,0,.43,0,.88,0,1.34a.87.87,0,0,0,.84.88l24.2-.38a1.11,1.11,0,0,0,.88-1.62C322.48,320.12,314.41,320.78,307.59,320.66Z"/><path class="cls-44" d="M325.66,319.83a1,1,0,0,0-.1-.18c-2.17-3-7.67-8.86-18.45-11.34l-5.16-.12s-2.26,4-2.23,11.42c1.18.47,3.46,1,7.87,1.05C314.41,320.78,322.48,320.12,325.66,319.83Z"/><path class="cls-45" d="M300.92,300.38c.06.39.82,6.22,1.12,8.49a1.11,1.11,0,0,0,1,1,11.88,11.88,0,0,0,3.54-.08,1.53,1.53,0,0,0,1.14-1.55l-.08-9.17Z"/><path class="cls-46" d="M295.78,193.74s12.89,47.18,13.22,106.7a2.28,2.28,0,0,1-1.8,2.26,26.91,26.91,0,0,1-5.77.73,2.14,2.14,0,0,1-2.05-1.77c-1.84-10.22-12.4-67.78-18.19-77.08,0,0-3.27,51.38-1.82,78a1.27,1.27,0,0,1-1.1,1.32,20.78,20.78,0,0,1-4.64,0,1.69,1.69,0,0,1-1.52-1.42c-1.32-8.65-9-60.13-9-97.28,0-2.09,5.43-11.25,5.43-11.25Z"/><path class="cls-47" d="M335.52,91.5c-5.36,10.22-14.34,20.68-29.06,23.6-13.6,2.7-38,6.1-47.85,7.43a12,12,0,0,0-7.57,4.16c-7.65,9-24.37,33.65-4.18,58.13a37,37,0,0,0,8.59-6.4c-2.27-6.2-2.53-14.15,2-23.95.17.77.37,1.53.61,2.28a141.84,141.84,0,0,1,7.09,40.84,1.27,1.27,0,0,0,.81,1.18c8.43,3.29,24.57,1.14,30,.28a1.82,1.82,0,0,0,1.51-2.09c-2.84-19.26,10.52-51.11,14.06-59.09a5.23,5.23,0,0,1,2.59-2.65c20.55-9.53,29.38-24,32.9-37C343.82,94.07,338.93,92.27,335.52,91.5Z"/><path class="cls-41" d="M347,98.26a62.6,62.6,0,0,0,.7-29.29L343,69a75.9,75.9,0,0,1-7.49,22.49C338.93,92.27,343.82,94.07,347,98.26Z"/><path class="cls-41" d="M344.69,71.5s-7.24-9.2-5-14.06S350,53,350,53l1.16,3.77a4.76,4.76,0,0,1-.09,3l-4.29,11.69Z"/><path class="cls-41" d="M272.94,103.84l-1.46,16.54s9.32,2.72,16-2.12l-4.89-15Z"/><path class="cls-41" d="M283.55,84.9c.23.21,9.62,18.23,9.62,18.23l-10.4,5.14L271.33,92.52S279.77,81.41,283.55,84.9Z"/><path class="cls-48" d="M276,92.91a1.69,1.69,0,0,0,.14,1.47l5.29,8.64a1.64,1.64,0,0,0,.29.35c.63.57,2.76,2.23,4.38-.07,1.38-2,2.68-3.75,4.08-4.49a1.66,1.66,0,0,1,2.26.72A61.79,61.79,0,0,1,296,108a1.67,1.67,0,0,1-.94,2,45.76,45.76,0,0,1-10,3,1.67,1.67,0,0,1-1.58-.65c-1.62-2.18-6.17-8.25-7.72-9.76s-4.07-.85-5.26-.5a1.63,1.63,0,0,1-1.33-.16c-1.21-.71-3.33-2.5-1.44-5.58a1.67,1.67,0,0,0-.53-2.26,3.69,3.69,0,0,1-1.47-5.22,5.2,5.2,0,0,1,5.61-2.8,1.75,1.75,0,0,0,1.81-1,1.07,1.07,0,0,1,.85-.69,1.61,1.61,0,0,0,1.29-1.91,4.25,4.25,0,0,1,2.34-4.91c4.49-2.53,8.47,1.48,9.51,4.88s-4,5.86-7.15,6.29C277.71,89,276.46,91.58,276,92.91Z"/><path class="cls-41" d="M277.79,105.77s-2.06-5.85-4.62-5.61-4.56,2.82-1.35,5.66C275.81,109.36,277.79,105.77,277.79,105.77Z"/><path class="cls-49" d="M256.6,153c-3.47-9.23-2.35-20.42-2.34-20.53l.94.09c0,.11-1.11,11.09,2.28,20.11Z"/><path class="cls-50" d="M280.72,223.38a.48.48,0,0,1-.46-.35c-1.07-4-8.84-8.27-8.91-8.32a.46.46,0,0,1-.19-.63.48.48,0,0,1,.64-.19c.33.18,8.2,4.54,9.37,8.89a.47.47,0,0,1-.33.58Z"/></g><path class="cls-51" d="M24.62,267.53S2.31,279.89.46,300.8.31,408.54,45.05,429.91,149,446.36,171.67,444s35.24-17.74,38.05-28.35,7.34-50.12-16.51-62.87-48.89-32.27-73.92-51.28S51.38,251.47,24.62,267.53Z"/><path class="cls-52" d="M193.75,386.5c1.33.19,1.87-1.63,1.88-2.39,0-2.57-1-5.24-4-9.45-4.11-5.7-10.58-9.58-23.29-15.76,0,0-5.34.34-6.17,11.05q0,.45-.06.93S176,383.88,193.75,386.5Z"/><path class="cls-52" d="M224.42,433.24a41,41,0,0,0-3.79-3.7,44.75,44.75,0,0,0-24.54-10.45l-3.86,2.41a42.15,42.15,0,0,0,7.07,7.44c5.26,4.4,13.23,9,23.24,8.66A2.62,2.62,0,0,0,224.42,433.24Z"/><path class="cls-53" d="M180.54,377.83l15.08,5.57s.49,2.83-1.6,3.11a34.7,34.7,0,0,1-11.33-2.85C176.79,381,180.54,377.83,180.54,377.83Z"/><path class="cls-53" d="M199,419.5s11.12.76,19.56,7.24,8.26,8.05,7,10.46-12.77,1.45-19.47-2.55-11.2-9.21-11.7-10.4S199,419.5,199,419.5Z"/><path class="cls-54" d="M104.6,345.87l11.92-.12s36.17-40.75,60.12-45.06c0,0,16.9,21.15-.29,61.15a5.81,5.81,0,0,1-8.3,2.82,4.68,4.68,0,0,1-1.92-2.25l1.08-34s-30.93,27.59-36.3,32.9S98,363.68,104.6,345.87Z"/><path class="cls-54" d="M105.12,354.48l55.81.06s32.12,26,38.29,66.2c0,0,1,2.95-4.76,3.51a110.69,110.69,0,0,1-32.17-34.52c-15.67-27.13-46.07-14.55-46.07-14.55-10.09-7.13-24.28-8.46-35-10.77Z"/><path class="cls-55" d="M106,309.52s6.3,30.05,35.85,41.67l10.46-1.34,2.51,3.92-24.55,1a67.16,67.16,0,0,1-32.42-30.66C97.47,323.39,91.23,310.8,106,309.52Z"/><path class="cls-56" d="M109.65,354s-7-18.5-8.65-36.53a79.14,79.14,0,0,1,8.06-6.23,2.27,2.27,0,0,0,.85-2.94c-2.34-4.73-16.41-23.27-17.45-23.52-5.67-1.36-29-12.16-45.08,10.34-6.92,9.66,1.77,39.09,33.87,69.34l6.57,1.19Z"/><path class="cls-41" d="M83,321.66S102.21,344,126.51,347c0,0,6.21-5.78,10.9-3.79s11.16,11,11.16,11l-31.15.3S88,353.71,73.05,336C74.18,329.73,77.69,326,83,321.66Z"/><path class="cls-41" d="M71.43,269.17l-4,13.89a1.53,1.53,0,0,0,.61,1.69,15.49,15.49,0,0,0,14.41,1.31,2.28,2.28,0,0,0,1.43-2L84.73,272Z"/><path class="cls-41" d="M88.7,245.9s7.59,12.35,6.16,19.27S83,276.39,73.34,270.38l-6.25-18.87Z"/><path class="cls-57" d="M74.11,261.25a.71.71,0,0,0,.35-1,18.62,18.62,0,0,1-2.35-5.5s-1.61-1.11,4.28-2.3,14.66-3,16.67-7.93-2.28-17.13-10.11-7.7a.7.7,0,0,1-1.12,0c-1.17-1.64-4.27-5.07-8.82-3.22-4.25,1.72-4.83,4.77-4.83,6.32a.7.7,0,0,1-.87.69c-2.1-.48-7.16-1-9.72,4.12-2.11,4.22-.93,6.69.18,7.92a.72.72,0,0,1-.34,1.17c-1.41.37-3.25,1.48-3.19,4.75.09,4.51,5.14,4.3,6.58,4.15a.7.7,0,0,1,.62.24c1.18,1.41,6.51,7.39,12.48,8.3a.72.72,0,0,0,.79-.92l-2.32-7.63a.71.71,0,0,1,.41-.87Z"/><path class="cls-41" d="M75.12,262.36s-6.36-4.71-7-1,5.67,5.67,8.86,4.38Z"/><path class="cls-58" d="M147,355.91l13.53-46.78a4.76,4.76,0,0,1,4.21-3.43l18.87-1.48a2.68,2.68,0,0,1,2.75,3.53l-15.2,44.71a3.92,3.92,0,0,1-3.28,2.63l-18.58,2.25Z"/><path class="cls-59" d="M172.52,324.82c-1,2.12-2.82,3.38-4,2.8s-1.31-2.75-.29-4.87,2.82-3.37,4-2.8S173.54,322.71,172.52,324.82Z"/><path class="cls-58" d="M149.32,357.34h-.09l-39.65-1.62a1.78,1.78,0,0,1,.15-3.55l39.64,1.62a1.78,1.78,0,0,1-.05,3.55Z"/><path class="cls-60" d="M101,317.86a.45.45,0,0,0,.44-.44C101.38,309,98.05,298,98,297.85a.43.43,0,0,0-.54-.29.45.45,0,0,0-.3.55c0,.11,3.34,11.05,3.39,19.31a.44.44,0,0,0,.44.44Z"/><path class="cls-60" d="M83,322.1a.41.41,0,0,0,.27-.1.43.43,0,0,0,.07-.61c-.09-.11-8.8-11-11.81-18.38a.44.44,0,1,0-.81.33c3.06,7.54,11.85,18.49,11.93,18.6A.44.44,0,0,0,83,322.1Z"/><path class="cls-60" d="M71,339.1l1.62-2.34a.44.44,0,0,0-.72-.5L70.72,338c-12.15-5.26-19.79-19.66-19.86-19.8a.44.44,0,1,0-.78.4c.08.15,8,15.09,20.62,20.35Z"/><path class="cls-61" d="M630.48,258.08S653,271,654.88,293s.15,112.9-45,135.29S504.87,445.49,482,443s-35.58-18.59-38.42-29.71-7.41-52.52,16.67-65.88,49.37-33.82,74.64-53.74S603.46,241.25,630.48,258.08Z"/><path class="cls-62" d="M505.4,340.24l-13.25-3.48a5.11,5.11,0,0,0-4.77,1.19c-5,4.64-32.74,39.95-51.13,63.56l6.82,4c14-8.77,49.26-30.06,49.16-47.89l24.25,19Z"/><path class="cls-63" d="M554.05,377.12s9.82-6.91,19.73-10.65A173.68,173.68,0,0,0,567,350.35s-47.24-8.13-53.08-6.75S480.87,339,480.87,339C501.38,351,505,365,521.05,381.41A40.56,40.56,0,0,0,529,384C535.42,381.32,542.55,376.12,554.05,377.12Z"/><path class="cls-64" d="M547.58,235.76s7.78,4.44,9,9c1,3.68,9.82,4.74,10.23,11.89a8.17,8.17,0,0,0,6.33,7.61c9,2,22.69,7.64,23.88,23.56.91,12.15-5.53,16.31-12.07,17.47a9.14,9.14,0,0,0-7.62,10.08c.61,4.64-1.11,9.85-9.32,13.51-18.41,8.21-34.08-24.59-34.08-24.59l0-55.46Z"/><path class="cls-65" d="M534.27,343.35s-12.37-15.54-18.13-25.5a19.26,19.26,0,0,1-.85-17.61c4.7-10.34,11.94-20.72,12.7-22.39,1.17-2.56,17.13-.23,17.13-.23s28.6,24.77,36.15,61l-14.47,2.39s-6.29-14.91-13.19-24.79c0,0,11.46,20.49,10.9,28.15Z"/><path class="cls-41" d="M506.38,344.93l12.32-10.16,11.9,5.05s14.11,4.23,22.67,3.14l8.56-1.08,19.44-3.22,1.78,8.68a5,5,0,0,1-2.61,5.47,32.37,32.37,0,0,1-5.12,2.28c-2.6.74-56.6-7.51-56.6-7.51Z"/><path class="cls-41" d="M540,256.3l4.82,22.05c-1.32,4.26-12.31,2.86-13.64,0a2.48,2.48,0,0,1-.22-.93l-1.2-16.88a3,3,0,0,1,2-3l4.58-1.68C538,255.19,539.63,254.45,540,256.3Z"/><path class="cls-41" d="M516.68,235.85s-4.27,8.37-.73,21.72,10.61,15,15.34,12,11-8.34,12.47-20.14S522.51,225.3,516.68,235.85Z"/><path class="cls-66" d="M535.17,249.71s-2.94-19.19-17.31-11.68l-2.09,4.15s-10.06-6.1-3.76-15,18.26-10.81,28.16-1.2,14.71,17,11.62,25.84-9,3.9-9,3.9.52-7-2.32-9-4.16,3-4.16,3Z"/><path class="cls-41" d="M536.7,252.35s-1.57-9.86,4.09-8.65,1,9.36-1,12.25Z"/><path class="cls-41" d="M415.35,417.89l-4.09,3.18a53.82,53.82,0,0,0,30.41-3.19l-2.66-6c-.53-1.46,1.17-4.26,2.31-5.32.71-.66,1.4-1.9,1.93-2.05l-6.11-2.71C424.62,411,415.38,417.89,415.35,417.89Z"/><path class="cls-63" d="M493.46,367.69l27.59,13.72L502.83,348l-13.69-.72a5.13,5.13,0,0,0-4.43,2.13c-5.68,7.94-24.58,37-37,73.3l7.84,1.35C467.86,412.28,497.11,384.87,493.46,367.69Z"/><path class="cls-41" d="M444.68,426.93c-.1,0-14.66,12.34-14.76,12.35l-3.6,3.73A53.84,53.84,0,0,0,456,435.56l-3.2-6a2.69,2.69,0,0,1,1.26-3.72l2.11-1-7-3.87C447.67,423,446.16,424.93,444.68,426.93Z"/><path class="cls-67" d="M446.18,425.22s4.95,1.86,8.29.95l5.57-4.4s-11.09-3-11.4-4.45Z"/><path class="cls-67" d="M440.19,395.51s4.33,5.57,8.19,7.25l-6.88,4.29s-3.94.44-7.24-3.58Z"/><path class="cls-68" d="M541.17,354.46h-.11l-49.23-6.89a2.23,2.23,0,1,1,.62-4.41L541.68,350a2.23,2.23,0,0,1-.51,4.42Z"/><path class="cls-68" d="M453.76,296.76l41,5.69a7.89,7.89,0,0,1,6.45,5.47l13.38,42.83-51-7.08a4.81,4.81,0,0,1-4-3.61l-9.53-39.24A3.3,3.3,0,0,1,453.76,296.76Z"/><path class="cls-59" d="M479.79,321.38c.51,2.89-.52,5.48-2.29,5.79s-3.63-1.78-4.13-4.66.52-5.47,2.3-5.79S479.29,318.5,479.79,321.38Z"/><path class="cls-67" d="M440.25,414.37a6.89,6.89,0,0,1,2.21,4.92,3,3,0,0,1-2.46,2.76c-5.92,1.26-25.36,5.18-33.12,4.22a.85.85,0,0,1-.57-1.34c1.05-1.44,3.58-4.12,9.29-7.18l-.62.52a1,1,0,0,0,.77,1.84C421.48,419.52,433.31,417.94,440.25,414.37Z"/><path class="cls-67" d="M454.08,432.28a6.89,6.89,0,0,1,2.88,4.57,3,3,0,0,1-2,3.08c-5.69,2.08-24.38,8.7-32.2,8.84a.84.84,0,0,1-.75-1.24c.83-1.58,3-4.59,8.19-8.42l-.54.6a1,1,0,0,0,1,1.71C436.22,440,447.72,436.8,454.08,432.28Z"/><path class="cls-69" d="M565.76,340.14s13.63-2.55,16-1.91c0,0,5.25,10.57-.08,15.75,0,0-7-9-18.12-12.39Z"/><circle class="cls-70" cx="123.08" cy="177.52" r="35.83"/><circle class="cls-70" cx="598.25" cy="203.63" r="24.72"/></g></svg>