<?xml version="1.0" encoding="utf-8"?>
<!-- Generator: Adobe Illustrator 22.0.1, SVG Export Plug-In . SVG Version: 6.00 Build 0)  -->
<svg version="1.1" id="Layer_1" xmlns="http://www.w3.org/2000/svg" xmlns:xlink="http://www.w3.org/1999/xlink" x="0px" y="0px"
	 viewBox="0 0 82 82" style="enable-background:new 0 0 82 82;" xml:space="preserve">
<style type="text/css">
	.st0{fill:#E8ABFF;}
	.st1{fill:#F3FDFF;}
</style>
<g>
	<g id="Artboard_2">
		<g id="Group_1510" transform="translate(-215 -956.052)">
			<path id="Path_2008" class="st0" d="M256,956.1c-22.6,0-41,18.4-41,41s18.4,41,41,41s41-18.4,41-41
				C296.8,974.5,278.6,956.2,256,956.1z"/>
			<path id="Path_2074" class="st1" d="M274.1,983.5c-7,0-14.5,6.7-17.9,10.1c-3.4-3.4-10.9-10.1-17.9-10.1c-8.4,0-13.4,5-13.4,13.4
				c0,8.4,5,13.4,13.4,13.4c7,0,14.5-6.7,17.9-10.1c3.4,3.4,10.8,10.1,17.9,10.1c8.4,0,13.4-5,13.4-13.4S282.5,983.5,274.1,983.5z
				 M238.4,1005.8c-5.9,0-8.9-3-8.9-8.9s3-8.9,8.9-8.9c4.9,0,11.5,5.5,14.8,8.9C249.8,1000.3,243.3,1005.8,238.4,1005.8z
				 M274.1,1005.8c-4.9,0-11.5-5.5-14.8-8.9c3.4-3.4,9.8-8.9,14.8-8.9c5.9,0,8.9,3,8.9,8.9S280,1005.8,274.1,1005.8L274.1,1005.8z"
				/>
		</g>
	</g>
</g>
</svg>
