<svg xmlns="http://www.w3.org/2000/svg" viewBox="0 0 80.439 80.196">
  <defs>
    <style>
      .cls-1 {
        fill: #ff65ab;
      }

      .cls-2 {
        fill: #fff;
      }
    </style>
  </defs>
  <g id="Group_1322" data-name="Group 1322" transform="translate(-238.744 -965.052)">
    <path id="Path_2008" data-name="Path 2008" class="cls-1" d="M130.341,90a40.1,40.1,0,1,0,40.1,40.1A40.378,40.378,0,0,0,130.341,90Z" transform="translate(148.743 875.052)"/>
    <path id="Path_2074" data-name="Path 2074" class="cls-2" d="M48.047,0c-6.82,0-14.19,6.615-17.466,9.916C27.292,6.615,19.922,0,13.1,0,4.9,0,0,4.9,0,13.1S4.9,26.2,13.1,26.2c6.82,0,14.19-6.615,17.466-9.916C33.844,19.6,41.214,26.2,48.034,26.2c8.2,0,13.1-4.9,13.1-13.1S56.248,0,48.047,0ZM13.1,21.841c-5.8,0-8.739-2.943-8.739-8.739S7.306,4.363,13.1,4.363c4.8,0,11.183,5.412,14.472,8.739C24.286,16.429,17.926,21.841,13.1,21.841Zm34.944,0c-4.8,0-11.183-5.412-14.472-8.739,3.276-3.327,9.648-8.739,14.472-8.739,5.8,0,8.739,2.943,8.739,8.739S53.843,21.841,48.047,21.841Z" transform="translate(248.753 991.937)"/>
  </g>
</svg>
