<svg xmlns="http://www.w3.org/2000/svg" viewBox="0 0 95.36 95.36"><defs><style>.cls-1{fill:#ff65ab;}.cls-2{fill:#0058c2;}.cls-3{fill:#fff;}</style></defs><title>Artboard 126</title><g id="menú_desplegable_de_carrito" data-name="menú desplegable de carrito"><path class="cls-1" d="M47.68,16.76A30.73,30.73,0,1,0,78.41,47.49,30.95,30.95,0,0,0,47.68,16.76Z"/><path class="cls-2" d="M95.36,47.49c0,26.21-21.48,47.87-47.68,47.87S0,73.7,0,47.49A47.55,47.55,0,0,1,14,14H9.78a2.8,2.8,0,1,1,0-5.59H21a2.77,2.77,0,0,1,2.8,2.79V22.35a2.8,2.8,0,0,1-5.59,0V17.66A42.1,42.1,0,1,0,47.68,5.59a2.77,2.77,0,0,1-2.79-2.8A2.77,2.77,0,0,1,47.68,0,47.69,47.69,0,0,1,95.36,47.49Z"/><path class="cls-3" d="M60,38.16c-4.86,0-10.11,4.71-12.44,7.07-2.34-2.36-7.59-7.07-12.45-7.07-5.84,0-9.33,3.49-9.33,9.33s3.49,9.34,9.33,9.34c4.86,0,10.11-4.71,12.45-7.07,2.33,2.36,7.58,7.07,12.44,7.07,5.84,0,9.33-3.49,9.33-9.34S65.87,38.16,60,38.16ZM35.14,53.71c-4.12,0-6.22-2.09-6.22-6.22s2.1-6.22,6.22-6.22c3.43,0,8,3.86,10.31,6.22C43.11,49.86,38.58,53.71,35.14,53.71Zm24.89,0c-3.42,0-8-3.85-10.31-6.22,2.33-2.36,6.87-6.22,10.31-6.22,4.13,0,6.22,2.1,6.22,6.22S64.16,53.71,60,53.71Z"/></g></svg>