<?xml version="1.0" encoding="utf-8"?>
<!-- Generator: Adobe Illustrator 22.0.1, SVG Export Plug-In . SVG Version: 6.00 Build 0)  -->
<svg version="1.1" xmlns="http://www.w3.org/2000/svg" xmlns:xlink="http://www.w3.org/1999/xlink" x="0px" y="0px"
	 viewBox="0 0 37 13" style="enable-background:new 0 0 37 13;" xml:space="preserve">
<style type="text/css">
	.st0{fill:#0FA3F4;}
	.st1{fill-rule:evenodd;clip-rule:evenodd;fill:#626262;}
	.st2{fill-rule:evenodd;clip-rule:evenodd;fill:#0FA3F4;}
	.st3{fill-rule:evenodd;clip-rule:evenodd;fill:#939598;}
	.st4{fill-rule:evenodd;clip-rule:evenodd;fill:none;stroke:#0FA3F4;stroke-miterlimit:10;}
	.st5{fill-rule:evenodd;clip-rule:evenodd;fill:#FF761A;}
	.st6{fill-rule:evenodd;clip-rule:evenodd;fill:#1E6FC1;}
	.st7{fill-rule:evenodd;clip-rule:evenodd;fill:#ED324D;}
	.st8{fill-rule:evenodd;clip-rule:evenodd;fill:#75BB00;}
	.st9{fill-rule:evenodd;clip-rule:evenodd;fill:#FF4040;}
	.st10{fill-rule:evenodd;clip-rule:evenodd;fill:#F4F4F4;}
	.st11{fill-rule:evenodd;clip-rule:evenodd;fill:#969696;}
	.st12{fill-rule:evenodd;clip-rule:evenodd;fill:#FCCC30;}
	.st13{fill-rule:evenodd;clip-rule:evenodd;fill:none;stroke:#75BB00;stroke-miterlimit:10;}
	.st14{fill-rule:evenodd;clip-rule:evenodd;fill:#D1D3D4;}
	.st15{fill:#2E3192;}
	.st16{fill:url(#SVGID_1_);}
	.st17{fill:#087CAF;}
	.st18{fill:#F9F9F9;}
	.st19{fill:#D1D3D4;}
	.st20{fill:#FFFFFF;}
	.st21{fill:#E74133;}
	.st22{fill:#75BB00;}
	.st23{fill:url(#SVGID_2_);}
	.st24{fill:#1A538A;}
	.st25{fill:#3E82F1;}
	.st26{fill:#32A753;}
	.st27{fill:#F9BB00;}
	.st28{fill-rule:evenodd;clip-rule:evenodd;fill:#FFFFFF;}
	.st29{fill:#ED6969;}
	.st30{fill:url(#SVGID_3_);}
	.st31{fill:#969696;}
	.st32{fill:#0D85D6;}
	.st33{fill:none;stroke:#444242;stroke-width:1.2517;stroke-miterlimit:10;}
	.st34{fill:url(#SVGID_4_);}
	.st35{fill:url(#SVGID_5_);}
	.st36{fill:#88CE00;}
	.st37{fill:url(#SVGID_6_);}
	.st38{fill:url(#SVGID_7_);}
	.st39{fill:url(#SVGID_8_);}
	.st40{fill:url(#SVGID_9_);}
	.st41{fill:url(#SVGID_10_);}
	.st42{fill:url(#SVGID_11_);}
	.st43{fill:url(#SVGID_12_);}
	.st44{fill:url(#SVGID_13_);}
	.st45{fill:url(#SVGID_14_);}
	.st46{fill:url(#SVGID_15_);}
	.st47{fill:url(#SVGID_16_);}
	.st48{fill:url(#SVGID_17_);}
	.st49{fill:url(#SVGID_18_);}
	.st50{fill:url(#SVGID_19_);}
	.st51{fill:url(#SVGID_20_);}
	.st52{fill:url(#SVGID_21_);}
	.st53{fill:url(#SVGID_22_);}
	.st54{fill:url(#SVGID_23_);}
	.st55{fill:url(#SVGID_24_);}
	.st56{fill:url(#SVGID_25_);}
	.st57{fill:url(#SVGID_26_);}
	.st58{fill:#1178F2;}
	.st59{display:none;}
	.st60{display:inline;}
	.st61{fill-rule:evenodd;clip-rule:evenodd;fill:#8CC43F;}
	.st62{display:inline;fill:#808285;}
	.st63{fill:#F4F4F4;}
</style>
<g id="regla">
	<g>
		<path class="st20" d="M17.9,0h17.2c0.1,0,0.2,0,0.3,0l-9.6,5.3L17.7,0C17.8,0,17.9,0,17.9,0L17.9,0z"/>
		<path class="st20" d="M4.9,12.5v-2.3h7.7l-0.1,0.7l0,0.1v0.1c0,0.4,0.1,0.9,0.2,1.3H4.9z"/>
		<polygon class="st20" points="12.9,8 2.3,8 2.3,5.7 13.2,5.7 		"/>
		<path class="st20" d="M13.7,1.6l-0.1,1.2H0V0.5h13.9C13.8,0.9,13.7,1.2,13.7,1.6L13.7,1.6z"/>
		<path class="st20" d="M33.9,13H16.7c-0.5,0-1-0.2-1.3-0.5c-0.1-0.1-0.2-0.2-0.2-0.3c0,0,0,0,0,0c-0.1-0.1-0.1-0.2-0.2-0.3
			c0,0,0,0,0,0c0-0.1-0.1-0.2-0.1-0.3c0,0,0,0,0,0c0-0.1,0-0.2,0-0.4l0.6-5l0.1-0.5l0.5-3.9c0-0.1,0-0.2,0-0.3c0,0,0,0,0,0
			c0,0,0,0,0,0c0.1-0.2,0.2-0.5,0.3-0.7v0.9l8.9,5.7c0,0,0,0,0,0c0,0,0,0,0,0c0.1,0,0.1,0.1,0.2,0.1c0,0,0,0,0,0c0.1,0,0.2,0,0.2,0
			h0c0.1,0,0.2,0,0.2,0c0,0,0,0,0,0c0.1,0,0.1,0,0.2-0.1c0,0,0,0,0,0c0,0,0,0,0,0L37,1.5c0,0.1,0,0.2,0,0.3l-1.2,9.4
			C35.8,12.2,35,13,33.9,13L33.9,13z"/>
	</g>
</g>
<g id="Banner_fix" class="st59">
</g>
<g id="Popup_Sugerencias" class="st59">
</g>
<g id="menú_desplegable">
</g>
</svg>
