<svg xmlns="http://www.w3.org/2000/svg" viewBox="0 0 29.9 17.9">
  <defs>
    <style>
      .cls-1 {
        fill: #626262;
      }
    </style>
  </defs>
  <g id="Group_941" data-name="Group 941" transform="translate(-606.1 -193)">
    <g id="Group_798" data-name="Group 798">
      <path id="Path_1424" data-name="Path 1424" class="cls-1" d="M634.5,193.8a.789.789,0,0,1,.8.8v14.9a.789.789,0,0,1-.8.8H607.6a.789.789,0,0,1-.8-.8V194.6a.789.789,0,0,1,.8-.8h26.9m0-.8H607.6a1.538,1.538,0,0,0-1.5,1.5v14.9a1.538,1.538,0,0,0,1.5,1.5h26.9a1.538,1.538,0,0,0,1.5-1.5V194.5a1.538,1.538,0,0,0-1.5-1.5Z"/>
    </g>
    <g id="Group_799" data-name="Group 799">
      <path id="Path_1425" data-name="Path 1425" class="cls-1" d="M624.9,196a6.387,6.387,0,0,0-3.3,1,6.5,6.5,0,0,1,2.2,5,6.857,6.857,0,0,1-2.2,5,6.114,6.114,0,0,0,3.3,1,6,6,0,0,0,0-12Z"/>
      <path id="Path_1426" data-name="Path 1426" class="cls-1" d="M620.9,197.5a5.871,5.871,0,0,0,0,9,5.871,5.871,0,0,0,0-9Z"/>
      <path id="Path_1427" data-name="Path 1427" class="cls-1" d="M620.3,197a6.114,6.114,0,0,0-3.3-1,6,6,0,0,0,0,12,6.387,6.387,0,0,0,3.3-1,6.5,6.5,0,0,1-2.2-5A6.184,6.184,0,0,1,620.3,197Z"/>
    </g>
  </g>
</svg>
