<svg xmlns="http://www.w3.org/2000/svg" xmlns:xlink="http://www.w3.org/1999/xlink" width="238.66" height="164.463" viewBox="0 0 238.66 164.463">
  <defs>
    <linearGradient id="linear-gradient" x1="-0.24" y1="1.099" x2="1.052" y2="0.021" gradientUnits="objectBoundingBox">
      <stop offset="0" stop-color="#4e87d0"/>
      <stop offset="1" stop-color="#7edfb5"/>
    </linearGradient>
    <linearGradient id="linear-gradient-2" x1="0.83" y1="0.117" x2="-0.127" y2="1.224" gradientUnits="objectBoundingBox">
      <stop offset="0" stop-color="#cb236d"/>
      <stop offset="1" stop-color="#4c246d"/>
    </linearGradient>
    <linearGradient id="linear-gradient-3" x1="-109.265" y1="-101.904" x2="-109.572" y2="-102.934" gradientUnits="objectBoundingBox">
      <stop offset="0" stop-color="#f9b776"/>
      <stop offset="1" stop-color="#f47960"/>
    </linearGradient>
    <linearGradient id="linear-gradient-4" x1="-76.788" y1="-74.028" x2="-76.587" y2="-72.841" gradientUnits="objectBoundingBox">
      <stop offset="0" stop-color="#2b3582"/>
      <stop offset="1" stop-color="#150e42"/>
    </linearGradient>
    <linearGradient id="linear-gradient-5" x1="-342.195" y1="-444.527" x2="-343.154" y2="-449.001" xlink:href="#linear-gradient-3"/>
  </defs>
  <g id="Group_1482" data-name="Group 1482" transform="translate(608 -2760.145)">
    <g id="Group_1481" data-name="Group 1481">
      <g id="Group_1480" data-name="Group 1480" transform="translate(19414.549 -364)">
        <path id="Path_2666" data-name="Path 2666" d="M-19995.451,3194.826c63.482-71.352,74.662-18.527,99.551-24.7s137.063-37.031,97.146,43.764-86.082,63-123.6,50.5S-20058.934,3266.177-19995.451,3194.826Z" transform="translate(-540.308 -2401.619) rotate(-7)" fill="url(#linear-gradient)"/>
        <circle id="Ellipse_102" data-name="Ellipse 102" cx="16.245" cy="16.245" r="16.245" transform="translate(-20009.395 3182.429)" fill="#0fa3f4" opacity="0.33"/>
        <circle id="Ellipse_103" data-name="Ellipse 103" cx="17.479" cy="17.479" r="17.479" transform="translate(-19819.24 3187.826)" fill="#0fa3f4" opacity="0.33"/>
        <g id="Group_1388" data-name="Group 1388" transform="matrix(1, -0.017, 0.017, 1, -19993.547, 3127.663)">
          <path id="Path_1991" data-name="Path 1991" d="M17.293,3.126S1.614,11.818.322,26.5s-.117,75.7,31.3,90.728,73.052,11.569,88.967,9.924,24.781-12.449,26.719-19.907,5.168-35.234-11.569-44.16S101.385,40.416,83.768,27.027C66.21,13.7,36.085-8.148,17.293,3.126Z" transform="translate(0 19.26)" fill="url(#linear-gradient-2)"/>
          <g id="Group_930" data-name="Group 930" transform="translate(114.202 87.126)">
            <path id="Path_1995" data-name="Path 1995" d="M17.178,9.907C15.563,6.846,10.29,3.4,3.444,0c0,0-2.891.17-3.4,5.953,0,.17-.043.34-.043.51,0,0,7.484,7.143,17.093,8.632C17.816,15.222,18.284,12.076,17.178,9.907Z" transform="translate(0 0)" fill="#7893b0"/>
            <path id="Path_1996" data-name="Path 1996" d="M0,0S10.63,6.293,15.01,6.633a1.643,1.643,0,0,1-.68,1.573S4.762,5.74,3.572,4.89,0,0,0,0Z" transform="translate(2.721 7.271)" fill="#a7c4e4"/>
          </g>
          <g id="Group_929" data-name="Group 929" transform="translate(130.444 126.675)">
            <path id="Path_1993" data-name="Path 1993" d="M1.685,0A32.165,32.165,0,0,1,16.668,6.5c6.92,5.6,3.55,7.4,3.129,7.822-.481.361-9.447,2.106-19.8-7.461Z" transform="translate(5.355 0.722)" fill="#a7c4e4"/>
            <path id="Path_1994" data-name="Path 1994" d="M24.611,11.072c-.782-.842-1.745-1.865-2.888-2.888A34.568,34.568,0,0,0,3.009,0L0,1.805A33.224,33.224,0,0,0,5.355,7.582c4.032,3.43,10.109,7.04,17.751,6.8A1.988,1.988,0,0,0,24.611,11.072Z" transform="translate(0 0)" fill="#7893b0"/>
          </g>
          <path id="Path_1952" data-name="Path 1952" d="M.728,30.068H8.789S33.554,2.758,49.782,0c0,0,11.3,14.424-.583,41.364a3.927,3.927,0,0,1-5.621,1.856A3.285,3.285,0,0,1,42.3,41.682l.955-23.015S22.153,37.121,18.494,40.674C14.781,44.281-3.885,42.106.728,30.068Z" transform="translate(71.366 46.516)" fill="#0058c2"/>
          <path id="Path_1956" data-name="Path 1956" d="M16.227,0,53.985.424S75.569,18.242,79.44,45.447c0,0,.636,2.015-3.235,2.333a75.072,75.072,0,0,1-21.53-23.546C44.227,5.78,23.6,14.106,23.6,14.106,16.811,9.227,7.212,8.22,0,6.576Z" transform="translate(56.185 82.418)" fill="#0058c2"/>
          <path id="Path_1957" data-name="Path 1957" d="M6.681,0s4.083,20.364,23.97,28.424l7.106-.849,1.7,2.652-16.6.53A45.449,45.449,0,0,1,1.113,9.811C.795,9.28-3.341.742,6.681,0Z" transform="translate(66.632 52.031)" fill="#f89953"/>
          <path id="Path_1958" data-name="Path 1958" d="M43.284,49.567S38.67,37,37.662,24.8a49.686,49.686,0,0,1,5.515-4.136,1.483,1.483,0,0,0,.583-1.962C42.223,15.469,32.784,2.847,32.094,2.688,28.276,1.734,12.579-5.744,1.549,9.37c-4.72,6.47.955,26.462,22.485,47.144l4.455.848Z" transform="translate(32.204 32.532)" fill="#ff65ab"/>
          <path id="Path_1959" data-name="Path 1959" d="M6.841,0S19.674,15.22,36.114,17.447c0,0,4.242-3.871,7.424-2.493s7.477,7.477,7.477,7.477H29.909S9.97,21.742,0,9.652C.8,5.356,3.182,2.864,6.841,0Z" transform="translate(50.829 60.092)" fill="#feb37c"/>
          <path id="Path_1960" data-name="Path 1960" d="M2.843,0,.032,9.386a1.116,1.116,0,0,0,.424,1.167,10.563,10.563,0,0,0,9.758.955,1.642,1.642,0,0,0,1.008-1.326l.689-8.167Z" transform="translate(47.35 24.455)" fill="#feb37c"/>
          <g id="Group_919" data-name="Group 919" transform="matrix(0.883, 0.469, -0.469, 0.883, 49.757, -2.65)">
            <path id="Path_1961" data-name="Path 1961" d="M14.636,0s5.038,8.432,4.03,13.1-8.061,7.53-14.583,3.394L0,3.712Z" transform="translate(8.699 8.775)" fill="url(#linear-gradient-3)"/>
            <path id="Path_1962" data-name="Path 1962" d="M13.365,19.063a.526.526,0,0,0,.265-.689,12.037,12.037,0,0,1-1.538-3.712s-1.061-.742,2.917-1.538c3.977-.742,9.97-1.962,11.349-5.25,1.379-3.235-1.432-11.614-6.788-5.25a.446.446,0,0,1-.742-.053c-.8-1.114-2.864-3.447-5.939-2.227C10.024,1.457,9.6,3.526,9.6,4.586a.479.479,0,0,1-.583.477c-1.432-.318-4.826-.742-6.629,2.7-1.432,2.864-.689,4.508.053,5.356a.481.481,0,0,1-.265.8A2.876,2.876,0,0,0,0,17.1c.053,3.076,3.447,2.97,4.4,2.864a.6.6,0,0,1,.424.159c.8.955,4.349,5.038,8.379,5.674a.478.478,0,0,0,.53-.636l-1.538-5.2a.5.5,0,0,1,.265-.583Z" transform="translate(0 0)" fill="url(#linear-gradient-4)"/>
            <path id="Path_1963" data-name="Path 1963" d="M4.749,1.666S.454-1.569.03.977,3.848,4.848,6.022,4Z" transform="translate(9.252 18.14)" fill="url(#linear-gradient-5)"/>
          </g>
          <path id="Path_1964" data-name="Path 1964" d="M0,34.688,9.439,3.135A3.175,3.175,0,0,1,12.3.855L25.083.006A1.818,1.818,0,0,1,26.94,2.393L16.333,32.514a2.651,2.651,0,0,1-2.227,1.75L1.538,35.643Z" transform="translate(100.731 49.002)" fill="#80b3e4"/>
          <path id="Path_1965" data-name="Path 1965" d="M3.344,3.4c-.689,1.432-1.909,2.28-2.7,1.856C-.156,4.882-.209,3.4.48,1.966S2.389-.315,3.185.109C3.98.481,4.086,1.966,3.344,3.4Z" transform="translate(114.834 59.399)" fill="#e2f6fc"/>
          <path id="Path_1966" data-name="Path 1966" d="M28,3.769h-.053L1.118,2.39A1.158,1.158,0,0,1,0,1.118,1.158,1.158,0,0,1,1.277,0L28.11,1.383a1.158,1.158,0,0,1,1.114,1.273A1.215,1.215,0,0,1,28,3.769Z" transform="translate(74.264 80.876)" fill="#80b3e4"/>
          <path id="Path_1967" data-name="Path 1967" d="M2.453,13.8a.306.306,0,0,0,.318-.318C2.771,7.809.6.279.6.226A.3.3,0,0,0,.014.385c0,.053,2.174,7.477,2.174,13.1a.247.247,0,0,0,.265.318Z" transform="translate(67.414 43.798)" fill="#dd2b79"/>
          <path id="Path_1968" data-name="Path 1968" d="M8.187,13.171a.2.2,0,0,0,.159-.053.321.321,0,0,0,.053-.424C8.346,12.641,2.512,5.217.55.179A.274.274,0,0,0,.179.02.274.274,0,0,0,.02.391c2.015,5.144,7.9,12.568,7.955,12.674S8.081,13.171,8.187,13.171Z" transform="translate(49.483 47.186)" fill="#dd2b79"/>
          <path id="Path_1969" data-name="Path 1969" d="M14.108,14.479l1.114-1.591a.3.3,0,1,0-.477-.371L13.9,13.684C5.729,10.025.639.267.585.161A.278.278,0,0,0,.161.055.278.278,0,0,0,.055.479C.108.585,5.358,10.714,13.9,14.373Z" transform="translate(35.342 57.332)" fill="#dd2b79"/>
        </g>
      </g>
    </g>
  </g>
</svg>
