<?xml version="1.0" encoding="utf-8"?>
<!-- Generator: Adobe Illustrator 22.0.1, SVG Export Plug-In . SVG Version: 6.00 Build 0)  -->
<svg version="1.1" xmlns="http://www.w3.org/2000/svg" xmlns:xlink="http://www.w3.org/1999/xlink" x="0px" y="0px"
	 viewBox="0 0 17 18" style="enable-background:new 0 0 17 18;" xml:space="preserve">
<style type="text/css">
	.st0{fill:#F7F8FA;}
	.st1{fill:#DCF2F9;}
	.st2{fill:#00AEEF;}
	.st3{fill:#FFFFFF;}
	.st4{fill:#1C75BC;}
	.st5{fill:none;stroke:#00AEEF;stroke-miterlimit:10;}
	.st6{fill:#EE2A7B;}
	.st7{fill:#EC008C;}
	.st8{fill:#414042;}
	.st9{fill:#626262;}
	.st10{fill:#88CE00;}
	.st11{fill:#0FA3F4;}
	.st12{fill:#D1D3D4;}
	.st13{fill:#969696;}
	.st14{fill:url(#SVGID_1_);}
	.st15{fill:#0D85D6;}
	.st16{fill:none;stroke:#444242;stroke-width:1.2517;stroke-miterlimit:10;}
	.st17{fill:url(#SVGID_2_);}
	.st18{fill:url(#SVGID_3_);}
	.st19{fill:#F9F9F9;}
	.st20{fill:#E6E7E8;}
	.st21{fill:#F1F2F2;}
	.st22{fill-rule:evenodd;clip-rule:evenodd;fill:#F4F4F4;}
	.st23{fill:url(#SVGID_6_);}
	.st24{fill:url(#SVGID_7_);}
	.st25{fill:url(#SVGID_8_);}
	.st26{fill-rule:evenodd;clip-rule:evenodd;fill:#414042;}
	.st27{fill:#1178F2;}
	.st28{fill:#FCCC30;}
	.st29{fill:#E5E5E5;}
	.st30{fill:#FF761A;}
	.st31{fill-rule:evenodd;clip-rule:evenodd;fill:#0FA3F4;}
	.st32{fill-rule:evenodd;clip-rule:evenodd;fill:#FFFFFF;}
	.st33{fill:#F4F4F4;}
	.st34{fill:#C49A6C;}
	.st35{fill:none;stroke:#CCCCCC;stroke-miterlimit:10;stroke-dasharray:7;}
	.st36{fill:#6D6E71;}
	.st37{fill:none;stroke:#3BC3ED;stroke-width:3;stroke-miterlimit:10;}
	.st38{opacity:0.15;fill:none;stroke:#3BC3ED;stroke-width:3;stroke-miterlimit:10;}
	.st39{opacity:0.5;fill:#FFFFFF;}
	.st40{fill:url(#SVGID_29_);}
	.st41{fill:url(#SVGID_30_);}
	.st42{fill:url(#SVGID_31_);}
	.st43{fill:url(#SVGID_40_);}
	.st44{fill:none;stroke:#0FA3F4;stroke-miterlimit:10;}
</style>
<g id="regla">
	<path class="st3" d="M16.9,8.5C16.6,8,16,7.3,15.2,6.6C11.6,3.6,3.9,0,2.7,0C2,0,1.4,0.4,0.9,1.3C0.8,1.7,0.6,2.1,0.5,2.6
		C0.2,4,0,6.1,0,9c0,5.8,0.4,8.4,2.1,8.9C2.3,18,2.5,18,2.7,18c0.4,0,1.1-0.2,2-0.5C8.8,16,17,11.5,17,9.1C17,8.9,17,8.7,16.9,8.5z
		 M11.5,8c-0.7,2.3-2.5,2.9-4.3,2.9c-1.1,0-1.7,0-2.1,0l-0.7,3.4H2.4l1-5h3.4l-0.2,0.9L10,7.7L7.7,5.2L7.5,6.2H4.1l0.3-1.6h2.1
		c0,0,1.2,0,2.7,0C10.8,4.5,12.2,5.7,11.5,8z"/>
</g>
<g id="menú_desplegable_de_carrito">
</g>
</svg>
