<svg xmlns="http://www.w3.org/2000/svg" xmlns:xlink="http://www.w3.org/1999/xlink" viewBox="0 0 882 768"><defs><style>.cls-1{fill:#67aaf9;}.cls-2{fill:#4191e0;}.cls-3{fill:#ebf0f8;}.cls-4{fill:#c4e0f9;}.cls-5{fill:#494949;}.cls-6{fill:#fff;}.cls-7{fill:url(#linear-gradient);}</style><linearGradient id="linear-gradient" x1="558.61" y1="248.37" x2="499.62" y2="269.58" gradientUnits="userSpaceOnUse"><stop offset="0" stop-color="#0fa"/><stop offset="0.13" stop-color="#07dfad"/><stop offset="0.31" stop-color="#0fbab0"/><stop offset="0.48" stop-color="#159db3"/><stop offset="0.66" stop-color="#1989b5"/><stop offset="0.83" stop-color="#1c7cb6"/><stop offset="1" stop-color="#1d78b6"/></linearGradient></defs><title>Artboard 1 copia 6</title><g id="líneas"><rect class="cls-1" x="51.01" y="357.46" width="160.64" height="49.35" rx="24.68" ry="24.68" transform="translate(-205.65 159.15) rotate(-37.54)"/><path class="cls-2" d="M67.62,431.08a24.67,24.67,0,0,0,34.6,4.53l88.25-67.81a24.45,24.45,0,0,0,7.18-8.82H121l-48.8,37.5A24.68,24.68,0,0,0,67.62,431.08Z"/><path class="cls-3" d="M696.88,530.86a23,23,0,0,1,32.21,4.22l2.07,2.71A23,23,0,0,1,727,570L506.81,739.16a23,23,0,0,1-32.21-4.22l-2.08-2.71A23,23,0,0,1,476.74,700l45.81-35.73a14.86,14.86,0,0,0,2.73-20.85L524,641.71A14.86,14.86,0,0,0,503.1,639L366.52,745.66a24.67,24.67,0,0,1-34.6-4.53h0a24.66,24.66,0,0,1,4.53-34.6L373.59,678h0a14.72,14.72,0,0,0,2.7-20.65L375,655.61a14.72,14.72,0,0,0-20.65-2.7L275.89,714a24.68,24.68,0,0,1-34.6-4.54h0a24.68,24.68,0,0,1,4.53-34.6L357.15,589a14.87,14.87,0,0,0,2.73-20.85l-1.33-1.73a14.89,14.89,0,0,0-20.86-2.73l-61.8,49a24.67,24.67,0,0,1-34.6-4.53h0a24.67,24.67,0,0,1,4.53-34.6l72.89-56.68a14.47,14.47,0,0,0,2.66-20.29l-1.3-1.68a14.47,14.47,0,0,0-20.29-2.66L135.18,619.51a24.67,24.67,0,0,1-34.6-4.53h0a24.68,24.68,0,0,1,4.53-34.6L255.4,465a14.72,14.72,0,0,0,2.7-20.65l-1.31-1.72a14.75,14.75,0,0,0-17.13-4.71l-49.91,38.38a24.67,24.67,0,0,1-34.6-4.53h0a24.66,24.66,0,0,1,4.53-34.6L305.86,324.56a14.49,14.49,0,0,0,2.66-20.32l-1.3-1.69a14.5,14.5,0,0,0-20.32-2.66l-1.85,1.75a7.34,7.34,0,0,1-.6.51l-8.56,6.63a24.67,24.67,0,0,1-34.6-4.53h0a24.67,24.67,0,0,1,4.53-34.6L458.23,106.42a24.67,24.67,0,0,1,34.6,4.54h0a24.67,24.67,0,0,1-4.53,34.6l-49,36.87-.08.21a14.61,14.61,0,0,0-2.69,20.48l1.31,1.7a14.61,14.61,0,0,0,20.48,2.69L592.38,104.64A24.7,24.7,0,0,1,627,109.17h0a24.67,24.67,0,0,1-4.54,34.6L541.22,206.2h0a14.68,14.68,0,0,0-.16,18.1l1.32,1.71a14.68,14.68,0,0,0,20.6,2.7l42.83-33.08a24.68,24.68,0,0,1,34.6,4.53h0a24.67,24.67,0,0,1-4.53,34.6L511.23,329.11a14.53,14.53,0,0,0-2.67,20.39l1.3,1.7a14.54,14.54,0,0,0,20.39,2.67l96.21-72.81a24.68,24.68,0,0,1,34.61,4.53h0a24.68,24.68,0,0,1-4.53,34.6l-72.81,56a14.4,14.4,0,0,0-2.64,20.19l1.29,1.67a14.4,14.4,0,0,0,20.19,2.65h0l21.94-16.8a24.67,24.67,0,0,1,34.6,4.53h0a24.68,24.68,0,0,1-4.53,34.6l-46.45,35.49a14.78,14.78,0,0,0-2.71,20.71l1.32,1.72a14.78,14.78,0,0,0,20.71,2.71L696,430.27a24.67,24.67,0,0,1,34.6,4.53h0A24.66,24.66,0,0,1,726,469.4l-98.68,74.92a14.8,14.8,0,0,0-2.71,20.76L626,566.8a14.81,14.81,0,0,0,20.76,2.72Z"/><path class="cls-1" d="M386,161.93,245.82,269.65a24.67,24.67,0,0,0-4.53,34.6h0a24.67,24.67,0,0,0,34.6,4.53l8.56-6.63a7.34,7.34,0,0,0,.6-.51l1.85-1.75a14.5,14.5,0,0,1,20.32,2.66l1.3,1.69a14.49,14.49,0,0,1-2.66,20.32l-50.47,38.87c31.43-1.64,93.23-6.21,137.89-17.94C393.76,286.54,388.45,202.05,386,161.93Z"/><rect class="cls-3" x="245.91" y="95.94" width="206.29" height="49.35" rx="22.99" ry="22.99" transform="translate(-1.21 237.66) rotate(-37.54)"/><rect class="cls-3" x="684.37" y="190.01" width="138.58" height="49.35" rx="24.68" ry="24.68" transform="translate(25.25 503.67) rotate(-37.54)"/><path class="cls-2" d="M355.45,587.49l-18,16.28c22.09-3.06,34-5,45.07-7.42-.34-5.72-.64-10.77-.9-14.94h0l-.82-13.36.78-4.28-3-2c-2.57-1.64-6.54-5.69-16.65-20l17.18-13.36-.28-6.64c-4-70,11-86,14-159,.27-6.57.42-13.72.48-21.28-44.66,11.73-99.4,14.86-130.83,16.5L159.68,433.15a24.66,24.66,0,0,0-4.53,34.6h0a24.67,24.67,0,0,0,34.6,4.53l49.91-38.38a14.75,14.75,0,0,1,17.13,4.71l1.31,1.72A14.72,14.72,0,0,1,255.4,461L105.11,576.38a24.68,24.68,0,0,0-4.53,34.6h0a24.67,24.67,0,0,0,34.6,4.53l164.6-127.26a14.47,14.47,0,0,1,20.29,2.66l1.3,1.68a14.47,14.47,0,0,1-2.66,20.29l-72.89,56.68a24.67,24.67,0,0,0-4.53,34.6h0a24.66,24.66,0,0,0,8.25,6.9c7.75.1,15.52,0,23.22-.32a24,24,0,0,0,3.13-2l58.87-45.8h0l2.46-1.91c3.47-2.43,10-6,15.58-3.21a17.58,17.58,0,0,1,10,13A15.56,15.56,0,0,1,358.55,585"/><path class="cls-1" d="M249.54,611.1a24.71,24.71,0,0,0,23.22-.32C265.06,611.08,257.29,611.2,249.54,611.1Z"/><path class="cls-1" d="M337.42,603.77l-91.6,71.09A24.68,24.68,0,0,0,275.89,714l78.43-61.09a14.72,14.72,0,0,1,20.65,2.7l1.32,1.71a14.72,14.72,0,0,1-2.7,20.65h0l-37.14,28.55a24.67,24.67,0,0,0-4.54,34.6h0a24.67,24.67,0,0,0,34.6,4.53l21.57-16.85c-.2-32.56-3.51-97.13-5.6-132.46C371.43,598.73,359.51,600.71,337.42,603.77Z"/><path class="cls-1" d="M270.64,149.79A23,23,0,0,0,266.42,182l2.05,2.67a23,23,0,0,0,32.24,4.22L384.8,124.3,376,68.82Z"/><path class="cls-1" d="M601.59,193.34s11.47,1.27,15.29,10.19c0,0-1.27-8.92,7.64-16.56,0,0-14-5.1-15.28-10.19C609.24,176.78,613.06,184.42,601.59,193.34Z"/><path class="cls-1" d="M534.26,547.25s11.47,1.27,15.29,10.19c0,0-1.27-8.92,7.64-16.56,0,0-14-5.1-15.28-10.19C541.91,530.69,545.73,538.33,534.26,547.25Z"/><path class="cls-1" d="M396,395.69c.2-2.34,2-25,.54-29.29,0,0-11,5.61-22,21.61s-33,43-29,99A114.62,114.62,0,0,0,355,525.24v0s11.58,29.38,34.2,42.42l.69.4.35.2h0c3.47,1.91,6.11,2.53,7.3,1.73l-5.2-1.57,1.57-27.5c-1.79-4.23-9.31-11.43-11.75-15.58A116.16,116.16,0,0,1,372,470.51C374.24,426.68,386.47,406,396,395.69Z"/><path class="cls-4" d="M395.93,398h0c-9.51,10.28-25.4,32.59-27.63,76.42-.82,16.07,4.66,24.25,8.33,36,3.21,13.27,8.13,21.54,16.65,31.33,0,0,12.49-13,15-55.5h0c.19-1.82.38-3.65.52-5.5C411.8,441.77,395.93,398,395.93,398Z"/><path class="cls-5" d="M604.36,194.1a1.43,1.43,0,0,0,1.12.15,13.53,13.53,0,0,1,3.57-.48,13.81,13.81,0,0,1,7,1.95,15.91,15.91,0,0,1,7.24,10,1.77,1.77,0,0,0,.81,1.12,1.45,1.45,0,0,0,1.11.16,1.77,1.77,0,0,0,1.13-2.15c-2-8.43,2.62-17,10.39-19.15a1.76,1.76,0,0,0,1.13-2.15,1.83,1.83,0,0,0-.81-1.12,1.4,1.4,0,0,0-1.11-.15,13.71,13.71,0,0,1-10.61-1.47,15.92,15.92,0,0,1-7.23-10,1.77,1.77,0,0,0-.81-1.12,1.41,1.41,0,0,0-1.11-.16,1.76,1.76,0,0,0-1.13,2.15c2,8.43-2.62,17-10.4,19.14a1.76,1.76,0,0,0-1.12,2.15A1.81,1.81,0,0,0,604.36,194.1Zm9.3-4.93a19.56,19.56,0,0,0,4.34-8l.52-1.93,1.35,1.44a18,18,0,0,0,7.43,4.79l1.7.56-1.21,1.34a19.64,19.64,0,0,0-4.35,8l-.52,1.92-1.35-1.43a17.87,17.87,0,0,0-7.43-4.79l-1.7-.56Z"/><path class="cls-5" d="M568.56,536.51a1.25,1.25,0,0,0-1-.13,11.71,11.71,0,0,1-9.12-1.27,13.68,13.68,0,0,1-6.22-8.58,1.54,1.54,0,0,0-.7-1,1.24,1.24,0,0,0-1-.13,1.52,1.52,0,0,0-1,1.84c1.76,7.25-2.25,14.63-8.93,16.46a1.51,1.51,0,0,0-1,1.85,1.55,1.55,0,0,0,.69,1,1.25,1.25,0,0,0,1,.13A11.76,11.76,0,0,1,550.5,548a13.71,13.71,0,0,1,6.22,8.58,1.55,1.55,0,0,0,.69,1,1.25,1.25,0,0,0,1,.13,1.51,1.51,0,0,0,1-1.85c-1.75-7.24,2.26-14.63,8.94-16.46a1.58,1.58,0,0,0,.28-2.81Zm-8,4.24a16.86,16.86,0,0,0-3.73,6.9l-.45,1.66-1.16-1.24a15.33,15.33,0,0,0-6.39-4.11l-1.46-.48,1-1.16a16.76,16.76,0,0,0,3.74-6.9l.45-1.66,1.16,1.24a15.43,15.43,0,0,0,6.39,4.11l1.46.48Z"/><path class="cls-5" d="M452.12,146.71a3.63,3.63,0,1,0-3.63-3.63A3.64,3.64,0,0,0,452.12,146.71Zm0-5.3a1.67,1.67,0,1,1-1.67,1.67A1.67,1.67,0,0,1,452.12,141.41Z"/><path class="cls-5" d="M723.41,446.18a3.63,3.63,0,1,0,3.63,3.63A3.64,3.64,0,0,0,723.41,446.18Zm0,5.3a1.67,1.67,0,1,1,1.67-1.67A1.66,1.66,0,0,1,723.41,451.48Z"/><path class="cls-5" d="M723.1,241.48a3.63,3.63,0,1,0-3.63-3.63A3.64,3.64,0,0,0,723.1,241.48Zm0-5.3a1.67,1.67,0,1,1-1.67,1.67A1.66,1.66,0,0,1,723.1,236.18Z"/><path class="cls-5" d="M421.1,410.22a3.63,3.63,0,1,0,3.63,3.63A3.63,3.63,0,0,0,421.1,410.22Zm0,5.29a1.67,1.67,0,1,1,1.66-1.66A1.66,1.66,0,0,1,421.1,415.51Z"/><path class="cls-5" d="M546.41,643.18a3.63,3.63,0,1,0,3.63,3.63A3.64,3.64,0,0,0,546.41,643.18Zm0,5.3a1.67,1.67,0,1,1,1.67-1.67A1.66,1.66,0,0,1,546.41,648.48Z"/><path class="cls-5" d="M408.28,579.21h-3.34v-3.34a1,1,0,0,0-2,0v3.34h-3.34a1,1,0,1,0,0,2H403v3.33a1,1,0,1,0,2,0v-3.33h3.34a1,1,0,1,0,0-2Z"/><path class="cls-5" d="M627.59,415.18a1,1,0,0,0,1-1v-3.34h3.34a1,1,0,0,0,0-2h-3.34v-3.34a1,1,0,0,0-2,0v3.34h-3.33a1,1,0,0,0,0,2h3.33v3.34A1,1,0,0,0,627.59,415.18Z"/><path class="cls-5" d="M795.41,190.7a1.26,1.26,0,0,0-1.58-.81l-3.93,1.24-1.24-3.93a1.26,1.26,0,0,0-1.58-.82,1.25,1.25,0,0,0-.81,1.57l1.24,3.94-3.94,1.24a1.25,1.25,0,1,0,.76,2.39l3.93-1.24,1.25,3.93a1.25,1.25,0,1,0,2.39-.76l-1.25-3.93,3.94-1.24A1.27,1.27,0,0,0,795.41,190.7Z"/><path class="cls-5" d="M535.21,692.88l-3.94,1.24L530,690.19a1.25,1.25,0,1,0-2.39.76l1.24,3.93L525,696.12a1.25,1.25,0,0,0,.38,2.45,1.31,1.31,0,0,0,.38-.06l3.93-1.24,1.24,3.93a1.25,1.25,0,0,0,1.2.88,1.19,1.19,0,0,0,.37-.06,1.25,1.25,0,0,0,.82-1.57L532,696.52l3.93-1.25a1.25,1.25,0,0,0-.75-2.39Z"/><path class="cls-5" d="M501.33,273.57a1.31,1.31,0,0,0,.38-.06l3.93-1.24,1.24,3.93a1.25,1.25,0,0,0,1.2.88,1.19,1.19,0,0,0,.37-.06,1.25,1.25,0,0,0,.82-1.57L508,271.52l3.93-1.25a1.25,1.25,0,0,0-.75-2.39l-3.94,1.24L506,265.19a1.25,1.25,0,1,0-2.39.76l1.24,3.93L501,271.12a1.25,1.25,0,0,0,.38,2.45Z"/><path class="cls-5" d="M411.48,79.26a1.19,1.19,0,0,0,.37-.06L415.79,78,417,81.89a1.25,1.25,0,0,0,1.19.87,1.2,1.2,0,0,0,.38-.05,1.26,1.26,0,0,0,.82-1.58l-1.24-3.93L422.11,76a1.25,1.25,0,1,0-.75-2.39l-3.94,1.24-1.24-3.93a1.25,1.25,0,0,0-2.39.75L415,75.56l-3.93,1.25a1.25,1.25,0,0,0,.38,2.45Z"/><path class="cls-5" d="M389.83,120.08c.22,2.2,4.5,4,4.18.92q-3-28.54-6.84-57c-.3-2.18-4.6-3.95-4.19-.92Q386.85,91.54,389.83,120.08Z"/><path class="cls-5" d="M275,609.9q-12.94.57-25.92.64c-2.92,0-3,2,0,2q13.64-.07,27.25-.68C279.69,611.68,277.1,609.81,275,609.9Z"/><path class="cls-5" d="M411.72,518.68l0,0c11.23-41,8.73-86.28-6.07-125.67a2.38,2.38,0,0,0,.21-.62,98.43,98.43,0,0,0,1.52-21.57l-.08-1.53a101.44,101.44,0,0,0-1.08-10.51c-.28-1.84-2.51-2.11-3.87-1.24.07-1.9.13-3.8.19-5.7l.13-5.1c0-1.34.07-2.68.1-4a.55.55,0,0,0,0-.36q.63-26.88.45-53.77l.42-3.76c-.93-2.19-.07-6.69-.1-9-.13-9-.24-18-.78-27l-.33-1.9q-1.38-45-5.05-89.81c-.18-2.2-4.44-4-4.19-.91a1754.3,1754.3,0,0,1,5.38,183.57,660.37,660.37,0,0,1-135.27,16.61c-2.06,0,1.28,3.53,2.81,3.5a664.07,664.07,0,0,0,132.36-16q-.22,8.78-.53,17.55a2.2,2.2,0,0,0,.27,1c-28,21.19-47.51,53.08-53,87.82-4.24,26.68-.65,56.24,10.21,81,6.5,14.79,16.34,28,30.11,36.65a1.84,1.84,0,0,0,.59.54q1,13.25,1.87,26.5-24,5.13-48.32,8.5c-3.35.46-.85,2.22,1.3,1.92q23.73-3.25,47.16-8.18,4.11,64.27,4.51,128.71c0,2.09,5,2,5,0q-.42-77.64-6.35-155.11a22.38,22.38,0,0,0,6.87,1.14,5.51,5.51,0,0,0,1-.1,1.22,1.22,0,0,0,1.78-1.17,1.25,1.25,0,0,0,.11-.29,1.27,1.27,0,0,0-.11-.89c-.25-6.81-.27-13.63-.51-20.44h0a1.73,1.73,0,0,0,.68-1.46,177.27,177.27,0,0,0,9.47-24.88M398.25,543c-14.08-20.68-25.46-44.26-26.05-69.67-.45-19.38,5.67-37.75,14.91-54.58,4.64-8.44,10-16.47,15.39-24.43h0C420,441.57,419.32,497.07,398.25,543ZM350,491.94c-3.86-29.81.8-59.56,15.7-85.93a135.89,135.89,0,0,1,36.25-41.49,96.59,96.59,0,0,1-.69,25.13,2.36,2.36,0,0,0-1.77,1c-10.62,15.6-21.14,31.63-27.1,49.68a100.72,100.72,0,0,0,.16,63.15c5.31,16.32,13.91,31.32,23.78,45.29a1.86,1.86,0,0,0,.42.42c.2,6.33.24,12.66.46,19a19.6,19.6,0,0,1-7.46-2.42,2.51,2.51,0,0,0-.58-.51C364.28,549.87,353.56,519.62,350,491.94Z"/><path class="cls-5" d="M191.16,356.83q-31.74.32-63.46-.6c-7.15-.2-7.55,4.62-.25,4.82q33.36.94,66.73.59C202.52,361.56,196.35,356.78,191.16,356.83Z"/><path class="cls-5" d="M417.46,479.88c8.44,3.66,12.13,14.22,14.18,22.51,2.54,10.31,4.26,21,9.18,30.55,7.26,14.1,25.05,24.33,39.93,14.92,19.22-12.16,9.79-40.33,6.31-57.9-1.19-6-2.42-12-3.57-18-.87-4.58-1.71-9.42-1.18-14.1a16.32,16.32,0,0,0,2,1.71c5.59,4,14.56,2.25,19-2.79,6.36-7.19-2.08-15-9.79-14.3a15.85,15.85,0,0,0-11.47,6.72,32.31,32.31,0,0,1-1.54-10.71c.12-12.16,4.52-23.22,14-31.07,1.62-1.34-2.46-.59-3.22,0a39.54,39.54,0,0,0-14.39,25.81c-.87,6.64-.81,14.72,2.56,20.81a21.32,21.32,0,0,0-1.29,5.92c-.46,6.43,1.14,12.81,2.37,19.07q2.13,10.71,4.24,21.43c2.53,12.78,6.55,27.31,0,39.54-3.69,6.87-10.23,10.67-18,9.16a30.21,30.21,0,0,1-14.43-7.74c-10.19-9.42-12.74-24-15.75-36.9-2.45-10.55-6.35-24.73-18.62-27.5a1.71,1.71,0,0,0-.5,0m79.72-31.29c4.18,2.38,5.86,7.77,2.42,11.55-5.36,5.9-13,.64-16-4.69C485.78,447,491,442.21,497.14,445.74Z"/><path class="cls-5" d="M485.16,397.87l2.65,5.1c.69,1.32,3.75.37,3-1.13l-2.66-5.1C487.44,395.42,484.38,396.37,485.16,397.87Z"/><path class="cls-5" d="M499.15,398.84c-.64,0-1.73.25-2,.91s-.72,1.53-1.07,2.3.28,1,.88,1,1.73-.24,2-.9l1.08-2.3C500.34,399.22,499.75,398.85,499.15,398.84Z"/><path class="cls-5" d="M499.43,408.6a2.07,2.07,0,0,0,2.15.63l3-1.22c.71-.29.56-1.13.14-1.6a2.07,2.07,0,0,0-2.15-.63l-3,1.22C498.86,407.29,499,408.13,499.43,408.6Z"/><path class="cls-6" d="M553.31,247.82s-4.63-30.1-33.57-32.41-40.51,25.46-39.35,35.88,6.94,41.67,47.45,37c0,0-3.47,13.89,1.16,20.83s15,11.58,15,11.58,15,2.31,20.83-9.26l37,23.15,35.88,25.46,5.79-11.57-24.31-27.78S610,306.85,610,299.9s7-12.73,24.31-15,38.2,3.47,38.2,3.47l-1.16-10.42S606.55,257.08,588,257.08c0,0-2.31-19.68-13.89-23.15S548.68,237.4,553.31,247.82Z"/><path class="cls-7" d="M527.84,288.33s16.2-8.1,19.67-16.21a123,123,0,0,0,5.79-18.52l-5.79-10.41s-17.36-20.84-30.09-6.95S503.53,267.49,504.69,271,508.16,279.07,527.84,288.33Z"/><path class="cls-1" d="M644.74,369.35l-8.1-6.94,9.26-16.21,17.36,15.05-12.73,16.2s-10.42,12.73-12.73,10.42-1.16-8.1-1.16-8.1Z"/><path class="cls-1" d="M673.68,273.28l8.1-2.31-1.16-9.26s2.32-13.89,7-10.42,9.26,35.88,9.26,35.88L673.68,293Z"/><path class="cls-1" d="M559.09,269.81s10.42-6.95,11.57-12.73,0-8.11,0-8.11S559.09,250.13,559.09,269.81Z"/><path class="cls-1" d="M552.14,276.75l8.11,10.42-7,8.1-3.47,5.79s-5.79-11.57-4.63-11.57,4.63-9.26,4.63-9.26Z"/><polygon class="cls-4" points="535.94 314.95 538.25 309.16 540.57 308 545.2 310.32 553.3 310.32 555.62 314.95 556.77 317.26 547.51 319.58 537.1 316.11 535.94 314.95"/><polygon class="cls-4" points="574.91 234.19 570.66 240.87 578.76 248.97 583.39 248.97 585.71 244.34 574.91 234.19"/><path class="cls-2" d="M481.54,236.24s1.16,28.94,24.31,39.36,41.67-3.48,46.3-26.63c0,0,1.16,13.89-4.63,24.31S531.32,291.8,514,288.33,487.33,276.75,485,269.81,478.07,239.71,481.54,236.24Z"/><path class="cls-2" d="M537.1,284.86s1.15,22,13.89,19.67,12.73-16.2,5.78-12.73c0,0,4.63-6.94,11.58-8.1,0,0,4.63,25.46-7,31.25s-10.41,9.26-23.15,2.31-11.57-16.2-11.57-16.2L529,287.17Z"/><path class="cls-2" d="M547.51,293a63.43,63.43,0,0,1,20.84-19.68c13.89-8.1,17.36-18.52,17.36-25.46,0,0,6.94,12.73-4.63,23.15s-20.83,17.36-20.83,17.36l-7,6.94-2.31,7-5.79-7Z"/><path class="cls-2" d="M560.25,259.39s6.94,5.79,10.41-6.94l-2.31,10.41L559.09,271Z"/><path class="cls-2" d="M586.87,260.55s-2.32,16.2-11.58,23.15c-1.15,1.16,0,0-1.15,9.26s-3.48,15,2.31,19.67,62.5,41.67,64.82,38.2l-4.63,10.42-35.88-26.62-20.84-13.89-15-6.95,2.31-11.57,1.16-18.52,2.31-4.63,9.26-8.1,4.63-8.11Z"/><path class="cls-2" d="M608.86,298.74s-1.16-16.2,26.62-19.67,38.2,4.63,38.2,4.63v5.79s-22-5.79-32.41-4.63S618.12,282.54,608.86,298.74Z"/><path class="cls-2" d="M673.68,283.7s18.52,2.31,19.67-13.89l2.32,18.52-22,3.47Z"/><polygon class="cls-2" points="640.38 352.83 654 370.51 644.74 385.55 635.48 387.87 635.48 380.93 643.58 368.19 635.48 363.56 640.38 352.83"/><path class="cls-5" d="M698.85,288.9a2,2,0,0,0,.25-1.24A210,210,0,0,0,695,264c-1.09-4.66-1.73-14.26-7.15-16.13-4.3-1.48-7.55,2.1-8.65,5.88-1.57,5.39-.39,10.38.74,15.56-2.65.29-5.28.78-7.87,1.29a2.55,2.55,0,0,0-2,2.4c0,.64,0,1.29,0,1.93q-39-11.56-78.8-20a3,3,0,0,0-1.58.19,23.59,23.59,0,0,0-.44-7.07c-1.9-8.8-9.26-16.24-18.37-17.18-7.22-.74-13.68,2.32-18.78,7.05-6.51-13-19.58-23.16-34.1-24.93-17.36-2.11-32.88,9-38.09,25.43a39.34,39.34,0,0,0,12.43,42.42,40.37,40.37,0,0,0,7.17,4.61,29.37,29.37,0,0,0-14.29,34.61,28.54,28.54,0,0,0-5.08,9.32c-5.88,17.29,2.52,34.74,12.45,48.61,1.19,1.66,4.24,3.68,1.89.4-7.5-10.48-13.26-22.72-12.29-35.92a32.63,32.63,0,0,1,5.28-16l.35-.48c2.08,3.65,5.35,7.85,9.52,8.68,7,1.38,11-5.8,8.17-11.61-2.13-4.43-6.66-8.11-11.76-7.68a11.42,11.42,0,0,0-6,2.3,33.62,33.62,0,0,1,0-4.7c.8-11.17,8.18-20.25,18.34-24.45.05,0,0-.15,0-.34a45.22,45.22,0,0,0,18.63,2.19c-6.28,14.49,7.1,31.06,22.42,32.53,8.3.8,14-2.39,17.69-7.54a3,3,0,0,0,.8.56c24.84,11.46,45.95,29.42,68.2,45.07l-.37.71a2.16,2.16,0,0,0,.58,2.86,80.09,80.09,0,0,0,6.59,4.88c-4.58,5.79-14.74,19.86-4,22.19,5.95,1.28,10.79-6.58,14.06-10.3a208.83,208.83,0,0,0,15.38-19.8,1.78,1.78,0,0,0-.35-2.63,2.61,2.61,0,0,0-.24-.23q-9.15-7.51-18.32-15a3.41,3.41,0,0,0-4.09.16c-6.38-6.07-12-12.84-17.62-19.6s-12.59-14.35-12-23.95c.89-13.59,16.13-13.43,26.44-13.34a209.5,209.5,0,0,1,30.19,2.83c0,1,0,1.92,0,2.88,0,1.9,2.33,2.42,3.77,2.12l23.2-4.74.19-.06.3-.09a3,3,0,0,0,.4-.17l0,0a2,2,0,0,0,.67-.55,1.77,1.77,0,0,0,.12-.17ZM500.34,320.09c6.27,2.51-.35,10.45-5,10.28-3.25-.11-5.21-2.65-6.34-5.87C491.88,321.37,496.25,318.45,500.34,320.09Zm185.84-48.75c-.65-3.22-1.83-6.36-2-9.66-.08-1.74-.33-5.35.63-6.9,2.19-3.57,2.3,1.76,2.8,3.57A195.61,195.61,0,0,1,693.07,286l-17.19,3.52-.06-14.75a49.64,49.64,0,0,1,7.58-.91C684.56,273.83,686.47,272.79,686.18,271.34ZM581,243a21.13,21.13,0,0,1,2,4.28,34.1,34.1,0,0,0-3.13,1.39,10.8,10.8,0,0,0-2.53-3.77c-.66-.73-4.85-3.65-4.84-4.57s1.37-2.42,2.5-3.64A21,21,0,0,1,581,243Zm-46.39,38.75a27.25,27.25,0,0,1-5.73,2.95c-9.09-1.77-19.06-5.55-21.59-15-2.7-10.08,3.18-22.09,9.24-29.89,2.47-3.18,6-7.58,10.17-7.37,4.81.24,10.78,3.1,14.28,6.45,5.17,4.94,6.77,12,9.8,18.26a.19.19,0,0,0,.13.09A35.52,35.52,0,0,1,534.56,281.74Zm-46.09-9.19c-9.48-14.42-6.3-34.76,5.81-46.62,15.93-15.59,41.36-9.83,52.1,8.82a36.28,36.28,0,0,1,2.84,6.17v0h0a20.74,20.74,0,0,0-9.47-7.92c-8-3.37-14.68-3.41-21.79,1.59-9.24,6.51-16.9,20.28-16.89,31.62,0,12.47,11,17.74,21.69,20C510,288.32,495.34,283,488.47,272.55Zm49.27,41.82a40.36,40.36,0,0,1,2.34-5.57c2.29.95,4.3,2.59,7,2.88,1.91.2,3.85-.48,5.45,1.07a12.08,12.08,0,0,1,1.94,3.89,15.43,15.43,0,0,1-3.84,1A18.71,18.71,0,0,1,537.74,314.37Zm20.48-.05c-.76-1.94-1.67-4.12-3.3-4.87a6,6,0,0,0-2.66-.25,16.67,16.67,0,0,1-8.66-2.35c-4.75-2.47-6.89,1.35-8.59,5.27-6.09-5.91-8.52-15.38-2.89-23.09a2.38,2.38,0,0,0,.17-.31,27.4,27.4,0,0,0,6.45-3.22c14.55-9.4,21.32-26.09,15.4-42.72-.2-.58-.45-1.15-.68-1.71a2.68,2.68,0,0,0,.87-.58c4.21-4.92,9.5-8,16-6.06.25.07.49.18.74.27-1.48,1.61-3.09,3.54-2.87,5.25.37,2.76,4.26,4.72,6,6.63,1.57,1.74,1.79,4.87,4.18,5.72,1.65.59,3.74-.19,5.55-1.07a25.17,25.17,0,0,1-3.71,17c-4.68,7.42-13,12-20.05,17.43a8.94,8.94,0,0,0-.58-.76c-2-2.29-3.26-5.11-5.26-7.35.93-1.08,1.92-2.11,2.92-3.08,8.54-8.27,18.74-13.5,16.31-27.27-.19-1.09-3.24-.56-4.71.52-9,3.78-13.14,14.63-12.75,24-3.84,3.38-7.74,6.81-10.29,11-4.58,7.55-3.28,16,2.12,22.78.88,1.12,5.16-.43,5.29-1.77.76-8.14,5.67-13.46,11.53-18.05C565.84,294.82,565.37,308.11,558.22,314.32Zm-8.47-16.9a21.12,21.12,0,0,1-1.1-3.76c-1-5.38,1.1-10.23,4.26-14.4a4.54,4.54,0,0,0,.37.46l.28.34c.14.19.27.39.4.59.43.64.85,1.3,1.27,2a46.14,46.14,0,0,0,3.24,4.37A30.62,30.62,0,0,0,549.75,297.42Zm18.56-46.53c.55,6.81-2.71,11.67-7.06,16.05C561.49,261.15,563.32,253.5,568.31,250.89Zm73.1,132.8A4.47,4.47,0,0,1,638,385.9c.06-.63.11-1.25.17-1.87-.12-2.22,2-5.4,3.08-7.13,1.64-2.54,3.91-4.57,5.81-6.91,1-1.22-.14-2.62-1.19-3.21a47.8,47.8,0,0,1-6.34-4.48,2.44,2.44,0,0,0,.17-.56l6.45-12.12,13.8,11.31C654.55,368.77,648.61,377.67,641.41,383.69Zm-4.79-100c-9,.4-19.3,2.05-25.16,9.71-6.89,9-1.78,20.31,4.35,28.09,7.53,9.53,15.46,19.08,24.5,27.24l-4.44,8.34c-22.46-15.79-43.81-33.86-68.83-45.52,3.84-8,4.37-18.74,3.16-27.22l32,14.35c3.45,1.54,3.29-3.26.76-4.4l-31-13.89c2.06-1.46,4.07-2.93,5.93-4.49,5.35-4.5,9.56-10.43,11.16-17.05q40.92,8.67,81,20.7c0,2.1,0,4.2,0,6.3C659,284.29,647.8,283.22,636.62,283.71Z"/><path class="cls-5" d="M496,381.23c-.21,0-1.78.16-1.5.43l5.18,5.11c.46.45,2.09.2,2.67.16.22,0,1.79-.16,1.51-.44l-5.18-5.11C498.25,380.93,496.62,381.19,496,381.23Z"/><path class="cls-5" d="M501.52,378.71l1.61-.48c.25-.07.66-.27.69-.59s-.34-.58-.57-.71a4.24,4.24,0,0,0-3.05-.29l-1.61.48c-.25.08-.67.28-.7.59s.34.58.57.71A4.17,4.17,0,0,0,501.52,378.71Z"/><path class="cls-5" d="M491.1,382.19l1.61-.49c.25-.07.67-.27.7-.59s-.34-.58-.57-.71a4.27,4.27,0,0,0-3.06-.29l-1.61.49c-.25.07-.66.27-.69.59s.34.58.57.71A4.24,4.24,0,0,0,491.1,382.19Z"/><path class="cls-5" d="M440.24,287.33a3.63,3.63,0,1,0-3.63-3.63A3.63,3.63,0,0,0,440.24,287.33Zm0-5.3a1.67,1.67,0,1,1-1.66,1.67A1.67,1.67,0,0,1,440.24,282Z"/></g></svg>