<svg xmlns="http://www.w3.org/2000/svg" xmlns:xlink="http://www.w3.org/1999/xlink" viewBox="0 0 882 768"><defs><style>.cls-1{fill:#ebf0f8;}.cls-2{fill:url(#linear-gradient);}.cls-3{fill:url(#linear-gradient-2);}.cls-4{fill:url(#linear-gradient-3);}.cls-5{fill:url(#linear-gradient-4);}.cls-6{fill:url(#linear-gradient-5);}.cls-7{fill:none;}.cls-8{fill:#67aaf9;}.cls-9{fill:#494949;}.cls-10,.cls-15{fill:#4191e0;}.cls-11{fill:#c4e0f9;}.cls-12{fill:url(#linear-gradient-6);}.cls-13{fill:#291b3a;opacity:0.44;}.cls-13,.cls-15{isolation:isolate;}.cls-14{fill:#fff;}.cls-15{opacity:0.3;}</style><linearGradient id="linear-gradient" x1="485.71" y1="194.48" x2="485.71" y2="-10.73" gradientTransform="matrix(1, 0, 0, -1, 0, 768.11)" gradientUnits="userSpaceOnUse"><stop offset="0" stop-color="#c4e0f9"/><stop offset="0.06" stop-color="#bfddf9"/><stop offset="0.38" stop-color="#abd2f7"/><stop offset="0.7" stop-color="#9ecbf5"/><stop offset="1" stop-color="#9ac9f5"/></linearGradient><linearGradient id="linear-gradient-2" x1="650.83" y1="243.78" x2="819.51" y2="321.59" xlink:href="#linear-gradient"/><linearGradient id="linear-gradient-3" x1="293.53" y1="187.83" x2="293.53" y2="-39.63" xlink:href="#linear-gradient"/><linearGradient id="linear-gradient-4" x1="674.3" y1="185.52" x2="842.98" y2="263.35" xlink:href="#linear-gradient"/><linearGradient id="linear-gradient-5" x1="228.7" y1="488.12" x2="109.8" y2="398.95" xlink:href="#linear-gradient"/><linearGradient id="linear-gradient-6" x1="573.98" y1="627.19" x2="568.29" y2="491.28" gradientTransform="matrix(1, 0, 0, -1, 0, 768.11)" gradientUnits="userSpaceOnUse"><stop offset="0" stop-color="#0fa"/><stop offset="0.13" stop-color="#07dfad"/><stop offset="0.31" stop-color="#0fbab0"/><stop offset="0.48" stop-color="#159db3"/><stop offset="0.66" stop-color="#1989b5"/><stop offset="0.83" stop-color="#1c7cb6"/><stop offset="1" stop-color="#1d78b6"/></linearGradient></defs><title>Artboard 1 copia 2</title><g id="líneas"><g id="líneas-2" data-name="líneas"><rect class="cls-1" x="161.06" y="112.55" width="230.32" height="55.1" rx="24.13" ry="24.13" transform="translate(-28.17 197.31) rotate(-37.54)"/><rect class="cls-1" x="722.24" y="161.71" width="154.72" height="55.1" rx="25.91" ry="25.91" transform="translate(50.25 526.4) rotate(-37.54)"/><path class="cls-1" d="M20.18,522.07l61.41-46.91a25.91,25.91,0,0,1,36.33,4.75l2,2.61a25.91,25.91,0,0,1-4.75,36.33L53.76,565.76A25.9,25.9,0,0,1,17.43,561l-2-2.6A25.91,25.91,0,0,1,20.18,522.07Z"/><path class="cls-1" d="M743.07,537.25c11.24-8.63,25-6.3,33.68,5h0c16.42,18.75,4.37,35.11-6.87,43.74L559.13,747.87a25.64,25.64,0,0,1-36-4.69v0l-2.32-3a25.64,25.64,0,0,1,4.7-36h0l16.12-13a16.6,16.6,0,0,0,3-23.27L543.19,666A16.6,16.6,0,0,0,519.92,663h0L402.45,755.13a27.54,27.54,0,0,1-38.62-5h0a27.56,27.56,0,0,1,5.06-38.63l6.44-4.93h0a16.45,16.45,0,0,0,3-23.07l0,0-1.47-1.91a16.43,16.43,0,0,0-23-3.06l-.06,0-52.49,41.27a27.56,27.56,0,0,1-38.63-5.06h0a27.57,27.57,0,0,1,5.06-38.64L432.88,549a16.6,16.6,0,0,0,3.06-23.27h0l-1.48-1.86a16.59,16.59,0,0,0-23.27-3h0L266.28,633.62a27.54,27.54,0,0,1-38.62-5h0a27.55,27.55,0,0,1,5.05-38.64h0l81.38-63.28a16.16,16.16,0,0,0,3-22.65l-1.45-1.88a16.16,16.16,0,0,0-22.65-3L109.19,641.24a27.56,27.56,0,0,1-38.63-5.06h0a27.54,27.54,0,0,1,5.06-38.63L243.41,468.71a16.46,16.46,0,0,0,3-23.08v0L245,443.7a16.46,16.46,0,0,0-19.12-5.25L170.11,481.3a27.55,27.55,0,0,1-38.63-5.06h0a27.53,27.53,0,0,1,5-38.61l0,0,163.2-125.68a16.18,16.18,0,0,0,3-22.68h0l-1.45-1.88a16.16,16.16,0,0,0-22.68-3h0l-2.1,2c-.22.2-.44.39-.67.57L164.68,371.36a27.56,27.56,0,0,1-38.63-5.06h0a27.56,27.56,0,0,1,5.06-38.63L469.86,68.39a27.54,27.54,0,0,1,38.63,5.06h0a27.55,27.55,0,0,1-5.05,38.63l-54.71,41.17-.09.24a16.31,16.31,0,0,0-3,22.87l1.46,1.89A16.3,16.3,0,0,0,470,181.3h0L619.63,66.41a27.56,27.56,0,0,1,38.64,5h0a27.56,27.56,0,0,1-5.06,38.63l-90.69,69.69h0a16.43,16.43,0,0,0-.16,20.21l1.47,1.91a16.39,16.39,0,0,0,23,3L634.64,168A27.56,27.56,0,0,1,673.28,173h0a27.56,27.56,0,0,1-5.06,38.64L524.56,321.47a16.27,16.27,0,0,0-3,22.78l1.46,1.89a16.23,16.23,0,0,0,22.77,3l111.88-85.75a27.57,27.57,0,0,1,38.64,5.05h0a27.56,27.56,0,0,1-5.06,38.64L537.4,425.36a16.08,16.08,0,0,0-3,22.54l0,0,1.44,1.87a16.07,16.07,0,0,0,22.54,3h0l97.06-74.58a27.55,27.55,0,0,1,38.63,5.06h0a27.54,27.54,0,0,1-5.06,38.62h0L637.2,461.48a16.5,16.5,0,0,0-3,23.1l1.48,1.92a16.47,16.47,0,0,0,23.09,3L735.23,430A27.56,27.56,0,0,1,773.86,435h0a27.55,27.55,0,0,1-5.06,38.63L658.67,557.28a16.53,16.53,0,0,0-3,23.17h0l1.48,1.92a16.52,16.52,0,0,0,23.15,3.07l0,0Z"/><path class="cls-2" d="M479.19,589.57l-25.47-13.65L396.5,577,267.65,676.09a27.56,27.56,0,0,0-5.06,38.64h0a27.56,27.56,0,0,0,38.64,5.07h0l52.49-41.26a16.42,16.42,0,0,1,23,3l.05.07,1.47,1.91a16.42,16.42,0,0,1-3,23l0,0h0l-6.44,4.93a27.56,27.56,0,0,0-5.06,38.63h0a27.54,27.54,0,0,0,38.62,5.07h0L519.86,663a16.6,16.6,0,0,1,23.27,3.05h0l1.49,1.93a16.6,16.6,0,0,1-3.1,23.22l-16.06,13a25.64,25.64,0,0,0-4.72,36h0l2.32,3A25.63,25.63,0,0,0,559,747.88h0L714.53,627.15c-22.14-15.14-104-64.1-221.38-76.8C491.05,561,491.36,585,479.19,589.57Z"/><path class="cls-3" d="M657.72,547.13a58.78,58.78,0,0,0,6,8,16.34,16.34,0,0,1,3.84-4.2l78.5-59.6C741.7,484.86,734.11,476,723,471.74c-13.65-5.25-29.66-4.38-44.61,3.15l-10.7,8.33a16.08,16.08,0,0,1-5.17,2.66l-.42.37C643.23,503.63,646.12,528.29,657.72,547.13Z"/><path class="cls-4" d="M227.56,628.57h0a27.55,27.55,0,0,0,38.63,5h0l99-77c-47.18,6.75-101.69,21-137.3,38A27.55,27.55,0,0,0,227.56,628.57Z"/><path class="cls-5" d="M743.51,563.26C749,557.77,758,543,763.83,532.91a25.58,25.58,0,0,0-21.31,4.67l-49.34,38c1.4.29,2.73.53,4,.68C708.72,577.76,734.81,572,743.51,563.26Z"/><path class="cls-6" d="M212.36,316.2a54.66,54.66,0,0,0,14.51-37.69L221.37,260,140.19,322.3c4.07,3.26,10.93,7.45,21.39,9.86C180.43,336.51,196.42,333.61,212.36,316.2Z"/><path class="cls-7" d="M669.37,481.2a71,71,0,0,0-15.86,11,16.67,16.67,0,0,0,5.18-2.67Z"/><path class="cls-8" d="M242.87,198.23s13,1.45,17.4,11.6c0,0-1.45-10.15,8.7-18.9,0,0-16-5.8-17.4-11.6C251.57,179.37,255.91,188.08,242.87,198.23Z"/><path class="cls-8" d="M122.48,585.14s8.13.9,10.84,7.22c0,0-.9-6.3,5.41-11.73,0,0-9.93-3.61-10.83-7.23C127.94,573.4,130.61,578.82,122.48,585.14Z"/><path class="cls-8" d="M640.52,193.26s8.13.91,10.84,7.22c0,0-.9-6.29,5.42-11.73,0,0-9.93-3.61-10.85-7.22C645.93,181.53,648.65,186.94,640.52,193.26Z"/><path class="cls-9" d="M224.77,260.18a2.69,2.69,0,0,0-2.16-1.31c-1,.76-2,1.53-2.92,2.21,7.35,19.95,3,43.4-12.92,58.06-17.94,16.46-45,16.28-64.37,2.65a2.66,2.66,0,0,0-1.05-.38l-2.77,2.37c19.8,13.8,47.15,15.6,67.45,1.6C226.81,311.05,233.57,283.19,224.77,260.18Z"/><path class="cls-9" d="M673.79,483.25c21.57-16,55-13.65,71.26,9,1.53,2.1,5.45,4.58,2.52.48-18.05-25.25-52.22-34.56-78.29-15.17a52.35,52.35,0,0,0-19.11,28.34,102.91,102.91,0,0,0-31.49,7.78c-3.55,1.52-8.32,3.08-8.16,7.72.13,3.83,3.33,5.52,6.63,6.16a266.91,266.91,0,0,0,32.5,3.8c2.32,10.21,7.6,19.51,14.58,27.61.35-.58.68-1,1-1.48-.14-.19-.28-.37-.42-.53a47.28,47.28,0,0,1-11.25-25.32l4.5.3c12.59.86,25.19,1.25,37.79,1.29l5.4-4a4.19,4.19,0,0,0-3.81-2.73q-22.15,0-44.24-1.68C653.23,509,660.57,493.06,673.79,483.25Zm-38.1,40c-5-.55-10-1.48-15-1.86-2.25-.18-3.15.18-.47-.62,2.29-.66,4.53-1.94,6.8-2.75a99.81,99.81,0,0,1,21.78-5,50.21,50.21,0,0,0-.45,5.47,49.18,49.18,0,0,0,.19,6.07q-6.4-.6-12.82-1.29Z"/><path class="cls-9" d="M760.92,532.38a18,18,0,0,0-1.94-.11c-5.59,27.9-35.42,42.81-62.11,40.8l-3.79,2.75c.74,1.17,1.65,2.23,2.47,2.37,28.64,4.7,62.78-10.84,68.33-41.61C764.07,535.5,762.34,533.58,760.92,532.38Z"/><path class="cls-9" d="M247.73,197.84A1.63,1.63,0,0,0,249,198a15,15,0,0,1,4-.54,15.44,15.44,0,0,1,7.86,2.19,17.86,17.86,0,0,1,8.08,11.13,2,2,0,0,0,.89,1.25,1.57,1.57,0,0,0,1.25.18,2,2,0,0,0,1.26-2.4c-2.28-9.45,2.93-19,11.6-21.38a2,2,0,0,0,1.26-2.4,2,2,0,0,0-.89-1.25,1.66,1.66,0,0,0-1.25-.18A15.16,15.16,0,0,1,271.18,183a17.79,17.79,0,0,1-8.09-11.14,1.93,1.93,0,0,0-.89-1.25,1.61,1.61,0,0,0-1.25-.18,2,2,0,0,0-1.26,2.4c2.28,9.45-2.93,19-11.6,21.38a2,2,0,0,0-.36,3.65Zm10.38-5.5a21.94,21.94,0,0,0,4.85-9l.57-2.1,1.52,1.61a20,20,0,0,0,8.29,5.34l1.9.62-1.39,1.45a22.18,22.18,0,0,0-4.85,9l-.58,2.1-1.51-1.61a19.92,19.92,0,0,0-8.3-5.34l-1.89-.62Z"/><path class="cls-9" d="M148.26,576.77a1,1,0,0,0-.77-.1,9.52,9.52,0,0,1-7.35-1,11.15,11.15,0,0,1-5-6.94,1.25,1.25,0,0,0-.55-.78,1,1,0,0,0-.78-.11,1.23,1.23,0,0,0-.79,1.5c1.42,5.86-1.81,11.82-7.22,13.3a1.23,1.23,0,0,0-.79,1.5,1.32,1.32,0,0,0,.57.78,1,1,0,0,0,.77.1,9.44,9.44,0,0,1,2.48-.33,9.71,9.71,0,0,1,4.9,1.35,11.13,11.13,0,0,1,5,6.94,1.3,1.3,0,0,0,.56.78,1,1,0,0,0,.78.11,1.22,1.22,0,0,0,.78-1.5c-1.41-5.86,1.82-11.82,7.23-13.3a1.22,1.22,0,0,0,.78-1.5A1.27,1.27,0,0,0,148.26,576.77Zm-6.46,3.42a13.57,13.57,0,0,0-3,5.58l-.34,1.34-.94-1.05a12.52,12.52,0,0,0-5.17-3.32l-1.17-.39.84-.93a13.88,13.88,0,0,0,3-5.58l.36-1.34.94,1a12.56,12.56,0,0,0,5.16,3.31l1.18.39Z"/><path class="cls-9" d="M643.55,193a1,1,0,0,0,.78.11,9.42,9.42,0,0,1,2.47-.33,9.58,9.58,0,0,1,4.9,1.35,11,11,0,0,1,5,6.93,1.3,1.3,0,0,0,.56.79,1.11,1.11,0,0,0,.78.11,1.22,1.22,0,0,0,.78-1.5c-1.41-5.85,1.83-11.83,7.23-13.31a1.21,1.21,0,0,0,.78-1.49,1.25,1.25,0,0,0-.55-.78,1,1,0,0,0-.78-.11,9.52,9.52,0,0,1-7.35-1,11.19,11.19,0,0,1-5-6.94,1.17,1.17,0,0,0-.55-.77,1.06,1.06,0,0,0-.78-.12,1.24,1.24,0,0,0-.79,1.5c1.43,5.86-1.81,11.82-7.22,13.3a1.27,1.27,0,0,0-.75,1.63,1.31,1.31,0,0,0,.53.65ZM650,189.6a13.61,13.61,0,0,0,3-5.59l.36-1.33.94,1a12.48,12.48,0,0,0,5.17,3.33l1.17.39-.84.93a13.64,13.64,0,0,0-3,5.58l-.36,1.34-.94-1a12.48,12.48,0,0,0-5.17-3.33l-1.17-.38Z"/><path class="cls-9" d="M217.17,192.58a4.05,4.05,0,1,0-4-4.05h0A4.06,4.06,0,0,0,217.17,192.58Zm0-5.92a1.87,1.87,0,1,1-1.86,1.88h0A1.87,1.87,0,0,1,217.17,186.66Z"/><path class="cls-9" d="M600.53,104.92a4.05,4.05,0,1,0-4.06-4A4.05,4.05,0,0,0,600.53,104.92Zm0-5.91a1.86,1.86,0,1,1-1.86,1.86A1.85,1.85,0,0,1,600.53,99Z"/><path class="cls-9" d="M765.83,447.71a4.07,4.07,0,1,0,4,4.08v0A4.07,4.07,0,0,0,765.83,447.71Zm0,5.92a1.87,1.87,0,1,1,1.86-1.88v0A1.86,1.86,0,0,1,765.83,453.63Z"/><path class="cls-9" d="M45.82,547.52a4,4,0,1,0,4,4.05h0A4.07,4.07,0,0,0,45.82,547.52Zm0,5.92a1.87,1.87,0,1,1,1.86-1.88h0a1.88,1.88,0,0,1-1.86,1.85Z"/><path class="cls-9" d="M823.83,178.87a4.05,4.05,0,1,0-4.05-4.05h0A4,4,0,0,0,823.83,178.87Zm0-5.91a1.86,1.86,0,1,1-1.86,1.86A1.86,1.86,0,0,1,823.83,173Z"/><path class="cls-9" d="M732.58,451.07h3.72v3.73a1.1,1.1,0,0,0,2.2,0v-3.73h3.72a1.09,1.09,0,1,0,0-2.18H738.5v-3.73a1.1,1.1,0,0,0-2.2,0v3.73h-3.72a1.09,1.09,0,1,0,0,2.18Z"/><path class="cls-9" d="M676,285.75h3.73v3.73a1.1,1.1,0,1,0,2.19,0v-3.73h3.72a1.09,1.09,0,0,0,0-2.18H682v-3.73a1.1,1.1,0,0,0-2.19,0v3.73H676a1.09,1.09,0,1,0,0,2.18Z"/><path class="cls-9" d="M257,407.55h3.72v3.73a1.1,1.1,0,0,0,2.19,0v-3.73h3.73a1.09,1.09,0,1,0,0-2.18H262.9v-3.73a1.1,1.1,0,1,0-2.19,0v3.73H257a1.09,1.09,0,1,0,0,2.18Z"/><path class="cls-9" d="M100.89,495.52H97.17v-3.68a1.1,1.1,0,1,0-2.19,0v3.72H91.25a1.1,1.1,0,0,0,0,2.2H95v3.72a1.1,1.1,0,1,0,2.19,0v-3.77h3.72a1.1,1.1,0,0,0,0-2.19Z"/><path class="cls-9" d="M591.57,136.66a1.52,1.52,0,0,0,.42-.06l4.39-1.39,1.38,4.39a1.42,1.42,0,0,0,1.34,1,1.29,1.29,0,0,0,.43-.07,1.4,1.4,0,0,0,.91-1.75h0l-1.4-4.39,4.42-1.36a1.4,1.4,0,0,0-.85-2.67l-4.4,1.36-1.38-4.39a1.39,1.39,0,0,0-1.75-.91h0a1.38,1.38,0,0,0-.93,1.73v0l1.39,4.4-4.4,1.38a1.4,1.4,0,0,0,.43,2.73Z"/><path class="cls-9" d="M585.5,502.42a1.4,1.4,0,0,0-1.75-.91h0l-4.43,1.4-1.39-4.4a1.4,1.4,0,1,0-2.66.85h0l1.38,4.39-4.39,1.38a1.41,1.41,0,0,0-.88,1.78,1.39,1.39,0,0,0,1.3,1,1.16,1.16,0,0,0,.42-.07l4.39-1.39,1.4,4.4a1.41,1.41,0,0,0,1.33,1,1.2,1.2,0,0,0,.42-.07,1.4,1.4,0,0,0,.91-1.76l-1.38-4.39,4.4-1.38a1.41,1.41,0,0,0,.93-1.76Z"/><path class="cls-9" d="M494.78,553.12c78.72,8.08,154.46,35,221.17,77.6a1.86,1.86,0,0,0,.5.22l5.18-3.8a2.1,2.1,0,0,0-.33-.26,513.38,513.38,0,0,0-178.58-71.64q-24.9-4.71-50.17-7"/><path class="cls-9" d="M374.39,550.41a517.53,517.53,0,0,0-132,36.82,71.56,71.56,0,0,0-7,7.57,507.79,507.79,0,0,1,137.45-39.89"/><path class="cls-10" d="M345.23,329.14s3.27,102.18,8.4,124.73h0l83.24,17.69L499,442.37s11.1-85,7-111c-109.17,38.84-160.8-2.18-160.8-2.18"/><circle class="cls-8" cx="432.65" cy="400.82" r="39.06"/><circle class="cls-11" cx="432.7" cy="400.8" r="21.16"/><polyline class="cls-10" points="361.37 501.16 370.93 546.6 345.59 526.75 345.87 505.24 347.82 491.85 360.39 500.03"/><path class="cls-7" d="M354.5,571.71c2.78-.39,5.56-.78,8.28-1.13l1.61-.2q-.64-2.55-1.34-5.31Z"/><path class="cls-8" d="M471.43,150.79a302.11,302.11,0,0,0-19.13-35C443.48,102,436.56,92.1,424.65,79.4c0,0-45.86,44.31-67,145.22,0,0-12.82,64-9.55,103.08,0,0,60.44,37.79,157.9,3.62C506,331.32,512.82,239.73,471.43,150.79Z"/><path class="cls-8" d="M353.72,438.71c0,32.2,12.74,88.48,21.42,123.06l1.34,5.33c3.8,14.88,18.13,20.16,18.13,20.16l7.65,3.61,53.06-.32S474,592.28,474.84,589C487.08,543.66,499,442.37,499,442.37,393.17,476.55,353.72,438.71,353.72,438.71Z"/><polygon class="cls-12" points="549.84 246.05 588.91 252.56 593.79 246.05 598.68 228.14 600.3 208.62 590.54 206.99 590.54 185.83 587.29 174.44 579.14 171.18 544.96 164.67 546.59 180.95 541.71 215.13 556.36 220.01 554.74 234.66 549.84 246.05"/><polygon class="cls-13" points="543.34 215.13 557.99 220.01 557.99 203.74 543.34 215.13"/><polygon class="cls-10" points="396.44 590.55 401.32 606.83 411.09 606.83 414.35 623.1 451.78 623.1 453.41 606.83 464.8 606.83 466.63 590.74 396.44 590.55"/><path class="cls-8" d="M325.64,540.58l.31,2.67h9l2-4.7-1.9-1.81,3.53-14.23a87.87,87.87,0,0,0,2.54-18.62l.18-6.56a64.82,64.82,0,0,0-2.16-18.54h0a102.6,102.6,0,0,0-12.6-28.65l-1.2-1.9-1.22,5.4c-7.16,13.44-9,18.76-11.14,33.84l-.16,5.64v4.37c-1.05,11.86.72,17.71,3.4,29.31l1.76,5,1.81,5.09,5.32.7Z"/><path class="cls-8" d="M526.54,539.17l1.26,5,7.63-1.26-1.63-4.88,3.55-1.54s14.88-56.76-6.42-85.24l-2-6-2.19,4.1a130.77,130.77,0,0,0-14.09,43.1h0l2.63.33c-1,11.86,1.05,23.48,3.75,35.09l1.25,3.76,1.26,3.76,5,2.5Z"/><path class="cls-14" d="M616.58,293.25s-8.14-17.85-32.54-13-26,26-26,26v8.14l3.25,11.4,6.51,8.13,9.76,6.51s-29.29,8.14-34.17,29.3h11.4l9.37,6.16s15-19.18,26.43-14.29,22.78,24.41,22.78,34.17S615,425.09,602,426.72L600.31,443s24.42,6.52,35.81-4.88S654,407.18,654,407.18s8.13-17.89,16.27-22.78,32.54-3.26,32.54-3.26l17.91,3.26v-6.51l6.5-14.65a78.87,78.87,0,0,0-27.67-11.4C683.31,348.59,667,347,667,347l-6.51-3.25-21.16-19.53s4.89-9.77,4.89-19.53S641,280.23,641,280.23L629.6,264l-16.28-11.39-1.63,6.51-6.51,11.45,11.4,9.76,3.26,14.7Z"/><path class="cls-11" d="M593.79,342.08s14.7-1.63,19.53-8.14,8.14-16.28,8.14-16.28-14.69-30.92-32.54-24.41S566.12,329.06,593.79,342.08Z"/><path class="cls-8" d="M600.31,443s3.26-14.64,0-16.27a16.17,16.17,0,0,0-6.51-1.63s-6.5-3.25-9.77,1.63-9.76,26-9.76,26l3.25,1.63,9.78-6.51,6.5-6.52Z"/><path class="cls-10" d="M575.89,456s19.53-30.93,14.69-32.55S569.38,454.39,575.89,456Z"/><polygon class="cls-8" points="720.75 384.4 722.37 373 728.88 363.24 735.39 366.5 743.54 359.99 751.67 358.36 754.92 363.24 746.79 376.26 735.39 386.03 732.14 387.66 720.75 384.4"/><polyline class="cls-8" points="543.34 371.38 548.22 369.75 554.74 369.75 564.5 374.63 559.62 390.91 554.74 394.17 548.22 392.54 543.34 382.78 543.34 371.38"/><polyline class="cls-8" points="603.56 268.84 611.69 262.32 613.32 250.93 598.68 247.68 592.17 249.31 590.54 257.44 595.42 263.96 603.56 268.84"/><polygon class="cls-11" points="618.21 281.86 623.09 278.6 626.35 281.86 627.97 288.37 627.97 293.25 618.21 293.25 618.21 286.74 618.21 281.86"/><polygon class="cls-11" points="556.36 350.21 564.5 356.73 575.89 350.21 569.38 343.71 556.36 350.21"/><path class="cls-10" d="M419.67,83.9c-44.14,115-69.67,452,6.59,511.1,0,0-16.27,14.64,22.79,14.64,0,0-38.57-.3-14.15,12.71L412.41,622l-1.32-15.53-10.49-.16L397.54,592l-14.8-.71L366,529.38a87.77,87.77,0,0,1-1.64-9.25l-9.71-67.43-7.11-77.54-.88-65,4.84-53.73,9.24-49.82,14.91-42.92,20.2-43.95L413,92.44S420.63,81.38,419.67,83.9Z"/><path class="cls-10" d="M532.81,450.2s-14.08,85.9,10.34,85.9l-3.45,2.63v4.89H528.31v-4.89l-6.5-1.62-3.26-9.77-22.79,21.21,9.76-48.83,11.4-6.51,4.89-24.42,4.5-10.21a68.32,68.32,0,0,1,3.32-6.56l3.14-5.58Z"/><path class="cls-10" d="M380.69,393.17s-8.16,22.79,6.53,40.7,42.32,14.64,53.72,6.5c0,0-22.79,9.77-42.33-4.88S380.69,393.17,380.69,393.17Z"/><path class="cls-10" d="M580.77,360s22.79-8.15,35.81,13,6.51,47.24-6.52,53.72-19.52-1.63-19.52-1.63,16.27,8.14,22.78-13-9.76-53.7-32.54-52.07"/><path class="cls-10" d="M658.9,394.17s4.88-19.54,39.06-19.54,37.44,16.28,55.34-9.76L738.6,384.4l-9.77,3.26S673.54,368.14,658.9,394.17Z"/><path class="cls-10" d="M621.46,304.65s14.65-34.13-29.29-48.82l-1.63,3.25,8.14,8.15,17.9,11.37,1.63,8.14v8.15l3.25,9.76"/><path class="cls-10" d="M582.39,342.08s-53.7,22.79-21.15,43.91l-4.88,8.13h-8.14s-6.51-6.5-6.51-11.4S545,368.08,545,368.08l6.51-11.39s11.4-11.4,26-16.28Z"/><path class="cls-10" d="M567.77,290S556.38,338.83,602,342.08a40.32,40.32,0,0,1-32.54-6.51C553.08,324.18,558,288.37,567.77,290Z"/><path class="cls-15" d="M562.87,167.92S551.47,203.73,584,207l-24.4-4.89-17.91,13,4.88-16.28V164.67Z"/><path class="cls-15" d="M574.33,204.62s3.15,30,21.09,39.81l-4.88,9.76-42.32-8.14,8.14-17.91,2.44-25.44Z"/><ellipse class="cls-10" cx="436.02" cy="643.01" rx="117.19" ry="8.95"/><path class="cls-9" d="M439.86,441.06a42.15,42.15,0,0,0,34.84-40.37.89.89,0,0,0,0-.23.61.61,0,0,0,0-.27,40.94,40.94,0,0,0-29.27-38.6,43.78,43.78,0,0,0-44.82,13,40.71,40.71,0,0,0-3.94,47.93C405.73,437,423.25,444,439.86,441.06Zm-6.29-77.38c20.07.88,34.64,18.13,35.14,37.59-.59,19.44-15.31,36.82-35.63,36.74s-36.41-17.68-36.41-37.58,16.44-37.64,36.91-36.75Z"/><path class="cls-9" d="M456.75,401.63c-1.15-28.56-48.05-31.84-48.19-1.65C408.43,428.79,455.55,431.59,456.75,401.63ZM428.34,382c12.35-3.95,22,6.25,22.54,18-.35,8.74-5.33,16.8-13.91,19.61-12,4-22.47-6.23-22.53-18-.05-8.62,5.59-16.95,13.9-19.61Z"/><path class="cls-9" d="M426.5,11.8c.16,2.79,3.39,3,5.53,3s5.55-.07,5.56-2.9c0-2.65-3.15-2.92-5.13-3C430.26,8.83,426.66,8.83,426.5,11.8Zm7,2a2.2,2.2,0,0,1-.5-.51l-.06-.13c1.2.29,1.56,1.39.56.64Z"/><path class="cls-9" d="M365.86,569.37q-16.1,35.39-32.2,70.78h-9.17c-1.69,0-4.62,3.14-5,3.14h13c1.33,0,4.58-1.59,5.15-2.85,10.86-23.86,23.49-51.81,34.34-75.67a25.29,25.29,0,0,0,.71,3.75c2,7.6,4.2,15.13,6.69,22.51a3.94,3.94,0,0,0,3.41,2.52h12.83a2,2,0,0,0-.38.49L371.3,639.6H361.12c-1.93,0-6.06,4.29-3.45,4.29h13a4.91,4.91,0,0,0,4.13-2.45l21.85-41.56c.21,1.92.43,3.83.64,5.75.15,1.34,2.22,2.52,3.41,2.52H409l1.32,13.18a3.64,3.64,0,0,0,3.47,3.09h38.15c1,0,2.17-.24,2.28-1.43q.75-7.43,1.49-14.84h9.24c1,0,2.15-.25,2.29-1.44s.28-2.57.43-3.85q10.33,19.71,20.71,39.43a3.22,3.22,0,0,0,3,1.41h13c3.76,0,3.66-4-.09-4h-10.8L469.17,593.5h13.65c.7,0,1.85,0,2.1-.9,2.75-8,5.05-16.21,7.13-24.46,1.13,2.77,2.19,5.57,3.37,8.13q5.91,12.94,11.83,25.88,9.36,20.52,18.74,41l.17.07h13c1.69,0,4.62-3.15,5-3.15h-6.51c-1.27,0-5.39.67-6.36,0s-1.9-4.2-2.38-5.19q-6.65-14.55-13.28-29.06l-17.51-38.25-2.52-5.51c-.46-1.05-.92-2-1.38-3,.7-3,1.4-6,2.1-9,8.06-5.25,14.92-12.19,21.21-19.42.5,1.76,1,3.53,1.6,5.25.35,1.05,4.82,1.62,5.77,1.62h.18a1.09,1.09,0,0,0,0,.26v6.52c0,.53.4.75,1,.76H537.8c1.33,0,4.2-1.41,4.2-3V537.5h5.89c10.07-30.63,9.26-66.7-11.47-92.88a1.14,1.14,0,0,0-.31-.27V425.06a1.62,1.62,0,0,0-.47-1,2.48,2.48,0,0,0,2.1-2.55c0-2.44-2.63-4.55-4.88-5a2.76,2.76,0,0,0-3.44,1.87,2.36,2.36,0,0,0-.1.46v.48a4.71,4.71,0,0,0,1.63,3V443a.51.51,0,0,0-.38.18c-10.58,13.35-15.93,29.3-17.31,45.8q-3,2.16-6,4.25c3.87-24.55,6.8-49.25,9-74,1.63-18.43,3-37,3.91-55.51,2.88-1.6,4.56-5.67,6-8.32,3.53-6.53,7-13.12,12-18.7,5.83-6.52,15.08-11.33,24-9.51a37.14,37.14,0,0,0,11.87,13.07c-18.72,5.1-35,19.31-34.64,40.22.1,6.12,1.75,12.6,8,15,4,1.55,9.33,1.44,12.92-1.19,5.17-3.8,3.28-10.77,5.91-16,3.15-6.3,12.86-16.09,20.45-15.55,5.34.39,10.37,5.38,13.57,9.25,10,12.06,13.52,31,7.62,45.68-4,9.94-9.52,5.25-17.11,4.06-8.11-1.3-12.26,9.61-14.91,15.51-1.85,4.2-10.08,21.06.6,19.66,6.73-.88,13.39-8,18.34-13.13,16.5,5.07,34,4.61,46.37-9.07,10.74-11.89,14.32-28.06,23.56-40.87,12.12-16.79,38.84-10.61,55.95-6.71,4.53,1.05,10,3.38,14.55,1.57,6.93-2.72,13.33-10.5,17.43-16.33,3.6-5.17,7.79-14.7-1.81-16.05-6.12-.86-12.45,3.2-17.32,7.18-19.29-12.7-44.88-17.29-67.73-18.36-4.73-6.37-10.81-11.7-16.95-16.68-2-1.64-4-3.36-6.15-4.82.18-.35.4-.69.56-1,8.2-13.33,5.36-34.38-1.32-47.48a50.88,50.88,0,0,0-9.6-13l35.9,5.67c3.77.6,4.54-4.12.77-4.71l-43.49-6.88h-.16a56.69,56.69,0,0,0-17.24-8.4A31.38,31.38,0,0,0,597,246.83c4.84-12.06,7.67-25.41,5.86-38.12a3.68,3.68,0,0,0-3.15-2.89l-7.42-1.15a75,75,0,0,0,1-20.88c-.34-3.37-1-10.4-4-12.59-1.25-.91-3.34-1-4.81-1.29l-39.29-7.56c-1.5-.3-3.71.88-3.25,2.66,4,15.83.57,34.2-3.3,49.82a1.71,1.71,0,0,0,.55,1.59,3.21,3.21,0,0,0,3,1.47l10.6,3.54a3.35,3.35,0,0,0,1.72.12,86.89,86.89,0,0,1-7.71,21.68,2.29,2.29,0,0,0-.22,1.31l-3-.47c-3.25-.52.86,3.69,2.66,4l41.06,6.47a12.43,12.43,0,0,0,0,2.86c.87,8.8,13.07,13.14,19.21,17.19,5.25,3.46,9.81,9.45,9.63,16a34.92,34.92,0,0,0-10.37-9.37,32.52,32.52,0,0,0-40.22,6c-9,9.88-10.07,23.09-5.91,34.49-9-1.86-18.26,3-24.15,9.45-4.81,5.36-8.26,11.72-11.64,18a50.91,50.91,0,0,1-3.44,6.22c1.35-37.14.23-74.33-6.17-111-7.35-42.07-20.88-83.43-41.25-121A250.84,250.84,0,0,0,448.24,85.3c-3.57-4.43-8.19-10.89-13.73-13.71V18.42c0-1.5-5-4-5-3.15V70.44a1.11,1.11,0,0,0,.17.53c-5,2.41-9.07,8.11-12.41,12.2a239.19,239.19,0,0,0-21.17,31.06C375.85,149,361.9,187.48,353.36,226.77a415.86,415.86,0,0,0-7.91,53.82c-22.26-6.76-54.39-5.12-55.12,24.57-.16,7,1.55,13.85,2.53,20.74a144.45,144.45,0,0,1,1.7,21.78c-6.41-1.56-13.14-1.88-19,.59-10.59,4.45-14.38,18.42-4.69,25.88A17.3,17.3,0,0,0,288.76,376c6.57-3.32,9.45-10.74,10.69-17.58.21-1.17.36-2.32.51-3.49,17.57,7.17,33.4,20.81,46.08,34.75.25,3.73.52,7.48.8,11.22,2.33,31.11,5.78,62.19,10.73,93-2.18-1.72-4.52-3.28-6.4-4.67-1.5-16.43-7-32.3-17.54-45.65a1.62,1.62,0,0,0-.64-.45V425.34a4.82,4.82,0,0,0-.46-2c1.5-.23,3-1.05,3.06-2.67a1.19,1.19,0,0,0-.1-.49c-.46-2.1-2.94-3-5-3.15-1.69-.05-4.2.68-4.2,2.77,0,1.58,1.18,2.57,2.58,3.15v19.69a1.49,1.49,0,0,0-.8.47c-20.84,26.32-21.61,62.68-11.49,93.47.36,1.13,2.65,1.48,3.57,1.48h2.24v4.31c0,1.73,3.08,2.68,4.38,2.68h11.1c.88.06,1.55-.21,1.55-1v-6h3.46c.78,0,2.1,0,2.41-.93.5-1.51,1-3,1.4-4.58A101.53,101.53,0,0,0,368.33,550c.68,3.15,1.4,6.21,2.1,9.32l-2.27,5M571.8,347.55l1.39,1.38L562,354.5l-2.67-2.69a43.82,43.82,0,0,1,11.46-6.38,5.66,5.66,0,0,0,1,2.12Zm-12.74,33.19c-.87,2.76-.36,5.93-1.41,8.56-2.3,5.81-8.66,3.41-10.61-1-2.18-4.91-2-10.88-.61-16.34l.12-.11c3.47-3.3,10.67,1.77,14.27,4.85A21.78,21.78,0,0,0,559.06,380.74Zm26,65.44c-1.58,1.41-3.2,2.78-4.89,4.06-.84.63-1.68,1.28-2.58,1.84.12-1.26.15-2.82.32-3.45a55.54,55.54,0,0,1,1.88-5.68,65.35,65.35,0,0,1,7.35-14.75c.66-.93,2.61-2.45,2.1-2.86.72.19,1.54.63,2.1.81a34.07,34.07,0,0,0,7.64,1.91c1.26,4,.59,8.59-.91,12.54-1-.3-1.93-.61-2.87-.94a4.26,4.26,0,0,0-4.2.83c-1.83,2-3.87,3.89-5.94,5.73Zm165.86-82.93c-.13,6.66-9,14.58-13.65,18.58a33.22,33.22,0,0,1-4.14,3.15c-1.48.93-.18.6-1.28.66-2.1.12-4.74-1.05-6.72-1.51l-1.21-.27A27.59,27.59,0,0,1,729,366c.9.58,1.8,1.17,2.67,1.8,1.37,1,3.63.44,4.78-.57,2.79-2.34,14.62-11.49,14.48-3.9ZM585.06,174.7c3.94,8.6,3,19.62,1.23,29l-27.51-4.19a2.93,2.93,0,0,0-1-.17l-.34,0a1.46,1.46,0,0,0-1.64,1l-9.17,7.35c2.78-12.94,4.51-27,2.1-39.78ZM555,217l-7.8-2.61,8.74-7a57.66,57.66,0,0,1-.58,9.74Zm-2.81,28.4c6-12.29,9.82-26.48,8.66-40.15L598.07,211c1.15,13.19-3.15,27.43-8.87,39.22a7.07,7.07,0,0,0-.7.93Zm40.87,10c.06-.09.12-.18.17-.27.62-1.25,1.21-2.53,1.8-3.82l.48-.4c3.42-2.54,10.77.49,14.15,1.86a4.34,4.34,0,0,0,0,.51c1,6.1-2.09,10.8-7.43,13.46-.21-.13-.43-.27-.63-.42-2.89-1.93-8.46-6.57-8.54-10.9Zm14.93,15a16.78,16.78,0,0,0,7.58-14.78,50.79,50.79,0,0,1,25,33.29c2.48,11.13,2.1,24.85-4.12,34.85a1.31,1.31,0,0,0,.37,1.42,138.71,138.71,0,0,1,19.81,17.13c2.37,2.55,4.4,6.09,7,6.47.75.1,4.2.27,5.77.41,18.25,1.58,37.89,4.91,54.3,13.76a31.74,31.74,0,0,0-5.53,19.7c-5-1.05-10.08-2-15.2-2.54-14.07-1.58-32.23-1.66-42.14,10.29-8.1,9.75-11.83,22.59-18.26,33.39-4.05,6.8-9.26,13.44-16.57,16.92-7,3.36-14.76,3.09-22.17,1.43,1.86-4.61,2.69-9.95,1.11-14.7,5.25-1.72,8.5-6.58,10-12.51,5-19.22-2.36-50.5-25.1-55.49-9.7-2.1-20,5.55-25.93,12.75-4.94-3.56-10.89-5.64-16.37-4,.42-1.19.88-2.34,1.38-3.43a34.89,34.89,0,0,1,9.11-12,4.87,4.87,0,0,0,.76,1.25l4.07,4.06c.27.28.82.77,1.27.55l13-6.5c1-.5-1-3-1.34-3.36L572,344.94a56.83,56.83,0,0,1,7.11-2,31.61,31.61,0,0,0,36.27-8c10.74,9.45,20.15,22.41,21.63,36.63.11,1,4.78.54,4.67-.53-1.58-15.3-12.36-29.3-24.08-38.84a34.16,34.16,0,0,0,6.3-19,40.68,40.68,0,0,0-4.47-17.35l10.61-1.51v-.12c-.09-5.95-1.89-12.06-6.37-16.24-.5-.49-1.3-1.33-2-1.35a10.45,10.45,0,0,0-4,1.56,47.7,47.7,0,0,0-9.72-7.8Zm5.08,38.06c1.86,3.4,4.77,10.17,2.79,16.69a30.82,30.82,0,0,1-20,14.27,27.32,27.32,0,0,1-3.38.53c-7.49-5.19-14.19-12.11-15.74-21.4a22.7,22.7,0,0,1,8.4-21.25c4.56-3.66,9.5-5,14.81-2a35.19,35.19,0,0,1,9.09,8.07,48,48,0,0,1,4,5.09Zm7.44-26.4c1.38-.76,3-1.61,3.8-1.53,2.05.21,2.44,3.52,2.76,5.24a12.93,12.93,0,0,1,.38,3.77,5.52,5.52,0,0,0-.09,1c0-.07-.16-.15-.49,0-.84.53-2.88.42-3.85.56l-.77.1A15,15,0,0,0,620.49,282.07Zm-35.35.77c17.31-3.76,35,8,35.46,26.25a19.31,19.31,0,0,1-.19,2.74c-6.95-11.92-18.34-24.22-32.69-18.22-8.4,3.47-14.91,11.08-15.75,20.26C571,325,578.27,333.82,586.78,340c-13.86-1.23-26.24-11.69-26.31-26.74a31.48,31.48,0,0,1,24.67-30.42ZM536.42,541.35h-5.89v-2.73h5.89ZM534,448c12,17.79,16.18,40.46,13.47,61.42a170.84,170.84,0,0,1-3.84,20.47c-.53,2.1-.62,4.2-1.81,5.33-.23-.37-.78-.41-1.22-.41H529.2a5.61,5.61,0,0,0-2.81,1.05h-1.87C515.43,506.94,516,473.33,534,448Zm-21.14,48.28a119.39,119.39,0,0,0,3,27.63,122.66,122.66,0,0,1-17.56,17.44q4.2-19.7,7.55-39.58c1.59-2.16,4.42-3.89,7.05-5.47ZM354.62,252.52c6.74-42.7,19.89-84.63,40-123a271.44,271.44,0,0,1,24.6-39.18c3.49-4.54,8.46-11.92,13.64-14.88l.16.11c.94.75,1.84,1.51,2.71,2.33a90.55,90.55,0,0,1,8,8.87,232.25,232.25,0,0,1,21.27,32c20,35.33,33.6,74.27,41.57,114,6.24,30.84,8.48,62,8.52,93.26C467.14,343.93,411.52,352.7,362.73,333c-2.59-1.05-6.7,2.79-3.2,4.2,49.65,20.08,106.59,11.54,155.53-6.48-.14,24.83-1.62,49.69-3.56,74.48-3.46,44-9.18,87.82-18.26,130.93-1.29,6.15-2.61,12.33-4,18.5L391.59,553l-14.35-.14a6.62,6.62,0,0,0-2.53.79l-1-4.72v-.1a2.91,2.91,0,0,0,0-1.55q-1.43-5.67-2.78-11.37a953.81,953.81,0,0,1-14.7-95c44.22,20.21,96.35,16.31,141.86,2.77-.19,0-3.84-2.78-5.42-2.31-43.07,12.72-94.9,18.46-136.69-1.92q-.75-7.11-1.43-14.24C349.12,368.07,345.61,309.54,354.62,252.52ZM287.26,371.76c-5.67,3.63-13.94-.9-15.83-6.79-2.23-6.88,3.15-12.59,9.75-13.39A32.73,32.73,0,0,1,294.4,353C294,359.66,292.75,368.23,287.26,371.76Zm19.55-19.64c-2-.95-4.19-1.85-6.41-2.65.51-12.42-2-24.78-3.65-37.08-1.29-9.51-.77-21.28,8.32-26.87,11.17-6.87,28.22-3.59,40,.4h0c-2.29,31.78-1.53,63.75.46,95.69C334.23,369.77,321.66,359.05,306.81,352.12Zm22.52,68.51Zm1.86,27.66c17.35,25.19,17.53,58.62,8.4,87.13h-2.42a6.59,6.59,0,0,0-2.1-.46H323.69a1.41,1.41,0,0,0-1.11.46H322c-9-28.71-8.5-62,9.16-87.18Zm2.59,93.06h-5.7v-2.83h5.7Zm14.7-15.55a119.23,119.23,0,0,0,3.08-29.16c2.76,2.1,5.31,4.51,6.16,7.49,2,6.91,2.89,14.31,4.48,21.33q1.82,8.16,3.81,16.29a97,97,0,0,1-17.51-15.92Zm132,61.16-69.88,2.43c-1.78.06-6.3,3.81-3,3.7l55.4-2-1.32,11.91a1.53,1.53,0,0,0-.75-.26l-42.32.82c-.53,0,2.16,4.59,3.74,4.56l27.45-.53-1.22,12.26H415.69q-.66-6.58-1.31-13.19a3.66,3.66,0,0,0-3.48-3.08h-8.26q-.67-6.06-1.34-12.14c-.16-1.34-2.23-2.52-3.41-2.52h-13.7c-3.44-10.42-6.16-21.13-8.66-31.84L376,556l87.72,1.42,19.08.31c3.15,0,3.45-.53,4.82,1.53.12.19.23.39.34.58C485.82,569,483.36,578.09,480.44,587Z"/><path class="cls-9" d="M305.89,405.18a4.56,4.56,0,1,0-4.57,4.54h0A4.55,4.55,0,0,0,305.89,405.18Zm-6.64,0a2.1,2.1,0,1,1,2.1,2.1A2.1,2.1,0,0,1,299.25,405.18Z"/><path class="cls-9" d="M326.79,219.53a1.57,1.57,0,0,0-2-1.06h0L319.89,220l-1.56-4.92a1.57,1.57,0,1,0-3,.94l1.55,4.94L312,222.54a1.57,1.57,0,0,0,.47,3.07,1.49,1.49,0,0,0,.47-.07l4.93-1.56,1.56,4.93a1.6,1.6,0,0,0,2,1,1.58,1.58,0,0,0,1.06-2h0L320.87,223l4.92-1.55A1.58,1.58,0,0,0,326.79,219.53Z"/><path class="cls-9" d="M332.92,52.32a1.5,1.5,0,0,0,.47-.08l4.94-1.56,1.55,4.93a1.57,1.57,0,0,0,1.5,1,1.49,1.49,0,0,0,.47-.07,1.57,1.57,0,0,0,1.06-2h0l-1.56-4.94,4.93-1.55a1.57,1.57,0,0,0-.94-3l-4.94,1.56-1.55-4.93a1.6,1.6,0,0,0-3,1l1.56,4.94-4.93,1.55a1.58,1.58,0,0,0,.47,3.08Z"/></g></g></svg>