<svg xmlns="http://www.w3.org/2000/svg" xmlns:xlink="http://www.w3.org/1999/xlink" viewBox="0 0 882 768"><defs><style>.cls-1{fill:#ebf0f8;}.cls-2{fill:url(#linear-gradient);}.cls-3{fill:url(#linear-gradient-2);}.cls-4{fill:url(#linear-gradient-3);}.cls-5{fill:url(#linear-gradient-4);}.cls-6{fill:url(#linear-gradient-5);}.cls-7{fill:url(#linear-gradient-6);}.cls-8{fill:url(#linear-gradient-7);}.cls-9{fill:#67aaf9;}.cls-10{fill:#fff;}.cls-11{fill:#c4e0f9;}.cls-12{fill:#4191e0;}.cls-13{fill:#494949;}</style><linearGradient id="linear-gradient" x1="656.44" y1="333.14" x2="858.44" y2="141.14" gradientUnits="userSpaceOnUse"><stop offset="0" stop-color="#0fa"/><stop offset="0.13" stop-color="#07dfad"/><stop offset="0.31" stop-color="#0fbab0"/><stop offset="0.48" stop-color="#159db3"/><stop offset="0.66" stop-color="#1989b5"/><stop offset="0.83" stop-color="#1c7cb6"/><stop offset="1" stop-color="#1d78b6"/></linearGradient><linearGradient id="linear-gradient-2" x1="640.91" y1="296" x2="705.38" y2="296" xlink:href="#linear-gradient"/><linearGradient id="linear-gradient-3" x1="296.94" y1="473.95" x2="139.45" y2="614.95" xlink:href="#linear-gradient"/><linearGradient id="linear-gradient-4" x1="593.54" y1="266.96" x2="795.54" y2="74.96" xlink:href="#linear-gradient"/><linearGradient id="linear-gradient-5" x1="434.21" y1="604.62" x2="434.18" y2="604.65" xlink:href="#linear-gradient"/><linearGradient id="linear-gradient-6" x1="434.12" y1="604.5" x2="434.1" y2="604.52" xlink:href="#linear-gradient"/><linearGradient id="linear-gradient-7" x1="404.01" y1="600.1" x2="141.36" y2="835.24" xlink:href="#linear-gradient"/></defs><title>Artboard 1 copia 10</title><g id="fondo"><rect class="cls-1" x="285.11" y="85.17" width="206.29" height="49.35" rx="22.99" ry="22.99" transform="translate(13.47 259.32) rotate(-37.54)"/><rect class="cls-1" x="723.57" y="179.24" width="138.58" height="49.35" rx="24.68" ry="24.68" transform="translate(39.93 525.33) rotate(-37.54)"/><rect class="cls-1" x="14.21" y="509.98" width="160.64" height="49.35" rx="24.68" ry="24.68" transform="translate(-306.2 168.31) rotate(-37.54)"/><path class="cls-1" d="M736.08,520.09a23,23,0,0,1,32.21,4.22l2.08,2.71a23,23,0,0,1-4.22,32.21L546,728.39a23,23,0,0,1-32.21-4.22l-2.07-2.71a23,23,0,0,1,4.21-32.21l45.81-35.73a14.87,14.87,0,0,0,2.74-20.85l-1.33-1.73a14.88,14.88,0,0,0-20.86-2.73L405.72,734.89a24.68,24.68,0,0,1-34.6-4.53h0a24.66,24.66,0,0,1,4.53-34.6l37.15-28.55h0a14.72,14.72,0,0,0,2.7-20.65l-1.31-1.71a14.72,14.72,0,0,0-20.65-2.7l-78.44,61.08a24.67,24.67,0,0,1-34.6-4.53h0a24.68,24.68,0,0,1,4.53-34.6l95.33-71.85a14.87,14.87,0,0,0,2.73-20.85l-1.33-1.73a14.87,14.87,0,0,0-20.85-2.73l-45.81,35a24.67,24.67,0,0,1-34.6-4.53h0a24.68,24.68,0,0,1,4.53-34.6l72.89-56.68a14.47,14.47,0,0,0,2.66-20.29l-1.29-1.68A14.47,14.47,0,0,0,339,481.48L174.39,608.74a24.68,24.68,0,0,1-34.61-4.53h0a24.68,24.68,0,0,1,4.53-34.6L294.6,454.21a14.73,14.73,0,0,0,2.71-20.65L296,431.84a14.74,14.74,0,0,0-17.13-4.71L229,465.51a24.67,24.67,0,0,1-34.6-4.53h0a24.66,24.66,0,0,1,4.53-34.6L345.06,313.79a14.49,14.49,0,0,0,2.66-20.32l-1.29-1.69a14.5,14.5,0,0,0-20.32-2.66l-1.86,1.75a7.34,7.34,0,0,1-.6.51L315.09,298a24.67,24.67,0,0,1-34.6-4.53h0a24.68,24.68,0,0,1,4.53-34.6L497.43,95.65A24.7,24.7,0,0,1,532,100.18h0a24.7,24.7,0,0,1-4.53,34.61l-49,36.86-.09.22a14.6,14.6,0,0,0-2.68,20.48l1.3,1.7a14.61,14.61,0,0,0,20.48,2.69L631.59,93.87a24.68,24.68,0,0,1,34.6,4.53h0a24.68,24.68,0,0,1-4.53,34.6l-81.23,62.43h0a14.7,14.7,0,0,0-.15,18.1l1.31,1.71a14.68,14.68,0,0,0,20.6,2.7L645,184.85a24.67,24.67,0,0,1,34.6,4.53h0a24.66,24.66,0,0,1-4.53,34.6L551.43,319.34a14.53,14.53,0,0,0-2.67,20.39l1.3,1.7a14.54,14.54,0,0,0,20.39,2.67l95.22-73.81a24.67,24.67,0,0,1,34.6,4.53h0a24.67,24.67,0,0,1-4.53,34.6l-71.8,56a14.41,14.41,0,0,0-2.65,20.2l1.29,1.67a14.4,14.4,0,0,0,20.19,2.65h0l20.94-16.8a24.67,24.67,0,0,1,34.6,4.53h0a24.67,24.67,0,0,1-4.53,34.6l-46.44,35.49a14.77,14.77,0,0,0-2.72,20.71l1.32,1.72a14.78,14.78,0,0,0,20.71,2.71l68.5-53.36A24.68,24.68,0,0,1,769.76,424h0a24.68,24.68,0,0,1-4.53,34.6l-98.68,74.92a14.8,14.8,0,0,0-2.72,20.76l1.32,1.72a14.81,14.81,0,0,0,20.76,2.72Z"/><path class="cls-1" d="M847.81,161.7h0a24.69,24.69,0,0,0-30.53-7.08c11,12,18.05,30.29,22.22,44.58l3.77-2.9A24.68,24.68,0,0,0,847.81,161.7Z"/><path class="cls-2" d="M813.2,157.17l-70.75,54.36a24.68,24.68,0,0,0-4.53,34.61h0a24.68,24.68,0,0,0,34.6,4.53l67-51.47c-4.17-14.29-11.25-32.61-22.22-44.58A25,25,0,0,0,813.2,157.17Z"/><path class="cls-3" d="M673.1,326.83l22.64-17.41a24.67,24.67,0,0,0,4.53-34.6h0a24.67,24.67,0,0,0-34.6-4.53l-24.76,19C647.74,301.78,658,314.6,673.1,326.83Z"/><path class="cls-4" d="M144.31,569.61a24.68,24.68,0,0,0-4.53,34.6h0a24.68,24.68,0,0,0,34.61,4.53L305.46,507.4c-20-7.33-41.47-12.14-63.88-12.48Z"/><path class="cls-5" d="M629.85,258.57,675.09,224a24.66,24.66,0,0,0,4.53-34.6h0a24.67,24.67,0,0,0-34.6-4.53l-8.77,6.77a84.83,84.83,0,0,0-7.75,27.88C627.75,228.56,626.71,242.46,629.85,258.57Z"/><path class="cls-6" d="M434.15,604.55l.11.16Z"/><path class="cls-7" d="M434.09,604.46l.06.09Z"/><path class="cls-8" d="M454,636a231.59,231.59,0,0,0-12.66-21.14l.27.4-.27-.4c-2.2-3.29-4.56-6.68-7.07-10.14h0l-.19-.26h0c-35.91-51.53-69-66.65-69-66.65h0c-8.58-5.53-17.74-11-27.39-16l-52.71,41a24.68,24.68,0,0,0-4.53,34.6h0a24.67,24.67,0,0,0,34.6,4.53l36.05-28s15.36-10.37,22.19-9.63,13.17,10.26,12.83,16.26-3.2,8.31-3.2,8.31l-5.3,4.07h0L285,664.09a24.67,24.67,0,1,0,30.07,39.13l78.44-61.08a14.72,14.72,0,0,1,20.65,2.7l1.31,1.71a14.72,14.72,0,0,1-2.7,20.65h0l-37.14,28.55a24.67,24.67,0,1,0,30.07,39.13l66.73-52.12C468.31,669.72,461.68,650.77,454,636Z"/></g><g id="colores"><path class="cls-9" d="M383.38,464.91s11.69,1.3,15.59,10.39c0,0-1.3-9.09,7.79-16.88,0,0-14.29-5.19-15.59-10.39C391.17,448,395.07,455.82,383.38,464.91Z"/><path class="cls-9" d="M654.38,110.42s10,1.11,13.4,8.93c0,0-1.12-7.82,6.7-14.52,0,0-12.28-4.46-13.4-8.93C661.08,95.9,664.43,102.6,654.38,110.42Z"/><path class="cls-9" d="M656.38,592.42s10,1.11,13.4,8.93c0,0-1.12-7.82,6.7-14.52,0,0-12.28-4.46-13.4-8.93C663.08,577.9,666.43,584.6,656.38,592.42Z"/><path class="cls-10" d="M505,350s0-22-10-34-32-28-56-6-17,47-11,57,23,16,29,16c0,0-21,24-14,40s24,18,38,8c0,0-3,0,0,6s29,68,29,68l14-3s-14-36-10-52,3-32,39-24,39,17,39,17l6-13-59-47s14-13,11-23-13-24-29-19c0,0-10,3-12,10Z"/><path class="cls-11" d="M460,380s23-22,40-28c0,0-6-19-11-24s-12-17-30-4-30,20-23,32S456,378,460,380Z"/><path class="cls-11" d="M443,419l7-3,10,14s-2.32,6.55-2.66,6.28S443,430,443,419Z"/><path class="cls-11" d="M540,343l-4,4,9,18,6-2S545,345,540,343Z"/><path class="cls-9" d="M467,413l23,4s6-24,0-24S481,386,467,413Z"/><path class="cls-9" d="M527,386l-1-18s-21,7-20,15S521,388,527,386Z"/><path class="cls-9" d="M507,506l20-3,5,15-22,8s-13,4-13,0,13-11,13-11Z"/><path class="cls-9" d="M591,444l14,10,19-25s3-6-6-2-9,6-9,6l-7-4Z"/></g><g id="sombras_y_luces" data-name="sombras y luces"><path class="cls-12" d="M424,334s12,58,71,20c0,0-33,20-38,29,0,0-22-1-29-18S424,334,424,334Z"/><polygon class="cls-12" points="453 391 468 413 470 407 457 385 453 391"/><path class="cls-12" d="M445,408s7,27,22,23,25-23,25-23-5,31-31,29S444,404,445,408Z"/><path class="cls-12" d="M459,392s35,2,39-5a24.06,24.06,0,0,0,3-14s-1,9-10,12-35,0-35,0Z"/><polygon class="cls-12" points="519 359 531 365 523 368 519 359"/><path class="cls-12" d="M534,391l-25,14-21.06,16.17L479,433l1.38,2.75L480,436l8,20,22,49,12.6-2.7c-13.73,2.22-15.91-20.18-26.6-46.3-9-22-5.35-27.11-5.35-27.11h0A16.4,16.4,0,0,0,492,426c2-6,44-30,44-30S539,395,534,391Z"/><path class="cls-12" d="M522.6,502.3a13,13,0,0,0,1.4-.3Z"/><path class="cls-12" d="M524,426s5-9,28-6,41,22,47,12l-6,9-30-12S540,419,524,426Z"/><path class="cls-12" d="M596,438s18,11,28-9l-20,25-12-10Z"/><path class="cls-12" d="M517,504s-9,18,9,16l-21,7s-8,2-7-2,12-10,12-10l-2-9Z"/><path class="cls-12" d="M513,375s-2,9,6,9,25-5,30-14c0,0-6,16-29,18s-12-11-12-11Z"/></g><g id="líneas"><path class="cls-13" d="M407.3,569c-1.21-1.24-5.21,1.67-4.23,2.67a266.59,266.59,0,0,1,65.47,112.18c.37,1.25,4.72-1,4.23-2.67A266.7,266.7,0,0,0,407.3,569Z"/><path class="cls-13" d="M339.88,520.54c-1.42-.71-5.21,2.36-3.76,3.08a261.25,261.25,0,0,1,44.37,28c1.17.92,5.18-2,3.75-3.09A260.89,260.89,0,0,0,339.88,520.54Z"/><path class="cls-13" d="M306.81,506a274.48,274.48,0,0,0-63.71-13c-1.44-.12-5,3.11-3,3.28a270.84,270.84,0,0,1,63,12.79C304.58,509.64,308.19,506.5,306.81,506Z"/><path class="cls-13" d="M842.93,199.26a111.49,111.49,0,0,0-22.68-45c-1.61-1.94-5.91.55-4.14,2.69A109,109,0,0,1,838.25,201C838.86,203.53,843.55,201.81,842.93,199.26Z"/><path class="cls-13" d="M671.72,328.39c2,1.47,5.74-1.66,3.33-3.4a103.71,103.71,0,0,1-30.76-35.45c-1.24-2.31-5.9-.51-4.68,1.77A108.15,108.15,0,0,0,671.72,328.39Z"/><path class="cls-13" d="M632.93,191.26a129.49,129.49,0,0,0-5,66.38c.51,2.74,5.34,1.75,4.88-.71a127.18,127.18,0,0,1,4.92-65.33C638.64,188.83,633.75,188.9,632.93,191.26Z"/><path class="cls-13" d="M622.83,424.29c-5.38-.13-10.74,3.32-14.45,7.25l-4.56-3.66c-.79-.64-3.72-1.44-4.53-.39-19.83-14.55-37.94-31.37-58.15-45.42,4.44-2.95,8.2-6.8,10.1-11.69,3.87-9.95-1.25-23.61-10.61-28.66-9.59-5.17-23.36-3-31.34,4.48a1.63,1.63,0,0,0-1.65.61,6.06,6.06,0,0,0-.73,0A42,42,0,0,0,503.34,324a64.63,64.63,0,0,0,31.09-24.31,44.39,44.39,0,0,0,6.34-37l.14,0,3.93-1.24,1.24,3.93a1.26,1.26,0,0,0,1.2.88,1.31,1.31,0,0,0,.38-.06,1.25,1.25,0,0,0,.81-1.57l-1.24-3.94,3.94-1.24a1.25,1.25,0,0,0-.76-2.39l-3.93,1.24-1.25-3.93a1.25,1.25,0,1,0-2.39.76l1.25,3.93-3.94,1.24-.06,0a52.49,52.49,0,0,0-22.59-29.28l0,0c.77-10-4.46-20.26-11.35-27.15-22.25-22.27-56.12-13.21-77.9,4.67-14.8,12.16-25.89,28-37.75,42.82C378,267.07,364.38,281,346.36,290.12c-2.48,1.26.5,5.24,2.77,4.08,23.3-11.86,38.81-31.47,54.61-51.63,15.69-20,33.91-41.24,60.12-46.44,12-2.39,24.64-.69,34.72,6.6,8.11,5.86,14.65,15.7,14.35,26-4.5-2-9.58-3.07-14.12-.94s-7.67,7.4-5.49,12.38c1.86,4.23,6.68,6.66,11.17,6.6,5.8-.09,10-4.55,11.78-9.77q.27-.79.48-1.59a46.69,46.69,0,0,1,18.4,23.49,40.92,40.92,0,0,1-3.82,36.58,60.87,60.87,0,0,1-30.28,24.33,39.17,39.17,0,0,0-3.26-4.54c-8.73-10.44-21.67-18.23-35.63-16.94-28.38,2.63-49.78,36.57-39.5,63.22,4.95,12.81,17.59,20.33,30.81,22.14a.85.85,0,0,0-.13.51,1.35,1.35,0,0,0-.31,1.65c.11.16.21.32.31.49-7,8.8-14.35,19.54-13.15,31.25,1.14,11.15,9.22,20.92,20.78,21.76a27.13,27.13,0,0,0,16.76-4.47c8.9,23.57,20.22,46.1,30,69.31a1.86,1.86,0,0,0,.46.6l-2.28.54c-.43.11-.93.31-.75.83.92,2.85,1.85,5.69,2.78,8.54a24.86,24.86,0,0,0-7.64,4c-1.64,1.3-5.59,4.41-5.64,6.82-.11,5.19,9.94,3,12.62,2.32,9-2.18,17.81-6,26.38-9.57a.51.51,0,0,0,.34-.69c-1.85-4.88-3.48-9.81-4.88-14.84-.2-.71-1.84-1.11-3.16-1.07a1.74,1.74,0,0,0-.07-.29c-4.43-12.55-8.87-25.38-9.67-38.78-.65-10.91.75-27.65,10.66-34.64,9.17-6.47,24.46-.68,34.21,2.28,10,3,20,6.93,28.7,12.9l-.58,1a.54.54,0,0,0-.05.37c0,.11,0,.24.21.39q6.3,4.63,12.14,9.82c.87.78,3.64,1.34,4.56.36,6.52-6.94,13.62-14,18.75-22C627.27,429.17,629.14,424.44,622.83,424.29ZM501.05,241.94c-4.47-1.31-4.86-5.79-1.54-8.7,3.73-3.27,8.74-2.18,12.9-.26C511.16,238.23,507.06,243.69,501.05,241.94Zm42.61,109a25.18,25.18,0,0,1,3.88,11.22c-.7.33-1.41.74-2.12,1.09l-3.94-7.34L538.33,350c-.2-.37-.94-1.3-.91-1.7a21.51,21.51,0,0,1,2-2.08A18.63,18.63,0,0,1,543.66,351Zm-8.27-7.12-2.66,3.26a1,1,0,0,0-.06,1.15L542,365.61a3.48,3.48,0,0,0,3.15,1.42,8.27,8.27,0,0,0,2.36-.63,18.34,18.34,0,0,1-5.69,11.51,30.87,30.87,0,0,1-4.3,3.36,4.28,4.28,0,0,0-.57.37,38.1,38.1,0,0,1-7,3.44L529,367c.81-.4,1.6-.81,2.42-1.19,3-1.44,0-2.75-2.06-1.76q-2.39,1.13-4.79,2.29a2.79,2.79,0,0,0-.51-1.17l-12.55-16.78C517.42,341.51,527.52,340.21,535.39,343.83Zm-3,44.12c-13.45,7.95-26.64,16.1-39,25.58,3.22-8.92,4.74-20.11-4.51-23.57-5.33-2-10,1.51-13,5.61-1.87,2.52-3.62,5.15-5.3,7.83q-5.56-8.16-10.88-16.5l19.82.06c3.54,0,7.09,0,10.63,0,2.09,0,4.58.08,6.44-1.1,4.06-2.59,5-10.29,6.44-14.44l6.36-18.92q5.84,7.8,11.66,15.59c-3.94,2-7.86,4-11.63,6.16-3.93,2.23-8.53,7.13-5.09,11.75,5.18,7,18.3,3.88,25,1.67.77-.25,1.55-.53,2.34-.83C531.87,387.23,532.12,387.59,532.37,388Zm-55.58,14.19c1.43-2.23,3.57-7,6.2-8.05a5.58,5.58,0,0,1,6.62,2.35,11.15,11.15,0,0,1,1.17,6,39.33,39.33,0,0,1-3,13.16c-5.7-1-11.34-2.25-16.93-3.76C472.76,408.56,474.74,405.33,476.79,402.14Zm25.66-49.45a.51.51,0,0,0,.18-.09l1.7-.85q-2.5,7.42-5,14.86l-3.1,9.21c-.91,2.72-1.49,6.38-4.21,7.68-2.51,1.2-6,.62-8.69.61l-8.7,0-15.6,0A180.14,180.14,0,0,1,502.45,352.69ZM459.12,378.2c-7.86-5.87-16.47-11.94-20.82-21-2.78-5.77-3.51-11.66,1.41-16.4,3.59-3.47,7.84-6.49,11.76-9.59a122.44,122.44,0,0,1,11.5-8.39c2.14-1.34,4.84-3.17,7.28-3.65,5-1,9,1.42,12.43,4.71,7.46,7.24,11.46,17.53,15.07,27.12A183.44,183.44,0,0,0,459.12,378.2Zm65-8.74q.47,8.52.91,17.05a30.6,30.6,0,0,1-8.39.72c-2.7-.16-6-.85-7.72-3.13-3.41-4.57,1.77-7.75,5.37-9.52C517.66,373,520.91,371.18,524.17,369.46Zm-98.45-15.22c-3.19-15.77,3.58-32.12,14.83-43.15,7-6.85,16.35-11.83,26.4-10.57,8.36,1,15.79,5.9,21.83,11.54,10.08,9.42,15.29,23,13.06,36.72-4.31-11.39-9.85-24.66-21.08-30.28-10.09-5.05-20.23,1.54-28.24,7.5-4.9,3.64-9.6,7.54-14.34,11.38s-8.11,7.44-6.92,13.84c2.44,13,15,21.31,24.74,28.66a2.3,2.3,0,0,0,1,.31l-1.4,1.35C440.82,379.4,428.73,369.09,425.72,354.24Zm19.77,64.88c.71-.46,1.45-.87,2.2-1.26,1.65,2.65,3.4,5.26,5.29,7.75a44.08,44.08,0,0,0,4,4.51c1.52,1.5,1,2.7.17,4C451.34,431.76,446.89,426.31,445.49,419.12ZM459.9,435a.42.42,0,0,0,.07-.13c.61-1.67,2.91-3.43,2.67-5.38-.22-1.76-3.26-3.82-4.36-5.18a91,91,0,0,1-6.77-9.74c-.35-.57-1.66.1-2,.28a48.42,48.42,0,0,0-4.3,2.37c-1.07-9.93,4.62-19.2,10.63-27q5.79,9,11.85,17.83c-1.84,3.09-3.64,6.21-5.46,9.28-1.47,2.48,3.36,3.25,4.58,1.19l2.08-3.5q8.56,2.33,17.3,3.91c-3.27,6.34-8.12,11.86-14.07,14.58A19.08,19.08,0,0,1,459.9,435Zm69.52,81.8c0,.15-.77.26-.86.36-1.79,1.91-7.45,3-9.83,3.9-4.3,1.64-8.63,3.32-13.06,4.56-1.08.3-5.75,1.67-6.07.55-.27-.92,2.64-3.8,3.19-4.37a22.28,22.28,0,0,1,9.39-5.63c.42-.13.93-.29.76-.83l-2.76-8.45c4.78-1.15,9.65-2,14.52-2.74.81,2.83,1.67,5.65,2.64,8.43C527.32,512.5,529.29,517.17,529.42,516.78Zm29.28-91.19c-10.58-2.9-24.32-7.17-34.38-.66-10.34,6.69-13,21.48-13.2,32.85C510.85,473.2,516,488,521,502.39c-3.15.49-6.29,1-9.42,1.65-10-23.62-21.54-46.56-30.42-70.64a1.91,1.91,0,0,0-.53-.69A36.74,36.74,0,0,0,489,423a.62.62,0,0,0,.56-.05,247.4,247.4,0,0,1,20.6-15.36c.65,1,1.29,2.09,1.93,3.13A6.26,6.26,0,0,0,514.7,413c.81.35,1.15.06.65-.75l-3.58-5.83c8-5.33,16.26-10.32,24.6-15.25.58-.34-1.14-2.17-1.26-2.28a6.9,6.9,0,0,1-1-1.54,5.55,5.55,0,0,0-1.05-1.08c1.17-.48,2.33-1,3.49-1.59,20.93,14.4,39.54,31.84,60.06,46.79-1.65,2.6-3.22,5.25-4.75,7.93C581.87,432.84,570.16,428.72,558.7,425.59Zm62.44,4.5c-2,3.77-4.84,7.07-7.58,10.29-3.36,3.95-6.84,7.8-10.37,11.6q-4.4-3.74-9-7.16c2.66-4.75,5.38-9.49,8.39-14l4.3,3.46c.84.68,3.72,1.43,4.56.36a23.42,23.42,0,0,1,6.23-5.76c.59-.36,4.65-2.61,5-2.22S621.3,429.77,621.14,430.09Z"/><path class="cls-13" d="M409.74,475.3c-2-8.43,2.62-17,10.39-19.14a1.84,1.84,0,0,0,.33-3.27,1.44,1.44,0,0,0-1.12-.16,13.62,13.62,0,0,1-10.61-1.47,15.89,15.89,0,0,1-7.23-10,1.8,1.8,0,0,0-.81-1.12,1.4,1.4,0,0,0-1.11-.15,1.75,1.75,0,0,0-1.13,2.15c2,8.42-2.62,17-10.39,19.14a1.75,1.75,0,0,0-1.13,2.15,1.79,1.79,0,0,0,.8,1.12,1.47,1.47,0,0,0,1.12.16,13.54,13.54,0,0,1,3.57-.49,14,14,0,0,1,7,1.95,15.92,15.92,0,0,1,7.23,10,1.77,1.77,0,0,0,.81,1.12,1.41,1.41,0,0,0,1.11.16A1.76,1.76,0,0,0,409.74,475.3Zm-2.92-9.46-.53,1.93-1.35-1.44a18,18,0,0,0-7.43-4.79l-1.7-.55,1.22-1.35a19.5,19.5,0,0,0,4.34-8l.52-1.92,1.36,1.44a18,18,0,0,0,7.43,4.78l1.69.56-1.21,1.34A19.56,19.56,0,0,0,406.82,465.84Z"/><path class="cls-13" d="M658.12,110.12a1.25,1.25,0,0,0,1,.13,11.72,11.72,0,0,1,9.12,1.27,13.68,13.68,0,0,1,6.22,8.58,1.54,1.54,0,0,0,.7,1,1.24,1.24,0,0,0,1,.13,1.52,1.52,0,0,0,1-1.84c-1.76-7.25,2.25-14.63,8.93-16.46a1.51,1.51,0,0,0,1-1.85,1.55,1.55,0,0,0-.69-1,1.25,1.25,0,0,0-1-.13,11.76,11.76,0,0,1-9.12-1.26A13.71,13.71,0,0,1,670,90.1a1.55,1.55,0,0,0-.69-1,1.25,1.25,0,0,0-1-.13,1.51,1.51,0,0,0-1,1.85c1.75,7.24-2.26,14.63-8.94,16.46a1.58,1.58,0,0,0-.28,2.81Zm8-4.24a16.86,16.86,0,0,0,3.73-6.9l.45-1.66,1.16,1.24a15.33,15.33,0,0,0,6.39,4.11l1.46.48-1,1.16a16.87,16.87,0,0,0-3.74,6.9l-.45,1.66-1.16-1.24a15.43,15.43,0,0,0-6.39-4.11l-1.46-.48Z"/><path class="cls-13" d="M688.26,582.07a1.25,1.25,0,0,0-1-.13,11.76,11.76,0,0,1-9.12-1.26A13.71,13.71,0,0,1,672,572.1a1.55,1.55,0,0,0-.69-1,1.25,1.25,0,0,0-1-.13,1.51,1.51,0,0,0-1,1.85c1.75,7.24-2.26,14.63-8.94,16.46a1.58,1.58,0,0,0-.28,2.81,1.25,1.25,0,0,0,1,.13,11.72,11.72,0,0,1,9.12,1.27,13.68,13.68,0,0,1,6.22,8.58,1.54,1.54,0,0,0,.7,1,1.24,1.24,0,0,0,1,.13,1.52,1.52,0,0,0,1-1.84c-1.76-7.25,2.25-14.63,8.93-16.46a1.51,1.51,0,0,0,1-1.85A1.55,1.55,0,0,0,688.26,582.07Zm-8,4.24a16.87,16.87,0,0,0-3.74,6.9l-.45,1.66-1.16-1.24a15.43,15.43,0,0,0-6.39-4.11l-1.46-.48,1-1.16a16.86,16.86,0,0,0,3.73-6.9l.45-1.66,1.16,1.24a15.33,15.33,0,0,0,6.39,4.11l1.46.48Z"/><path class="cls-13" d="M335.32,149.68a3.63,3.63,0,1,0,3.63,3.63A3.64,3.64,0,0,0,335.32,149.68Zm0,5.3a1.67,1.67,0,1,1,1.67-1.67A1.66,1.66,0,0,1,335.32,155Z"/><path class="cls-13" d="M443,212.31a3.63,3.63,0,1,0-3.63,3.63A3.63,3.63,0,0,0,443,212.31Zm-5.29,0a1.67,1.67,0,1,1,1.66,1.67A1.66,1.66,0,0,1,437.66,212.31Z"/><path class="cls-13" d="M614.56,128.37a3.63,3.63,0,1,0-3.63-3.63A3.64,3.64,0,0,0,614.56,128.37Zm0-5.3a1.67,1.67,0,1,1-1.67,1.67A1.67,1.67,0,0,1,614.56,123.07Z"/><path class="cls-13" d="M762.62,435.41a3.63,3.63,0,1,0,3.63,3.63A3.64,3.64,0,0,0,762.62,435.41Zm0,5.3a1.67,1.67,0,1,1,1.66-1.67A1.67,1.67,0,0,1,762.62,440.71Z"/><path class="cls-13" d="M391.93,343.08a3.63,3.63,0,1,0-3.63,3.63A3.63,3.63,0,0,0,391.93,343.08Zm-5.3,0a1.67,1.67,0,1,1,1.67,1.66A1.67,1.67,0,0,1,386.63,343.08Z"/><path class="cls-13" d="M755.3,535.45a3.63,3.63,0,1,0,3.63,3.63A3.63,3.63,0,0,0,755.3,535.45Zm0,5.29a1.67,1.67,0,1,1,1.67-1.66A1.66,1.66,0,0,1,755.3,540.74Z"/><path class="cls-13" d="M84,541.26a3.63,3.63,0,1,0,3.63,3.63A3.64,3.64,0,0,0,84,541.26Zm0,5.3a1.67,1.67,0,1,1,1.67-1.67A1.66,1.66,0,0,1,84,546.56Z"/><path class="cls-13" d="M741.48,436.44h-3.34V433.1a1,1,0,0,0-2,0v3.34h-3.33a1,1,0,0,0,0,2h3.33v3.33a1,1,0,1,0,2,0V438.4h3.34a1,1,0,1,0,0-2Z"/><path class="cls-13" d="M472.25,571a3.63,3.63,0,1,0-3.63,3.63A3.64,3.64,0,0,0,472.25,571Zm-5.3,0a1.67,1.67,0,1,1,1.67,1.67A1.67,1.67,0,0,1,467,571Z"/><path class="cls-13" d="M585.62,632.41a3.63,3.63,0,1,0,3.63,3.63A3.64,3.64,0,0,0,585.62,632.41Zm0,5.3a1.67,1.67,0,1,1,1.66-1.67A1.67,1.67,0,0,1,585.62,637.71Z"/><path class="cls-13" d="M443.16,564.12a1,1,0,0,0-1,1v3.34h-3.33a1,1,0,0,0,0,2h3.33v3.33a1,1,0,1,0,2,0V570.4h3.34a1,1,0,0,0,0-2h-3.34V565.1A1,1,0,0,0,443.16,564.12Z"/><path class="cls-13" d="M315.48,397.47h-3.33v-3.33a1,1,0,1,0-2,0v3.33h-3.34a1,1,0,0,0,0,2h3.34v3.33a1,1,0,1,0,2,0v-3.33h3.33a1,1,0,1,0,0-2Z"/><path class="cls-13" d="M129.11,498.13h-3.33v-3.34a1,1,0,0,0-2,0v3.34h-3.33a1,1,0,0,0,0,2h3.33v3.34a1,1,0,0,0,2,0v-3.34h3.33a1,1,0,0,0,0-2Z"/><path class="cls-13" d="M328,257.12l-3.93,1.24-1.24-3.93a1.25,1.25,0,0,0-2.39.75l1.24,3.93-3.93,1.25a1.25,1.25,0,0,0,.37,2.45,1.21,1.21,0,0,0,.38-.06l3.94-1.24,1.24,3.93a1.25,1.25,0,0,0,1.19.87,1.2,1.2,0,0,0,.38-.05,1.26,1.26,0,0,0,.82-1.58l-1.24-3.93,3.93-1.24a1.25,1.25,0,1,0-.76-2.39Z"/><path class="cls-13" d="M574.41,682.11l-3.93,1.24-1.25-3.93a1.25,1.25,0,1,0-2.39.76l1.25,3.93-3.94,1.24a1.25,1.25,0,0,0,.38,2.45,1.31,1.31,0,0,0,.38-.06l3.93-1.24,1.24,3.93a1.26,1.26,0,0,0,1.2.88,1.31,1.31,0,0,0,.38-.06,1.25,1.25,0,0,0,.81-1.57l-1.24-3.94,3.94-1.24a1.25,1.25,0,0,0-.76-2.39Z"/><path class="cls-13" d="M450.68,68.49a1.31,1.31,0,0,0,.38-.06L455,67.18l1.24,3.94a1.26,1.26,0,0,0,1.2.87,1.28,1.28,0,0,0,.38,0,1.26,1.26,0,0,0,.81-1.58l-1.24-3.93,3.93-1.24a1.26,1.26,0,0,0,.82-1.58,1.25,1.25,0,0,0-1.57-.81L456.63,64l-1.25-3.93a1.25,1.25,0,0,0-2.39.75l1.24,3.93L450.3,66a1.25,1.25,0,0,0-.82,1.57A1.27,1.27,0,0,0,450.68,68.49Z"/><path class="cls-13" d="M676.1,390.41a1.26,1.26,0,0,0-1.57-.82l-3.94,1.25-1.24-3.94a1.25,1.25,0,0,0-2.39.76l1.24,3.93-3.93,1.25a1.25,1.25,0,0,0-.82,1.57,1.26,1.26,0,0,0,1.2.88,1.19,1.19,0,0,0,.37-.06L669,394l1.24,3.94a1.25,1.25,0,0,0,1.2.87,1.19,1.19,0,0,0,.37-.06,1.25,1.25,0,0,0,.82-1.57l-1.24-3.93,3.93-1.24A1.26,1.26,0,0,0,676.1,390.41Z"/><path class="cls-13" d="M582.2,549.92a1.25,1.25,0,0,0,1.2.87,1.19,1.19,0,0,0,.37-.06,1.25,1.25,0,0,0,.82-1.57l-1.24-3.93,3.93-1.24a1.26,1.26,0,0,0-.75-2.4l-3.94,1.25-1.24-3.94a1.25,1.25,0,0,0-2.39.76l1.24,3.93-3.93,1.25a1.25,1.25,0,0,0-.82,1.57,1.26,1.26,0,0,0,1.2.88,1.19,1.19,0,0,0,.37-.06L581,546Z"/></g></svg>