<svg xmlns="http://www.w3.org/2000/svg" xmlns:xlink="http://www.w3.org/1999/xlink" viewBox="0 0 882 768"><defs><style>.cls-1{isolation:isolate;}.cls-2{fill:#67aaf9;}.cls-3,.cls-9{fill:#4191e0;}.cls-4{fill:#ebf0f8;}.cls-5{fill:#c4e0f9;}.cls-6{fill:#494949;}.cls-7{fill:#fff;}.cls-8{fill:url(#linear-gradient);}.cls-9{opacity:0.3;mix-blend-mode:multiply;}</style><linearGradient id="linear-gradient" x1="516.2" y1="277.83" x2="426.78" y2="309.99" gradientUnits="userSpaceOnUse"><stop offset="0" stop-color="#0fa"/><stop offset="0.13" stop-color="#07dfad"/><stop offset="0.31" stop-color="#0fbab0"/><stop offset="0.48" stop-color="#159db3"/><stop offset="0.66" stop-color="#1989b5"/><stop offset="0.83" stop-color="#1c7cb6"/><stop offset="1" stop-color="#1d78b6"/></linearGradient></defs><title>Artboard 1 copia 5</title><g class="cls-1"><g id="líneas"><rect class="cls-2" x="62.85" y="357.46" width="160.64" height="49.35" rx="24.68" ry="24.68" transform="matrix(0.79, -0.61, 0.61, 0.79, -203.2, 166.37)"/><path class="cls-3" d="M79.47,431.08a24.67,24.67,0,0,0,34.6,4.53l88.25-67.81a24.52,24.52,0,0,0,7.17-8.82H132.8L84,396.48A24.67,24.67,0,0,0,79.47,431.08Z"/><path class="cls-4" d="M708.72,530.86a23,23,0,0,1,32.21,4.22l2.08,2.71A23,23,0,0,1,738.79,570L518.66,739.16a23,23,0,0,1-32.21-4.22l-2.08-2.71A23,23,0,0,1,488.59,700l45.81-35.73a14.87,14.87,0,0,0,2.73-20.85l-1.33-1.73A14.86,14.86,0,0,0,515,639L378.37,745.66a24.69,24.69,0,0,1-34.61-4.53h0a24.68,24.68,0,0,1,4.53-34.6L385.44,678h0a14.73,14.73,0,0,0,2.7-20.65l-1.32-1.71a14.72,14.72,0,0,0-20.65-2.7L287.74,714a24.67,24.67,0,0,1-34.6-4.54h0a24.67,24.67,0,0,1,4.53-34.6L369,589a14.86,14.86,0,0,0,2.73-20.85l-1.33-1.73a14.87,14.87,0,0,0-20.85-2.73l-61.8,49a24.66,24.66,0,0,1-34.6-4.53h0a24.66,24.66,0,0,1,4.53-34.6l72.89-56.68a14.47,14.47,0,0,0,2.65-20.29l-1.29-1.68a14.47,14.47,0,0,0-20.29-2.66L147,619.51a24.66,24.66,0,0,1-34.6-4.53h0a24.67,24.67,0,0,1,4.53-34.6L267.25,465a14.72,14.72,0,0,0,2.7-20.65l-1.32-1.72a14.74,14.74,0,0,0-17.13-4.71l-49.9,38.38A24.69,24.69,0,0,1,167,471.75h0a24.68,24.68,0,0,1,4.53-34.6L317.71,324.56a14.5,14.5,0,0,0,2.66-20.32l-1.3-1.69a14.5,14.5,0,0,0-20.32-2.66l-1.85,1.75q-.3.27-.6.51l-8.56,6.63a24.66,24.66,0,0,1-34.6-4.53h0a24.66,24.66,0,0,1,4.53-34.6L470.08,106.42a24.67,24.67,0,0,1,34.6,4.54h0a24.67,24.67,0,0,1-4.53,34.6l-49,36.87-.09.21a14.62,14.62,0,0,0-2.68,20.48l1.31,1.7a14.61,14.61,0,0,0,20.48,2.69L604.23,104.64a24.68,24.68,0,0,1,34.6,4.53h0a24.66,24.66,0,0,1-4.53,34.6L553.07,206.2h0a14.7,14.7,0,0,0-.15,18.1l1.32,1.71a14.68,14.68,0,0,0,20.6,2.7l42.83-33.08a24.68,24.68,0,0,1,34.6,4.53h0a24.68,24.68,0,0,1-4.53,34.6L523.07,329.11a14.54,14.54,0,0,0-2.67,20.39l1.3,1.7a14.55,14.55,0,0,0,20.4,2.67l96.21-72.81a24.68,24.68,0,0,1,34.61,4.53h0a24.67,24.67,0,0,1-4.54,34.6l-72.8,56a14.4,14.4,0,0,0-2.64,20.19l1.29,1.67a14.4,14.4,0,0,0,20.19,2.65h0l21.93-16.8A24.68,24.68,0,0,1,671,388.4h0a24.67,24.67,0,0,1-4.54,34.6L620,458.49a14.77,14.77,0,0,0-2.71,20.71l1.32,1.72a14.78,14.78,0,0,0,20.71,2.71l68.5-53.36a24.67,24.67,0,0,1,34.6,4.53h0a24.66,24.66,0,0,1-4.53,34.6l-98.68,74.92a14.81,14.81,0,0,0-2.72,20.76l1.33,1.72a14.81,14.81,0,0,0,20.76,2.72Z"/><path class="cls-2" d="M397.85,161.93,257.67,269.65a24.66,24.66,0,0,0-4.53,34.6h0a24.66,24.66,0,0,0,34.6,4.53l8.56-6.63q.3-.24.6-.51l1.85-1.75a14.5,14.5,0,0,1,20.32,2.66l1.3,1.69a14.5,14.5,0,0,1-2.66,20.32l-50.47,38.87c31.43-1.64,93.23-6.21,137.89-17.94C405.61,286.54,400.3,202.05,397.85,161.93Z"/><rect class="cls-4" x="257.75" y="95.94" width="206.29" height="49.35" rx="22.99" ry="22.99" transform="translate(1.24 244.88) rotate(-37.54)"/><rect class="cls-4" x="696.22" y="190.01" width="138.58" height="49.35" rx="24.68" ry="24.68" transform="translate(27.7 510.89) rotate(-37.54)"/><path class="cls-3" d="M367.3,587.49l-18,16.28c22.09-3.06,34-5,45.07-7.42-.34-5.72-.65-10.77-.9-14.94h0l-.83-13.36.79-4.28-3-2c-2.57-1.64-6.54-5.69-16.65-20l17.18-13.36-.28-6.64c-4-70,11-86,14-159,.27-6.57.42-13.72.48-21.28-44.66,11.73-99.4,14.86-130.83,16.5L171.52,433.15a24.68,24.68,0,0,0-4.53,34.6h0a24.69,24.69,0,0,0,34.61,4.53l49.9-38.38a14.76,14.76,0,0,1,17.14,4.71l1.31,1.72a14.72,14.72,0,0,1-2.7,20.65L117,576.38a24.67,24.67,0,0,0-4.53,34.6h0a24.66,24.66,0,0,0,34.6,4.53l164.6-127.26a14.47,14.47,0,0,1,20.29,2.66l1.29,1.68a14.47,14.47,0,0,1-2.65,20.29l-72.89,56.68a24.66,24.66,0,0,0-4.53,34.6h0a24.66,24.66,0,0,0,8.25,6.9c7.75.1,15.52,0,23.22-.32a24.73,24.73,0,0,0,3.13-2l58.87-45.8h0l2.46-1.91c3.47-2.43,10-6,15.58-3.21a17.58,17.58,0,0,1,10,13A15.56,15.56,0,0,1,370.4,585"/><path class="cls-2" d="M261.39,611.1a24.71,24.71,0,0,0,23.22-.32C276.91,611.08,269.14,611.2,261.39,611.1Z"/><path class="cls-2" d="M349.27,603.77l-91.6,71.09A24.68,24.68,0,0,0,287.74,714l78.43-61.09a14.72,14.72,0,0,1,20.65,2.7l1.32,1.71a14.73,14.73,0,0,1-2.7,20.65h0l-37.15,28.55a24.68,24.68,0,0,0-4.53,34.6h0a24.69,24.69,0,0,0,34.61,4.53l21.57-16.85c-.2-32.56-3.51-97.13-5.6-132.46C383.28,598.73,371.36,600.71,349.27,603.77Z"/><path class="cls-2" d="M282.49,149.79A23,23,0,0,0,278.27,182l2.05,2.67a23,23,0,0,0,32.24,4.22l84.09-64.62-8.79-55.48Z"/><path class="cls-2" d="M613.44,193.34s11.47,1.27,15.29,10.19c0,0-1.27-8.92,7.64-16.56,0,0-14-5.1-15.28-10.19C621.09,176.78,624.91,184.42,613.44,193.34Z"/><path class="cls-2" d="M626.61,603.58s11.47,1.27,15.29,10.19c0,0-1.28-8.92,7.64-16.56,0,0-14-5.1-15.29-10.19C634.25,587,638.08,594.66,626.61,603.58Z"/><path class="cls-2" d="M407.83,395.69c.19-2.34,2-25,.54-29.29,0,0-11,5.61-22,21.61s-33,43-29,99a114.62,114.62,0,0,0,9.45,38.23,0,0,0,0,1,0,0s11.58,29.38,34.2,42.42l.68.4.35.2h0c3.46,1.91,6.11,2.53,7.3,1.73l-5.2-1.57,1.57-27.5c-1.79-4.23-9.31-11.43-11.76-15.58a116.17,116.17,0,0,1-10.11-54.85C386.09,426.68,398.32,406,407.83,395.69Z"/><path class="cls-5" d="M407.78,398h0c-9.52,10.28-25.41,32.59-27.63,76.42-.82,16.07,4.66,24.25,8.33,36,3.21,13.27,8.13,21.54,16.65,31.33,0,0,12.49-13,15-55.5h0c.19-1.82.37-3.65.52-5.5C423.65,441.77,407.78,398,407.78,398Z"/><path class="cls-6" d="M616.21,194.1a1.42,1.42,0,0,0,1.12.15,13.47,13.47,0,0,1,3.57-.48,13.81,13.81,0,0,1,7,1.95,15.94,15.94,0,0,1,7.24,10,1.76,1.76,0,0,0,.8,1.12,1.48,1.48,0,0,0,1.12.16,1.77,1.77,0,0,0,1.13-2.15c-2.05-8.43,2.62-17,10.39-19.15a1.76,1.76,0,0,0,1.13-2.15,1.83,1.83,0,0,0-.81-1.12,1.4,1.4,0,0,0-1.11-.15,13.7,13.7,0,0,1-10.61-1.47,16,16,0,0,1-7.24-10,1.76,1.76,0,0,0-.8-1.12,1.43,1.43,0,0,0-1.12-.16,1.75,1.75,0,0,0-1.12,2.15c2,8.43-2.63,17-10.4,19.14A1.77,1.77,0,0,0,615.4,193,1.82,1.82,0,0,0,616.21,194.1Zm9.3-4.93a19.8,19.8,0,0,0,4.34-8l.52-1.93,1.35,1.44a18,18,0,0,0,7.43,4.79l1.7.56-1.21,1.34a19.64,19.64,0,0,0-4.35,8l-.52,1.92-1.35-1.43a17.94,17.94,0,0,0-7.43-4.79l-1.7-.56Z"/><path class="cls-6" d="M660.9,592.84a1.22,1.22,0,0,0-.95-.13,11.75,11.75,0,0,1-9.12-1.26,13.69,13.69,0,0,1-6.23-8.58,1.55,1.55,0,0,0-.69-1,1.25,1.25,0,0,0-1-.13,1.52,1.52,0,0,0-1,1.85c1.76,7.24-2.25,14.63-8.93,16.46a1.51,1.51,0,0,0-1,1.85,1.53,1.53,0,0,0,.69,1,1.25,1.25,0,0,0,1,.13,11.72,11.72,0,0,1,9.12,1.27,13.68,13.68,0,0,1,6.22,8.58,1.53,1.53,0,0,0,.69,1,1.25,1.25,0,0,0,1,.14,1.52,1.52,0,0,0,1-1.85c-1.75-7.25,2.25-14.63,8.94-16.46a1.52,1.52,0,0,0,1-1.85A1.55,1.55,0,0,0,660.9,592.84Zm-8,4.24a16.86,16.86,0,0,0-3.73,6.9l-.45,1.66-1.16-1.24a15.56,15.56,0,0,0-6.39-4.11l-1.46-.48,1-1.16a16.87,16.87,0,0,0,3.74-6.9l.44-1.66,1.17,1.24a15.45,15.45,0,0,0,6.39,4.12l1.46.48Z"/><path class="cls-6" d="M464,146.71a3.63,3.63,0,1,0-3.63-3.63A3.64,3.64,0,0,0,464,146.71Zm0-5.3a1.67,1.67,0,1,1-1.67,1.67A1.67,1.67,0,0,1,464,141.41Z"/><path class="cls-6" d="M587.2,139.14a3.63,3.63,0,1,0-3.63-3.63A3.64,3.64,0,0,0,587.2,139.14Zm0-5.3a1.67,1.67,0,1,1-1.66,1.67A1.67,1.67,0,0,1,587.2,133.84Z"/><path class="cls-6" d="M735.26,446.18a3.63,3.63,0,1,0,3.63,3.63A3.64,3.64,0,0,0,735.26,446.18Zm0,5.3a1.67,1.67,0,1,1,1.67-1.67A1.67,1.67,0,0,1,735.26,451.48Z"/><path class="cls-6" d="M734.94,241.48a3.63,3.63,0,1,0-3.62-3.63A3.63,3.63,0,0,0,734.94,241.48Zm0-5.3a1.67,1.67,0,1,1-1.66,1.67A1.67,1.67,0,0,1,734.94,236.18Z"/><path class="cls-6" d="M432.94,410.22a3.63,3.63,0,1,0,3.63,3.63A3.62,3.62,0,0,0,432.94,410.22Zm0,5.29a1.67,1.67,0,1,1,1.67-1.66A1.66,1.66,0,0,1,432.94,415.51Z"/><path class="cls-6" d="M643.29,313.66a3.63,3.63,0,1,0-3.63,3.63A3.64,3.64,0,0,0,643.29,313.66Zm-5.3,0a1.67,1.67,0,1,1,1.67,1.67A1.67,1.67,0,0,1,638,313.66Z"/><path class="cls-6" d="M558.26,643.18a3.63,3.63,0,1,0,3.63,3.63A3.64,3.64,0,0,0,558.26,643.18Zm0,5.3a1.67,1.67,0,1,1,1.67-1.67A1.67,1.67,0,0,1,558.26,648.48Z"/><path class="cls-6" d="M420.12,579.21h-3.33v-3.34a1,1,0,0,0-2,0v3.34h-3.34a1,1,0,0,0,0,2h3.34v3.33a1,1,0,1,0,2,0v-3.33h3.33a1,1,0,1,0,0-2Z"/><path class="cls-6" d="M639.44,415.18a1,1,0,0,0,1-1v-3.34h3.34a1,1,0,0,0,0-2h-3.34v-3.34a1,1,0,0,0-2,0v3.34h-3.33a1,1,0,1,0,0,2h3.33v3.34A1,1,0,0,0,639.44,415.18Z"/><path class="cls-6" d="M807.25,190.7a1.25,1.25,0,0,0-1.57-.81l-3.93,1.24-1.25-3.93a1.25,1.25,0,0,0-2.39.75l1.25,3.94-3.94,1.24a1.25,1.25,0,1,0,.76,2.39l3.93-1.24,1.24,3.93a1.27,1.27,0,0,0,1.2.88,1.31,1.31,0,0,0,.38-.06,1.27,1.27,0,0,0,.82-1.58l-1.25-3.93,3.94-1.24A1.26,1.26,0,0,0,807.25,190.7Z"/><path class="cls-6" d="M547.05,692.88l-3.93,1.24-1.24-3.93a1.25,1.25,0,1,0-2.39.76l1.24,3.93-3.93,1.24a1.25,1.25,0,0,0,.37,2.45,1.21,1.21,0,0,0,.38-.06l3.94-1.24,1.24,3.93a1.25,1.25,0,0,0,1.19.88,1.21,1.21,0,0,0,.38-.06,1.25,1.25,0,0,0,.82-1.57l-1.24-3.93,3.93-1.25a1.25,1.25,0,1,0-.76-2.39Z"/><path class="cls-6" d="M513.17,273.57a1.21,1.21,0,0,0,.38-.06l3.94-1.24,1.24,3.93a1.25,1.25,0,0,0,1.19.88,1.21,1.21,0,0,0,.38-.06,1.25,1.25,0,0,0,.82-1.57l-1.24-3.93,3.93-1.25a1.25,1.25,0,1,0-.76-2.39l-3.93,1.24-1.24-3.93a1.25,1.25,0,1,0-2.39.76l1.24,3.93-3.93,1.24a1.25,1.25,0,0,0,.37,2.45Z"/><path class="cls-6" d="M423.32,79.26a1.21,1.21,0,0,0,.38-.06L427.63,78l1.25,3.93a1.25,1.25,0,0,0,1.19.87,1.2,1.2,0,0,0,.38-.05,1.26,1.26,0,0,0,.82-1.58L430,77.2,434,76a1.25,1.25,0,1,0-.76-2.39l-3.93,1.24L428,70.88a1.26,1.26,0,0,0-1.58-.82,1.25,1.25,0,0,0-.81,1.57l1.24,3.93L423,76.81a1.25,1.25,0,0,0,.37,2.45Z"/><path class="cls-7" d="M582.15,367s18.37,14.7,35.52,11,26.94-19.59,26.94-19.59l4.9-13.48s0-12.24-2.45-18.37-11-15.92-11-15.92-4.9-8.58-14.7-9.8-15.92,0-15.92,0-12.44.61-20.92,10.1-10.93,21.75-10.93,21.75l-3.67,6.12-19.6-14.7-18.37-17.15-12.25,4.9,11,14.7,9.8,11-33.07-2.45L478,340l-42.87,15.93v11l33.08,6.13,34.29,2.44,1.23,12.25,24.49-2.45V378l3.68-2.45,4.9-1.22,7.35-2.45,4.9,1.23,3.67,7.34Z"/><path class="cls-5" d="M573.57,326.54l7.35,9.8s4.9,8.57,9.8,7.35S614,330.22,614,330.22v-7.35l-2.45-12.25-6.12-9.8S584.6,302,573.57,326.54Z"/><path class="cls-2" d="M411.89,358.39l1.23-14.7,7.35,8.57,4.9,2.45h7.34L433.94,367l-6.12,2.45h-11S416.79,354.71,411.89,358.39Z"/><path class="cls-2" d="M501.31,375.53c0,1.23,3.67,11,3.67,11L496.41,389l-9.8-2.45-1.23-4.9,6.13-3.68,9.8-2.45"/><polygon class="cls-2" points="518.45 311.84 530.7 306.94 519.68 295.92 514.78 295.92 513.55 302.04 518.45 311.84"/><polygon class="cls-5" points="529.48 386.56 551.52 380.43 549.08 371.86 546.63 371.86 542.95 371.86 531.61 375.74 528.25 377.99 529.48 386.56"/><polygon class="cls-5" points="413.12 266.52 534.38 295.92 536.83 295.92 540.5 289.8 449.86 267.75 422.92 260.4 422.92 233.45 420.47 223.65 414.34 219.98 411.89 219.98 413.12 266.52"/><path class="cls-8" d="M432.71,275.1s27,38,80.84,25.72v6.12s-26.94,20.83-47.76,15.93-30.63-14.7-35.53-23.28-2.44-20.82-2.44-20.82Z"/><path class="cls-3" d="M411.89,355.94v-14.7l8.58,11s4.9,23.27,12.24,3.68c0,0,39.2,13.47,112.69,6.12L495.18,378l-7.35-2.45L435.16,367l-4.9,2.45H416.79l-1.22-12.25Z"/><path class="cls-3" d="M495.18,379.21s1.23,7.35,33.07,1.22,42.87-14.69,38-44.09l4.9,2.45,3.68,14.7L583.37,367l-33.07,14.7-31.85,4.9-25.72,1.22-7.35-2.45v-3.67Z"/><path class="cls-3" d="M517.23,295.92s11,26.95,41.64,46.54l-20.82-7.35L520.9,316.74l-8.57-15.92,1.22-4.9S516,294.69,517.23,295.92Z"/><path class="cls-9" d="M432.71,276.32s2.45,39.2,49,46.55c0,0-30.62,4.9-46.55-14.7S432.71,276.32,432.71,276.32Z"/><polygon class="cls-9" points="506.21 302.04 509.88 309.39 513.55 306.94 512.33 300.82 506.21 302.04"/><path class="cls-3" d="M415.57,220s1.22,31.84,1.22,36.74-4.9,7.35,17.15,12.25,102.89,25.72,102.89,25.72l-2.45,1.23L416.79,269l-4.9-2.45L410.67,220Z"/><path class="cls-3" d="M587.05,308.17s-28.18,44.09,19.59,71c0,0-31.84-8.57-34.29-31.85S587.05,308.17,587.05,308.17Z"/><path class="cls-6" d="M604.88,302.06c3.82,4.72,5.79,12.74,7.12,18.39.49,2.08,1.61,5.48.46,7.47s-4.72,3.37-6.58,4.4c-5.19,2.87-11,6.41-16.69,8.12-3.05.92-3.93-1-6-3.47a42.7,42.7,0,0,1-6.42-9.45,2.85,2.85,0,0,0-.77-.89C580.16,313.64,591.21,303.75,604.88,302.06Zm-65.8,15.55c9.27,7.87,19,15.12,28.37,22.89a1.74,1.74,0,0,0,1.21.28,39.18,39.18,0,0,0,6.43,21.38,37.75,37.75,0,0,0,2.38,3.19,115.38,115.38,0,0,1-24.77,11.28c-.29-2.51-.82-5.24-2.58-6.05-2.1-1-5.58.32-7.62.77a76.41,76.41,0,0,0-13.4,4.15c-3.61,1.56-4.43,3.56-3.51,7.37-6.54,1-13.14,1.67-19.73,2.15h0l0,0c-1.22-2.41-1.46-5-2.1-7.57l1.85-.58.16,0a38.93,38.93,0,0,0,14.84-4.57,1.6,1.6,0,0,0,.25-.18l28.71-9s-2.54-5.22-3.76-4.84l-42.34,13.33c-8.76,1-18.28-.1-26.15-.8-13.75-1.24-27.36-3.59-41-5.68,0-.14,0-.28-.05-.42-.24-2.32-.1-5.46-.7-7.91,38.4-17.07,81.47-27.12,121.81-10.3,2.8,1.17,7.16-3,3.86-4.38a118.52,118.52,0,0,0-14.27-4.89c-7.32-4.27-13.45-10.7-18.81-17.14-1.86-2.23-3.64-4.55-5.31-6.93,2.57-1.05,5.15-2.05,7.71-3.11C533.28,312.58,536.15,315.13,539.08,317.61Zm-9,64.53c-.52-2.24-.62-4.5,1.65-5.85s5.8-2.19,8.47-3c2.43-.7,5.63-2.16,7.06.48a12.45,12.45,0,0,1,.94,4.2A167.48,167.48,0,0,1,530.09,382.14Zm-42.83,1.42c.5-2,6.34-3,7.89-3.44l4.69-1.48a46,46,0,0,0,1.78,6.66c-1.69.1-3.37.19-5.05.31-1.36.09-2.71.23-4.07.35C491.4,386.06,486.62,386.1,487.26,383.56Zm23-81a22.41,22.41,0,0,0,1.12,3.18c-15.67,11.51-35.05,18.21-54.33,12.43-16.42-4.92-29.35-19.52-27.35-36.34a44.4,44.4,0,0,0,14.37,20.78c1.77,1.43,5.26-1.52,3.31-3.1a41.36,41.36,0,0,1-13.54-19.66C453.55,300.93,481.93,310.25,510.27,302.52Zm16.67,3.91c-2.24.9-4.48,1.78-6.71,2.7-.39-.63-.79-1.26-1.16-1.9-.89-1.55-5.2-10-2.93-11.39-.27.17,4.25,3.67,5,4.4,1.89,1.88,3.61,3.94,5.47,5.86ZM512.8,294.3a5.78,5.78,0,0,0-2.92,5.09c-27.24,7.17-54.69-3.17-73.06-24,25.54,6.71,51.26,12.75,77.06,18.35A11,11,0,0,0,512.8,294.3Zm89.05,237.92c-1.17-9.61-3.58-19.23-5.34-28.14-2.31-11.65-4.71-23.28-6.91-34.95-1.16-6.17-2.15-13-1.4-19.45,5,5.3,12.23,7.76,21.13,4.49,5.67-2.09,11.7-6.48,11.84-13.1.16-7.54-7.15-12.34-14-12.83-7.12-.52-14.3,3.09-18.78,8.52-.24.29-.45.6-.68.9-6.83-20.05.79-44,16.18-57.88a42.32,42.32,0,0,0,15.65-1c18.74-4.78,32.59-21.13,33-40.59-.38-17.85-11.83-33.57-29.21-38.44-16.11-4.51-34.21,1.58-45,14.23a40.91,40.91,0,0,0-9.3,20.87c-10.4-8.43-21.19-16.41-31-25.49-3.32-3.05-7.83-9.39-12.91-13.23,3,.63,5.95,1.27,8.93,1.89a4.28,4.28,0,0,0,2.58-1,3.89,3.89,0,0,0,2-1.36l3.9-7.86a.22.22,0,0,0-.17-.32c-24.64-5.15-49.07-11.33-73.46-17.53q-15.87-4-31.7-8.17l-9.2-2.42c-4.12-1.08-3.25-1-3-6.43.34-9,4.91-39.57-11.69-34.81l.39,2.33a9.27,9.27,0,0,1,4.84,3.73c2.13,3.16,2.42,7.22,2.62,10.93.45,8.68-1.18,17.31-.85,26l.17.11q25.73,6.84,51.55,13.32c13.88,3.5,27.77,6.94,41.71,10.21,6.45,1.52,12.92,3,19.4,4.4.74.16,3.07.34,3.69.78,1.29.93.42.4-.15,2.29a14.33,14.33,0,0,1-1.1,2.49c-34.13-7.15-68.13-15-101.82-24q-6.1-1.62-12.2-3.32c-2.23-.62-6-.81-6.77-2.72l-.52,4.6c4.27,1.2,8.54,2.39,12.83,3.54-8.29,20.87,4.49,41.08,24.4,48.51,21.5,8,44,1.16,62-11.7,1.66,2.83,3.51,5.33,4.61,6.85a99.89,99.89,0,0,0,15.93,17.86c-34.38-5.46-69.43,4-101.6,18.42a9.86,9.86,0,0,0-3.42-.62c-2.89-.08-4.1,1.3-6.06-1.24-2.37-3.08-4.54-6.36-6.79-9.53a3.51,3.51,0,0,0-2.57-.86l-.17,6.24c2.71,4.33,5.88,8.61,11.07,8.66,1.91,0,3.36-1.21,4.82.95.9,1.34.58,5.32.76,7,.31,2.76,1.13,3.25-1.31,4.34-2.17,1-6.36.37-8.72.39-.3,0-.55,0-.78,0l.1,1.88a5.4,5.4,0,0,0,2.2.48,76.38,76.38,0,0,0,10.9-.62l.67-.09a2.94,2.94,0,0,0,1,.32c15.32,2.31,30.59,5,46.05,6.28,2.14.18,4.38.37,6.66.53-3.1,1.38-5.3,3.49-3.14,7.49,1.59,2.93,4.27,5.82,7.6,6.51,3.5.72,7.67-.34,11.22-.54,3.85-.22,7.7-.48,11.54-.81a226.75,226.75,0,0,0,26.73-3.75c14.54-3,28.54-8.08,41.12-15.92a40.74,40.74,0,0,0,18.35,9.27c-14.5,12.43-21.16,30-20.27,49.09a37.08,37.08,0,0,0,4.34,15.94c-2.5,6.74-2.36,14.36-1.32,21.51,1.84,12.77,4.88,25.46,7.39,38.12,2.39,12.11,5.66,24.46,6.3,36.85l.09,2.74c.2,11.57-2.64,24.78-12,32.51-10.16,8.38-23.95,4.38-33.79-2.4-19.34-13.34-23.3-37.65-28.33-58.92-3.64-15.35-10.39-39.45-31.1-35.09-8.5,1.78-15.8,7.79-19.86,15.38-5.6,10.49-4.57,22.46-8.3,33.41a54.19,54.19,0,0,1-11.72,19c-7.9,8.47-24.53,4.41-39.22-.16l-.81,3.5c39.69,17.25,53.51-6.93,58.2-26.13,2.46-10.1,2.39-20.79,7.21-30.25,3.31-6.49,9.82-13.53,17.84-12.25,5.09.82,9.22,4.36,12.17,8.39,5.36,7.33,7.49,16.58,9.57,25.25,2.5,10.41,4.52,21,8.13,31.08,5.87,16.44,17.31,31.52,35.06,35.85a33.6,33.6,0,0,0,36.8-15.35c4.64-7.83,6-25.26,6-25.26ZM593.73,436c4.86-5.8,12.35-6.35,17.93-1.31a10.31,10.31,0,0,1,1.86,13.66c-7.43,10.55-18.37,2.39-23.53-6A22.87,22.87,0,0,1,593.73,436Zm13.87-59.64A38.08,38.08,0,0,1,584,363.73c-.2-.24-.39-.46-.58-.66a38.55,38.55,0,0,1-9.29-24.86,37.73,37.73,0,0,1,1-8.42,63.33,63.33,0,0,0,5.29,7.34c1.89,2.33,4.71,6.19,7.77,7.12,2.34.71,4.1-.44,6.28-1.41q6.43-2.86,12.66-6.21c2.46-1.32,6.83-3,8.54-5.34,1.57-2.15.75-5.39.26-7.78-1.43-6.9-3.81-15.89-8.35-21.69a35.07,35.07,0,0,1,5.94.26c19.18,2.45,33,19.14,33.46,38.15C646.5,361.44,629.57,379.17,607.6,376.36Z"/><path class="cls-6" d="M401.67,120.08c.23,2.2,4.51,4,4.19.92q-3-28.54-6.84-57c-.3-2.18-4.6-3.95-4.19-.92Q398.7,91.54,401.67,120.08Z"/><path class="cls-6" d="M286.83,609.9q-13,.57-25.92.64c-2.93,0-3,2,0,2q13.63-.07,27.26-.68C291.53,611.68,289,609.81,286.83,609.9Z"/><path class="cls-6" d="M423.57,518.68l0,0c11.24-41,8.73-86.28-6.07-125.67a2.08,2.08,0,0,0,.22-.62,98.43,98.43,0,0,0,1.52-21.57l-.08-1.53A104.27,104.27,0,0,0,418,358.76c-.29-1.84-2.52-2.11-3.87-1.24.06-1.9.13-3.8.18-5.7l.14-5.1c0-1.34.07-2.68.1-4a.62.62,0,0,0,0-.36q.63-26.88.44-53.77l.43-3.76c-.93-2.19-.07-6.69-.1-9-.13-9-.25-18-.79-27l-.32-1.9q-1.38-45-5.05-89.81c-.18-2.2-4.44-4-4.19-.91a1754.3,1754.3,0,0,1,5.38,183.57,660.45,660.45,0,0,1-135.27,16.61c-2.06,0,1.28,3.53,2.8,3.5a663.9,663.9,0,0,0,132.36-16q-.21,8.78-.52,17.55a2.09,2.09,0,0,0,.27,1c-28,21.19-47.51,53.08-53,87.82-4.24,26.68-.65,56.24,10.22,81,6.49,14.79,16.33,28,30.11,36.65a1.84,1.84,0,0,0,.59.54q1,13.25,1.86,26.5-24,5.13-48.31,8.5c-3.36.46-.86,2.22,1.3,1.92q23.72-3.25,47.16-8.18,4.11,64.27,4.51,128.71c0,2.09,5,2,5,0q-.44-77.64-6.35-155.11a22.38,22.38,0,0,0,6.87,1.14,5.51,5.51,0,0,0,1-.1,1.22,1.22,0,0,0,1.78-1.17,1.25,1.25,0,0,0,.11-.29,1.27,1.27,0,0,0-.11-.89c-.25-6.81-.27-13.63-.52-20.44h0a1.73,1.73,0,0,0,.68-1.46,177.27,177.27,0,0,0,9.47-24.88M410.1,543C396,522.32,384.63,498.74,384,473.33c-.45-19.38,5.68-37.75,14.92-54.58,4.64-8.44,10-16.47,15.39-24.43h0C431.84,441.57,431.17,497.07,410.1,543Zm-48.28-51.06c-3.86-29.81.81-59.56,15.71-85.93a135.89,135.89,0,0,1,36.25-41.49,96.59,96.59,0,0,1-.69,25.13,2.36,2.36,0,0,0-1.78,1c-10.61,15.6-21.14,31.63-27.1,49.68a100.72,100.72,0,0,0,.17,63.15c5.31,16.32,13.91,31.32,23.77,45.29a2.09,2.09,0,0,0,.42.42c.21,6.33.25,12.66.47,19a19.64,19.64,0,0,1-7.47-2.42,2.25,2.25,0,0,0-.57-.51C376.13,549.87,365.41,519.62,361.82,491.94Z"/><path class="cls-6" d="M203,356.83q-31.74.32-63.46-.6c-7.16-.2-7.55,4.62-.25,4.82q33.36.94,66.73.59C214.37,361.56,208.19,356.78,203,356.83Z"/></g></g></svg>