<svg xmlns="http://www.w3.org/2000/svg" xmlns:xlink="http://www.w3.org/1999/xlink" viewBox="0 0 882 768"><defs><style>.cls-1{fill:#ebf0f8;}.cls-2{fill:url(#linear-gradient);}.cls-3{fill:url(#linear-gradient-2);}.cls-4{fill:url(#linear-gradient-3);}.cls-5{fill:url(#linear-gradient-4);}.cls-6{fill:url(#linear-gradient-5);}.cls-7{fill:url(#linear-gradient-6);}.cls-8{fill:url(#linear-gradient-7);}.cls-9{fill:#67aaf9;}.cls-10{fill:#494949;}.cls-11{fill:#c4e0f9;}.cls-12{fill:#fff;}.cls-13{fill:#dccfff;}.cls-14{fill:#4191e0;}</style><linearGradient id="linear-gradient" x1="673.66" y1="333.61" x2="887.6" y2="130.26" gradientUnits="userSpaceOnUse"><stop offset="0" stop-color="#0fa"/><stop offset="0.13" stop-color="#07dfad"/><stop offset="0.31" stop-color="#0fbab0"/><stop offset="0.48" stop-color="#159db3"/><stop offset="0.66" stop-color="#1989b5"/><stop offset="0.83" stop-color="#1c7cb6"/><stop offset="1" stop-color="#1d78b6"/></linearGradient><linearGradient id="linear-gradient-2" x1="657.21" y1="294.27" x2="725.49" y2="294.27" xlink:href="#linear-gradient"/><linearGradient id="linear-gradient-3" x1="292.91" y1="482.74" x2="126.1" y2="632.07" xlink:href="#linear-gradient"/><linearGradient id="linear-gradient-4" x1="607.04" y1="263.51" x2="820.98" y2="60.16" xlink:href="#linear-gradient"/><linearGradient id="linear-gradient-5" x1="438.29" y1="621.13" x2="438.26" y2="621.17" xlink:href="#linear-gradient"/><linearGradient id="linear-gradient-6" x1="438.2" y1="621.01" x2="438.18" y2="621.03" xlink:href="#linear-gradient"/><linearGradient id="linear-gradient-7" x1="406.31" y1="616.35" x2="128.13" y2="865.38" xlink:href="#linear-gradient"/></defs><title>Artboard 1 copia 4</title><g id="fondo"><rect class="cls-1" x="280.38" y="70.98" width="218.49" height="52.27" rx="22.99" ry="22.99" transform="translate(21.51 257.51) rotate(-37.54)"/><rect class="cls-1" x="744.76" y="170.61" width="146.78" height="52.27" rx="24.68" ry="24.68" transform="translate(49.54 539.25) rotate(-37.54)"/><rect class="cls-1" x="-6.54" y="520.9" width="170.14" height="52.27" rx="24.68" ry="24.68" transform="translate(-317.05 161.13) rotate(-37.54)"/><path class="cls-1" d="M758,531.61a24.32,24.32,0,0,1,34.11,4.47l2.2,2.86a24.33,24.33,0,0,1-4.47,34.12L556.71,752.22a24.35,24.35,0,0,1-34.12-4.47l-2.2-2.87a24.32,24.32,0,0,1,4.47-34.11l48.52-37.84a15.76,15.76,0,0,0,2.89-22.09L574.86,649a15.74,15.74,0,0,0-22.08-2.89l-144.66,113a26.14,26.14,0,0,1-36.65-4.79h0a26.13,26.13,0,0,1,4.8-36.65l39.34-30.23h0a15.59,15.59,0,0,0,2.86-21.87l-1.4-1.82a15.59,15.59,0,0,0-21.87-2.86l-83.06,64.7a26.14,26.14,0,0,1-36.65-4.8h0a26.13,26.13,0,0,1,4.8-36.65l101-76.1a15.75,15.75,0,0,0,2.89-22.08l-1.41-1.83a15.75,15.75,0,0,0-22.09-2.89l-48.5,37.06a26.15,26.15,0,0,1-36.65-4.8h0a26.13,26.13,0,0,1,4.8-36.65l77.19-60a15.32,15.32,0,0,0,2.82-21.49l-1.37-1.78a15.33,15.33,0,0,0-21.49-2.82L163.11,625.5a26.13,26.13,0,0,1-36.65-4.8h0a26.14,26.14,0,0,1,4.8-36.65L290.43,461.83A15.61,15.61,0,0,0,293.3,440l-1.4-1.82a15.61,15.61,0,0,0-18.14-5L220.9,473.8a26.13,26.13,0,0,1-36.65-4.8h0a26.14,26.14,0,0,1,4.8-36.65L343.87,313.11a15.34,15.34,0,0,0,2.82-21.52l-1.37-1.79A15.34,15.34,0,0,0,323.8,287l-2,1.85a8.14,8.14,0,0,1-.63.54l-9.06,7a26.14,26.14,0,0,1-36.65-4.8h0a26.13,26.13,0,0,1,4.8-36.65l225-172.87a26.14,26.14,0,0,1,36.65,4.8h0a26.13,26.13,0,0,1-4.8,36.65l-51.88,39-.1.23a15.49,15.49,0,0,0-2.84,21.7l1.39,1.8a15.48,15.48,0,0,0,21.69,2.84l142-108.95A26.13,26.13,0,0,1,684,85h0a26.14,26.14,0,0,1-4.79,36.65l-86,66.11h0a15.6,15.6,0,0,0-.16,19.18l1.4,1.81a15.57,15.57,0,0,0,21.82,2.86l45.36-35a26.12,26.12,0,0,1,36.64,4.8h0a26.13,26.13,0,0,1-4.8,36.65l-131,101a15.4,15.4,0,0,0-2.83,21.6l1.38,1.79a15.4,15.4,0,0,0,21.6,2.83L683.43,267a26.13,26.13,0,0,1,36.65,4.8h0a26.12,26.12,0,0,1-4.8,36.64l-76,59.28a15.25,15.25,0,0,0-2.8,21.38l1.37,1.78a15.25,15.25,0,0,0,21.38,2.8h0l22.17-17.79A26.14,26.14,0,0,1,718,380.72h0a26.15,26.15,0,0,1-4.8,36.65L664,455a15.64,15.64,0,0,0-2.88,21.93l1.4,1.82a15.64,15.64,0,0,0,21.94,2.87L757,425.07a26.13,26.13,0,0,1,36.65,4.8h0a26.15,26.15,0,0,1-4.8,36.65L684.36,545.86a15.68,15.68,0,0,0-2.87,22l1.4,1.82a15.67,15.67,0,0,0,22,2.88Z"/><path class="cls-1" d="M876.34,152h0A26.14,26.14,0,0,0,844,144.54c11.63,12.67,19.12,32.07,23.54,47.21l4-3.08A26.14,26.14,0,0,0,876.34,152Z"/><path class="cls-2" d="M839.69,147.23l-74.94,57.58A26.14,26.14,0,0,0,760,241.46h0a26.14,26.14,0,0,0,36.64,4.8l70.94-54.51c-4.42-15.14-11.91-34.54-23.54-47.21A25.74,25.74,0,0,0,839.69,147.23Z"/><path class="cls-3" d="M691.31,326.92l24-18.44a26.12,26.12,0,0,0,4.8-36.64h0a26.13,26.13,0,0,0-36.65-4.8l-26.22,20.1C664.45,300.39,675.27,314,691.31,326.92Z"/><path class="cls-4" d="M131.26,584.05a26.14,26.14,0,0,0-4.8,36.65h0a26.13,26.13,0,0,0,36.65,4.8L301.93,518.17C280.74,510.41,258,505.31,234.27,505Z"/><path class="cls-5" d="M645.49,254.63,693.41,218a26.13,26.13,0,0,0,4.8-36.65h0a26.12,26.12,0,0,0-36.64-4.8l-9.29,7.17a89.81,89.81,0,0,0-8.21,29.53C643.27,222.84,642.17,237.57,645.49,254.63Z"/><path class="cls-6" d="M438.23,621.06c0,.05.07.11.11.17Z"/><path class="cls-7" d="M438.17,621l.06.09Z"/><path class="cls-8" d="M459.25,654.37A245.29,245.29,0,0,0,445.84,632l.29.42-.29-.42q-3.49-5.24-7.48-10.74h0l-.21-.27h0c-38-54.58-73.05-70.6-73.05-70.6h0c-9.09-5.85-18.79-11.61-29-17l-55.82,43.41a26.13,26.13,0,0,0-4.8,36.65h0a26.15,26.15,0,0,0,36.65,4.8l38.18-29.71s16.26-11,23.5-10.2,13.94,10.86,13.58,17.22-3.39,8.79-3.39,8.79l-5.61,4.32h0l-98.11,75.42a26.14,26.14,0,0,0,31.85,41.45l83.06-64.7a15.59,15.59,0,0,1,21.87,2.86l1.4,1.82a15.59,15.59,0,0,1-2.86,21.87h0l-39.34,30.23a26.13,26.13,0,1,0,31.85,41.44l70.68-55.2C474.41,690.09,467.39,670,459.25,654.37Z"/></g><g id="colores"><path class="cls-9" d="M671.48,97.71s10.64,1.19,14.19,9.47c0,0-1.18-8.28,7.1-15.38,0,0-13-4.73-14.2-9.46C678.57,82.34,682.12,89.44,671.48,97.71Z"/><path class="cls-9" d="M673.6,608.21s10.64,1.18,14.19,9.46c0,0-1.18-8.28,7.1-15.37,0,0-13-4.74-14.2-9.47C680.69,592.83,684.24,599.93,673.6,608.21Z"/></g><g id="líneas"><path class="cls-10" d="M410.25,583.7c-1.28-1.31-5.51,1.77-4.47,2.83a282.48,282.48,0,0,1,69.34,118.81c.38,1.32,5-1,4.48-2.83A282.5,282.5,0,0,0,410.25,583.7Z"/><path class="cls-10" d="M338.56,532.72c-1.5-.75-5.52,2.5-4,3.27a276.21,276.21,0,0,1,47,29.64c1.24,1,5.49-2.09,4-3.27A276.21,276.21,0,0,0,338.56,532.72Z"/><path class="cls-10" d="M303.49,516.73A290.07,290.07,0,0,0,236,503c-1.53-.13-5.35,3.29-3.21,3.47A286.5,286.5,0,0,1,299.51,520C301.13,520.54,305,517.21,303.49,516.73Z"/><path class="cls-10" d="M870.64,191.5a118.17,118.17,0,0,0-24-47.71c-1.71-2.06-6.27.58-4.39,2.85a115.52,115.52,0,0,1,23.45,46.73C866.34,196,871.3,194.2,870.64,191.5Z"/><path class="cls-10" d="M689.76,327.81c2.15,1.56,6.08-1.75,3.53-3.6a109.91,109.91,0,0,1-32.58-37.54c-1.32-2.45-6.25-.55-5,1.87A114.61,114.61,0,0,0,689.76,327.81Z"/><path class="cls-10" d="M649,255.53a134.71,134.71,0,0,1,5.21-69.18c1-2.94-4.16-2.86-5-.37a137.21,137.21,0,0,0-5.35,70.31C644.39,259.19,649.51,258.14,649,255.53Z"/><path class="cls-10" d="M675.44,97.4a1.27,1.27,0,0,0,1,.14,12.36,12.36,0,0,1,3.25-.44,12.67,12.67,0,0,1,6.41,1.78,14.53,14.53,0,0,1,6.59,9.09,1.63,1.63,0,0,0,.73,1,1.36,1.36,0,0,0,1,.14,1.6,1.6,0,0,0,1-2c-1.86-7.67,2.39-15.49,9.47-17.43a1.61,1.61,0,0,0,1-2,1.66,1.66,0,0,0-.74-1,1.28,1.28,0,0,0-1-.14,12.44,12.44,0,0,1-9.66-1.34A14.45,14.45,0,0,1,688,76.19a1.69,1.69,0,0,0-.74-1,1.33,1.33,0,0,0-1-.14,1.6,1.6,0,0,0-1,2c1.86,7.67-2.39,15.49-9.46,17.43a1.6,1.6,0,0,0-1,2A1.58,1.58,0,0,0,675.44,97.4Zm8.47-4.49a17.87,17.87,0,0,0,4-7.31l.48-1.75,1.23,1.31a16.36,16.36,0,0,0,6.77,4.36l1.54.5-1.1,1.23a17.71,17.71,0,0,0-4,7.31l-.47,1.75L691.12,99a16.34,16.34,0,0,0-6.77-4.35l-1.55-.51Z"/><path class="cls-10" d="M707.36,597.26a1.31,1.31,0,0,0-1-.15,12.42,12.42,0,0,1-9.65-1.33,14.48,14.48,0,0,1-6.59-9.09,1.63,1.63,0,0,0-.74-1,1.24,1.24,0,0,0-1-.14,1.59,1.59,0,0,0-1,2c1.86,7.68-2.39,15.5-9.47,17.44a1.67,1.67,0,0,0-.29,3,1.31,1.31,0,0,0,1,.15,12.36,12.36,0,0,1,3.25-.44,12.66,12.66,0,0,1,6.41,1.77,14.5,14.5,0,0,1,6.58,9.09,1.63,1.63,0,0,0,.74,1,1.25,1.25,0,0,0,1,.14,1.59,1.59,0,0,0,1-2c-1.86-7.68,2.39-15.5,9.47-17.44a1.67,1.67,0,0,0,.29-3Zm-8.47,4.48a17.94,17.94,0,0,0-3.95,7.31l-.48,1.76-1.23-1.31a16.26,16.26,0,0,0-6.76-4.36l-1.55-.51,1.11-1.22a17.94,17.94,0,0,0,4-7.31l.48-1.76,1.23,1.31a16.39,16.39,0,0,0,6.76,4.36l1.55.51Z"/><path class="cls-10" d="M333.56,139.3a3.85,3.85,0,1,0,3.84,3.85A3.85,3.85,0,0,0,333.56,139.3Zm0,5.61a1.77,1.77,0,1,1,1.77-1.76A1.77,1.77,0,0,1,333.56,144.91Z"/><path class="cls-10" d="M443.71,209.48a3.85,3.85,0,1,0-3.85-3.85A3.85,3.85,0,0,0,443.71,209.48Zm0-5.61a1.77,1.77,0,1,1-1.77,1.76A1.76,1.76,0,0,1,443.71,203.87Z"/><path class="cls-10" d="M629.3,116.73a3.85,3.85,0,1,0-3.84-3.85A3.86,3.86,0,0,0,629.3,116.73Zm0-5.61a1.77,1.77,0,1,1-1.76,1.76A1.76,1.76,0,0,1,629.3,111.12Z"/><path class="cls-10" d="M786.11,441.92a3.85,3.85,0,1,0,3.85,3.84A3.84,3.84,0,0,0,786.11,441.92Zm0,5.61a1.77,1.77,0,1,1,1.77-1.77A1.76,1.76,0,0,1,786.11,447.53Z"/><path class="cls-10" d="M399.64,314.49a3.85,3.85,0,1,0-3.84-3.85A3.85,3.85,0,0,0,399.64,314.49Zm0-5.62a1.77,1.77,0,1,1-1.77,1.77A1.78,1.78,0,0,1,399.64,308.87Z"/><path class="cls-10" d="M525.23,299.59a3.84,3.84,0,1,0-3.84-3.84A3.85,3.85,0,0,0,525.23,299.59Zm0-5.61a1.77,1.77,0,1,1-1.76,1.77A1.77,1.77,0,0,1,525.23,294Z"/><path class="cls-10" d="M67.39,554a3.85,3.85,0,1,0,3.85,3.84A3.84,3.84,0,0,0,67.39,554Zm0,5.61a1.77,1.77,0,1,1,1.77-1.77A1.77,1.77,0,0,1,67.39,559.64Z"/><path class="cls-10" d="M763.73,443h-3.54v-3.53a1,1,0,1,0-2.07,0V443h-3.54a1,1,0,0,0,0,2.08h3.54v3.53a1,1,0,1,0,2.07,0v-3.53h3.54a1,1,0,0,0,0-2.08Z"/><path class="cls-10" d="M474.73,589.41a3.85,3.85,0,1,0-3.84-3.84A3.85,3.85,0,0,0,474.73,589.41Zm0-5.61a1.77,1.77,0,1,1-1.76,1.77A1.77,1.77,0,0,1,474.73,583.8Z"/><path class="cls-10" d="M598.65,650.57a3.84,3.84,0,1,0,3.84,3.84A3.84,3.84,0,0,0,598.65,650.57Zm0,5.61a1.77,1.77,0,1,1,1.77-1.77A1.78,1.78,0,0,1,598.65,656.18Z"/><path class="cls-10" d="M446.74,579.28v3.53H443.2a1,1,0,0,0,0,2.08h3.54v3.53a1,1,0,1,0,2.07,0v-3.53h3.54a1,1,0,0,0,0-2.08h-3.54v-3.53a1,1,0,1,0-2.07,0Z"/><path class="cls-10" d="M269.55,406.33H266v-3.54a1,1,0,1,0-2.08,0v3.54h-3.53a1,1,0,1,0,0,2.07h3.53v3.54a1,1,0,0,0,2.08,0V408.4h3.53a1,1,0,1,0,0-2.07Z"/><path class="cls-10" d="M115.16,508.35h-3.53v-3.54a1,1,0,0,0-2.08,0v3.54H106a1,1,0,0,0,0,2.08h3.53V514a1,1,0,1,0,2.08,0v-3.53h3.53a1,1,0,1,0,0-2.08Z"/><path class="cls-10" d="M325.84,253.09l-4.17,1.31-1.31-4.16a1.33,1.33,0,0,0-1.67-.87,1.32,1.32,0,0,0-.86,1.67l1.31,4.16L315,256.52a1.32,1.32,0,0,0,.4,2.59,1.44,1.44,0,0,0,.4-.06l4.16-1.31,1.32,4.16a1.32,1.32,0,0,0,1.26.93,1.45,1.45,0,0,0,.41-.06,1.34,1.34,0,0,0,.86-1.67l-1.32-4.16,4.17-1.32a1.33,1.33,0,1,0-.8-2.53Z"/><path class="cls-10" d="M586.78,703.21l-4.17,1.31-1.31-4.16a1.33,1.33,0,0,0-1.67-.87,1.32,1.32,0,0,0-.86,1.67l1.31,4.16-4.16,1.32a1.32,1.32,0,0,0,.4,2.59,1.44,1.44,0,0,0,.4-.06l4.16-1.31L582.2,712a1.32,1.32,0,0,0,1.26.93,1.33,1.33,0,0,0,1.27-1.73l-1.32-4.16,4.17-1.32a1.33,1.33,0,1,0-.8-2.53Z"/><path class="cls-10" d="M550.9,259.11a1.44,1.44,0,0,0,.4-.06l4.16-1.32,1.32,4.17a1.33,1.33,0,0,0,1.27.92,1.44,1.44,0,0,0,.4-.06,1.32,1.32,0,0,0,.86-1.66L558,256.93l4.16-1.32a1.33,1.33,0,1,0-.8-2.53l-4.16,1.32-1.32-4.17a1.33,1.33,0,0,0-2.53.8l1.31,4.17-4.16,1.32a1.33,1.33,0,0,0,.4,2.59Z"/><path class="cls-10" d="M455.73,53.31a1.09,1.09,0,0,0,.4-.07l4.17-1.31,1.32,4.16a1.32,1.32,0,0,0,1.26.93,1.39,1.39,0,0,0,.4-.06,1.33,1.33,0,0,0,.87-1.67l-1.32-4.16L467,49.81a1.33,1.33,0,0,0-.8-2.53L462,48.6l-1.31-4.17a1.33,1.33,0,1,0-2.54.8l1.32,4.17-4.17,1.31a1.33,1.33,0,0,0,.4,2.6Z"/><path class="cls-10" d="M694.48,394.26a1.33,1.33,0,0,0-1.67-.86l-4.16,1.31-1.32-4.16a1.33,1.33,0,1,0-2.53.8l1.32,4.16L682,396.83a1.32,1.32,0,0,0,.4,2.59,1.39,1.39,0,0,0,.4-.06l4.17-1.31,1.31,4.16a1.33,1.33,0,0,0,1.27.93,1.39,1.39,0,0,0,.4-.06,1.33,1.33,0,0,0,.87-1.67l-1.32-4.16,4.16-1.32A1.33,1.33,0,0,0,694.48,394.26Z"/><path class="cls-10" d="M559.18,384.19a1.33,1.33,0,0,0-2.53.8l1.31,4.17-4.16,1.32a1.33,1.33,0,0,0,.4,2.59,1.39,1.39,0,0,0,.4-.06l4.16-1.32,1.32,4.17a1.34,1.34,0,0,0,1.27.93,1.16,1.16,0,0,0,.4-.07,1.32,1.32,0,0,0,.86-1.66l-1.31-4.17,4.16-1.32a1.33,1.33,0,1,0-.8-2.53l-4.16,1.32Z"/><circle class="cls-11" cx="364.71" cy="397.21" r="55.53"/><path class="cls-12" d="M399.09,387.52l-8.82-10.58s-14.1,17.63-40.54,12.34l12.34,10.58L385,414l24.68,17.63s31.73,26.44,37,30,37,22.91,63.47,19.39,47.59-12.34,56.41-17.63,24.68-17.63,24.68-17.63,3.52-14.1-7.06-12.34-30,7-38.78,5.29a44.14,44.14,0,0,1-15.86-7.05l22.91-37s-1.76-8.82-8.81-7.05S504.86,414,504.86,414l-14.11-14.1,3.53-5.29,33.49-22.92s1.77-7-7-8.81S489,371.65,489,371.65s-10.58,5.29-10.58-1.76,7.06-28.21,7.06-28.21,8.81-17.63,8.81-21.15-7-8.82-14.1-5.29-17.63,21.15-17.63,21.15l-33.5,31.73L406.14,384Z"/><path class="cls-10" d="M369.12,406.91s3.52-17.63,15.86-12.34S400.85,414,400.85,414s5.29,17.63,0,17.63-7.05-1.77-7.05-1.77l-11.46-16.74Z"/><polygon class="cls-10" points="355.01 396.33 363.83 403.38 353.25 406.91 349.73 405.14 355.01 396.33"/><path class="cls-10" d="M415,433.35s7.05-1.76,12.34-10.58S443.16,405.14,452,412.2s12.34,17.62,3.53,28.2-15.87,15.87-15.87,15.87S416.71,440.4,415,433.35Z"/><path class="cls-10" d="M462.55,470.37s15.86-17.63,40.54-12.34c12.34,3.53,18.29,11.84,24.13,20,0,0-38.23,9.95-64.67-7.68"/><path class="cls-10" d="M466.07,440.4s0-14.1,5.29-19.39,15.87-7.05,22.92,3.53-3.53,19.39-3.53,19.39-21.15,10.57-24.68-3.53"/><path class="cls-10" d="M577.13,436.88,586,451s7-7.05,5.29-12.34S584.18,433.35,577.13,436.88Z"/><path class="cls-10" d="M538.35,389.28l11.46,10s4.41-4.73,2.64-8.26-2.54-5.72-7.44-3.74S538.35,389.28,538.35,389.28Z"/><path class="cls-10" d="M511.91,364.6l10.58,10.58s7.19-5.44,3.59-9.77S511.91,364.6,511.91,364.6Z"/><path class="cls-10" d="M473.13,322.29l21.15,5.29s5.29-12.34-3.53-12.34S474.89,318.76,473.13,322.29Z"/><path class="cls-13" d="M351.49,389.28s22.92,7.05,38.78-12.34c0,0-19.39-17.63-35.25-10.58S351.49,389.28,351.49,389.28Z"/><path class="cls-14" d="M418.48,376.94s21.15,14.1,7,40.54c-1.76,5.29-3.53,14.11,22.92,30s77.56,47.6,139.26-3.52c0,0-19.39,31.73-70.51,37s-89.91-35.26-89.91-35.26l-15.86-14.1S430.82,399.86,418.48,376.94Z"/><path class="cls-14" d="M348,369.89s10.58,22.91,33.5,35.25,27.44,25.35,35.75,14.44l-7.55,12-5.28-3.53s-1.77,7.05-10.58,3.53S383.22,414,383.22,414l-19.39-10.58s-8.81,7.05-14.1,3.53S355,394.57,355,394.57,340.91,378.7,348,369.89Z"/><path class="cls-14" d="M480.18,373.41l5.29-1.76S490.75,391,496,394.57l-5.29,3.52S478.41,385.75,480.18,373.41Z"/><path class="cls-14" d="M511.91,410.43s14.1,14.11,21.15,15.87l-3.52,5.29-22.92-15.87,1.76-3.52Z"/><path class="cls-14" d="M310.94,410.43s33.5,67,97,24.68c0,0-15.86,19.39-45.83,17.63s-42.31-22.92-42.31-22.92Z"/><ellipse class="cls-12" cx="387.63" cy="354.02" rx="2.07" ry="8.8" transform="translate(-87.54 577.19) rotate(-67.56)"/><path class="cls-10" d="M590.59,432.33c-3.73-2.4-9,.27-12.74,1.19-9.52,2.32-20.3,4.86-30.1,3.06a55.85,55.85,0,0,1-15.28-5.44c7-10.28,14-20.6,20.79-31.05,2.07-3.18,4.82-5.56,3-9.23-1.07-2.2-5.71-4.88-8-5.59-5.69-1.74-10.25,3.84-14.58,6.73-9.61,6.41-19.41,12.53-28.56,19.61a99.88,99.88,0,0,1-12.27-12.84c10.18-6.4,19.86-13.51,29.64-20.5,6.31-4.51,9.29-6.56,3.81-13.18-3.88-4.69-6-4.92-12-3.11-10.81,3.25-21.86,5.6-32.72,8.7-.74-14.82,5.66-29.56,14.16-43,2.79-4.44,4.5-8.15-.27-12-4.36-3.52-11.28-5.18-16.13-1.89s-9,10-13.05,14.38c-6.34,7-12.83,13.8-19.53,20.42-8.68,8.57-17.77,17.29-27.65,24.8a55.61,55.61,0,0,0-13.28-18.51c-19.46-17.81-48.32-19.2-70.8-6.56-21.47,13.31-32.94,38.66-26.38,63.5,6.37,24.12,28.22,41.14,53,42.4a61.16,61.16,0,0,0,48.73-20.42C435.6,457.56,464,479.36,498,482.44c-3.2,5.53,0,12.77,5.82,16,5.31,3,21.39,3.65,18.3-6.35-.65-2.11-5.29-3.07-4.37-.08.75,2.44-2.23,3.75-4.13,4.19a11.69,11.69,0,0,1-8.93-1.32,7.29,7.29,0,0,1-.61-11.84,1.33,1.33,0,0,0,.26-.27,92.56,92.56,0,0,0,17.21-1.24A130.1,130.1,0,0,0,576,459.67c5.11-3.53,11.85-7.18,16-11.85C595.37,444,595.31,435.36,590.59,432.33Zm-42.77-43.95c2.52,1.44,2,6,1.18,8.91a25.75,25.75,0,0,0-3.18-2.66c-1.47-1.06-3.6-2.12-4.66-3.62l0,0a30.52,30.52,0,0,1,3.13-1.66C545.28,388.85,546.49,387.62,547.82,388.38Zm-20.23,12.1c4-2.63,8.16-6.16,12.44-8.86.33.56.7,1.07.8,1.22a18.72,18.72,0,0,0,4.35,4.12c.89.65,2.11,1.38,3.14,2.13-1.68,3.49-4.49,6.84-6.62,10.07-4.39,6.61-8.86,13.17-13.34,19.72a133.7,133.7,0,0,1-14.48-10c-1.92-1.5-3.83-3.05-5.71-4.63C514.41,409.32,521,404.85,527.59,400.48Zm-2.07-30.75a8.22,8.22,0,0,1-3.13,2.64,15.71,15.71,0,0,0-5.26-6.46C520,365.06,529.07,362.32,525.52,369.73ZM506,368.82c1.9-.48,3.81-.95,5.71-1.44,2.8,1.58,5.57,4.78,6.18,7.94l-7.15,5.17c-6.83,4.93-13.75,9.72-20.87,14.21-.23-.33-.47-.65-.69-1A46.2,46.2,0,0,1,482,375.33C489.94,372.92,498,370.84,506,368.82Zm-25.61-49.27c4.68-4,14-4.49,11.92,4a9.82,9.82,0,0,1-.45,1.32q-6.54-2.12-13.21-3.71C479.22,320.62,479.8,320.06,480.39,319.55ZM392.15,445c-27.67,16.31-63.45,2.42-75.81-26.37-11-25.58-1-55.17,22.45-69.71,27.95-15.71,63.26-2.85,75.81,26.37.15.33.27.67.41,1a118.32,118.32,0,0,1-13.95,8.57c-8.34-9.29-17.59-18.94-30.19-21.82-7.93-1.81-17.77-.93-23.47,5.55-7.52,8.54-2.87,18.6,5.34,27.23-3.25,3.26-8.44,8.72-4.06,12.13s11.48.21,16.1-1.91a81.16,81.16,0,0,0,15.35,8.73,1.85,1.85,0,0,0,.48.08c3.22,7.41,9.37,20.07,19.11,19.25,3.55-.29,5.29-2.12,6-4.62l1.95,1.27a1.09,1.09,0,0,0,.07.24A53.42,53.42,0,0,1,392.15,445Zm16.9-15.82c-1-.68-2-1.32-2.95-2,.26-4.72-1.89-10.68-3.15-14-3.27-8.66-9.86-19.08-19.71-21-8-1.55-13.55,3.22-16,10a61.32,61.32,0,0,1-11.84-11.4,47,47,0,0,0,23.55-2.17c4.41-1.67,7.94-4.79,11.42-7.93,2.69,2.71,5.24,5.56,7.76,8.39.59.65,1.75.46,2.76-.07a2.7,2.7,0,0,0,1.77-.08,123.88,123.88,0,0,0,14-8.09A56.68,56.68,0,0,1,409.05,429.22Zm-25.78-17.87a74,74,0,0,1-11.69-6.07,13.1,13.1,0,0,1,6-8.44c3.83-2.12,8.79.91,11.52,3.41,4.11,3.75,7.19,9.35,9.1,14.48,1.48,4,6.49,18.72-3.58,12.81-4.81-2.82-7.48-10.08-9.55-14.89A2.2,2.2,0,0,0,383.27,411.35Zm-32.94-28.49c-4.58-9.52,4.29-18.17,14.47-16.9a35.26,35.26,0,0,1,13.67,5.1A54.9,54.9,0,0,1,387,377.5c-3.21,2.89-6.45,6.09-10.26,8.09C370,389.1,361.62,389.8,354,389A42.37,42.37,0,0,1,350.33,382.86Zm5.89,16.39c1.43,1.3,2.92,2.56,4.43,3.75-.81.36-1.63.7-2.47,1-.58.21-5.69,2-6.13,1.29C351.49,404.35,354.12,401.4,356.22,399.25Zm82.53,54.39C431.19,447.8,424,441.41,417,434.87a18.1,18.1,0,0,0,7.58-3.14c6.29-4.63,7.68-12.6,14.14-16.87,4.35-2.88,6.79-3.35,11.33-.46a14,14,0,0,1,5.55,7.05c1.89,5.05,1.09,10.63-.81,15.55-3,7.77-8.77,12.64-15.85,16.48A2.09,2.09,0,0,0,438.75,453.64Zm28.38,17.49-1.18-.56c16.73-15.94,47.39-15.64,58.66,6.32C505.35,480.58,486,479.68,467.13,471.13Zm101-11.7c-7.16,4.74-14.42,8.93-22.55,11.75a153.86,153.86,0,0,1-17.32,4.94c-12.74-25.35-47.15-28.1-66.64-8.44a1.44,1.44,0,0,0-.35.61,144.49,144.49,0,0,1-18.38-11.51c13.8-8,26.94-28.28,13.5-42.66-4.61-4.92-13.17-8.23-19.69-5.38-11.36,5-9.4,20.55-23.83,22.26l-.22-.21a54.87,54.87,0,0,0,4.72-7.3A57.07,57.07,0,0,0,420.89,378c18.62-13.29,34.86-31.06,49.79-47.47,1.59-1.75,3.13-3.72,4.72-5.65,4.8,1.11,9.54,2.45,14.22,4-1.55,2.32-3.36,4.64-4.4,6.5-8,14.35-12.13,31.27-6.52,47.25,5.75,16.36,19.59,29,33,39.24C524,431.24,539,440.6,555,440.67a97.28,97.28,0,0,0,20.16-2.49c2,1,3,2.95,4,4.87a12.19,12.19,0,0,1,1.84,7.86C576.89,454,572.22,456.77,568.18,459.43Zm17.66-12.72a15.8,15.8,0,0,0-2-5.68,24.1,24.1,0,0,0-2.84-4.41,18.84,18.84,0,0,1,3.13-.58c3.16-.27,3.62-3,4.88,3C589.72,442.33,588.08,444.41,585.84,446.71Z"/><path class="cls-10" d="M487.07,416c-18-6.87-36.12,26.61-15.05,32.9a3.87,3.87,0,0,0,.77.13c8.87,1.2,22-1.82,26.51-10.4C504,429.63,495.33,419.12,487.07,416Zm-14.22,29.27c-13.24-4.3,2.25-38.14,18.15-21.87C504,436.64,485.34,446.66,472.85,445.25Z"/></g></svg>