<svg xmlns="http://www.w3.org/2000/svg" xmlns:xlink="http://www.w3.org/1999/xlink" viewBox="0 0 882 768"><defs><style>.cls-1{isolation:isolate;}.cls-2{fill:#ebf0f8;}.cls-3{fill:#c4e0f9;}.cls-4{fill:url(#Degradado_sin_nombre_10);}.cls-5{fill:url(#Degradado_sin_nombre_10-2);}.cls-6{fill:url(#Degradado_sin_nombre_10-3);}.cls-7{fill:url(#Degradado_sin_nombre_10-4);}.cls-8{fill:url(#Degradado_sin_nombre_10-5);}.cls-9{fill:url(#Degradado_sin_nombre_10-6);}.cls-10{fill:none;}.cls-11{fill:#67aaf9;}.cls-12{fill:#fff;}.cls-13{fill:url(#linear-gradient);}.cls-14{fill:url(#linear-gradient-2);}.cls-15{fill:url(#linear-gradient-3);}.cls-16,.cls-17{fill:#4191e0;}.cls-17{opacity:0.3;mix-blend-mode:multiply;}.cls-18{fill:#494949;}.cls-19{fill:url(#linear-gradient-4);}.cls-20{fill:url(#linear-gradient-5);}.cls-21{fill:url(#linear-gradient-6);}</style><linearGradient id="Degradado_sin_nombre_10" x1="664.5" y1="517.39" x2="823.99" y2="443.81" gradientUnits="userSpaceOnUse"><stop offset="0" stop-color="#c4e0f9"/><stop offset="0.06" stop-color="#bfddf9"/><stop offset="0.38" stop-color="#abd2f7"/><stop offset="0.7" stop-color="#9ecbf5"/><stop offset="1" stop-color="#9ac9f5"/></linearGradient><linearGradient id="Degradado_sin_nombre_10-2" x1="460.37" y1="440.05" x2="255.57" y2="640.62" xlink:href="#Degradado_sin_nombre_10"/><linearGradient id="Degradado_sin_nombre_10-3" x1="689.2" y1="570.93" x2="848.69" y2="497.35" xlink:href="#Degradado_sin_nombre_10"/><linearGradient id="Degradado_sin_nombre_10-4" x1="291.61" y1="480.04" x2="179.19" y2="564.36" xlink:href="#Degradado_sin_nombre_10"/><linearGradient id="Degradado_sin_nombre_10-5" x1="248.12" y1="422.05" x2="135.7" y2="506.37" xlink:href="#Degradado_sin_nombre_10"/><linearGradient id="Degradado_sin_nombre_10-6" x1="587.96" y1="559.35" x2="383.16" y2="759.92" xlink:href="#Degradado_sin_nombre_10"/><linearGradient id="linear-gradient" x1="402.91" y1="504.15" x2="378.1" y2="554.82" gradientUnits="userSpaceOnUse"><stop offset="0" stop-color="#0fa"/><stop offset="0.13" stop-color="#07dfad"/><stop offset="0.31" stop-color="#0fbab0"/><stop offset="0.48" stop-color="#159db3"/><stop offset="0.66" stop-color="#1989b5"/><stop offset="0.83" stop-color="#1c7cb6"/><stop offset="1" stop-color="#1d78b6"/></linearGradient><linearGradient id="linear-gradient-2" x1="381.06" y1="493.45" x2="356.25" y2="544.12" xlink:href="#linear-gradient"/><linearGradient id="linear-gradient-3" x1="380.5" y1="493.18" x2="355.7" y2="543.85" xlink:href="#linear-gradient"/><linearGradient id="linear-gradient-4" x1="245.4" y1="-470.11" x2="245.4" y2="-428.55" gradientTransform="matrix(0.9, -0.43, 0.43, 0.9, 653.93, 859.85)" xlink:href="#linear-gradient"/><linearGradient id="linear-gradient-5" x1="122.32" y1="-469.19" x2="122.32" y2="-427.62" gradientTransform="matrix(0.9, -0.43, 0.43, 0.9, 653.93, 859.85)" xlink:href="#linear-gradient"/><linearGradient id="linear-gradient-6" x1="182.74" y1="-419.64" x2="182.74" y2="-363.15" gradientTransform="matrix(0.9, -0.43, 0.43, 0.9, 653.93, 859.85)" xlink:href="#linear-gradient"/></defs><title>Artboard 1 copia 7</title><g class="cls-1"><g id="fondo"><rect class="cls-2" x="277.64" y="69.25" width="217.77" height="52.1" rx="22.99" ry="22.99" transform="translate(21.97 255.25) rotate(-37.54)"/><rect class="cls-2" x="740.5" y="168.56" width="146.29" height="52.1" rx="24.68" ry="24.68" transform="translate(49.91 536.06) rotate(-37.54)"/><rect class="cls-2" x="-8.33" y="517.7" width="169.58" height="52.1" rx="24.68" ry="24.68" transform="translate(-315.48 159.18) rotate(-37.54)"/><path class="cls-2" d="M753.7,528.37a24.26,24.26,0,0,1,34,4.46l2.19,2.85a24.24,24.24,0,0,1-4.45,34L553.07,748.25a24.26,24.26,0,0,1-34-4.45L516.87,741a24.26,24.26,0,0,1,4.45-34l48.36-37.72a15.69,15.69,0,0,0,2.89-22l-1.41-1.82a15.69,15.69,0,0,0-22-2.89L405,755.12a26.05,26.05,0,0,1-36.53-4.78h0a26,26,0,0,1,4.78-36.53l39.22-30.13h0a15.54,15.54,0,0,0,2.85-21.8l-1.39-1.81a15.54,15.54,0,0,0-21.8-2.85L309.3,721.69a26,26,0,0,1-36.53-4.78h0a26.06,26.06,0,0,1,4.78-36.53L425.69,566.53a15.7,15.7,0,0,0,2.88-22l-1.41-1.83a15.7,15.7,0,0,0-22-2.88L309.3,614.75A26,26,0,0,1,272.77,610h0a26.06,26.06,0,0,1,4.78-36.53l76.95-59.83a15.27,15.27,0,0,0,2.8-21.42l-1.36-1.77a15.28,15.28,0,0,0-21.42-2.81L160.76,622a26.06,26.06,0,0,1-36.53-4.79h0A26,26,0,0,1,129,580.65L287.67,458.82a15.55,15.55,0,0,0,2.85-21.8l-1.39-1.81a15.56,15.56,0,0,0-18.08-5l-52.69,40.51A26,26,0,0,1,181.83,466h0a26.06,26.06,0,0,1,4.79-36.53L340.93,310.59a15.29,15.29,0,0,0,2.81-21.45l-1.37-1.78a15.29,15.29,0,0,0-21.45-2.81l-2,1.85a8.14,8.14,0,0,1-.63.54l-9,7a26,26,0,0,1-36.53-4.78h0a26.06,26.06,0,0,1,4.78-36.53L501.78,80.32a26,26,0,0,1,36.53,4.78h0a26,26,0,0,1-4.78,36.53L508.2,141.55l-.09.23a15.42,15.42,0,0,0-2.83,21.62l1.38,1.79A15.42,15.42,0,0,0,528.28,168L643.4,78.44a26,26,0,0,1,36.53,4.78h0a26.06,26.06,0,0,1-4.79,36.53l-85.75,65.89h0a15.49,15.49,0,0,0-.16,19.11l1.38,1.8a15.51,15.51,0,0,0,21.75,2.85l45.21-34.92a26,26,0,0,1,36.53,4.78h0a26.06,26.06,0,0,1-4.78,36.53L553.5,319.61a15.36,15.36,0,0,0-2.82,21.53l1.38,1.79a15.34,15.34,0,0,0,21.53,2.82l105.79-81.08a26,26,0,0,1,36.52,4.78h0A26,26,0,0,1,711.12,306L600.49,391.45a15.19,15.19,0,0,0-2.79,21.31l1.36,1.77a15.19,15.19,0,0,0,21.31,2.79h0l56.94-44.13A26,26,0,0,1,713.84,378h0a26.06,26.06,0,0,1-4.79,36.53L660,452a15.6,15.6,0,0,0-2.86,21.86l1.4,1.82a15.6,15.6,0,0,0,21.86,2.86l72.31-56.33A26.06,26.06,0,0,1,789.26,427h0a26.06,26.06,0,0,1-4.78,36.53L680.31,542.58a15.62,15.62,0,0,0-2.87,21.91l1.39,1.82a15.64,15.64,0,0,0,21.92,2.87Z"/><path class="cls-3" d="M801.26,212.65c-20,5.7-36,16.68-44.82,27.45A26,26,0,0,0,792.18,244L833.73,212C826.05,209.81,815.08,208.7,801.26,212.65Z"/><path class="cls-4" d="M671,539a56.12,56.12,0,0,0,5.66,7.61,15.41,15.41,0,0,1,3.64-4l74.22-56.35c-4.11-6.17-11.29-14.52-21.82-18.57-13-5-28.05-4.14-42.19,3l-10.1,7.87a15.86,15.86,0,0,1-4.9,2.52l-.39.34C657.3,497.82,660.05,521.13,671,539Z"/><path class="cls-5" d="M272.77,610h0a26,26,0,0,0,36.53,4.78L402.86,542c-44.6,6.38-96.14,19.87-129.82,36A26,26,0,0,0,272.77,610Z"/><path class="cls-6" d="M754.65,552.66c5.19-5.19,13.66-19.13,19.2-28.7a24.22,24.22,0,0,0-20.15,4.41l-46.69,36c1.32.28,2.59.5,3.76.65C721.74,566.37,746.42,560.89,754.65,552.66Z"/><path class="cls-7" d="M276.16,514.27a51.73,51.73,0,0,0,13.71-35.64l-5.16-17.54L208,520c3.84,3.08,10.34,7,20.22,9.32C246,533.47,261.08,530.72,276.16,514.27Z"/><path class="cls-8" d="M211.72,427.9c-20.12,5.63-29.84,18.83-34.45,28.76a26.06,26.06,0,0,0,41.09,14.09l46.87-36A67.39,67.39,0,0,0,211.72,427.9Z"/><path class="cls-9" d="M528.53,536.1c-21.64-4.05-78.12-13.54-106.77-8.49l4.23,5.71s5.77,1.3,10.27,8.35,2.28,16.29-2.41,20.12h0L284.55,676.55a26.06,26.06,0,0,0-4.78,36.53h0a26,26,0,0,0,36.53,4.78l82.79-64.49a15.55,15.55,0,0,1,21.8,2.86l1.39,1.81a15.54,15.54,0,0,1-2.85,21.8h0l-38.75,29.78c-11.58,8.9-14.06,25.87-4.94,37.28A26.06,26.06,0,0,0,412,751.29L556.15,638.67a15.7,15.7,0,0,1,22,2.88l1.41,1.83a15.69,15.69,0,0,1-2.89,22l-48.36,37.72a24.25,24.25,0,0,0-4.45,34l2.19,2.86a24.26,24.26,0,0,0,34,4.45L734.24,610.58c-18.93-12.94-92.32-59.34-187.94-71.73C540.35,538.08,534.42,537.2,528.53,536.1Z"/></g><g id="colores"><path class="cls-10" d="M677.44,564.49l1.39,1.82a15.64,15.64,0,0,0,21.92,2.87l6.26-4.83a57,57,0,0,1-30.34-17.79A15.61,15.61,0,0,0,677.44,564.49Z"/><path class="cls-10" d="M690.52,470.64a67.07,67.07,0,0,0-15,10.39,15.86,15.86,0,0,0,4.9-2.52Z"/><path class="cls-11" d="M355,150.27s12.34,1.37,16.45,11c0,0-1.37-9.59,8.23-17.82,0,0-15.08-5.48-16.45-11C363.22,132.44,367.33,140.67,355,150.27Z"/><path class="cls-11" d="M173.42,568.91s7.68.86,10.25,6.83c0,0-.86-6,5.12-11.1,0,0-9.39-3.41-10.25-6.83C178.54,557.81,181.1,562.94,173.42,568.91Z"/><path class="cls-11" d="M663.24,198.38s7.68.86,10.24,6.83c0,0-.85-6,5.12-11.1,0,0-9.39-3.41-10.24-6.82C668.36,187.29,670.92,192.41,663.24,198.38Z"/><path class="cls-11" d="M506,478.13s7.68.85,10.24,6.83c0,0-.85-6,5.12-11.1,0,0-9.39-3.42-10.24-6.83C511.07,467,513.63,472.15,506,478.13Z"/><path class="cls-12" d="M465.43,558.89,476,557.83l5.28-16.89-2.11-14.78-4.23-11.61-10.55-8.44L458,499.77s-1.05-7.39,1.06-12.66,14.78-38,14.78-38l12.67-22.17-4.23-3.16L476,421.66,461.21,447l-7.39-4.22s-7.39-5.28-10.56-9.5-4.22-7.39-2.11-11.61,10.56-13.73,10.56-13.73-19-6.33-31.67,6.34-6.33,32.72,0,38L419,453.32s-13.73-1.05-24.28,8.45S382,477.6,382,477.6l7.39,4.23a24.79,24.79,0,0,1,27.44-6.34s-7.39,13.73-9.5,23.23-12.66,26.39-12.66,26.39-9.51,11.61-26.4,5.28l-2.11,7.39s7.39,5.27,21.12,8.44,26.39-5.28,26.39-5.28,8.44-14.78,10.55-16.89,10.56-4.22,19,1.06,14.78,11.61,16.89,15.83S465.43,554.67,465.43,558.89Z"/><path class="cls-3" d="M461.21,447l8.45-14.78s-1.06-9.5-7.39-15.83S451.71,409,451.71,409,438,419.54,440.1,426.93,445.38,439.6,461.21,447Z"/><polygon class="cls-11" points="478.1 420.6 488.66 426.93 491.82 412.15 486.55 398.43 482.32 397.38 481.27 404.76 478.1 420.6"/><polygon class="cls-11" points="378.87 483.94 380.98 478.66 389.43 482.88 385.2 486.05 378.87 483.94"/><path class="cls-11" d="M371.48,492.38s2.11-4.22,6.34-4.22,7.38,4.22,7.38,4.22v7.39l-7.38-1-5.28-3.17Z"/><polygon class="cls-11" points="347.2 548.33 354.59 526.16 367.26 529.33 365.15 543.05 356.7 543.05 352.48 549.39 348.26 550.44 347.2 548.33"/><path class="cls-11" d="M463.32,558.89l1.06,13.72s17.94,3.17,25.33-3.17l-1-1.05-11.61-5.28L476,557.83Z"/><path class="cls-11" d="M423.21,524.05s10.55-5.28,16.89,0l1-16.89L419,509.27l2.11,10.56Z"/><polygon class="cls-13" points="367.26 538.83 364.09 544.11 396.82 555.72 401.04 547.28 390.48 547.28 374.65 542 367.26 538.83"/><path class="cls-14" d="M368.31,530.39a28.58,28.58,0,0,0,28.51-5.28L401,514.55l-52.78-17.94-13.73,33.78,14.78,7.39,5.28-10.56A34.8,34.8,0,0,1,368.31,530.39Z"/><path class="cls-15" d="M363,499.77l4.22,2.11,3.17-9.5s7.39-7.39,11.61-4.22,2.11,20.06,2.11,20.06h6.33s0-18-2.11-20.06-7.39-5.28-11.61-4.22-13.72,9.5-13.72,9.5Z"/><polygon class="cls-3" points="463.32 444.88 467.54 446.99 472.82 437.49 469.66 435.38 463.32 444.88"/><path class="cls-3" d="M398.93,458.6l3.16,4.23,7.39-2.12v-6.33S401,456.49,398.93,458.6Z"/></g><g id="sombras_y_luces" data-name="sombras y luces"><path class="cls-16" d="M415.82,416.38s-1.06,21.11,16.89,31.67,37-12.67,37-12.67l-18,23.22s-13.72,5.28-24.28-1.05-12.67-12.67-12.67-12.67l-2.11-13.72Z"/><path class="cls-16" d="M447.49,461.77s-7.39,3.17-28.5,0-40.12,20.06-29.56,21.11l-3.17,4.23L383.09,485l-4.22-1.05s2.11-28.5,43.28-30.62C422.15,453.32,432.71,463.88,447.49,461.77Z"/><path class="cls-16" d="M388.37,480.77s5.28-14.78,34.84-11.61l-6.34,6.33S409.48,468.1,388.37,480.77Z"/><path class="cls-16" d="M377.82,488.16s-7.39,6.33,6.33,9.5l-1.06,1.06h-6.33l-6.33-4.23S372.54,486.05,377.82,488.16Z"/><polygon class="cls-17" points="364.09 495.55 368.31 497.66 366.2 502.94 360.93 500.83 364.09 495.55"/><polygon class="cls-17" points="385.2 502.94 390.48 504 389.43 509.27 383.09 507.16 385.2 502.94"/><path class="cls-17" d="M394.71,511.38s-12.67,20.06-26.4,18l1.06,2.11h3.17s11.61,4.22,23.22-7.39S394.71,511.38,394.71,511.38Z"/><polygon class="cls-17" points="364.09 543.05 395.76 555.72 399.98 547.28 383.09 545.16 366.2 537.78 364.09 543.05"/><polygon class="cls-17" points="337.7 523 352.48 530.39 349.31 537.78 333.48 530.39 337.7 523"/><path class="cls-16" d="M352.48,533.55s-2.11,7.39,12.67,6.34l-1.06,3.16h-6.33l-6.34,8.45-4.22-1.06S351.42,534.61,352.48,533.55Z"/><path class="cls-16" d="M369.05,530.81,374.3,532s-4.93,6.86,13,11.08,30.61-11.61,34.83-19l-4.22,11.61s-8.45,11.62-21.11,11.62-27.45-7.39-27.45-7.39l-3.17-2.11Z"/><path class="cls-16" d="M417.93,508.22s-3.17,1-3.17,4.22,3.17,13.72,8.45,14.78l-1.06-3.17Z"/><path class="cls-16" d="M424.26,501.88s-3.16-1.05-1.05,6.34l2.11-1.06Z"/><path class="cls-16" d="M434.82,501.88s-4.22,0-2.11,4.23c1.94,3.89,3.17-1.06,3.17-1.06Z"/><path class="cls-16" d="M441.15,521.94S458,523,464.38,535.66s2.11,20.06,13.72,18L476,557.83H465.43s0-14.78-9.5-22.17-15.83-11.61-15.83-11.61Z"/><path class="cls-16" d="M465.43,558.89s-1.05,14.78,23.23,11.61c0,0-4.23,3.17-14.78,3.17s-11.61-2.11-11.61-2.11Z"/><path class="cls-16" d="M453.82,460.71s15.84-12.66,30.61-44.33c2.12-6.34-2.11-17.95-2.11-17.95l-2.11,15.84-19.44,33.16Z"/></g><g id="líneas"><path class="cls-18" d="M570.76,540.65a489.45,489.45,0,0,0-50.88-7h-.32a246.15,246.15,0,0,0-36.22-1.23,33.54,33.54,0,0,0-9.53-21.5c-2.31-2.32-4.77-4.49-7.27-6.6-1.63-1.38-4.39-2.87-5.67-4.61-1.85-2.51-.15-9.37.63-12.37a147.86,147.86,0,0,1,5-14.46,236.55,236.55,0,0,1,14.07-30.62c2.43-4.43,5-8.82,7.72-13.08,2.28-3.55,5.53-6.77,6-11.13.76-6.65-1.16-16.2-6-21.21-1.82-1.89-3.63-2.61-6.14-1.5-3,1.33-3.23,3.61-3.56,6.61-.45,4.16.74,10.49-.79,14.11a79.16,79.16,0,0,1-6.61,11.6,33.38,33.38,0,0,0-21.7-23.15,30.68,30.68,0,0,0-33.94,11,29.73,29.73,0,0,0,1.64,36.54c-18.18.78-34.56,13.89-40.44,31.09-8,.89-14.95,7.11-17.45,14.87-3.2-1.13-6.38-2.26-9.56-3.43-1.51-.56-3.57.91-4,2.26a1.78,1.78,0,0,0-.77.74q-7,16.86-13,34.08c-.14.42.5.55,1.37.48a3.11,3.11,0,0,0,1,.86c4.06,2.18,8.32,4,12.55,5.83-1.43,4.28-2.42,8.61-1.81,11.32a503.73,503.73,0,0,0-58.38,20.73,65.57,65.57,0,0,0-6.61,7.15,487.39,487.39,0,0,1,89.27-30.17c3.36,1.32,6.73,2.6,10.11,3.88,4.92,1.86,10.2,4.89,15.31,6,4.68,1,6.17-5.33,7.9-8.65a1.6,1.6,0,0,0-.13-1.63c6.73-1.47,12.72-3.45,17.11-9.22a45.45,45.45,0,0,0,3.46-5.44c.74-1.33,1.42-2.69,2.08-4.05.51-1.06,1.1-3.86,1.83-4.44,1.25-1,5.38-1.05,6.74-1,3.74,0,6.89,2.11,9.91,4.1,10.6,7,18.5,16.84,18.83,30a1,1,0,0,0,.29.61c-1,.21-2.09.6-2.16,1.32a51,51,0,0,0-.22,7.21c0,.83,1.13,6,.72,6.52s.69.58.83.59c5.93.48,11.92.95,17.87.33,3.32-.34,9.64-.59,12.12-3.32,2.94-3.23-2-4.16-4.27-4.85a45.2,45.2,0,0,1-5.36-1.72c-.29-.14-1.63-.35-1.9-.64-.64-.69-.47-4.66-.56-5.55,0-.15-.16-.25-.38-.32a3.44,3.44,0,0,0-.67-.26,56.23,56.23,0,0,0,4.53-20.09,246.14,246.14,0,0,1,39.15,1.37,1.46,1.46,0,0,0,.82-.1c75.13,7.38,147.48,33,211.11,73.57a1.57,1.57,0,0,0,.48.2l4.9-3.58c-.1-.09-.19-.17-.31-.26A485.44,485.44,0,0,0,570.76,540.65Zm-87.1-126.49c.77-2.8-.51-6.13-.37-9a36,36,0,0,1,.57-5.61c0-.2.06-.34.08-.45.33.66,1.19,2,1.39,2.35,1.94,3,2.62,6.24,3.26,9.73.5,2.71,1.12,5.84.57,8.57a11.49,11.49,0,0,1-2.14,4.38,19.81,19.81,0,0,1-6.67-3.37A25.14,25.14,0,0,0,483.66,414.16ZM470,437.35l.53-.85c.21.15.56.4.94.65l-.06.11c-1,1.12-1.58,3-2.27,4.32-.39.74-1.27,3.37-2,3.63a3.88,3.88,0,0,1-2-.69C466.75,442.15,468.38,439.77,470,437.35Zm-3.25-3.81a1.88,1.88,0,0,0,.25,1c-2.26,3.56-4.62,7.05-7,10.5a36.12,36.12,0,0,1-10.77-7.2c-2.6-2.42-7.53-6.29-7.57-10.12-.07-6.13,6.17-12.81,10.9-16.6C460.48,415.28,466.56,423.28,466.71,433.54Zm-46.58-15.83c7.18-9.78,18.73-11.74,28.54-8.3-5.54,4.67-13.48,13.74-9.93,20.47,2.07,3.93,6.38,7.55,9.7,10.39a42.25,42.25,0,0,0,10.24,6.5c-2.44,3.46-4.91,6.89-7.38,10.33a2.68,2.68,0,0,0-.79.25c-10.19,5.24-23.14-.3-29.84-8.77A25.93,25.93,0,0,1,420.13,417.71Zm-11.66,40.65c.07,1.58-.41,1.94-1.92,2.27-1,.23-2.1.42-3.14.63a8.77,8.77,0,0,1-1.52.35c-.38-.13-.66-1.18-.82-1.69a2.12,2.12,0,0,0-.84-.94,34.49,34.49,0,0,1,8.12-3C408.4,456.79,408.44,457.57,408.47,458.36ZM404,500.5a99,99,0,0,1-3.74,10.64c-2.76-.8-5.5-1.61-8.25-2.43,1-7.3,2.08-16.61-2.88-21.8a1.78,1.78,0,0,0,.28-.32,22.7,22.7,0,0,1,24.8-9.58A101.37,101.37,0,0,0,404,500.5Zm-21.72-14.14c3.46,1.16,5,3.91,5.52,7.21a15.19,15.19,0,0,0-3.63-5.48,2.14,2.14,0,0,0-.91-.42,3.28,3.28,0,0,0-1.91-.81,16.37,16.37,0,0,0-7.72.59A10.3,10.3,0,0,1,382.29,486.36Zm-2.41,2.69a9.94,9.94,0,0,1,3.08,6.2,4.2,4.2,0,0,1-.45,2.69c-1,1-2.79-.09-3.84-.51-2.06-.85-6.85-2.63-4.86-5.55A7.56,7.56,0,0,1,379.88,489.05Zm-10.47,12,1.59-4.34a29.13,29.13,0,0,0,4.3,2.15,22.86,22.86,0,0,0,7.55,2.07,40.91,40.91,0,0,1-.89,4.67q-6.39-2-12.74-4.16A2.35,2.35,0,0,0,369.41,501.05Zm17.33-1.18.23-.17a4.11,4.11,0,0,0,1.06-1.53,88,88,0,0,1-1.09,9l-1.33-.41A41.72,41.72,0,0,0,386.74,499.87ZM385,483.71a3.6,3.6,0,0,0-.2.39,15.08,15.08,0,0,0-2.21-.65,18.87,18.87,0,0,0-1.93-.31,1.6,1.6,0,0,0,.35-.57c.18-.57.36-1.14.56-1.71a12.13,12.13,0,0,1,4.24,1.77C385.53,483,385.25,483.34,385,483.71Zm-20.7,16a22.76,22.76,0,0,1,3.76-7.17,2.86,2.86,0,0,0,.15,1.2v0l-2.4,6.52-1.52-.52S364.28,499.72,364.29,499.7ZM348,535.45c-3.67-1.58-7.35-3.16-10.9-5q5.47-15.74,11.8-31.15,24.43,8.91,49.44,16.09c-5.52,10.78-14.14,19.24-28,15.13.1-.33.2-.66.31-1a.27.27,0,0,0-.09-.4,52.76,52.76,0,0,0-6.16-2.47c-.82-.27-6.8-1.22-7-1.6-.6-1.09-4.67,0-5.11.92-.58,1.3-2.42,5.17-4.1,9.59Zm11.17,8.12c.8.17,1.6.34,2.41.54a1.52,1.52,0,0,0,.32,0,3.31,3.31,0,0,0,1.44,1.23c-2.16.53-4.32,1.06-6.47,1.62C357.64,545.83,358.4,544.64,359.12,543.57Zm-2.92-15.79c2.49.5,5.41.87,6.49,1.53,3.39,2.08,1.8,4.43.87,7.45-.3.94-.62,3.12-1.17,4.76l-.25.05c-.69-.13-1.38-.26-2.09-.36-1.37-.21-3.74,0-4.67,1.22-1.19,1.51-2.57,4-4.11,6.05l-1.18.33C349.15,543.94,353.81,533.05,356.2,527.78Zm39.35,23.87c-.23.41-1.44,2.32-1.16,2.26-.21.05-4.29-1.89-5.23-2.26-7.61-3-15.29-5.77-22.85-8.85a6.23,6.23,0,0,0,1.15-2.71c9.41,4.91,19.22,9.08,29.83,8.23C396.72,549.44,396.15,550.55,395.55,551.65Zm29.6-30.33a5.37,5.37,0,0,0-2.24,1.11,21.64,21.64,0,0,1-.79-11.14c.58-.14,1.16-.26,1.74-.38.34,1.76,3.79,2.91,3.61.72,0-.45-.07-.9-.1-1.36,1.51-.24,3-.44,4.55-.58.43,0,1-.11,1.6-.19,0,.42.05.84.09,1.26.16,1.85,3.82,3.13,3.63.87-.07-.84-.12-1.68-.17-2.53a14.78,14.78,0,0,1,2.6,0c.53,4.1-.44,9-.72,13A24.14,24.14,0,0,0,425.15,521.32Zm26.58,8.34a59.77,59.77,0,0,0-8.06-5.41,2.38,2.38,0,0,0,.25-.92c.26-4.1.55-8.2.64-12.3.05-2.41.05-5-2.57-6a12.59,12.59,0,0,0-5-.54c0-.44,0-.88,0-1.32.06-1.88-3.56-3.17-3.63-.87,0,.83,0,1.66,0,2.49l-1.06.08c-1.7.13-3.4.33-5.09.57,0-.76,0-1.51,0-2.27.06-1.88-3.56-3.17-3.63-.87,0,1.24,0,2.49,0,3.74-1.41.26-2.81.55-4.21.87a1.6,1.6,0,0,0-1.27,1,.23.23,0,0,0-.12.15,22.86,22.86,0,0,0,2.53,15.64,7.64,7.64,0,0,0,.65.91c-1.15,2-1.83,4.61-3,6.66-2.22,4-4.91,8-9,10.34-3.57,2.07-7.93,2.93-11.94,3.69-10.52,2-20-2.73-29-7.55l-.18-.08,1.86-6c5.6,1.39,11.82,1.84,17.29.41,8.39-2.2,14-10.18,17.42-17.68,3.7-8.23,4.94-17.31,8.76-25.46a117.2,117.2,0,0,1,11.83-19.87s-4.38-2-5.2-.86c-1.19,1.6-2.3,3.22-3.38,4.86-10.52-3.4-21.43-.77-28.81,7.06a16.11,16.11,0,0,0-5-2.59,39,39,0,0,1,15.27-17.41,6.3,6.3,0,0,0,7.55,3.82c1.56-.31,4.51-.31,5.68-1.54s.42-4.55.33-6.19a1.33,1.33,0,0,0-.34-.75,34.67,34.67,0,0,1,8-.13,1.9,1.9,0,0,0,.84-.16c8.81,7.78,22.14,11.48,32.92,5.95a2,2,0,0,0,1.26-1.79,1,1,0,0,0,.17-.19c3-4.17,6-8.31,9-12.49l.06,0c1.32.65,3.92,2.68,5.5,2,.73-.3,1-1.14,1.38-1.79.7-1.3,1.38-2.62,2.06-3.93s2.57-3.59,2.33-5.34c-.2-1.54-1.69-2.55-3.05-3.36q2.53-4.05,5-8.17c.57-1,1.26-2,2-3.09a25,25,0,0,0,6.36,3.66c-10.31,14.89-18.18,31.83-24.42,48.77-2.8,7.63-6.29,15.61-5.31,23.93.44,3.81,5,5.9,7.79,8.3,5.82,5,11,9.95,13.44,17.47,3.39,10.59,1.71,22.13-2.56,32.2l-6.47.26C467.13,546,460.72,536.67,451.73,529.66Zm30.72,37.5c.62.2,3.32.59,3.7,1.1,3.12,4.26-5.85,3.94-7.28,4-1.85.08-11.5.66-12.46-.25s-.66-5.5-.72-6.69a51.7,51.7,0,0,1,.11-5.84l4.11-.16a35.26,35.26,0,0,1,4.21-.37,1.71,1.71,0,0,0,.75.29c.2,1.87.46,3.69.82,5.55a.53.53,0,0,0,.44.3C478.23,565.81,480.33,566.5,482.45,567.16Z"/><path class="cls-18" d="M263,435.57c1.56,1,6.33-.13,3.83-1.72-27.47-17.6-74.84-12.68-89.17,20a33.83,33.83,0,0,0,1,4.15c1.23.27,2.62,0,2.95-.82C193.59,426,236.94,418.88,263,435.57Z"/><path class="cls-18" d="M289.43,461.94a2.55,2.55,0,0,0-2-1.24c-.92.71-1.88,1.44-2.76,2.1,6.95,18.83,2.85,41-12.23,54.88-16.92,15.56-42.55,15.4-60.85,2.51a2.53,2.53,0,0,0-1-.36L208,522.07c18.73,13,44.59,14.75,63.78,1.51C291.36,510,297.75,483.69,289.43,461.94Z"/><path class="cls-18" d="M662.72,496.77A97.64,97.64,0,0,0,633,504.12c-3.36,1.45-7.87,2.92-7.72,7.31.12,3.62,3.15,5.22,6.27,5.83a252,252,0,0,0,30.68,3.56c2.2,9.64,7.19,18.44,13.78,26.11.33-.55.65-1,.93-1.41a5.15,5.15,0,0,0-.4-.5,44.58,44.58,0,0,1-10.62-23.95l4.24.29c11.89.82,23.8,1.19,35.71,1.22l5.11-3.74a4,4,0,0,0-3.6-2.59q-20.94,0-41.84-1.58c.1-15,7-30.06,19.56-39.37,20.39-15.16,52-12.95,67.37,8.54,1.44,2,5.15,4.32,2.38.44-17.06-23.87-49.37-32.67-74-14.34A49.47,49.47,0,0,0,662.72,496.77ZM649,513.13c-4.73-.52-9.47-1.4-14.2-1.76-2.12-.17-3,.16-.44-.58,2.17-.63,4.29-1.84,6.43-2.6a93.87,93.87,0,0,1,20.57-4.79c-.22,1.71-.37,3.43-.42,5.17a47.54,47.54,0,0,0,.18,5.74C657.1,514,653.06,513.58,649,513.13Z"/><path class="cls-18" d="M771.1,523.46c-.67-.07-1.28-.1-1.83-.11-5.29,26.39-33.5,40.48-58.74,38.58l-3.58,2.6c.71,1.12,1.57,2.12,2.34,2.25,27.08,4.44,59.36-10.26,64.61-39.34C774.09,526.41,772.44,524.59,771.1,523.46Z"/><path class="cls-18" d="M831.15,212.63c-29.1-5.19-58.17,5-77.07,27.84.17-.21,5.67,3,6.57,2a79.19,79.19,0,0,1,72.28-28.29l1.14-.9C833.07,213,832,212.78,831.15,212.63Z"/><path class="cls-18" d="M506.32,57.91c1-.3,2.83-.92,2.38-2.37s-2.1-1-3.11-.73-3,.89-2.6,2.44S505.21,58.24,506.32,57.91Zm.59-.76a1.24,1.24,0,0,1-.34-.18l-.05-.06C507.19,56.87,507.54,57.37,506.91,57.15Z"/><path class="cls-18" d="M359.59,149.9a1.49,1.49,0,0,0,1.18.17,14.16,14.16,0,0,1,3.77-.51,14.6,14.6,0,0,1,7.42,2.06,16.78,16.78,0,0,1,7.64,10.53,1.86,1.86,0,0,0,.85,1.18,1.49,1.49,0,0,0,1.18.17,1.87,1.87,0,0,0,1.19-2.27c-2.16-8.9,2.77-18,11-20.21a1.94,1.94,0,0,0,.34-3.45,1.49,1.49,0,0,0-1.18-.17,14.36,14.36,0,0,1-11.19-1.55,16.74,16.74,0,0,1-7.64-10.53,1.83,1.83,0,0,0-.85-1.18,1.5,1.5,0,0,0-1.18-.17,1.87,1.87,0,0,0-1.19,2.27c2.15,8.9-2.77,18-11,20.21a1.85,1.85,0,0,0-1.19,2.27A1.88,1.88,0,0,0,359.59,149.9Zm9.81-5.2a20.69,20.69,0,0,0,4.59-8.47l.55-2,1.42,1.52a19,19,0,0,0,7.85,5l1.79.59-1.28,1.42a20.69,20.69,0,0,0-4.59,8.47l-.55,2-1.42-1.52a19,19,0,0,0-7.85-5l-1.79-.59Z"/><path class="cls-18" d="M197.79,561a1,1,0,0,0-.73-.11,9,9,0,0,1-7-1,10.47,10.47,0,0,1-4.76-6.56,1.23,1.23,0,0,0-.53-.74.94.94,0,0,0-.73-.1,1.15,1.15,0,0,0-.74,1.41c1.34,5.54-1.73,11.19-6.83,12.58a1.16,1.16,0,0,0-.75,1.42,1.18,1.18,0,0,0,.53.73.93.93,0,0,0,.74.11,8.93,8.93,0,0,1,2.35-.32,9.09,9.09,0,0,1,4.62,1.28,10.46,10.46,0,0,1,4.75,6.56,1.2,1.2,0,0,0,.53.74,1,1,0,0,0,.74.1,1.16,1.16,0,0,0,.74-1.41c-1.34-5.54,1.72-11.18,6.83-12.58a1.21,1.21,0,0,0,.21-2.15Zm-6.11,3.23a13,13,0,0,0-2.86,5.28l-.34,1.27-.89-.95a11.73,11.73,0,0,0-4.88-3.14l-1.11-.37.79-.88a12.94,12.94,0,0,0,2.86-5.28l.34-1.27.89,1a11.79,11.79,0,0,0,4.88,3.14l1.12.37Z"/><path class="cls-18" d="M666.1,198.15a.91.91,0,0,0,.73.11,8.93,8.93,0,0,1,2.35-.32,9.09,9.09,0,0,1,4.62,1.28,10.47,10.47,0,0,1,4.76,6.56,1.2,1.2,0,0,0,.53.74.94.94,0,0,0,.73.1,1.15,1.15,0,0,0,.74-1.41c-1.34-5.54,1.73-11.18,6.83-12.58a1.16,1.16,0,0,0,.75-1.42,1.18,1.18,0,0,0-.53-.73,1,1,0,0,0-.74-.11,9,9,0,0,1-7-1,10.46,10.46,0,0,1-4.75-6.56,1.23,1.23,0,0,0-.53-.74,1,1,0,0,0-.74-.1,1.16,1.16,0,0,0-.74,1.41c1.34,5.54-1.72,11.19-6.83,12.59a1.15,1.15,0,0,0-.74,1.41A1.18,1.18,0,0,0,666.1,198.15Zm6.11-3.23a12.86,12.86,0,0,0,2.85-5.28l.35-1.27.89.95a11.63,11.63,0,0,0,4.88,3.14l1.11.37-.79.88a13,13,0,0,0-2.86,5.28l-.34,1.27-.89-.95a11.79,11.79,0,0,0-4.88-3.14l-1.12-.37Z"/><path class="cls-18" d="M530.1,472.37a1.15,1.15,0,0,0,.75-1.41,1.17,1.17,0,0,0-.53-.74,1,1,0,0,0-.74-.1,9,9,0,0,1-7-1,10.41,10.41,0,0,1-4.75-6.55,1.17,1.17,0,0,0-.53-.74.92.92,0,0,0-.74-.1,1.15,1.15,0,0,0-.74,1.41c1.34,5.54-1.72,11.18-6.83,12.58a1.16,1.16,0,0,0-.74,1.41,1.17,1.17,0,0,0,.53.74.94.94,0,0,0,.73.1,8.92,8.92,0,0,1,2.35-.31,9.09,9.09,0,0,1,4.62,1.28,10.42,10.42,0,0,1,4.76,6.56,1.18,1.18,0,0,0,.53.73,1,1,0,0,0,.73.11,1.16,1.16,0,0,0,.74-1.42C521.93,479.41,525,473.77,530.1,472.37Zm-5.89,1.09a12.93,12.93,0,0,0-2.86,5.28L521,480l-.89-.94a11.81,11.81,0,0,0-4.88-3.15l-1.12-.37.8-.88a12.82,12.82,0,0,0,2.85-5.27l.35-1.27.89.94a11.75,11.75,0,0,0,4.88,3.15l1.11.37Z"/><path class="cls-18" d="M330.65,145a3.83,3.83,0,1,0-3.83-3.83A3.82,3.82,0,0,0,330.65,145Zm0-5.59a1.76,1.76,0,1,1-1.76,1.76A1.76,1.76,0,0,1,330.65,139.42Z"/><path class="cls-18" d="M625.42,114.85a3.83,3.83,0,1,0-3.83-3.83A3.84,3.84,0,0,0,625.42,114.85Zm0-5.59a1.76,1.76,0,1,1-1.76,1.76A1.76,1.76,0,0,1,625.42,109.26Z"/><path class="cls-18" d="M781.72,439a3.83,3.83,0,1,0,3.83,3.83A3.84,3.84,0,0,0,781.72,439Zm0,5.59a1.76,1.76,0,1,1,1.76-1.76A1.76,1.76,0,0,1,781.72,444.57Z"/><path class="cls-18" d="M358.07,405.51a3.83,3.83,0,1,0-3.83-3.83A3.84,3.84,0,0,0,358.07,405.51Zm0-5.59a1.76,1.76,0,1,1-1.76,1.76A1.76,1.76,0,0,1,358.07,399.92Z"/><path class="cls-18" d="M470,238.72a3.83,3.83,0,1,0-3.83-3.83A3.84,3.84,0,0,0,470,238.72Zm0-5.59a1.76,1.76,0,1,1-1.76,1.76A1.76,1.76,0,0,1,470,233.13Z"/><path class="cls-18" d="M65.36,550.72a3.83,3.83,0,1,0,3.83,3.83A3.83,3.83,0,0,0,65.36,550.72Zm0,5.59a1.76,1.76,0,1,1,1.76-1.76A1.76,1.76,0,0,1,65.36,556.31Z"/><path class="cls-18" d="M836.56,184.77a3.83,3.83,0,1,0-3.83-3.83A3.83,3.83,0,0,0,836.56,184.77Zm0-5.59a1.76,1.76,0,1,1-1.76,1.76A1.76,1.76,0,0,1,836.56,179.18Z"/><path class="cls-18" d="M750.29,442.13h3.52v3.52a1,1,0,1,0,2.08,0v-3.52h3.52a1,1,0,0,0,0-2.07h-3.52v-3.52a1,1,0,0,0-2.08,0v3.52h-3.52a1,1,0,0,0,0,2.07Z"/><path class="cls-18" d="M696.82,285.84h3.52v3.52a1,1,0,0,0,2.08,0v-3.52h3.52a1,1,0,0,0,0-2.07h-3.52v-3.53a1,1,0,0,0-2.08,0v3.53h-3.52a1,1,0,0,0,0,2.07Z"/><path class="cls-18" d="M300.6,401h3.52v3.52a1,1,0,1,0,2.07,0V401h3.52a1,1,0,1,0,0-2.07h-3.52v-3.52a1,1,0,0,0-2.07,0v3.52H300.6a1,1,0,1,0,0,2.07Z"/><path class="cls-18" d="M398.77,348.22h3.52v3.52a1,1,0,1,0,2.07,0v-3.52h3.52a1,1,0,1,0,0-2.07h-3.52v-3.52a1,1,0,1,0-2.07,0v3.52h-3.52a1,1,0,0,0,0,2.07Z"/><path class="cls-18" d="M113,505.19h-3.52v-3.52a1,1,0,1,0-2.07,0v3.52h-3.52a1,1,0,1,0,0,2.07h3.52v3.52a1,1,0,0,0,2.07,0v-3.52H113a1,1,0,0,0,0-2.07Z"/><path class="cls-18" d="M379.51,245.29a1.33,1.33,0,0,0-1.66-.86l-4.15,1.31-1.31-4.15a1.33,1.33,0,0,0-2.53.8l1.32,4.15L367,247.85a1.33,1.33,0,0,0,.4,2.59,1.39,1.39,0,0,0,.4-.06l4.15-1.32,1.32,4.16a1.31,1.31,0,0,0,1.26.92,1.44,1.44,0,0,0,.4-.06,1.33,1.33,0,0,0,.86-1.66l-1.31-4.15,4.15-1.32A1.32,1.32,0,0,0,379.51,245.29Z"/><path class="cls-18" d="M473.73,277.48a1.32,1.32,0,1,0-2.52.8l1.31,4.15-4.15,1.31a1.33,1.33,0,0,0,.79,2.53l4.15-1.31,1.32,4.15a1.33,1.33,0,0,0,1.26.92,1.39,1.39,0,0,0,.4-.06,1.33,1.33,0,0,0,.86-1.66l-1.31-4.15,4.15-1.31a1.33,1.33,0,0,0-.8-2.53L475,281.63Z"/><path class="cls-18" d="M617,144.87a1.39,1.39,0,0,0,.4-.06l4.15-1.32,1.31,4.16a1.33,1.33,0,0,0,2.53-.8L624,142.7l4.16-1.32a1.32,1.32,0,0,0-.8-2.52l-4.15,1.31L621.91,136a1.32,1.32,0,1,0-2.52.8L620.7,141l-4.15,1.31a1.33,1.33,0,0,0,.4,2.59Z"/><path class="cls-18" d="M452.43,51.64a1.32,1.32,0,0,0,.39-.06L457,50.27l1.31,4.15a1.33,1.33,0,0,0,1.26.92,1.39,1.39,0,0,0,.4-.06,1.32,1.32,0,0,0,.86-1.66l-1.31-4.15,4.15-1.31a1.33,1.33,0,1,0-.79-2.53l-4.16,1.31-1.31-4.15a1.32,1.32,0,1,0-2.52.8l1.31,4.15L452,49.05a1.33,1.33,0,0,0,.4,2.59Z"/><path class="cls-18" d="M611.22,490.71a1.33,1.33,0,0,0-1.66-.87l-4.16,1.32L604.09,487a1.32,1.32,0,0,0-2.52.8l1.31,4.15-4.15,1.32a1.32,1.32,0,0,0,.79,2.52l4.16-1.31,1.31,4.15a1.33,1.33,0,0,0,1.26.92,1.39,1.39,0,0,0,.4-.06,1.32,1.32,0,0,0,.86-1.66l-1.31-4.15,4.15-1.31A1.33,1.33,0,0,0,611.22,490.71Z"/><path class="cls-19" d="M674.53,331.58c3.11-.55,6.32-.36,8.71.95a9.39,9.39,0,0,1,4.33,5.61,28.75,28.75,0,0,1,1,7.21l1.11,23.2h0l-17.44-15.32a29,29,0,0,1-5-5.24,9.38,9.38,0,0,1-1.69-6.89,13.66,13.66,0,0,1,4.69-7.4A18.06,18.06,0,0,1,674.53,331.58Z"/><path class="cls-20" d="M564.05,385.83c3.11-.55,6.32-.36,8.71.95a9.39,9.39,0,0,1,4.33,5.61,28.69,28.69,0,0,1,1,7.21l1.11,23.19h0l-17.44-15.32a29,29,0,0,1-5-5.24,9.39,9.39,0,0,1-1.69-6.89,13.59,13.59,0,0,1,4.69-7.4A18.06,18.06,0,0,1,564.05,385.83Z"/><path class="cls-21" d="M641.4,404.81c4.41-.84,9-.66,12.3,1.07a12.32,12.32,0,0,1,6,7.59,37.78,37.78,0,0,1,1.16,9.86l1,31.78h0l-24.26-20.56a37.54,37.54,0,0,1-7-7.05,12.27,12.27,0,0,1-2.21-9.4c.73-3.7,3.42-7.36,6.82-10.28A26.81,26.81,0,0,1,641.4,404.81Z"/><path class="cls-18" d="M676,330.66h0a1.52,1.52,0,0,0-.27.06c-5.75,1.66-12.39,6.3-12,13,.31,5.89,6.29,9.81,10.31,13.34l14,12.26c.48.42,3.54-1,3.51-1.66-.44-9.08-.1-18.6-1.46-27.59C688.76,332.39,683.19,329.59,676,330.66Zm-3.12,20.7c-2.55-2.32-5.27-5.07-5.68-8.68s2.32-9.11,6.13-10.29c3.58-.51,7.45-.33,10.15,2.41s3,6.39,3.26,9.86c.46,6.57.69,13.17,1,19.76C682.69,360.1,677.68,355.81,672.83,351.36Z"/><path class="cls-18" d="M565.18,384.88h0a1.59,1.59,0,0,0-.28.06c-5.75,1.66-12.39,6.3-12,13,.31,5.89,6.29,9.81,10.31,13.34l14,12.26c.48.42,3.53-1,3.5-1.66-.43-9.08-.1-18.6-1.45-27.59C578,386.62,572.42,383.81,565.18,384.88Zm-3.12,20.71c-2.55-2.33-5.27-5.08-5.68-8.69s2.33-9.11,6.13-10.29c3.58-.51,7.45-.33,10.16,2.41s3,6.39,3.25,9.86c.47,6.57.7,13.17,1,19.76C571.92,414.32,566.92,410,562.06,405.59Z"/><path class="cls-18" d="M655.39,405c-3.83-2-8.42-1.79-12.55-1.08h-.05a1.25,1.25,0,0,0-.26.05c-8.13,2.22-17.81,9.89-15.91,19.32,1.5,7.44,9.56,12.4,14.93,17L660,455.93c.49.42,3.52-1,3.5-1.66-.37-12.19,0-24.67-1.23-36.8C661.82,412.49,660.09,407.47,655.39,405Zm-18.82,26.34c-4-3.63-7.49-8.21-6.46-13.9.9-4.95,5.11-10.39,10.06-11.8,4.69-.77,10.06-.79,13.89,2.48,4,3.43,4.71,8.91,4.94,13.86.45,9.73.64,19.49.91,29.23C652.07,444.67,644.09,438.23,636.57,431.35Z"/><path class="cls-16" d="M508.78,263.19s29.12,55.36,38,66.41h0l50.54-12.54,26.38-32.69s-16.62-49.74-25.82-63c-49.67,50.57-89.07,41.81-89.07,41.81"/><circle class="cls-11" cx="576.07" cy="279.25" r="23.9"/><circle class="cls-3" cx="576.09" cy="279.23" r="12.95"/><polyline class="cls-16" points="563.67 353.54 581.09 375.98 561.84 371.84 556.24 359.93 553.73 352.04 562.84 353.18"/><path class="cls-11" d="M530.52,131.28a186.33,186.33,0,0,0-19.85-14.13,135.53,135.53,0,0,0-25-12.65s-13.39,36.65,2,97.84c0,0,10.07,38.66,22.31,59.28,0,0,43.38,4.64,87.87-40.24C597.85,221.38,577.09,169.16,530.52,131.28Z"/><path class="cls-11" d="M542.76,321.22c8.62,17.72,30.68,45.28,44.71,62l2.16,2.57C595.7,393,605,392,605,392l5.18-.06,29.11-14.37s10.72-4,10.33-6.08c-5.4-28.22-26-87.15-26-87.15C574.6,331.48,542.76,321.22,542.76,321.22Z"/><polygon class="cls-16" points="606.89 393.35 613.93 401 619.3 398.39 625.45 406.47 646.05 396.46 642.59 387.07 648.86 384.02 645.56 374.67 606.89 393.35"/><path class="cls-11" d="M554.56,384.79l.88,1.38,5-2.41-.13-3.12-1.53-.5-1.87-8.76a53.87,53.87,0,0,0-3.58-10.94l-1.66-3.65a39.18,39.18,0,0,0-6.15-9.62h0a62.59,62.59,0,0,0-14.59-12.41l-1.17-.72.77,3.3c-.35,9.31.08,12.73,2.92,21.6l1.43,3.15,1.17,2.4c2.57,6.82,5.13,9.55,9.71,15.22L548,382l2.35,2.32,3.12-1Z"/><path class="cls-11" d="M664.74,330.28l2,2.42,3.87-2.73-2.2-2.25,1.54-1.8s-7-35.22-26.34-45.19L640.93,278l-.1,2.84a80.09,80.09,0,0,0,3.77,27.49h0l1.53-.52c2.58,6.81,6.88,12.63,11.46,18.3l1.69,1.73,1.7,1.74,3.43,0Z"/><path class="cls-16" d="M484.15,108.32c6.47,75.11,82.56,267.36,140.34,279.5,0,0-5,12.41,16.46,2,0,0-21.31,10.15-4.39,10.78l-12.47,5.8-4.89-8.18-5.81,2.73-5.5-7-8.33,3.57-25.75-29.58a55,55,0,0,1-3.37-4.65L547,328.66l-24.65-40.77-17.88-35.54-11.7-30.87-8.24-29.89L481.28,164l-.63-29.59,2.08-19.61S484,106.67,484.15,108.32Z"/><path class="cls-16" d="M644.39,279.63s15.24,51.07,28.68,44.54l-1.19,2.37,1.31,2.68-6.27,3-1.31-2.69-4,.85-4.4-4.5-6.88,17.74-7.69-29.49,4.53-6.63-3.84-14.74-.26-6.83a44.8,44.8,0,0,1,.07-4.49l.26-3.93Z"/><path class="cls-16" d="M545.42,288.94s1.62,14.72,14.47,20.65,27.21-3.26,31.3-10.78c0,0-9.93,11.47-24.59,8.63S545.42,288.94,545.42,288.94Z"/><path class="cls-18" d="M590.8,299.47a25.8,25.8,0,0,0,8.37-31.54,1.27,1.27,0,0,0-.07-.12,1.66,1.66,0,0,0-.06-.16,25.08,25.08,0,0,0-26.44-13.4,26.78,26.78,0,0,0-21.19,19.14,24.93,24.93,0,0,0,10.68,27.42C570.93,306.36,582.45,305.55,590.8,299.47Zm-24.16-40.9c11.28-4.88,23.92.71,29.4,11.28,4.87,10.86,1.41,24.36-9.79,29.73s-24.78,0-30.12-10.9S555.14,263.55,566.64,258.57Z"/><path class="cls-18" d="M589.55,273.25c-8.28-15.41-35-4.66-27,12C570.22,301.12,596.89,290.06,589.55,273.25Zm-20.89-3.19c5.75-5.48,13.82-2.47,17.21,3.85,2.14,4.91,1.56,10.66-2.41,14.52-5.55,5.39-14,2.57-17.2-3.86A12.66,12.66,0,0,1,568.66,270.06Z"/><path class="cls-18" d="M468.62,66.81c.83,1.5,2.66.73,3.85.18s3-1.52,2.28-3.08-2.53-.76-3.62-.28S467.91,65.13,468.62,66.81ZM473,66a1.06,1.06,0,0,1-.42-.15s0,0-.07,0C473.28,65.66,473.76,66.17,473,66Z"/><path class="cls-18" d="M612.24,230.78c-9.19-20.8-19.76-41-33.09-59.43-15.3-21.18-33.8-40.32-55.07-55.57a153.74,153.74,0,0,0-23.81-14.32c-3.16-1.49-7.43-3.8-11.23-3.88L474.81,68.31c-.4-.82-3.8-.86-3.58-.42L486,98.26a.57.57,0,0,0,.24.25c-2.1,2.66-2.83,6.89-3.57,10a145.77,145.77,0,0,0-3.34,22.76c-1.85,24.57.75,49.47,6.56,73.37a254.4,254.4,0,0,0,10.05,31.73l1.18,3.06h0C504.37,257.56,513.34,275,523,292l2.46,4.32c1.14,2,2.28,4,3.44,6,9.6,16.5,19.82,32.68,30.79,48.32-1.66-.36-3.37-.6-4.77-.85A52,52,0,0,0,533,329.32a1.14,1.14,0,0,0-.48-.09l-4.77-9.8a2.93,2.93,0,0,0-.78-1,1.9,1.9,0,0,0,1-2.28.67.67,0,0,0-.19-.25c-.82-1.06-2.42-.89-3.57-.38-1,.42-2.12,1.49-1.58,2.65a2.08,2.08,0,0,0,2.25,1l5.26,10.82a.87.87,0,0,0-.31.47c-4.43,20.06,4.87,40.28,18.67,54.52.51.52,1.86.1,2.36-.15l1.24-.6,1.14,2.36c.46,1,2.42.65,3.13.3l6.14-3c.49-.2.79-.53.59-1l-1.6-3.29,1.9-.92c.43-.21,1.16-.58,1.08-1.16-.13-1-.29-1.93-.45-2.89a62.15,62.15,0,0,0,16.51,3.81c1.21,1.53,2.44,3.05,3.67,4.56l2.3,2.55a14.64,14.64,0,0,0,1.4,1.88c3.11,3.65,6.33,7.22,9.7,10.6a2.39,2.39,0,0,0,2.55.47l7.06-3.43a1.27,1.27,0,0,0-.07.37l2.34,2.87,1.89,3a2.35,2.35,0,0,0,2.55.47l4.53-2.2q2.13,3.45,4.25,6.9a2.24,2.24,0,0,0,2.74.78l21-10.21c.55-.26,1.13-.71.88-1.4l-3.16-8.56,5.1-2.48c.54-.26,1.11-.71.87-1.4s-.53-1.49-.8-2.23l-1.64-5.57,7.5-3.65c.39-.19,1-.52.94-1.07-.63-5.14-1.56-10.27-2.63-15.37l-1.21-5.57c-.41-1.84-.84-3.67-1.27-5.5A62.63,62.63,0,0,0,657.51,328c.75.85,1.51,1.67,2.29,2.47.47.49,3.08-.4,3.61-.65l.09-.05c0,.05,0,.11,0,.16l1.74,3.58c.15.3.43.32.75.17l.2-.08,6.27-3.05c.73-.35,1.92-1.89,1.5-2.77l-1.23-2.52,3.18-1.54,0-.06c-2.65-19.55-12.75-39.19-31.16-48.05a.84.84,0,0,0-.24-.06l-5.16-10.62a.93.93,0,0,0-.51-.39,1.53,1.53,0,0,0,.48-2c-.68-1.34-2.67-1.8-4-1.45a1.69,1.69,0,0,0-1.32,2.22c0,.07.07.13.1.19s0,.05,0,.08a2.88,2.88,0,0,0,1.71,1.24l5.5,11.32a.38.38,0,0,0-.16.2c-2.25,10.18-.92,20.39,2.73,29.83q-1.05,2-2.18,3.95c-4.43-14.54-9.42-28.92-14.83-43.11-4-10.58-8.2-21.16-12.7-31.6Zm58.51,98-3.24,1.57-.72-1.49,3.24-1.58Zm-26.3-50.73c11.34,6.6,19.73,17.94,23.85,30.2a106.61,106.61,0,0,1,3.36,12.31c.26,1.28.78,2.47.43,3.41-.23-.14-.55,0-.79.11l-6.27,3a3.56,3.56,0,0,0-1.25,1.34l-1,.5C650,315.5,641.35,296.85,644.45,278.09Zm1.3,32.25a72.62,72.62,0,0,0,9,14.42,74.55,74.55,0,0,1-5,14.26q-2.94-12-6.43-23.8A15.16,15.16,0,0,1,645.75,310.34Zm-152.3-91.82a243.73,243.73,0,0,1-10.86-78.37A165.27,165.27,0,0,1,485.64,112c.71-3.43,1.46-8.82,3.53-11.83l.11,0c.72.16,1.42.34,2.12.56a53.48,53.48,0,0,1,6.76,2.75,141.86,141.86,0,0,1,20.26,11.91c20.46,14.09,38.33,31.9,53.38,51.62,11.67,15.31,21.25,31.86,29.63,49.05-21.6,22.65-49.87,42.34-82,44.53-1.71.12-2.94,3.33-.64,3.18,32.7-2.23,61.75-22.16,83.86-45.17,6.56,13.7,12.4,27.78,18,41.94a629.61,629.61,0,0,1,25,76.95q1.41,5.6,2.74,11.26L594.2,374l-8,3.71a4.19,4.19,0,0,0-1.18,1.11l-1.85-2.31,0,0a1.81,1.81,0,0,0-.42-.86q-2.31-2.73-4.58-5.51c-12-15.5-23.1-31.7-33.5-48.31,29.73-.71,57.38-16.81,78.8-36.42-.09.08-2.86-.51-3.6.17-20.23,18.53-47.21,35.54-75.66,35.52-1.54-2.48-3.08-5-4.59-7.46C521.34,283.58,503.75,252.3,493.45,218.52Zm31,99.24Zm8.42,14.73c16.3,9.24,25.33,27.56,27.93,45.67l-1.33.64a4.1,4.1,0,0,0-1.28.32l-6.27,3a.88.88,0,0,0-.49.55l-.3.15C538.54,369.51,529.93,351.06,532.91,332.49Zm26.34,50.56-3.13,1.52-.76-1.55,3.14-1.52Zm3.94-12.49a72.64,72.64,0,0,0-6.1-16.88c2.09.43,4.13,1.07,5.4,2.48,2.93,3.27,5.42,7.1,8.16,10.54q3.2,4,6.46,7.94A59.07,59.07,0,0,1,563.19,370.56Zm89-1.66-37.8,20c-1,.5-2.45,3.77-.66,2.83l30-15.89,2.46,6.91a.9.9,0,0,0-.48,0l-23.08,11.77c-.28.15,2.42,1.95,3.28,1.51l15-7.63c.87,2.36,1.74,4.71,2.6,7.07l-18.08,8.79q-2.12-3.45-4.25-6.9a2.23,2.23,0,0,0-2.73-.78l-4.55,2.21-4-6.31a2.34,2.34,0,0,0-2.55-.47l-7.54,3.66c-4.68-4.81-9-10-13.28-15.21,0-.25,0-.51,0-.76l48.65-22.68,10.58-4.94c1.75-.81,1.76-1.22,3.07-.44l.34.22C650.3,357.57,651.38,363.23,652.15,368.9Z"/></g></g></svg>