<svg xmlns="http://www.w3.org/2000/svg" xmlns:xlink="http://www.w3.org/1999/xlink" viewBox="0 0 882 768"><defs><style>.cls-1{fill:#ebf0f8;}.cls-2{fill:url(#linear-gradient);}.cls-3{fill:#67aaf9;}.cls-4{fill:#fff;}.cls-5{fill:#c4e0f9;}.cls-6{fill:#4191e0;}.cls-7{fill:#494949;}</style><linearGradient id="linear-gradient" x1="657.09" y1="279.48" x2="373.09" y2="567.48" gradientUnits="userSpaceOnUse"><stop offset="0" stop-color="#0fa"/><stop offset="0.13" stop-color="#07dfad"/><stop offset="0.31" stop-color="#0fbab0"/><stop offset="0.48" stop-color="#159db3"/><stop offset="0.66" stop-color="#1989b5"/><stop offset="0.83" stop-color="#1c7cb6"/><stop offset="1" stop-color="#1d78b6"/></linearGradient></defs><title>Artboard 1 copia 8</title><g id="fondo"><rect class="cls-1" x="285.11" y="85.17" width="206.29" height="49.35" rx="22.99" ry="22.99" transform="translate(13.47 259.32) rotate(-37.54)"/><rect class="cls-1" x="723.57" y="179.24" width="138.58" height="49.35" rx="24.68" ry="24.68" transform="translate(39.93 525.33) rotate(-37.54)"/><rect class="cls-1" x="14.21" y="509.98" width="160.64" height="49.35" rx="24.68" ry="24.68" transform="translate(-306.2 168.31) rotate(-37.54)"/><path class="cls-1" d="M736.08,520.09a23,23,0,0,1,32.21,4.22l2.08,2.71a23,23,0,0,1-4.22,32.21L546,728.39a23,23,0,0,1-32.21-4.22l-2.07-2.71a23,23,0,0,1,4.21-32.21l45.81-35.73a14.87,14.87,0,0,0,2.74-20.85l-1.33-1.73a14.88,14.88,0,0,0-20.86-2.73L405.72,734.89a24.68,24.68,0,0,1-34.6-4.53h0a24.66,24.66,0,0,1,4.53-34.6l37.15-28.55h0a14.72,14.72,0,0,0,2.7-20.65l-1.31-1.71a14.72,14.72,0,0,0-20.65-2.7l-78.44,61.08a24.67,24.67,0,0,1-34.6-4.53h0a24.68,24.68,0,0,1,4.53-34.6l100.33-76.85a14.87,14.87,0,0,0,2.73-20.85l-1.33-1.73a14.87,14.87,0,0,0-20.85-2.73l-50.81,40a24.67,24.67,0,0,1-34.6-4.53h0a24.68,24.68,0,0,1,4.53-34.6l72.89-56.68a14.47,14.47,0,0,0,2.66-20.29l-1.29-1.68A14.47,14.47,0,0,0,339,481.48L174.39,608.74a24.68,24.68,0,0,1-34.61-4.53h0a24.68,24.68,0,0,1,4.53-34.6L294.6,454.21a14.73,14.73,0,0,0,2.71-20.65L296,431.84a14.74,14.74,0,0,0-17.13-4.71L229,465.51a24.67,24.67,0,0,1-34.6-4.53h0a24.66,24.66,0,0,1,4.53-34.6L345.06,313.79a14.49,14.49,0,0,0,2.66-20.32l-1.29-1.69a14.5,14.5,0,0,0-20.32-2.66l-1.86,1.75a7.34,7.34,0,0,1-.6.51L315.09,298a24.67,24.67,0,0,1-34.6-4.53h0a24.68,24.68,0,0,1,4.53-34.6L497.43,95.65A24.7,24.7,0,0,1,532,100.18h0a24.7,24.7,0,0,1-4.53,34.61l-49,36.86-.09.22a14.6,14.6,0,0,0-2.68,20.48l1.3,1.7a14.61,14.61,0,0,0,20.48,2.69L631.59,93.87a24.68,24.68,0,0,1,34.6,4.53h0a24.68,24.68,0,0,1-4.53,34.6l-81.23,62.43h0a14.7,14.7,0,0,0-.15,18.1l1.31,1.71a14.68,14.68,0,0,0,20.6,2.7L645,184.85a24.67,24.67,0,0,1,34.6,4.53h0a24.66,24.66,0,0,1-4.53,34.6L521.43,341.34a14.53,14.53,0,0,0-2.67,20.39l1.3,1.7a14.54,14.54,0,0,0,20.39,2.67l125.22-95.81a24.67,24.67,0,0,1,34.6,4.53h0a24.67,24.67,0,0,1-4.53,34.6l-100.8,78a14.41,14.41,0,0,0-2.65,20.2l1.29,1.67a14.4,14.4,0,0,0,20.19,2.65h0l49.94-38.8a24.67,24.67,0,0,1,34.6,4.53h0a24.67,24.67,0,0,1-4.53,34.6l-46.44,35.49a14.77,14.77,0,0,0-2.72,20.71l1.32,1.72a14.78,14.78,0,0,0,20.71,2.71l68.5-53.36A24.68,24.68,0,0,1,769.76,424h0a24.68,24.68,0,0,1-4.53,34.6l-98.68,74.92a14.8,14.8,0,0,0-2.72,20.76l1.32,1.72a14.81,14.81,0,0,0,20.76,2.72Z"/><path class="cls-2" d="M668.93,479c.52-3.42.93-6.82,1.25-10.22A14.75,14.75,0,0,1,655,463.39l-1.32-1.72A14.77,14.77,0,0,1,656.35,441l13.5-10.31a182.51,182.51,0,0,0-13.71-51.56l-33.35,26.05h0a14.4,14.4,0,0,1-20.19-2.64l-1.29-1.68A14.4,14.4,0,0,1,604,380.63l37.38-29.19A184.25,184.25,0,0,0,609,313.9l-59.5,45.44a14.55,14.55,0,0,1-20.4-2.67l-1.3-1.69a14.55,14.55,0,0,1,2.67-20.4l52.41-39.95A183.05,183.05,0,0,0,515,270c-100.2-15.17-193.73,53.75-208.91,154-.1.71-.19,1.41-.29,2.11l.54.71A14.71,14.71,0,0,1,304,447.1a182.17,182.17,0,0,0,7.33,55.95L348,474.72a14.48,14.48,0,0,1,20.29,2.66l1.3,1.69a14.46,14.46,0,0,1-2.66,20.28l-43.67,34a184.59,184.59,0,0,0,27.82,40.88l23.83-19a14.87,14.87,0,0,1,20.85,2.73l1.33,1.74a14.86,14.86,0,0,1-2.73,20.85l-20.24,15.28a183.74,183.74,0,0,0,172.3,29.51l4.9-3.83a14.84,14.84,0,0,1,11.84-2.8A183.33,183.33,0,0,0,668.93,479Z"/></g><g id="colores"><path class="cls-3" d="M211.38,424.91s11.69,1.3,15.59,10.39c0,0-1.3-9.09,7.79-16.88,0,0-14.29-5.19-15.59-10.39C219.17,408,223.07,415.82,211.38,424.91Z"/><path class="cls-3" d="M654.38,110.42s10,1.11,13.4,8.93c0,0-1.12-7.82,6.7-14.52,0,0-12.28-4.46-13.4-8.93C661.08,95.9,664.43,102.6,654.38,110.42Z"/><path class="cls-3" d="M656.38,592.42s10,1.11,13.4,8.93c0,0-1.12-7.82,6.7-14.52,0,0-12.28-4.46-13.4-8.93C663.08,577.9,666.43,584.6,656.38,592.42Z"/><path class="cls-4" d="M443,192l7,12h5l15-14-8,61,8,2s8-22,10-23,8-1,12,5,10,21,10,21l6-2-9-60,9,12h4l12-11-4-7-10,7-2-13-3-6s10-9,9-17,0-30-27-31-33,19-32,29,6,17,10,20l-5,7-7,9-5-7Z"/><path class="cls-5" d="M468,178s17,11,34-1c0,0,6-26,1-31s-6-5-14-5H470s-5,6-5,12S467,176,468,178Z"/><path class="cls-3" d="M443,191l5-6s-5-9-8-7-12,10-9,12,8-3,8-3Z"/><path class="cls-3" d="M520,188l3.5,7.69S526,191,529,195s8,5,7,1-9-13-9-13Z"/><path class="cls-3" d="M470,253l-12-2-3,8s-9,2-9,5a12.68,12.68,0,0,0,2,6l19-3Z"/><path class="cls-3" d="M501,256l12-2s0,6,5,6,7,7,5,8a47.09,47.09,0,0,1-5,2l-15-4Z"/></g><g id="sombras_y_luces" data-name="sombras y luces"><path class="cls-6" d="M463,137s-9,45,30,44c0,0-26,7-38-18C455,163,451,150,463,137Z"/><path class="cls-6" d="M442,178s-2,2,5,14,20,1,20,1-8,16-17,10a27.59,27.59,0,0,1-11-16s-9,5-9,2S436,179,442,178Z"/><path class="cls-6" d="M458,186s10-5,24-3l-16-6Z"/><path class="cls-6" d="M471,188s2-1,3,2-10,58-3,60l-1,3-9-2,9-58Z"/><path class="cls-6" d="M483,229s16-2,22,26l-3,1S495,230,483,229Z"/><path class="cls-6" d="M461,251s-7,14,7,14v1l-20,4-3-6,6-4,5-4,1-5Z"/><path class="cls-6" d="M505,255s0,11,18,12l-1,2-19-2-2-10Z"/><path class="cls-6" d="M497,189s5-2,8,6,8,6,10,4,9-10,11-10,10,6,10,6l-2,4-7-6-15,12h-6l-6-7-3-9"/></g><g id="líneas"><path class="cls-7" d="M491.07,268.84a183.8,183.8,0,0,1,87.16,25.72c2,1.2,5.84-2,3.65-3.31a188.36,188.36,0,0,0-57.37-22.38c2.27-2.29,1.8-6-1.43-7.92a13.38,13.38,0,0,0-4.32-1.54,7.94,7.94,0,0,0-2.11-.23l-.44.06a21.14,21.14,0,0,1-.43-5.23c0-.9-3.41-1.48-4-1.39s-1.32.22-2,.33c-2.43-16.51-5.1-33-7.44-49.51,2.07,3.08,4.73,5.29,8.16,4.48,3.1-.74,5.8-3.48,8.1-5.51,2.72-2.4,5.32-4.92,7.9-7.45,2.5,3,5.71,7.56,9.56,4.75,5.13-3.74-1.39-10.72-3.87-14-1.21-1.6-2.66-4.48-5-4.66-2.11-.17-4.15,2.34-5.58,3.55-2.95,2.49-6,4.88-9.07,7.23a44.81,44.81,0,0,0-5.33-15.29,22.91,22.91,0,0,0,8.38-13.5c2.67-13.42-5.18-29.28-17.45-35.29a2.86,2.86,0,0,0-.53-.19c-12.86-5.08-27.88-.87-37.51,9a27.06,27.06,0,0,0-7.45,14.68c-14.56-8.59-32.41.75-44.16,10.7-12.49,10.56-27.42,29.91-20,47.16a24.28,24.28,0,0,0,3.93,6.23c-5.3,3.88-6.08,12.72-8.37,18.4C380,244,375.32,254,375.16,265.27a56.19,56.19,0,0,0,8.16,30.36,185.51,185.51,0,0,0-82,130.19c-.39,2.83,4.35,1.7,4.67-.6A180.52,180.52,0,0,1,491.07,268.84ZM470,265.43a179.12,179.12,0,0,1,4.41-18.58,71.19,71.19,0,0,1,3.83-9.87c1.86-3.82,3.42-8.15,8.53-5.14,4.94,2.92,7.91,10.68,9.62,15.78,2,5.86,3.19,11.93,5,17.84A187.06,187.06,0,0,0,470,265.43Zm-22.48,1.77c-3.22-4.49,6.17-5.94,8.92-6.65a.55.55,0,0,0,.21-.48c.34-3-.19-6.64,3.6-7,2.3-.25,5.15.42,7.71,1.13-.87,3.7-1.62,7.42-2.35,11.13,0,.18.1.36.34.52q-9,.94-17.83,2.78A4.08,4.08,0,0,0,447.49,267.2Zm72.37-6.08c3.41,1.44,2.21,5,0,6.82q-7.05-1.31-14.18-2.08c-.9-2.92-1.66-5.9-2.42-8.88a1.22,1.22,0,0,0,.34,0q2.73-.88,5.51-1.56c.47,0,.82,0,.94-.22l1.56-.33c0,2.8.55,4.58,3.69,5.59C516.81,260.92,518.44,260.52,519.86,261.12Zm13.33-66c1.61,2.77.3,1.24-1.16-.37-1.16-1.28-2.23-2.62-3.45-3.84-.71-.71-2.27-.05-2.83.5l-1.39,1.42c-.53-1.42-1-2.86-1.63-4.25a1.14,1.14,0,0,0-.71-.49c1.07-1.05,2.55-2.6,3.4-2.75C527.8,184.9,532,193,533.19,195.11Zm-24.33.61c.15,1.69,2.55.7,3.24.18,1.56-1.17,3.1-2.36,4.64-3.55.84-.65,1.66-1.31,2.49-2,.61,1.59,1.14,3.21,1.82,4.77a1.11,1.11,0,0,0,.7.48c-2.34,2.52-4.84,5.05-7.49,6.5-1.68.93-5.95,1-7.39-.27a13,13,0,0,1-2.25-3.52c-1.37-2.47-2.48-5.09-3.62-7.68a1,1,0,0,0-.49-.52c-.29-1-4.21-1.77-4.09-.84,2.76,21.54,6.35,42.94,9.49,64.41-1.11.26-2.22.54-3.31.84a68,68,0,0,0-4.74-13.4c-2.7-5.34-7.35-11.79-13.78-12.65-6.27-.84-8.7,4.55-10.92,9.5a82.25,82.25,0,0,0-4.47,13.1c-1.61-.44-3.22-.83-4.85-1.15a.72.72,0,0,0,.28-.43c3.09-20.35,5.29-40.82,8.39-61.17,0,0-.06,0-.16,0-.24-1-2-1.42-3.15-.24-4.18,4.14-9.61,13.66-15.62,14-2.86.16-3.27-1.29-4.7-3.5-.9-1.4-1.76-2.83-2.59-4.27-.51-.87-1-1.75-1.49-2.63a36.72,36.72,0,0,0,3-3.12c1.38,2,2.79,3.95,4.21,5.91.94,1.31,3.22.19,3.72-1a40.81,40.81,0,0,1,10.35-14.61,34.74,34.74,0,0,0,17.36,5.2,1.13,1.13,0,0,0-.55.85,200.57,200.57,0,0,1-1.33,31.28c-.1.76,3.78-.44,3.91-1.53A201.47,201.47,0,0,0,486.81,184c.38,0,.75,0,1.12-.06a38.18,38.18,0,0,0,15.7-4.92A42.41,42.41,0,0,1,508.86,195.72Zm-70.4-10.93c-1.21.64-2.8,2.16-4.09,2.45-1.08,1.14-1.77.79-2.09-1.05.69-.7,1.42-1.36,2.17-2,1.54-1.32,4-3.89,6-4.48,1-1.31,1.59-1.21,1.69.29.39.64.79,1.28,1.2,1.91.67,1.06,1.36,2.12,2.07,3.16a32.69,32.69,0,0,1-2.71,2.81l-1.59-2.94C440.58,184,439.15,184.43,438.46,184.79Zm28.09-28.59a23.88,23.88,0,0,1,1.69-9.35c2.68-5.87,8.84-4.5,14.24-4.31,4.28.15,10.09-.85,14.18.29,5.13,1.42,6,7.4,6.22,11.84a52,52,0,0,1-4.36,22.43c-8.43,3.9-19,4.2-27,1l-.9-.38A55.61,55.61,0,0,1,466.55,156.2Zm-7.34-11.45c7.3-12.38,25.13-19.17,38.43-13.63,12.49,6.12,19.34,25,11.54,37.06a22.33,22.33,0,0,1-4.66,5.18c2.44-7.23,3.57-15.35,2.28-22.61-2.23-12.51-13.36-10.49-23.23-10.85-4.54-.16-10.53-1.15-14.82.77-3.61,1.61-5.19,5.75-5.94,9.39-1.59,7.74-.36,16.55,2.15,24.26C456.29,167.32,453.1,155.09,459.21,144.75ZM386.73,293.42c-9.35-15.58-8.67-33.28-2.05-49.8,1.49-3.74,3.12-7.42,4.56-11.18s2-8.65,4-12a7,7,0,0,1,2.24-2.2,17.37,17.37,0,0,0,8.32,3.69c4.39.6,7-3.86,4.6-7.67-2.23-3.61-8.58-2.18-12.55-.68-12.24-11.76.32-33.16,9.75-43.15,10.46-11.08,31.54-26.4,46.6-14.93l.12.07a26.18,26.18,0,0,0,3.51,12.76,30.13,30.13,0,0,0,7.63,8.75,44.4,44.4,0,0,0-9.74,12.45c-2.32-3.24-4.59-6.52-6.73-9.88-1.21-1.9-2-4.28-4.53-4.24s-5.06,2.74-6.91,4.11c-2.44,1.81-11.36,7.4-7.6,11.53,2.47,2.72,7-.45,10.11-2.51,2.24,4.17,4.49,8.35,7.07,12.32,1.63,2.52,3.39,5.47,6.7,5.6,5.93.22,11.39-6.48,15.79-11.86-2.65,18.21-4.71,36.49-7.43,54.68-1.87-.34-4.25-.64-5.15.29-.72.73-.6,2.91-.7,3.79-.29,2.39.13,2.9-1.59,3.86-2.32,1.29-7,1-8.63,3.42s1,6.28,2.42,8.26c-4.53,1-9,2.12-13.52,3.45A186.12,186.12,0,0,0,386.73,293.42Zm13.21-76.82c.78-.16,1.57-.29,2.34-.4s3.15-.83,2.66.92C404.4,219.11,401.13,217.29,399.94,216.6Z"/><path class="cls-7" d="M304.37,444.86c.07-2.88-4.61-1.73-4.66.6a189.49,189.49,0,0,0,7.21,56.83c.73,2.55,5.29.64,4.65-1.62A186.35,186.35,0,0,1,304.37,444.86Z"/><path class="cls-7" d="M323.39,530.79c-1.11-2.17-5.42.34-4.3,2.56a192.33,192.33,0,0,0,28.15,41.25c1.54,1.73,5.41-1.32,3.64-3.31A188.87,188.87,0,0,1,323.39,530.79Z"/><path class="cls-7" d="M540.67,623.29a183.3,183.3,0,0,1-166.75-30.41c-1.86-1.45-5.72,1.69-3.64,3.31A187.88,187.88,0,0,0,541.35,627C544.05,626.19,543.79,622.31,540.67,623.29Z"/><path class="cls-7" d="M670.43,468c.3-2.85-4.43-1.71-4.67.6-6.71,63.8-46.47,120.09-104.91,146.89-2.51,1.15-2.31,5.11.68,3.74,45.48-20.86,81.7-59.16,98.73-106.38A191.13,191.13,0,0,0,670.43,468Z"/><path class="cls-7" d="M652.23,379.69a186.93,186.93,0,0,1,13.3,50.53c.3,2.59,4.92.73,4.64-1.62a190.17,190.17,0,0,0-13.64-51.47C655.6,374.92,651.27,377.4,652.23,379.69Z"/><path class="cls-7" d="M637.17,351.46c1.36,2.07,5.65-.5,4.3-2.55a192.54,192.54,0,0,0-32.15-37.43c-1.75-1.58-5.62,1.53-3.64,3.3A189.18,189.18,0,0,1,637.17,351.46Z"/><path class="cls-7" d="M248.46,412.89a1.44,1.44,0,0,0-1.12-.16,13.62,13.62,0,0,1-10.61-1.47,15.89,15.89,0,0,1-7.23-10,1.8,1.8,0,0,0-.81-1.12,1.4,1.4,0,0,0-1.11-.15,1.75,1.75,0,0,0-1.13,2.15c2,8.42-2.62,17-10.39,19.14a1.75,1.75,0,0,0-1.13,2.15,1.79,1.79,0,0,0,.8,1.12,1.47,1.47,0,0,0,1.12.16,13.54,13.54,0,0,1,3.57-.49,14,14,0,0,1,7,1.95,15.92,15.92,0,0,1,7.23,10,1.77,1.77,0,0,0,.81,1.12,1.41,1.41,0,0,0,1.11.16,1.76,1.76,0,0,0,1.13-2.15c-2-8.43,2.62-17,10.39-19.14a1.84,1.84,0,0,0,.33-3.27Zm-9.3,4.92a19.68,19.68,0,0,0-4.34,8l-.53,1.93-1.35-1.44a18,18,0,0,0-7.43-4.79l-1.7-.55,1.22-1.35a19.5,19.5,0,0,0,4.34-8l.52-1.92,1.36,1.44a18,18,0,0,0,7.43,4.78l1.69.56Z"/><path class="cls-7" d="M658.12,110.12a1.25,1.25,0,0,0,1,.13,11.72,11.72,0,0,1,9.12,1.27,13.68,13.68,0,0,1,6.22,8.58,1.54,1.54,0,0,0,.7,1,1.24,1.24,0,0,0,1,.13,1.52,1.52,0,0,0,1-1.84c-1.76-7.25,2.25-14.63,8.93-16.46a1.51,1.51,0,0,0,1-1.85,1.55,1.55,0,0,0-.69-1,1.25,1.25,0,0,0-1-.13,11.76,11.76,0,0,1-9.12-1.26A13.71,13.71,0,0,1,670,90.1a1.55,1.55,0,0,0-.69-1,1.25,1.25,0,0,0-1-.13,1.51,1.51,0,0,0-1,1.85c1.75,7.24-2.26,14.63-8.94,16.46a1.58,1.58,0,0,0-.28,2.81Zm8-4.24a16.86,16.86,0,0,0,3.73-6.9l.45-1.66,1.16,1.24a15.33,15.33,0,0,0,6.39,4.11l1.46.48-1,1.16a16.87,16.87,0,0,0-3.74,6.9l-.45,1.66-1.16-1.24a15.43,15.43,0,0,0-6.39-4.11l-1.46-.48Z"/><path class="cls-7" d="M688.26,582.07a1.25,1.25,0,0,0-1-.13,11.76,11.76,0,0,1-9.12-1.26A13.71,13.71,0,0,1,672,572.1a1.55,1.55,0,0,0-.69-1,1.25,1.25,0,0,0-1-.13,1.51,1.51,0,0,0-1,1.85c1.75,7.24-2.26,14.63-8.94,16.46a1.58,1.58,0,0,0-.28,2.81,1.25,1.25,0,0,0,1,.13,11.72,11.72,0,0,1,9.12,1.27,13.68,13.68,0,0,1,6.22,8.58,1.54,1.54,0,0,0,.7,1,1.24,1.24,0,0,0,1,.13,1.52,1.52,0,0,0,1-1.84c-1.76-7.25,2.25-14.63,8.93-16.46a1.51,1.51,0,0,0,1-1.85A1.55,1.55,0,0,0,688.26,582.07Zm-8,4.24a16.87,16.87,0,0,0-3.74,6.9l-.45,1.66-1.16-1.24a15.43,15.43,0,0,0-6.39-4.11l-1.46-.48,1-1.16a16.86,16.86,0,0,0,3.73-6.9l.45-1.66,1.16,1.24a15.33,15.33,0,0,0,6.39,4.11l1.46.48Z"/><path class="cls-7" d="M335.32,156.94a3.63,3.63,0,1,0-3.63-3.63A3.63,3.63,0,0,0,335.32,156.94Zm0-5.3a1.67,1.67,0,1,1-1.66,1.67A1.67,1.67,0,0,1,335.32,151.64Z"/><path class="cls-7" d="M342.32,269.94a3.63,3.63,0,1,0-3.63-3.63A3.63,3.63,0,0,0,342.32,269.94Zm0-5.3a1.67,1.67,0,1,1-1.66,1.67A1.67,1.67,0,0,1,342.32,264.64Z"/><path class="cls-7" d="M614.56,128.37a3.63,3.63,0,1,0-3.63-3.63A3.64,3.64,0,0,0,614.56,128.37Zm0-5.3a1.67,1.67,0,1,1-1.67,1.67A1.67,1.67,0,0,1,614.56,123.07Z"/><path class="cls-7" d="M762.62,435.41a3.63,3.63,0,1,0,3.63,3.63A3.64,3.64,0,0,0,762.62,435.41Zm0,5.3a1.67,1.67,0,1,1,1.66-1.67A1.67,1.67,0,0,1,762.62,440.71Z"/><path class="cls-7" d="M654.3,320.71a3.63,3.63,0,1,0-3.63-3.63A3.64,3.64,0,0,0,654.3,320.71Zm0-5.3a1.67,1.67,0,1,1-1.67,1.67A1.67,1.67,0,0,1,654.3,315.41Z"/><path class="cls-7" d="M811.3,174.45a3.63,3.63,0,1,0,3.63,3.63A3.63,3.63,0,0,0,811.3,174.45Zm0,5.29a1.67,1.67,0,1,1,1.67-1.66A1.66,1.66,0,0,1,811.3,179.74Z"/><path class="cls-7" d="M84,541.26a3.63,3.63,0,1,0,3.63,3.63A3.64,3.64,0,0,0,84,541.26Zm0,5.3a1.67,1.67,0,1,1,1.67-1.67A1.66,1.66,0,0,1,84,546.56Z"/><path class="cls-7" d="M741.48,436.44h-3.34V433.1a1,1,0,0,0-2,0v3.34h-3.33a1,1,0,0,0,0,2h3.33v3.33a1,1,0,1,0,2,0V438.4h3.34a1,1,0,1,0,0-2Z"/><path class="cls-7" d="M442.62,663.41a3.63,3.63,0,1,0,3.63,3.63A3.64,3.64,0,0,0,442.62,663.41Zm0,5.3a1.67,1.67,0,1,1,1.66-1.67A1.67,1.67,0,0,1,442.62,668.71Z"/><path class="cls-7" d="M294.62,571.41a3.63,3.63,0,1,0,3.63,3.63A3.64,3.64,0,0,0,294.62,571.41Zm0,5.3a1.67,1.67,0,1,1,1.66-1.67A1.67,1.67,0,0,1,294.62,576.71Z"/><path class="cls-7" d="M585.62,632.41a3.63,3.63,0,1,0,3.63,3.63A3.64,3.64,0,0,0,585.62,632.41Zm0,5.3a1.67,1.67,0,1,1,1.66-1.67A1.67,1.67,0,0,1,585.62,637.71Z"/><path class="cls-7" d="M802.48,202.44h-3.34V199.1a1,1,0,0,0-2,0v3.34h-3.33a1,1,0,0,0,0,2h3.33v3.33a1,1,0,1,0,2,0V204.4h3.34a1,1,0,1,0,0-2Z"/><path class="cls-7" d="M305.85,272.44h3.34v3.33a1,1,0,1,0,2,0v-3.33h3.33a1,1,0,1,0,0-2h-3.33v-3.33a1,1,0,1,0-2,0v3.33h-3.34a1,1,0,0,0,0,2Z"/><path class="cls-7" d="M129.11,498.13h-3.33v-3.34a1,1,0,0,0-2,0v3.34h-3.34a1,1,0,0,0,0,2h3.34v3.34a1,1,0,0,0,2,0v-3.34h3.33a1,1,0,0,0,0-2Z"/><path class="cls-7" d="M670.61,280.93a1.26,1.26,0,0,0-1.58-.81l-3.93,1.24-1.24-3.93a1.25,1.25,0,1,0-2.39.75l1.24,3.93-3.93,1.25a1.25,1.25,0,0,0,.37,2.45,1.21,1.21,0,0,0,.38-.06l3.94-1.24,1.24,3.93a1.25,1.25,0,0,0,1.19.87,1.2,1.2,0,0,0,.38-.05,1.26,1.26,0,0,0,.82-1.58l-1.24-3.93,3.93-1.24A1.26,1.26,0,0,0,670.61,280.93Z"/><path class="cls-7" d="M574.41,682.11l-3.93,1.24-1.25-3.93a1.25,1.25,0,1,0-2.39.76l1.25,3.93-3.94,1.24a1.25,1.25,0,0,0,.38,2.45,1.31,1.31,0,0,0,.38-.06l3.93-1.24,1.24,3.93a1.26,1.26,0,0,0,1.2.88,1.31,1.31,0,0,0,.38-.06,1.25,1.25,0,0,0,.81-1.57l-1.24-3.94,3.93-1.24a1.25,1.25,0,0,0-.75-2.39Z"/><path class="cls-7" d="M771.41,219.11l-3.93,1.24-1.25-3.93a1.25,1.25,0,1,0-2.39.76l1.25,3.93-3.94,1.24a1.25,1.25,0,0,0,.38,2.45,1.31,1.31,0,0,0,.38-.06l3.93-1.24,1.24,3.93a1.26,1.26,0,0,0,1.2.88,1.31,1.31,0,0,0,.38-.06,1.25,1.25,0,0,0,.81-1.57l-1.24-3.94,3.93-1.24a1.25,1.25,0,1,0-.75-2.39Z"/><path class="cls-7" d="M450.68,68.49a1.31,1.31,0,0,0,.38-.06L455,67.18l1.24,3.94a1.26,1.26,0,0,0,1.2.87,1.28,1.28,0,0,0,.38,0,1.26,1.26,0,0,0,.81-1.58l-1.24-3.93,3.93-1.24a1.26,1.26,0,0,0,.82-1.58,1.25,1.25,0,0,0-1.57-.81L456.62,64l-1.24-3.93a1.25,1.25,0,0,0-2.39.75l1.24,3.93L450.3,66a1.25,1.25,0,0,0-.82,1.57A1.27,1.27,0,0,0,450.68,68.49Z"/><path class="cls-7" d="M169.53,584.59l-3.94,1.25-1.24-3.94a1.25,1.25,0,0,0-2.39.76l1.24,3.93-3.93,1.25a1.25,1.25,0,0,0-.82,1.57,1.26,1.26,0,0,0,1.2.88,1.19,1.19,0,0,0,.37-.06L164,589l1.24,3.94a1.25,1.25,0,0,0,1.2.87,1.19,1.19,0,0,0,.37-.06,1.25,1.25,0,0,0,.82-1.57l-1.24-3.93,3.93-1.24a1.26,1.26,0,0,0-.75-2.4Z"/><path class="cls-7" d="M440.53,688.59l-3.94,1.25-1.24-3.94a1.25,1.25,0,0,0-2.39.76l1.24,3.93-3.93,1.25a1.25,1.25,0,0,0-.82,1.57,1.26,1.26,0,0,0,1.2.88,1.19,1.19,0,0,0,.37-.06L435,693l1.24,3.94a1.25,1.25,0,0,0,1.2.87,1.19,1.19,0,0,0,.37-.06,1.25,1.25,0,0,0,.82-1.57l-1.24-3.93,3.93-1.24a1.26,1.26,0,0,0-.75-2.4Z"/><path class="cls-7" d="M309.53,662.59l-3.94,1.25-1.24-3.94a1.25,1.25,0,0,0-2.39.76l1.24,3.93-3.93,1.25a1.25,1.25,0,0,0-.82,1.57,1.26,1.26,0,0,0,1.2.88,1.19,1.19,0,0,0,.37-.06L304,667l1.24,3.94a1.25,1.25,0,0,0,1.2.87,1.19,1.19,0,0,0,.37-.06,1.25,1.25,0,0,0,.82-1.57l-1.24-3.93,3.93-1.24a1.26,1.26,0,0,0-.75-2.4Z"/></g></svg>