<svg xmlns="http://www.w3.org/2000/svg" xmlns:xlink="http://www.w3.org/1999/xlink" viewBox="0 0 882 768"><defs><style>.cls-1{isolation:isolate;}.cls-2{fill:#ebf0f8;}.cls-3{fill:#c4e0f9;}.cls-4{fill:url(#Degradado_sin_nombre_10);}.cls-5{fill:url(#Degradado_sin_nombre_10-2);}.cls-6{fill:url(#Degradado_sin_nombre_10-3);}.cls-7{fill:url(#Degradado_sin_nombre_10-4);}.cls-8{fill:url(#Degradado_sin_nombre_10-5);}.cls-9{fill:none;}.cls-10{fill:#67aaf9;}.cls-11{fill:#fff;}.cls-12{fill:url(#linear-gradient);}.cls-13,.cls-14{fill:#4191e0;}.cls-14{opacity:0.3;mix-blend-mode:multiply;}.cls-15{fill:#494949;}</style><linearGradient id="Degradado_sin_nombre_10" x1="651.57" y1="509.69" x2="802.66" y2="439.99" gradientUnits="userSpaceOnUse"><stop offset="0" stop-color="#c4e0f9"/><stop offset="0.06" stop-color="#bfddf9"/><stop offset="0.38" stop-color="#abd2f7"/><stop offset="0.7" stop-color="#9ecbf5"/><stop offset="1" stop-color="#9ac9f5"/></linearGradient><linearGradient id="Degradado_sin_nombre_10-2" x1="674.97" y1="560.41" x2="826.06" y2="490.71" xlink:href="#Degradado_sin_nombre_10"/><linearGradient id="Degradado_sin_nombre_10-3" x1="298.34" y1="474.31" x2="191.84" y2="554.18" xlink:href="#Degradado_sin_nombre_10"/><linearGradient id="Degradado_sin_nombre_10-4" x1="257.14" y1="419.37" x2="150.64" y2="499.25" xlink:href="#Degradado_sin_nombre_10"/><linearGradient id="Degradado_sin_nombre_10-5" x1="555.05" y1="526.87" x2="357.36" y2="720.49" xlink:href="#Degradado_sin_nombre_10"/><linearGradient id="linear-gradient" x1="570" y1="364.83" x2="672" y2="364.83" gradientUnits="userSpaceOnUse"><stop offset="0" stop-color="#0fa"/><stop offset="0.13" stop-color="#07dfad"/><stop offset="0.31" stop-color="#0fbab0"/><stop offset="0.48" stop-color="#159db3"/><stop offset="0.66" stop-color="#1989b5"/><stop offset="0.83" stop-color="#1c7cb6"/><stop offset="1" stop-color="#1d78b6"/></linearGradient></defs><title>Artboard 1 copia 9</title><g class="cls-1"><g id="fondo"><rect class="cls-2" x="285.11" y="85.17" width="206.29" height="49.35" rx="22.99" ry="22.99" transform="translate(13.47 259.32) rotate(-37.54)"/><rect class="cls-2" x="723.57" y="179.24" width="138.58" height="49.35" rx="24.68" ry="24.68" transform="translate(39.93 525.33) rotate(-37.54)"/><rect class="cls-2" x="14.21" y="509.98" width="160.64" height="49.35" rx="24.68" ry="24.68" transform="translate(-306.2 168.31) rotate(-37.54)"/><path class="cls-2" d="M734.41,521.59a23,23,0,0,1,32.21,4.22l2.08,2.71a23,23,0,0,1-4.22,32.21L544.35,729.89a23,23,0,0,1-32.21-4.22L510.06,723a23,23,0,0,1,4.22-32.21L560.09,655a14.87,14.87,0,0,0,2.73-20.85l-1.33-1.73a14.87,14.87,0,0,0-20.85-2.73L404.05,736.39a24.68,24.68,0,0,1-34.6-4.53h0a24.68,24.68,0,0,1,4.53-34.6l37.15-28.55h0a14.73,14.73,0,0,0,2.71-20.65l-1.32-1.71a14.72,14.72,0,0,0-20.65-2.7l-78.43,61.08a24.66,24.66,0,0,1-34.6-4.53h0a24.67,24.67,0,0,1,4.53-34.6l104.32-79.85a14.86,14.86,0,0,0,2.73-20.85l-1.33-1.73a14.87,14.87,0,0,0-20.85-2.73l-54.8,43a24.66,24.66,0,0,1-34.6-4.53h0a24.66,24.66,0,0,1,4.53-34.6l72.89-56.68a14.47,14.47,0,0,0,2.65-20.29l-1.29-1.68A14.47,14.47,0,0,0,337.32,483L172.72,610.24a24.66,24.66,0,0,1-34.6-4.53h0a24.67,24.67,0,0,1,4.53-34.6l150.29-115.4a14.72,14.72,0,0,0,2.7-20.65l-1.32-1.72a14.74,14.74,0,0,0-17.13-4.71L227.28,467a24.68,24.68,0,0,1-34.6-4.53h0a24.68,24.68,0,0,1,4.53-34.6L343.39,315.29A14.49,14.49,0,0,0,346.05,295l-1.29-1.69a14.5,14.5,0,0,0-20.32-2.66l-1.86,1.75a7.34,7.34,0,0,1-.6.51l-8.55,6.63a24.66,24.66,0,0,1-34.6-4.53h0a24.66,24.66,0,0,1,4.53-34.6L495.77,97.15a24.68,24.68,0,0,1,34.6,4.53h0a24.69,24.69,0,0,1-4.53,34.61l-49,36.86-.09.22a14.6,14.6,0,0,0-2.68,20.48l1.31,1.7a14.61,14.61,0,0,0,20.48,2.69l134-102.87a24.67,24.67,0,0,1,34.6,4.53h0A24.66,24.66,0,0,1,660,134.5l-81.23,62.43h0a14.7,14.7,0,0,0-.15,18.1l1.31,1.71a14.69,14.69,0,0,0,20.61,2.7l42.82-33.08A24.69,24.69,0,0,1,678,190.88h0a24.68,24.68,0,0,1-4.53,34.6L544.76,323.84a14.54,14.54,0,0,0-2.67,20.39l1.3,1.7a14.55,14.55,0,0,0,20.4,2.67L664,271.79a24.66,24.66,0,0,1,34.6,4.53h0a24.66,24.66,0,0,1-4.53,34.6l-137.8,106a14.4,14.4,0,0,0-2.64,20.2l1.28,1.67a14.4,14.4,0,0,0,20.19,2.65h0L662,374.6a24.66,24.66,0,0,1,34.6,4.53h0a24.67,24.67,0,0,1-4.53,34.6l-46.44,35.49A14.77,14.77,0,0,0,643,469.93l1.32,1.72A14.78,14.78,0,0,0,665,474.36L733.49,421a24.67,24.67,0,0,1,34.6,4.53h0a24.67,24.67,0,0,1-4.53,34.6l-98.68,74.92a14.81,14.81,0,0,0-2.72,20.76l1.33,1.72a14.8,14.8,0,0,0,20.75,2.72Z"/><path class="cls-3" d="M781.13,221c-18.92,5.4-34.08,15.8-42.46,26a24.65,24.65,0,0,0,33.85,3.66l39.37-30.25C804.61,218.32,794.22,217.27,781.13,221Z"/><path class="cls-4" d="M657.74,530.11a52.37,52.37,0,0,0,5.37,7.21,14.62,14.62,0,0,1,3.44-3.77l70.31-53.38c-3.9-5.84-10.7-13.76-20.67-17.59-12.26-4.72-26.58-3.92-40,2.82l-9.58,7.46a14.61,14.61,0,0,1-4.64,2.38c-.12.11-.25.21-.37.33C644.76,491.15,647.35,513.23,657.74,530.11Z"/><path class="cls-5" d="M737,543.1c4.92-4.92,12.95-18.12,18.2-27.19a22.93,22.93,0,0,0-19.09,4.18l-44.23,34.08c1.24.27,2.44.48,3.56.62C705.8,556.09,729.18,550.89,737,543.1Z"/><path class="cls-6" d="M283.7,506.74a49,49,0,0,0,13-33.77l-4.89-16.61-72.71,55.83A47.28,47.28,0,0,0,238.24,521C255.13,524.92,269.41,522.32,283.7,506.74Z"/><path class="cls-7" d="M222.66,424.91c-19.06,5.34-28.27,17.84-32.63,27.25A24.69,24.69,0,0,0,229,465.51l44.4-34.14A63.79,63.79,0,0,0,222.66,424.91Z"/><path class="cls-8" d="M528,529.5a122,122,0,0,0-13.67-1.17c-2.6-.17-15-1.93-15-1.83-10.1,0-17.33-.53-34.83.54-6.16-.06-24.39,2.13-61.18,6.24l.4-.32q-5.21.75-10.54,1.63c-6.32.94-12.94,2.13-19.83,3.65h0c-33.76,6.86-68.15,17.1-92.6,28.78a24.68,24.68,0,0,0-.26,30.36h0a24.67,24.67,0,0,0,34.6,4.53l56.75-44.15c3.47-1.79,11-4.38,17.46,2.26,6.94,7.16,7.06,16.51,2.25,22.17L387,585.71h0L285,664.09a24.68,24.68,0,0,0-4.53,34.6h0a24.67,24.67,0,0,0,34.6,4.53l78.44-61.08a14.72,14.72,0,0,1,20.65,2.7l1.31,1.71a14.72,14.72,0,0,1-2.7,20.65h0l-37.15,28.55a24.67,24.67,0,1,0,30.07,39.13L542.3,628.21a14.88,14.88,0,0,1,20.86,2.73l1.33,1.73a14.87,14.87,0,0,1-2.74,20.85l-45.81,35.73a23,23,0,0,0-4.21,32.21l2.07,2.71A23,23,0,0,0,546,728.39L716.63,597.13C698.13,584.48,622.75,539.45,528,529.5Z"/></g><g id="colores"><path class="cls-9" d="M663.83,554.31l1.32,1.72a14.81,14.81,0,0,0,20.76,2.72l5.94-4.58a53.8,53.8,0,0,1-28.74-16.85A14.78,14.78,0,0,0,663.83,554.31Z"/><path class="cls-9" d="M676.23,465.4A63.49,63.49,0,0,0,662,475.24a14.61,14.61,0,0,0,4.64-2.38Z"/><path class="cls-10" d="M358.38,161.91s11.69,1.3,15.59,10.39c0,0-1.3-9.09,7.79-16.88,0,0-14.29-5.19-15.59-10.39C366.17,145,370.07,152.82,358.38,161.91Z"/><path class="cls-10" d="M186.38,558.49s7.28.81,9.7,6.47c0,0-.81-5.66,4.86-10.51,0,0-8.9-3.23-9.71-6.47C191.23,548,193.66,552.83,186.38,558.49Z"/><path class="cls-10" d="M650.38,207.49s7.28.81,9.7,6.47c0,0-.81-5.66,4.86-10.51,0,0-8.9-3.23-9.71-6.47C655.23,197,657.66,201.83,650.38,207.49Z"/><path class="cls-10" d="M547.38,376.49s7.28.81,9.7,6.47c0,0-.81-5.66,4.86-10.51,0,0-8.9-3.23-9.71-6.47C552.23,366,554.66,370.83,547.38,376.49Z"/><path class="cls-11" d="M353,510l11-16s15,11,31-11a435.57,435.57,0,0,0,26-40s12-16,20-19l1-2s-10-18-12-27,2-35,21-46,39-8,55,8,12,46,12,46l-1,3,30-1-1,18-21,10,14-1,4,18s-16,3-29,1-26-3-26-3l-16,25s21,9,25,25,1,28,1,28l-6,14-7,8-23-2s8-13,6-22-13-21-27-22c0,0-22,21-38,22S368,527,353,510Z"/><path class="cls-12" d="M581,337l36,10,3-15,52,8-7,44-35-1-5,14s-3,2-14-1-41-12-41-12Z"/><path class="cls-10" d="M462,546l-10,12-6,14,36-2s12,0,10-3-7-4-7-4l-8-2,11-12Z"/><polygon class="cls-10" points="364 494 347 478 322 497 309 514 315 515 327 511 334 505 349 514 364 494"/><path class="cls-10" d="M538,433l6,17,15-8s11-9,7-11S538,433,538,433Z"/><path class="cls-10" d="M547,405l-1,19,11-4s7,6,13-2,3-13,3-13-2-4-8-3a38.72,38.72,0,0,0-10,3Z"/><path class="cls-3" d="M494,428s11-3,13-12,6-22-1-32-26-13-36-8-15,9-15,19,1,25,1,25l13,3Z"/><polygon class="cls-3" points="482 426 482 432 503 437 503 431 482 426"/><polygon class="cls-3" points="517.32 405.05 515 410 522 411 525 406 517.32 405.05"/></g><g id="sombras_y_luces" data-name="sombras y luces"><path class="cls-13" d="M443,496s30,0,34,19,2,28,10,31l-1,2-17-1s-31,24,21,22l-43,2-1-1,17-25s9-9,5-20-9-21-27-23Z"/><path class="cls-13" d="M481,554s-12,7-9,8,13,2,13,2l-7-3Z"/><path class="cls-13" d="M334,489s13,28,26,13c0,0,1,17,25,16s60-19,60-19l-15,13s-25,14-43,13-33-13-33-13l-7,1-13-7-13,9H309v-4l20-20Z"/><path class="cls-13" d="M342.74,501.75S334,495,343,488c4-2,12,4,17,11s29,7,41-11,27-55,49-66c0,0-18,1-35,31s-28,44-39,43-15-4-15-4l-13-14-10,6-7.67,6.75S337.49,502.51,342.74,501.75Z"/><path class="cls-13" d="M455,449s27,3,25,12l10-13S461,446,455,449Z"/><path class="cls-13" d="M456,447s12-9,40-4,60,1,71-10c0,0-9,16-31,18s-51-3-51-3S460,445,456,447Z"/><path class="cls-13" d="M517,407s-3,17,9,16,31-9,31-9,10,6,16,1c0,0-6,7-11,7s-5-2-5-2l-32,12-29-4,15-12Z"/><path class="cls-13" d="M440,358s-14,57,34,66c0,0-15.64-5-30.82,0,0,0-15.18-26-14.18-34S436,362,440,358Z"/><polygon class="cls-14" points="621 334 617 347 633 350 621 334"/><path class="cls-14" d="M580,337l12,4s-30,46,35,52l-2,4-3,1-19-4-33-10Z"/><path class="cls-14" d="M622,333l10,2s9,10,8,18-6,30,25,25l-1,6-35-1,4-29-1-5Z"/></g><g id="líneas"><path class="cls-15" d="M562.77,531.72c-7.53-1.45-18-2.92-28.66-4.21q10.71-39.69,21-79.47a1.43,1.43,0,0,0,0-.65c.52-.24,1-.48,1.57-.74,4.31-2.12,10.47-5.32,12.35-10.06a6.51,6.51,0,0,0-2.76-8.28,10,10,0,0,0-5.12-1.35,30.26,30.26,0,0,0,1-2.92,1.38,1.38,0,0,0,0-.72c9.2,1.59,18.63-10.2,11.78-18.63a4.44,4.44,0,0,0-1.32-1c.19-.06-.73-.8-.81-.88a9.78,9.78,0,0,0-2.89-1.83,12.52,12.52,0,0,0-1.36-.43q1.85-7.4,3.67-14.79c9.83,2.95,19.74,5.54,29.61,8.36,8.17,2.34,16.22,5.32,24.84,4.24.5-.06,2.12-.29,2.31-.94,1.2-4.05,2.4-8.22,3.5-12.46,10.83.8,21.75.8,32.59.78,1,0,2.66-.83,2.9-1.9,3.39-14.82,5.7-29.92,8-44.94.1-.66-.69-1-1.2-1.12-17.32-2.44-34.83-3.58-52-7a2.24,2.24,0,0,0-1.16.11c-1.31-.26-2.84,0-3.06,1.11a138.21,138.21,0,0,1-3.2,13.48q-14.7-3.68-29-8.74A4.18,4.18,0,0,0,583,337q2.55-10.74,5.07-21.49c.34-1.43-2.76-5.17-3.25-3.07Q578,341.32,571,370.14a1.32,1.32,0,0,0,0-.44,1.13,1.13,0,0,0-.51-.69.84.84,0,0,0-.69-.1,8.47,8.47,0,0,1-6.6-.92,9.88,9.88,0,0,1-4.51-6.21,1.1,1.1,0,0,0-.5-.7.91.91,0,0,0-.7-.09,1.09,1.09,0,0,0-.7,1.34c1.27,5.24-1.63,10.59-6.47,11.91a1.15,1.15,0,0,0-.2,2,.91.91,0,0,0,.7.1,8.31,8.31,0,0,1,2.22-.3,8.68,8.68,0,0,1,4.38,1.21,9.93,9.93,0,0,1,4.5,6.21,1.12,1.12,0,0,0,.51.7.88.88,0,0,0,.69.1,1.09,1.09,0,0,0,.7-1.34c-1.27-5.25,1.63-10.59,6.47-11.92a1,1,0,0,0,.73-.89q-3.53,14.42-7.11,28.81a2.22,2.22,0,0,0,.27,1.36,9.81,9.81,0,0,0-4.76,1.9A2.88,2.88,0,0,0,558,402a302.31,302.31,0,0,1-37.34,1.46,2.82,2.82,0,0,0-.83.1c4.83-18.74-3.56-42.12-20.19-53.37-11.1-7.52-25.8-10.66-38.9-7.49-15.11,3.65-25.89,15.65-31.18,29.85-6.53,17.53,1,35.06,10.42,50a35.23,35.23,0,0,0-9.31,6.05c-9.48,8.58-16.08,20.74-23.2,31.22-4.64,6.83-9.15,13.76-13.94,20.49-4,5.65-9.1,12-16.15,13.86a15.46,15.46,0,0,1-11.24-1.41,3.5,3.5,0,0,0-1.09-.6c-6.36-3.72-11.57-10.79-16.11-15.84a2.83,2.83,0,0,0-3.79-.61c-10.77,8-21.65,16-30.55,26.09-2.21,2.52-9.1,8.87-7.93,12.71,1.1,3.59,6.67,3,9.43,2.71a28.6,28.6,0,0,0,14.78-6.1c1.14-.92,2.09-2.36,3.27-3.14,1.6-1.06.86-1,2.83.34,2.45,1.71,4.64,3.68,7.22,5.23,3.54,2.14,6.53,3.77,9.52.21l.39-.49a59.83,59.83,0,0,0,45.42,12.82c16.47-2.11,31.16-10.88,42.69-22.55l.27,0c15.6,1.25,27.74,16.66,22.46,32.15-2.28,6.7-7.77,11.39-12,16.83a67.68,67.68,0,0,0-10.17,18.68c-.49,1.36,2.82,1.77,3.48,1.76,11.38-.25,22.78-.7,34.13-1.52,2.64-.18,15.73.41,15.63-3.67-.06-2.71-5.05-4.34-7-5.11a37,37,0,0,0-8.92-2.29c3.57-3.71,7.14-7.42,10.67-11.16.31-.22.41-.53,0-.95h0a5.08,5.08,0,0,0-2.27-1.1,50.45,50.45,0,0,0,11.63-19.05c9.47.82,19.11,2,28.86,3.43q-4,14.68-8.06,29.35c-.4,1.42,2.66,5.18,3.24,3.08q4.43-15.9,8.73-31.83c64.24,10.11,132.5,33.56,185.09,67.11a1.54,1.54,0,0,0,.45.2l4.63-3.4a1.43,1.43,0,0,0-.29-.24A459.76,459.76,0,0,0,562.77,531.72Zm1.91-159.65a12.31,12.31,0,0,0-2.71,5l-.32,1.2-.84-.89a11,11,0,0,0-4.63-3l-1.06-.35.76-.84a12.11,12.11,0,0,0,2.7-5l.33-1.2.84.9a11.23,11.23,0,0,0,4.63,3l1,.35Zm-3.48,66.27c-4.73,3.94-10.82,6.53-16.79,8.14a105.93,105.93,0,0,1-3.11-12.79q5.76-.46,11.47-1.33c2.55-.39,6.09-1.81,8.64-1.33C566.86,432.07,563.68,436.28,561.2,438.34ZM556.88,427a1.11,1.11,0,0,0,0,.37c-1.44.24-2.87.54-4.2.76a155.85,155.85,0,0,1-19,1.93l24.64-8.22,0,0,.27.15C558,423.65,557.33,425.27,556.88,427Zm-7.94-20.51c2.39-.16,4.79-.37,7.18-.59a14.27,14.27,0,0,0-1.14,2.32c-1.51,3.95-1.75,7.54.07,10.46l-.24,0-6.33,2.12A95.53,95.53,0,0,1,548.94,406.45Zm113.81-24.19c-10.1,0-20.25,0-30.31-.84h-.13c2.46-10.13,4.18-20.57,3.68-30.67a.79.79,0,0,0-.1-.77c-3.39-5.05-7.08-9.91-10.84-14.71,14.89,2.56,30,3.73,44.94,5.78C667.91,354.82,665.77,368.66,662.75,382.26Zm-43.7-36.07c.83-2.86,1.56-5.74,2.21-8.64,2.9,3.72,5.72,7.49,8.39,11.36q-5.43-1.07-10.82-2.33A1.09,1.09,0,0,0,619.05,346.19Zm11,4.74a3.36,3.36,0,0,0,1-.05l.06.08a.43.43,0,0,0-.05.25c.79,15.14-3.45,31.09-7.71,45.57-7.48.2-15.14-3.28-22.2-5.15-9.6-2.53-19.15-5.22-28.64-8.15a2.07,2.07,0,0,0-.74-.05q5.52-22.46,10.89-44.94A317.55,317.55,0,0,0,630.06,350.93Zm-59.54,52.21a10.45,10.45,0,0,1-.22,11.51,13.48,13.48,0,0,1-4.34,4.06c-2,1.19-3.87,1.34-5.92,1.8-.46-.26-.86-.24-1.08.25l-.23,0a14.67,14.67,0,0,0-.73-1.47,10.36,10.36,0,0,1-.08-2.89,19.08,19.08,0,0,1,1.68-6.55C561.59,405.6,565.85,402.32,570.52,403.14Zm-26.17,3.6a98.52,98.52,0,0,0-.61,15.64L520.83,430c-4.83-.2-9.67-.59-14.47-1.22-2.49-.33-5-.77-7.42-1.28A34.16,34.16,0,0,0,516,412.91a.93.93,0,0,0,.53.06c2.21-.67,4.63.67,6.76-.31,1.69-.78,2.63-3.65,3.18-5.45Q535.44,407.23,544.35,406.74Zm-86.46,12.49a94.67,94.67,0,0,1-1.44-14.65c-.13-5.11-.47-10.74,1.51-15.55,4.21-10.22,17.05-13.43,27.2-12.74,10.53.72,21.39,5.76,22.8,17.3,1.1,9.05-1.48,22-7.56,28.9,0,.06-.07.11-.11.16a34.85,34.85,0,0,1-7,3.61c-9.47-2.27-18.79-5.15-28.45-6.48A58.26,58.26,0,0,0,457.89,419.23Zm25.41,11.7a8.66,8.66,0,0,0,1-2.92c5.65,1.39,11.29,2.77,17,3.84-.26,1.54-.73,2.78-2.6,2.93-2.33.2-5.74-1.18-8-1.65s-4.75-1.08-7.14-1.47l-.4-.08A1.5,1.5,0,0,0,483.3,430.93Zm36.41-23.8,1.64,0a5.92,5.92,0,0,1-1.74,2.48,3.71,3.71,0,0,1-2.19.57c.5-1.06.94-2.14,1.34-3.24A3.13,3.13,0,0,0,519.71,407.13Zm-88-22.11c.88-12.59,8.61-25.94,18.62-33.49,13.7-10.33,32.92-11,46.87-.74,11.67,8.62,18.85,23,19.48,37.42a41.61,41.61,0,0,1-5.61,23c.17-.7.32-1.39.47-2.1,1.22-5.89,2.49-12.69.89-18.62-3.15-11.61-14.47-16.3-25.46-17.55-10.67-1.23-25,1.55-31.51,10.88-3.55,5.1-4,10.69-4,16.73a103.94,103.94,0,0,0,1.51,18.81,41.83,41.83,0,0,0-9.77,2C436.57,410.48,430.77,397.89,431.67,385Zm-82.11,125.8c-1.59,1.11-1.57.64-3.42-.49a48.78,48.78,0,0,1-6.38-4.67c-2.08-1.77-4.41-4-7.34-2.57-1.72.81-2.93,2.82-4.3,4.05a24.37,24.37,0,0,1-6.55,4.19,22.55,22.55,0,0,1-8.42,2c-.18,0-1.14-.17-1.46,0a28.45,28.45,0,0,1,3-4,98.11,98.11,0,0,1,10.08-11.09,230.3,230.3,0,0,1,22.2-18c4.37,5,8.7,10.21,14.24,13.92l-8.7,12.57C351.67,508,350.84,509.94,349.56,510.82Zm121.36,16.6c-1-14.5-13.19-23.94-26.68-26,.86-.93,1.71-1.87,2.53-2.83s-3.27-3.81-4.17-2.76c-20.86,24.36-59.75,39.53-87.31,16.16l-.1-.07c3.75-4.83,7-10.25,10.42-15.32A21.26,21.26,0,0,0,387.77,494c9.35-7.18,15.42-19,21.92-28.61,7.39-10.9,14.17-23.37,23.68-32.6,10.75-10.42,24.94-10.76,38.83-7.65,2.44.55,4.87,1.13,7.28,1.72-1.14,3.47-1.8,6.23,2.7,7.77,3.49,1.2,7.52,1.59,11.14,2.33,3.15.65,6.94,2,10.16,1.89.37,0,1-.07,1.16-.47a19.54,19.54,0,0,0,1.34-5.7c1.94.3,3.89.56,5.86.76q4.43.45,8.86.64a1.56,1.56,0,0,0,.67,0q7.51.32,15-.07a105.13,105.13,0,0,0,3.14,13.6c-28.52,5.52-57.35-6.72-86-1.43-3.06.57-.42,4.43,2,4a82.45,82.45,0,0,1,11.34-1.25q-4.61,8.8-8.43,18c-1.06,2.55,3,5.32,4.16,2.47a224.72,224.72,0,0,1,9.75-20.5s0,0,0-.06c4.27,0,8.54.3,12.81.68-5.49,7.43-10.52,15.23-15.43,23-.27.44.28.65.61.79a45.78,45.78,0,0,1,26.76,32.82c2.86,14.86-3.27,30-13.58,40.6-6.19-.67-12.36-1.27-18.59-1.44C468.88,540,471.38,534.37,470.92,527.42ZM489.75,568c-.72.88-6.74.69-7.76.78-5.5.46-11,.77-16.53,1q-8.54.4-17.08.63c3.44-8.55,8.51-15.5,14.51-22.55l.08-.09a185.27,185.27,0,0,1,21.7,1.52q-5.37,5.65-10.8,11.27c-1.09,1.13,2.15,2,2.72,2C477.49,562.62,492.52,564.52,489.75,568Zm11.83-43.84h-.35a43.46,43.46,0,0,0-8.35-37.51,47.69,47.69,0,0,0-10.89-10c-1.35-.89-5.93-2.41-6.73-3.68a3.92,3.92,0,0,0-.36-.49,11.84,11.84,0,0,1,.79-1.12c4.59-7.24,9.27-14.46,14.37-21.35,16.53,1.78,33.07,4.68,49.67,1.94a65.18,65.18,0,0,0,11.06-2.8q-10.18,39-20.63,77.93C519.59,525.8,509.16,524.76,501.58,524.11Z"/><path class="cls-15" d="M270,432.75c1.48.95,6-.12,3.63-1.63-26-16.67-70.9-12-84.47,18.92a30,30,0,0,0,1,3.93c1.16.25,2.48,0,2.79-.78C204.22,423.65,245.28,416.94,270,432.75Z"/><path class="cls-15" d="M294.81,456.55a2.42,2.42,0,0,0-1.93-1.17c-.88.68-1.79,1.37-2.62,2,6.58,17.84,2.7,38.86-11.58,52-16,14.74-40.31,14.59-57.65,2.37a2.56,2.56,0,0,0-.92-.34l-2.48,2.13c17.74,12.36,42.23,14,60.41,1.43C296.64,502.12,302.69,477.16,294.81,456.55Z"/><path class="cls-15" d="M649.57,491.07a92.68,92.68,0,0,0-28.19,7c-3.18,1.37-7.45,2.77-7.32,6.92.12,3.44,3,4.95,6,5.52a239.53,239.53,0,0,0,29.06,3.38c2.08,9.13,6.81,17.47,13.06,24.73a14.71,14.71,0,0,1,.87-1.33c-.12-.17-.25-.33-.37-.48a42.28,42.28,0,0,1-10.07-22.68l4,.27c11.26.78,22.54,1.13,33.83,1.16l4.84-3.55a3.8,3.8,0,0,0-3.41-2.45q-19.85,0-39.64-1.5a47.08,47.08,0,0,1,18.53-37.29c19.32-14.37,49.28-12.27,63.83,8.09,1.36,1.91,4.87,4.09,2.24.42-16.15-22.61-46.76-31-70.11-13.59A46.85,46.85,0,0,0,649.57,491.07Zm-13,15.5c-4.48-.5-9-1.33-13.45-1.67-2-.16-2.87.15-.42-.55,2.06-.6,4.06-1.74,6.09-2.47a89,89,0,0,1,19.49-4.53c-.21,1.62-.35,3.25-.4,4.89a44.56,44.56,0,0,0,.17,5.44C644.25,507.35,640.42,507,636.6,506.57Z"/><path class="cls-15" d="M752.5,515.86c-.63-.07-1.22-.1-1.74-.11-5,25-31.73,38.35-55.64,36.55l-3.39,2.46c.67,1.06,1.49,2,2.22,2.13,25.65,4.21,56.23-9.72,61.2-37.27C755.33,518.64,753.77,516.93,752.5,515.86Z"/><path class="cls-15" d="M808.82,220.13c-27.57-4.92-55.1,4.74-73,26.38.17-.2,5.37,2.88,6.22,1.85a75,75,0,0,1,68.48-26.79l1.07-.86A26.46,26.46,0,0,0,808.82,220.13Z"/><path class="cls-15" d="M293.8,560.37a62.27,62.27,0,0,0-6.26,6.77,462,462,0,0,1,87.27-29.21l-6.23-2.34A474.16,474.16,0,0,0,293.8,560.37Z"/><path class="cls-15" d="M362.73,161.57a1.47,1.47,0,0,0,1.12.16,13.54,13.54,0,0,1,3.57-.49,14,14,0,0,1,7,1.95,15.92,15.92,0,0,1,7.23,10,1.77,1.77,0,0,0,.81,1.12,1.41,1.41,0,0,0,1.11.16,1.76,1.76,0,0,0,1.13-2.15c-2-8.43,2.62-17,10.39-19.14a1.84,1.84,0,0,0,.33-3.27,1.44,1.44,0,0,0-1.12-.16,13.62,13.62,0,0,1-10.61-1.47,15.89,15.89,0,0,1-7.23-10,1.8,1.8,0,0,0-.81-1.12,1.4,1.4,0,0,0-1.11-.15,1.75,1.75,0,0,0-1.13,2.15c2,8.42-2.62,17-10.39,19.14a1.75,1.75,0,0,0-1.13,2.15A1.79,1.79,0,0,0,362.73,161.57Zm9.3-4.93a19.5,19.5,0,0,0,4.34-8l.52-1.92,1.36,1.44a18,18,0,0,0,7.43,4.78l1.69.56-1.21,1.34a19.56,19.56,0,0,0-4.34,8l-.53,1.93-1.35-1.44a18,18,0,0,0-7.43-4.79l-1.7-.55Z"/><path class="cls-15" d="M209.46,551a.84.84,0,0,0-.69-.1,8.47,8.47,0,0,1-6.6-.92,9.88,9.88,0,0,1-4.51-6.21,1.1,1.1,0,0,0-.5-.7.91.91,0,0,0-.7-.09,1.09,1.09,0,0,0-.7,1.34c1.27,5.24-1.63,10.59-6.47,11.91a1.15,1.15,0,0,0-.2,2,.91.91,0,0,0,.7.1,8.31,8.31,0,0,1,2.22-.3,8.68,8.68,0,0,1,4.38,1.21,9.93,9.93,0,0,1,4.5,6.21,1.12,1.12,0,0,0,.51.7.88.88,0,0,0,.69.1,1.09,1.09,0,0,0,.7-1.34c-1.27-5.25,1.63-10.59,6.47-11.92a1.1,1.1,0,0,0,.71-1.34A1.13,1.13,0,0,0,209.46,551Zm-5.78,3.06a12.31,12.31,0,0,0-2.71,5l-.32,1.2-.84-.89a11,11,0,0,0-4.63-3l-1.06-.35.76-.84a12.11,12.11,0,0,0,2.7-5l.33-1.2.84.9a11.23,11.23,0,0,0,4.63,3l1.05.35Z"/><path class="cls-15" d="M653.09,207.28a.91.91,0,0,0,.7.1,8.31,8.31,0,0,1,2.22-.3,8.68,8.68,0,0,1,4.38,1.21,9.93,9.93,0,0,1,4.5,6.21,1.12,1.12,0,0,0,.51.7.88.88,0,0,0,.69.1,1.09,1.09,0,0,0,.7-1.34c-1.27-5.25,1.63-10.59,6.47-11.92a1.1,1.1,0,0,0,.71-1.34,1.13,1.13,0,0,0-.51-.69.84.84,0,0,0-.69-.1,8.47,8.47,0,0,1-6.6-.92,9.88,9.88,0,0,1-4.51-6.21,1.1,1.1,0,0,0-.5-.7.91.91,0,0,0-.7-.09,1.09,1.09,0,0,0-.7,1.34c1.27,5.24-1.63,10.59-6.47,11.91a1.15,1.15,0,0,0-.2,2Zm5.79-3.07a12.11,12.11,0,0,0,2.7-5l.33-1.2.84.9a11.23,11.23,0,0,0,4.63,3l1,.35-.75.83a12.31,12.31,0,0,0-2.71,5l-.32,1.2-.84-.89a11,11,0,0,0-4.63-3l-1.06-.35Z"/><path class="cls-15" d="M335.32,156.94a3.63,3.63,0,1,0-3.63-3.63A3.63,3.63,0,0,0,335.32,156.94Zm0-5.3a1.67,1.67,0,1,1-1.66,1.67A1.67,1.67,0,0,1,335.32,151.64Z"/><path class="cls-15" d="M614.56,128.37a3.63,3.63,0,1,0-3.63-3.63A3.64,3.64,0,0,0,614.56,128.37Zm0-5.3a1.67,1.67,0,1,1-1.67,1.67A1.67,1.67,0,0,1,614.56,123.07Z"/><path class="cls-15" d="M762.62,435.41a3.63,3.63,0,1,0,3.63,3.63A3.64,3.64,0,0,0,762.62,435.41Zm0,5.3a1.67,1.67,0,1,1,1.66-1.67A1.67,1.67,0,0,1,762.62,440.71Z"/><path class="cls-15" d="M361.3,403.71a3.63,3.63,0,1,0-3.63-3.63A3.64,3.64,0,0,0,361.3,403.71Zm0-5.3a1.67,1.67,0,1,1-1.67,1.67A1.67,1.67,0,0,1,361.3,398.41Z"/><path class="cls-15" d="M467.3,245.71a3.63,3.63,0,1,0-3.63-3.63A3.64,3.64,0,0,0,467.3,245.71Zm0-5.3a1.67,1.67,0,1,1-1.67,1.67A1.67,1.67,0,0,1,467.3,240.41Z"/><path class="cls-15" d="M84,541.26a3.63,3.63,0,1,0,3.63,3.63A3.64,3.64,0,0,0,84,541.26Zm0,5.3a1.67,1.67,0,1,1,1.67-1.67A1.66,1.66,0,0,1,84,546.56Z"/><path class="cls-15" d="M814.57,194.6a3.63,3.63,0,1,0-3.63-3.63A3.63,3.63,0,0,0,814.57,194.6Zm0-5.29A1.67,1.67,0,1,1,812.9,191,1.67,1.67,0,0,1,814.57,189.31Z"/><path class="cls-15" d="M732.85,438.4h3.33v3.33a1,1,0,1,0,2,0V438.4h3.34a1,1,0,1,0,0-2h-3.34V433.1a1,1,0,0,0-2,0v3.34h-3.33a1,1,0,0,0,0,2Z"/><path class="cls-15" d="M682.19,290.34h3.34v3.34a1,1,0,1,0,2,0v-3.34h3.34a1,1,0,0,0,0-2h-3.34V285a1,1,0,1,0-2,0v3.34h-3.34a1,1,0,1,0,0,2Z"/><path class="cls-15" d="M306.85,399.44h3.34v3.33a1,1,0,1,0,2,0v-3.33h3.33a1,1,0,1,0,0-2h-3.33v-3.33a1,1,0,1,0-2,0v3.33h-3.34a1,1,0,0,0,0,2Z"/><path class="cls-15" d="M399.85,349.44h3.34v3.33a1,1,0,1,0,2,0v-3.33h3.33a1,1,0,1,0,0-2h-3.33v-3.33a1,1,0,1,0-2,0v3.33h-3.34a1,1,0,0,0,0,2Z"/><path class="cls-15" d="M129.11,498.13h-3.33v-3.34a1,1,0,0,0-2,0v3.34h-3.33a1,1,0,0,0,0,2h3.33v3.34a1,1,0,0,0,2,0v-3.34h3.33a1,1,0,0,0,0-2Z"/><path class="cls-15" d="M381.61,251.93a1.26,1.26,0,0,0-1.58-.81l-3.93,1.24-1.24-3.93a1.25,1.25,0,0,0-2.39.75l1.24,3.93-3.93,1.25a1.25,1.25,0,0,0,.37,2.45,1.21,1.21,0,0,0,.38-.06l3.94-1.24,1.24,3.93a1.25,1.25,0,0,0,1.19.87,1.2,1.2,0,0,0,.38-.05,1.26,1.26,0,0,0,.82-1.58l-1.24-3.93,3.93-1.24A1.26,1.26,0,0,0,381.61,251.93Z"/><path class="cls-15" d="M470.86,282.43a1.25,1.25,0,1,0-2.39.75l1.24,3.93-3.93,1.25a1.25,1.25,0,0,0,.37,2.45,1.21,1.21,0,0,0,.38-.06l3.94-1.24,1.24,3.93a1.25,1.25,0,0,0,1.19.87,1.2,1.2,0,0,0,.38-.05,1.26,1.26,0,0,0,.82-1.58l-1.24-3.93,3.93-1.24a1.25,1.25,0,1,0-.76-2.39l-3.93,1.24Z"/><path class="cls-15" d="M606.53,156.8a1.31,1.31,0,0,0,.38-.06l3.93-1.24,1.24,3.93a1.26,1.26,0,0,0,1.2.88,1.31,1.31,0,0,0,.38-.06,1.25,1.25,0,0,0,.81-1.57l-1.24-3.94,3.94-1.24a1.25,1.25,0,0,0-.76-2.39l-3.93,1.24-1.25-3.93a1.25,1.25,0,1,0-2.39.76l1.25,3.93-3.94,1.24a1.25,1.25,0,0,0,.38,2.45Z"/><path class="cls-15" d="M450.68,68.49a1.31,1.31,0,0,0,.38-.06L455,67.18l1.24,3.94a1.26,1.26,0,0,0,1.2.87,1.28,1.28,0,0,0,.38,0,1.26,1.26,0,0,0,.81-1.58l-1.24-3.93,3.93-1.24a1.26,1.26,0,0,0,.82-1.58,1.25,1.25,0,0,0-1.57-.81L456.63,64l-1.25-3.93a1.25,1.25,0,0,0-2.39.75l1.24,3.93L450.3,66a1.25,1.25,0,0,0-.82,1.57A1.27,1.27,0,0,0,450.68,68.49Z"/><path class="cls-15" d="M601.1,484.41a1.26,1.26,0,0,0-1.57-.82l-3.94,1.25-1.24-3.94a1.25,1.25,0,0,0-2.39.76l1.24,3.93-3.93,1.25a1.25,1.25,0,0,0-.82,1.57,1.26,1.26,0,0,0,1.2.88,1.19,1.19,0,0,0,.37-.06L594,488l1.24,3.94a1.25,1.25,0,0,0,1.2.87,1.19,1.19,0,0,0,.37-.06,1.25,1.25,0,0,0,.82-1.57l-1.24-3.93,3.93-1.24A1.26,1.26,0,0,0,601.1,484.41Z"/></g></g></svg>