<svg xmlns="http://www.w3.org/2000/svg" xmlns:xlink="http://www.w3.org/1999/xlink" viewBox="0 0 882 768"><defs><style>.cls-1{fill:#ebf0f8;}.cls-2{fill:url(#Degradado_sin_nombre_10);}.cls-3{fill:url(#Degradado_sin_nombre_10-2);}.cls-4{fill:url(#Degradado_sin_nombre_10-3);}.cls-5{fill:url(#Degradado_sin_nombre_10-4);}.cls-6{fill:url(#Degradado_sin_nombre_10-5);}.cls-7{fill:url(#Degradado_sin_nombre_10-6);}.cls-8{fill:#67aaf9;}.cls-9{fill:#494949;}.cls-10{fill:url(#linear-gradient);}.cls-11{fill:url(#linear-gradient-2);}.cls-12{fill:url(#linear-gradient-3);}.cls-13{fill:#4191e0;}.cls-14{fill:#c4e0f9;}</style><linearGradient id="Degradado_sin_nombre_10" x1="732.81" y1="205.2" x2="839.5" y2="205.2" gradientUnits="userSpaceOnUse"><stop offset="0" stop-color="#c4e0f9"/><stop offset="0.06" stop-color="#bfddf9"/><stop offset="0.38" stop-color="#abd2f7"/><stop offset="0.7" stop-color="#9ecbf5"/><stop offset="1" stop-color="#9ac9f5"/></linearGradient><linearGradient id="Degradado_sin_nombre_10-2" x1="640.91" y1="296" x2="705.38" y2="296" xlink:href="#Degradado_sin_nombre_10"/><linearGradient id="Degradado_sin_nombre_10-3" x1="432.44" y1="625.31" x2="274.95" y2="766.3" xlink:href="#Degradado_sin_nombre_10"/><linearGradient id="Degradado_sin_nombre_10-4" x1="296.94" y1="473.95" x2="139.45" y2="614.95" xlink:href="#Degradado_sin_nombre_10"/><linearGradient id="Degradado_sin_nombre_10-5" x1="627.71" y1="219.15" x2="684.73" y2="219.15" xlink:href="#Degradado_sin_nombre_10"/><linearGradient id="Degradado_sin_nombre_10-6" x1="354.13" y1="537.84" x2="196.64" y2="678.83" xlink:href="#Degradado_sin_nombre_10"/><linearGradient id="linear-gradient" x1="623.43" y1="459.49" x2="623.43" y2="536.33" gradientTransform="translate(-78.64 445.86) rotate(-34.17)" gradientUnits="userSpaceOnUse"><stop offset="0" stop-color="#0fa"/><stop offset="0.13" stop-color="#07dfad"/><stop offset="0.31" stop-color="#0fbab0"/><stop offset="0.48" stop-color="#159db3"/><stop offset="0.66" stop-color="#1989b5"/><stop offset="0.83" stop-color="#1c7cb6"/><stop offset="1" stop-color="#1d78b6"/></linearGradient><linearGradient id="linear-gradient-2" x1="395.9" y1="461.2" x2="395.9" y2="538.04" xlink:href="#linear-gradient"/><linearGradient id="linear-gradient-3" x1="507.6" y1="552.8" x2="507.6" y2="657.22" xlink:href="#linear-gradient"/></defs><title>Artboard 1 copia 3</title><g id="fondo"><rect class="cls-1" x="285.11" y="85.17" width="206.29" height="49.35" rx="22.99" ry="22.99" transform="translate(13.47 259.32) rotate(-37.54)"/><rect class="cls-1" x="723.57" y="179.24" width="138.58" height="49.35" rx="24.68" ry="24.68" transform="translate(39.93 525.33) rotate(-37.54)"/><rect class="cls-1" x="14.21" y="509.98" width="160.64" height="49.35" rx="24.68" ry="24.68" transform="translate(-306.2 168.31) rotate(-37.54)"/><path class="cls-1" d="M736.08,520.09a23,23,0,0,1,32.21,4.22l2.08,2.71a23,23,0,0,1-4.22,32.21L546,728.39a23,23,0,0,1-32.21-4.22l-2.07-2.71a23,23,0,0,1,4.21-32.21l45.81-35.73a14.87,14.87,0,0,0,2.74-20.85l-1.33-1.73a14.88,14.88,0,0,0-20.86-2.73L405.72,734.89a24.68,24.68,0,0,1-34.6-4.53h0a24.66,24.66,0,0,1,4.53-34.6l37.15-28.55h0a14.72,14.72,0,0,0,2.7-20.65l-1.31-1.71a14.72,14.72,0,0,0-20.65-2.7l-78.44,61.08a24.67,24.67,0,0,1-34.6-4.53h0a24.68,24.68,0,0,1,4.53-34.6L427.35,555.24a14.87,14.87,0,0,0,2.73-20.85l-1.33-1.73a14.87,14.87,0,0,0-20.85-2.73l-92.81,72a24.67,24.67,0,0,1-34.6-4.53h0a24.68,24.68,0,0,1,4.53-34.6l72.89-56.68a14.47,14.47,0,0,0,2.66-20.29l-1.29-1.68A14.47,14.47,0,0,0,339,481.48L174.39,608.74a24.68,24.68,0,0,1-34.61-4.53h0a24.68,24.68,0,0,1,4.53-34.6L294.6,454.21a14.73,14.73,0,0,0,2.71-20.65L296,431.84a14.74,14.74,0,0,0-17.13-4.71L229,465.51a24.67,24.67,0,0,1-34.6-4.53h0a24.66,24.66,0,0,1,4.53-34.6L345.06,313.79a14.49,14.49,0,0,0,2.66-20.32l-1.29-1.69a14.5,14.5,0,0,0-20.32-2.66l-1.86,1.75a7.34,7.34,0,0,1-.6.51L315.09,298a24.67,24.67,0,0,1-34.6-4.53h0a24.68,24.68,0,0,1,4.53-34.6L497.43,95.65A24.7,24.7,0,0,1,532,100.18h0a24.7,24.7,0,0,1-4.53,34.61l-49,36.86-.09.22a14.6,14.6,0,0,0-2.68,20.48l1.3,1.7a14.61,14.61,0,0,0,20.48,2.69L631.59,93.87a24.68,24.68,0,0,1,34.6,4.53h0a24.68,24.68,0,0,1-4.53,34.6l-81.23,62.43h0a14.7,14.7,0,0,0-.15,18.1l1.31,1.71a14.68,14.68,0,0,0,20.6,2.7L645,184.85a24.67,24.67,0,0,1,34.6,4.53h0a24.66,24.66,0,0,1-4.53,34.6l-63.66,49.36a14.53,14.53,0,0,0-2.67,20.39l1.3,1.7a14.54,14.54,0,0,0,20.39,2.67l35.22-27.81a24.67,24.67,0,0,1,34.6,4.53h0a24.67,24.67,0,0,1-4.53,34.6l-60.8,46a14.41,14.41,0,0,0-2.65,20.2l1.29,1.67a14.4,14.4,0,0,0,20.19,2.65h0l9.94-6.8a24.67,24.67,0,0,1,34.6,4.53h0a24.67,24.67,0,0,1-4.53,34.6l-46.44,35.49a14.77,14.77,0,0,0-2.72,20.71l1.32,1.72a14.78,14.78,0,0,0,20.71,2.71l68.5-53.36A24.68,24.68,0,0,1,769.76,424h0a24.68,24.68,0,0,1-4.53,34.6l-98.68,74.92a14.8,14.8,0,0,0-2.72,20.76l1.32,1.72a14.81,14.81,0,0,0,20.76,2.72Z"/><path class="cls-1" d="M847.81,161.7h0a24.69,24.69,0,0,0-30.53-7.08c11,12,18.05,30.29,22.22,44.58l3.77-2.9A24.68,24.68,0,0,0,847.81,161.7Z"/><path class="cls-2" d="M813.2,157.17l-70.75,54.36a24.68,24.68,0,0,0-4.53,34.61h0a24.68,24.68,0,0,0,34.6,4.53l67-51.47c-4.17-14.29-11.25-32.61-22.22-44.58A25,25,0,0,0,813.2,157.17Z"/><path class="cls-3" d="M673.1,326.83l22.64-17.41a24.67,24.67,0,0,0,4.53-34.6h0a24.67,24.67,0,0,0-34.6-4.53l-24.76,19C647.74,301.78,658,314.6,673.1,326.83Z"/><path class="cls-4" d="M406,571.08l-121,93a24.67,24.67,0,1,0,30.07,39.13l78.44-61.08a14.72,14.72,0,0,1,20.65,2.7l1.31,1.71a14.72,14.72,0,0,1-2.7,20.65h0l-37.15,28.55a24.66,24.66,0,0,0-4.53,34.6h0a24.68,24.68,0,0,0,34.6,4.53l66.73-52.12c-4.14-13-10.77-32-18.45-46.77C445.12,618.93,427.85,593.47,406,571.08Z"/><path class="cls-5" d="M144.31,569.61a24.68,24.68,0,0,0-4.53,34.6h0a24.68,24.68,0,0,0,34.61,4.53L305.46,507.4c-20-7.33-41.47-12.14-63.88-12.48Z"/><path class="cls-6" d="M629.85,258.57,675.09,224a24.66,24.66,0,0,0,4.53-34.6h0a24.67,24.67,0,0,0-34.6-4.53l-8.77,6.77a84.83,84.83,0,0,0-7.75,27.88C627.75,228.56,626.71,242.46,629.85,258.57Z"/><path class="cls-7" d="M337.73,521.8l-52.71,41a24.68,24.68,0,0,0-4.53,34.6h0a24.67,24.67,0,0,0,34.6,4.53l67.13-52.22q-4.55-3.53-9.22-6.7A367.2,367.2,0,0,0,337.73,521.8Z"/></g><g id="colores"><path class="cls-8" d="M310.9,465.94s11.69,1.3,15.59,10.39c0,0-1.3-9.09,7.79-16.88,0,0-14.29-5.2-15.58-10.39C318.7,449.06,322.59,456.85,310.9,465.94Z"/><path class="cls-8" d="M654.38,110.42s10,1.11,13.4,8.93c0,0-1.12-7.82,6.7-14.52,0,0-12.28-4.46-13.4-8.93C661.08,95.9,664.43,102.6,654.38,110.42Z"/></g><g id="líneas"><path class="cls-9" d="M375.76,48.26c1.88-.84,5.08-2.48,3.86-5.09-1.14-2.45-4.21-1.32-6-.55-2.07.88-5.38,2.44-4.24,5.25C370.69,50.39,373.75,49.15,375.76,48.26Zm.92-1.59a2,2,0,0,1-.69-.26.87.87,0,0,1-.11-.09C377.12,46.06,377.92,46.92,376.68,46.67Z"/><path class="cls-9" d="M347.66,457.19a1.76,1.76,0,0,0,1.12-2.15,1.81,1.81,0,0,0-.8-1.13,1.43,1.43,0,0,0-1.12-.15,13.64,13.64,0,0,1-10.6-1.47,15.91,15.91,0,0,1-7.24-10,1.8,1.8,0,0,0-.8-1.12,1.48,1.48,0,0,0-1.12-.16,1.77,1.77,0,0,0-1.13,2.15c2,8.43-2.62,17-10.39,19.15a1.76,1.76,0,0,0-1.13,2.15,1.83,1.83,0,0,0,.81,1.12,1.4,1.4,0,0,0,1.11.15,13.55,13.55,0,0,1,3.58-.48,14,14,0,0,1,7,2,15.92,15.92,0,0,1,7.23,10,1.77,1.77,0,0,0,.81,1.12,1.45,1.45,0,0,0,1.11.16,1.76,1.76,0,0,0,1.13-2.15C335.22,467.9,339.88,459.31,347.66,457.19Zm-13.32,9.68-.52,1.92-1.35-1.43a18,18,0,0,0-7.43-4.79l-1.7-.56,1.21-1.34a19.64,19.64,0,0,0,4.35-8l.52-1.92,1.35,1.43a17.87,17.87,0,0,0,7.43,4.79l1.7.56-1.22,1.34A19.73,19.73,0,0,0,334.34,466.87Z"/><path class="cls-9" d="M658.12,110.12a1.25,1.25,0,0,0,1,.13,11.72,11.72,0,0,1,9.12,1.27,13.68,13.68,0,0,1,6.22,8.58,1.54,1.54,0,0,0,.7,1,1.24,1.24,0,0,0,1,.13,1.52,1.52,0,0,0,1-1.84c-1.76-7.25,2.25-14.63,8.93-16.46a1.51,1.51,0,0,0,1-1.85,1.55,1.55,0,0,0-.69-1,1.25,1.25,0,0,0-1-.13,11.76,11.76,0,0,1-9.12-1.26A13.71,13.71,0,0,1,670,90.1a1.55,1.55,0,0,0-.69-1,1.25,1.25,0,0,0-1-.13,1.51,1.51,0,0,0-1,1.85c1.75,7.24-2.26,14.63-8.94,16.46a1.58,1.58,0,0,0-.28,2.81Zm8-4.24a16.86,16.86,0,0,0,3.73-6.9l.45-1.66,1.16,1.24a15.33,15.33,0,0,0,6.39,4.11l1.46.48-1,1.16a16.87,16.87,0,0,0-3.74,6.9l-.45,1.66-1.16-1.24a15.43,15.43,0,0,0-6.39-4.11l-1.46-.48Z"/><path class="cls-9" d="M335.32,149.68a3.63,3.63,0,1,0,3.63,3.63A3.64,3.64,0,0,0,335.32,149.68Zm0,5.3a1.67,1.67,0,1,1,1.67-1.67A1.66,1.66,0,0,1,335.32,155Z"/><path class="cls-9" d="M614.56,128.37a3.63,3.63,0,1,0-3.63-3.63A3.64,3.64,0,0,0,614.56,128.37Zm0-5.3a1.67,1.67,0,1,1-1.67,1.67A1.67,1.67,0,0,1,614.56,123.07Z"/><path class="cls-9" d="M762.62,435.41a3.63,3.63,0,1,0,3.63,3.63A3.64,3.64,0,0,0,762.62,435.41Zm0,5.3a1.67,1.67,0,1,1,1.66-1.67A1.67,1.67,0,0,1,762.62,440.71Z"/><path class="cls-9" d="M361.3,403.71a3.63,3.63,0,1,0-3.63-3.63A3.64,3.64,0,0,0,361.3,403.71Zm0-5.3a1.67,1.67,0,1,1-1.67,1.67A1.67,1.67,0,0,1,361.3,398.41Z"/><path class="cls-9" d="M84,541.26a3.63,3.63,0,1,0,3.63,3.63A3.64,3.64,0,0,0,84,541.26Zm0,5.3a1.67,1.67,0,1,1,1.67-1.67A1.66,1.66,0,0,1,84,546.56Z"/><path class="cls-9" d="M741.48,436.44h-3.34V433.1a1,1,0,0,0-2,0v3.34h-3.33a1,1,0,0,0,0,2h3.33v3.33a1,1,0,1,0,2,0V438.4h3.34a1,1,0,1,0,0-2Z"/><path class="cls-9" d="M315.48,397.47h-3.33v-3.33a1,1,0,1,0-2,0v3.33h-3.34a1,1,0,0,0,0,2h3.34v3.33a1,1,0,1,0,2,0v-3.33h3.33a1,1,0,1,0,0-2Z"/><path class="cls-9" d="M129.11,498.13h-3.33v-3.34a1,1,0,0,0-2,0v3.34h-3.34a1,1,0,0,0,0,2h3.34v3.34a1,1,0,0,0,2,0v-3.34h3.33a1,1,0,0,0,0-2Z"/><path class="cls-9" d="M606.53,156.8a1.31,1.31,0,0,0,.38-.06l3.93-1.24,1.24,3.93a1.26,1.26,0,0,0,1.2.88,1.31,1.31,0,0,0,.38-.06,1.25,1.25,0,0,0,.81-1.57l-1.24-3.94,3.93-1.24a1.25,1.25,0,1,0-.75-2.39l-3.93,1.24-1.25-3.93a1.25,1.25,0,1,0-2.39.76l1.25,3.93-3.94,1.24a1.25,1.25,0,0,0,.38,2.45Z"/><path class="cls-9" d="M450.68,68.49a1.31,1.31,0,0,0,.38-.06L455,67.18l1.24,3.94a1.26,1.26,0,0,0,1.2.87,1.28,1.28,0,0,0,.38,0,1.26,1.26,0,0,0,.81-1.58l-1.24-3.93,3.93-1.24a1.26,1.26,0,0,0,.82-1.58,1.25,1.25,0,0,0-1.57-.81L456.62,64l-1.24-3.93a1.25,1.25,0,0,0-2.39.75l1.24,3.93L450.3,66a1.25,1.25,0,0,0-.82,1.57A1.27,1.27,0,0,0,450.68,68.49Z"/><path class="cls-9" d="M371.45,330.41a1.26,1.26,0,0,0,1.2.88,1.19,1.19,0,0,0,.37-.06L377,330l1.24,3.94a1.25,1.25,0,0,0,1.2.87,1.19,1.19,0,0,0,.37-.06,1.25,1.25,0,0,0,.82-1.57l-1.24-3.93,3.93-1.24a1.26,1.26,0,0,0-.75-2.4l-3.94,1.25-1.24-3.94a1.25,1.25,0,0,0-2.39.76l1.24,3.93-3.93,1.25A1.25,1.25,0,0,0,371.45,330.41Z"/><path class="cls-10" d="M702.2,478.11c5.54-1.87,11.46-2.39,16.2-.64a17.41,17.41,0,0,1,9.44,9.09c1.93,4,2.83,8.46,3.71,12.92l8.33,42.11h0L703.81,518.3c-3.81-2.46-7.65-4.94-10.64-8.21a17.39,17.39,0,0,1-5-12.13c.12-5,2.79-10.35,6.57-14.81A32.6,32.6,0,0,1,702.2,478.11Z"/><path class="cls-11" d="M514.92,607.32c5.54-1.86,11.46-2.38,16.19-.64a17.4,17.4,0,0,1,9.45,9.09c1.93,4,2.82,8.47,3.71,12.92l8.33,42.11h0l-36.06-23.28c-3.81-2.46-7.65-4.95-10.64-8.21a17.4,17.4,0,0,1-5-12.13c.12-5,2.79-10.36,6.57-14.82A33.26,33.26,0,0,1,514.92,607.32Z"/><path class="cls-12" d="M661.54,621c7.83-2.74,16.17-3.64,22.76-1.38,6.17,2.11,10.39,6.82,13,12.24s3.7,11.6,4.8,17.72q5.2,28.93,10.39,57.86h0l-49.94-31c-5.28-3.28-10.6-6.59-14.69-11s-6.91-10.08-6.6-16.59c.34-7,4.25-14.38,9.69-20.65C652.35,626.58,659.49,621.73,661.54,621Z"/><path class="cls-9" d="M704.56,476l0,0a2.83,2.83,0,0,0-.49.18c-10.07,4.59-20.94,14.88-18.48,27.06,2.17,10.69,14.17,16.23,22.47,21.59l28.86,18.63c1,.64,6.18-2.86,6-4-3.26-16.48-5.23-34-10.15-50.05C728.46,475.72,717.5,472.1,704.56,476Zm-.09,38.72c-5.29-3.57-11-7.85-12.74-14.35-1.8-6.7,1.77-17.28,8.41-20.48,6.41-1.89,13.53-2.62,19.23,1.66,5.42,4.08,7.23,10.86,8.63,17.14,2.63,11.89,4.85,23.9,7.14,35.88C724.87,528,714.56,521.54,704.47,514.74Z"/><path class="cls-9" d="M516.75,605.26l0,0a2.33,2.33,0,0,0-.49.19c-10.07,4.59-20.94,14.87-18.48,27,2.17,10.69,14.17,16.23,22.47,21.59l28.85,18.63c1,.64,6.19-2.85,6-4-3.26-16.48-5.23-34-10.15-50C540.65,605,529.69,601.34,516.75,605.26ZM516.66,644c-5.29-3.57-11-7.85-12.75-14.34-1.79-6.71,1.78-17.29,8.42-20.48,6.41-1.9,13.53-2.62,19.23,1.66,5.42,4.07,7.23,10.85,8.62,17.14,2.64,11.89,4.85,23.89,7.15,35.87C537.06,657.28,526.75,650.78,516.66,644Z"/><path class="cls-9" d="M687.17,617.58c-7.56-2.63-15.88-1-23.26,1.42l-.08,0a3.12,3.12,0,0,0-.46.17c-14.27,6.26-29.88,22.93-23.84,39.64,4.76,13.2,20.84,20.09,31.91,27l38.06,23.63c1,.62,6.16-2.84,6-4-4-22.2-6.72-45.11-12.24-67C701,629.5,696.43,620.8,687.17,617.58ZM659.9,670.85c-8.25-5.56-15.91-13-15.58-23.66.29-9.3,6.52-20.4,15.18-24.31,8.38-2.69,18.2-4.18,26.08.76,8.26,5.18,11,15,12.8,24,3.47,17.67,6.47,35.45,9.6,53.2C691.87,691,675.53,681.38,659.9,670.85Z"/><path class="cls-13" d="M380.54,398.09s68.3,93.3,87.48,111.1h0l89-36.66,39.36-66.93s-43.92-86.45-64.34-108.17C455,403.39,380.54,398.09,380.54,398.09"/><circle class="cls-8" cx="507.95" cy="409.16" r="44.19"/><circle class="cls-14" cx="507.98" cy="409.12" r="23.93"/><polyline class="cls-13" points="505.47 548.37 543.42 584.68 507.08 582.34 493.61 562.07 486.87 548.34 503.85 547.94"/><path class="cls-8" d="M384.46,151a343.35,343.35,0,0,0-40.15-20.45c-17.09-7.31-29.85-12.09-49.07-16.35,0,0-14.53,70.66,30.17,178.38,0,0,28.92,67.95,56.91,102.34,0,0,80.58-3.31,149.73-97.46C532.05,297.43,479.91,207.58,384.46,151Z"/><path class="cls-8" d="M458.45,495C479,525,526.85,569.42,557,596.16c1.61,1.43,3.16,2.79,4.66,4.11,13,11.48,29.8,7.25,29.8,7.25L601,606l49.32-34.18s18.51-10.29,17.24-13.93C650,507.76,596.39,405.6,596.39,405.6,519.45,505.08,458.45,495,458.45,495Z"/><polygon class="cls-13" points="595.3 609.43 610.26 621.5 619.38 615.27 632.81 628.38 667.76 604.47 658.88 588.24 669.52 580.96 660.95 564.77 595.3 609.43"/><path class="cls-8" d="M497.29,608l2,2.28,8.41-5.75-1.1-5.68-2.93-.49-5.79-15.52a99.5,99.5,0,0,0-9.53-19l-4-6.23a73.69,73.69,0,0,0-13.86-15.93h0a116.29,116.29,0,0,0-30.06-18.72l-2.33-1,2.31,5.83c1.89,17.12,3.59,23.25,11.2,38.7l3.46,5.37,2.79,4.08c6.57,11.76,12,16.07,21.89,25.19l4.86,3.55,4.93,3.6,5.42-2.74Z"/><path class="cls-8" d="M684,478.37l4.37,3.88,6.33-6L690,472.69l2.33-3.71S670,406.49,631.91,393.5l-5.7-4.31.58,5.23a148,148,0,0,0,14.37,49.23h0l2.65-1.36c6.57,11.76,16,21.23,25.92,30.35l3.58,2.71,3.57,2.71,6.28-.86Z"/><path class="cls-13" d="M293.42,121.59C325.67,257.16,517,588,626,594.53c0,0-5.84,24.07,30.63-.88,0,0-36.2,24.34-5.09,20.91l-21.24,14-11.15-13.63-9.9,6.56-12-11.36L583,618.92,527.9,571.81a100.3,100.3,0,0,1-7.43-7.58L468.3,507.39l-56.16-67.85L369.8,379.41,340,326.14l-23.18-52.41-13.52-49.57-9.2-53.94L292.6,133.8S292.72,118.61,293.42,121.59Z"/><path class="cls-13" d="M633,391.3s41.74,89.23,64.54,73.64L696,469.59l3.11,4.56-10.63,7.28-3.12-4.56-7.12,2.64-9.27-7-7.76,34.31L639.14,455l6.48-13.35-11-25.91-2.31-12.41a78.93,78.93,0,0,1-1.1-8.25l-.59-7.24Z"/><path class="cls-13" d="M454.54,435.21s7,26.47,32.07,33.83,48.86-13.35,54.3-28.22c0,0-15,23.67-42.62,22.47S454.54,435.21,454.54,435.21Z"/><path class="cls-9" d="M540.37,442.13a47.67,47.67,0,0,0,6.74-59.95c-.05-.07-.11-.12-.16-.18a1.25,1.25,0,0,0-.15-.28,46.36,46.36,0,0,0-52-17.33,49.5,49.5,0,0,0-33.55,40.75,46.07,46.07,0,0,0,27,47.24C505.91,460.13,526.76,455.51,540.37,442.13Zm-55.28-68.22c19.3-12,43.93-5.21,56.82,12.64,11.86,18.53,9.21,44.15-9.82,57s-45.31,6.79-58-11.76S465.41,386.14,485.09,373.91Z"/><path class="cls-9" d="M531,394.53c-19.32-25.93-65.19,1-46.05,29.23C503.19,450.74,549,423.27,531,394.53Zm-39.05-.17c9-11.57,24.59-8.26,32.51,2.38,5.25,8.38,5.75,19.07-.45,27.19-8.69,11.38-25,8.53-32.51-2.37C485.91,413.54,485.85,402.15,491.91,394.36Z"/><path class="cls-9" d="M253.75,49.9c1.93,2.52,5.07.62,7.1-.72s5.12-3.61,3.33-6.25-4.85-.7-6.71.47C255.36,44.73,252,47,253.75,49.9Zm7.83-2.62a2.37,2.37,0,0,1-.8-.16l-.14-.08C262,46.53,263,47.34,261.58,47.28Z"/><path class="cls-9" d="M560.91,310.7c-22.45-35.54-47.26-69.55-76.64-99.67-33.73-34.59-72.77-64.55-115.8-86.65-15.22-7.82-31-14.78-47.44-19.73-6.17-1.85-14.6-4.92-21.58-4L265.48,51c-1-1.4-7.19-.55-6.67.21l35.25,51.52a1.2,1.2,0,0,0,.5.39c-3.12,5.43-3.29,13.36-3.8,19.32a268.14,268.14,0,0,0,.08,42.51c3.28,45.44,14.81,90.25,31.93,132.38a468.94,468.94,0,0,0,27,55.3l3,5.26h0C371,389,392.08,418.34,414.33,446.9l5.67,7.24q3.94,5,7.91,10c22,27.56,45.13,54.37,69.43,80-3.12-.22-6.31-.18-8.94-.27-11.9-14.37-27.14-25.7-45.53-31.42a2.23,2.23,0,0,0-.9,0l-11.38-16.63a5.56,5.56,0,0,0-1.68-1.54c1.24-1.18,2.12-2.82,1.14-4.44a1.3,1.3,0,0,0-.41-.4c-1.79-1.71-4.68-1-6.63.27-1.62,1-3.47,3.31-2.18,5.29,1,1.49,2.75,1.63,4.4,1.24l12.56,18.36a1.78,1.78,0,0,0-.45.94c-2.64,37.9,19.86,72.33,49,94.61,1.07.82,3.43-.31,4.29-.9l2.09-1.43,2.73,4c1.1,1.62,4.59.55,5.81-.29l10.4-7.11c.86-.52,1.31-1.2.82-1.93l-3.81-5.57,3.23-2.21c.73-.5,1.95-1.37,1.65-2.41-.5-1.73-1-3.45-1.62-5.16a114.9,114.9,0,0,0,31.24,2.48q3.95,3.69,8,7.33l4.89,4A28.67,28.67,0,0,0,559,604c6.69,5.83,13.53,11.47,20.62,16.74a4.44,4.44,0,0,0,4.79.17l12-8.2a2.85,2.85,0,0,0,0,.7l5.06,4.61,4.27,5c1,1.16,3.68.93,4.79.17l7.69-5.25,9.65,11.46a4.11,4.11,0,0,0,5.21.67l35.62-24.36c.92-.63,1.86-1.62,1.22-2.8l-8.1-14.8,8.64-5.91c.93-.64,1.85-1.61,1.22-2.8s-1.38-2.58-2.06-3.87l-4.51-9.74,12.71-8.7c.66-.45,1.69-1.24,1.42-2.21-2.54-9.24-5.63-18.36-9-27.39l-3.73-9.87c-1.25-3.24-2.53-6.48-3.81-9.7,4.2-10,6.14-20.9,7.39-31.67q2.4,2,4.86,3.89c1,.76,5.53-1.57,6.42-2.18l.16-.12a1.26,1.26,0,0,0,.12.29l4.16,6.08c.34.5.86.45,1.41.1l.35-.21,10.64-7.28c1.23-.84,3-4,2-5.46L697.28,467l5.38-3.69.09-.13c-10.17-35-34-68.19-70-79.39a1.64,1.64,0,0,0-.45-.05l-12.32-18a1.69,1.69,0,0,0-1-.59,2.82,2.82,0,0,0,.34-3.73c-1.61-2.26-5.37-2.57-7.76-1.56-1.72.73-2.88,2.68-1.82,4.43a2.42,2.42,0,0,0,.25.31.57.57,0,0,0,.08.13,5.3,5.3,0,0,0,3.47,1.8l13.14,19.21a.66.66,0,0,0-.24.42c-1.35,19.22,3.84,37.53,13.09,53.8-.92,2.62-1.89,5.23-2.91,7.81-12-25.38-25.09-50.31-38.83-74.8-10.24-18.25-20.75-36.45-31.81-54.32ZM694.55,474.07l-5.5,3.76-1.73-2.53,5.5-3.76Zm-61.87-85.61c22.52,9,40.94,27.45,51.81,48.75A197.36,197.36,0,0,1,694,458.8c.83,2.27,2.09,4.31,1.71,6.12-.45-.2-1,.13-1.41.41l-10.63,7.27a6.47,6.47,0,0,0-1.94,2.79L680,476.58C653,455.37,632.1,423.6,632.68,388.46Zm11.13,58.62A134.61,134.61,0,0,0,664.22,471c-1,9.2-2.44,18.58-5.3,27.44q-8.61-21.09-18.22-41.76C640.83,453.66,642.35,450.23,643.81,447.08ZM340.37,320.55c-21-44.17-35.47-91.71-41.15-140.34a305.77,305.77,0,0,1-2.07-52.3c.36-6.47.28-16.53,3.24-22.6h.22c1.35.1,2.68.23,4,.44a100.22,100.22,0,0,1,13.11,3.2A262.56,262.56,0,0,1,358,125.23c41.24,20.22,78.76,47.93,111.62,79.89,25.52,24.82,47.52,52.48,67.51,81.63-33.34,47.3-79.67,91-137.82,103.72-3.09.68-4.47,6.89-.3,6,59.18-13,106.88-57.3,141.06-105.38,15.73,23.27,30.23,47.43,44.24,71.81,24.85,43.24,47.52,87.83,66.62,133.91,2.72,6.58,5.43,13.2,8,19.86l-92.15,60.88-13.56,9a7.44,7.44,0,0,0-1.85,2.35l-4-3.72-.08-.08a3.37,3.37,0,0,0-1-1.44q-5-4.37-9.86-8.83c-26.15-25.08-50.86-51.69-74.4-79.24,54.19-9.38,100.37-46.32,134.21-88-.14.18-5.37-.14-6.54,1.3-32,39.37-76.66,77.82-128.69,85.51q-5.26-6.17-10.44-12.39C409,431.94,368.38,379.53,340.37,320.55Zm83.73,173h0C424.11,493.65,424.11,493.69,424.1,493.59Zm19.4,24.65c32.31,12.47,53.8,43.52,63.47,75.92l-2.25,1.54a7.52,7.52,0,0,0-2.25.92l-10.64,7.28a1.62,1.62,0,0,0-.75,1.13l-.51.35C463.85,584.41,443.09,553,443.5,518.24Zm61.91,85.3-5.33,3.64-1.8-2.64,5.32-3.64Zm3.81-23.92a134.9,134.9,0,0,0-15.75-29.2c3.93.21,7.85.83,10.55,3.07,6.25,5.18,11.83,11.51,17.79,17.06q6.91,6.45,14,12.76A109.31,109.31,0,0,1,509.22,579.62Zm162.2-27.19-63.68,46.9c-1.61,1.19-3.43,7.57-.43,5.36L657.8,567.5l6.37,12a1.63,1.63,0,0,0-.87.24l-39,27.78c-.49.35,4.94,2.91,6.4,1.87l25.29-18,6.69,12.23-30.67,21-9.66-11.47a4.12,4.12,0,0,0-5.21-.67l-7.71,5.28-9-10.47c-1-1.15-3.68-.93-4.79-.17l-12.79,8.75c-9.87-7.53-19.25-15.8-28.42-24.2-.08-.46-.16-.93-.25-1.4L637,535.5l18-11.91c3-2,2.89-2.7,5.48-1.63.24.09.47.21.7.31C665,532.21,668.48,542.25,671.42,552.43Z"/><path class="cls-9" d="M409.11,569.55c-1.21-1.23-5.2,1.67-4.23,2.68A266.68,266.68,0,0,1,470.36,684.4c.36,1.25,4.71-1,4.22-2.67A266.65,266.65,0,0,0,409.11,569.55Z"/><path class="cls-9" d="M340.25,520.29c-1.41-.71-5.21,2.36-3.75,3.08a261.56,261.56,0,0,1,44.36,28c1.17.92,5.18-2,3.76-3.09A261.36,261.36,0,0,0,340.25,520.29Z"/><path class="cls-9" d="M307.93,505.48a273.79,273.79,0,0,0-63.7-13c-1.45-.12-5.06,3.11-3,3.28a270.84,270.84,0,0,1,63,12.8C305.71,509.07,309.31,505.93,307.93,505.48Z"/><path class="cls-9" d="M841.93,199.13a111.62,111.62,0,0,0-22.68-45c-1.61-1.94-5.91.56-4.14,2.69a109.05,109.05,0,0,1,22.14,44.13C837.86,203.41,842.55,201.69,841.93,199.13Z"/><path class="cls-9" d="M671.39,327.86c2,1.47,5.74-1.65,3.34-3.39A103.67,103.67,0,0,1,644,289c-1.24-2.31-5.9-.51-4.68,1.77A108.15,108.15,0,0,0,671.39,327.86Z"/><path class="cls-9" d="M632.35,257.84a127.15,127.15,0,0,1,4.91-65.32c1-2.77-3.93-2.7-4.74-.35a129.54,129.54,0,0,0-5.06,66.39C628,261.29,632.8,260.3,632.35,257.84Z"/><path class="cls-9" d="M579.41,233.62l-3.93,1.24-1.25-3.93a1.25,1.25,0,1,0-2.39.75l1.25,3.93-3.94,1.25a1.25,1.25,0,1,0,.76,2.39l3.93-1.24,1.24,3.93a1.26,1.26,0,0,0,1.2.87,1.23,1.23,0,0,0,1.2-1.63l-1.25-3.93,3.94-1.24a1.25,1.25,0,0,0-.76-2.39Z"/></g></svg>