<svg xmlns="http://www.w3.org/2000/svg" viewBox="0 0 94.135 99.396">
  <defs>
    <style>
      .cls-1 {
        fill: #f4849c;
      }

      .cls-2 {
        fill: #ff94a6;
      }

      .cls-3 {
        fill: #545464;
      }

      .cls-4 {
        fill: #ffd2dc;
      }

      .cls-5 {
        fill: #fdbd37;
      }

      .cls-6 {
        fill: #fed6a6;
      }

      .cls-7 {
        fill: #fff;
      }
    </style>
  </defs>
  <g id="Group_1321" data-name="Group 1321" transform="translate(0.074 0.03)">
    <path id="Path_2620" data-name="Path 2620" class="cls-1" d="M11.876,134.039a5.145,5.145,0,0,1-5.251-3.7,7.2,7.2,0,0,1,.457-4.931c-2.055.731-3.744,2.055-4.155,3.287a1.5,1.5,0,0,1-1.918,1,1.5,1.5,0,0,1-1-1.918c1.1-3.47,6.438-6.346,11.049-6.027a15.4,15.4,0,0,1,4.383-1.278,17.813,17.813,0,0,1,7.351.457c2.557.776,4.155,2.237,4.566,4.018a1.54,1.54,0,1,1-3.013.639c-.137-.685-1.1-1.324-2.465-1.781a14.33,14.33,0,0,0-6.3-.32,7.008,7.008,0,0,1,2.055,4.885,5.347,5.347,0,0,1-4.84,5.57A3.261,3.261,0,0,1,11.876,134.039Zm-.228-9.131c-.32.228-.639.457-.913.685a3.8,3.8,0,0,0-1.1,4.018c.274,1.187,1.781,1.461,2.739,1.324.548-.091,2.328-.5,2.192-2.329C14.433,126.505,13.52,125.272,11.648,124.907Z" transform="translate(0 -67.729)"/>
    <path id="Path_2621" data-name="Path 2621" class="cls-2" d="M115.092,115.124l-3.561-1.141a2.77,2.77,0,0,1-1.781-1.781c-4.063-12.967-19.222-18.9-34.471-18.9C57.428,93.3,43,101.427,43,119.461c0,10.364,5.068,17.624,12.967,21.824a.707.707,0,0,1,.365.5l1.233,9.131a1.849,1.849,0,0,0,1.781,1.507h5.935a1.812,1.812,0,0,0,1.781-1.507l1.507-5.068a.756.756,0,0,1,.822-.594,50.078,50.078,0,0,0,5.935.32,52.458,52.458,0,0,0,8.036-.594.745.745,0,0,1,.822.594l1.552,5.342a1.849,1.849,0,0,0,1.781,1.507h5.935a1.812,1.812,0,0,0,1.781-1.507l1.278-9.679a.707.707,0,0,1,.365-.5,26.6,26.6,0,0,0,11-10,2.675,2.675,0,0,1,1.461-1.187l5.707-1.826a3.48,3.48,0,0,0,2.42-3.333V118.5A3.4,3.4,0,0,0,115.092,115.124Z" transform="translate(-23.408 -53.06)"/>
    <path id="Path_2622" data-name="Path 2622" class="cls-1" d="M143.644,92.652a2.756,2.756,0,0,1,1.552-1.918c3.059-1.415,11.734-5.3,13.743-4.246,2.511,1.324.959,14.473-2.876,16.665C152.41,105.208,141.041,105.071,143.644,92.652Z" transform="translate(-77.893 -49.262)"/>
    <path id="Path_2623" data-name="Path 2623" class="cls-3" d="M162.578,145.928a5.277,5.277,0,0,1-5.022-4.2,1.55,1.55,0,0,1,3.013-.73,2.258,2.258,0,0,0,2.055,1.872,2.206,2.206,0,0,0,2.009-1.781,1.518,1.518,0,1,1,2.922.822A5.326,5.326,0,0,1,162.578,145.928Z" transform="translate(-85.641 -78.34)"/>
    <path id="Path_2624" data-name="Path 2624" class="cls-4" d="M86.958,113.416a1.59,1.59,0,0,1-1.324-.73,1.508,1.508,0,0,1,.548-2.1,18.1,18.1,0,0,1,15.98-1.37,1.518,1.518,0,0,1-1.1,2.831,15.142,15.142,0,0,0-13.286,1.141A1.409,1.409,0,0,1,86.958,113.416Z" transform="translate(-46.455 -61.032)"/>
    <path id="Path_2625" data-name="Path 2625" class="cls-5" d="M85.819,25.968A12.813,12.813,0,1,0,97.735,39.619,12.853,12.853,0,0,0,85.819,25.968Z" transform="translate(-39.244 -14.113)"/>
    <path id="Path_2626" data-name="Path 2626" class="cls-6" d="M34.688,19.479c-2.146-.137-4.52-.32-5.844-.411a2.594,2.594,0,0,1-1.689-.822V18.2a3.034,3.034,0,0,1-.137-3.379l7.168-6.255L38.66,9.3l3.1,2.6s5.479,4.2,7.488,5.114c.5.228,3.744-1.187,2.192-3.287-1.781-2.465-5.8-8.31-6.8-9.816a4.754,4.754,0,0,0-3.059-1.963L30.168.075a8.4,8.4,0,0,0-4.84.685c-.594.274-1.233.594-1.963.959-.685.32-1.461.685-2.192,1-1.552.685-3.059,1.37-4.474,1.918a32.3,32.3,0,0,1-3.79,1.324L3.55,5.326,2.5,21.534l4.52.32a4.883,4.883,0,0,1,2.374.776l6.072,3.561A11.377,11.377,0,0,0,21.813,27.7l5.433-.274,13.925.913c1.6.091,2.968-.411,3.059-2.009C44.687,23.5,39.071,19.753,34.688,19.479Z" transform="translate(-1.399 0)"/>
    <path id="Path_2627" data-name="Path 2627" class="cls-5" d="M94.746,30.428l.5.867c.274,0,.959-.32.959-.046l.411-.411a1.622,1.622,0,0,0,.411.183c.5.228,3.744-1.141,2.192-3.287-.274-.411-.639-.913-1.05-1.461a19.811,19.811,0,0,0-2.374-.411,12.773,12.773,0,0,0-5.3.776c1.1.822,2.876,2.146,4.429,3.15C95.02,29.7,94.563,30.428,94.746,30.428Z" transform="translate(-49.221 -14.054)"/>
    <g id="Group_1320" data-name="Group 1320" transform="translate(37.855 18.064)">
      <path id="Path_2628" data-name="Path 2628" class="cls-7" d="M90.944,42.639a1.986,1.986,0,0,1-.274.32.86.86,0,0,1-.365.091.736.736,0,0,1-.411-.137,4.981,4.981,0,0,0-.5-.274c-.183-.091-.411-.183-.639-.274a2.866,2.866,0,0,0-.867-.137,1.674,1.674,0,0,0-1.187.365,1.336,1.336,0,0,0-.411.959,1.091,1.091,0,0,0,.228.639,1.548,1.548,0,0,0,.639.411,4.868,4.868,0,0,0,.867.32c.32.091.685.228,1,.32.365.137.685.274,1,.411a3.055,3.055,0,0,1,.867.639,3.28,3.28,0,0,1,.639.913,2.989,2.989,0,0,1,.228,1.324,3.875,3.875,0,0,1-2.6,3.79,4.885,4.885,0,0,1-1.872.32A5.577,5.577,0,0,1,86.1,52.5a11.435,11.435,0,0,1-1.187-.32,7.429,7.429,0,0,1-1.05-.5A3.2,3.2,0,0,1,83,50.995l.867-1.37a.468.468,0,0,1,.274-.228.86.86,0,0,1,.365-.091.687.687,0,0,1,.5.183c.183.091.365.228.594.365a6.282,6.282,0,0,0,.776.365,3.283,3.283,0,0,0,1,.183,2.078,2.078,0,0,0,1.233-.365,1.368,1.368,0,0,0,.457-1.1,1.263,1.263,0,0,0-.228-.731,2.292,2.292,0,0,0-.639-.457,4.869,4.869,0,0,0-.867-.32,8.52,8.52,0,0,1-1-.32,3.876,3.876,0,0,1-1-.411,3.054,3.054,0,0,1-.867-.639,3.161,3.161,0,0,1-.639-1,4.459,4.459,0,0,1-.228-1.461,3.664,3.664,0,0,1,.274-1.37,3.475,3.475,0,0,1,.822-1.187,3.6,3.6,0,0,1,1.324-.822,4.651,4.651,0,0,1,1.826-.32,8.866,8.866,0,0,1,1.1.091,4.459,4.459,0,0,1,1.05.274c.32.137.639.274.913.411.274.183.548.365.776.548Z" transform="translate(-83 -39.763)"/>
      <path id="Path_2629" data-name="Path 2629" class="cls-7" d="M103.711,52.293a1.85,1.85,0,0,1-.228.411,2.109,2.109,0,0,1-.32.32,1.621,1.621,0,0,1-.411.183,1.264,1.264,0,0,1-.411.046H101.2l4.84-12.738a1.493,1.493,0,0,1,.5-.685,1.577,1.577,0,0,1,.822-.228h1.141Z" transform="translate(-92.89 -39.6)"/>
    </g>
    <path id="Path_2630" data-name="Path 2630" class="cls-6" d="M66.977,42.428c-1.141-.091-2.42-.183-3.516-.228L62,50.555l11.46.776c1.6.091,2.968-.411,3.059-2.009C77.021,46.446,71.36,42.7,66.977,42.428Z" transform="translate(-33.733 -22.949)"/>
  </g>
</svg>
