<svg xmlns="http://www.w3.org/2000/svg" width="18.289" height="18.453" viewBox="0 0 18.289 18.453">
  <path id="Trazado_3129" data-name="Trazado 3129" d="M-307.986-165.715l-5.145-5.145a.476.476,0,0,0-.673,0l-.022.022a1.66,1.66,0,0,0-.489,1.181,1.659,1.659,0,0,0,.209.808l-5.384,4.62a2.23,2.23,0,0,0-1.5-.57,2.232,2.232,0,0,0-1.589.658l-.032.032a.476.476,0,0,0,0,.673l3.082,3.083-3,3c-.06.062-1.481,1.526-2.415,2.691-.89,1.109-1.066,1.313-1.075,1.323a.476.476,0,0,0,.021.649.475.475,0,0,0,.337.14.475.475,0,0,0,.314-.118c.008-.007.206-.179,1.323-1.075,1.165-.934,2.629-2.355,2.7-2.42l3-3,2.917,2.917a.474.474,0,0,0,.337.139.474.474,0,0,0,.337-.139l.032-.032a2.232,2.232,0,0,0,.658-1.589,2.231,2.231,0,0,0-.57-1.495l4.62-5.384a1.66,1.66,0,0,0,.808.209,1.659,1.659,0,0,0,1.181-.489l.022-.022A.476.476,0,0,0-307.986-165.715Z" transform="translate(326.135 171)" fill="#0fa3f4"/>
</svg>
