<svg id="Grupo_2025" data-name="Grupo 2025" xmlns="http://www.w3.org/2000/svg" width="17.656" height="21.756" viewBox="0 0 17.656 21.756">
  <path id="Trazado_311" data-name="Trazado 311" d="M4.7,11.879H7.433L6.066,8.2Z" transform="translate(0.24 0.418)" fill="#fff"/>
  <path id="Trazado_312" data-name="Trazado 312" d="M17.026,0H4.73c-.21,0-.42.105-.42.21l-4.1,4.1c-.105.21-.21.315-.21.526v16.4H0a.589.589,0,0,0,.631.526h16.4a.678.678,0,0,0,.631-.631V.631h0A.606.606,0,0,0,17.026,0ZM4.519,1.261V3.889c0,.21-.21.526-.42.526H1.471Zm5.781,14.5a.772.772,0,0,1-.631.21.632.632,0,0,1-.42-.105.226.226,0,0,1-.21-.21c-.105-.105-.105-.21-.21-.42s-.105-.315-.21-.526L8.2,13.663H4.519L4.1,14.819c-.21.42-.315.736-.42.946a.888.888,0,0,1-.631.21,1.494,1.494,0,0,1-.631-.21c-.21-.21-.315-.315-.315-.526a.794.794,0,0,1,.105-.42,1.776,1.776,0,0,1,.21-.525L4.73,8.408c.105-.21.105-.42.21-.631a2.3,2.3,0,0,1,.315-.525c.105-.105.21-.315.42-.42a1.333,1.333,0,0,1,.631-.105,1.333,1.333,0,0,1,.631.105.821.821,0,0,1,.42.42c.105.105.21.315.315.42a2.674,2.674,0,0,0,.21.736l2.312,5.781a2.42,2.42,0,0,1,.315.946A1.494,1.494,0,0,1,10.3,15.765ZM15.555,10.3H13.768v1.787a.631.631,0,1,1-1.261,0V10.3H10.72a.631.631,0,0,1,0-1.261h1.787V7.357a.631.631,0,1,1,1.261,0V9.144h1.787a.678.678,0,0,1,.631.631A.589.589,0,0,1,15.555,10.3Z" fill="#fff"/>
</svg>
