<svg xmlns="http://www.w3.org/2000/svg" xmlns:xlink="http://www.w3.org/1999/xlink" width="233.122" height="168.231" viewBox="0 0 233.122 168.231">
  <defs>
    <linearGradient id="linear-gradient" x1="-1.046" y1="2.194" x2="0.759" y2="0.039" gradientUnits="objectBoundingBox">
      <stop offset="0" stop-color="#4e87d0"/>
      <stop offset="1" stop-color="#7edfb5"/>
    </linearGradient>
    <linearGradient id="linear-gradient-2" x1="-21.629" y1="6.656" x2="4.506" y2="-0.55" gradientUnits="objectBoundingBox">
      <stop offset="0" stop-color="#4e87d0"/>
      <stop offset="0.005" stop-color="#7116e7"/>
      <stop offset="1" stop-color="#7e8dc1"/>
    </linearGradient>
    <linearGradient id="linear-gradient-3" x1="-6.907" y1="2.391" x2="2.164" y2="0.104" xlink:href="#linear-gradient-2"/>
    <linearGradient id="linear-gradient-4" x1="-186.593" y1="-450.189" x2="-161.294" y2="-461.972" gradientUnits="objectBoundingBox">
      <stop offset="0" stop-color="#f9b776"/>
      <stop offset="1" stop-color="#f47960"/>
    </linearGradient>
    <linearGradient id="linear-gradient-5" x1="-3.466" y1="2.209" x2="1.691" y2="0.053" xlink:href="#linear-gradient-2"/>
  </defs>
  <g id="Grupo_6203" data-name="Grupo 6203" transform="translate(-3314.139 -8113.035)">
    <g id="Grupo_6202" data-name="Grupo 6202" transform="translate(3095.738 6011.268)">
      <g id="Grupo_4585" data-name="Grupo 4585" transform="translate(219.377 2114.813)">
        <path id="Path_2397" data-name="Path 2397" d="M6239.764,6929.122c-91.01,54.747-93.6,106.417-47.858,117.4s155.884,8.3,182.373-12.547S6330.773,6874.376,6239.764,6929.122Z" transform="translate(-6162.776 -6913.759)" fill="url(#linear-gradient)"/>
        <ellipse id="Ellipse_72" data-name="Ellipse 72" cx="19.219" cy="19.219" rx="19.219" ry="19.219" transform="translate(36.049 0)" fill="#0fa3f4" opacity="0.33"/>
        <ellipse id="Ellipse_71" data-name="Ellipse 71" cx="17.456" cy="17.456" rx="17.456" ry="17.456" transform="translate(197.234 83.597)" fill="#0fa3f4" opacity="0.33"/>
      </g>
      <g id="Grupo_4584" data-name="Grupo 4584" transform="translate(218.4 2101.768)">
        <g id="Grupo_4571" data-name="Grupo 4571" transform="translate(0 0.03)">
          <path id="Trazado_8827" data-name="Trazado 8827" d="M10401.278,6056.517s1.7,1.64-9.558,3.434,2.723-4.176,2.723-4.176Z" transform="translate(-10335.701 -5943.351)" fill="#5609ba"/>
          <path id="Trazado_8828" data-name="Trazado 8828" d="M10356.708,5713.9s-4.714-5.951-2.108-7.446,3.438.831,4.021,1.247.749,3.657.914,4.655a98.288,98.288,0,0,1,1.384,34.979l-4.875-5.468S10357.956,5733.479,10356.708,5713.9Z" transform="translate(-10311.888 -5694.853)" fill="#fcb986"/>
          <path id="Trazado_8829" data-name="Trazado 8829" d="M10348.37,5832.817a26.311,26.311,0,0,0,3.8-2.887s4.175-.209,5.105,3.759l-.276,8.189s-6.7-5.964-6.789-5.975S10348.37,5832.817,10348.37,5832.817Z" transform="translate(-10308.021 -5782.919)" fill="url(#linear-gradient-2)"/>
          <path id="Trazado_8830" data-name="Trazado 8830" d="M10258.037,6064.3s15.649-8.75,28.036-9.914c0,0-1.1,7.721-1.175,8.017s-13.041,2-25.926,6.133C10258.973,6068.532,10256.8,6066.164,10258.037,6064.3Z" transform="translate(-10243.58 -5942.361)" fill="#fcb986"/>
          <path id="Trazado_8831" data-name="Trazado 8831" d="M10249.058,6091.857a10.317,10.317,0,0,1,1.557-3.5c-2.823-2.633-1.3-4.876-1.3-4.876-.936.239-2.388-.654-3.563-.768l.006-.013c-.681-.062-1.465-.045-1.772,1.035a26.345,26.345,0,0,0-1.006,5.627,16.13,16.13,0,0,0,.135,3.2c.008.056.016.111.024.168l.026.168a14.828,14.828,0,0,0,.917,3.384c1.691,4.16,5.533,3.989,5.215,1.612C10248.746,6093.82,10248.644,6093.529,10249.058,6091.857Z" transform="translate(-10233.136 -5962.463)" fill="#8416ff"/>
          <path id="Trazado_8832" data-name="Trazado 8832" d="M10307.3,6221.355c-3.849-4.2-7.745-9.349-7.745-9.349-5.064.531-4.3-.87-4.3-.87s-2.419,1.389-3.21,1.957c-1.758,1.266,1.96,4.279,6.211,6.673.226.127.452.244.684.356a16.075,16.075,0,0,0,5.756,1.627c-.2-.044-.4-.094-.6-.145C10306.135,6221.852,10307.564,6221.641,10307.3,6221.355Z" transform="translate(-10267.694 -6053.713)" fill="#8416ff"/>
          <path id="Trazado_8833" data-name="Trazado 8833" d="M10317,5953.975s-.1.163-.263.449h0l0,.008c-.731,1.3-2.667,5.2-1.988,8.759.212,2.822,1.061,5.506,1.24,9,.339,6.679-2.562,20.075-2.562,20.075-3.154,11.587-8.563,21.185-9.538,36.119,0,0,.573,1.728,3.929,1.254,0,0,4-15.484,9.5-26.468,4.912-9.8,9.564-17.794,11.819-29.869a151.9,151.9,0,0,0,2.457-21.387Z" transform="translate(-10276.422 -5869.575)" fill="#fcb986"/>
          <path id="Trazado_8834" data-name="Trazado 8834" d="M10235.063,5774.371c-1.283,3.162-4.473,7.66-7.281,7.73-1.374.034-2.9.025-3.683,1.4a5.415,5.415,0,0,0-.443,3.083,3.068,3.068,0,0,1,.019.951c-.186.811-1.058.514-1.717.227a5.264,5.264,0,0,0-7.04,2.569c-.992,1.877-1.4,4.479-2.709,5.907-.456.5-1,.83-1.472,1.306-1.249,1.271-1.867,3.6-1.624,6.112.14,1.43,1.273,5.205,3.739,6.487s7.826,2.495,9.362-2.117c1.248-3.749,5.506-1.9,8.707-2.774s5.537-2.53,5.485-5.88c-.146-3.074,3.034-2.492,5.159-5.611,1.153-1.692,2.242-5.175.3-7.832" transform="translate(-10209.061 -5743.453)" fill="#01017a"/>
          <path id="Trazado_8835" data-name="Trazado 8835" d="M10320.243,5675.77s10.663-3.742,15.194-6.277l1.633.873-8.414,6.194Z" transform="translate(-10288.04 -5668.953)" fill="#efe1ff"/>
          <path id="Trazado_8836" data-name="Trazado 8836" d="M10265.912,5672.282c.257-.368,16.295,2.536,16.295,2.536l9.069-7.191,1.279.374-10.349,7.44s-9.436,3.326-10.725,5.155c0,0-17.375-1.907-17.041-1.868S10264.666,5674.069,10265.912,5672.282Z" transform="translate(-10241.294 -5667.627)" fill="#e8799e"/>
          <path id="Trazado_8837" data-name="Trazado 8837" d="M10324.258,5838.132s8.569,2.959,10.716,6.15,2.864,20.7,1.959,30.049c0,0-9.043,3.95-14.42-1.185,0,0,6.748-8.468-10.868-23.52l.682-8.4Z" transform="translate(-10281.931 -5788.747)" fill="url(#linear-gradient-3)"/>
          <path id="Trazado_8838" data-name="Trazado 8838" d="M10331.353,5818.7s.748,5.833,3.657,7.911c0,0-5.32,2.078-8.23-.415v-5.57Z" transform="translate(-10292.683 -5774.939)" fill="#fcb986"/>
          <path id="Trazado_8839" data-name="Trazado 8839" d="M10312.957,5776.361s3.821,1.146,6.877,6.156,1.467,7.649-.828,8.236a10.968,10.968,0,0,1-9.839-2.1C10305.11,5785.646,10308.01,5775.047,10312.957,5776.361Z" transform="translate(-10278.808 -5744.788)" fill="#fcb986"/>
          <path id="Trazado_8840" data-name="Trazado 8840" d="M10301.431,5774.183s-3.595-7.426,3.243-8.259l1.733.952s2.049-4.555-2.3-6.152-8.99.615-10.143,6.362-1.048,9.5,2.159,11.84,6.868.324,6.868.324-6.2-2.773-4.141-4.841a1.527,1.527,0,0,1,2.171.043Z" transform="translate(-10268.899 -5733.399)" fill="#01017a"/>
          <path id="Trazado_8841" data-name="Trazado 8841" d="M10309.349,5805.518s-1.826-3.827-3.513-2.042,1.909,3.512,3.3,4.046Z" transform="translate(-10277.492 -5763.791)" fill="url(#linear-gradient-4)"/>
          <path id="Trazado_8842" data-name="Trazado 8842" d="M10286.291,5862.162c-.395-15.04-8.2-19.369-14.93-7.149s-7.233,19.786-6.982,26.769,2.493,11.057,9.226,11.057,6.653-4.333,6.112-6.9C10279.6,5885.406,10286.685,5877.2,10286.291,5862.162Zm-9,3.991s-2.855-9.29-.7-13.384,4.526-3.658,6.257.832.564,23.11-2.761,27.683C10280.091,5881.283,10279.061,5870.726,10277.29,5866.153Z" transform="translate(-10248.32 -5795.699)" fill="#e8799e"/>
          <path id="Trazado_8843" data-name="Trazado 8843" d="M10229.843,5742.472s13.076,19.126,22.333,26.854c0,0,3.456,5.9-.585,7.729,0,0-13.519-6.4-23.993-33.252,0,0-5.715-6.921-4.282-9.395,2.055-3.542,4.656,3.159,4.656,3.159s.832.208,1-.5,1.205-2.494.955,1.164A19.614,19.614,0,0,0,10229.843,5742.472Z" transform="translate(-10219.022 -5714.331)" fill="#fcb986"/>
          <path id="Trazado_8844" data-name="Trazado 8844" d="M10314.227,5951.917a54.329,54.329,0,0,0,10.389,30.824c-8.538-.619-8.661,8.475-15.405,9.155-4.632.468-12.385-9.108-17.136-8.908-10.283.433-12.662-9.527-12.662-9.527s8.91,2.6,13.116-4.207,2.711-7.918,7.108-15.279" transform="translate(-10259.035 -5869.575)" fill="url(#linear-gradient-5)"/>
        </g>
        <g id="Grupo_4580" data-name="Grupo 4580" transform="translate(73.766 4.685)">
          <path id="Trazado_8845" data-name="Trazado 8845" d="M10526.78,5969.149s5.507,10.771,7.92,18.689a120,120,0,0,1,27.232,16.283l-3.322,4.1-30.724-13.886-9.147-8.044s1.422,9.985,1.917,15.076c0,0,17.631,12.7,21.591,16.227l-2.969,5.753s-21.158-11.506-26.169-15.033-6.215-17.148-7.962-38.51S10526.78,5969.149,10526.78,5969.149Z" transform="translate(-10493.088 -5880.07)" fill="#8d54fa"/>
          <path id="Trazado_8846" data-name="Trazado 8846" d="M10614.273,5818.325l-2.307,5.8v3.742a52.973,52.973,0,0,0,24.69-17.5l-5.236-3.263A36.547,36.547,0,0,1,10614.273,5818.325Z" transform="translate(-10569.034 -5771.359)" fill="#f9b776"/>
          <path id="Trazado_8847" data-name="Trazado 8847" d="M10470.366,5698.014s-.167-6.235-.749-8.105-3.532-7.773-5.111-5.819-.583,4.032,1.828,11.6c0,0,1.5,30.51,7.98,33.835l4.821-6.816S10472.152,5704.664,10470.366,5698.014Z" transform="translate(-10463.742 -5683.698)" fill="#f9b776"/>
          <path id="Trazado_8848" data-name="Trazado 8848" d="M10537.293,5786.667l-3.68-7.106,3.68-7,15.209,3.988s3.6,3.373-.269,4.889a2.684,2.684,0,0,1-1.517,4.189C10547.314,5786.976,10537.293,5786.667,10537.293,5786.667Z" transform="translate(-10513.375 -5746.824)" fill="#191933"/>
          <path id="Trazado_8849" data-name="Trazado 8849" d="M10538.782,5763.843a2.126,2.126,0,0,0-1.349.675,2.7,2.7,0,0,0-2.827-1.7,2.745,2.745,0,0,0-2.387,1.812,3.089,3.089,0,0,0-4.871,2.493,2.918,2.918,0,0,0-2.664,3.045,2.664,2.664,0,0,0,.978,1.816,3.457,3.457,0,0,0-1.019,2.742,3.535,3.535,0,0,0,2.032,2.839,3.314,3.314,0,0,0-.225,1.528,3.772,3.772,0,0,0,4.229,3.236,4.233,4.233,0,0,0,1.308-.336,2.269,2.269,0,0,0,4.128-1.491,2.3,2.3,0,0,0-.166-.659c.029,0,.056,0,.087,0a1.274,1.274,0,1,0-1.383-1.258,2.321,2.321,0,0,0-.387-.11c0-.028,0-.056,0-.085a3.537,3.537,0,0,0-2.032-2.839,3.325,3.325,0,0,0,.224-1.528,3.531,3.531,0,0,0-2.049-2.846,2.666,2.666,0,0,0,.33-.943,3.093,3.093,0,0,0,2.763-2.646,2.891,2.891,0,0,0,1.563.294,2.858,2.858,0,0,0,1.653-.709,2.567,2.567,0,0,0,2.572,2.292,2.863,2.863,0,0,0-.506-5.618Z" transform="translate(-10506.994 -5739.89)" fill="#191933"/>
          <path id="Trazado_8850" data-name="Trazado 8850" d="M10546.151,5755.513a2.121,2.121,0,0,0-1.349.675,2.705,2.705,0,0,0-2.827-1.705,2.748,2.748,0,0,0-2.387,1.813,3.089,3.089,0,0,0-4.871,2.493,2.919,2.919,0,0,0-2.664,3.045,2.671,2.671,0,0,0,.977,1.816,3.468,3.468,0,0,0-1.018,2.742,3.537,3.537,0,0,0,2.031,2.839,3.351,3.351,0,0,0-.224,1.528,3.772,3.772,0,0,0,4.229,3.236,4.225,4.225,0,0,0,1.308-.335,2.269,2.269,0,0,0,4.128-1.492,2.325,2.325,0,0,0-.165-.659.689.689,0,0,0,.084,0,1.273,1.273,0,1,0-1.381-1.257,2.311,2.311,0,0,0-.386-.111c0-.028,0-.057,0-.085a3.535,3.535,0,0,0-2.031-2.839,3.352,3.352,0,0,0,.224-1.528,3.539,3.539,0,0,0-2.05-2.847,2.658,2.658,0,0,0,.331-.943,3.091,3.091,0,0,0,2.762-2.646,2.91,2.91,0,0,0,3.217-.416,2.566,2.566,0,0,0,2.571,2.293,2.863,2.863,0,0,0-.506-5.618Z" transform="translate(-10512.229 -5733.972)" fill="#191933"/>
          <path id="Trazado_8851" data-name="Trazado 8851" d="M10557.95,5768.887a2.116,2.116,0,0,0-.892-1.216,2.7,2.7,0,0,0,1.205-3.073,2.744,2.744,0,0,0-2.187-2.047,3.091,3.091,0,0,0-3.278-4.383,2.917,2.917,0,0,0-3.449-2.114,2.671,2.671,0,0,0-1.626,1.269,3.462,3.462,0,0,0-2.874-.542,3.532,3.532,0,0,0-2.456,2.48,3.34,3.34,0,0,0-1.544.036,3.771,3.771,0,0,0-2.479,4.713,4.147,4.147,0,0,0,.551,1.232,2.269,2.269,0,0,0,2.164,3.818,2.22,2.22,0,0,0,.622-.274c.006.029.006.057.014.085a1.274,1.274,0,1,0,1.008-1.573,2.19,2.19,0,0,0,.043-.4c.028-.006.057-.01.084-.017a3.531,3.531,0,0,0,2.457-2.48,3.348,3.348,0,0,0,1.544-.036,3.539,3.539,0,0,0,2.462-2.5,2.662,2.662,0,0,0,.985.167,3.091,3.091,0,0,0,3.072,2.278,2.91,2.91,0,0,0,.949,3.1,2.566,2.566,0,0,0-1.826,2.92,2.862,2.862,0,0,0,5.451-1.443Z" transform="translate(-10516.653 -5735.035)" fill="#191933"/>
          <path id="Trazado_8852" data-name="Trazado 8852" d="M10653.607,5762.8l13.5,13.144-8.515,10.069-14.339-13.742Z" transform="translate(-10591.972 -5739.89)" fill="#ff4d82"/>
          <path id="Trazado_8853" data-name="Trazado 8853" d="M10476,5695.474s-2.72-2.491-1.878.346,3.338,6.193,3.388,7.2C10477.513,5703.018,10477.693,5697.621,10476,5695.474Z" transform="translate(-10471.002 -5691.345)" fill="#ffc999"/>
          <path id="Trazado_8854" data-name="Trazado 8854" d="M10547.171,5808.73a1.732,1.732,0,0,1-1.974-2.171c.366-2.417,2.04-1.863,2.3-1.157S10548.9,5808.375,10547.171,5808.73Z" transform="translate(-10521.577 -5769.723)" fill="#f9b776"/>
          <path id="Trazado_8855" data-name="Trazado 8855" d="M10663.563,5762.8l13.717,12.832-9.1,10.787s-13.469-12.283-13.594-12.47S10663.563,5762.8,10663.563,5762.8Z" transform="translate(-10599.307 -5739.89)" fill="#8416ff"/>
          <path id="Trazado_8856" data-name="Trazado 8856" d="M10700.18,5771.667c1.917,1.73,4.241,4.593,2.371,5.351s-6.515.167-7.046-.395S10694.04,5766.118,10700.18,5771.667Z" transform="translate(-10628.101 -5744.996)" fill="#f9b776"/>
          <path id="Trazado_8857" data-name="Trazado 8857" d="M10563.9,5781.946c-.3-1.639-6.462-4.716-7.193-1.547s-4.123,2.862-4.123,2.862a5.7,5.7,0,0,1,.06.815c-.009.707-.125,3.281-1.311,3.314l-.337,1.8s2.925,9.835,8.033,8.431S10565.368,5786.264,10563.9,5781.946Z" transform="translate(-10525.72 -5751.414)" fill="#f9b776"/>
          <path id="Trazado_8858" data-name="Trazado 8858" d="M10498.7,5813.8s4.693,8.821,10.173,10.125,15.836.906,20.652-.98-.271,8.795-.271,8.795l-9.519,5.5s-3.962,9.636-2.228,27.956c0,0-14.315,2.79-21.634.656a184.368,184.368,0,0,1-1.628-34.922L10492,5819.2A8.259,8.259,0,0,1,10498.7,5813.8Z" transform="translate(-10483.817 -5776.117)" fill="#9de1f6"/>
          <path id="Trazado_8859" data-name="Trazado 8859" d="M10548.322,5822.586l.957,3.99s-6.152,4.655-8.355-2.993c0,0,1.331-.706,2.91-6.816S10548.322,5822.586,10548.322,5822.586Z" transform="translate(-10518.569 -5776.987)" fill="#f9b776"/>
          <g id="Grupo_4575" data-name="Grupo 4575" transform="translate(64.518 120.877)">
            <g id="Grupo_4573" data-name="Grupo 4573" transform="translate(0 0.015)">
              <g id="Grupo_4572" data-name="Grupo 4572">
                <path id="Trazado_8860" data-name="Trazado 8860" d="M10693.207,6102.568c1.193,2.716,2.915,8.076,1.223,13.621-1.442,4.722-5.667,4.914-5.552,2.279.2-4.516.284-4.845-.335-6.635a11.381,11.381,0,0,0-2.05-3.681,6.361,6.361,0,0,0,1.193-6.686C10689.382,6101.74,10692.015,6099.854,10693.207,6102.568Z" transform="translate(-10686.493 -6101.081)" fill="#472385"/>
              </g>
            </g>
            <g id="Grupo_4574" data-name="Grupo 4574" transform="translate(4.724)">
              <path id="Trazado_8861" data-name="Trazado 8861" d="M10702.8,6101.029a2.155,2.155,0,0,1,2.14,1.514,27.783,27.783,0,0,1,1.6,5.92,17.584,17.584,0,0,1-.461,7.35,6.1,6.1,0,0,1-1.606,3.038,19.809,19.809,0,0,0,1.51-8.029C10705.752,6106.134,10702.818,6101.059,10702.8,6101.029Z" transform="translate(-10702.803 -6101.029)" fill="#9c9cd5"/>
            </g>
          </g>
          <g id="Grupo_4579" data-name="Grupo 4579" transform="translate(45.219 137.031)">
            <g id="Grupo_4577" data-name="Grupo 4577">
              <g id="Grupo_4576" data-name="Grupo 4576">
                <path id="Trazado_8862" data-name="Trazado 8862" d="M10623.308,6157.018h0a13.493,13.493,0,0,0,3.365-.184c2.314-.48,2,4.729.785,9.91s-4.777,8.922-5.388,8.442c-2.556-2.007-.278-6.675-1.291-10.092a5.609,5.609,0,0,0-.919-2.356C10624.02,6159.061,10623.308,6157.018,10623.308,6157.018Z" transform="translate(-10619.86 -6156.803)" fill="#472385"/>
              </g>
            </g>
            <g id="Grupo_4578" data-name="Grupo 4578" transform="translate(4.446)">
              <path id="Trazado_8863" data-name="Trazado 8863" d="M10637.579,6156.834c2.312-.48,1.994,4.729.785,9.91a17.526,17.526,0,0,1-3.152,6.639A23.576,23.576,0,0,0,10637.579,6156.834Z" transform="translate(-10635.212 -6156.803)" fill="#9c9cd5"/>
            </g>
          </g>
        </g>
        <g id="Grupo_4581" data-name="Grupo 4581" transform="translate(165.563 0)">
          <path id="Trazado_8864" data-name="Trazado 8864" d="M10839.2,5743.541a3.457,3.457,0,0,1,.929-3.243,6.252,6.252,0,0,1,3.076-1.634,10.7,10.7,0,0,1,13.219,11.571c-.162,1.451.485,1.616.714,3.617s-.243,4.462.722,5.72a3.652,3.652,0,0,1,1,3.45c-.189.945-2.066,1.125-1.807,2.045s3.677,1.829,3.737,4.97-1.9,3.222-1.889,5.288c.011,2.27,4.407,1.655,3.647,9.043s-10.369,6.87-12.021,7.382-3.773,6.345-8.384,2.339c-4.786-4.16-.074-24.461-2.4-25.331s-3.122-7.815-1.509-12.367" transform="translate(-10820.965 -5717.841)" fill="#22343d"/>
          <path id="Trazado_8865" data-name="Trazado 8865" d="M10853.605,5966.615c-6.351-5.241-8.429-4.5-8.429-4.5s-1.579-8.978-1.73-12.3a73.113,73.113,0,0,1-.016-10.89c.375-5.486-6.483-11.1-6.483-11.1l-14.963,3.967c-1.165,13.8,2.492,28.829,8.561,44.79a136.757,136.757,0,0,1,5.293,16.751l0-.008s2.339,5.323,5.9-2.489c-.776-11.937-2.3-20.655-2.3-20.655s6.84.77,11.63,1.757C10852.517,5971.87,10854.132,5970.9,10853.605,5966.615Z" transform="translate(-10809.866 -5852.426)" fill="#2c2a40"/>
          <path id="Trazado_8866" data-name="Trazado 8866" d="M10934.584,5708.333l-11.223-13.4,8.043-10.787,14.964,12.283-8.2,11.69Z" transform="translate(-10882.033 -5679.328)" fill="#8416ff"/>
          <path id="Trazado_8867" data-name="Trazado 8867" d="M10967.812,5734.036c.031-.187,8.569-11.912,8.569-11.912l.945.775-7.769,11.137Z" transform="translate(-10913.608 -5706.309)" fill="#fef"/>
          <path id="Trazado_8868" data-name="Trazado 8868" d="M10884.72,5764.055a37.412,37.412,0,0,0,16.4-20.513s.124-2.743-.812-3.928.562-2.556,1.933,1.185l2.868,3.366s-7.793,23.444-20.388,26.935Z" transform="translate(-10854.583 -5717.841)" fill="#fcb986"/>
          <path id="Trazado_8869" data-name="Trazado 8869" d="M10785.113,5677.071s.859-1.2,1.575-2.048a6.393,6.393,0,0,1,2.173-2.058s-.986-1.051-3.009.589c0,0,1.4-6.227-1.24-6.026s-3.39,3.558-2.462,9.571c0,0-5.141,22.085,3.76,35.777l6.007-4.5A41.547,41.547,0,0,1,10785.113,5677.071Z" transform="translate(-10780.674 -5667.523)" fill="#fcb986"/>
          <path id="Trazado_8870" data-name="Trazado 8870" d="M10841.36,5742.37s-4.125-.125-3.969-4.24,1.576-5.611,3.969-8.105,5.729-4.447,7.588-2.244,4.564,5.528,4.753,8.812,2.016,4.946-.439,8.937-5.038,2.452-6.927-.665A4.9,4.9,0,0,0,10841.36,5742.37Z" transform="translate(-10820.962 -5709.647)" fill="#22343d"/>
          <path id="Trazado_8871" data-name="Trazado 8871" d="M10837.206,5757.942c-1.646,4.279-1.246,10.207,2.7,11.455s6.61-1.738,8.063-3.789,2.329-8.246-1.246-10.117S10839.949,5750.811,10837.206,5757.942Z" transform="translate(-10820.185 -5728.483)" fill="#fcb986"/>
          <path id="Trazado_8872" data-name="Trazado 8872" d="M10872.543,5788.214s3.949-.748,2.91.956-3.244,2.078-4.073,1.33S10872.543,5788.214,10872.543,5788.214Z" transform="translate(-10844.963 -5753.14)" fill="#fcb986"/>
          <path id="Trazado_8873" data-name="Trazado 8873" d="M10872.792,6198.984s-4.427,9.456,0,9.332,11.6-19.39,3.3-15.9Z" transform="translate(-10844.713 -6040.085)" fill="#2c2a40"/>
          <path id="Trazado_8874" data-name="Trazado 8874" d="M10945.508,6078.583s2.16-1.954,3.49,3.034,1.414,11.722-1.745,10.724-2.578-9.055-2.578-9.055Z" transform="translate(-10897.143 -5959.255)" fill="#2c2a40"/>
          <path id="Trazado_8875" data-name="Trazado 8875" d="M10870.347,6147.855l0,.008a56.235,56.235,0,0,1,1.856,14.423,51.456,51.456,0,0,0,.084,7.233c4.987.582,4.405-10.973,4.405-10.973,0-4.625-.179-9.09-.444-13.18C10872.685,6153.178,10870.347,6147.855,10870.347,6147.855Z" transform="translate(-10844.371 -6006.963)" fill="#fcb986"/>
          <path id="Trazado_8876" data-name="Trazado 8876" d="M10930.306,6076.172c3.782,1.455,1.081-8.937,1.081-8.937-2.293-2.318-4.247-4.1-5.911-5.472.525,4.286-1.089,5.255-2.534,5.317a16.493,16.493,0,0,1,4.164,1.236C10929.6,6069.813,10930.306,6076.172,10930.306,6076.172Z" transform="translate(-10881.735 -5947.575)" fill="#fcb986"/>
          <path id="Trazado_8877" data-name="Trazado 8877" d="M10805.5,5849.475s-4.159-23.094-6.75-36.417c0,0,1.614-4.6,6.007-4.5,0,0,5.511,6.343,21.378,3.774,0,0-1.5,2.615-.242,7.786,0,0-8.067,8.479-3.326,24.858A18.837,18.837,0,0,1,10805.5,5849.475Z" transform="translate(-10793.516 -5767.705)" fill="#80e5ff"/>
          <path id="Trazado_8878" data-name="Trazado 8878" d="M10837.98,5801.746s0,4.837-3.279,6.828c0,0,2.759,5.3,9.147,1.434a38.865,38.865,0,0,1-.578-8.054Z" transform="translate(-10819.053 -5762.87)" fill="#fcb986"/>
        </g>
      </g>
    </g>
  </g>
</svg>
