<svg xmlns="http://www.w3.org/2000/svg" xmlns:xlink="http://www.w3.org/1999/xlink" width="254.372" height="159.461" viewBox="0 0 254.372 159.461">
  <defs>
    <linearGradient id="linear-gradient" x1="0.072" y1="0.926" x2="0.874" y2="0.24" gradientUnits="objectBoundingBox">
      <stop offset="0" stop-color="#5ca1c9"/>
      <stop offset="1" stop-color="#7edfb5"/>
    </linearGradient>
    <linearGradient id="linear-gradient-3" x1="0.411" y1="0.932" x2="0.634" y2="-0.163" gradientUnits="objectBoundingBox">
      <stop offset="0" stop-color="#2b3582"/>
      <stop offset="1" stop-color="#150e42"/>
    </linearGradient>
    <linearGradient id="linear-gradient-4" x1="1.027" y1="-0.088" x2="-0.579" y2="1.773" gradientUnits="objectBoundingBox">
      <stop offset="0" stop-color="#53d8ff"/>
      <stop offset="1" stop-color="#3840f7"/>
    </linearGradient>
    <linearGradient id="linear-gradient-5" x1="0" y1="0.5" x2="1" y2="0.5" xlink:href="#linear-gradient-4"/>
    <linearGradient id="linear-gradient-9" x1="0.463" y1="5.274" x2="0.538" y2="-4.364" xlink:href="#linear-gradient-3"/>
    <linearGradient id="linear-gradient-11" x1="0.5" x2="0.5" y2="1" gradientUnits="objectBoundingBox">
      <stop offset="0" stop-color="#80f"/>
      <stop offset="1" stop-color="#b605ff"/>
    </linearGradient>
    <linearGradient id="linear-gradient-13" x1="1.041" y1="-0.295" x2="-0.728" y2="2.739" gradientUnits="objectBoundingBox">
      <stop offset="0" stop-color="#fdf53f"/>
      <stop offset="0.665" stop-color="#e57a58"/>
      <stop offset="1" stop-color="#d93c65"/>
    </linearGradient>
    <linearGradient id="linear-gradient-14" y1="0.5" x2="1" y2="0.5" gradientUnits="objectBoundingBox">
      <stop offset="0" stop-color="#f9b776"/>
      <stop offset="1" stop-color="#f47960"/>
    </linearGradient>
    <linearGradient id="linear-gradient-15" x1="-0.143" y1="0.118" x2="0.987" y2="0.852" xlink:href="#linear-gradient-14"/>
    <linearGradient id="linear-gradient-16" x1="-0.051" y1="0.573" x2="2.769" y2="0.325" xlink:href="#linear-gradient-14"/>
    <linearGradient id="linear-gradient-17" x1="0" y1="0.5" x2="1" y2="0.5" xlink:href="#linear-gradient-3"/>
    <linearGradient id="linear-gradient-25" x1="1" y1="0.172" x2="-0.62" y2="1.419" gradientUnits="objectBoundingBox">
      <stop offset="0" stop-color="#cb236d"/>
      <stop offset="1" stop-color="#4c246d"/>
    </linearGradient>
    <linearGradient id="linear-gradient-26" x1="0.721" y1="0.212" x2="0.27" y2="0.899" xlink:href="#linear-gradient-14"/>
    <linearGradient id="linear-gradient-27" x1="0.293" y1="-0.229" x2="0.941" y2="1.514" xlink:href="#linear-gradient-13"/>
    <linearGradient id="linear-gradient-28" x1="0.461" y1="0.791" x2="1.158" y2="-1.379" xlink:href="#linear-gradient-14"/>
    <linearGradient id="linear-gradient-29" x1="0.443" y1="1.062" x2="0.553" y2="0.1" xlink:href="#linear-gradient-14"/>
    <linearGradient id="linear-gradient-30" x1="0.619" y1="0.82" x2="0.308" y2="-0.114" xlink:href="#linear-gradient-14"/>
    <linearGradient id="linear-gradient-31" x1="0.39" y1="-0.473" x2="0.567" y2="0.954" xlink:href="#linear-gradient-3"/>
    <linearGradient id="linear-gradient-32" x1="1.286" y1="2.058" x2="-0.186" y2="-0.895" xlink:href="#linear-gradient-14"/>
    <linearGradient id="linear-gradient-34" x1="2.227" y1="-0.762" x2="-2.036" y2="2.353" gradientUnits="objectBoundingBox">
      <stop offset="0" stop-color="#fdf53f"/>
      <stop offset="1" stop-color="#d93c65"/>
    </linearGradient>
    <linearGradient id="linear-gradient-35" x1="1.018" y1="-0.604" x2="0.278" y2="0.973" xlink:href="#linear-gradient-3"/>
    <linearGradient id="linear-gradient-47" x1="1.269" y1="-0.322" x2="-1.712" y2="1.267" xlink:href="#linear-gradient-25"/>
    <linearGradient id="linear-gradient-49" x1="-0.489" y1="0.85" x2="3.46" y2="-1.121" xlink:href="#linear-gradient-13"/>
  </defs>
  <g id="Grupo_2055" data-name="Grupo 2055" transform="translate(-640.136 -177)">
    <path id="Trazado_3154" data-name="Trazado 3154" d="M5993.685,6969.892c.276-10.624,5.222-20.168,17.519-32.271s15.94-27.181,16.213-38.8,6.195-19.511,36.071-20.361,35.069-.48,49.917,7.684,23.592,8.932,44.906,7.2,34.888,12.966,42.448,26.6,3.006,34.095,1.822,44.852,2.186,20.169-6.194,27.277-157.1,8.484-169.608,6.819S5993.259,6986.22,5993.685,6969.892Z" transform="translate(-5331.354 -6689.305)" fill="url(#linear-gradient)"/>
    <path id="Trazado_3249" data-name="Trazado 3249" d="M5993.685,6969.892c.276-10.624,5.222-20.168,17.519-32.271s15.94-27.181,16.213-38.8,6.195-19.511,36.071-20.361,35.069-.48,49.917,7.684,23.592,8.932,44.906,7.2,34.888,12.966,42.448,26.6,3.006,34.095,1.822,44.852,2.186,20.169-6.194,27.277-157.1,8.484-169.608,6.819S5993.259,6986.22,5993.685,6969.892Z" transform="translate(-5331.354 -6689.305)" fill="url(#linear-gradient)"/>
    <g id="Grupo_2047" data-name="Grupo 2047" transform="translate(675.68 197.88)">
      <path id="Trazado_3155" data-name="Trazado 3155" d="M6222.7,7019.937a3.1,3.1,0,0,1-3.1,3.091H6052.254a3.1,3.1,0,0,1-3.095-3.091l-1.393-96.176a5.389,5.389,0,0,1,5.675-4.771L6217,6914.759a7.8,7.8,0,0,1,8,7.977Z" transform="translate(-6047.767 -6914.756)" fill="url(#linear-gradient-3)"/>
      <path id="Trazado_3156" data-name="Trazado 3156" d="M5275.9,6981.383a2.9,2.9,0,0,1-2.89,2.891h-158.37a2.9,2.9,0,0,1-2.891-2.891l-1.3-86.187a7.113,7.113,0,0,1,7.457-6.94l154.747-4.151a5.4,5.4,0,0,1,5.549,5.256c0,.093,0,.187,0,.28Z" transform="translate(-5105.886 -6879.077)" fill="url(#linear-gradient-4)"/>
      <path id="Trazado_3159" data-name="Trazado 3159" d="M5144,6997.169c.165-7.124.1-70.2-.306-75.651s8.077-6.47,21.1-7.083,122.937-3.041,125.767-3.27c6.362-.516,7.678,8.992,7.042,29.633-.479,15.507-1.271,41.053-1.636,52.8a6.482,6.482,0,0,1-6.467,6.284c-26.449.073-127.82.363-134.568.564C5147.168,7000.677,5143.932,6999.993,5144,6997.169Z" transform="translate(-5131.16 -6899.642)" fill="url(#linear-gradient-5)"/>
    </g>
    <g id="Grupo_2048" data-name="Grupo 2048" transform="translate(675.68 197.88)">
      <path id="Trazado_3155-2" data-name="Trazado 3155" d="M6222.7,7019.937a3.1,3.1,0,0,1-3.1,3.091H6052.254a3.1,3.1,0,0,1-3.095-3.091l-1.393-96.176a5.389,5.389,0,0,1,5.675-4.771L6217,6914.759a7.8,7.8,0,0,1,8,7.977Z" transform="translate(-6047.767 -6914.756)" fill="url(#linear-gradient-3)"/>
      <path id="Trazado_3156-2" data-name="Trazado 3156" d="M5275.9,6981.383a2.9,2.9,0,0,1-2.89,2.891h-158.37a2.9,2.9,0,0,1-2.891-2.891l-1.3-86.187a7.113,7.113,0,0,1,7.457-6.94l154.747-4.151a5.4,5.4,0,0,1,5.549,5.256c0,.093,0,.187,0,.28Z" transform="translate(-5105.886 -6879.077)" fill="url(#linear-gradient-4)"/>
      <path id="Trazado_3159-2" data-name="Trazado 3159" d="M5144,6997.169c.165-7.124.1-70.2-.306-75.651s8.077-6.47,21.1-7.083,122.937-3.041,125.767-3.27c6.362-.516,7.678,8.992,7.042,29.633-.479,15.507-1.271,41.053-1.636,52.8a6.482,6.482,0,0,1-6.467,6.284c-26.449.073-127.82.363-134.568.564C5147.168,7000.677,5143.932,6999.993,5144,6997.169Z" transform="translate(-5131.16 -6899.642)" fill="url(#linear-gradient-5)"/>
    </g>
    <g id="Grupo_2000" data-name="Grupo 2000" transform="translate(683.776 207.927)">
      <path id="Trazado_3157" data-name="Trazado 3157" d="M6076.369,7136.882a.249.249,0,0,1-.249-.247l-.1-7.08a.249.249,0,0,1,.246-.253.255.255,0,0,1,.253.246l.1,7.081a.25.25,0,0,1-.246.253Z" transform="translate(-6075.467 -7084.703)" fill="#fff"/>
      <path id="Trazado_3158" data-name="Trazado 3158" d="M6074.441,6983.51a.251.251,0,0,1-.25-.246l-.4-27.119a5.752,5.752,0,0,1,1.662-4.314,7.912,7.912,0,0,1,5.238-1.807l50.059-1.343a.25.25,0,0,1,.013.5l-50.073,1.342a7.363,7.363,0,0,0-4.891,1.668,5.27,5.27,0,0,0-1.509,3.951l.4,27.114a.25.25,0,0,1-.246.254Z" transform="translate(-6073.793 -6948.681)" fill="#fff"/>
    </g>
    <g id="Grupo_2052" data-name="Grupo 2052" transform="translate(683.776 207.927)">
      <path id="Trazado_3157-2" data-name="Trazado 3157" d="M6076.369,7136.882a.249.249,0,0,1-.249-.247l-.1-7.08a.249.249,0,0,1,.246-.253.255.255,0,0,1,.253.246l.1,7.081a.25.25,0,0,1-.246.253Z" transform="translate(-6075.467 -7084.703)" fill="#fff"/>
      <path id="Trazado_3158-2" data-name="Trazado 3158" d="M6074.441,6983.51a.251.251,0,0,1-.25-.246l-.4-27.119a5.752,5.752,0,0,1,1.662-4.314,7.912,7.912,0,0,1,5.238-1.807l50.059-1.343a.25.25,0,0,1,.013.5l-50.073,1.342a7.363,7.363,0,0,0-4.891,1.668,5.27,5.27,0,0,0-1.509,3.951l.4,27.114a.25.25,0,0,1-.246.254Z" transform="translate(-6073.793 -6948.681)" fill="#fff"/>
    </g>
    <path id="Trazado_3160" data-name="Trazado 3160" d="M6205.243,7359.8H6016.388a4.238,4.238,0,0,1-4.225-4.225h0a4.237,4.237,0,0,1,4.225-4.225h188.855a4.238,4.238,0,0,1,4.226,4.225h0A4.238,4.238,0,0,1,6205.243,7359.8Z" transform="translate(-5345.275 -7045.661)" fill="url(#linear-gradient-9)"/>
    <path id="Trazado_3250" data-name="Trazado 3250" d="M6205.243,7359.8H6016.388a4.238,4.238,0,0,1-4.225-4.225h0a4.237,4.237,0,0,1,4.225-4.225h188.855a4.238,4.238,0,0,1,4.226,4.225h0A4.238,4.238,0,0,1,6205.243,7359.8Z" transform="translate(-5345.275 -7045.661)" fill="url(#linear-gradient-9)"/>
    <g id="Grupo_2004" data-name="Grupo 2004" transform="translate(739.056 177)">
      <path id="Trazado_3161" data-name="Trazado 3161" d="M6283.234,6879.289s46-22.726,30.954-39.458-43.086-10.044-44.507,7.566S6302.394,6860.877,6283.234,6879.289Z" transform="translate(-6269.638 -6830.193)" fill="url(#linear-gradient-11)"/>
      <g id="Grupo_2003" data-name="Grupo 2003" transform="translate(7.913 13.563)">
        <path id="Trazado_3162" data-name="Trazado 3162" d="M6371.183,6885.912h-20.3a.4.4,0,0,1,0-.791h20.3a.4.4,0,1,1,0,.791Z" transform="translate(-6338.438 -6885.121)" fill="#fff"/>
        <path id="Trazado_3163" data-name="Trazado 3163" d="M6308.1,6885.912h-6.024a.4.4,0,0,1,0-.791h6.024a.4.4,0,0,1,0,.791Z" transform="translate(-6301.684 -6885.121)" fill="#fff"/>
        <path id="Trazado_3164" data-name="Trazado 3164" d="M6412.615,6902.557h-7.623a.4.4,0,0,1,0-.792h7.623a.4.4,0,0,1,0,.792Z" transform="translate(-6379.186 -6897.655)" fill="#fff"/>
        <path id="Trazado_3165" data-name="Trazado 3165" d="M6318.394,6902.557H6304.85a.4.4,0,0,1,0-.792h13.543a.4.4,0,0,1,0,.792Z" transform="translate(-6303.771 -6897.655)" fill="#fff"/>
        <path id="Trazado_3166" data-name="Trazado 3166" d="M6376.837,6919.2h-20.262a.4.4,0,0,1,0-.792h20.262a.4.4,0,0,1,0,.792Z" transform="translate(-6342.724 -6910.189)" fill="#fff"/>
        <path id="Trazado_3167" data-name="Trazado 3167" d="M6314.635,6919.2h-7.015a.4.4,0,0,1,0-.792h7.015a.4.4,0,0,1,0,.792Z" transform="translate(-6305.857 -6910.189)" fill="#fff"/>
      </g>
    </g>
    <g id="Grupo_2051" data-name="Grupo 2051" transform="translate(739.056 177)">
      <path id="Trazado_3161-2" data-name="Trazado 3161" d="M6283.234,6879.289s46-22.726,30.954-39.458-43.086-10.044-44.507,7.566S6302.394,6860.877,6283.234,6879.289Z" transform="translate(-6269.638 -6830.193)" fill="url(#linear-gradient-11)"/>
      <g id="Grupo_2003-2" data-name="Grupo 2003" transform="translate(7.913 13.563)">
        <path id="Trazado_3162-2" data-name="Trazado 3162" d="M6371.183,6885.912h-20.3a.4.4,0,0,1,0-.791h20.3a.4.4,0,1,1,0,.791Z" transform="translate(-6338.438 -6885.121)" fill="#fff"/>
        <path id="Trazado_3163-2" data-name="Trazado 3163" d="M6308.1,6885.912h-6.024a.4.4,0,0,1,0-.791h6.024a.4.4,0,0,1,0,.791Z" transform="translate(-6301.684 -6885.121)" fill="#fff"/>
        <path id="Trazado_3164-2" data-name="Trazado 3164" d="M6412.615,6902.557h-7.623a.4.4,0,0,1,0-.792h7.623a.4.4,0,0,1,0,.792Z" transform="translate(-6379.186 -6897.655)" fill="#fff"/>
        <path id="Trazado_3165-2" data-name="Trazado 3165" d="M6318.394,6902.557H6304.85a.4.4,0,0,1,0-.792h13.543a.4.4,0,0,1,0,.792Z" transform="translate(-6303.771 -6897.655)" fill="#fff"/>
        <path id="Trazado_3166-2" data-name="Trazado 3166" d="M6376.837,6919.2h-20.262a.4.4,0,0,1,0-.792h20.262a.4.4,0,0,1,0,.792Z" transform="translate(-6342.724 -6910.189)" fill="#fff"/>
        <path id="Trazado_3167-2" data-name="Trazado 3167" d="M6314.635,6919.2h-7.015a.4.4,0,0,1,0-.792h7.015a.4.4,0,0,1,0,.792Z" transform="translate(-6305.857 -6910.189)" fill="#fff"/>
      </g>
    </g>
    <g id="Grupo_2005" data-name="Grupo 2005" transform="translate(708.798 215.774)">
      <path id="Trazado_3168" data-name="Trazado 3168" d="M6201.366,7298.375l5.939-13.83,18.911.954s-1.33,8.665-2.1,12.876Z" transform="translate(-6190.114 -7211.129)" fill="url(#linear-gradient-13)"/>
      <path id="Trazado_3169" data-name="Trazado 3169" d="M6394.929,7035.957s5.677-2.716,8.862-6.971,3.76-7.447,6.2-8.688,8.955-3.058,11.392-3.59c0,0,1.125,2.145-4.411,2.66,0,0,.516,4.587-2.693,6.316s-4.039,1.646-5.153,1.214c0,0-2.128,13.148-10.738,18.767Z" transform="translate(-6335.881 -7009.427)" fill="url(#linear-gradient-14)"/>
      <path id="Trazado_3170" data-name="Trazado 3170" d="M6157.928,7104.777c1.639-4.351,2.36-7.779,8.411-9.375s10.639-1.9,18.917-2.527,10.97.465,13.264,1.2,10.605,2.028,16.323-.9c0,0,2.893,3.158,3.458,9.708,0,0-6.25,6.582-22.839,3.79,0,0,1.862,18.407-2.97,34.275,0,0-10.861,1.418-19.5-.886,0,0,4.034-5.674-3.236-29.876,0,0-6.694,7.18-1.286,15.6a19.95,19.95,0,0,0-3.413,6.25S6150.448,7124.635,6157.928,7104.777Z" transform="translate(-6155.796 -7066.645)" fill="#b93cbe"/>
      <path id="Trazado_3171" data-name="Trazado 3171" d="M6257.5,7327.676l1.751-3.047s2.837-.388,3.214-1.175l-3.491.742-2.139,3.479Z" transform="translate(-6231.887 -7240.43)" fill="#b2a108"/>
      <path id="Trazado_3172" data-name="Trazado 3172" d="M6308.789,7119.276s-1.04-8.122-3.035-9.939a37.266,37.266,0,0,1,2.637,9.874Z" transform="translate(-6268.726 -7079.185)" fill="#9d00aa"/>
      <path id="Trazado_3173" data-name="Trazado 3173" d="M6311.9,7195.391s9.3-18.55,10.828-21.941,3.259-3.258,6.583-3.258h20.058c3.235,0,3.635.931,2.128,4.565s-6.1,15.249-6.793,17.044-1.131,3.59-3.957,3.59Z" transform="translate(-6273.353 -7125.011)" fill="#4b3f8e"/>
      <path id="Trazado_3174" data-name="Trazado 3174" d="M6260.407,7262.554H6275.8l-.565,2.393h-16.423Z" transform="translate(-6233.374 -7194.567)" fill="#4b3f8e"/>
      <ellipse id="Elipse_298" data-name="Elipse 298" cx="3.075" cy="1.895" rx="3.075" ry="1.895" transform="translate(59.657 59.586) rotate(-69.602)" fill="#e2f6fc"/>
      <path id="Trazado_3175" data-name="Trazado 3175" d="M6233.23,7066.581s4.921,3.391,9.175-.532l-.3-8.677-7.347-1.985Z" transform="translate(-6214.11 -7038.556)" fill="url(#linear-gradient-15)"/>
      <path id="Trazado_3176" data-name="Trazado 3176" d="M6229.862,7004.256a11.5,11.5,0,0,0,.931,4.422,21.666,21.666,0,0,1,1.23,8.644c-.2,2.327-7.58,2.46-11.2-2.427s-4.687-6.117-4.687-6.117l11.8-7.014Z" transform="translate(-6201.234 -6998.173)" fill="url(#linear-gradient-16)"/>
      <path id="Trazado_3177" data-name="Trazado 3177" d="M6217.667,7001.418s.6-.232.183-.9-1.964-3.142-.019-3.674,6.518-1.213,8.895-3.672-.5-5.869-1.413-5.952c0,0-.831,1.463-.648,0a8.634,8.634,0,0,1-4.537,2.627c-3.192.847-7.2,1.379-7.863,5.768a2.382,2.382,0,0,0-2.294.847c-.915,1.164-.066,2.744,1.081,3.558s2.327,2.11.532,2.676a3.621,3.621,0,0,0,2.095,1.612c1.446.4,4.576.125,2.708-.881-2.359-1.272-2.246-3.158-1.78-3.823C6215.044,6998.98,6216.32,6998.4,6217.667,7001.418Z" transform="translate(-6196.302 -6987.223)" fill="url(#linear-gradient-17)"/>
      <path id="Trazado_3178" data-name="Trazado 3178" d="M6196.461,7226.74a22.683,22.683,0,0,0,6.981,6.294c4.012,2.062,5.164,2.572,6.383,2.46s2.372-.975,2.527-.753-.51,1.417-1.662,1.994a40.207,40.207,0,0,0,6.051,1.13c2.5.177.2.621-3.236.976s-5.7-.824-8.577-1.773-8.688-2.017-11.879-4.078c0,0-.51-1.263,1.063-3.635S6196.461,7226.74,6196.461,7226.74Z" transform="translate(-6183.791 -7167.597)" fill="url(#linear-gradient-14)"/>
    </g>
    <g id="Grupo_2050" data-name="Grupo 2050" transform="translate(708.798 215.774)">
      <path id="Trazado_3168-2" data-name="Trazado 3168" d="M6201.366,7298.375l5.939-13.83,18.911.954s-1.33,8.665-2.1,12.876Z" transform="translate(-6190.114 -7211.129)" fill="url(#linear-gradient-13)"/>
      <path id="Trazado_3169-2" data-name="Trazado 3169" d="M6394.929,7035.957s5.677-2.716,8.862-6.971,3.76-7.447,6.2-8.688,8.955-3.058,11.392-3.59c0,0,1.125,2.145-4.411,2.66,0,0,.516,4.587-2.693,6.316s-4.039,1.646-5.153,1.214c0,0-2.128,13.148-10.738,18.767Z" transform="translate(-6335.881 -7009.427)" fill="url(#linear-gradient-14)"/>
      <path id="Trazado_3170-2" data-name="Trazado 3170" d="M6157.928,7104.777c1.639-4.351,2.36-7.779,8.411-9.375s10.639-1.9,18.917-2.527,10.97.465,13.264,1.2,10.605,2.028,16.323-.9c0,0,2.893,3.158,3.458,9.708,0,0-6.25,6.582-22.839,3.79,0,0,1.862,18.407-2.97,34.275,0,0-10.861,1.418-19.5-.886,0,0,4.034-5.674-3.236-29.876,0,0-6.694,7.18-1.286,15.6a19.95,19.95,0,0,0-3.413,6.25S6150.448,7124.635,6157.928,7104.777Z" transform="translate(-6155.796 -7066.645)" fill="#b93cbe"/>
      <path id="Trazado_3171-2" data-name="Trazado 3171" d="M6257.5,7327.676l1.751-3.047s2.837-.388,3.214-1.175l-3.491.742-2.139,3.479Z" transform="translate(-6231.887 -7240.43)" fill="#b2a108"/>
      <path id="Trazado_3172-2" data-name="Trazado 3172" d="M6308.789,7119.276s-1.04-8.122-3.035-9.939a37.266,37.266,0,0,1,2.637,9.874Z" transform="translate(-6268.726 -7079.185)" fill="#9d00aa"/>
      <path id="Trazado_3173-2" data-name="Trazado 3173" d="M6311.9,7195.391s9.3-18.55,10.828-21.941,3.259-3.258,6.583-3.258h20.058c3.235,0,3.635.931,2.128,4.565s-6.1,15.249-6.793,17.044-1.131,3.59-3.957,3.59Z" transform="translate(-6273.353 -7125.011)" fill="#4b3f8e"/>
      <path id="Trazado_3174-2" data-name="Trazado 3174" d="M6260.407,7262.554H6275.8l-.565,2.393h-16.423Z" transform="translate(-6233.374 -7194.567)" fill="#4b3f8e"/>
      <ellipse id="Elipse_298-2" data-name="Elipse 298" cx="3.075" cy="1.895" rx="3.075" ry="1.895" transform="translate(59.657 59.586) rotate(-69.602)" fill="#e2f6fc"/>
      <path id="Trazado_3175-2" data-name="Trazado 3175" d="M6233.23,7066.581s4.921,3.391,9.175-.532l-.3-8.677-7.347-1.985Z" transform="translate(-6214.11 -7038.556)" fill="url(#linear-gradient-15)"/>
      <path id="Trazado_3176-2" data-name="Trazado 3176" d="M6229.862,7004.256a11.5,11.5,0,0,0,.931,4.422,21.666,21.666,0,0,1,1.23,8.644c-.2,2.327-7.58,2.46-11.2-2.427s-4.687-6.117-4.687-6.117l11.8-7.014Z" transform="translate(-6201.234 -6998.173)" fill="url(#linear-gradient-16)"/>
      <path id="Trazado_3177-2" data-name="Trazado 3177" d="M6217.667,7001.418s.6-.232.183-.9-1.964-3.142-.019-3.674,6.518-1.213,8.895-3.672-.5-5.869-1.413-5.952c0,0-.831,1.463-.648,0a8.634,8.634,0,0,1-4.537,2.627c-3.192.847-7.2,1.379-7.863,5.768a2.382,2.382,0,0,0-2.294.847c-.915,1.164-.066,2.744,1.081,3.558s2.327,2.11.532,2.676a3.621,3.621,0,0,0,2.095,1.612c1.446.4,4.576.125,2.708-.881-2.359-1.272-2.246-3.158-1.78-3.823C6215.044,6998.98,6216.32,6998.4,6217.667,7001.418Z" transform="translate(-6196.302 -6987.223)" fill="url(#linear-gradient-17)"/>
      <path id="Trazado_3178-2" data-name="Trazado 3178" d="M6196.461,7226.74a22.683,22.683,0,0,0,6.981,6.294c4.012,2.062,5.164,2.572,6.383,2.46s2.372-.975,2.527-.753-.51,1.417-1.662,1.994a40.207,40.207,0,0,0,6.051,1.13c2.5.177.2.621-3.236.976s-5.7-.824-8.577-1.773-8.688-2.017-11.879-4.078c0,0-.51-1.263,1.063-3.635S6196.461,7226.74,6196.461,7226.74Z" transform="translate(-6183.791 -7167.597)" fill="url(#linear-gradient-14)"/>
    </g>
    <g id="Grupo_2022" data-name="Grupo 2022" transform="translate(640.136 261.382)">
      <g id="Grupo_2014" data-name="Grupo 2014" transform="translate(0 0)">
        <path id="Trazado_3202" data-name="Trazado 3202" d="M5870,7218.927s-7.612,4.217-8.241,11.352-.053,36.755,15.21,44.044,35.464,5.61,43.2,4.813,12.021-6.052,12.979-9.671,2.5-17.1-5.631-21.446-16.679-11.01-25.217-17.5S5879.133,7213.448,5870,7218.927Z" transform="translate(-5861.607 -7205.639)" fill="url(#linear-gradient-25)"/>
        <path id="Trazado_3203" data-name="Trazado 3203" d="M6111.794,7351.349s-2.054.109-2.306,4.335a24.407,24.407,0,0,0,11.2,5.287c.482.076-.675-3.3-.85-3.755C6119.008,7355.041,6116.4,7353.641,6111.794,7351.349Z" transform="translate(-6048.28 -7306.508)" fill="#7893b0"/>
        <path id="Trazado_3204" data-name="Trazado 3204" d="M6023.936,7281.888h4.335s13.306-14.694,22.031-16.177c0,0,6.075,7.754-.323,22.242a2.114,2.114,0,0,1-3.028,1,1.73,1.73,0,0,1-.692-.824l.515-12.371s-11.35,9.927-13.322,11.842S6021.451,7288.345,6023.936,7281.888Z" transform="translate(-5983.557 -7242.017)" fill="#198fcb"/>
        <path id="Trazado_3205" data-name="Trazado 3205" d="M6163.442,7444.3a16.3,16.3,0,0,0-8.89-3.89l-1.414.863a15.347,15.347,0,0,0,2.548,2.733,17.778,17.778,0,0,0,5.786,2.327C6163.356,7446.589,6163.633,7445.45,6163.442,7444.3Z" transform="translate(-6081.152 -7373.581)" fill="#7893b0"/>
        <path id="Trazado_3206" data-name="Trazado 3206" d="M6119.837,7368.467c-1.119.363-1.611,1.948-4.451.9a25.057,25.057,0,0,1-5.84-3.077c-.024.2-.043.418-.057.646,0,0,5.022,4.777,11.458,5.794a.641.641,0,0,0,.691-.864A16.122,16.122,0,0,0,6119.837,7368.467Z" transform="translate(-6048.28 -7317.76)" fill="#7893b0"/>
        <path id="Trazado_3207" data-name="Trazado 3207" d="M6172.579,7456.634a14.945,14.945,0,0,0-1.368-1.359c.191,1.147-.086,2.285-1.97,2.034a17.765,17.765,0,0,1-5.786-2.327,12.5,12.5,0,0,0,8.423,3.233A.955.955,0,0,0,6172.579,7456.634Z" transform="translate(-6088.921 -7384.551)" fill="#7893b0"/>
        <path id="Trazado_3208" data-name="Trazado 3208" d="M5999.181,7343.927l20.3.22s11.593,9.591,13.7,24.217c0,0,.35,1.076-1.746,1.26a40.236,40.236,0,0,1-11.579-12.671c-5.6-9.923-16.706-5.457-16.706-5.457-3.647-2.629-8.8-3.166-12.686-4.042Z" transform="translate(-5958.643 -7300.919)" fill="#1997d8"/>
        <path id="Trazado_3209" data-name="Trazado 3209" d="M6016.779,7277.7s2.185,10.952,12.893,15.285l3.809-.449.9,1.433-8.935.285a24.438,24.438,0,0,1-11.683-11.268C6013.629,7282.714,6011.4,7278.113,6016.779,7277.7Z" transform="translate(-5975.762 -7251.044)" fill="url(#linear-gradient-26)"/>
        <path id="Trazado_3210" data-name="Trazado 3210" d="M5961.448,7261.823a58.521,58.521,0,0,1-3.02-13.32,28.681,28.681,0,0,1,2.954-2.236.823.823,0,0,0,.322-1.066,63.3,63.3,0,0,0-6.267-8.621c-2.057-.513-10.494-4.524-16.436,3.6-2.551,3.488.506,14.226,12.075,25.345l2.387.458Z" transform="translate(-5919.259 -7218.994)" fill="url(#linear-gradient-27)"/>
        <path id="Trazado_3211" data-name="Trazado 3211" d="M5982.473,7295.256s6.9,8.175,15.732,9.371c0,0,2.281-2.08,3.978-1.338s4.023,4.021,4.023,4.021h-11.335s-10.717-.377-16.072-6.876C5979.229,7298.159,5980.521,7296.8,5982.473,7295.256Z" transform="translate(-5949.861 -7264.267)" fill="url(#linear-gradient-28)"/>
        <path id="Trazado_3212" data-name="Trazado 3212" d="M5972.688,7217.753l-1.51,5.039a.554.554,0,0,0,.214.616,5.634,5.634,0,0,0,5.237.526.822.822,0,0,0,.528-.705l.357-4.391Z" transform="translate(-5944.104 -7205.9)" fill="url(#linear-gradient-29)"/>
        <g id="Grupo_2013" data-name="Grupo 2013" transform="translate(24.495)">
          <path id="Trazado_3213" data-name="Trazado 3213" d="M5982.74,7190.724s-.743,5.222-2.75,6.828-5.915.4-7.235-3.541l2.63-6.731Z" transform="translate(-5969.805 -7182.952)" fill="url(#linear-gradient-30)"/>
          <path id="Trazado_3214" data-name="Trazado 3214" d="M5966.092,7178.438a.258.258,0,0,0,.336-.207,6.764,6.764,0,0,1,.62-2.086s-.191-.686,1.732.35,4.812,2.556,6.512,1.65c1.659-.883,3.338-5.326-1.044-4.5a.258.258,0,0,1-.308-.271,2.665,2.665,0,0,0-1.719-2.949c-1.592-.5-.737.313-1.1.746-.1.128.134-.434-2.128-.1-.776.112-1.772-1.947-3.679-1.107-1.57.69-1.814,1.659-1.789,2.262a.258.258,0,0,1-.367.246,1.552,1.552,0,0,0-2,.592c-1.024,1.283.44,2.4.879,2.689a.254.254,0,0,1,.116.212c0,.669.109,3.581,1.569,5.223a.26.26,0,0,0,.433-.074l1.124-2.678a.258.258,0,0,1,.319-.146Z" transform="translate(-5960.808 -7169.754)" fill="url(#linear-gradient-31)"/>
          <path id="Trazado_3215" data-name="Trazado 3215" d="M5975.878,7200.816s-.686-2.794-1.728-1.887.272,2.9,1.466,3.285Z" transform="translate(-5970.571 -7191.588)" fill="url(#linear-gradient-32)"/>
        </g>
        <path id="Trazado_3216" data-name="Trazado 3216" d="M6087.48,7289.677l5.089-16.973a1.736,1.736,0,0,1,1.544-1.232l6.871-.47a.974.974,0,0,1,.985,1.294l-5.689,16.208a1.428,1.428,0,0,1-1.2.947l-6.766.751Z" transform="translate(-6031.706 -7246)" fill="url(#linear-gradient-17)"/>
        <path id="Trazado_3217" data-name="Trazado 3217" d="M6119.953,7295.629c-.38.768-1.036,1.217-1.465,1s-.47-1.007-.09-1.772,1.037-1.217,1.466-1S6120.333,7294.863,6119.953,7295.629Z" transform="translate(-6054.792 -7263.172)" fill="url(#linear-gradient-34)"/>
        <path id="Trazado_3218" data-name="Trazado 3218" d="M6044.909,7342.6h-.033l-14.418-.729a.646.646,0,0,1,.065-1.291l14.417.729a.646.646,0,0,1-.031,1.291Z" transform="translate(-5988.303 -7298.399)" fill="url(#linear-gradient-35)"/>
        <path id="Trazado_3219" data-name="Trazado 3219" d="M6016.234,7267.369h0a.143.143,0,0,1-.142-.143,30.611,30.611,0,0,0-1.163-7.043.142.142,0,0,1,.1-.176.143.143,0,0,1,.177.1,30.881,30.881,0,0,1,1.174,7.124A.143.143,0,0,1,6016.234,7267.369Z" transform="translate(-5977.066 -7237.717)" fill="#e78456"/>
        <path id="Trazado_3220" data-name="Trazado 3220" d="M5980.276,7274.325a.144.144,0,0,1-.111-.054,36.484,36.484,0,0,1-4.273-6.8.143.143,0,0,1,.081-.185.141.141,0,0,1,.185.081,36.225,36.225,0,0,0,4.231,6.73.143.143,0,0,1-.023.2A.139.139,0,0,1,5980.276,7274.325Z" transform="translate(-5947.664 -7243.193)" fill="#e78456"/>
        <path id="Trazado_3221" data-name="Trazado 3221" d="M5952.745,7297.136l-.105-.046c-4.571-1.958-7.394-7.413-7.421-7.467a.142.142,0,1,1,.253-.13c.027.054,2.761,5.335,7.175,7.29l.457-.646a.142.142,0,1,1,.232.165Z" transform="translate(-5924.561 -7259.868)" fill="#e78456"/>
      </g>
    </g>
    <g id="Grupo_2053" data-name="Grupo 2053" transform="translate(640.136 261.382)">
      <g id="Grupo_2014-2" data-name="Grupo 2014" transform="translate(0 0)">
        <path id="Trazado_3202-2" data-name="Trazado 3202" d="M5870,7218.927s-7.612,4.217-8.241,11.352-.053,36.755,15.21,44.044,35.464,5.61,43.2,4.813,12.021-6.052,12.979-9.671,2.5-17.1-5.631-21.446-16.679-11.01-25.217-17.5S5879.133,7213.448,5870,7218.927Z" transform="translate(-5861.607 -7205.639)" fill="url(#linear-gradient-25)"/>
        <path id="Trazado_3203-2" data-name="Trazado 3203" d="M6111.794,7351.349s-2.054.109-2.306,4.335a24.407,24.407,0,0,0,11.2,5.287c.482.076-.675-3.3-.85-3.755C6119.008,7355.041,6116.4,7353.641,6111.794,7351.349Z" transform="translate(-6048.28 -7306.508)" fill="#7893b0"/>
        <path id="Trazado_3204-2" data-name="Trazado 3204" d="M6023.936,7281.888h4.335s13.306-14.694,22.031-16.177c0,0,6.075,7.754-.323,22.242a2.114,2.114,0,0,1-3.028,1,1.73,1.73,0,0,1-.692-.824l.515-12.371s-11.35,9.927-13.322,11.842S6021.451,7288.345,6023.936,7281.888Z" transform="translate(-5983.557 -7242.017)" fill="#198fcb"/>
        <path id="Trazado_3205-2" data-name="Trazado 3205" d="M6163.442,7444.3a16.3,16.3,0,0,0-8.89-3.89l-1.414.863a15.347,15.347,0,0,0,2.548,2.733,17.778,17.778,0,0,0,5.786,2.327C6163.356,7446.589,6163.633,7445.45,6163.442,7444.3Z" transform="translate(-6081.152 -7373.581)" fill="#7893b0"/>
        <path id="Trazado_3206-2" data-name="Trazado 3206" d="M6119.837,7368.467c-1.119.363-1.611,1.948-4.451.9a25.057,25.057,0,0,1-5.84-3.077c-.024.2-.043.418-.057.646,0,0,5.022,4.777,11.458,5.794a.641.641,0,0,0,.691-.864A16.122,16.122,0,0,0,6119.837,7368.467Z" transform="translate(-6048.28 -7317.76)" fill="#7893b0"/>
        <path id="Trazado_3207-2" data-name="Trazado 3207" d="M6172.579,7456.634a14.945,14.945,0,0,0-1.368-1.359c.191,1.147-.086,2.285-1.97,2.034a17.765,17.765,0,0,1-5.786-2.327,12.5,12.5,0,0,0,8.423,3.233A.955.955,0,0,0,6172.579,7456.634Z" transform="translate(-6088.921 -7384.551)" fill="#7893b0"/>
        <path id="Trazado_3208-2" data-name="Trazado 3208" d="M5999.181,7343.927l20.3.22s11.593,9.591,13.7,24.217c0,0,.35,1.076-1.746,1.26a40.236,40.236,0,0,1-11.579-12.671c-5.6-9.923-16.706-5.457-16.706-5.457-3.647-2.629-8.8-3.166-12.686-4.042Z" transform="translate(-5958.643 -7300.919)" fill="#1997d8"/>
        <path id="Trazado_3209-2" data-name="Trazado 3209" d="M6016.779,7277.7s2.185,10.952,12.893,15.285l3.809-.449.9,1.433-8.935.285a24.438,24.438,0,0,1-11.683-11.268C6013.629,7282.714,6011.4,7278.113,6016.779,7277.7Z" transform="translate(-5975.762 -7251.044)" fill="url(#linear-gradient-26)"/>
        <path id="Trazado_3210-2" data-name="Trazado 3210" d="M5961.448,7261.823a58.521,58.521,0,0,1-3.02-13.32,28.681,28.681,0,0,1,2.954-2.236.823.823,0,0,0,.322-1.066,63.3,63.3,0,0,0-6.267-8.621c-2.057-.513-10.494-4.524-16.436,3.6-2.551,3.488.506,14.226,12.075,25.345l2.387.458Z" transform="translate(-5919.259 -7218.994)" fill="url(#linear-gradient-27)"/>
        <path id="Trazado_3211-2" data-name="Trazado 3211" d="M5982.473,7295.256s6.9,8.175,15.732,9.371c0,0,2.281-2.08,3.978-1.338s4.023,4.021,4.023,4.021h-11.335s-10.717-.377-16.072-6.876C5979.229,7298.159,5980.521,7296.8,5982.473,7295.256Z" transform="translate(-5949.861 -7264.267)" fill="url(#linear-gradient-28)"/>
        <path id="Trazado_3212-2" data-name="Trazado 3212" d="M5972.688,7217.753l-1.51,5.039a.554.554,0,0,0,.214.616,5.634,5.634,0,0,0,5.237.526.822.822,0,0,0,.528-.705l.357-4.391Z" transform="translate(-5944.104 -7205.9)" fill="url(#linear-gradient-29)"/>
        <g id="Grupo_2013-2" data-name="Grupo 2013" transform="translate(24.495)">
          <path id="Trazado_3213-2" data-name="Trazado 3213" d="M5982.74,7190.724s-.743,5.222-2.75,6.828-5.915.4-7.235-3.541l2.63-6.731Z" transform="translate(-5969.805 -7182.952)" fill="url(#linear-gradient-30)"/>
          <path id="Trazado_3214-2" data-name="Trazado 3214" d="M5966.092,7178.438a.258.258,0,0,0,.336-.207,6.764,6.764,0,0,1,.62-2.086s-.191-.686,1.732.35,4.812,2.556,6.512,1.65c1.659-.883,3.338-5.326-1.044-4.5a.258.258,0,0,1-.308-.271,2.665,2.665,0,0,0-1.719-2.949c-1.592-.5-.737.313-1.1.746-.1.128.134-.434-2.128-.1-.776.112-1.772-1.947-3.679-1.107-1.57.69-1.814,1.659-1.789,2.262a.258.258,0,0,1-.367.246,1.552,1.552,0,0,0-2,.592c-1.024,1.283.44,2.4.879,2.689a.254.254,0,0,1,.116.212c0,.669.109,3.581,1.569,5.223a.26.26,0,0,0,.433-.074l1.124-2.678a.258.258,0,0,1,.319-.146Z" transform="translate(-5960.808 -7169.754)" fill="url(#linear-gradient-31)"/>
          <path id="Trazado_3215-2" data-name="Trazado 3215" d="M5975.878,7200.816s-.686-2.794-1.728-1.887.272,2.9,1.466,3.285Z" transform="translate(-5970.571 -7191.588)" fill="url(#linear-gradient-32)"/>
        </g>
        <path id="Trazado_3216-2" data-name="Trazado 3216" d="M6087.48,7289.677l5.089-16.973a1.736,1.736,0,0,1,1.544-1.232l6.871-.47a.974.974,0,0,1,.985,1.294l-5.689,16.208a1.428,1.428,0,0,1-1.2.947l-6.766.751Z" transform="translate(-6031.706 -7246)" fill="url(#linear-gradient-17)"/>
        <path id="Trazado_3217-2" data-name="Trazado 3217" d="M6119.953,7295.629c-.38.768-1.036,1.217-1.465,1s-.47-1.007-.09-1.772,1.037-1.217,1.466-1S6120.333,7294.863,6119.953,7295.629Z" transform="translate(-6054.792 -7263.172)" fill="url(#linear-gradient-34)"/>
        <path id="Trazado_3218-2" data-name="Trazado 3218" d="M6044.909,7342.6h-.033l-14.418-.729a.646.646,0,0,1,.065-1.291l14.417.729a.646.646,0,0,1-.031,1.291Z" transform="translate(-5988.303 -7298.399)" fill="url(#linear-gradient-35)"/>
        <path id="Trazado_3219-2" data-name="Trazado 3219" d="M6016.234,7267.369h0a.143.143,0,0,1-.142-.143,30.611,30.611,0,0,0-1.163-7.043.142.142,0,0,1,.1-.176.143.143,0,0,1,.177.1,30.881,30.881,0,0,1,1.174,7.124A.143.143,0,0,1,6016.234,7267.369Z" transform="translate(-5977.066 -7237.717)" fill="#e78456"/>
        <path id="Trazado_3220-2" data-name="Trazado 3220" d="M5980.276,7274.325a.144.144,0,0,1-.111-.054,36.484,36.484,0,0,1-4.273-6.8.143.143,0,0,1,.081-.185.141.141,0,0,1,.185.081,36.225,36.225,0,0,0,4.231,6.73.143.143,0,0,1-.023.2A.139.139,0,0,1,5980.276,7274.325Z" transform="translate(-5947.664 -7243.193)" fill="#e78456"/>
        <path id="Trazado_3221-2" data-name="Trazado 3221" d="M5952.745,7297.136l-.105-.046c-4.571-1.958-7.394-7.413-7.421-7.467a.142.142,0,1,1,.253-.13c.027.054,2.761,5.335,7.175,7.29l.457-.646a.142.142,0,1,1,.232.165Z" transform="translate(-5924.561 -7259.868)" fill="#e78456"/>
      </g>
    </g>
    <g id="Grupo_2046" data-name="Grupo 2046" transform="translate(811.652 252.172)">
      <path id="Trazado_3248" data-name="Trazado 3248" d="M6769.52,7270.74s7.134,3.749,7.724,10.093.049,32.677-14.256,39.159-33.241,4.988-40.489,4.279-11.266-5.381-12.165-8.6-2.348-15.2,5.277-19.067,15.633-9.789,23.636-15.555S6760.964,7265.87,6769.52,7270.74Z" transform="translate(-6694.536 -7241.885)" fill="url(#linear-gradient-47)"/>
      <g id="Grupo_2045" data-name="Grupo 2045" transform="translate(0 0)">
        <g id="Grupo_2044" data-name="Grupo 2044" transform="translate(0)">
          <path id="Trazado_3223" data-name="Trazado 3223" d="M5728.687,7126.644c11.207,20.5,20.437,24.432,20.437,24.432l2.727-5.18c-12.207-6.1-21.456-21.262-21.456-21.262Z" transform="translate(-5708.7 -7116.852)" fill="#feb37c"/>
          <path id="Trazado_3224" data-name="Trazado 3224" d="M5801.319,7142.784s-2.562,2.461-1.207,4.05-.938,2.405-1.176,2.751-1.9,2.976.386,3.8a2.909,2.909,0,0,1-3.293-.17c-1.518-1.283-.4-2.5-.728-3.88s-.934-1.532-1.645-2.5-1.691-2.782-.732-4.52a18.787,18.787,0,0,0,1.933-5.367c.254-1.492,2.171-6.169,5.168-4.981,0,0,1.331-1.64,3.836-.343s2.655,3.908,2.868,5.364,1.184,5.526,2.19,7.034.142,3.179-.854,4.24-1.437,1.413-1.431,3.219-.807,3.088-2.487,2.97a1.158,1.158,0,0,0,.836-1.841c-.819-1.554-2.117-2.242-1.083-3.862s2.623-3.779,1.74-5.208a11.55,11.55,0,0,1-1.082-1.509c-.566-.928.819-1.952.819-1.952l-1.556-5.676a31.552,31.552,0,0,0-2.924-1.358c-.11.071-3.073,2.52-3.106,2.692S5799.378,7138.967,5801.319,7142.784Z" transform="translate(-5757.25 -7121.786)" fill="#21353e"/>
          <path id="Trazado_3225" data-name="Trazado 3225" d="M5711.177,7290.019l-4.418-1.225a1.706,1.706,0,0,0-1.6.374c-1.7,1.53-11.141,13.213-17.406,21.024l2.265,1.383c4.736-2.865,16.622-9.824,16.672-15.787l8.022,6.479Z" transform="translate(-5677.569 -7241.65)" fill="#544089"/>
          <path id="Trazado_3226" data-name="Trazado 3226" d="M5775.621,7304.972a34.805,34.805,0,0,1,6.654-3.47,58.108,58.108,0,0,0-2.186-5.425s-15.766-2.943-17.727-2.508-11.043-1.7-11.043-1.7c6.807,4.132,7.937,8.808,13.245,14.387a13.413,13.413,0,0,0,2.629.918C5769.369,7306.288,5771.779,7304.583,5775.621,7304.972Z" transform="translate(-5725.912 -7244.034)" fill="#6b559c"/>
          <path id="Trazado_3227" data-name="Trazado 3227" d="M5830.979,7148.983s2.584,1.525,2.958,3.066c.3,1.238,3.261,1.632,3.364,4.027a2.732,2.732,0,0,0,2.085,2.575c3,.709,7.553,2.663,7.877,8,.248,4.07-1.927,5.432-4.123,5.786a3.06,3.06,0,0,0-2.6,3.337c.184,1.556-.416,3.29-3.182,4.476-6.2,2.66-11.285-8.388-11.285-8.388l.268-18.552Z" transform="translate(-5782.767 -7135.371)" fill="#21353e"/>
          <path id="Trazado_3228" data-name="Trazado 3228" d="M5804.355,7228.15a94.429,94.429,0,0,1-5.944-8.618,6.436,6.436,0,0,1-.2-5.894,79.709,79.709,0,0,1,4.355-7.431c.4-.85,5.73,0,5.73,0s9.452,8.419,11.808,20.592l-4.853.732a54.731,54.731,0,0,0-4.295-8.356s3.736,6.908,3.514,9.467Z" transform="translate(-5761.104 -7178.604)" fill="#55bad2"/>
          <path id="Trazado_3229" data-name="Trazado 3229" d="M5786.841,7290.083l4.171-3.341,3.958,1.745s4.7,1.482,7.566,1.159l2.869-.323,6.521-.984.555,2.913a1.683,1.683,0,0,1-.9,1.818,11.11,11.11,0,0,1-1.722.739c-.875.232-18.9-2.781-18.9-2.781Z" transform="translate(-5752.927 -7240.138)" fill="#feb37c"/>
          <path id="Trazado_3230" data-name="Trazado 3230" d="M5824.542,7176.275l1.509,7.4c-.459,1.419-4.131.9-4.564-.057a.879.879,0,0,1-.067-.311l-.321-5.654a1.007,1.007,0,0,1,.672-1.007l1.542-.54C5823.9,7175.895,5824.443,7175.654,5824.542,7176.275Z" transform="translate(-5778.979 -7155.824)" fill="#ffa466"/>
          <path id="Trazado_3231" data-name="Trazado 3231" d="M5653.842,7384.069l-1.383,1.045a18,18,0,0,0,10.189-.925l-.86-2.011c-.172-.492.409-1.42.8-1.769.242-.218.478-.631.656-.68l-2.032-.935C5656.978,7381.818,5653.854,7384.069,5653.842,7384.069Z" transform="translate(-5650.728 -7310.146)" fill="#feb37c"/>
          <path id="Trazado_3232" data-name="Trazado 3232" d="M5718.909,7310.414l9.167,4.722-5.94-11.28-4.574-.306a1.712,1.712,0,0,0-1.492.691,104.5,104.5,0,0,0-12.728,24.349l2.619.488C5710.134,7325.212,5720.05,7316.178,5718.909,7310.414Z" transform="translate(-5689.425 -7252.917)" fill="#6b559c"/>
          <path id="Trazado_3233" data-name="Trazado 3233" d="M5679.287,7407.824c-.033,0-4.963,4.059-4.995,4.062l-1.222,1.23a18,18,0,0,0,9.957-2.352l-1.042-2.015a.9.9,0,0,1,.438-1.241c.217-.1.459-.2.712-.311l-2.311-1.327Q5680.047,7406.83,5679.287,7407.824Z" transform="translate(-5666.403 -7330.738)" fill="#feb37c"/>
          <path id="Trazado_3234" data-name="Trazado 3234" d="M5701.153,7403.306a5.679,5.679,0,0,0,2.771.359l1.885-1.447s-3.7-1.063-3.795-1.544Z" transform="translate(-5687.76 -7326.784)" fill="#03698c"/>
          <path id="Trazado_3235" data-name="Trazado 3235" d="M5686.957,7370.051a9.579,9.579,0,0,0,2.708,2.461l-2.323,1.4a2.938,2.938,0,0,1-2.405-1.231Z" transform="translate(-5675.427 -7303.496)" fill="#03698c"/>
          <g id="Grupo_2043" data-name="Grupo 2043" transform="translate(15.264 33.567)">
            <g id="Grupo_2042" data-name="Grupo 2042">
              <g id="Grupo_2040" data-name="Grupo 2040" transform="translate(13.139 15.707)">
                <path id="Trazado_3236" data-name="Trazado 3236" d="M5780.936,7301.913l-.038,0-16.438-2.538a.744.744,0,1,1,.228-1.471l16.438,2.537a.744.744,0,0,1-.189,1.476Z" transform="translate(-5763.829 -7297.889)" fill="#a8a7b7"/>
              </g>
              <g id="Grupo_2041" data-name="Grupo 2041">
                <path id="Trazado_3237" data-name="Trazado 3237" d="M5710.24,7232.316l13.692,2.1a2.639,2.639,0,0,1,2.131,1.858l4.274,14.392-17.017-2.607a1.6,1.6,0,0,1-1.321-1.229l-3.005-13.173A1.107,1.107,0,0,1,5710.24,7232.316Z" transform="translate(-5708.966 -7232.303)" fill="#c3c2cc"/>
              </g>
              <path id="Trazado_3238" data-name="Trazado 3238" d="M5743.206,7262.229c.156.967-.2,1.829-.8,1.925s-1.2-.611-1.359-1.578.2-1.829.8-1.924S5743.051,7261.261,5743.206,7262.229Z" transform="translate(-5733.34 -7253.856)" fill="#e2f6fc"/>
            </g>
          </g>
          <path id="Trazado_3239" data-name="Trazado 3239" d="M5656.69,7396.386a2.306,2.306,0,0,1,.717,1.659,1.02,1.02,0,0,1-.835.911c-1.988.393-8.511,1.613-11.1,1.255a.283.283,0,0,1-.185-.45,9.027,9.027,0,0,1,3.143-2.359l-.21.172a.349.349,0,0,0,.25.618C5650.386,7398.022,5654.354,7397.55,5656.69,7396.386Z" transform="translate(-5645.229 -7323.524)" fill="#03698c"/>
          <path id="Trazado_3240" data-name="Trazado 3240" d="M5677.6,7421.69a2.309,2.309,0,0,1,.943,1.542,1.02,1.02,0,0,1-.7,1.02c-1.912.668-8.2,2.8-10.813,2.807a.283.283,0,0,1-.246-.42,9.023,9.023,0,0,1,2.779-2.778l-.184.2a.349.349,0,0,0,.334.578C5671.587,7424.2,5675.447,7423.172,5677.6,7421.69Z" transform="translate(-5661.594 -7342.769)" fill="#03698c"/>
          <path id="Trazado_3241" data-name="Trazado 3241" d="M5867.551,7293.245s4.572-.788,5.368-.562c0,0,1.707,3.562-.1,5.27a13.408,13.408,0,0,0-6-4.231Z" transform="translate(-5813.749 -7244.625)" fill="#059b97"/>
          <path id="Trazado_3242" data-name="Trazado 3242" d="M5806.026,7143.571a6.779,6.779,0,0,0,1.4,5.118c1.913,2.34,3.638,3.322,6.129.717s1.4-4.641,1.4-4.641a36.151,36.151,0,0,1-1.246-5.121c-.01-1.1-2.376-3.165-4.114-1.647S5806.08,7142.57,5806.026,7143.571Z" transform="translate(-5767.469 -7126.606)" fill="#feb37c"/>
          <path id="Trazado_3243" data-name="Trazado 3243" d="M5804.07,7141.63a1.93,1.93,0,0,1,.354-.167,5.122,5.122,0,0,0,2.033-2.09c.754-1.375.853-2.245,1.027-2.259l.281.7s.778-1.9,1.841-1.5a2.957,2.957,0,0,1,1.676,3.138c-.057,1.635,1.221,5.733,2.516,6.25s.882-3.273.882-3.273-.208-6.653-2.671-7.187-5.745.075-6.611,1.137A6.138,6.138,0,0,0,5804.07,7141.63Z" transform="translate(-5765.901 -7124.774)" fill="#21353e"/>
          <path id="Trazado_3244" data-name="Trazado 3244" d="M5808.61,7139.163s6.914-1.37,6.146-3.254-1.039-1.437-2.1-1.131S5808.61,7139.163,5808.61,7139.163Z" transform="translate(-5769.483 -7124.356)" fill="#21353e"/>
          <path id="Trazado_3245" data-name="Trazado 3245" d="M5767.393,7172.642s5.684,6.766,12.455,9.421l-5,4.695s-4.865-2.673-9.7-10.192Z" transform="translate(-5736.427 -7153.363)" fill="#55bad2"/>
          <path id="Trazado_3246" data-name="Trazado 3246" d="M5761.185,7174.075a5.707,5.707,0,0,0,2.79-3.5,4.958,4.958,0,0,1,1.83,1.971s-1.1,2.637-3.144,3.4Z" transform="translate(-5733.416 -7151.793)" fill="#059b97"/>
          <path id="Trazado_3247" data-name="Trazado 3247" d="M5720.486,7100.914s0-8.418-1.07-5.495c0,0-1.918-3.26-3.114-3.277-.735-.01-.983,1.971-.7,2.782s1.469,5.239,3.421,7.545Z" transform="translate(-5698.663 -7092.142)" fill="#feb37c"/>
          <ellipse id="Elipse_300" data-name="Elipse 300" cx="1.65" cy="1.172" rx="1.65" ry="1.172" transform="translate(46.148 20.396) rotate(-74.388)" fill="#feb37c"/>
        </g>
      </g>
    </g>
    <g id="Grupo_2049" data-name="Grupo 2049" transform="translate(811.652 252.172)">
      <path id="Trazado_3248-2" data-name="Trazado 3248" d="M6769.52,7270.74s7.134,3.749,7.724,10.093.049,32.677-14.256,39.159-33.241,4.988-40.489,4.279-11.266-5.381-12.165-8.6-2.348-15.2,5.277-19.067,15.633-9.789,23.636-15.555S6760.964,7265.87,6769.52,7270.74Z" transform="translate(-6694.536 -7241.885)" fill="url(#linear-gradient-47)"/>
      <g id="Grupo_2045-2" data-name="Grupo 2045" transform="translate(0 0)">
        <g id="Grupo_2044-2" data-name="Grupo 2044" transform="translate(0)">
          <path id="Trazado_3223-2" data-name="Trazado 3223" d="M5728.687,7126.644c11.207,20.5,20.437,24.432,20.437,24.432l2.727-5.18c-12.207-6.1-21.456-21.262-21.456-21.262Z" transform="translate(-5708.7 -7116.852)" fill="#feb37c"/>
          <path id="Trazado_3224-2" data-name="Trazado 3224" d="M5801.319,7142.784s-2.562,2.461-1.207,4.05-.938,2.405-1.176,2.751-1.9,2.976.386,3.8a2.909,2.909,0,0,1-3.293-.17c-1.518-1.283-.4-2.5-.728-3.88s-.934-1.532-1.645-2.5-1.691-2.782-.732-4.52a18.787,18.787,0,0,0,1.933-5.367c.254-1.492,2.171-6.169,5.168-4.981,0,0,1.331-1.64,3.836-.343s2.655,3.908,2.868,5.364,1.184,5.526,2.19,7.034.142,3.179-.854,4.24-1.437,1.413-1.431,3.219-.807,3.088-2.487,2.97a1.158,1.158,0,0,0,.836-1.841c-.819-1.554-2.117-2.242-1.083-3.862s2.623-3.779,1.74-5.208a11.55,11.55,0,0,1-1.082-1.509c-.566-.928.819-1.952.819-1.952l-1.556-5.676a31.552,31.552,0,0,0-2.924-1.358c-.11.071-3.073,2.52-3.106,2.692S5799.378,7138.967,5801.319,7142.784Z" transform="translate(-5757.25 -7121.786)" fill="#21353e"/>
          <path id="Trazado_3225-2" data-name="Trazado 3225" d="M5711.177,7290.019l-4.418-1.225a1.706,1.706,0,0,0-1.6.374c-1.7,1.53-11.141,13.213-17.406,21.024l2.265,1.383c4.736-2.865,16.622-9.824,16.672-15.787l8.022,6.479Z" transform="translate(-5677.569 -7241.65)" fill="#544089"/>
          <path id="Trazado_3226-2" data-name="Trazado 3226" d="M5775.621,7304.972a34.805,34.805,0,0,1,6.654-3.47,58.108,58.108,0,0,0-2.186-5.425s-15.766-2.943-17.727-2.508-11.043-1.7-11.043-1.7c6.807,4.132,7.937,8.808,13.245,14.387a13.413,13.413,0,0,0,2.629.918C5769.369,7306.288,5771.779,7304.583,5775.621,7304.972Z" transform="translate(-5725.912 -7244.034)" fill="#6b559c"/>
          <path id="Trazado_3227-2" data-name="Trazado 3227" d="M5830.979,7148.983s2.584,1.525,2.958,3.066c.3,1.238,3.261,1.632,3.364,4.027a2.732,2.732,0,0,0,2.085,2.575c3,.709,7.553,2.663,7.877,8,.248,4.07-1.927,5.432-4.123,5.786a3.06,3.06,0,0,0-2.6,3.337c.184,1.556-.416,3.29-3.182,4.476-6.2,2.66-11.285-8.388-11.285-8.388l.268-18.552Z" transform="translate(-5782.767 -7135.371)" fill="#21353e"/>
          <path id="Trazado_3228-2" data-name="Trazado 3228" d="M5804.355,7228.15a94.429,94.429,0,0,1-5.944-8.618,6.436,6.436,0,0,1-.2-5.894,79.709,79.709,0,0,1,4.355-7.431c.4-.85,5.73,0,5.73,0s9.452,8.419,11.808,20.592l-4.853.732a54.731,54.731,0,0,0-4.295-8.356s3.736,6.908,3.514,9.467Z" transform="translate(-5761.104 -7178.604)" fill="#55bad2"/>
          <path id="Trazado_3229-2" data-name="Trazado 3229" d="M5786.841,7290.083l4.171-3.341,3.958,1.745s4.7,1.482,7.566,1.159l2.869-.323,6.521-.984.555,2.913a1.683,1.683,0,0,1-.9,1.818,11.11,11.11,0,0,1-1.722.739c-.875.232-18.9-2.781-18.9-2.781Z" transform="translate(-5752.927 -7240.138)" fill="#feb37c"/>
          <path id="Trazado_3230-2" data-name="Trazado 3230" d="M5824.542,7176.275l1.509,7.4c-.459,1.419-4.131.9-4.564-.057a.879.879,0,0,1-.067-.311l-.321-5.654a1.007,1.007,0,0,1,.672-1.007l1.542-.54C5823.9,7175.895,5824.443,7175.654,5824.542,7176.275Z" transform="translate(-5778.979 -7155.824)" fill="#ffa466"/>
          <path id="Trazado_3231-2" data-name="Trazado 3231" d="M5653.842,7384.069l-1.383,1.045a18,18,0,0,0,10.189-.925l-.86-2.011c-.172-.492.409-1.42.8-1.769.242-.218.478-.631.656-.68l-2.032-.935C5656.978,7381.818,5653.854,7384.069,5653.842,7384.069Z" transform="translate(-5650.728 -7310.146)" fill="#feb37c"/>
          <path id="Trazado_3232-2" data-name="Trazado 3232" d="M5718.909,7310.414l9.167,4.722-5.94-11.28-4.574-.306a1.712,1.712,0,0,0-1.492.691,104.5,104.5,0,0,0-12.728,24.349l2.619.488C5710.134,7325.212,5720.05,7316.178,5718.909,7310.414Z" transform="translate(-5689.425 -7252.917)" fill="#6b559c"/>
          <path id="Trazado_3233-2" data-name="Trazado 3233" d="M5679.287,7407.824c-.033,0-4.963,4.059-4.995,4.062l-1.222,1.23a18,18,0,0,0,9.957-2.352l-1.042-2.015a.9.9,0,0,1,.438-1.241c.217-.1.459-.2.712-.311l-2.311-1.327Q5680.047,7406.83,5679.287,7407.824Z" transform="translate(-5666.403 -7330.738)" fill="#feb37c"/>
          <path id="Trazado_3234-2" data-name="Trazado 3234" d="M5701.153,7403.306a5.679,5.679,0,0,0,2.771.359l1.885-1.447s-3.7-1.063-3.795-1.544Z" transform="translate(-5687.76 -7326.784)" fill="#03698c"/>
          <path id="Trazado_3235-2" data-name="Trazado 3235" d="M5686.957,7370.051a9.579,9.579,0,0,0,2.708,2.461l-2.323,1.4a2.938,2.938,0,0,1-2.405-1.231Z" transform="translate(-5675.427 -7303.496)" fill="#03698c"/>
          <g id="Grupo_2043-2" data-name="Grupo 2043" transform="translate(15.264 33.567)">
            <g id="Grupo_2042-2" data-name="Grupo 2042">
              <g id="Grupo_2040-2" data-name="Grupo 2040" transform="translate(13.139 15.707)">
                <path id="Trazado_3236-2" data-name="Trazado 3236" d="M5780.936,7301.913l-.038,0-16.438-2.538a.744.744,0,1,1,.228-1.471l16.438,2.537a.744.744,0,0,1-.189,1.476Z" transform="translate(-5763.829 -7297.889)" fill="#a8a7b7"/>
              </g>
              <g id="Grupo_2041-2" data-name="Grupo 2041">
                <path id="Trazado_3237-2" data-name="Trazado 3237" d="M5710.24,7232.316l13.692,2.1a2.639,2.639,0,0,1,2.131,1.858l4.274,14.392-17.017-2.607a1.6,1.6,0,0,1-1.321-1.229l-3.005-13.173A1.107,1.107,0,0,1,5710.24,7232.316Z" transform="translate(-5708.966 -7232.303)" fill="#c3c2cc"/>
              </g>
              <path id="Trazado_3238-2" data-name="Trazado 3238" d="M5743.206,7262.229c.156.967-.2,1.829-.8,1.925s-1.2-.611-1.359-1.578.2-1.829.8-1.924S5743.051,7261.261,5743.206,7262.229Z" transform="translate(-5733.34 -7253.856)" fill="#e2f6fc"/>
            </g>
          </g>
          <path id="Trazado_3239-2" data-name="Trazado 3239" d="M5656.69,7396.386a2.306,2.306,0,0,1,.717,1.659,1.02,1.02,0,0,1-.835.911c-1.988.393-8.511,1.613-11.1,1.255a.283.283,0,0,1-.185-.45,9.027,9.027,0,0,1,3.143-2.359l-.21.172a.349.349,0,0,0,.25.618C5650.386,7398.022,5654.354,7397.55,5656.69,7396.386Z" transform="translate(-5645.229 -7323.524)" fill="#03698c"/>
          <path id="Trazado_3240-2" data-name="Trazado 3240" d="M5677.6,7421.69a2.309,2.309,0,0,1,.943,1.542,1.02,1.02,0,0,1-.7,1.02c-1.912.668-8.2,2.8-10.813,2.807a.283.283,0,0,1-.246-.42,9.023,9.023,0,0,1,2.779-2.778l-.184.2a.349.349,0,0,0,.334.578C5671.587,7424.2,5675.447,7423.172,5677.6,7421.69Z" transform="translate(-5661.594 -7342.769)" fill="#03698c"/>
          <path id="Trazado_3241-2" data-name="Trazado 3241" d="M5867.551,7293.245s4.572-.788,5.368-.562c0,0,1.707,3.562-.1,5.27a13.408,13.408,0,0,0-6-4.231Z" transform="translate(-5813.749 -7244.625)" fill="#059b97"/>
          <path id="Trazado_3242-2" data-name="Trazado 3242" d="M5806.026,7143.571a6.779,6.779,0,0,0,1.4,5.118c1.913,2.34,3.638,3.322,6.129.717s1.4-4.641,1.4-4.641a36.151,36.151,0,0,1-1.246-5.121c-.01-1.1-2.376-3.165-4.114-1.647S5806.08,7142.57,5806.026,7143.571Z" transform="translate(-5767.469 -7126.606)" fill="#feb37c"/>
          <path id="Trazado_3243-2" data-name="Trazado 3243" d="M5804.07,7141.63a1.93,1.93,0,0,1,.354-.167,5.122,5.122,0,0,0,2.033-2.09c.754-1.375.853-2.245,1.027-2.259l.281.7s.778-1.9,1.841-1.5a2.957,2.957,0,0,1,1.676,3.138c-.057,1.635,1.221,5.733,2.516,6.25s.882-3.273.882-3.273-.208-6.653-2.671-7.187-5.745.075-6.611,1.137A6.138,6.138,0,0,0,5804.07,7141.63Z" transform="translate(-5765.901 -7124.774)" fill="#21353e"/>
          <path id="Trazado_3244-2" data-name="Trazado 3244" d="M5808.61,7139.163s6.914-1.37,6.146-3.254-1.039-1.437-2.1-1.131S5808.61,7139.163,5808.61,7139.163Z" transform="translate(-5769.483 -7124.356)" fill="#21353e"/>
          <path id="Trazado_3245-2" data-name="Trazado 3245" d="M5767.393,7172.642s5.684,6.766,12.455,9.421l-5,4.695s-4.865-2.673-9.7-10.192Z" transform="translate(-5736.427 -7153.363)" fill="#55bad2"/>
          <path id="Trazado_3246-2" data-name="Trazado 3246" d="M5761.185,7174.075a5.707,5.707,0,0,0,2.79-3.5,4.958,4.958,0,0,1,1.83,1.971s-1.1,2.637-3.144,3.4Z" transform="translate(-5733.416 -7151.793)" fill="#059b97"/>
          <path id="Trazado_3247-2" data-name="Trazado 3247" d="M5720.486,7100.914s0-8.418-1.07-5.495c0,0-1.918-3.26-3.114-3.277-.735-.01-.983,1.971-.7,2.782s1.469,5.239,3.421,7.545Z" transform="translate(-5698.663 -7092.142)" fill="#feb37c"/>
          <ellipse id="Elipse_300-2" data-name="Elipse 300" cx="1.65" cy="1.172" rx="1.65" ry="1.172" transform="translate(46.148 20.396) rotate(-74.388)" fill="#feb37c"/>
        </g>
      </g>
    </g>
    <g id="Grupo_2006" data-name="Grupo 2006" transform="translate(799.165 214.36)">
      <path id="Trazado_3179" data-name="Trazado 3179" d="M5618.513,6943.751c3.333-.63,2.239,3.645,2.239,5.436s-.4,9.209-.4,10.787-.043,2.558,2.771,1.621,11.64-3.753,13.474-4.477,2.259.042,2.345,1.833-1.535,16.968-21.148,16.159S5596.089,6947.992,5618.513,6943.751Z" transform="translate(-5602.383 -6941.985)" fill="#80c6ff"/>
      <path id="Trazado_3180" data-name="Trazado 3180" d="M5686.976,6953.265c.583.693,1.908-.182,3.166-.778s9.438-4.248,11.1-5.208.83-3.022.191-4a12.294,12.294,0,0,0-7.114-5.949c-5.148-1.919-5.372.288-5.42,1.361s-1.952,12.565-2.047,13.254S5686.778,6953.03,5686.976,6953.265Z" transform="translate(-5666.582 -6936.576)" fill="url(#linear-gradient-49)"/>
    </g>
    <g id="Grupo_2006-2" data-name="Grupo 2006" transform="translate(799.165 214.36)">
      <path id="Trazado_3179-2" data-name="Trazado 3179" d="M5618.513,6943.751c3.333-.63,2.239,3.645,2.239,5.436s-.4,9.209-.4,10.787-.043,2.558,2.771,1.621,11.64-3.753,13.474-4.477,2.259.042,2.345,1.833-1.535,16.968-21.148,16.159S5596.089,6947.992,5618.513,6943.751Z" transform="translate(-5602.383 -6941.985)" fill="#80c6ff"/>
      <path id="Trazado_3180-2" data-name="Trazado 3180" d="M5686.976,6953.265c.583.693,1.908-.182,3.166-.778s9.438-4.248,11.1-5.208.83-3.022.191-4a12.294,12.294,0,0,0-7.114-5.949c-5.148-1.919-5.372.288-5.42,1.361s-1.952,12.565-2.047,13.254S5686.778,6953.03,5686.976,6953.265Z" transform="translate(-5666.582 -6936.576)" fill="url(#linear-gradient-49)"/>
    </g>
  </g>
</svg>
