<svg xmlns="http://www.w3.org/2000/svg" viewBox="0 0 156.014 152.396">
  <defs>
    <style>
      .cls-1 {
        fill: #fff;
      }

      .cls-2 {
        fill: #ff7d50;
      }

      .cls-3 {
        fill: #0058c2;
      }

      .cls-4 {
        fill: #1dbaff;
      }

      .cls-5 {
        fill: #f9d008;
      }

      .cls-6 {
        fill: #095696;
      }
    </style>
  </defs>
  <g id="Group_1336" data-name="Group 1336" transform="translate(-223.445 693.215) rotate(-99)">
    <path id="Path_2431" data-name="Path 2431" class="cls-1" d="M483.7,456.4l1.8-.9a.349.349,0,0,1,.2-.1c.4-.2,1.2-.6,2.3-1.2a.806.806,0,0,1,.8,1.4c-.4.2-.7.4-1.1.6a.446.446,0,0,1,0,.5.887.887,0,0,1-1,.6l-1.2-.3Zm6.4,1.1v-.2a.832.832,0,0,1,1-.6c1.3.3,2.6.5,3.9.8a.765.765,0,1,1-.3,1.5c-1.3-.2-2.7-.5-4-.8C490.3,458.2,490.1,457.9,490.1,457.5Zm.9-4.6a.67.67,0,0,1,.4-.7c1.1-.8,2.2-1.6,3.2-2.4a.781.781,0,0,1,1,1.2,28.527,28.527,0,0,1-3.3,2.5c-.4.2-.9.2-1.1-.2A.4.4,0,0,1,491,452.9Zm6.1-5.2a1.421,1.421,0,0,1,.2-.6,31.512,31.512,0,0,0,2.4-3,.791.791,0,1,1,1.3.9,19.2,19.2,0,0,1-2.6,3.2.785.785,0,0,1-1.1,0A.764.764,0,0,1,497.1,447.7Zm.9,11.2v-.2a.961.961,0,0,1,.9-.7c1.3.2,2.7.4,4,.5a.806.806,0,0,1-.2,1.6c-1.3-.1-2.7-.3-4-.5A.684.684,0,0,1,498,458.9Zm3.6-17.8a.756.756,0,0,1,.1-.4,11.422,11.422,0,0,0,.9-2.6c.1-.4.2-.8.3-1.1a.791.791,0,0,1,1.5.5c-.1.4-.2.7-.3,1.1a15.677,15.677,0,0,1-1,2.8.809.809,0,0,1-1.1.4A1.27,1.27,0,0,1,501.6,441.1Zm.1-15.2-.1-1.6a3.62,3.62,0,0,0,2.3-1.4.781.781,0,1,1,1.2,1,5.253,5.253,0,0,1-1.9,1.5.632.632,0,0,1-.8.4Zm2.5,7.6a.6.6,0,0,1,.1-.4,13.279,13.279,0,0,1,2.3-3.5.781.781,0,1,1,1.2,1,11.556,11.556,0,0,0-2,3.2.841.841,0,0,1-1.1.4C504.4,434,504.2,433.8,504.2,433.5Zm1.8,26.3v-.1a.748.748,0,0,1,.9-.7c1.3.1,2.7.1,4,.2a.8.8,0,0,1,0,1.6c-1.3,0-2.7-.1-4-.2C506.3,460.5,506,460.2,506,459.8Zm-.3-34.4v-.1a.882.882,0,0,1,.9-.8c1.6.1,2.9.2,4,.3a.806.806,0,1,1-.2,1.6c-1.1-.1-2.4-.2-4-.3C506.1,426.2,505.7,425.8,505.7,425.4Zm.3-5.1a.9.9,0,0,1,.1-.5c.7-1,1.4-2.1,2.4-3.3a.781.781,0,1,1,1.2,1c-.9,1.2-1.7,2.2-2.3,3.2a.71.71,0,0,1-1.1.2C506.2,420.7,506,420.5,506,420.3Zm3.5,7.3a.909.909,0,0,1,.4-.8,10.391,10.391,0,0,1,3.3-1,4.329,4.329,0,0,0,.5-.1.841.841,0,0,1,1.1.4.7.7,0,0,1-.4,1c-.1,0-.1.1-.2.1a1.483,1.483,0,0,1-.7.1,9.174,9.174,0,0,0-2.9.9.841.841,0,0,1-1.1-.4S509.5,427.7,509.5,427.6ZM514,460h0a.876.876,0,0,1,.8-.9c1.2,0,2.4-.1,3.5-.2h.5a.961.961,0,0,1,.9.7h0a.96.96,0,0,1-.7.9h-.5c-1.2.1-2.4.1-3.6.2A.808.808,0,0,1,514,460Zm-2.9-46a1.072,1.072,0,0,1,.2-.6,38.48,38.48,0,0,1,3-2.7.781.781,0,0,1,1,1.2,35.839,35.839,0,0,0-2.9,2.6.785.785,0,0,1-1.1,0A.764.764,0,0,1,511.1,414Zm6.2-5a.67.67,0,0,1,.4-.7c.2-.2.5-.3.7-.5.9-.6,1.9-1.1,2.8-1.6a.828.828,0,1,1,.7,1.5c-.9.4-1.8,1-2.7,1.5-.2.2-.5.3-.7.5a.885.885,0,0,1-1.1-.2A2.032,2.032,0,0,0,517.3,409Zm4.7,50.4a.773.773,0,0,1,.7-.8c1.3-.2,2.7-.4,3.9-.6a.765.765,0,0,1,.3,1.5c-1.3.2-2.7.5-4,.6a.779.779,0,0,1-.9-.7Zm2.5-54a.76.76,0,0,1,.6-.8c1.3-.4,2.7-.7,4-1a.806.806,0,1,1,.2,1.6,23.4,23.4,0,0,0-3.8.9.825.825,0,0,1-1-.5Zm5.4,52.5a.76.76,0,0,1,.6-.8,24.01,24.01,0,0,0,3.8-1.2.791.791,0,0,1,.5,1.5l-3.9,1.2a.8.8,0,0,1-1-.6S529.9,457.9,529.9,457.9Zm2.5-53.8h0a.817.817,0,0,1,.8-.9c1.4,0,2.7.1,4.1.2.4.1.8.5.7.9s-.5.8-.9.7a25.486,25.486,0,0,0-3.9-.2A.659.659,0,0,1,532.4,404.1Zm5.1,51.1a1.02,1.02,0,0,1,.5-.8,23.134,23.134,0,0,0,3.5-1.8.806.806,0,0,1,.8,1.4c-1.2.7-2.4,1.3-3.6,1.9a.841.841,0,0,1-1.1-.4A.367.367,0,0,1,537.5,455.2Zm2.8-50.1v-.3a.887.887,0,0,1,1-.6,18.948,18.948,0,0,1,4,1.6h0l1.3,1.1a.781.781,0,0,1-1,1.2l-1.4-1.1a15.474,15.474,0,0,0-3.4-1.2C540.6,405.8,540.4,405.5,540.3,405.1Zm4.1,46.1a.908.908,0,0,1,.3-.7,37.625,37.625,0,0,0,3.1-2.5.781.781,0,0,1,1,1.2,40.308,40.308,0,0,1-3.2,2.6.71.71,0,0,1-1.1-.2A.756.756,0,0,0,544.4,451.2Zm6-5.3a1.421,1.421,0,0,1,.2-.6,37.614,37.614,0,0,0,2.5-3.1.791.791,0,1,1,1.3.9,40.314,40.314,0,0,1-2.6,3.2.792.792,0,0,1-1.1.1A.55.55,0,0,1,550.4,445.9Zm-1.9-35.7a.735.735,0,0,1,.2-.6.792.792,0,0,1,1.1-.1l3.1,2.5a.781.781,0,0,1-1,1.2l-3.1-2.5A.55.55,0,0,1,548.5,410.2Zm6.6,29.2a.9.9,0,0,1,.1-.5c.6-1.1,1.2-2.3,1.8-3.5a.828.828,0,0,1,1.5.7,30.4,30.4,0,0,1-1.9,3.6.8.8,0,0,1-1.1.3A.675.675,0,0,1,555.1,439.4Zm-.4-24.1a.735.735,0,0,1,.2-.6.792.792,0,0,1,1.1-.1l3.1,2.5a.781.781,0,0,1-1,1.2l-3.1-2.5A2.185,2.185,0,0,1,554.7,415.3Zm3.7,16.8v-.3c.4-1.2.8-2.5,1.1-3.8a.825.825,0,1,1,1.6.4,29.065,29.065,0,0,1-1.2,3.9.825.825,0,0,1-1,.5A.752.752,0,0,1,558.4,432.1Zm2-7.8v-.2c.2-1.1.4-2.3.6-3.5a1.129,1.129,0,0,1,.1-.8.792.792,0,0,1,1.1-.1l.4.3-.1.4c-.2,1.3-.4,2.7-.6,3.9a.779.779,0,0,1-.9.6C560.7,425,560.5,424.7,560.4,424.3Z"/>
    <path id="Path_2432" data-name="Path 2432" class="cls-2" d="M551.1,412.9s-16.7-6.1-22.5,5.7-8.8,25.1-14.6,27.1c0,0,34.4,5.5,41.5-28.3Z"/>
    <path id="Path_2433" data-name="Path 2433" class="cls-3" d="M562.1,377s-13.3-11.4-18.8-9.2c-5.3,2-32,31.2-34.6,34.1a.3.3,0,0,0,0,.4h0a4.561,4.561,0,0,0,3.8,1.4c6.9-.8,27.3-3.5,33.3-6.3C553,394,562.1,377,562.1,377Z"/>
    <path id="Path_2434" data-name="Path 2434" class="cls-1" d="M519.9,393.1a.367.367,0,0,1,.1-.3c.2-.2,15.1-15.9,21.7-22.4a4.191,4.191,0,0,1,4.5-.9,67.735,67.735,0,0,1,11.3,5.8c.2.1.2.4.1.6s-.4.2-.6.1a63.591,63.591,0,0,0-11.1-5.8,3.4,3.4,0,0,0-3.6.7c-6.7,6.5-21.6,22.2-21.7,22.4a.375.375,0,0,1-.6,0A.349.349,0,0,1,519.9,393.1Z"/>
    <path id="Path_2435" data-name="Path 2435" class="cls-3" d="M589.9,406.7s10.5,14,8,19.4c-2.4,5.1-33.2,29.9-36.2,32.3a.3.3,0,0,1-.4,0h0a4.28,4.28,0,0,1-1.1-3.9c1.3-6.8,5.3-27.1,8.5-32.8C572.4,414.6,589.9,406.7,589.9,406.7Z"/>
    <path id="Path_2436" data-name="Path 2436" class="cls-1" d="M570.7,447.3c0-.1,0-.3.1-.3.2-.1,16.8-14,23.8-20.2a3.469,3.469,0,0,0,1-3.6,61.258,61.258,0,0,0-5-11.5.661.661,0,0,1,.1-.6.44.44,0,0,1,.5.1,63.41,63.41,0,0,1,5.1,11.6,4.062,4.062,0,0,1-1.2,4.4c-6.9,6.2-23.6,20.1-23.8,20.2a.471.471,0,0,1-.6-.1C570.8,447.5,570.7,447.4,570.7,447.3Z"/>
    <path id="Path_2437" data-name="Path 2437" class="cls-4" d="M605.1,337a90.212,90.212,0,0,0-23.4,15.8c-23.7,22-37.2,42.3-40.9,48.2a3.388,3.388,0,0,0-.1,3.5,59.482,59.482,0,0,0,19.6,21.2,5.091,5.091,0,0,0,5.2.2c7.1-3.9,27.4-16,49.9-37.3a88.5,88.5,0,0,0,17.1-22.1C624.8,351.7,612.4,342.1,605.1,337Z"/>
    <path id="Path_2438" data-name="Path 2438" class="cls-5" d="M632.5,366.5A93.6,93.6,0,0,0,643.8,330a1.653,1.653,0,0,0-1.7-1.8,93.887,93.887,0,0,0-37,8.9C612.4,342.1,624.8,351.7,632.5,366.5Z"/>
    <g id="Group_1182" data-name="Group 1182">
      <path id="Path_2439" data-name="Path 2439" class="cls-6" d="M611.2,381.1c-6.1,5.7-16,5.1-22.2-1.5-6.1-6.6-6.2-16.5-.1-22.2s16.1-5.1,22.2,1.5C617.2,365.4,617.3,375.4,611.2,381.1Z"/>
      <ellipse id="Ellipse_76" data-name="Ellipse 76" class="cls-3" cx="12.1" cy="13" rx="12.1" ry="13" transform="matrix(0.73, -0.684, 0.684, 0.73, 582.993, 368.038)"/>
      <path id="Path_2440" data-name="Path 2440" class="cls-1" d="M596.1,361.1a.519.519,0,0,1,.2-.4A10.124,10.124,0,0,1,608,363a10.654,10.654,0,0,1,1.9,2.8.381.381,0,1,1-.7.3,8.518,8.518,0,0,0-1.7-2.5,9.421,9.421,0,0,0-10.8-2.2.365.365,0,0,1-.5-.2C596.1,361.2,596.1,361.2,596.1,361.1Z"/>
    </g>
    <g id="Group_1183" data-name="Group 1183">
      <path id="Path_2441" data-name="Path 2441" class="cls-6" d="M585.1,397.9c-4,3.8-10.6,3.3-14.7-1s-4.1-10.9,0-14.7c4-3.8,10.6-3.3,14.7,1C589.2,387.6,589.2,394.1,585.1,397.9Z"/>
      <path id="Path_2442" data-name="Path 2442" class="cls-3" d="M584.1,396.4c-3.2,3-8.4,2.7-11.7-.8-3.2-3.5-3.3-8.7,0-11.7,3.2-3,8.4-2.7,11.7.8A8.328,8.328,0,0,1,584.1,396.4Z"/>
      <path id="Path_2443" data-name="Path 2443" class="cls-1" d="M575,384.7a.519.519,0,0,1,.2-.4,6.766,6.766,0,0,1,7.9,1.6,12.733,12.733,0,0,1,1.3,1.9.381.381,0,1,1-.7.3,6.447,6.447,0,0,0-1.1-1.6,6.158,6.158,0,0,0-7-1.4.365.365,0,0,1-.5-.2C575.1,384.8,575.1,384.8,575,384.7Z"/>
    </g>
  </g>
</svg>
