<svg xmlns="http://www.w3.org/2000/svg" width="20" height="19.999" viewBox="0 0 20 19.999">
  <g id="Group_1726" data-name="Group 1726" transform="translate(-0.013)">
    <path id="Path_2581" data-name="Path 2581" d="M18.9,10.8l5,5a.477.477,0,0,0,.6.1,10.769,10.769,0,0,0,1.5-.8,6.98,6.98,0,0,1-.2,4.3,6.348,6.348,0,0,0,3.8-7.2A18.036,18.036,0,0,0,34.8.5a.472.472,0,0,0-.5-.5A17.634,17.634,0,0,0,22.6,5.3a6.178,6.178,0,0,0-7.2,3.8,6.952,6.952,0,0,1,4.3-.2,6.269,6.269,0,0,0-.8,1.4A.441.441,0,0,0,18.9,10.8Zm7.5-2.4a1.98,1.98,0,1,1,2.8,0A1.933,1.933,0,0,1,26.4,8.4Z" transform="translate(-14.786 0)" fill="#969696"/>
    <path id="Path_2582" data-name="Path 2582" d="M.313,309.551l2.1-2.1a.989.989,0,0,1,1.4,1.4l-2.1,2.1a.968.968,0,0,1-1.4,0A.964.964,0,0,1,.313,309.551Z" transform="translate(0 -295.152)" fill="#969696"/>
    <path id="Path_2583" data-name="Path 2583" d="M102.25,407.349a.989.989,0,1,1,1.4,1.4l-2.1,2.1a.989.989,0,0,1-1.4-1.4Z" transform="translate(-95.938 -391.149)" fill="#969696"/>
    <path id="Path_2584" data-name="Path 2584" d="M33.947,358.749a.989.989,0,0,1,1.4,1.4l-2.9,2.9a.989.989,0,0,1-1.4-1.4Z" transform="translate(-29.537 -344.448)" fill="#969696"/>
  </g>
</svg>
