<svg id="regla" xmlns="http://www.w3.org/2000/svg" viewBox="0 0 103.35 31"><defs><style>.cls-1{fill:#77bc1f;}.cls-2{fill:#313c3f;}.cls-3{fill:#a0a2a2;}</style></defs><title>Artboard 63</title><path class="cls-1" d="M21.91,1.23C19.48.89,13.1,0,12.5,0s-7,.89-9.42,1.23S0,3.78,0,5.27V18.54a4.27,4.27,0,0,0,1.54,3.65c1.49,1.36,7.85,7.1,8.4,7.68a3.46,3.46,0,0,0,5.12,0c.55-.58,6.91-6.32,8.4-7.68A4.27,4.27,0,0,0,25,18.54V5.27C25,3.78,24.35,1.57,21.91,1.23Zm-1.64,9.71-9.38,9.4s0,0,0,0l-.12.12a.21.21,0,0,1-.31,0l-5.79-5.8a.22.22,0,0,1,0-.31l2.28-2.28a.2.2,0,0,1,.3,0l3.38,3.39,7.1-7.12c.14-.14.32-.19.4-.11l2.28,2.28C20.46,10.61,20.41,10.8,20.27,10.94Z"/><path class="cls-2" d="M31.53,16.05l1.26-1.73a5.43,5.43,0,0,0,4,1.77c1.83,0,2.53-.89,2.53-1.75,0-2.66-7.37-1-7.37-5.66C32,6.57,33.77,5,36.57,5A6.57,6.57,0,0,1,41.3,6.74L40,8.39a5.17,5.17,0,0,0-3.68-1.46c-1.29,0-2.13.65-2.13,1.58,0,2.37,7.37.91,7.37,5.62,0,2.11-1.5,3.93-4.9,3.93A6.92,6.92,0,0,1,31.53,16.05Z"/><path class="cls-2" d="M43.63,17.84V5.17h8.69v2H45.86v3.27h6.32v2H45.86v3.53h6.46v2Z"/><path class="cls-2" d="M54.05,11.51A6.38,6.38,0,0,1,60.7,5a5.68,5.68,0,0,1,5.07,2.83l-1.88,1A3.76,3.76,0,0,0,60.7,6.93a4.33,4.33,0,0,0-4.37,4.58,4.35,4.35,0,0,0,4.37,4.58,3.81,3.81,0,0,0,3.19-1.84l1.9.95a5.79,5.79,0,0,1-5.09,2.86A6.39,6.39,0,0,1,54.05,11.51Z"/><path class="cls-2" d="M67.56,12.82V5.17h2.26v7.59a3.23,3.23,0,1,0,6.45,0V5.17h2.27v7.65c0,3.14-1.81,5.24-5.49,5.24S67.56,16,67.56,12.82Z"/><path class="cls-2" d="M88.47,17.84l-2.79-4.73H83.46v4.73H81.23V5.17H86.8a3.85,3.85,0,0,1,4.16,4,3.56,3.56,0,0,1-3,3.72l3.12,5Zm.21-8.72a2,2,0,0,0-2.16-2H83.46v4h3.06A2,2,0,0,0,88.68,9.12Z"/><path class="cls-2" d="M93.19,17.84V5.17h8.68v2H95.41v3.27h6.32v2H95.41v3.53h6.46v2Z"/><path class="cls-3" d="M31.25,26.66l.6-.82a2.57,2.57,0,0,0,1.9.83c.86,0,1.19-.42,1.19-.82,0-1.27-3.49-.48-3.49-2.69,0-1,.86-1.76,2.19-1.76a3.11,3.11,0,0,1,2.24.84l-.59.79a2.46,2.46,0,0,0-1.75-.7c-.61,0-1,.31-1,.75,0,1.13,3.49.43,3.49,2.67,0,1-.71,1.86-2.32,1.86A3.31,3.31,0,0,1,31.25,26.66Z"/><path class="cls-3" d="M36.6,26.66l.59-.82a2.58,2.58,0,0,0,1.9.83c.87,0,1.2-.42,1.2-.82,0-1.27-3.49-.48-3.49-2.69,0-1,.86-1.76,2.18-1.76a3.12,3.12,0,0,1,2.25.84l-.6.79a2.46,2.46,0,0,0-1.75-.7c-.61,0-1,.31-1,.75,0,1.13,3.49.43,3.49,2.67,0,1-.71,1.86-2.32,1.86A3.31,3.31,0,0,1,36.6,26.66Z"/><path class="cls-3" d="M42.26,27.5v-6h1.05v5.07H46v.93Z"/><path class="cls-3" d="M49.21,27.5v-6h4.11v.92H50.26V24h3v.93h-3v1.67h3.06v.93Z"/><path class="cls-3" d="M58.59,27.5l-3.14-4.29V27.5H54.4v-6h1.08l3.07,4.16V21.5H59.6v6Z"/><path class="cls-3" d="M60.62,24.5a3,3,0,0,1,3.15-3.1,2.68,2.68,0,0,1,2.4,1.34l-.89.47a1.77,1.77,0,0,0-1.51-.88,2.17,2.17,0,0,0,0,4.34,1.8,1.8,0,0,0,1.51-.87l.9.45a2.74,2.74,0,0,1-2.41,1.36A3,3,0,0,1,60.62,24.5Z"/><path class="cls-3" d="M70.45,27.5l-1.33-2.24H68.07V27.5H67v-6h2.64a1.83,1.83,0,0,1,2,1.88,1.69,1.69,0,0,1-1.43,1.76l1.47,2.36Zm.1-4.13a1,1,0,0,0-1-.95H68.07v1.91h1.45A1,1,0,0,0,70.55,23.37Z"/><path class="cls-3" d="M74.24,27.5V25L71.9,21.5h1.21l1.65,2.56,1.65-2.56h1.2L75.29,25V27.5Z"/><path class="cls-3" d="M78.26,27.5v-6h2.65a1.88,1.88,0,1,1,0,3.75h-1.6V27.5Zm3.52-4.12a.94.94,0,0,0-1-1H79.31v1.9h1.45A.93.93,0,0,0,81.78,23.38Z"/><path class="cls-3" d="M85.17,27.5V22.42H83.35V21.5H88v.92H86.22V27.5Z"/><path class="cls-3" d="M88.93,27.5v-6H90v6Z"/><path class="cls-3" d="M91,24.5a3.07,3.07,0,1,1,6.14,0,3.07,3.07,0,1,1-6.14,0Zm5.06,0a2,2,0,1,0-4,0,2,2,0,1,0,4,0Z"/><path class="cls-3" d="M102.33,27.5,99.2,23.21V27.5h-1v-6h1.08l3.07,4.16V21.5h1v6Z"/></svg>