<?xml version="1.0" encoding="utf-8"?>
<!-- Generator: Adobe Illustrator 22.0.1, SVG Export Plug-In . SVG Version: 6.00 Build 0)  -->
<svg version="1.1" id="Layer_1" xmlns="http://www.w3.org/2000/svg" xmlns:xlink="http://www.w3.org/1999/xlink" x="0px" y="0px"
	 viewBox="0 0 90.7 90.7" style="enable-background:new 0 0 90.7 90.7;" xml:space="preserve">
<style type="text/css">
	.st0{fill:#816244;}
	.st1{fill:#D6F3FF;}
	.st2{fill:#B8E5F9;}
	.st3{fill:#265D77;}
	.st4{fill:#FF7247;}
	.st5{fill:#B7E4F8;}
	.st6{fill:#93D6F4;}
	.st7{fill:#333333;}
</style>
<g id="snowman_2" transform="translate(-1.863)">
	<path id="Trazado_2823" class="st0" d="M78.8,44.5h-5.2l-0.9-2.8l1.5-4.5l-4.7-1.6l-2,6l1.6,4.7l-9.6,11.2l3.7,3.2l9.8-11.4h5.9
		V44.5z"/>
	<path id="Trazado_2824" class="st0" d="M35.1,57.6l-9.6-11.2l1.3-3.9l-4.7-1.6L20.8,45l-2.6,0.9L14,41.7l-3.5,3.5l6.3,6.3l5.1-1.7
		l9.4,11L35.1,57.6z"/>
	<path id="Trazado_2825" class="st1" d="M47.3,41.3c-13.7,0-24.7,11.1-24.7,24.7s11.1,24.7,24.7,24.7S72,79.6,72,66
		C72,52.3,60.9,41.3,47.3,41.3z"/>
	<g id="Grupo_1546" transform="translate(25.983 8.259)">
		<path id="Trazado_2827" class="st2" d="M21.3,6.2C11.6,6.2,3.8,14,3.8,23.7s7.8,17.5,17.5,17.5c9.6,0,17.5-7.8,17.5-17.5
			C38.7,14,30.9,6.2,21.3,6.2z"/>
	</g>
	<path id="Trazado_2829" class="st3" d="M66,19.1h-6l-3-12.4H37.4l-3,12.4h-6V24H66V19.1z"/>
	
		<rect id="Rectángulo_830" x="48.3" y="31.9" transform="matrix(0.2747 -0.9615 0.9615 0.2747 0.8206 75.9159)" class="st4" width="4.9" height="11"/>
	<path id="Trazado_2830" class="st5" d="M19.2,22.4l-3.5-3.5l-1.4,1.4L13,18.9l-3.5,3.5l1.4,1.4l-1.4,1.4l3.5,3.5l1.4-1.4l1.4,1.4
		l3.5-3.5l-1.4-1.4L19.2,22.4z"/>
	<g id="Grupo_1547" transform="translate(73.118 2.723)">
		<path id="Trazado_2831" class="st6" d="M13.6,60l-3.5-3.5l-1.4,1.4l-1.4-1.4L3.9,60l1.4,1.4l-1.4,1.4l3.5,3.5l1.4-1.4l1.4,1.4
			l3.5-3.5l-1.4-1.4L13.6,60z"/>
		<path id="Trazado_2832" class="st6" d="M4.7,16.2l1.4-1.4l1.4,1.4l3.5-3.5l-1.4-1.4l1.4-1.4L7.4,6.5L6.1,7.8L4.7,6.5L1.3,10
			l1.4,1.4l-1.4,1.4L4.7,16.2z"/>
	</g>
	<path id="Trazado_2833" class="st5" d="M16.7,71.4l-3.5-3.5l-1.4,1.4l-1.4-1.4L7,71.4l1.4,1.4L7,74.1l3.5,3.5l1.4-1.4l1.4,1.4
		l3.5-3.5l-1.4-1.4L16.7,71.4z"/>
	<rect id="Rectángulo_832" x="39" y="25.9" class="st7" width="4.9" height="4.9"/>
	<rect id="Rectángulo_833" x="50.8" y="25.9" width="4.9" height="4.9"/>
	<g id="Grupo_1548" transform="translate(41.855 48.511)">
		<rect id="Rectángulo_834" x="3" y="4" class="st3" width="4.9" height="4.9"/>
		<rect id="Rectángulo_835" x="3" y="14.2" class="st3" width="4.9" height="4.9"/>
	</g>
</g>
</svg>
