<svg id="Group_532" data-name="Group 532" xmlns="http://www.w3.org/2000/svg" viewBox="0 0 99.06 25.214">
  <defs>
    <style>
      .cls-1 {
        fill: #fff;
      }
    </style>
  </defs>
  <path id="Path_759" data-name="Path 759" class="cls-1" d="M.049,17.461H3.612v2.325a1.977,1.977,0,0,0,2.166,1.874c1.751,0,2.06-1.37,2.06-2.546s-.486-2.741-2.59-4.624S.226,10.459.226,6.41,1.888,0,5.778,0s5.729,1.945,5.729,6.834H7.989V5.216c0-.751-.38-1.857-2.21-1.857S3.365,6.127,4.523,8.2c1.7,3.024,4.085,3.227,6.153,7.117,1.061,2,2.626,9.787-5.048,9.787C2.154,25.109-.41,23.119.049,17.461Z" transform="translate(0.004 0)"/>
  <path id="Path_760" data-name="Path 760" class="cls-1" d="M145.535,2.3H133.6V5.748h4.067V26.922h3.8V5.748h4.067Z" transform="translate(-121.788 -2.097)"/>
  <path id="Path_761" data-name="Path 761" class="cls-1" d="M565.035,2.3H553.1V5.748h4.067V26.922h3.8V5.748h4.067Z" transform="translate(-504.2 -2.097)"/>
  <path id="Path_762" data-name="Path 762" class="cls-1" d="M261.825,26.922h3.828L261.586,2.3h-5.508L252.1,26.922h3.563l.654-4.421h4.818Zm-5-7.754,1.857-12.492,1.945,12.492Z" transform="translate(-229.811 -2.097)"/>
  <path id="Path_763" data-name="Path 763" class="cls-1" d="M696.6,2.3h3.934V21.131c0,1.768.619,2.626,1.927,2.626s2.122-.592,2.122-2.635V2.309h3.554V20.857c0,2.175-.292,6.454-5.57,6.454s-5.968-3.864-5.968-6.366Z" transform="translate(-635.013 -2.097)"/>
  <path id="Path_764" data-name="Path 764" class="cls-1" d="M859.869,7.788c0-4.951-3.8-5.588-5.411-5.588H848.5V26.822h3.819V17.61c5.384.345,6.693-1.574,7.205-3.236S859.869,12.739,859.869,7.788Zm-3.713,4.226c0,2.246-1.865,2.051-1.865,2.051h-1.963V5.719h1.963c1.556,0,1.865,1.308,1.865,2.219Z" transform="translate(-773.484 -2.005)"/>
  <path id="Path_765" data-name="Path 765" class="cls-1" d="M427.626,19.078a4.459,4.459,0,0,0-2.573-4.306c3.032-1.441,2.652-4.659,2.414-8.2S424.346,2.2,422.074,2.2H416V26.822h3.828V16.814l1.317-.009a2.386,2.386,0,0,1,2.608,2.537v5.013a5.6,5.6,0,0,0,.38,2.475h3.978C427.5,26.239,427.626,22.411,427.626,19.078Zm-3.855-7.913c0,.751-.38,2.193-2.59,2.193h-1.326V5.71h1.7c1.034,0,2.228.159,2.228,2.475S423.771,10.413,423.771,11.165Z" transform="translate(-379.221 -2.006)"/>
  <g id="Group_504" data-name="Group 504" transform="translate(87.765 0.203)">
    <path id="Path_766" data-name="Path 766" class="cls-1" d="M994.813,3.326h2.953V5.12a2.714,2.714,0,1,0,5.428,0V2.3h-8.381a.513.513,0,0,0-.513.513A.508.508,0,0,0,994.813,3.326Zm7.532,1.662a1.865,1.865,0,0,1-3.731,0V3.326h3.731Z" transform="translate(-994.158 -2.3)"/>
    <path id="Path_767" data-name="Path 767" class="cls-1" d="M997.08,203.6h0a3.4,3.4,0,0,0,0,6.8h5.3a.513.513,0,0,0,0-1.026h-5.3a2.369,2.369,0,0,1,0-4.739h5.817V203.6Z" transform="translate(-993.703 -185.803)"/>
    <path id="Path_768" data-name="Path 768" class="cls-1" d="M1004.493,77.7a.434.434,0,0,0,.433-.433V73.7H996.2v4.438h.866v-3.4h3.068v2.529a.433.433,0,0,0,.866,0V74.734h3.068v2.529A.421.421,0,0,0,1004.493,77.7Z" transform="translate(-995.89 -67.388)"/>
    <path id="Path_769" data-name="Path 769" class="cls-1" d="M1104.153,228.948l-.707-1.768a.434.434,0,1,0-.8.327l.707,1.768a.429.429,0,0,0,.566.239A.44.44,0,0,0,1104.153,228.948Z" transform="translate(-1092.889 -207.049)"/>
    <path id="Path_770" data-name="Path 770" class="cls-1" d="M993.31,137.943l3.581-3.289v.38a2.438,2.438,0,1,0,4.845,0V132.4h-8.381a.513.513,0,0,0,0,1.026H996.9l-4.2,3.89Zm7.665-4.509V134.9a1.673,1.673,0,1,1-3.324,0v-1.468Z" transform="translate(-992.7 -120.898)"/>
  </g>
</svg>
