<svg xmlns="http://www.w3.org/2000/svg" viewBox="0 0 97.825 31.833">
  <defs>
    <style>
      .cls-1 {
        fill: #fff;
      }
    </style>
  </defs>
  <g id="Group_1017" data-name="Group 1017" transform="translate(0 0.016)">
    <path id="Path_2157" data-name="Path 2157" class="cls-1" d="M8.962,6.5a9.568,9.568,0,0,0-2.656-.863c-.133,0-.266-.066-.4-.066-1.792-.4-2.124-.8-2.124-1.394a1.12,1.12,0,0,1,.73-1,3.947,3.947,0,0,1,3.917.863l.531.4,1.726-2.456-.465-.4A8.032,8.032,0,0,0,6.705.061,5.734,5.734,0,0,0,3.319.526,4.53,4.53,0,0,0,1.593,1.986,3.85,3.85,0,0,0,.929,4.177,3.893,3.893,0,0,0,2.855,7.563a14.959,14.959,0,0,0,3.054,1c1.992.4,2.257.929,2.257,1.461A1.345,1.345,0,0,1,7.3,11.281a2.864,2.864,0,0,1-1.992.133,6.3,6.3,0,0,1-2.855-1.328l-.531-.465L0,11.945l.465.4a9.231,9.231,0,0,0,4.182,1.992,5.719,5.719,0,0,0,1.394.133,5.365,5.365,0,0,0,2.456-.6,4.572,4.572,0,0,0,1.792-1.527,4.235,4.235,0,0,0,.73-2.39A3.913,3.913,0,0,0,8.962,6.5Z" transform="translate(0 0)"/>
    <path id="Path_2158" data-name="Path 2158" class="cls-1" d="M29.786.6H18.5V3.322h4.116V14.01H25.6V3.322h4.182Z" transform="translate(-6.218 -0.207)"/>
    <path id="Path_2159" data-name="Path 2159" class="cls-1" d="M91.486.6H80.2V3.322h4.116V14.01H87.3V3.322h4.182Z" transform="translate(-26.957 -0.207)"/>
    <path id="Path_2160" data-name="Path 2160" class="cls-1" d="M39.2.6l8.7,6.838L39.2,14.01h4.581L49.822,9.43V5.38L43.714.6Z" transform="translate(-13.176 -0.207)"/>
    <path id="Path_2161" data-name="Path 2161" class="cls-1" d="M68.766,14.01h3.386L68.965,9.363a4.348,4.348,0,0,0,2.788-4.249C71.753,1.729,68.965.6,66.84.6H60.6V14.01h2.987V9.762h2.39ZM63.587,3.322h3.187A1.93,1.93,0,0,1,68.9,5.181a1.978,1.978,0,0,1-1.992,1.992H63.587Z" transform="translate(-20.369 -0.207)"/>
    <rect id="Rectangle_498" data-name="Rectangle 498" class="cls-1" width="4.78" height="2.656" transform="translate(64.994 6.634)"/>
    <path id="Path_2162" data-name="Path 2162" class="cls-1" d="M117.663.8V8.9a2.733,2.733,0,0,1-2.921,2.855A2.7,2.7,0,0,1,111.821,8.9V.8H108.9V8.5c0,2.39.664,5.776,5.842,5.776s5.842-3.386,5.842-5.776V.8h-2.921Z" transform="translate(-36.603 -0.274)"/>
    <path id="Path_2163" data-name="Path 2163" class="cls-1" d="M136.378.8H131.2V14.011h2.987V10.094h2.324c3.386,0,5.245-1.792,5.245-4.979S139.1.8,136.378.8Zm.4,6.9h-2.589V3.323h2.456A2,2,0,0,1,138.9,5.447,1.987,1.987,0,0,1,136.777,7.7Z" transform="translate(-44.098 -0.274)"/>
    <g id="Group_1018" data-name="Group 1018" transform="translate(40.997 17.876)">
      <g id="Group_1014" data-name="Group 1014" transform="translate(0 0)">
        <path id="Path_2164" data-name="Path 2164" class="cls-1" d="M157.171,14.342A6.971,6.971,0,1,1,162.15,2.458l-.929.929a5.726,5.726,0,0,0-4.05-1.66,5.643,5.643,0,0,0,0,11.286,5.792,5.792,0,0,0,4.249-1.925l1,.863A6.963,6.963,0,0,1,157.171,14.342Z" transform="translate(-150.2 -0.4)"/>
      </g>
      <path id="Path_2165" data-name="Path 2165" class="cls-1" d="M181.961.6V6.509h-8.033V.6H172.6V14.143h1.328V7.836h8.033v6.307h1.328V.6Z" transform="translate(-157.729 -0.467)"/>
      <g id="Group_1015" data-name="Group 1015" transform="translate(29.609 0.133)">
        <rect id="Rectangle_499" data-name="Rectangle 499" class="cls-1" width="1.328" height="13.477"/>
      </g>
      <g id="Group_1016" data-name="Group 1016" transform="translate(35.186 0.133)">
        <path id="Path_2166" data-name="Path 2166" class="cls-1" d="M212.162,14.077H203.2V.6h1.328V12.749h7.635Z" transform="translate(-203.2 -0.6)"/>
      </g>
      <path id="Path_2167" data-name="Path 2167" class="cls-1" d="M230.926,1.828V.5H221.3V14.043h9.626V12.715h-8.3V8h7.435V6.674h-7.435V1.828Z" transform="translate(-174.098 -0.434)"/>
    </g>
  </g>
</svg>
