<svg xmlns="http://www.w3.org/2000/svg" viewBox="0 0 102.42 95.36"><defs><style>.cls-1{fill:#ec9c62;}.cls-2{fill:#59d8ff;}.cls-3{fill:#00c3f0;}.cls-4{fill:#feb37c;}.cls-5{fill:#150e42;}.cls-6{fill:#d5dced;}.cls-7{fill:#afb9d2;}.cls-8{fill:#fff;}.cls-9{fill:#f5dcb4;}</style></defs><title>Artboard 129</title><g id="menú_desplegable_de_carrito" data-name="menú desplegable de carrito"><path class="cls-1" d="M23.66,40.62v8.15a2.82,2.82,0,0,1-2,2.7L9.29,55.28a5.65,5.65,0,0,0-4,5.4V81.23a7.07,7.07,0,0,0,7.06,7.07H53V40.62Z"/><path class="cls-2" d="M33.55,61.81a19.45,19.45,0,0,1-16.33-9L9.29,55.28a5.65,5.65,0,0,0-4,5.4V81.23a7.07,7.07,0,0,0,7.06,7.07H53V42.38A19.48,19.48,0,0,1,33.55,61.81Z"/><path class="cls-3" d="M53,42.38A19.4,19.4,0,0,1,17.22,52.84l-3.49,1.08A22.92,22.92,0,0,0,53,54.58Z"/><path class="cls-3" d="M35.32,79.47H17.66a1.77,1.77,0,0,1-1.77-1.77V69.3a5.32,5.32,0,0,0-1.55-3.75l-8-8a5.7,5.7,0,0,0-1,3.18V81.23a7.07,7.07,0,0,0,7.06,7.07H40.62V84.76A5.3,5.3,0,0,0,35.32,79.47Z"/><path class="cls-4" d="M48.56,28.25H48.3l-.62-12.36h-28V28.25H18.54a2.65,2.65,0,0,0-2.65,2.65v3.54a2.65,2.65,0,0,0,2.65,2.64h1.68l.28,1.8a5.69,5.69,0,0,0,2,3.45l5.67,4.72a4.2,4.2,0,0,0,2.71,1h5.41a4.2,4.2,0,0,0,2.71-1l5.67-4.72a5.63,5.63,0,0,0,2-3.45l.29-1.8h1.67a2.64,2.64,0,0,0,2.65-2.64V30.9A2.65,2.65,0,0,0,48.56,28.25Z"/><path class="cls-5" d="M54.74,15.54a4.21,4.21,0,0,0-3.13-4.07,4.36,4.36,0,0,0,.31-1.58,4.24,4.24,0,0,0-4.24-4.24,1.9,1.9,0,0,0-.25,0,4.23,4.23,0,0,0-4-2.85,4,4,0,0,0-1.29.22A4.92,4.92,0,0,0,38.5,1.41a4.85,4.85,0,0,0-1.09.13,5.61,5.61,0,0,0-7.72,0,4.84,4.84,0,0,0-1.08-.13,4.94,4.94,0,0,0-3.46,1.42h-.07a4.22,4.22,0,0,0-4,2.85l-.25,0A4.24,4.24,0,0,0,16.6,9.89a4.16,4.16,0,0,0,.31,1.58,4.22,4.22,0,0,0-3.14,4.07,4.27,4.27,0,0,0,1.1,2.83,4.18,4.18,0,0,0,1,6.47,3.53,3.53,0,0,0,3.53,3.41H21a1.4,1.4,0,0,0,1.39-1.18l1-5.91.31,0a4.25,4.25,0,0,0,3.54-1.9,4.23,4.23,0,0,0,7.06,0,4.23,4.23,0,0,0,7.06,0,4.25,4.25,0,0,0,3.53,1.9c.11,0,.21,0,.32,0l1,5.91a1.4,1.4,0,0,0,1.39,1.18h1.9A3.53,3.53,0,0,0,53,24.72s0-.07,0-.1a4.19,4.19,0,0,0,.67-6.25A4.22,4.22,0,0,0,54.74,15.54Z"/><path class="cls-1" d="M30,79.47h5.3a5.3,5.3,0,0,1,5.3,5.29V88.3H30Z"/><path class="cls-6" d="M97.13,75.93h-53a5.29,5.29,0,0,1-5.3-5.29V38.85a5.3,5.3,0,0,1,5.3-5.3h53a5.29,5.29,0,0,1,5.29,5.3V70.64A5.29,5.29,0,0,1,97.13,75.93Z"/><path class="cls-7" d="M81.23,88.3,78.11,64.87a3.54,3.54,0,0,0-3.5-3.06H66.67a3.54,3.54,0,0,0-3.51,3.06L60,88.3v3.53H81.23Z"/><circle class="cls-8" cx="70.64" cy="51.21" r="3.53"/><path class="cls-9" d="M100.66,95.36H1.77A1.77,1.77,0,0,1,0,93.59V90.06A1.76,1.76,0,0,1,1.77,88.3h98.89a1.76,1.76,0,0,1,1.76,1.76v3.53A1.76,1.76,0,0,1,100.66,95.36Z"/></g></svg>