<svg xmlns="http://www.w3.org/2000/svg" xmlns:xlink="http://www.w3.org/1999/xlink" viewBox="0 0 318.047 331.325">
  <defs>
    <style>
      .cls-1 {
        fill: #f9b776;
      }

      .cls-2 {
        fill: #f7c800;
      }

      .cls-3 {
        fill: #ff9700;
      }

      .cls-4 {
        fill: #ffd00d;
      }

      .cls-5 {
        fill: #ffa310;
      }

      .cls-6 {
        fill: #ff0659;
      }

      .cls-7 {
        fill: #ffe6f0;
      }

      .cls-8 {
        fill: #7893b0;
      }

      .cls-9 {
        fill: #095696;
      }

      .cls-10 {
        fill: #0058c2;
      }

      .cls-11 {
        fill: #e8abff;
      }

      .cls-12 {
        fill: url(#linear-gradient);
      }

      .cls-13 {
        fill: url(#linear-gradient-2);
      }

      .cls-14 {
        fill: url(#linear-gradient-3);
      }
    </style>
    <linearGradient id="linear-gradient" x1="-44.622" y1="-72.005" x2="-44.42" y2="-70.819" gradientUnits="objectBoundingBox">
      <stop offset="0" stop-color="#2b3582"/>
      <stop offset="1" stop-color="#150e42"/>
    </linearGradient>
    <linearGradient id="linear-gradient-2" x1="-0.002" y1="0.501" x2="0.999" y2="0.501" xlink:href="#linear-gradient"/>
    <linearGradient id="linear-gradient-3" x1="0" y1="0.5" x2="1" y2="0.5" xlink:href="#linear-gradient"/>
  </defs>
  <g id="Group_1296" data-name="Group 1296" transform="translate(3.445 -0.015) rotate(6)">
    <path id="Path_2597" data-name="Path 2597" class="cls-1" d="M91.807,131.849c.1,1.82-.308,5-3.178,9.78-5.332,8.757-16.61-1.82-17.737-6.255s-5.947-7.506-5.947-7.506l-7.28-5.686,2.666-6.482s7.792,6.937,10.048,8.415,4.819.682,7.485-.91c.718-.455,2.153-.114,3.691.569h0a1.094,1.094,0,0,0,.41.227h0s6.972,2.843,9.33,6.027A2.028,2.028,0,0,1,91.807,131.849Z" transform="translate(184.791 15.93)"/>
    <path id="Path_2598" data-name="Path 2598" class="cls-1" d="M297.443,11.371c.205-1.82,1.128-4.89,4.716-8.984,6.664-7.619,16.1,5.118,16.4,9.666.307,4.663,4.614,8.529,4.614,8.529l6.254,7.051-3.691,5.8s-6.562-8.3-8.612-10.235c-1.948-1.933-4.614-1.592-7.485-.569-.82.341-2.153-.341-3.589-1.251h0a1.277,1.277,0,0,0-.308-.227h0s-6.459-4.208-8.2-7.733A2.868,2.868,0,0,1,297.443,11.371Z" transform="translate(-297.25)"/>
    <g id="Group_1293" data-name="Group 1293" transform="translate(144.036 88.504)">
      <path id="Path_2599" data-name="Path 2599" class="cls-2" d="M137.336,140.25s10.458,12.851,17.327,17.058c0,0-24.812,6.255-40.909-1.251s-19.275-22.631-10.766-27.18C111.4,124.215,122.88,122.509,137.336,140.25Z" transform="translate(-63.618 -71.203)"/>
      <path id="Path_2600" data-name="Path 2600" class="cls-3" d="M148.078,146.281s-14.251-12.4-15.994-14.67-6.152-2.5-9.638.341S119.78,150.6,148.078,146.281Z" transform="translate(-80.204 -70.638)"/>
      <path id="Path_2601" data-name="Path 2601" class="cls-4" d="M73.505,123.177s17.43-12.4,33.424,2.729,23.274,22.858,24.914,23.882c0,0-28.5,9.553-46.035-3.639S68.584,126.475,73.505,123.177Z" transform="translate(-12.296 -72.212)"/>
      <path id="Path_2602" data-name="Path 2602" class="cls-5" d="M126.769,140.029s-8.407-6.368-12-10.349c-3.486-3.867-14.354-11.827-20.2-6.141-5.844,5.572.1,13.533,11.791,17.172S126.769,140.029,126.769,140.029Z" transform="translate(-29.469 -71.778)"/>
      <path id="Path_2603" data-name="Path 2603" class="cls-6" d="M183.2,114.08c3.691,3.3,10.15,8.984,1.538,21.494s-32.6,10.917-32.6,10.917l-36.6-55.5s5.434-13.76,17.84-13.192C145.88,78.371,171.512,103.617,183.2,114.08Z" transform="translate(-115.531 -77.785)"/>
      <path id="Path_2604" data-name="Path 2604" class="cls-7" d="M169.838,124.071S127.288,85.633,119.7,79.151L115.6,77.9l54.033,48.787Z" transform="translate(-96.427 -77.769)"/>
    </g>
    <g id="Group_1294" data-name="Group 1294" transform="translate(22.441 19.445)">
      <path id="Path_2605" data-name="Path 2605" class="cls-8" d="M.05,168.259l4-6.937A4.394,4.394,0,0,1,10,160.184c5.639,3.867,17.532,11.259,26.35,13.988a1.225,1.225,0,0,1,0,2.274C29.886,178.835,15.224,182.929.05,168.259Z" transform="translate(275.849 2.508)"/>
      <path id="Path_2606" data-name="Path 2606" class="cls-1" d="M30.42,172.548l4.2-5.231s4.1-1.478,6.869,5.345l-7.28,7.392L29.6,172.548Z" transform="translate(241.173 3.566)"/>
      <path id="Path_2607" data-name="Path 2607" class="cls-8" d="M12.883,224.711a29.847,29.847,0,0,1,9.023.682A5.108,5.108,0,0,1,25.7,229.6c1.538,7.506,5.024,25.815,3.691,37.187a1.247,1.247,0,0,1-2.358.569c-4.306-7.847-14.149-27.066-17.122-32.411Z" transform="translate(273.167 11.488)"/>
      <path id="Path_2608" data-name="Path 2608" class="cls-1" d="M27.011,221.3l9.33,6.368a6.743,6.743,0,0,1-4.716,8.188l-8.51-5.231Z" transform="translate(252.785 11.033)"/>
      <path id="Path_2609" data-name="Path 2609" class="cls-9" d="M155.208,229.606s-1.743,8.188-6.869,12.4c0,0-98.94-47.877-119.138-67.551L48.373,161.6C48.475,161.6,116.349,207.771,155.208,229.606Z" transform="translate(127.868 2.84)"/>
      <path id="Path_2610" data-name="Path 2610" class="cls-10" d="M168.295,184.421s-1.025-7.506-7.69-10.69c0,0-20.916,12.623-48.188,2.274s-41.729-34.8-55.468-34L34.7,166.339l13.226,10.8,13.431-3.753a10.05,10.05,0,0,1,9.74,2.616C82.273,187.036,116.928,213.534,168.295,184.421Z" transform="translate(109.142 0.108)"/>
      <path id="Path_2611" data-name="Path 2611" class="cls-11" d="M261.384,83.855c-11.073,5.231-44.087,3.98-49.111,1.137C207.249,82.263,143.886,17.1,143.886,17.1a10.778,10.778,0,0,0-5.537,9.1s71.155,76.081,78.024,87.225c9.33,15.125,30.246,52.54,65.823,72.9a4.2,4.2,0,0,0,4.819-.455c5.126-4.208,17.635-15.011,23.479-24a3.5,3.5,0,0,0-.923-4.776c-5.229-3.412-16.815-15.011-27.478-52.881a10,10,0,0,1,1.435-8.529S272.457,78.624,261.384,83.855Z" transform="translate(-138.35 -17.1)"/>
    </g>
    <path id="Path_2612" data-name="Path 2612" class="cls-1" d="M211.33,65.4l5.024,18.423a2.388,2.388,0,0,1-.718,2.274c-2.358,1.82-8.612,5.459-17.225,1.933a2.947,2.947,0,0,1-1.743-2.616l-1.23-16.035Z" transform="translate(-80.363 9.003)"/>
    <path id="Path_2613" data-name="Path 2613" class="cls-1" d="M202.9,38.4s-8.92,16.49-7.177,25.7,14.251,14.784,25.837,6.6l7.28-25.133Z" transform="translate(-92.811 5.268)"/>
    <path id="Path_2614" data-name="Path 2614" class="cls-12" d="M203.849,60.74a.955.955,0,0,1-.41-1.365,25.158,25.158,0,0,0,2.768-7.392s1.948-1.478-5.126-2.957-17.635-3.867-20.1-10.349c-2.358-6.368,2.563-22.745,12-10.349a.773.773,0,0,0,1.333-.114c1.333-2.161,5.024-6.823,10.56-4.435,5.126,2.274,5.844,6.255,5.844,8.3a.9.9,0,0,0,1.025.91c2.563-.682,8.612-1.478,11.688,5.345,2.563,5.572,1.23,8.87-.1,10.576a1.037,1.037,0,0,0,.41,1.592c1.64.455,3.9,1.933,3.9,6.255,0,6.027-6.152,5.8-7.792,5.572a.891.891,0,0,0-.718.341c-1.435,1.933-7.69,9.894-14.867,11.145a.921.921,0,0,1-.923-1.251L206,62.332a.965.965,0,0,0-.513-1.137Z" transform="translate(-76.156 3.171)"/>
    <path id="Path_2615" data-name="Path 2615" class="cls-13" d="M225.347,78.589s-11.176,9.894,11.586,51.516c0,0-29.016-29.682-19.993-53.222C216.939,76.884,222.066,74.5,225.347,78.589Z" transform="translate(-121.038 10.493)"/>
    <path id="Path_2616" data-name="Path 2616" class="cls-14" d="M197.183,122.873l-5.947-5.686s-22.966-6.482-33.424-20.47-8.92-20.129-5.331-21.494c0,0-21.531-3.867-2.871,23.2A55.228,55.228,0,0,0,197.183,122.873Z" transform="translate(-6.52 10.333)"/>
    <path id="Path_2617" data-name="Path 2617" class="cls-11" d="M79.4,76.233s14.867-11.941,49.316,7.733a369.783,369.783,0,0,1,60.8,44.124l-3.178,8.188S87.7,75.323,102.571,105.119Z" transform="translate(65.086 10.006)"/>
  </g>
</svg>
