<svg xmlns="http://www.w3.org/2000/svg" xmlns:xlink="http://www.w3.org/1999/xlink" viewBox="0 0 394.24 382.327">
  <defs>
    <style>
      .cls-1 {
        fill: url(#linear-gradient);
      }

      .cls-2 {
        fill: url(#linear-gradient-2);
      }

      .cls-11, .cls-3, .cls-6, .cls-7 {
        fill: #fff;
      }

      .cls-3 {
        opacity: 0.65;
      }

      .cls-4 {
        fill: #4aa9fc;
      }

      .cls-5 {
        fill: none;
      }

      .cls-5, .cls-8 {
        stroke: #fff;
        stroke-miterlimit: 10;
        stroke-width: 0.36px;
      }

      .cls-6 {
        opacity: 0.87;
      }

      .cls-7 {
        opacity: 0.69;
      }

      .cls-8 {
        fill: url(#linear-gradient-3);
      }

      .cls-9 {
        fill: #ed497c;
      }

      .cls-10 {
        fill: #afb1e2;
      }

      .cls-12 {
        fill: #00aeef;
      }

      .cls-13 {
        fill: url(#linear-gradient-4);
      }

      .cls-14 {
        fill: url(#linear-gradient-5);
      }

      .cls-15 {
        fill: url(#linear-gradient-6);
      }

      .cls-16 {
        fill: url(#linear-gradient-7);
      }

      .cls-17 {
        fill: #feb37c;
      }

      .cls-18 {
        fill: url(#linear-gradient-8);
      }

      .cls-19 {
        fill: url(#linear-gradient-9);
      }

      .cls-20 {
        fill: #b59302;
      }

      .cls-21 {
        fill: #f8d116;
      }
    </style>
    <linearGradient id="linear-gradient" x1="44.621" y1="49.164" x2="44.626" y2="49.166" gradientUnits="objectBoundingBox">
      <stop offset="0" stop-color="#2b3582"/>
      <stop offset="1" stop-color="#150e42"/>
    </linearGradient>
    <linearGradient id="linear-gradient-2" x1="52.445" y1="59.611" x2="52.435" y2="59.603" gradientUnits="objectBoundingBox">
      <stop offset="0" stop-color="#b37cff"/>
      <stop offset="1" stop-color="#f895e7"/>
    </linearGradient>
    <linearGradient id="linear-gradient-3" x1="891.443" y1="1634.776" x2="891.766" y2="1635.029" xlink:href="#linear-gradient-2"/>
    <linearGradient id="linear-gradient-4" x1="155.925" y1="547.612" x2="155.943" y2="547.612" gradientUnits="objectBoundingBox">
      <stop offset="0" stop-color="#53d8ff"/>
      <stop offset="1" stop-color="#3840f7"/>
    </linearGradient>
    <linearGradient id="linear-gradient-5" x1="236.428" y1="959.143" x2="236.366" y2="958.824" xlink:href="#linear-gradient-4"/>
    <linearGradient id="linear-gradient-6" x1="861.873" y1="2339.759" x2="861.352" y2="2338.645" gradientUnits="objectBoundingBox">
      <stop offset="0" stop-color="#fdf53f"/>
      <stop offset="1" stop-color="#d93c65"/>
    </linearGradient>
    <linearGradient id="linear-gradient-7" x1="1246.518" y1="5560.575" x2="1245.711" y2="5557.509" xlink:href="#linear-gradient-4"/>
    <linearGradient id="linear-gradient-8" x1="1.597" y1="3.101" x2="-0.382" y2="-1.442" gradientUnits="objectBoundingBox">
      <stop offset="0" stop-color="#7c27dd"/>
      <stop offset="1" stop-color="#2b41d9"/>
    </linearGradient>
    <linearGradient id="linear-gradient-9" x1="241.05" y1="290.829" x2="241.073" y2="290.829" xlink:href="#linear-gradient"/>
  </defs>
  <g id="Group_1348" data-name="Group 1348" transform="translate(19562.973 5768.873) rotate(22)">
    <g id="Group_1192" data-name="Group 1192" transform="translate(-20187.475 1962.05)">
      <g id="Group_1189" data-name="Group 1189" transform="translate(0 0)">
        <path id="Path_2527" data-name="Path 2527" class="cls-1" d="M46.74,63.346a14.253,14.253,0,0,0-11.016,15.8c5.986,44.847,26.556,199.469,36.806,253.869a11.172,11.172,0,0,0,12.182,8.962c28.749-3.568,111.377-14.1,157.911-23.459a18.76,18.76,0,0,0,14.9-20.883c-6.422-46.987-25.007-179.247-39.608-238.9A15.192,15.192,0,0,0,202.25,47.161C170.716,48.937,86.766,54.4,46.74,63.346Z" transform="translate(-35.597 -47.134)"/>
        <path id="Path_2528" data-name="Path 2528" class="cls-2" d="M43.662,84.627c4.229,36.806,18.36,159.286,27.026,204.045a12.826,12.826,0,0,0,13.922,10.355c27.287-2.715,97.211-10.076,136.4-19.543a14.409,14.409,0,0,0,10.981-15.662c-3.811-37.624-15.871-151.838-24.364-196.2A14.444,14.444,0,0,0,192.663,56.07C162.992,58.054,86.8,63.553,53.443,70.775a12.808,12.808,0,0,0-9.78,13.852Z" transform="translate(-29.683 -40.537)"/>
        <path id="Path_2529" data-name="Path 2529" class="cls-3" d="M117.181,216.934a12.338,12.338,0,1,1,10.285-14.079,12.338,12.338,0,0,1-10.285,14.079Zm-3.689-23.406a6.785,6.785,0,1,0,.174-.087Z" transform="translate(14.249 60.403)"/>
      </g>
      <path id="Path_2530" data-name="Path 2530" class="cls-4" d="M47.749,87.1c4.316,18.1,15.767,69.489,22.275,98.481,1.427,6.161,2.506,11.312,3.324,14.984a5.934,5.934,0,0,0,6.735,4.612L203,187.36a6.039,6.039,0,0,0,5.221-6.561L196.628,68.779a6.143,6.143,0,0,0-6.735-5.395L52.831,79.795a6,6,0,0,0-5.221,6.7C47.662,86.7,47.7,86.93,47.749,87.1Z" transform="translate(-26.738 -35.13)"/>
      <path id="Path_2531" data-name="Path 2531" class="cls-5" d="M126.741,173.759a15.889,15.889,0,0,1-13.191,18.168h0c-8.7,1.34-18.273-3.881-19.613-12.617s6.074-17.577,14.723-18.917a15.923,15.923,0,0,1,18.081,13.365Z" transform="translate(7.474 36.578)"/>
      <path id="Path_2532" data-name="Path 2532" class="cls-6" d="M105.437,182.515h0a2.141,2.141,0,0,1-2.367-1.6L99.59,167.932a2.071,2.071,0,0,1,1.5-2.541h.4l1.462-.087a2.071,2.071,0,0,1,2.245,1.74l2.036,13.156a2.071,2.071,0,0,1-1.792,2.315Z" transform="translate(11.723 40.335)"/>
      <path id="Path_2533" data-name="Path 2533" class="cls-6" d="M104.088,167.037l2.123,13.365a2.193,2.193,0,0,0,2.436,1.74h.3a2.019,2.019,0,0,0,1.74-2.262h0l-1.514-13.574a2.175,2.175,0,0,0-2.419-1.88l-.783.174a2.175,2.175,0,0,0-1.88,2.436Z" transform="translate(15.091 39.68)"/>
      <g id="Group_1190" data-name="Group 1190" transform="translate(142.112 194.887)">
        <path id="Path_2534" data-name="Path 2534" class="cls-5" d="M142.5,169.352a12.182,12.182,0,0,1-10.146,13.922h0c-6.6,1.062-13.922-2.976-14.966-9.554s4.612-13.365,11.207-14.427a12.06,12.06,0,0,1,13.922,9.919Z" transform="translate(-117.258 -159.122)"/>
        <path id="Path_2535" data-name="Path 2535" class="cls-6" d="M121.544,164.348l1.618,10.7a1.74,1.74,0,0,0,1.914,1.427h.3a1.74,1.74,0,0,0,1.427-1.9h0l-1.34-10.755a1.74,1.74,0,0,0-1.827-1.444h0l-.7.087A1.74,1.74,0,0,0,121.544,164.348Z" transform="translate(-114.092 -156.711)"/>
        <path id="Path_2536" data-name="Path 2536" class="cls-6" d="M125.237,163.2,126.4,174.5a.9.9,0,0,0,.975.835.888.888,0,0,0,.7-.4l4.577-6.439a.9.9,0,0,0-.122-1.183l-5.743-4.855A.9.9,0,0,0,125.237,163.2Z" transform="translate(-111.364 -156.853)"/>
      </g>
      <g id="Group_1191" data-name="Group 1191" transform="translate(69.925 206.352)">
        <path id="Path_2537" data-name="Path 2537" class="cls-5" d="M75.921,179.684A12.182,12.182,0,0,0,89.843,189.83c6.6-1.062,12.356-7.065,11.294-13.748s-8.475-11.294-15.053-10.215A12.025,12.025,0,0,0,75.9,179.493,1.034,1.034,0,0,0,75.921,179.684Z" transform="translate(-75.778 -165.71)"/>
        <path id="Path_2538" data-name="Path 2538" class="cls-6" d="M86.85,169.86l1.636,10.72a1.74,1.74,0,0,1-1.34,1.9h-.3a1.74,1.74,0,0,1-1.914-1.34L82.9,170.469a1.74,1.74,0,0,1,1.375-1.984h.7a1.74,1.74,0,0,1,1.9,1.34Z" transform="translate(-70.522 -163.664)"/>
        <path id="Path_2539" data-name="Path 2539" class="cls-6" d="M83.838,169.912l2.349,11.1a.957.957,0,0,1-.783,1.1.992.992,0,0,1-.7-.157l-6.23-4.751a.888.888,0,0,1-.209-1.183l3.985-6.335a.853.853,0,0,1,1.149-.365.835.835,0,0,1,.435.592Z" transform="translate(-74.037 -163.108)"/>
      </g>
      <path id="Path_2540" data-name="Path 2540" class="cls-7" d="M60.009,167.8l.383,1.392a2.436,2.436,0,0,0,2.8,1.845L197.82,149.906a2.541,2.541,0,0,0,2.141-2.871h0a2.523,2.523,0,0,0-2.854-2.123L62.184,164.646a2.558,2.558,0,0,0-2.175,2.854Z" transform="translate(-17.541 25.226)"/>
      <path id="Path_2541" data-name="Path 2541" class="cls-6" d="M146.485,153.051c-.383-1.305-.8-2.506-1.183-3.811L62.1,161.422a2.541,2.541,0,0,0-2.088,2.871v.278l.383,1.392a2.436,2.436,0,0,0,2.8,1.845l83.724-13.156A7.538,7.538,0,0,0,146.485,153.051Z" transform="translate(-17.543 28.45)"/>
      <path id="Path_2542" data-name="Path 2542" class="cls-8" d="M116.192,150.988a4.577,4.577,0,1,1-4.09-2.976h0a4.559,4.559,0,0,1,4.09,2.976Z" transform="translate(17.501 27.538)"/>
    </g>
    <g id="Group_1193" data-name="Group 1193" transform="translate(-20145.742 1880)">
      <path id="Path_2543" data-name="Path 2543" class="cls-9" d="M118.943,182.307,60.07,53.615a5.5,5.5,0,0,1,2.68-7.257c9.641-4.368,35.24-13.278,89.589-17.3l52.208,124.272Z" transform="translate(-59.576 21.535)"/>
      <path id="Path_2544" data-name="Path 2544" class="cls-10" d="M125.14,181.348,62.874,44.946A4.264,4.264,0,0,1,65.1,39.308l.191-.087c13.713-5.134,58.107-20,84.855-8.284l52.1,124.272Z" transform="translate(-57.403 19.676)"/>
      <path id="Path_2545" data-name="Path 2545" class="cls-11" d="M127.98,176.591a3.759,3.759,0,0,1-4.612-2L64.582,45.323a4.055,4.055,0,0,1,2.036-5.36l.191-.087C79.7,35,120.966,21.238,146.861,31.471a4.351,4.351,0,0,1,2.123,2.019l48.275,115.466a3.707,3.707,0,0,1-1.949,4.855l-.3.1Z" transform="translate(-56.135 20.586)"/>
      <path id="Path_2546" data-name="Path 2546" class="cls-12" d="M69.428,46.431l34.109,73.613a5.76,5.76,0,0,0,7.326,3.115l51.686-18.029a5.8,5.8,0,0,0,3.6-7.361l-.1-.313L141,34.893a5.882,5.882,0,0,0-4.838-3.6c-9.954-.94-38.947-2.419-63.485,7.326A5.778,5.778,0,0,0,69.2,45.979C69.271,46.083,69.341,46.257,69.428,46.431Z" transform="translate(-52.698 22.681)"/>
      <path id="Path_2547" data-name="Path 2547" class="cls-13" d="M93.3,101.336l1.1,1.74a2.767,2.767,0,0,0,3.272,1.236l54.94-18.673a2.784,2.784,0,0,0,1.74-3.481,3.129,3.129,0,0,0-.139-.365l-1.27-2.489a2.7,2.7,0,0,0-3.376-1.34L94.8,97.3a2.8,2.8,0,0,0-1.74,3.481,2.14,2.14,0,0,0,.244.557Z" transform="translate(-34.889 57.608)"/>
      <path id="Path_2548" data-name="Path 2548" class="cls-10" d="M96.814,108.449l1.166,2.558a2.784,2.784,0,0,0,3.481,1.479l52.956-20.361a2.767,2.767,0,0,0,1.636-3.481,2.871,2.871,0,0,1-.122-.278h-.1a2.819,2.819,0,0,0-3.341-1.444l-53.948,17.8A2.784,2.784,0,0,0,96.8,108.2,2.326,2.326,0,0,0,96.814,108.449Z" transform="translate(-32.122 64.278)"/>
      <path id="Path_2549" data-name="Path 2549" class="cls-10" d="M100.288,118.18l1.131,2.175a1.914,1.914,0,0,0,2.454.922l56.089-20.761a1.932,1.932,0,0,0,1.149-2.489,1.74,1.74,0,0,0-.244-.47l-2.367-3.6a1.984,1.984,0,0,0-2.384-.714L101.663,114.63a2.454,2.454,0,0,0-1.584,3.08,2.767,2.767,0,0,0,.209.47Z" transform="translate(-29.68 68.938)"/>
      <path id="Path_2550" data-name="Path 2550" class="cls-9" d="M114.43,46.823S142.64,6.8,195.7,3.316A7.2,7.2,0,0,1,202.9,8l49.563,134.574-88.753,29.915Z" transform="translate(-18.97 2.468)"/>
      <path id="Path_2551" data-name="Path 2551" class="cls-10" d="M193.524,5.4l54.331,141.6-82.871,27.983L112.88,50.7s30.507-40.583,71-50.468A8.11,8.11,0,0,1,193.524,5.4Z" transform="translate(-20.118 0.014)"/>
      <path id="Path_2552" data-name="Path 2552" class="cls-11" d="M192.187,6.816l51.024,133.147a4.159,4.159,0,0,1-2.4,5.395H240.6l-72.273,24.364a4.438,4.438,0,0,1-5.534-2.384L113.91,50.74s29.584-39.365,68.862-48.727a7.918,7.918,0,0,1,9.415,4.8Z" transform="translate(-19.355 1.317)"/>
      <path id="Path_2553" data-name="Path 2553" class="cls-12" d="M124.763,40.341a9.554,9.554,0,0,0-3.2,11.677c7.448,17,26.226,59.656,32.508,73.439a5.221,5.221,0,0,0,6.526,2.663l52.834-19.926a5.986,5.986,0,0,0,3.481-7.675h0L183.149,11.053a5.847,5.847,0,0,0-7.187-3.481C167.3,10.409,137.833,30.979,124.763,40.341Z" transform="translate(-14.303 5.434)"/>
      <path id="Path_2554" data-name="Path 2554" class="cls-10" d="M145.076,90.977,203.81,71.155a2.75,2.75,0,0,1,3.481,1.636h0a2.767,2.767,0,0,1-1.653,3.481l-58.89,19.839a2.75,2.75,0,0,1-3.481-1.636h0A2.784,2.784,0,0,1,145.076,90.977Z" transform="translate(2.278 52.583)"/>
      <path id="Path_2555" data-name="Path 2555" class="cls-10" d="M145.554,100.387l.644,1.531a2.75,2.75,0,0,0,3.324,1.618l58.716-19.613a2.7,2.7,0,0,0,1.74-3.481h0a2.732,2.732,0,0,0-3.324-1.636l-59.36,18.1a2.715,2.715,0,0,0-1.74,3.481Z" transform="translate(3.958 58.278)"/>
    </g>
    <g id="Group_1196" data-name="Group 1196" transform="translate(-20170.395 1936.704)">
      <g id="Group_1194" data-name="Group 1194" transform="translate(139.956 0)">
        <path id="Path_2558" data-name="Path 2558" class="cls-14" d="M126.122,42.181l37.346-9.241,2.21,6.074-35.936,9.363a4.646,4.646,0,0,1-3.62-6.2Z" transform="translate(-125.835 -32.296)"/>
        <path id="Path_2559" data-name="Path 2559" class="cls-15" d="M147.579,33.13c-1.41,3.063,2.193,6.074,2.193,6.074l6.961-3.9a10.336,10.336,0,0,1-.383-2.645Z" transform="translate(-109.981 -32.503)"/>
        <path id="Path_2560" data-name="Path 2560" class="cls-16" d="M152.49,32.831a19.367,19.367,0,0,0,.383,2.645l5.221-2.906Z" transform="translate(-106.103 -32.57)"/>
      </g>
      <path id="Path_2561" data-name="Path 2561" class="cls-17" d="M63.671,123.85a49.858,49.858,0,0,1-12.791,7.379,102.953,102.953,0,0,0,19.6,21.544l2.071,6.265,9.606-9.38S67.552,140.348,63.671,123.85Z" transform="translate(-41.365 35.001)"/>
      <path id="Path_107" data-name="Path 107" class="cls-18" d="M69.045,150.513l39.069-5.656c-.418-2.419-.679-3.655-.679-3.655l-37.311-4s-4.664,6.126-7.344,10.6A6.039,6.039,0,0,0,69.045,150.513Z" transform="translate(-32.556 44.883)"/>
      <path id="Path_2568" data-name="Path 2568" class="cls-17" d="M143.456,86.513a86.665,86.665,0,0,0,5.6-39.835L142.638,46A103.754,103.754,0,0,1,128.89,75.584C133.362,77.1,139.819,80.318,143.456,86.513Z" transform="translate(16.382 -22.628)"/>
      <path id="Path_2569" data-name="Path 2569" class="cls-17" d="M140.234,58.539s-8.405-13.7-4.542-19.961,14.67-4.42,14.67-4.42l.957,5.325a6.317,6.317,0,0,1-.592,4.142l-7.657,15.227Z" transform="translate(20.666 -31.582)"/>
      <path id="Path_2570" data-name="Path 2570" class="cls-17" d="M80.7,67,76,89.31s12.321,5.221,22.241-.365L93.925,67.766Z" transform="translate(-22.77 -7.083)"/>
      <g id="Group_1195" data-name="Group 1195" transform="translate(49.398 24.004)">
        <path id="Path_2571" data-name="Path 2571" class="cls-17" d="M96.338,53.567C96.582,53.9,106.571,80,106.571,80L91.552,85.344,78.5,62.06C78.4,62.042,91.726,48.26,96.338,53.567Z" transform="translate(-70.317 -41.93)"/>
        <path id="Path_2572" data-name="Path 2572" class="cls-19" d="M88.072,67.763a2.4,2.4,0,0,0,0,2.019l5.865,12.652a1.6,1.6,0,0,0,.313.522c.731.87,3.481,3.481,5.969.574a19.143,19.143,0,0,1,6.265-5.447,2.315,2.315,0,0,1,2.976,1.288,91.386,91.386,0,0,1,3.655,12.043,2.28,2.28,0,0,1-1.636,2.663,59.587,59.587,0,0,1-14.1,2.489A2.123,2.123,0,0,1,95.346,95.4c-1.845-3.237-7.083-12.182-8.962-14.531s-5.412-1.74-7.083-1.5a2.4,2.4,0,0,1-1.74-.452,5.064,5.064,0,0,1-1.079-7.831,2.3,2.3,0,0,0-.418-3.132,5.047,5.047,0,0,1-1.149-7.379,7.2,7.2,0,0,1,8.11-2.958,2.367,2.367,0,0,0,2.663-1.166,1.34,1.34,0,0,1,1.27-.766,2.21,2.21,0,0,0,2.071-2.315h0a5.882,5.882,0,0,1,3.985-6.335c6.526-2.715,11.329,3.341,12.182,8.179S98.861,62.56,94.424,62.7C91.169,62.716,89.064,65.97,88.072,67.763Z" transform="translate(-73.798 -46.363)"/>
        <path id="Path_2573" data-name="Path 2573" class="cls-17" d="M86.579,72.471S84.7,64.135,81.149,64.1s-6.683,3.08-2.7,7.483C83.255,76.978,86.579,72.471,86.579,72.471Z" transform="translate(-71.73 -33.233)"/>
      </g>
      <path id="Path_2574" data-name="Path 2574" class="cls-20" d="M62.132,117.638c-3.289-13.139,0-28.227,0-28.418l1.305.3c0,.174-3.306,14.984,0,27.74Z" transform="translate(-34.118 9.366)"/>
      <path id="Path_108" data-name="Path 108" class="cls-21" d="M190.685,63c-8.893,13.122-22.832,25.912-43.507,27.583-18.951,1.5-52.869,2.3-66.443,2.558a16.62,16.62,0,0,0-11.016,4.49c-11.8,10.981-38.547,41.94-14.775,78.486a55.1,55.1,0,0,0,12.791-7.379c-2.106-8.858-1.218-19.682,6.561-32.4.122,1.079.261,2.158.487,3.254a190.193,190.193,0,0,1,3.185,56.837,1.74,1.74,0,0,0,.9,1.74c5.012,2.645,12.391,4,19.648,4.681l23.6-3.341c-.209-26.748,22.623-67.07,28.54-77.3a7.292,7.292,0,0,1,3.916-3.185c29.584-9.8,43.889-28.088,50.781-45.247C201.614,67.734,195.157,64.514,190.685,63Z" transform="translate(-45.413 -10.044)"/>
    </g>
  </g>
</svg>
