<?xml version="1.0" encoding="utf-8"?>
<!-- Generator: Adobe Illustrator 23.0.0, SVG Export Plug-In . SVG Version: 6.00 Build 0)  -->
<svg version="1.1" id="Layer_1" xmlns="http://www.w3.org/2000/svg" xmlns:xlink="http://www.w3.org/1999/xlink" x="0px" y="0px"
	 viewBox="0 0 1920 55" style="enable-background:new 0 0 1920 55;" xml:space="preserve">
<style type="text/css">
	.st0{fill:#0FA3F4;}
	.st1{fill:#FFFFFF;}
	.st2{enable-background:new    ;}
</style>
<title>Cuenta_Congelada_Cintillos_WEB</title>
<rect id="Rectángulo_575" class="st0" width="1920" height="55"/>
<path id="Rectángulo_171-2" class="st1" d="M1121,11.9h112c9.4,0,17,7.6,17,17l0,0c0,9.4-7.6,17-17,17l0,0h-112
	c-9.4,0-17-7.6-17-17l0,0C1104,19.5,1111.6,11.9,1121,11.9L1121,11.9z"/>
<g class="st2">
	<path class="st1" d="M680.6,24.7h-3.8v10.9h-2.7V24.7h-3.8v-2.2h10.3V24.7z"/>
</g>
<g class="st2">
	<path class="st1" d="M688.7,26.3v9.3h-1.5c-0.3,0-0.5-0.1-0.6-0.4l-0.2-0.6c-0.2,0.2-0.4,0.3-0.6,0.5c-0.2,0.2-0.4,0.3-0.6,0.4
		c-0.2,0.1-0.5,0.2-0.7,0.3c-0.3,0.1-0.5,0.1-0.9,0.1c-0.5,0-1-0.1-1.3-0.3s-0.7-0.4-1-0.7c-0.3-0.3-0.5-0.7-0.6-1.1
		c-0.1-0.4-0.2-0.9-0.2-1.4v-5.9h2.5v5.9c0,0.5,0.1,0.9,0.4,1.2c0.2,0.3,0.6,0.4,1.1,0.4c0.3,0,0.7-0.1,1-0.2s0.6-0.4,0.9-0.6v-6.7
		H688.7z"/>
	<path class="st1" d="M701.7,28.4c-0.1,0.1-0.1,0.2-0.2,0.2s-0.2,0.1-0.3,0.1c-0.1,0-0.2,0-0.3-0.1c-0.1-0.1-0.2-0.1-0.4-0.2
		s-0.3-0.2-0.5-0.2c-0.2-0.1-0.4-0.1-0.7-0.1c-0.4,0-0.7,0.1-1,0.2c-0.3,0.1-0.5,0.3-0.7,0.6c-0.2,0.3-0.3,0.6-0.4,0.9
		c-0.1,0.4-0.1,0.8-0.1,1.2c0,0.9,0.2,1.7,0.6,2.2s0.9,0.8,1.6,0.8c0.2,0,0.4,0,0.6-0.1s0.3-0.1,0.4-0.1c0.1-0.1,0.2-0.1,0.3-0.2
		c0.1-0.1,0.2-0.1,0.3-0.2c0.1-0.1,0.2-0.1,0.2-0.1c0.1,0,0.2-0.1,0.3-0.1c0.2,0,0.3,0.1,0.4,0.2l0.7,0.9c-0.3,0.3-0.5,0.6-0.8,0.8
		c-0.3,0.2-0.6,0.4-0.9,0.5s-0.6,0.2-1,0.2s-0.7,0.1-1,0.1c-0.6,0-1.1-0.1-1.6-0.3c-0.5-0.2-1-0.5-1.3-0.9c-0.4-0.4-0.7-0.9-0.9-1.5
		s-0.3-1.3-0.3-2c0-0.7,0.1-1.3,0.3-1.9c0.2-0.6,0.5-1.1,0.9-1.5s0.9-0.8,1.4-1c0.6-0.2,1.2-0.4,2-0.4c0.7,0,1.3,0.1,1.9,0.3
		c0.5,0.2,1,0.6,1.4,1L701.7,28.4z"/>
	<path class="st1" d="M711.8,26.3v9.3h-1.5c-0.3,0-0.5-0.1-0.6-0.4l-0.2-0.6c-0.2,0.2-0.4,0.3-0.6,0.5c-0.2,0.2-0.4,0.3-0.6,0.4
		c-0.2,0.1-0.5,0.2-0.7,0.3c-0.3,0.1-0.5,0.1-0.9,0.1c-0.5,0-1-0.1-1.3-0.3s-0.7-0.4-1-0.7c-0.3-0.3-0.5-0.7-0.6-1.1
		c-0.1-0.4-0.2-0.9-0.2-1.4v-5.9h2.5v5.9c0,0.5,0.1,0.9,0.4,1.2c0.2,0.3,0.6,0.4,1.1,0.4c0.3,0,0.7-0.1,1-0.2s0.6-0.4,0.9-0.6v-6.7
		H711.8z"/>
	<path class="st1" d="M715.9,31.3c0.1,0.9,0.3,1.5,0.7,1.9c0.4,0.4,1,0.6,1.6,0.6c0.3,0,0.6,0,0.9-0.1s0.5-0.2,0.7-0.3
		c0.2-0.1,0.4-0.2,0.5-0.3s0.3-0.1,0.5-0.1c0.2,0,0.3,0.1,0.4,0.2l0.7,0.9c-0.3,0.3-0.6,0.6-0.9,0.8s-0.6,0.4-1,0.5
		c-0.3,0.1-0.7,0.2-1,0.2c-0.3,0-0.7,0.1-1,0.1c-0.6,0-1.3-0.1-1.8-0.3s-1-0.5-1.5-0.9s-0.7-0.9-1-1.6c-0.2-0.6-0.4-1.3-0.4-2.2
		c0-0.6,0.1-1.2,0.3-1.8c0.2-0.6,0.5-1,0.9-1.5s0.9-0.7,1.4-1c0.6-0.2,1.2-0.4,1.9-0.4c0.6,0,1.1,0.1,1.6,0.3
		c0.5,0.2,0.9,0.5,1.3,0.8c0.4,0.4,0.6,0.8,0.8,1.3c0.2,0.5,0.3,1.1,0.3,1.8c0,0.2,0,0.3,0,0.5c0,0.1,0,0.2-0.1,0.3
		c0,0.1-0.1,0.1-0.2,0.1c-0.1,0-0.2,0-0.3,0H715.9z M719.8,29.8c0-0.3,0-0.5-0.1-0.7c-0.1-0.2-0.2-0.4-0.3-0.6
		c-0.1-0.2-0.3-0.3-0.6-0.4c-0.2-0.1-0.5-0.2-0.8-0.2c-0.6,0-1.1,0.2-1.4,0.5c-0.3,0.3-0.6,0.8-0.7,1.4H719.8z"/>
</g>
<g class="st2">
	<path class="st1" d="M725.9,27.4c0.2-0.2,0.4-0.3,0.6-0.5c0.2-0.1,0.4-0.3,0.6-0.4c0.2-0.1,0.5-0.2,0.7-0.3
		c0.3-0.1,0.5-0.1,0.9-0.1c0.5,0,1,0.1,1.3,0.3c0.4,0.2,0.7,0.4,1,0.7c0.3,0.3,0.5,0.7,0.6,1.1c0.1,0.4,0.2,0.9,0.2,1.4v5.9h-2.5
		v-5.9c0-0.5-0.1-0.9-0.4-1.2c-0.2-0.3-0.6-0.4-1.1-0.4c-0.3,0-0.7,0.1-1,0.2c-0.3,0.1-0.6,0.4-0.9,0.6v6.7h-2.5v-9.3h1.5
		c0.3,0,0.5,0.1,0.6,0.4L725.9,27.4z"/>
</g>
<g class="st2">
	<path class="st1" d="M737,35.7c-0.4,0-0.8-0.1-1.1-0.2c-0.3-0.1-0.6-0.3-0.8-0.5c-0.2-0.2-0.4-0.5-0.5-0.8
		c-0.1-0.3-0.2-0.7-0.2-1.1v-5h-0.9c-0.1,0-0.2,0-0.3-0.1c-0.1-0.1-0.1-0.2-0.1-0.4v-1l1.5-0.3l0.5-2.4c0.1-0.3,0.2-0.4,0.5-0.4h1.3
		v2.8h2.4v1.7h-2.4v4.8c0,0.3,0.1,0.5,0.2,0.6s0.3,0.2,0.5,0.2c0.1,0,0.2,0,0.3,0s0.2-0.1,0.2-0.1s0.1-0.1,0.2-0.1
		c0.1,0,0.1,0,0.2,0c0.1,0,0.1,0,0.2,0c0,0,0.1,0.1,0.1,0.2l0.7,1.2c-0.3,0.3-0.7,0.5-1.2,0.6C737.9,35.6,737.4,35.7,737,35.7z"/>
	<path class="st1" d="M740.4,27.6c0.5-0.5,1.1-0.9,1.8-1.1s1.4-0.4,2.1-0.4c0.6,0,1,0.1,1.5,0.3c0.4,0.2,0.8,0.4,1.1,0.8
		c0.3,0.3,0.5,0.7,0.7,1.1c0.2,0.4,0.2,0.9,0.2,1.5v5.8h-1.1c-0.2,0-0.4,0-0.5-0.1c-0.1-0.1-0.2-0.2-0.3-0.4l-0.2-0.6
		c-0.2,0.2-0.5,0.4-0.7,0.5c-0.2,0.2-0.4,0.3-0.7,0.4c-0.2,0.1-0.5,0.2-0.8,0.2c-0.3,0.1-0.6,0.1-0.9,0.1c-0.4,0-0.8-0.1-1.1-0.2
		c-0.3-0.1-0.6-0.3-0.9-0.5c-0.2-0.2-0.4-0.5-0.6-0.8c-0.1-0.3-0.2-0.7-0.2-1.1c0-0.3,0.1-0.7,0.3-1c0.2-0.3,0.5-0.7,0.9-0.9
		c0.4-0.3,1-0.5,1.7-0.7c0.7-0.2,1.6-0.3,2.7-0.3v-0.5c0-0.6-0.1-1-0.4-1.3c-0.2-0.3-0.6-0.4-1.1-0.4c-0.3,0-0.6,0-0.9,0.1
		s-0.4,0.2-0.6,0.3c-0.2,0.1-0.3,0.2-0.5,0.3c-0.2,0.1-0.3,0.1-0.5,0.1c-0.2,0-0.3,0-0.4-0.1c-0.1-0.1-0.2-0.2-0.3-0.3L740.4,27.6z
		 M745.4,31.7c-0.6,0-1.1,0.1-1.5,0.2c-0.4,0.1-0.7,0.2-1,0.3c-0.2,0.1-0.4,0.3-0.5,0.4c-0.1,0.2-0.1,0.3-0.1,0.5
		c0,0.4,0.1,0.6,0.3,0.8c0.2,0.2,0.5,0.2,0.8,0.2c0.4,0,0.8-0.1,1.1-0.2c0.3-0.1,0.6-0.4,0.9-0.7V31.7z"/>
	<path class="st1" d="M756,31.3c0.1,0.9,0.3,1.5,0.7,1.9c0.4,0.4,1,0.6,1.6,0.6c0.3,0,0.6,0,0.9-0.1s0.5-0.2,0.7-0.3
		c0.2-0.1,0.4-0.2,0.5-0.3s0.3-0.1,0.5-0.1c0.2,0,0.3,0.1,0.4,0.2l0.7,0.9c-0.3,0.3-0.6,0.6-0.9,0.8s-0.6,0.4-1,0.5
		c-0.3,0.1-0.7,0.2-1,0.2c-0.3,0-0.7,0.1-1,0.1c-0.6,0-1.3-0.1-1.8-0.3s-1-0.5-1.5-0.9s-0.7-0.9-1-1.6c-0.2-0.6-0.4-1.3-0.4-2.2
		c0-0.6,0.1-1.2,0.3-1.8c0.2-0.6,0.5-1,0.9-1.5s0.9-0.7,1.4-1c0.6-0.2,1.2-0.4,1.9-0.4c0.6,0,1.1,0.1,1.6,0.3
		c0.5,0.2,0.9,0.5,1.3,0.8c0.4,0.4,0.6,0.8,0.8,1.3c0.2,0.5,0.3,1.1,0.3,1.8c0,0.2,0,0.3,0,0.5c0,0.1,0,0.2-0.1,0.3
		c0,0.1-0.1,0.1-0.2,0.1c-0.1,0-0.2,0-0.3,0H756z M759.9,29.8c0-0.3,0-0.5-0.1-0.7c-0.1-0.2-0.2-0.4-0.3-0.6
		c-0.1-0.2-0.3-0.3-0.6-0.4c-0.2-0.1-0.5-0.2-0.8-0.2c-0.6,0-1.1,0.2-1.4,0.5c-0.3,0.3-0.6,0.8-0.7,1.4H759.9z"/>
	<path class="st1" d="M769.5,28.2c-0.1,0.1-0.1,0.2-0.2,0.2c-0.1,0-0.2,0.1-0.3,0.1c-0.1,0-0.2,0-0.4-0.1s-0.3-0.1-0.4-0.2
		c-0.2-0.1-0.3-0.1-0.5-0.2c-0.2-0.1-0.4-0.1-0.7-0.1c-0.4,0-0.7,0.1-0.9,0.2c-0.2,0.2-0.3,0.4-0.3,0.7c0,0.2,0.1,0.3,0.2,0.5
		s0.3,0.2,0.5,0.3c0.2,0.1,0.4,0.2,0.7,0.3c0.3,0.1,0.5,0.2,0.8,0.3c0.3,0.1,0.6,0.2,0.8,0.3c0.3,0.1,0.5,0.3,0.7,0.5
		c0.2,0.2,0.4,0.4,0.5,0.7s0.2,0.6,0.2,1c0,0.5-0.1,0.9-0.2,1.2s-0.4,0.7-0.7,1c-0.3,0.3-0.7,0.5-1.2,0.6s-1,0.2-1.6,0.2
		c-0.3,0-0.6,0-0.9-0.1c-0.3-0.1-0.6-0.1-0.9-0.2c-0.3-0.1-0.5-0.2-0.8-0.4s-0.5-0.3-0.6-0.5l0.6-0.9c0.1-0.1,0.1-0.2,0.2-0.3
		c0.1-0.1,0.2-0.1,0.4-0.1c0.1,0,0.3,0,0.4,0.1c0.1,0.1,0.3,0.2,0.4,0.2c0.2,0.1,0.3,0.2,0.6,0.2c0.2,0.1,0.5,0.1,0.8,0.1
		c0.2,0,0.4,0,0.6-0.1c0.2-0.1,0.3-0.1,0.4-0.2s0.2-0.2,0.2-0.3c0.1-0.1,0.1-0.2,0.1-0.4c0-0.2-0.1-0.4-0.2-0.5
		c-0.1-0.1-0.3-0.2-0.5-0.3s-0.4-0.2-0.7-0.3s-0.5-0.2-0.8-0.3c-0.3-0.1-0.6-0.2-0.8-0.3s-0.5-0.3-0.7-0.5s-0.4-0.4-0.5-0.7
		c-0.1-0.3-0.2-0.7-0.2-1.1c0-0.4,0.1-0.7,0.2-1.1c0.1-0.3,0.4-0.6,0.7-0.9c0.3-0.3,0.7-0.5,1.1-0.6c0.4-0.2,1-0.2,1.6-0.2
		c0.7,0,1.3,0.1,1.8,0.3c0.5,0.2,1,0.5,1.3,0.8L769.5,28.2z"/>
	<path class="st1" d="M774.9,35.7c-0.4,0-0.8-0.1-1.1-0.2c-0.3-0.1-0.6-0.3-0.8-0.5c-0.2-0.2-0.4-0.5-0.5-0.8
		c-0.1-0.3-0.2-0.7-0.2-1.1v-5h-0.9c-0.1,0-0.2,0-0.3-0.1c-0.1-0.1-0.1-0.2-0.1-0.4v-1l1.5-0.3l0.5-2.4c0.1-0.3,0.2-0.4,0.5-0.4h1.3
		v2.8h2.4v1.7h-2.4v4.8c0,0.3,0.1,0.5,0.2,0.6s0.3,0.2,0.5,0.2c0.1,0,0.2,0,0.3,0s0.2-0.1,0.2-0.1s0.1-0.1,0.2-0.1
		c0.1,0,0.1,0,0.2,0c0.1,0,0.1,0,0.2,0c0,0,0.1,0.1,0.1,0.2l0.7,1.2c-0.3,0.3-0.7,0.5-1.2,0.6C775.8,35.6,775.3,35.7,774.9,35.7z"/>
	<path class="st1" d="M778.3,27.6c0.5-0.5,1.1-0.9,1.8-1.1s1.4-0.4,2.1-0.4c0.6,0,1,0.1,1.5,0.3c0.4,0.2,0.8,0.4,1.1,0.8
		c0.3,0.3,0.5,0.7,0.7,1.1c0.2,0.4,0.2,0.9,0.2,1.5v5.8h-1.1c-0.2,0-0.4,0-0.5-0.1c-0.1-0.1-0.2-0.2-0.3-0.4l-0.2-0.6
		c-0.2,0.2-0.5,0.4-0.7,0.5c-0.2,0.2-0.4,0.3-0.7,0.4c-0.2,0.1-0.5,0.2-0.8,0.2c-0.3,0.1-0.6,0.1-0.9,0.1c-0.4,0-0.8-0.1-1.1-0.2
		c-0.3-0.1-0.6-0.3-0.9-0.5c-0.2-0.2-0.4-0.5-0.6-0.8c-0.1-0.3-0.2-0.7-0.2-1.1c0-0.3,0.1-0.7,0.3-1c0.2-0.3,0.5-0.7,0.9-0.9
		c0.4-0.3,1-0.5,1.7-0.7c0.7-0.2,1.6-0.3,2.7-0.3v-0.5c0-0.6-0.1-1-0.4-1.3c-0.2-0.3-0.6-0.4-1.1-0.4c-0.3,0-0.6,0-0.9,0.1
		s-0.4,0.2-0.6,0.3c-0.2,0.1-0.3,0.2-0.5,0.3c-0.2,0.1-0.3,0.1-0.5,0.1c-0.2,0-0.3,0-0.4-0.1c-0.1-0.1-0.2-0.2-0.3-0.3L778.3,27.6z
		 M783.3,31.7c-0.6,0-1.1,0.1-1.5,0.2c-0.4,0.1-0.7,0.2-1,0.3c-0.2,0.1-0.4,0.3-0.5,0.4c-0.1,0.2-0.1,0.3-0.1,0.5
		c0,0.4,0.1,0.6,0.3,0.8c0.2,0.2,0.5,0.2,0.8,0.2c0.4,0,0.8-0.1,1.1-0.2c0.3-0.1,0.6-0.4,0.9-0.7V31.7z M785.3,22.4l-2.3,2.4
		c-0.1,0.1-0.2,0.2-0.4,0.3c-0.1,0.1-0.3,0.1-0.5,0.1h-1.5l1.3-2.2c0.1-0.2,0.2-0.3,0.3-0.4s0.3-0.1,0.6-0.1H785.3z"/>
</g>
<g class="st2">
	<path class="st1" d="M799,28.4c-0.1,0.1-0.1,0.2-0.2,0.2c-0.1,0.1-0.2,0.1-0.3,0.1c-0.1,0-0.2,0-0.3-0.1c-0.1-0.1-0.2-0.1-0.4-0.2
		c-0.1-0.1-0.3-0.2-0.5-0.2c-0.2-0.1-0.4-0.1-0.7-0.1c-0.4,0-0.7,0.1-1,0.2c-0.3,0.1-0.5,0.3-0.7,0.6c-0.2,0.3-0.3,0.6-0.4,0.9
		c-0.1,0.4-0.1,0.8-0.1,1.2c0,0.9,0.2,1.7,0.6,2.2s0.9,0.8,1.6,0.8c0.2,0,0.4,0,0.6-0.1s0.3-0.1,0.4-0.1c0.1-0.1,0.2-0.1,0.3-0.2
		s0.2-0.1,0.3-0.2c0.1-0.1,0.2-0.1,0.2-0.1c0.1,0,0.2-0.1,0.3-0.1c0.2,0,0.3,0.1,0.4,0.2l0.7,0.9c-0.3,0.3-0.5,0.6-0.8,0.8
		s-0.6,0.4-0.9,0.5c-0.3,0.1-0.6,0.2-1,0.2s-0.7,0.1-1,0.1c-0.6,0-1.1-0.1-1.6-0.3s-1-0.5-1.3-0.9c-0.4-0.4-0.7-0.9-0.9-1.5
		c-0.2-0.6-0.3-1.3-0.3-2c0-0.7,0.1-1.3,0.3-1.9s0.5-1.1,0.9-1.5s0.9-0.8,1.4-1c0.6-0.2,1.2-0.4,2-0.4c0.7,0,1.3,0.1,1.9,0.3
		c0.5,0.2,1,0.6,1.4,1L799,28.4z"/>
</g>
<g class="st2">
	<path class="st1" d="M805,26.1c0.7,0,1.3,0.1,1.9,0.3c0.6,0.2,1.1,0.5,1.5,0.9c0.4,0.4,0.7,0.9,0.9,1.5s0.3,1.3,0.3,2
		c0,0.7-0.1,1.4-0.3,2s-0.5,1.1-0.9,1.5c-0.4,0.4-0.9,0.7-1.5,1c-0.6,0.2-1.2,0.3-1.9,0.3c-0.7,0-1.3-0.1-1.9-0.3
		c-0.6-0.2-1.1-0.5-1.5-1c-0.4-0.4-0.7-0.9-0.9-1.5s-0.3-1.3-0.3-2c0-0.7,0.1-1.4,0.3-2s0.5-1.1,0.9-1.5c0.4-0.4,0.9-0.7,1.5-0.9
		C803.7,26.3,804.3,26.1,805,26.1z M805,33.8c0.7,0,1.2-0.2,1.6-0.7c0.3-0.5,0.5-1.2,0.5-2.2c0-1-0.2-1.7-0.5-2.2
		c-0.3-0.5-0.9-0.7-1.6-0.7c-0.7,0-1.3,0.2-1.6,0.7c-0.3,0.5-0.5,1.2-0.5,2.2c0,1,0.2,1.7,0.5,2.2C803.8,33.6,804.3,33.8,805,33.8z"
		/>
	<path class="st1" d="M813.6,27.4c0.2-0.2,0.4-0.3,0.6-0.5c0.2-0.1,0.4-0.3,0.6-0.4c0.2-0.1,0.5-0.2,0.7-0.3
		c0.3-0.1,0.5-0.1,0.9-0.1c0.5,0,1,0.1,1.3,0.3c0.4,0.2,0.7,0.4,1,0.7c0.3,0.3,0.5,0.7,0.6,1.1c0.1,0.4,0.2,0.9,0.2,1.4v5.9H817
		v-5.9c0-0.5-0.1-0.9-0.4-1.2c-0.2-0.3-0.6-0.4-1.1-0.4c-0.3,0-0.7,0.1-1,0.2c-0.3,0.1-0.6,0.4-0.9,0.6v6.7h-2.5v-9.3h1.5
		c0.3,0,0.5,0.1,0.6,0.4L813.6,27.4z"/>
</g>
<g class="st2">
	<path class="st1" d="M829.8,26.6v0.9c0,0.1,0,0.3-0.1,0.3c-0.1,0.1-0.2,0.1-0.4,0.2l-0.8,0.2c0.1,0.3,0.2,0.6,0.2,0.9
		c0,0.5-0.1,0.9-0.3,1.2s-0.4,0.7-0.8,0.9c-0.3,0.3-0.7,0.5-1.2,0.6c-0.4,0.1-0.9,0.2-1.5,0.2c-0.3,0-0.6,0-0.9-0.1
		c-0.3,0.2-0.4,0.3-0.4,0.5c0,0.2,0.1,0.3,0.3,0.4s0.4,0.1,0.7,0.2c0.3,0,0.6,0.1,1,0.1s0.7,0,1.1,0.1c0.4,0,0.7,0.1,1.1,0.2
		c0.4,0.1,0.7,0.2,1,0.4c0.3,0.2,0.5,0.4,0.7,0.7s0.3,0.6,0.3,1.1c0,0.4-0.1,0.8-0.3,1.2s-0.5,0.7-0.9,1c-0.4,0.3-0.9,0.6-1.4,0.7
		c-0.6,0.2-1.2,0.3-1.9,0.3c-0.7,0-1.3-0.1-1.9-0.2c-0.5-0.1-1-0.3-1.3-0.5c-0.3-0.2-0.6-0.5-0.8-0.8s-0.3-0.6-0.3-0.9
		c0-0.4,0.1-0.8,0.4-1.1s0.6-0.5,1-0.7c-0.2-0.1-0.4-0.3-0.6-0.5s-0.2-0.5-0.2-0.8c0-0.3,0.1-0.6,0.3-0.9c0.2-0.3,0.5-0.6,0.9-0.8
		c-0.5-0.3-0.8-0.6-1.1-1c-0.3-0.4-0.4-0.9-0.4-1.5c0-0.5,0.1-0.9,0.3-1.3c0.2-0.4,0.5-0.7,0.8-1c0.3-0.3,0.7-0.5,1.2-0.6
		c0.5-0.1,1-0.2,1.5-0.2c0.8,0,1.5,0.2,2.1,0.5H829.8z M827.4,35.9c0-0.2-0.1-0.3-0.2-0.4c-0.1-0.1-0.2-0.2-0.4-0.2
		c-0.2-0.1-0.4-0.1-0.6-0.1c-0.2,0-0.5,0-0.7-0.1c-0.3,0-0.5,0-0.8,0c-0.3,0-0.6,0-0.8-0.1c-0.2,0.1-0.4,0.3-0.5,0.4
		c-0.1,0.2-0.2,0.4-0.2,0.6c0,0.2,0,0.3,0.1,0.4s0.2,0.2,0.3,0.3s0.4,0.2,0.6,0.2c0.3,0.1,0.6,0.1,1,0.1c0.4,0,0.8,0,1-0.1
		c0.3-0.1,0.5-0.1,0.7-0.2c0.2-0.1,0.3-0.2,0.4-0.4C827.3,36.3,827.4,36.1,827.4,35.9z M825,30.6c0.5,0,0.9-0.1,1.1-0.4
		c0.2-0.3,0.4-0.6,0.4-1c0-0.4-0.1-0.8-0.4-1c-0.2-0.2-0.6-0.4-1.1-0.4s-0.9,0.1-1.1,0.4c-0.2,0.2-0.4,0.6-0.4,1
		c0,0.4,0.1,0.7,0.4,1C824.2,30.5,824.5,30.6,825,30.6z"/>
</g>
<g class="st2">
	<path class="st1" d="M833,31.3c0.1,0.9,0.3,1.5,0.7,1.9c0.4,0.4,1,0.6,1.6,0.6c0.3,0,0.6,0,0.9-0.1s0.5-0.2,0.7-0.3
		c0.2-0.1,0.4-0.2,0.5-0.3c0.2-0.1,0.3-0.1,0.5-0.1c0.2,0,0.3,0.1,0.4,0.2l0.7,0.9c-0.3,0.3-0.6,0.6-0.9,0.8c-0.3,0.2-0.6,0.4-1,0.5
		s-0.7,0.2-1,0.2s-0.7,0.1-1,0.1c-0.6,0-1.3-0.1-1.8-0.3c-0.6-0.2-1-0.5-1.5-0.9s-0.7-0.9-1-1.6c-0.2-0.6-0.4-1.3-0.4-2.2
		c0-0.6,0.1-1.2,0.3-1.8c0.2-0.6,0.5-1,0.9-1.5c0.4-0.4,0.9-0.7,1.4-1s1.2-0.4,1.9-0.4c0.6,0,1.1,0.1,1.6,0.3
		c0.5,0.2,0.9,0.5,1.3,0.8c0.4,0.4,0.6,0.8,0.8,1.3c0.2,0.5,0.3,1.1,0.3,1.8c0,0.2,0,0.3,0,0.5c0,0.1,0,0.2-0.1,0.3
		c0,0.1-0.1,0.1-0.2,0.1c-0.1,0-0.2,0-0.3,0H833z M836.9,29.8c0-0.3,0-0.5-0.1-0.7c-0.1-0.2-0.2-0.4-0.3-0.6
		c-0.2-0.2-0.3-0.3-0.6-0.4c-0.2-0.1-0.5-0.2-0.8-0.2c-0.6,0-1.1,0.2-1.4,0.5s-0.6,0.8-0.7,1.4H836.9z"/>
	<path class="st1" d="M843.2,22.2v13.4h-2.5V22.2H843.2z"/>
	<path class="st1" d="M845,27.6c0.5-0.5,1.1-0.9,1.8-1.1s1.4-0.4,2.1-0.4c0.6,0,1,0.1,1.5,0.3c0.4,0.2,0.8,0.4,1.1,0.8
		c0.3,0.3,0.5,0.7,0.7,1.1c0.2,0.4,0.2,0.9,0.2,1.5v5.8h-1.1c-0.2,0-0.4,0-0.5-0.1c-0.1-0.1-0.2-0.2-0.3-0.4l-0.2-0.6
		c-0.2,0.2-0.5,0.4-0.7,0.5c-0.2,0.2-0.4,0.3-0.7,0.4c-0.2,0.1-0.5,0.2-0.8,0.2c-0.3,0.1-0.6,0.1-0.9,0.1c-0.4,0-0.8-0.1-1.1-0.2
		c-0.3-0.1-0.6-0.3-0.9-0.5c-0.2-0.2-0.4-0.5-0.6-0.8s-0.2-0.7-0.2-1.1c0-0.3,0.1-0.7,0.3-1c0.2-0.3,0.5-0.7,0.9-0.9
		c0.4-0.3,1-0.5,1.7-0.7c0.7-0.2,1.6-0.3,2.7-0.3v-0.5c0-0.6-0.1-1-0.4-1.3c-0.2-0.3-0.6-0.4-1.1-0.4c-0.3,0-0.6,0-0.9,0.1
		c-0.2,0.1-0.4,0.2-0.6,0.3c-0.2,0.1-0.3,0.2-0.5,0.3c-0.2,0.1-0.3,0.1-0.5,0.1c-0.2,0-0.3,0-0.4-0.1s-0.2-0.2-0.3-0.3L845,27.6z
		 M850.1,31.7c-0.6,0-1.1,0.1-1.5,0.2s-0.7,0.2-1,0.3c-0.2,0.1-0.4,0.3-0.5,0.4c-0.1,0.2-0.1,0.3-0.1,0.5c0,0.4,0.1,0.6,0.3,0.8
		s0.5,0.2,0.8,0.2c0.4,0,0.8-0.1,1.1-0.2c0.3-0.1,0.6-0.4,0.9-0.7V31.7z"/>
	<path class="st1" d="M862.7,22.2v13.4h-1.5c-0.3,0-0.5-0.1-0.6-0.4l-0.2-0.8c-0.2,0.2-0.4,0.4-0.6,0.6s-0.4,0.3-0.7,0.4
		c-0.2,0.1-0.5,0.2-0.8,0.3c-0.3,0.1-0.6,0.1-0.9,0.1c-0.5,0-1-0.1-1.4-0.3c-0.4-0.2-0.8-0.5-1.1-0.9s-0.5-0.9-0.7-1.5
		s-0.3-1.3-0.3-2c0-0.7,0.1-1.3,0.3-1.9c0.2-0.6,0.5-1.1,0.8-1.5c0.3-0.4,0.8-0.8,1.3-1s1-0.4,1.6-0.4c0.5,0,0.9,0.1,1.3,0.2
		c0.3,0.2,0.7,0.4,0.9,0.6v-4.8H862.7z M860.2,28.7c-0.2-0.3-0.5-0.5-0.8-0.6c-0.3-0.1-0.6-0.2-0.9-0.2c-0.3,0-0.6,0.1-0.8,0.2
		s-0.5,0.3-0.6,0.5s-0.3,0.6-0.4,0.9c-0.1,0.4-0.1,0.8-0.1,1.3c0,0.5,0,1,0.1,1.3s0.2,0.7,0.3,0.9c0.1,0.2,0.3,0.4,0.5,0.5
		s0.4,0.1,0.7,0.1c0.4,0,0.8-0.1,1.1-0.3s0.6-0.4,0.8-0.7V28.7z"/>
	<path class="st1" d="M864.5,27.6c0.5-0.5,1.1-0.9,1.8-1.1s1.4-0.4,2.1-0.4c0.6,0,1,0.1,1.5,0.3c0.4,0.2,0.8,0.4,1.1,0.8
		c0.3,0.3,0.5,0.7,0.7,1.1c0.2,0.4,0.2,0.9,0.2,1.5v5.8h-1.1c-0.2,0-0.4,0-0.5-0.1c-0.1-0.1-0.2-0.2-0.3-0.4l-0.2-0.6
		c-0.2,0.2-0.5,0.4-0.7,0.5c-0.2,0.2-0.4,0.3-0.7,0.4c-0.2,0.1-0.5,0.2-0.8,0.2c-0.3,0.1-0.6,0.1-0.9,0.1c-0.4,0-0.8-0.1-1.1-0.2
		c-0.3-0.1-0.6-0.3-0.9-0.5c-0.2-0.2-0.4-0.5-0.6-0.8s-0.2-0.7-0.2-1.1c0-0.3,0.1-0.7,0.3-1c0.2-0.3,0.5-0.7,0.9-0.9
		c0.4-0.3,1-0.5,1.7-0.7c0.7-0.2,1.6-0.3,2.7-0.3v-0.5c0-0.6-0.1-1-0.4-1.3c-0.2-0.3-0.6-0.4-1.1-0.4c-0.3,0-0.6,0-0.9,0.1
		c-0.2,0.1-0.4,0.2-0.6,0.3c-0.2,0.1-0.3,0.2-0.5,0.3c-0.2,0.1-0.3,0.1-0.5,0.1c-0.2,0-0.3,0-0.4-0.1s-0.2-0.2-0.3-0.3L864.5,27.6z
		 M869.6,31.7c-0.6,0-1.1,0.1-1.5,0.2s-0.7,0.2-1,0.3c-0.2,0.1-0.4,0.3-0.5,0.4c-0.1,0.2-0.1,0.3-0.1,0.5c0,0.4,0.1,0.6,0.3,0.8
		s0.5,0.2,0.8,0.2c0.4,0,0.8-0.1,1.1-0.2c0.3-0.1,0.6-0.4,0.9-0.7V31.7z"/>
	<path class="st1" d="M874,37.8c-0.1-0.1-0.1-0.1-0.1-0.2c0-0.1,0-0.1,0-0.2c0-0.1,0-0.1,0.1-0.2c0-0.1,0.1-0.1,0.1-0.2
		c0.1-0.1,0.1-0.2,0.2-0.3c0.1-0.1,0.2-0.2,0.3-0.4c0.1-0.1,0.2-0.3,0.3-0.4s0.1-0.3,0.2-0.5c-0.2,0-0.4,0-0.5-0.1s-0.3-0.2-0.4-0.3
		c-0.1-0.1-0.2-0.3-0.3-0.4c-0.1-0.2-0.1-0.4-0.1-0.6c0-0.2,0-0.3,0.1-0.5c0.1-0.2,0.2-0.3,0.3-0.4s0.3-0.2,0.4-0.3
		c0.2-0.1,0.4-0.1,0.6-0.1c0.2,0,0.5,0,0.6,0.1c0.2,0.1,0.3,0.2,0.5,0.3c0.1,0.1,0.2,0.3,0.3,0.5c0.1,0.2,0.1,0.4,0.1,0.6
		c0,0.3,0,0.6-0.1,0.9c-0.1,0.3-0.2,0.7-0.4,1c-0.2,0.3-0.4,0.7-0.7,1c-0.3,0.3-0.6,0.6-0.9,0.9L874,37.8z"/>
	<path class="st1" d="M884.8,27.5c0.2-0.2,0.4-0.4,0.6-0.6c0.2-0.2,0.4-0.3,0.7-0.4s0.5-0.2,0.8-0.3c0.3-0.1,0.6-0.1,0.9-0.1
		c0.5,0,1,0.1,1.4,0.3s0.8,0.5,1.1,0.9c0.3,0.4,0.5,0.9,0.7,1.5s0.3,1.3,0.3,2c0,0.7-0.1,1.3-0.3,1.9c-0.2,0.6-0.5,1.1-0.8,1.5
		c-0.3,0.4-0.8,0.8-1.3,1s-1,0.4-1.6,0.4c-0.5,0-0.9-0.1-1.3-0.2c-0.4-0.2-0.7-0.4-0.9-0.6v3.7h-2.5V26.3h1.5c0.3,0,0.5,0.1,0.6,0.4
		L884.8,27.5z M885,33.1c0.2,0.3,0.5,0.5,0.8,0.6c0.3,0.1,0.6,0.2,0.9,0.2c0.3,0,0.6-0.1,0.8-0.2c0.2-0.1,0.5-0.3,0.6-0.5
		c0.2-0.2,0.3-0.6,0.4-0.9c0.1-0.4,0.1-0.8,0.1-1.3c0-0.5,0-1-0.1-1.3c-0.1-0.4-0.2-0.7-0.3-0.9c-0.1-0.2-0.3-0.4-0.5-0.5
		c-0.2-0.1-0.4-0.1-0.7-0.1c-0.4,0-0.8,0.1-1.1,0.3s-0.6,0.4-0.8,0.8V33.1z"/>
	<path class="st1" d="M900.9,26.3v9.3h-1.5c-0.3,0-0.5-0.1-0.6-0.4l-0.2-0.6c-0.2,0.2-0.4,0.3-0.6,0.5s-0.4,0.3-0.6,0.4
		c-0.2,0.1-0.5,0.2-0.7,0.3c-0.3,0.1-0.5,0.1-0.9,0.1c-0.5,0-1-0.1-1.3-0.3c-0.4-0.2-0.7-0.4-1-0.7c-0.3-0.3-0.5-0.7-0.6-1.1
		c-0.1-0.4-0.2-0.9-0.2-1.4v-5.9h2.5v5.9c0,0.5,0.1,0.9,0.4,1.2c0.2,0.3,0.6,0.4,1.1,0.4c0.3,0,0.7-0.1,1-0.2
		c0.3-0.2,0.6-0.4,0.9-0.6v-6.7H900.9z"/>
	<path class="st1" d="M905,31.3c0.1,0.9,0.3,1.5,0.7,1.9c0.4,0.4,1,0.6,1.6,0.6c0.3,0,0.6,0,0.9-0.1s0.5-0.2,0.7-0.3
		c0.2-0.1,0.4-0.2,0.5-0.3c0.2-0.1,0.3-0.1,0.5-0.1c0.2,0,0.3,0.1,0.4,0.2l0.7,0.9c-0.3,0.3-0.6,0.6-0.9,0.8c-0.3,0.2-0.6,0.4-1,0.5
		s-0.7,0.2-1,0.2s-0.7,0.1-1,0.1c-0.6,0-1.3-0.1-1.8-0.3c-0.6-0.2-1-0.5-1.5-0.9s-0.7-0.9-1-1.6c-0.2-0.6-0.4-1.3-0.4-2.2
		c0-0.6,0.1-1.2,0.3-1.8c0.2-0.6,0.5-1,0.9-1.5c0.4-0.4,0.9-0.7,1.4-1s1.2-0.4,1.9-0.4c0.6,0,1.1,0.1,1.6,0.3
		c0.5,0.2,0.9,0.5,1.3,0.8c0.4,0.4,0.6,0.8,0.8,1.3c0.2,0.5,0.3,1.1,0.3,1.8c0,0.2,0,0.3,0,0.5c0,0.1,0,0.2-0.1,0.3
		c0,0.1-0.1,0.1-0.2,0.1c-0.1,0-0.2,0-0.3,0H905z M908.9,29.8c0-0.3,0-0.5-0.1-0.7c-0.1-0.2-0.2-0.4-0.3-0.6
		c-0.2-0.2-0.3-0.3-0.6-0.4c-0.2-0.1-0.5-0.2-0.8-0.2c-0.6,0-1.1,0.2-1.4,0.5s-0.6,0.8-0.7,1.4H908.9z"/>
	<path class="st1" d="M920.8,22.2v13.4h-1.5c-0.3,0-0.5-0.1-0.6-0.4l-0.2-0.8c-0.2,0.2-0.4,0.4-0.6,0.6s-0.4,0.3-0.7,0.4
		c-0.2,0.1-0.5,0.2-0.8,0.3c-0.3,0.1-0.6,0.1-0.9,0.1c-0.5,0-1-0.1-1.4-0.3c-0.4-0.2-0.8-0.5-1.1-0.9s-0.5-0.9-0.7-1.5
		s-0.3-1.3-0.3-2c0-0.7,0.1-1.3,0.3-1.9c0.2-0.6,0.5-1.1,0.8-1.5c0.3-0.4,0.8-0.8,1.3-1s1-0.4,1.6-0.4c0.5,0,0.9,0.1,1.3,0.2
		c0.3,0.2,0.7,0.4,0.9,0.6v-4.8H920.8z M918.4,28.7c-0.2-0.3-0.5-0.5-0.8-0.6c-0.3-0.1-0.6-0.2-0.9-0.2c-0.3,0-0.6,0.1-0.8,0.2
		s-0.5,0.3-0.6,0.5s-0.3,0.6-0.4,0.9c-0.1,0.4-0.1,0.8-0.1,1.3c0,0.5,0,1,0.1,1.3s0.2,0.7,0.3,0.9c0.1,0.2,0.3,0.4,0.5,0.5
		s0.4,0.1,0.7,0.1c0.4,0,0.8-0.1,1.1-0.3s0.6-0.4,0.8-0.7V28.7z"/>
	<path class="st1" d="M924.9,31.3c0.1,0.9,0.3,1.5,0.7,1.9c0.4,0.4,1,0.6,1.6,0.6c0.3,0,0.6,0,0.9-0.1s0.5-0.2,0.7-0.3
		c0.2-0.1,0.4-0.2,0.5-0.3c0.2-0.1,0.3-0.1,0.5-0.1c0.2,0,0.3,0.1,0.4,0.2l0.7,0.9c-0.3,0.3-0.6,0.6-0.9,0.8c-0.3,0.2-0.6,0.4-1,0.5
		s-0.7,0.2-1,0.2s-0.7,0.1-1,0.1c-0.6,0-1.3-0.1-1.8-0.3c-0.6-0.2-1-0.5-1.5-0.9s-0.7-0.9-1-1.6c-0.2-0.6-0.4-1.3-0.4-2.2
		c0-0.6,0.1-1.2,0.3-1.8c0.2-0.6,0.5-1,0.9-1.5c0.4-0.4,0.9-0.7,1.4-1s1.2-0.4,1.9-0.4c0.6,0,1.1,0.1,1.6,0.3
		c0.5,0.2,0.9,0.5,1.3,0.8c0.4,0.4,0.6,0.8,0.8,1.3c0.2,0.5,0.3,1.1,0.3,1.8c0,0.2,0,0.3,0,0.5c0,0.1,0,0.2-0.1,0.3
		c0,0.1-0.1,0.1-0.2,0.1c-0.1,0-0.2,0-0.3,0H924.9z M928.8,29.8c0-0.3,0-0.5-0.1-0.7c-0.1-0.2-0.2-0.4-0.3-0.6
		c-0.2-0.2-0.3-0.3-0.6-0.4c-0.2-0.1-0.5-0.2-0.8-0.2c-0.6,0-1.1,0.2-1.4,0.5s-0.6,0.8-0.7,1.4H928.8z"/>
	<path class="st1" d="M938.3,28.2c-0.1,0.1-0.1,0.2-0.2,0.2c-0.1,0-0.2,0.1-0.3,0.1s-0.2,0-0.4-0.1s-0.3-0.1-0.4-0.2
		c-0.2-0.1-0.3-0.1-0.5-0.2c-0.2-0.1-0.4-0.1-0.7-0.1c-0.4,0-0.7,0.1-0.9,0.2s-0.3,0.4-0.3,0.7c0,0.2,0.1,0.3,0.2,0.5
		s0.3,0.2,0.5,0.3c0.2,0.1,0.4,0.2,0.7,0.3c0.3,0.1,0.5,0.2,0.8,0.3c0.3,0.1,0.5,0.2,0.8,0.3c0.3,0.1,0.5,0.3,0.7,0.5
		c0.2,0.2,0.4,0.4,0.5,0.7s0.2,0.6,0.2,1c0,0.5-0.1,0.9-0.2,1.2s-0.4,0.7-0.7,1c-0.3,0.3-0.7,0.5-1.2,0.6c-0.5,0.2-1,0.2-1.6,0.2
		c-0.3,0-0.6,0-0.9-0.1c-0.3-0.1-0.6-0.1-0.9-0.2c-0.3-0.1-0.5-0.2-0.8-0.4s-0.5-0.3-0.6-0.5l0.6-0.9c0.1-0.1,0.1-0.2,0.2-0.3
		c0.1-0.1,0.2-0.1,0.4-0.1c0.1,0,0.3,0,0.4,0.1c0.1,0.1,0.3,0.2,0.4,0.2c0.2,0.1,0.3,0.2,0.6,0.2c0.2,0.1,0.5,0.1,0.8,0.1
		c0.2,0,0.4,0,0.6-0.1c0.2-0.1,0.3-0.1,0.4-0.2c0.1-0.1,0.2-0.2,0.2-0.3c0.1-0.1,0.1-0.2,0.1-0.4c0-0.2-0.1-0.4-0.2-0.5
		c-0.1-0.1-0.3-0.2-0.5-0.3s-0.4-0.2-0.7-0.3c-0.3-0.1-0.5-0.2-0.8-0.3c-0.3-0.1-0.6-0.2-0.8-0.3c-0.3-0.1-0.5-0.3-0.7-0.5
		s-0.4-0.4-0.5-0.7c-0.1-0.3-0.2-0.7-0.2-1.1c0-0.4,0.1-0.7,0.2-1.1c0.1-0.3,0.4-0.6,0.7-0.9c0.3-0.3,0.7-0.5,1.1-0.6
		c0.4-0.2,1-0.2,1.6-0.2c0.7,0,1.3,0.1,1.8,0.3c0.5,0.2,1,0.5,1.3,0.8L938.3,28.2z"/>
	<path class="st1" d="M953,22.2v13.4h-1.5c-0.3,0-0.5-0.1-0.6-0.4l-0.2-0.8c-0.2,0.2-0.4,0.4-0.6,0.6s-0.4,0.3-0.7,0.4
		s-0.5,0.2-0.8,0.3c-0.3,0.1-0.6,0.1-0.9,0.1c-0.5,0-1-0.1-1.4-0.3s-0.8-0.5-1.1-0.9c-0.3-0.4-0.5-0.9-0.7-1.5s-0.3-1.3-0.3-2
		c0-0.7,0.1-1.3,0.3-1.9c0.2-0.6,0.5-1.1,0.8-1.5c0.3-0.4,0.8-0.8,1.3-1c0.5-0.2,1-0.4,1.6-0.4c0.5,0,0.9,0.1,1.3,0.2
		c0.3,0.2,0.7,0.4,0.9,0.6v-4.8H953z M950.5,28.7c-0.2-0.3-0.5-0.5-0.8-0.6c-0.3-0.1-0.6-0.2-0.9-0.2c-0.3,0-0.6,0.1-0.8,0.2
		s-0.5,0.3-0.6,0.5c-0.2,0.2-0.3,0.6-0.4,0.9s-0.1,0.8-0.1,1.3c0,0.5,0,1,0.1,1.3c0.1,0.4,0.2,0.7,0.3,0.9s0.3,0.4,0.5,0.5
		s0.4,0.1,0.7,0.1c0.4,0,0.8-0.1,1.1-0.3s0.6-0.4,0.8-0.7V28.7z"/>
	<path class="st1" d="M957,31.3c0.1,0.9,0.3,1.5,0.7,1.9c0.4,0.4,1,0.6,1.6,0.6c0.3,0,0.6,0,0.9-0.1s0.5-0.2,0.7-0.3
		c0.2-0.1,0.4-0.2,0.5-0.3c0.2-0.1,0.3-0.1,0.5-0.1c0.2,0,0.3,0.1,0.5,0.2l0.7,0.9c-0.3,0.3-0.6,0.6-0.9,0.8c-0.3,0.2-0.6,0.4-1,0.5
		c-0.3,0.1-0.7,0.2-1,0.2c-0.3,0-0.7,0.1-1,0.1c-0.6,0-1.3-0.1-1.8-0.3c-0.6-0.2-1-0.5-1.5-0.9s-0.7-0.9-1-1.6s-0.4-1.3-0.4-2.2
		c0-0.6,0.1-1.2,0.3-1.8c0.2-0.6,0.5-1,0.9-1.5c0.4-0.4,0.9-0.7,1.4-1c0.6-0.2,1.2-0.4,1.9-0.4c0.6,0,1.1,0.1,1.6,0.3
		c0.5,0.2,0.9,0.5,1.3,0.8c0.4,0.4,0.6,0.8,0.8,1.3c0.2,0.5,0.3,1.1,0.3,1.8c0,0.2,0,0.3,0,0.5c0,0.1,0,0.2-0.1,0.3
		c0,0.1-0.1,0.1-0.2,0.1c-0.1,0-0.2,0-0.3,0H957z M961,29.8c0-0.3,0-0.5-0.1-0.7c-0.1-0.2-0.2-0.4-0.3-0.6c-0.1-0.2-0.3-0.3-0.6-0.4
		c-0.2-0.1-0.5-0.2-0.8-0.2c-0.6,0-1.1,0.2-1.4,0.5c-0.3,0.3-0.6,0.8-0.7,1.4H961z"/>
	<path class="st1" d="M970.5,28.2c-0.1,0.1-0.1,0.2-0.2,0.2s-0.2,0.1-0.3,0.1c-0.1,0-0.2,0-0.4-0.1s-0.3-0.1-0.4-0.2
		c-0.2-0.1-0.3-0.1-0.5-0.2c-0.2-0.1-0.4-0.1-0.7-0.1c-0.4,0-0.7,0.1-0.9,0.2c-0.2,0.2-0.3,0.4-0.3,0.7c0,0.2,0.1,0.3,0.2,0.5
		s0.3,0.2,0.5,0.3c0.2,0.1,0.4,0.2,0.7,0.3s0.5,0.2,0.8,0.3s0.6,0.2,0.8,0.3s0.5,0.3,0.7,0.5c0.2,0.2,0.4,0.4,0.5,0.7s0.2,0.6,0.2,1
		c0,0.5-0.1,0.9-0.2,1.2s-0.4,0.7-0.7,1c-0.3,0.3-0.7,0.5-1.2,0.6c-0.5,0.2-1,0.2-1.6,0.2c-0.3,0-0.6,0-0.9-0.1
		c-0.3-0.1-0.6-0.1-0.9-0.2c-0.3-0.1-0.5-0.2-0.8-0.4s-0.5-0.3-0.6-0.5l0.6-0.9c0.1-0.1,0.1-0.2,0.2-0.3c0.1-0.1,0.2-0.1,0.4-0.1
		c0.2,0,0.3,0,0.4,0.1s0.3,0.2,0.4,0.2s0.3,0.2,0.6,0.2c0.2,0.1,0.5,0.1,0.8,0.1c0.2,0,0.4,0,0.6-0.1c0.2-0.1,0.3-0.1,0.4-0.2
		c0.1-0.1,0.2-0.2,0.2-0.3c0.1-0.1,0.1-0.2,0.1-0.4c0-0.2-0.1-0.4-0.2-0.5s-0.3-0.2-0.5-0.3s-0.4-0.2-0.7-0.3
		c-0.3-0.1-0.5-0.2-0.8-0.3c-0.3-0.1-0.6-0.2-0.8-0.3c-0.3-0.1-0.5-0.3-0.7-0.5s-0.4-0.4-0.5-0.7c-0.1-0.3-0.2-0.7-0.2-1.1
		c0-0.4,0.1-0.7,0.2-1.1c0.2-0.3,0.4-0.6,0.7-0.9c0.3-0.3,0.7-0.5,1.1-0.6c0.4-0.2,1-0.2,1.6-0.2c0.7,0,1.3,0.1,1.8,0.3
		c0.5,0.2,1,0.5,1.3,0.8L970.5,28.2z"/>
</g>
<g class="st2">
	<path class="st1" d="M980.2,28.4c-0.1,0.1-0.1,0.2-0.2,0.2c-0.1,0.1-0.2,0.1-0.3,0.1c-0.1,0-0.2,0-0.3-0.1
		c-0.1-0.1-0.2-0.1-0.4-0.2c-0.1-0.1-0.3-0.2-0.5-0.2c-0.2-0.1-0.4-0.1-0.7-0.1c-0.4,0-0.7,0.1-1,0.2c-0.3,0.1-0.5,0.3-0.7,0.6
		s-0.3,0.6-0.4,0.9c-0.1,0.4-0.1,0.8-0.1,1.2c0,0.9,0.2,1.7,0.6,2.2s0.9,0.8,1.6,0.8c0.2,0,0.4,0,0.6-0.1s0.3-0.1,0.4-0.1
		c0.1-0.1,0.2-0.1,0.3-0.2c0.1-0.1,0.2-0.1,0.3-0.2c0.1-0.1,0.2-0.1,0.2-0.1s0.2-0.1,0.3-0.1c0.2,0,0.3,0.1,0.5,0.2l0.7,0.9
		c-0.3,0.3-0.5,0.6-0.8,0.8c-0.3,0.2-0.6,0.4-0.9,0.5c-0.3,0.1-0.6,0.2-1,0.2s-0.7,0.1-1,0.1c-0.6,0-1.1-0.1-1.6-0.3
		c-0.5-0.2-1-0.5-1.3-0.9s-0.7-0.9-0.9-1.5c-0.2-0.6-0.3-1.3-0.3-2c0-0.7,0.1-1.3,0.3-1.9c0.2-0.6,0.5-1.1,0.9-1.5s0.9-0.8,1.4-1
		s1.2-0.4,2-0.4c0.7,0,1.3,0.1,1.9,0.3c0.5,0.2,1,0.6,1.4,1L980.2,28.4z"/>
</g>
<g class="st2">
	<path class="st1" d="M986.2,26.1c0.7,0,1.3,0.1,1.9,0.3c0.6,0.2,1.1,0.5,1.5,0.9c0.4,0.4,0.7,0.9,0.9,1.5c0.2,0.6,0.3,1.3,0.3,2
		c0,0.7-0.1,1.4-0.3,2c-0.2,0.6-0.5,1.1-0.9,1.5c-0.4,0.4-0.9,0.7-1.5,1c-0.6,0.2-1.2,0.3-1.9,0.3c-0.7,0-1.3-0.1-1.9-0.3
		c-0.6-0.2-1.1-0.5-1.5-1c-0.4-0.4-0.7-0.9-1-1.5c-0.2-0.6-0.3-1.3-0.3-2c0-0.7,0.1-1.4,0.3-2c0.2-0.6,0.5-1.1,1-1.5
		c0.4-0.4,0.9-0.7,1.5-0.9C984.9,26.3,985.5,26.1,986.2,26.1z M986.2,33.8c0.7,0,1.2-0.2,1.6-0.7c0.3-0.5,0.5-1.2,0.5-2.2
		c0-1-0.2-1.7-0.5-2.2c-0.3-0.5-0.9-0.7-1.6-0.7c-0.7,0-1.3,0.2-1.6,0.7c-0.3,0.5-0.5,1.2-0.5,2.2c0,1,0.2,1.7,0.5,2.2
		C985,33.6,985.5,33.8,986.2,33.8z"/>
	<path class="st1" d="M994.8,27.4c0.2-0.2,0.4-0.3,0.6-0.5c0.2-0.1,0.4-0.3,0.6-0.4s0.5-0.2,0.7-0.3c0.3-0.1,0.5-0.1,0.9-0.1
		c0.5,0,1,0.1,1.3,0.3c0.4,0.2,0.7,0.4,1,0.7c0.3,0.3,0.5,0.7,0.6,1.1c0.1,0.4,0.2,0.9,0.2,1.4v5.9h-2.5v-5.9c0-0.5-0.1-0.9-0.4-1.2
		c-0.2-0.3-0.6-0.4-1.1-0.4c-0.3,0-0.7,0.1-1,0.2c-0.3,0.1-0.6,0.4-0.9,0.6v6.7h-2.5v-9.3h1.5c0.3,0,0.5,0.1,0.6,0.4L994.8,27.4z"/>
</g>
<g class="st2">
	<path class="st1" d="M1011,26.6v0.9c0,0.1,0,0.3-0.1,0.3c-0.1,0.1-0.2,0.1-0.4,0.2l-0.8,0.2c0.1,0.3,0.2,0.6,0.2,0.9
		c0,0.5-0.1,0.9-0.3,1.2c-0.2,0.4-0.4,0.7-0.8,0.9c-0.3,0.3-0.7,0.5-1.2,0.6c-0.4,0.1-0.9,0.2-1.5,0.2c-0.3,0-0.6,0-0.9-0.1
		c-0.3,0.2-0.4,0.3-0.4,0.5c0,0.2,0.1,0.3,0.3,0.4s0.4,0.1,0.7,0.2c0.3,0,0.6,0.1,1,0.1c0.4,0,0.7,0,1.1,0.1s0.7,0.1,1.1,0.2
		c0.4,0.1,0.7,0.2,1,0.4s0.5,0.4,0.7,0.7s0.3,0.6,0.3,1.1c0,0.4-0.1,0.8-0.3,1.2s-0.5,0.7-0.9,1c-0.4,0.3-0.9,0.6-1.4,0.7
		c-0.6,0.2-1.2,0.3-1.9,0.3c-0.7,0-1.3-0.1-1.9-0.2c-0.5-0.1-1-0.3-1.3-0.5c-0.3-0.2-0.6-0.5-0.8-0.8s-0.3-0.6-0.3-0.9
		c0-0.4,0.1-0.8,0.4-1.1s0.6-0.5,1-0.7c-0.2-0.1-0.4-0.3-0.6-0.5c-0.1-0.2-0.2-0.5-0.2-0.8c0-0.3,0.1-0.6,0.3-0.9
		c0.2-0.3,0.5-0.6,0.9-0.8c-0.5-0.3-0.8-0.6-1.1-1c-0.3-0.4-0.4-0.9-0.4-1.5c0-0.5,0.1-0.9,0.3-1.3c0.2-0.4,0.5-0.7,0.8-1
		c0.3-0.3,0.7-0.5,1.2-0.6c0.5-0.1,1-0.2,1.5-0.2c0.8,0,1.5,0.2,2.1,0.5H1011z M1008.6,35.9c0-0.2-0.1-0.3-0.2-0.4
		c-0.1-0.1-0.2-0.2-0.4-0.2c-0.2-0.1-0.4-0.1-0.6-0.1c-0.2,0-0.5,0-0.7-0.1c-0.3,0-0.5,0-0.8,0c-0.3,0-0.6,0-0.8-0.1
		c-0.2,0.1-0.4,0.3-0.5,0.4s-0.2,0.4-0.2,0.6c0,0.2,0,0.3,0.1,0.4c0.1,0.1,0.2,0.2,0.3,0.3s0.4,0.2,0.6,0.2c0.3,0.1,0.6,0.1,1,0.1
		c0.4,0,0.8,0,1-0.1c0.3-0.1,0.5-0.1,0.7-0.2s0.3-0.2,0.4-0.4C1008.5,36.3,1008.6,36.1,1008.6,35.9z M1006.2,30.6
		c0.5,0,0.9-0.1,1.1-0.4s0.4-0.6,0.4-1c0-0.4-0.1-0.8-0.4-1c-0.2-0.2-0.6-0.4-1.1-0.4s-0.9,0.1-1.1,0.4c-0.2,0.2-0.4,0.6-0.4,1
		c0,0.4,0.1,0.7,0.4,1C1005.3,30.5,1005.7,30.6,1006.2,30.6z"/>
</g>
<g class="st2">
	<path class="st1" d="M1014.2,31.3c0.1,0.9,0.3,1.5,0.7,1.9c0.4,0.4,1,0.6,1.6,0.6c0.3,0,0.6,0,0.9-0.1s0.5-0.2,0.7-0.3
		c0.2-0.1,0.4-0.2,0.5-0.3c0.2-0.1,0.3-0.1,0.5-0.1c0.2,0,0.3,0.1,0.5,0.2l0.7,0.9c-0.3,0.3-0.6,0.6-0.9,0.8c-0.3,0.2-0.6,0.4-1,0.5
		c-0.3,0.1-0.7,0.2-1,0.2c-0.3,0-0.7,0.1-1,0.1c-0.6,0-1.3-0.1-1.8-0.3c-0.6-0.2-1-0.5-1.5-0.9s-0.7-0.9-1-1.6s-0.4-1.3-0.4-2.2
		c0-0.6,0.1-1.2,0.3-1.8c0.2-0.6,0.5-1,0.9-1.5c0.4-0.4,0.9-0.7,1.4-1c0.6-0.2,1.2-0.4,1.9-0.4c0.6,0,1.1,0.1,1.6,0.3
		c0.5,0.2,0.9,0.5,1.3,0.8c0.4,0.4,0.6,0.8,0.8,1.3c0.2,0.5,0.3,1.1,0.3,1.8c0,0.2,0,0.3,0,0.5c0,0.1,0,0.2-0.1,0.3
		c0,0.1-0.1,0.1-0.2,0.1c-0.1,0-0.2,0-0.3,0H1014.2z M1018.1,29.8c0-0.3,0-0.5-0.1-0.7c-0.1-0.2-0.2-0.4-0.3-0.6
		c-0.1-0.2-0.3-0.3-0.6-0.4c-0.2-0.1-0.5-0.2-0.8-0.2c-0.6,0-1.1,0.2-1.4,0.5c-0.3,0.3-0.6,0.8-0.7,1.4H1018.1z"/>
	<path class="st1" d="M1024.4,22.2v13.4h-2.5V22.2H1024.4z"/>
	<path class="st1" d="M1026.2,27.6c0.5-0.5,1.1-0.9,1.8-1.1s1.4-0.4,2.1-0.4c0.6,0,1,0.1,1.5,0.3c0.4,0.2,0.8,0.4,1.1,0.8
		s0.5,0.7,0.7,1.1c0.2,0.4,0.2,0.9,0.2,1.5v5.8h-1.1c-0.2,0-0.4,0-0.5-0.1c-0.1-0.1-0.2-0.2-0.3-0.4l-0.2-0.6
		c-0.2,0.2-0.5,0.4-0.7,0.5c-0.2,0.2-0.4,0.3-0.7,0.4c-0.2,0.1-0.5,0.2-0.8,0.2c-0.3,0.1-0.6,0.1-0.9,0.1c-0.4,0-0.8-0.1-1.1-0.2
		c-0.3-0.1-0.6-0.3-0.9-0.5c-0.2-0.2-0.4-0.5-0.6-0.8c-0.1-0.3-0.2-0.7-0.2-1.1c0-0.3,0.1-0.7,0.3-1s0.5-0.7,0.9-0.9s1-0.5,1.7-0.7
		c0.7-0.2,1.6-0.3,2.7-0.3v-0.5c0-0.6-0.1-1-0.4-1.3c-0.2-0.3-0.6-0.4-1.1-0.4c-0.3,0-0.6,0-0.9,0.1c-0.2,0.1-0.4,0.2-0.6,0.3
		s-0.3,0.2-0.5,0.3s-0.3,0.1-0.5,0.1c-0.2,0-0.3,0-0.4-0.1c-0.1-0.1-0.2-0.2-0.3-0.3L1026.2,27.6z M1031.3,31.7
		c-0.6,0-1.1,0.1-1.5,0.2c-0.4,0.1-0.7,0.2-1,0.3s-0.4,0.3-0.5,0.4s-0.1,0.3-0.1,0.5c0,0.4,0.1,0.6,0.3,0.8c0.2,0.2,0.5,0.2,0.8,0.2
		c0.4,0,0.8-0.1,1.1-0.2c0.3-0.1,0.6-0.4,0.9-0.7V31.7z"/>
	<path class="st1" d="M1038,27.8c0.3-0.5,0.6-0.9,1-1.3c0.4-0.3,0.8-0.5,1.3-0.5c0.4,0,0.8,0.1,1,0.3l-0.2,1.8
		c0,0.1-0.1,0.2-0.1,0.2c-0.1,0-0.1,0.1-0.3,0.1c-0.1,0-0.2,0-0.4,0c-0.2,0-0.3,0-0.5,0c-0.2,0-0.4,0-0.6,0.1
		c-0.2,0.1-0.3,0.2-0.5,0.3c-0.1,0.1-0.3,0.3-0.4,0.4c-0.1,0.2-0.2,0.4-0.3,0.6v5.7h-2.5v-9.3h1.5c0.3,0,0.4,0,0.5,0.1
		c0.1,0.1,0.2,0.2,0.2,0.5L1038,27.8z"/>
	<path class="st1" d="M1044.9,22.2v13.4h-2.5V22.2H1044.9z"/>
	<path class="st1" d="M1046.8,27.6c0.5-0.5,1.1-0.9,1.8-1.1s1.4-0.4,2.1-0.4c0.6,0,1,0.1,1.5,0.3c0.4,0.2,0.8,0.4,1.1,0.8
		s0.5,0.7,0.7,1.1c0.2,0.4,0.2,0.9,0.2,1.5v5.8h-1.1c-0.2,0-0.4,0-0.5-0.1c-0.1-0.1-0.2-0.2-0.3-0.4l-0.2-0.6
		c-0.2,0.2-0.5,0.4-0.7,0.5c-0.2,0.2-0.4,0.3-0.7,0.4c-0.2,0.1-0.5,0.2-0.8,0.2c-0.3,0.1-0.6,0.1-0.9,0.1c-0.4,0-0.8-0.1-1.1-0.2
		c-0.3-0.1-0.6-0.3-0.9-0.5c-0.2-0.2-0.4-0.5-0.6-0.8c-0.1-0.3-0.2-0.7-0.2-1.1c0-0.3,0.1-0.7,0.3-1s0.5-0.7,0.9-0.9s1-0.5,1.7-0.7
		c0.7-0.2,1.6-0.3,2.7-0.3v-0.5c0-0.6-0.1-1-0.4-1.3c-0.2-0.3-0.6-0.4-1.1-0.4c-0.3,0-0.6,0-0.9,0.1c-0.2,0.1-0.4,0.2-0.6,0.3
		s-0.3,0.2-0.5,0.3s-0.3,0.1-0.5,0.1c-0.2,0-0.3,0-0.4-0.1c-0.1-0.1-0.2-0.2-0.3-0.3L1046.8,27.6z M1051.9,31.7
		c-0.6,0-1.1,0.1-1.5,0.2c-0.4,0.1-0.7,0.2-1,0.3s-0.4,0.3-0.5,0.4s-0.1,0.3-0.1,0.5c0,0.4,0.1,0.6,0.3,0.8c0.2,0.2,0.5,0.2,0.8,0.2
		c0.4,0,0.8-0.1,1.1-0.2c0.3-0.1,0.6-0.4,0.9-0.7V31.7z"/>
	<path class="st1" d="M1060.3,27.6c0.5-0.5,1.1-0.9,1.8-1.1s1.4-0.4,2.1-0.4c0.6,0,1,0.1,1.5,0.3c0.4,0.2,0.8,0.4,1.1,0.8
		s0.5,0.7,0.7,1.1c0.2,0.4,0.2,0.9,0.2,1.5v5.8h-1.1c-0.2,0-0.4,0-0.5-0.1c-0.1-0.1-0.2-0.2-0.3-0.4l-0.2-0.6
		c-0.2,0.2-0.5,0.4-0.7,0.5c-0.2,0.2-0.4,0.3-0.7,0.4c-0.2,0.1-0.5,0.2-0.8,0.2c-0.3,0.1-0.6,0.1-0.9,0.1c-0.4,0-0.8-0.1-1.1-0.2
		c-0.3-0.1-0.6-0.3-0.9-0.5c-0.2-0.2-0.4-0.5-0.6-0.8c-0.1-0.3-0.2-0.7-0.2-1.1c0-0.3,0.1-0.7,0.3-1s0.5-0.7,0.9-0.9s1-0.5,1.7-0.7
		c0.7-0.2,1.6-0.3,2.7-0.3v-0.5c0-0.6-0.1-1-0.4-1.3c-0.2-0.3-0.6-0.4-1.1-0.4c-0.3,0-0.6,0-0.9,0.1c-0.2,0.1-0.4,0.2-0.6,0.3
		s-0.3,0.2-0.5,0.3s-0.3,0.1-0.5,0.1c-0.2,0-0.3,0-0.4-0.1c-0.1-0.1-0.2-0.2-0.3-0.3L1060.3,27.6z M1065.4,31.7
		c-0.6,0-1.1,0.1-1.5,0.2c-0.4,0.1-0.7,0.2-1,0.3s-0.4,0.3-0.5,0.4s-0.1,0.3-0.1,0.5c0,0.4,0.1,0.6,0.3,0.8c0.2,0.2,0.5,0.2,0.8,0.2
		c0.4,0,0.8-0.1,1.1-0.2c0.3-0.1,0.6-0.4,0.9-0.7V31.7z"/>
	<path class="st1" d="M1077.9,26.3v12.3h-2.5v-4.1c-0.4,0.4-0.8,0.7-1.2,0.9c-0.5,0.2-1,0.3-1.6,0.3c-0.5,0-1-0.1-1.4-0.3
		s-0.8-0.5-1.1-0.9c-0.3-0.4-0.5-0.9-0.7-1.5s-0.3-1.3-0.3-2c0-0.7,0.1-1.3,0.3-1.9c0.2-0.6,0.5-1.1,0.8-1.5c0.3-0.4,0.8-0.8,1.3-1
		c0.5-0.2,1-0.4,1.6-0.4c0.3,0,0.5,0,0.8,0.1c0.2,0.1,0.4,0.1,0.6,0.2c0.2,0.1,0.4,0.2,0.5,0.3s0.3,0.3,0.5,0.4l0.1-0.4
		c0.1-0.3,0.3-0.4,0.6-0.4H1077.9z M1075.5,28.7c-0.2-0.3-0.5-0.5-0.8-0.6c-0.3-0.1-0.6-0.2-0.9-0.2c-0.3,0-0.6,0.1-0.8,0.2
		s-0.5,0.3-0.6,0.5c-0.2,0.2-0.3,0.6-0.4,0.9s-0.1,0.8-0.1,1.3c0,0.5,0,1,0.1,1.3c0.1,0.4,0.2,0.7,0.3,0.9s0.3,0.4,0.5,0.5
		s0.4,0.1,0.7,0.1c0.4,0,0.8-0.1,1.1-0.3s0.6-0.4,0.8-0.7V28.7z"/>
	<path class="st1" d="M1088.1,26.3v9.3h-1.5c-0.3,0-0.5-0.1-0.6-0.4l-0.2-0.6c-0.2,0.2-0.4,0.3-0.6,0.5s-0.4,0.3-0.6,0.4
		c-0.2,0.1-0.5,0.2-0.7,0.3c-0.3,0.1-0.5,0.1-0.9,0.1c-0.5,0-1-0.1-1.3-0.3c-0.4-0.2-0.7-0.4-1-0.7c-0.3-0.3-0.5-0.7-0.6-1.1
		c-0.1-0.4-0.2-0.9-0.2-1.4v-5.9h2.5v5.9c0,0.5,0.1,0.9,0.4,1.2c0.2,0.3,0.6,0.4,1.1,0.4c0.3,0,0.7-0.1,1-0.2
		c0.3-0.2,0.6-0.4,0.9-0.6v-6.7H1088.1z"/>
	<path class="st1" d="M1092.8,26.3v9.3h-2.5v-9.3H1092.8z M1094.9,22.4l-2.3,2.4c-0.1,0.1-0.2,0.2-0.4,0.3c-0.1,0.1-0.3,0.1-0.5,0.1
		h-1.5l1.3-2.2c0.1-0.2,0.2-0.3,0.3-0.4s0.3-0.1,0.6-0.1H1094.9z"/>
</g>
<g class="st2">
	<path class="st0" d="M1144,29.8c0,0.8-0.1,1.6-0.4,2.3s-0.7,1.3-1.2,1.8c-0.5,0.5-1.1,0.9-1.9,1.2s-1.5,0.4-2.4,0.4h-4.5V24h4.5
		c0.9,0,1.7,0.1,2.4,0.4s1.4,0.7,1.9,1.2c0.5,0.5,0.9,1.1,1.2,1.8C1143.9,28.1,1144,28.9,1144,29.8z M1141.6,29.8
		c0-0.6-0.1-1.2-0.2-1.6c-0.2-0.5-0.4-0.9-0.7-1.2s-0.7-0.6-1.1-0.8c-0.4-0.2-0.9-0.3-1.5-0.3h-2v7.8h2c0.5,0,1-0.1,1.5-0.3
		c0.4-0.2,0.8-0.4,1.1-0.8s0.5-0.8,0.7-1.2S1141.6,30.4,1141.6,29.8z"/>
</g>
<g class="st2">
	<path class="st0" d="M1147.2,31.8c0.1,0.8,0.3,1.3,0.7,1.7s0.9,0.5,1.5,0.5c0.3,0,0.6,0,0.8-0.1c0.2-0.1,0.4-0.2,0.6-0.2
		c0.2-0.1,0.3-0.2,0.5-0.2c0.1-0.1,0.3-0.1,0.4-0.1c0.2,0,0.3,0.1,0.4,0.2l0.6,0.8c-0.2,0.3-0.5,0.5-0.8,0.7
		c-0.3,0.2-0.6,0.3-0.9,0.4c-0.3,0.1-0.6,0.2-0.9,0.2c-0.3,0-0.6,0.1-0.9,0.1c-0.6,0-1.1-0.1-1.6-0.3c-0.5-0.2-0.9-0.5-1.3-0.8
		s-0.7-0.8-0.9-1.4c-0.2-0.5-0.3-1.2-0.3-1.9c0-0.6,0.1-1.1,0.3-1.6s0.4-0.9,0.8-1.3s0.8-0.7,1.3-0.9s1.1-0.3,1.7-0.3
		c0.5,0,1,0.1,1.5,0.3c0.4,0.2,0.8,0.4,1.2,0.7c0.3,0.3,0.6,0.7,0.8,1.2c0.2,0.5,0.3,1,0.3,1.6c0,0.2,0,0.3,0,0.4s0,0.2-0.1,0.3
		c0,0.1-0.1,0.1-0.2,0.1c-0.1,0-0.1,0-0.2,0H1147.2z M1150.6,30.5c0-0.2,0-0.4-0.1-0.7s-0.2-0.4-0.3-0.6s-0.3-0.3-0.5-0.4
		c-0.2-0.1-0.4-0.1-0.7-0.1c-0.5,0-0.9,0.1-1.2,0.4c-0.3,0.3-0.5,0.7-0.6,1.3H1150.6z"/>
	<path class="st0" d="M1159.1,29c-0.1,0.1-0.1,0.2-0.2,0.2c-0.1,0-0.1,0.1-0.3,0.1c-0.1,0-0.2,0-0.3-0.1c-0.1-0.1-0.2-0.1-0.4-0.2
		s-0.3-0.1-0.5-0.2c-0.2-0.1-0.4-0.1-0.6-0.1c-0.4,0-0.6,0.1-0.8,0.2s-0.3,0.3-0.3,0.6c0,0.2,0.1,0.3,0.2,0.4
		c0.1,0.1,0.3,0.2,0.4,0.3s0.4,0.2,0.6,0.2c0.2,0.1,0.5,0.2,0.7,0.2c0.2,0.1,0.5,0.2,0.7,0.3c0.2,0.1,0.4,0.3,0.6,0.4
		s0.3,0.4,0.4,0.6c0.1,0.2,0.2,0.5,0.2,0.9c0,0.4-0.1,0.8-0.2,1.1c-0.1,0.3-0.4,0.6-0.6,0.9c-0.3,0.2-0.6,0.4-1.1,0.6
		c-0.4,0.1-0.9,0.2-1.5,0.2c-0.3,0-0.6,0-0.8-0.1s-0.5-0.1-0.8-0.2c-0.3-0.1-0.5-0.2-0.7-0.3c-0.2-0.1-0.4-0.3-0.6-0.4l0.5-0.8
		c0.1-0.1,0.1-0.2,0.2-0.2c0.1-0.1,0.2-0.1,0.3-0.1c0.1,0,0.3,0,0.4,0.1c0.1,0.1,0.2,0.1,0.4,0.2s0.3,0.1,0.5,0.2
		c0.2,0.1,0.4,0.1,0.7,0.1c0.2,0,0.4,0,0.6-0.1c0.2,0,0.3-0.1,0.4-0.2c0.1-0.1,0.2-0.2,0.2-0.3c0-0.1,0.1-0.2,0.1-0.3
		c0-0.2-0.1-0.3-0.2-0.4c-0.1-0.1-0.3-0.2-0.4-0.3c-0.2-0.1-0.4-0.2-0.6-0.2c-0.2-0.1-0.5-0.1-0.7-0.2s-0.5-0.2-0.7-0.3
		s-0.4-0.3-0.6-0.4s-0.3-0.4-0.4-0.7c-0.1-0.3-0.2-0.6-0.2-1c0-0.3,0.1-0.7,0.2-1s0.3-0.6,0.6-0.8c0.3-0.2,0.6-0.4,1-0.6
		s0.9-0.2,1.4-0.2c0.6,0,1.1,0.1,1.6,0.3c0.5,0.2,0.9,0.4,1.2,0.8L1159.1,29z"/>
</g>
<g class="st2">
	<path class="st0" d="M1167.1,29.2c-0.1,0.1-0.1,0.2-0.2,0.2s-0.2,0.1-0.3,0.1c-0.1,0-0.2,0-0.3-0.1c-0.1-0.1-0.2-0.1-0.3-0.2
		c-0.1-0.1-0.3-0.1-0.5-0.2s-0.4-0.1-0.7-0.1c-0.3,0-0.6,0.1-0.9,0.2c-0.2,0.1-0.4,0.3-0.6,0.5c-0.2,0.2-0.3,0.5-0.4,0.8
		c-0.1,0.3-0.1,0.7-0.1,1.1c0,0.8,0.2,1.5,0.5,1.9c0.3,0.4,0.8,0.7,1.4,0.7c0.2,0,0.4,0,0.5-0.1c0.1,0,0.3-0.1,0.4-0.1
		s0.2-0.1,0.3-0.2c0.1-0.1,0.2-0.1,0.2-0.2c0.1-0.1,0.1-0.1,0.2-0.1c0.1,0,0.2-0.1,0.2-0.1c0.2,0,0.3,0.1,0.4,0.2l0.6,0.8
		c-0.2,0.3-0.5,0.5-0.8,0.7s-0.5,0.3-0.8,0.4c-0.3,0.1-0.6,0.2-0.9,0.2s-0.6,0.1-0.9,0.1c-0.5,0-1-0.1-1.4-0.3
		c-0.5-0.2-0.9-0.5-1.2-0.8c-0.3-0.4-0.6-0.8-0.8-1.3c-0.2-0.5-0.3-1.1-0.3-1.8c0-0.6,0.1-1.2,0.3-1.7c0.2-0.5,0.4-1,0.8-1.3
		c0.3-0.4,0.8-0.7,1.3-0.9s1.1-0.3,1.7-0.3c0.6,0,1.2,0.1,1.7,0.3c0.5,0.2,0.9,0.5,1.3,0.9L1167.1,29.2z"/>
</g>
<g class="st2">
	<path class="st0" d="M1172.5,27.2c0.6,0,1.2,0.1,1.7,0.3s0.9,0.5,1.3,0.8c0.4,0.4,0.6,0.8,0.8,1.3c0.2,0.5,0.3,1.1,0.3,1.8
		c0,0.7-0.1,1.2-0.3,1.8s-0.5,1-0.8,1.3c-0.4,0.4-0.8,0.7-1.3,0.8s-1.1,0.3-1.7,0.3c-0.6,0-1.2-0.1-1.7-0.3
		c-0.5-0.2-0.9-0.5-1.3-0.8c-0.4-0.4-0.6-0.8-0.8-1.3s-0.3-1.1-0.3-1.8c0-0.7,0.1-1.2,0.3-1.8c0.2-0.5,0.5-1,0.8-1.3
		c0.4-0.4,0.8-0.6,1.3-0.8C1171.3,27.3,1171.9,27.2,1172.5,27.2z M1172.5,34c0.6,0,1.1-0.2,1.4-0.7c0.3-0.4,0.5-1.1,0.5-1.9
		c0-0.9-0.2-1.5-0.5-1.9s-0.8-0.7-1.4-0.7c-0.6,0-1.1,0.2-1.4,0.7c-0.3,0.4-0.5,1.1-0.5,1.9c0,0.9,0.2,1.5,0.5,1.9
		C1171.4,33.8,1171.9,34,1172.5,34z"/>
	<path class="st0" d="M1180.1,28.3c0.2-0.2,0.3-0.3,0.5-0.4c0.2-0.1,0.4-0.2,0.6-0.3c0.2-0.1,0.4-0.2,0.6-0.2
		c0.2-0.1,0.5-0.1,0.8-0.1c0.4,0,0.8,0.1,1.2,0.2c0.3,0.2,0.6,0.4,0.9,0.6c0.2,0.3,0.4,0.6,0.5,1c0.1,0.4,0.2,0.8,0.2,1.3v5.2h-2.2
		v-5.2c0-0.5-0.1-0.8-0.3-1.1c-0.2-0.3-0.5-0.4-0.9-0.4c-0.3,0-0.6,0.1-0.9,0.2c-0.3,0.1-0.5,0.3-0.8,0.6v5.9h-2.2v-8.2h1.4
		c0.3,0,0.5,0.1,0.6,0.4L1180.1,28.3z"/>
</g>
<g class="st2">
	<path class="st0" d="M1194.6,27.6v0.8c0,0.1,0,0.2-0.1,0.3c-0.1,0.1-0.2,0.1-0.4,0.2l-0.7,0.1c0.1,0.3,0.1,0.5,0.1,0.8
		c0,0.4-0.1,0.8-0.3,1.1s-0.4,0.6-0.7,0.8c-0.3,0.2-0.6,0.4-1,0.5c-0.4,0.1-0.8,0.2-1.3,0.2c-0.3,0-0.6,0-0.8-0.1
		c-0.2,0.1-0.3,0.3-0.3,0.5c0,0.2,0.1,0.3,0.2,0.3c0.2,0.1,0.4,0.1,0.6,0.1s0.5,0,0.8,0.1c0.3,0,0.6,0,1,0.1c0.3,0,0.7,0.1,1,0.1
		c0.3,0.1,0.6,0.2,0.8,0.3c0.2,0.2,0.4,0.4,0.6,0.6c0.2,0.3,0.2,0.6,0.2,1c0,0.4-0.1,0.7-0.3,1.1s-0.4,0.7-0.8,0.9
		c-0.3,0.3-0.8,0.5-1.3,0.7c-0.5,0.2-1.1,0.2-1.7,0.2c-0.6,0-1.2-0.1-1.7-0.2c-0.5-0.1-0.9-0.3-1.2-0.5s-0.5-0.4-0.7-0.7
		c-0.2-0.3-0.2-0.5-0.2-0.8c0-0.4,0.1-0.7,0.3-0.9c0.2-0.3,0.5-0.5,0.9-0.6c-0.2-0.1-0.4-0.3-0.5-0.5s-0.2-0.4-0.2-0.7
		c0-0.2,0.1-0.5,0.3-0.8c0.2-0.3,0.5-0.5,0.8-0.7c-0.4-0.2-0.8-0.5-1-0.9s-0.4-0.8-0.4-1.3c0-0.4,0.1-0.8,0.3-1.1s0.4-0.6,0.7-0.8
		c0.3-0.2,0.7-0.4,1.1-0.5c0.4-0.1,0.8-0.2,1.3-0.2c0.7,0,1.3,0.1,1.9,0.4H1194.6z M1192.4,35.9c0-0.1,0-0.3-0.1-0.4
		c-0.1-0.1-0.2-0.2-0.4-0.2c-0.2-0.1-0.3-0.1-0.5-0.1c-0.2,0-0.4,0-0.7-0.1c-0.2,0-0.5,0-0.7,0c-0.3,0-0.5,0-0.7-0.1
		c-0.2,0.1-0.3,0.2-0.5,0.4c-0.1,0.2-0.2,0.3-0.2,0.5c0,0.1,0,0.3,0.1,0.4s0.2,0.2,0.3,0.3c0.1,0.1,0.3,0.1,0.6,0.2
		c0.2,0,0.5,0.1,0.9,0.1c0.4,0,0.7,0,0.9-0.1c0.3,0,0.5-0.1,0.6-0.2c0.2-0.1,0.3-0.2,0.3-0.3C1192.3,36.2,1192.4,36.1,1192.4,35.9z
		 M1190.3,31.1c0.5,0,0.8-0.1,1-0.3c0.2-0.2,0.3-0.5,0.3-0.9c0-0.4-0.1-0.7-0.3-0.9c-0.2-0.2-0.6-0.3-1-0.3s-0.8,0.1-1,0.3
		c-0.2,0.2-0.3,0.5-0.3,0.9c0,0.4,0.1,0.7,0.3,0.9C1189.5,31,1189.8,31.1,1190.3,31.1z"/>
</g>
<g class="st2">
	<path class="st0" d="M1197.4,31.8c0.1,0.8,0.3,1.3,0.7,1.7c0.4,0.4,0.9,0.5,1.5,0.5c0.3,0,0.6,0,0.8-0.1s0.4-0.2,0.6-0.2
		c0.2-0.1,0.3-0.2,0.5-0.2c0.1-0.1,0.3-0.1,0.4-0.1c0.2,0,0.3,0.1,0.4,0.2l0.6,0.8c-0.2,0.3-0.5,0.5-0.8,0.7
		c-0.3,0.2-0.6,0.3-0.9,0.4c-0.3,0.1-0.6,0.2-0.9,0.2c-0.3,0-0.6,0.1-0.9,0.1c-0.6,0-1.1-0.1-1.6-0.3c-0.5-0.2-0.9-0.5-1.3-0.8
		c-0.4-0.4-0.7-0.8-0.9-1.4c-0.2-0.5-0.3-1.2-0.3-1.9c0-0.6,0.1-1.1,0.3-1.6c0.2-0.5,0.4-0.9,0.8-1.3s0.8-0.7,1.3-0.9
		s1.1-0.3,1.7-0.3c0.5,0,1,0.1,1.5,0.3s0.8,0.4,1.2,0.7c0.3,0.3,0.6,0.7,0.8,1.2s0.3,1,0.3,1.6c0,0.2,0,0.3,0,0.4
		c0,0.1,0,0.2-0.1,0.3c0,0.1-0.1,0.1-0.2,0.1c-0.1,0-0.1,0-0.2,0H1197.4z M1200.9,30.5c0-0.2,0-0.4-0.1-0.7
		c-0.1-0.2-0.2-0.4-0.3-0.6c-0.1-0.2-0.3-0.3-0.5-0.4c-0.2-0.1-0.4-0.1-0.7-0.1c-0.5,0-0.9,0.1-1.2,0.4s-0.5,0.7-0.6,1.3H1200.9z"/>
	<path class="st0" d="M1206.4,23.6v11.9h-2.2V23.6H1206.4z"/>
	<path class="st0" d="M1208.1,28.5c0.5-0.4,1-0.8,1.6-1s1.2-0.3,1.9-0.3c0.5,0,0.9,0.1,1.3,0.2c0.4,0.2,0.7,0.4,1,0.7
		c0.3,0.3,0.5,0.6,0.6,1c0.1,0.4,0.2,0.8,0.2,1.3v5.2h-1c-0.2,0-0.4,0-0.5-0.1s-0.2-0.2-0.3-0.4l-0.2-0.5c-0.2,0.2-0.4,0.3-0.6,0.5
		c-0.2,0.1-0.4,0.3-0.6,0.3c-0.2,0.1-0.4,0.2-0.7,0.2s-0.5,0.1-0.8,0.1c-0.4,0-0.7,0-1-0.1c-0.3-0.1-0.6-0.2-0.8-0.4
		c-0.2-0.2-0.4-0.4-0.5-0.7c-0.1-0.3-0.2-0.6-0.2-1c0-0.3,0.1-0.6,0.2-0.9c0.2-0.3,0.4-0.6,0.8-0.8s0.9-0.5,1.5-0.6
		c0.6-0.2,1.4-0.3,2.4-0.3v-0.4c0-0.5-0.1-0.9-0.3-1.1c-0.2-0.2-0.5-0.4-0.9-0.4c-0.3,0-0.6,0-0.8,0.1c-0.2,0.1-0.4,0.1-0.5,0.2
		c-0.2,0.1-0.3,0.2-0.4,0.2c-0.1,0.1-0.3,0.1-0.5,0.1c-0.2,0-0.3,0-0.4-0.1c-0.1-0.1-0.2-0.2-0.3-0.3L1208.1,28.5z M1212.6,32.1
		c-0.5,0-1,0.1-1.3,0.1c-0.4,0.1-0.6,0.2-0.9,0.3s-0.4,0.2-0.4,0.4c-0.1,0.1-0.1,0.3-0.1,0.4c0,0.3,0.1,0.5,0.3,0.7
		c0.2,0.1,0.4,0.2,0.7,0.2c0.4,0,0.7-0.1,1-0.2s0.5-0.3,0.8-0.6V32.1z"/>
</g>
<g class="st2">
	<path class="st0" d="M1218.8,28.7c0.3-0.5,0.6-0.8,0.9-1.1s0.7-0.4,1.2-0.4c0.4,0,0.7,0.1,0.9,0.3l-0.1,1.6c0,0.1-0.1,0.2-0.1,0.2
		c-0.1,0-0.1,0.1-0.2,0.1c-0.1,0-0.2,0-0.4,0c-0.2,0-0.3,0-0.4,0c-0.2,0-0.4,0-0.5,0.1s-0.3,0.1-0.4,0.2c-0.1,0.1-0.2,0.2-0.3,0.4
		c-0.1,0.2-0.2,0.3-0.3,0.5v5h-2.2v-8.2h1.3c0.2,0,0.4,0,0.5,0.1s0.1,0.2,0.2,0.4L1218.8,28.7z"/>
</g>
</svg>
