<?xml version="1.0" encoding="utf-8"?>
<!-- Generator: Adobe Illustrator 23.0.0, SVG Export Plug-In . SVG Version: 6.00 Build 0)  -->
<svg version="1.1" id="Layer_1" xmlns="http://www.w3.org/2000/svg" xmlns:xlink="http://www.w3.org/1999/xlink" x="0px" y="0px"
	 viewBox="0 0 500 90" style="enable-background:new 0 0 500 90;" xml:space="preserve">
<style type="text/css">
	.st0{fill:#0FA3F4;}
	.st1{enable-background:new    ;}
	.st2{fill:#FFFFFF;}
</style>
<title>Cuenta_Congelada_Cintillos_WEB</title>
<rect id="Rectángulo_575" class="st0" width="500" height="90"/>
<g class="st1">
	<path class="st2" d="M81.4,22.8h-3.2v9.1H76v-9.1h-3.2v-1.8h8.6V22.8z"/>
</g>
<g class="st1">
	<path class="st2" d="M88.1,24.1v7.7h-1.3c-0.3,0-0.4-0.1-0.5-0.4l-0.1-0.5c-0.2,0.2-0.3,0.3-0.5,0.4s-0.3,0.2-0.5,0.3
		s-0.4,0.2-0.6,0.2c-0.2,0-0.5,0.1-0.7,0.1c-0.4,0-0.8-0.1-1.1-0.2c-0.3-0.1-0.6-0.3-0.8-0.6c-0.2-0.3-0.4-0.6-0.5-0.9
		c-0.1-0.4-0.2-0.8-0.2-1.2v-4.9h2.1V29c0,0.4,0.1,0.8,0.3,1c0.2,0.2,0.5,0.4,0.9,0.4c0.3,0,0.6-0.1,0.8-0.2
		c0.3-0.1,0.5-0.3,0.7-0.5v-5.6H88.1z"/>
	<path class="st2" d="M99,25.8c-0.1,0.1-0.1,0.1-0.2,0.2c-0.1,0-0.1,0.1-0.3,0.1c-0.1,0-0.2,0-0.3-0.1c-0.1-0.1-0.2-0.1-0.3-0.2
		c-0.1-0.1-0.3-0.1-0.4-0.2c-0.2-0.1-0.4-0.1-0.6-0.1c-0.3,0-0.6,0.1-0.8,0.2s-0.4,0.3-0.6,0.5c-0.1,0.2-0.3,0.5-0.3,0.8
		c-0.1,0.3-0.1,0.6-0.1,1c0,0.8,0.2,1.4,0.5,1.8c0.3,0.4,0.8,0.6,1.3,0.6c0.2,0,0.4,0,0.5,0c0.1,0,0.3-0.1,0.4-0.1
		c0.1,0,0.2-0.1,0.3-0.2c0.1-0.1,0.1-0.1,0.2-0.2c0.1-0.1,0.1-0.1,0.2-0.1c0.1,0,0.1,0,0.2,0c0.2,0,0.3,0.1,0.4,0.2l0.6,0.8
		c-0.2,0.3-0.5,0.5-0.7,0.6c-0.3,0.2-0.5,0.3-0.8,0.4s-0.5,0.2-0.8,0.2c-0.3,0-0.5,0.1-0.8,0.1c-0.5,0-0.9-0.1-1.4-0.3
		c-0.4-0.2-0.8-0.4-1.1-0.8c-0.3-0.3-0.6-0.8-0.8-1.3s-0.3-1.1-0.3-1.7c0-0.6,0.1-1.1,0.2-1.6c0.2-0.5,0.4-0.9,0.7-1.3
		c0.3-0.4,0.7-0.6,1.2-0.8s1-0.3,1.6-0.3c0.6,0,1.1,0.1,1.6,0.3c0.4,0.2,0.8,0.5,1.2,0.8L99,25.8z"/>
	<path class="st2" d="M107.4,24.1v7.7h-1.3c-0.3,0-0.4-0.1-0.5-0.4l-0.1-0.5c-0.2,0.2-0.3,0.3-0.5,0.4s-0.3,0.2-0.5,0.3
		s-0.4,0.2-0.6,0.2c-0.2,0-0.5,0.1-0.7,0.1c-0.4,0-0.8-0.1-1.1-0.2c-0.3-0.1-0.6-0.3-0.8-0.6c-0.2-0.3-0.4-0.6-0.5-0.9
		c-0.1-0.4-0.2-0.8-0.2-1.2v-4.9h2.1V29c0,0.4,0.1,0.8,0.3,1c0.2,0.2,0.5,0.4,0.9,0.4c0.3,0,0.6-0.1,0.8-0.2
		c0.3-0.1,0.5-0.3,0.7-0.5v-5.6H107.4z"/>
	<path class="st2" d="M110.8,28.3c0.1,0.7,0.3,1.3,0.6,1.6c0.3,0.3,0.8,0.5,1.4,0.5c0.3,0,0.5,0,0.7-0.1c0.2-0.1,0.4-0.1,0.5-0.2
		c0.2-0.1,0.3-0.2,0.4-0.2c0.1-0.1,0.3-0.1,0.4-0.1c0.2,0,0.3,0.1,0.4,0.2l0.6,0.8c-0.2,0.3-0.5,0.5-0.7,0.6
		c-0.3,0.2-0.5,0.3-0.8,0.4s-0.6,0.2-0.9,0.2c-0.3,0-0.6,0.1-0.8,0.1c-0.5,0-1-0.1-1.5-0.3c-0.5-0.2-0.9-0.4-1.2-0.8
		c-0.3-0.3-0.6-0.8-0.8-1.3c-0.2-0.5-0.3-1.1-0.3-1.8c0-0.5,0.1-1,0.3-1.5s0.4-0.9,0.7-1.2c0.3-0.3,0.7-0.6,1.2-0.8
		c0.5-0.2,1-0.3,1.6-0.3c0.5,0,1,0.1,1.4,0.2s0.8,0.4,1.1,0.7c0.3,0.3,0.5,0.7,0.7,1.1c0.2,0.4,0.3,0.9,0.3,1.5c0,0.2,0,0.3,0,0.4
		c0,0.1,0,0.2-0.1,0.2c0,0.1-0.1,0.1-0.1,0.1s-0.1,0-0.2,0H110.8z M114,27c0-0.2,0-0.4-0.1-0.6c-0.1-0.2-0.1-0.4-0.3-0.5
		c-0.1-0.1-0.3-0.3-0.5-0.4c-0.2-0.1-0.4-0.1-0.7-0.1c-0.5,0-0.9,0.1-1.2,0.4c-0.3,0.3-0.5,0.7-0.5,1.2H114z"/>
</g>
<g class="st1">
	<path class="st2" d="M119.2,25c0.2-0.2,0.3-0.3,0.5-0.4s0.3-0.2,0.5-0.3s0.4-0.2,0.6-0.2c0.2,0,0.5-0.1,0.7-0.1
		c0.4,0,0.8,0.1,1.1,0.2c0.3,0.1,0.6,0.3,0.8,0.6c0.2,0.3,0.4,0.6,0.5,0.9c0.1,0.4,0.2,0.8,0.2,1.2v4.9H122v-4.9
		c0-0.4-0.1-0.8-0.3-1c-0.2-0.2-0.5-0.4-0.9-0.4c-0.3,0-0.6,0.1-0.8,0.2c-0.3,0.1-0.5,0.3-0.7,0.5v5.6h-2.1v-7.7h1.3
		c0.3,0,0.4,0.1,0.5,0.4L119.2,25z"/>
</g>
<g class="st1">
	<path class="st2" d="M128.4,31.9c-0.4,0-0.7-0.1-0.9-0.2c-0.3-0.1-0.5-0.2-0.7-0.4c-0.2-0.2-0.3-0.4-0.4-0.7
		c-0.1-0.3-0.1-0.6-0.1-0.9v-4.2h-0.7c-0.1,0-0.2,0-0.3-0.1s-0.1-0.2-0.1-0.3v-0.8l1.2-0.2l0.4-2c0.1-0.2,0.2-0.3,0.5-0.3h1.1v2.4h2
		v1.4h-2v4c0,0.2,0.1,0.4,0.2,0.5s0.2,0.2,0.4,0.2c0.1,0,0.2,0,0.3,0c0.1,0,0.1,0,0.2-0.1c0.1,0,0.1-0.1,0.1-0.1c0,0,0.1,0,0.1,0
		c0.1,0,0.1,0,0.2,0c0,0,0.1,0.1,0.1,0.1l0.6,1c-0.3,0.2-0.6,0.4-1,0.5C129.1,31.9,128.7,31.9,128.4,31.9z"/>
	<path class="st2" d="M131.2,25.2c0.5-0.4,1-0.7,1.5-0.9c0.5-0.2,1.1-0.3,1.8-0.3c0.5,0,0.9,0.1,1.2,0.2c0.4,0.1,0.7,0.4,0.9,0.6
		s0.4,0.6,0.6,1c0.1,0.4,0.2,0.8,0.2,1.2v4.9h-0.9c-0.2,0-0.3,0-0.4-0.1c-0.1-0.1-0.2-0.2-0.3-0.3l-0.2-0.5
		c-0.2,0.2-0.4,0.3-0.6,0.5c-0.2,0.1-0.4,0.2-0.6,0.3c-0.2,0.1-0.4,0.2-0.6,0.2s-0.5,0.1-0.7,0.1c-0.3,0-0.6,0-0.9-0.1
		c-0.3-0.1-0.5-0.2-0.7-0.4s-0.4-0.4-0.5-0.7c-0.1-0.3-0.2-0.6-0.2-0.9c0-0.3,0.1-0.6,0.2-0.9c0.1-0.3,0.4-0.5,0.7-0.8
		s0.8-0.4,1.4-0.6c0.6-0.2,1.3-0.2,2.2-0.3V27c0-0.5-0.1-0.8-0.3-1.1s-0.5-0.3-0.9-0.3c-0.3,0-0.5,0-0.7,0.1
		c-0.2,0.1-0.4,0.1-0.5,0.2s-0.3,0.2-0.4,0.2s-0.3,0.1-0.4,0.1c-0.1,0-0.3,0-0.4-0.1c-0.1-0.1-0.2-0.2-0.2-0.3L131.2,25.2z
		 M135.4,28.6c-0.5,0-0.9,0.1-1.3,0.1c-0.3,0.1-0.6,0.1-0.8,0.2c-0.2,0.1-0.3,0.2-0.4,0.3c-0.1,0.1-0.1,0.3-0.1,0.4
		c0,0.3,0.1,0.5,0.3,0.6s0.4,0.2,0.7,0.2c0.3,0,0.6-0.1,0.9-0.2c0.3-0.1,0.5-0.3,0.8-0.6V28.6z"/>
	<path class="st2" d="M144.2,28.3c0.1,0.7,0.3,1.3,0.6,1.6c0.3,0.3,0.8,0.5,1.4,0.5c0.3,0,0.5,0,0.7-0.1c0.2-0.1,0.4-0.1,0.5-0.2
		c0.2-0.1,0.3-0.2,0.4-0.2c0.1-0.1,0.3-0.1,0.4-0.1c0.2,0,0.3,0.1,0.4,0.2l0.6,0.8c-0.2,0.3-0.5,0.5-0.7,0.6
		c-0.3,0.2-0.5,0.3-0.8,0.4s-0.6,0.2-0.9,0.2c-0.3,0-0.6,0.1-0.8,0.1c-0.5,0-1-0.1-1.5-0.3c-0.5-0.2-0.9-0.4-1.2-0.8
		c-0.3-0.3-0.6-0.8-0.8-1.3c-0.2-0.5-0.3-1.1-0.3-1.8c0-0.5,0.1-1,0.3-1.5s0.4-0.9,0.7-1.2c0.3-0.3,0.7-0.6,1.2-0.8
		c0.5-0.2,1-0.3,1.6-0.3c0.5,0,1,0.1,1.4,0.2s0.8,0.4,1.1,0.7c0.3,0.3,0.5,0.7,0.7,1.1c0.2,0.4,0.3,0.9,0.3,1.5c0,0.2,0,0.3,0,0.4
		c0,0.1,0,0.2-0.1,0.2c0,0.1-0.1,0.1-0.1,0.1s-0.1,0-0.2,0H144.2z M147.5,27c0-0.2,0-0.4-0.1-0.6c-0.1-0.2-0.1-0.4-0.3-0.5
		c-0.1-0.1-0.3-0.3-0.5-0.4c-0.2-0.1-0.4-0.1-0.7-0.1c-0.5,0-0.9,0.1-1.2,0.4c-0.3,0.3-0.5,0.7-0.5,1.2H147.5z"/>
	<path class="st2" d="M155.4,25.7c-0.1,0.1-0.1,0.1-0.2,0.2c-0.1,0-0.1,0.1-0.2,0.1s-0.2,0-0.3-0.1s-0.2-0.1-0.4-0.2
		c-0.1-0.1-0.3-0.1-0.4-0.2s-0.4-0.1-0.6-0.1c-0.3,0-0.6,0.1-0.8,0.2s-0.3,0.3-0.3,0.5c0,0.2,0.1,0.3,0.2,0.4
		c0.1,0.1,0.2,0.2,0.4,0.3c0.2,0.1,0.4,0.1,0.6,0.2c0.2,0.1,0.4,0.1,0.7,0.2c0.2,0.1,0.5,0.2,0.7,0.3c0.2,0.1,0.4,0.2,0.6,0.4
		c0.2,0.2,0.3,0.3,0.4,0.6s0.2,0.5,0.2,0.8c0,0.4-0.1,0.7-0.2,1c-0.1,0.3-0.3,0.6-0.6,0.8c-0.3,0.2-0.6,0.4-1,0.5s-0.9,0.2-1.4,0.2
		c-0.3,0-0.5,0-0.8-0.1c-0.3,0-0.5-0.1-0.7-0.2c-0.2-0.1-0.5-0.2-0.7-0.3c-0.2-0.1-0.4-0.2-0.5-0.4l0.5-0.8c0.1-0.1,0.1-0.2,0.2-0.2
		c0.1,0,0.2-0.1,0.3-0.1c0.1,0,0.2,0,0.3,0.1s0.2,0.1,0.4,0.2c0.1,0.1,0.3,0.1,0.5,0.2s0.4,0.1,0.7,0.1c0.2,0,0.4,0,0.5-0.1
		s0.3-0.1,0.4-0.2c0.1-0.1,0.2-0.2,0.2-0.3s0.1-0.2,0.1-0.3c0-0.2-0.1-0.3-0.2-0.4c-0.1-0.1-0.2-0.2-0.4-0.3
		c-0.2-0.1-0.4-0.2-0.6-0.2c-0.2-0.1-0.5-0.1-0.7-0.2s-0.5-0.2-0.7-0.3c-0.2-0.1-0.4-0.2-0.6-0.4c-0.2-0.2-0.3-0.4-0.4-0.6
		c-0.1-0.2-0.2-0.5-0.2-0.9c0-0.3,0.1-0.6,0.2-0.9c0.1-0.3,0.3-0.5,0.6-0.8c0.3-0.2,0.6-0.4,0.9-0.5c0.4-0.1,0.8-0.2,1.3-0.2
		c0.6,0,1.1,0.1,1.5,0.3c0.5,0.2,0.8,0.4,1.1,0.7L155.4,25.7z"/>
	<path class="st2" d="M159.9,31.9c-0.4,0-0.7-0.1-0.9-0.2c-0.3-0.1-0.5-0.2-0.7-0.4c-0.2-0.2-0.3-0.4-0.4-0.7
		c-0.1-0.3-0.1-0.6-0.1-0.9v-4.2H157c-0.1,0-0.2,0-0.3-0.1s-0.1-0.2-0.1-0.3v-0.8l1.2-0.2l0.4-2c0.1-0.2,0.2-0.3,0.5-0.3h1.1v2.4h2
		v1.4h-2v4c0,0.2,0.1,0.4,0.2,0.5s0.2,0.2,0.4,0.2c0.1,0,0.2,0,0.3,0c0.1,0,0.1,0,0.2-0.1c0.1,0,0.1-0.1,0.1-0.1c0,0,0.1,0,0.1,0
		c0.1,0,0.1,0,0.2,0c0,0,0.1,0.1,0.1,0.1l0.6,1c-0.3,0.2-0.6,0.4-1,0.5C160.7,31.9,160.3,31.9,159.9,31.9z"/>
	<path class="st2" d="M162.8,25.2c0.5-0.4,1-0.7,1.5-0.9c0.5-0.2,1.1-0.3,1.8-0.3c0.5,0,0.9,0.1,1.2,0.2c0.4,0.1,0.7,0.4,0.9,0.6
		s0.4,0.6,0.6,1c0.1,0.4,0.2,0.8,0.2,1.2v4.9H168c-0.2,0-0.3,0-0.4-0.1c-0.1-0.1-0.2-0.2-0.3-0.3l-0.2-0.5c-0.2,0.2-0.4,0.3-0.6,0.5
		c-0.2,0.1-0.4,0.2-0.6,0.3c-0.2,0.1-0.4,0.2-0.6,0.2s-0.5,0.1-0.7,0.1c-0.3,0-0.6,0-0.9-0.1c-0.3-0.1-0.5-0.2-0.7-0.4
		s-0.4-0.4-0.5-0.7c-0.1-0.3-0.2-0.6-0.2-0.9c0-0.3,0.1-0.6,0.2-0.9c0.1-0.3,0.4-0.5,0.7-0.8s0.8-0.4,1.4-0.6
		c0.6-0.2,1.3-0.2,2.2-0.3V27c0-0.5-0.1-0.8-0.3-1.1s-0.5-0.3-0.9-0.3c-0.3,0-0.5,0-0.7,0.1c-0.2,0.1-0.4,0.1-0.5,0.2
		s-0.3,0.2-0.4,0.2s-0.3,0.1-0.4,0.1c-0.1,0-0.3,0-0.4-0.1c-0.1-0.1-0.2-0.2-0.2-0.3L162.8,25.2z M167,28.6c-0.5,0-0.9,0.1-1.3,0.1
		c-0.3,0.1-0.6,0.1-0.8,0.2c-0.2,0.1-0.3,0.2-0.4,0.3c-0.1,0.1-0.1,0.3-0.1,0.4c0,0.3,0.1,0.5,0.3,0.6s0.4,0.2,0.7,0.2
		c0.3,0,0.6-0.1,0.9-0.2c0.3-0.1,0.5-0.3,0.8-0.6V28.6z M168.6,20.8l-1.9,2c-0.1,0.1-0.2,0.2-0.3,0.2c-0.1,0-0.2,0.1-0.4,0.1h-1.2
		l1.1-1.8c0.1-0.1,0.2-0.2,0.3-0.3c0.1-0.1,0.3-0.1,0.5-0.1H168.6z"/>
</g>
<g class="st1">
	<path class="st2" d="M180,25.8c-0.1,0.1-0.1,0.1-0.2,0.2c-0.1,0-0.1,0.1-0.3,0.1c-0.1,0-0.2,0-0.3-0.1c-0.1-0.1-0.2-0.1-0.3-0.2
		c-0.1-0.1-0.3-0.1-0.4-0.2c-0.2-0.1-0.4-0.1-0.6-0.1c-0.3,0-0.6,0.1-0.8,0.2s-0.4,0.3-0.6,0.5c-0.1,0.2-0.3,0.5-0.3,0.8
		c-0.1,0.3-0.1,0.6-0.1,1c0,0.8,0.2,1.4,0.5,1.8c0.3,0.4,0.8,0.6,1.3,0.6c0.2,0,0.4,0,0.5,0c0.1,0,0.3-0.1,0.4-0.1
		c0.1,0,0.2-0.1,0.3-0.2c0.1-0.1,0.1-0.1,0.2-0.2c0.1-0.1,0.1-0.1,0.2-0.1c0.1,0,0.1,0,0.2,0c0.2,0,0.3,0.1,0.4,0.2l0.6,0.8
		c-0.2,0.3-0.5,0.5-0.7,0.6c-0.3,0.2-0.5,0.3-0.8,0.4s-0.5,0.2-0.8,0.2c-0.3,0-0.5,0.1-0.8,0.1c-0.5,0-0.9-0.1-1.4-0.3
		c-0.4-0.2-0.8-0.4-1.1-0.8c-0.3-0.3-0.6-0.8-0.8-1.3s-0.3-1.1-0.3-1.7c0-0.6,0.1-1.1,0.2-1.6c0.2-0.5,0.4-0.9,0.7-1.3
		c0.3-0.4,0.7-0.6,1.2-0.8s1-0.3,1.6-0.3c0.6,0,1.1,0.1,1.6,0.3c0.4,0.2,0.8,0.5,1.2,0.8L180,25.8z"/>
</g>
<g class="st1">
	<path class="st2" d="M185.1,24c0.6,0,1.1,0.1,1.6,0.3c0.5,0.2,0.9,0.4,1.2,0.8c0.3,0.3,0.6,0.8,0.8,1.2c0.2,0.5,0.3,1,0.3,1.7
		c0,0.6-0.1,1.2-0.3,1.7c-0.2,0.5-0.4,0.9-0.8,1.3s-0.7,0.6-1.2,0.8c-0.5,0.2-1,0.3-1.6,0.3c-0.6,0-1.1-0.1-1.6-0.3
		s-0.9-0.5-1.2-0.8s-0.6-0.8-0.8-1.3c-0.2-0.5-0.3-1-0.3-1.7c0-0.6,0.1-1.2,0.3-1.7s0.5-0.9,0.8-1.2c0.3-0.3,0.7-0.6,1.2-0.8
		C184,24.1,184.5,24,185.1,24z M185.1,30.4c0.6,0,1-0.2,1.3-0.6c0.3-0.4,0.4-1,0.4-1.8c0-0.8-0.1-1.4-0.4-1.8
		c-0.3-0.4-0.7-0.6-1.3-0.6c-0.6,0-1,0.2-1.3,0.6c-0.3,0.4-0.4,1-0.4,1.8c0,0.8,0.1,1.4,0.4,1.8C184,30.2,184.5,30.4,185.1,30.4z"/>
	<path class="st2" d="M192.2,25c0.2-0.2,0.3-0.3,0.5-0.4c0.2-0.1,0.3-0.2,0.5-0.3s0.4-0.2,0.6-0.2c0.2,0,0.5-0.1,0.7-0.1
		c0.4,0,0.8,0.1,1.1,0.2c0.3,0.1,0.6,0.3,0.8,0.6c0.2,0.3,0.4,0.6,0.5,0.9c0.1,0.4,0.2,0.8,0.2,1.2v4.9h-2.1v-4.9
		c0-0.4-0.1-0.8-0.3-1c-0.2-0.2-0.5-0.4-0.9-0.4c-0.3,0-0.6,0.1-0.8,0.2c-0.3,0.1-0.5,0.3-0.7,0.5v5.6h-2.1v-7.7h1.3
		c0.3,0,0.4,0.1,0.5,0.4L192.2,25z"/>
</g>
<g class="st1">
	<path class="st2" d="M205.7,24.3v0.8c0,0.1,0,0.2-0.1,0.3c-0.1,0.1-0.2,0.1-0.3,0.2l-0.6,0.1c0.1,0.2,0.1,0.5,0.1,0.8
		c0,0.4-0.1,0.7-0.2,1c-0.2,0.3-0.4,0.6-0.6,0.8s-0.6,0.4-1,0.5c-0.4,0.1-0.8,0.2-1.2,0.2c-0.3,0-0.5,0-0.8-0.1
		c-0.2,0.1-0.3,0.3-0.3,0.4c0,0.1,0.1,0.3,0.2,0.3c0.1,0.1,0.3,0.1,0.6,0.1s0.5,0,0.8,0.1s0.6,0,0.9,0c0.3,0,0.6,0.1,0.9,0.1
		s0.6,0.2,0.8,0.3s0.4,0.3,0.6,0.6s0.2,0.5,0.2,0.9c0,0.3-0.1,0.7-0.3,1c-0.2,0.3-0.4,0.6-0.7,0.9c-0.3,0.3-0.7,0.5-1.2,0.6
		c-0.5,0.2-1,0.2-1.6,0.2c-0.6,0-1.1-0.1-1.5-0.2c-0.4-0.1-0.8-0.3-1.1-0.4s-0.5-0.4-0.6-0.6c-0.1-0.2-0.2-0.5-0.2-0.8
		c0-0.3,0.1-0.6,0.3-0.9c0.2-0.2,0.5-0.4,0.9-0.6c-0.2-0.1-0.4-0.3-0.5-0.4c-0.1-0.2-0.2-0.4-0.2-0.7c0-0.2,0.1-0.5,0.3-0.7
		s0.4-0.5,0.8-0.6c-0.4-0.2-0.7-0.5-0.9-0.8s-0.3-0.8-0.3-1.2c0-0.4,0.1-0.7,0.2-1c0.2-0.3,0.4-0.6,0.7-0.8c0.3-0.2,0.6-0.4,1-0.5
		c0.4-0.1,0.8-0.2,1.2-0.2c0.7,0,1.2,0.1,1.7,0.4H205.7z M203.7,32.1c0-0.1,0-0.2-0.1-0.3s-0.2-0.2-0.3-0.2c-0.1,0-0.3-0.1-0.5-0.1
		c-0.2,0-0.4,0-0.6-0.1c-0.2,0-0.4,0-0.7,0c-0.2,0-0.5,0-0.7-0.1c-0.2,0.1-0.3,0.2-0.4,0.4c-0.1,0.1-0.2,0.3-0.2,0.5
		c0,0.1,0,0.2,0.1,0.3c0.1,0.1,0.2,0.2,0.3,0.3c0.1,0.1,0.3,0.1,0.5,0.2c0.2,0,0.5,0.1,0.8,0.1c0.3,0,0.6,0,0.9-0.1
		c0.2,0,0.4-0.1,0.6-0.2c0.1-0.1,0.2-0.2,0.3-0.3C203.7,32.4,203.7,32.3,203.7,32.1z M201.7,27.7c0.4,0,0.7-0.1,0.9-0.3
		s0.3-0.5,0.3-0.8c0-0.4-0.1-0.6-0.3-0.8c-0.2-0.2-0.5-0.3-0.9-0.3c-0.4,0-0.7,0.1-0.9,0.3c-0.2,0.2-0.3,0.5-0.3,0.8
		c0,0.3,0.1,0.6,0.3,0.8S201.3,27.7,201.7,27.7z"/>
</g>
<g class="st1">
	<path class="st2" d="M208.4,28.3c0.1,0.7,0.3,1.3,0.6,1.6c0.3,0.3,0.8,0.5,1.4,0.5c0.3,0,0.5,0,0.7-0.1c0.2-0.1,0.4-0.1,0.5-0.2
		c0.2-0.1,0.3-0.2,0.4-0.2c0.1-0.1,0.3-0.1,0.4-0.1c0.2,0,0.3,0.1,0.4,0.2l0.6,0.8c-0.2,0.3-0.5,0.5-0.7,0.6
		c-0.3,0.2-0.5,0.3-0.8,0.4s-0.6,0.2-0.9,0.2c-0.3,0-0.6,0.1-0.8,0.1c-0.5,0-1-0.1-1.5-0.3c-0.5-0.2-0.9-0.4-1.2-0.8
		c-0.3-0.3-0.6-0.8-0.8-1.3c-0.2-0.5-0.3-1.1-0.3-1.8c0-0.5,0.1-1,0.3-1.5s0.4-0.9,0.7-1.2c0.3-0.3,0.7-0.6,1.2-0.8
		c0.5-0.2,1-0.3,1.6-0.3c0.5,0,1,0.1,1.4,0.2s0.8,0.4,1.1,0.7c0.3,0.3,0.5,0.7,0.7,1.1c0.2,0.4,0.3,0.9,0.3,1.5c0,0.2,0,0.3,0,0.4
		c0,0.1,0,0.2-0.1,0.2c0,0.1-0.1,0.1-0.1,0.1s-0.1,0-0.2,0H208.4z M211.6,27c0-0.2,0-0.4-0.1-0.6c-0.1-0.2-0.1-0.4-0.3-0.5
		c-0.1-0.1-0.3-0.3-0.5-0.4c-0.2-0.1-0.4-0.1-0.7-0.1c-0.5,0-0.9,0.1-1.2,0.4c-0.3,0.3-0.5,0.7-0.5,1.2H211.6z"/>
	<path class="st2" d="M216.9,20.6v11.2h-2.1V20.6H216.9z"/>
	<path class="st2" d="M218.4,25.2c0.5-0.4,1-0.7,1.5-0.9c0.5-0.2,1.1-0.3,1.8-0.3c0.5,0,0.9,0.1,1.2,0.2c0.4,0.1,0.7,0.4,0.9,0.6
		s0.4,0.6,0.6,1c0.1,0.4,0.2,0.8,0.2,1.2v4.9h-0.9c-0.2,0-0.3,0-0.4-0.1c-0.1-0.1-0.2-0.2-0.3-0.3l-0.2-0.5
		c-0.2,0.2-0.4,0.3-0.6,0.5c-0.2,0.1-0.4,0.2-0.6,0.3c-0.2,0.1-0.4,0.2-0.6,0.2s-0.5,0.1-0.7,0.1c-0.3,0-0.6,0-0.9-0.1
		c-0.3-0.1-0.5-0.2-0.7-0.4s-0.4-0.4-0.5-0.7c-0.1-0.3-0.2-0.6-0.2-0.9c0-0.3,0.1-0.6,0.2-0.9c0.1-0.3,0.4-0.5,0.7-0.8
		s0.8-0.4,1.4-0.6c0.6-0.2,1.3-0.2,2.2-0.3V27c0-0.5-0.1-0.8-0.3-1.1s-0.5-0.3-0.9-0.3c-0.3,0-0.5,0-0.7,0.1
		c-0.2,0.1-0.4,0.1-0.5,0.2s-0.3,0.2-0.4,0.2s-0.3,0.1-0.4,0.1c-0.1,0-0.3,0-0.4-0.1c-0.1-0.1-0.2-0.2-0.2-0.3L218.4,25.2z
		 M222.6,28.6c-0.5,0-0.9,0.1-1.3,0.1c-0.3,0.1-0.6,0.1-0.8,0.2c-0.2,0.1-0.3,0.2-0.4,0.3c-0.1,0.1-0.1,0.3-0.1,0.4
		c0,0.3,0.1,0.5,0.3,0.6s0.4,0.2,0.7,0.2c0.3,0,0.6-0.1,0.9-0.2c0.3-0.1,0.5-0.3,0.8-0.6V28.6z"/>
	<path class="st2" d="M233.1,20.6v11.2h-1.3c-0.3,0-0.4-0.1-0.5-0.4l-0.2-0.7c-0.2,0.2-0.3,0.3-0.5,0.5c-0.2,0.1-0.4,0.3-0.6,0.4
		c-0.2,0.1-0.4,0.2-0.6,0.2c-0.2,0.1-0.5,0.1-0.8,0.1c-0.4,0-0.8-0.1-1.1-0.3c-0.3-0.2-0.6-0.4-0.9-0.8c-0.3-0.3-0.4-0.8-0.6-1.2
		c-0.1-0.5-0.2-1-0.2-1.7c0-0.6,0.1-1.1,0.2-1.6c0.2-0.5,0.4-0.9,0.7-1.3s0.6-0.6,1-0.8c0.4-0.2,0.9-0.3,1.4-0.3
		c0.4,0,0.8,0.1,1.1,0.2s0.5,0.3,0.8,0.5v-4H233.1z M231,26.1c-0.2-0.2-0.4-0.4-0.6-0.5s-0.5-0.1-0.7-0.1c-0.3,0-0.5,0-0.7,0.1
		s-0.4,0.2-0.5,0.4c-0.1,0.2-0.3,0.5-0.3,0.8c-0.1,0.3-0.1,0.7-0.1,1.1c0,0.4,0,0.8,0.1,1.1c0.1,0.3,0.2,0.5,0.3,0.7
		c0.1,0.2,0.3,0.3,0.4,0.4c0.2,0.1,0.4,0.1,0.6,0.1c0.4,0,0.7-0.1,0.9-0.2c0.2-0.1,0.5-0.3,0.7-0.6V26.1z"/>
	<path class="st2" d="M234.7,25.2c0.5-0.4,1-0.7,1.5-0.9c0.5-0.2,1.1-0.3,1.8-0.3c0.5,0,0.9,0.1,1.2,0.2c0.4,0.1,0.7,0.4,0.9,0.6
		s0.4,0.6,0.6,1c0.1,0.4,0.2,0.8,0.2,1.2v4.9h-0.9c-0.2,0-0.3,0-0.4-0.1c-0.1-0.1-0.2-0.2-0.3-0.3l-0.2-0.5
		c-0.2,0.2-0.4,0.3-0.6,0.5c-0.2,0.1-0.4,0.2-0.6,0.3c-0.2,0.1-0.4,0.2-0.6,0.2s-0.5,0.1-0.7,0.1c-0.3,0-0.6,0-0.9-0.1
		c-0.3-0.1-0.5-0.2-0.7-0.4s-0.4-0.4-0.5-0.7c-0.1-0.3-0.2-0.6-0.2-0.9c0-0.3,0.1-0.6,0.2-0.9c0.1-0.3,0.4-0.5,0.7-0.8
		s0.8-0.4,1.4-0.6c0.6-0.2,1.3-0.2,2.2-0.3V27c0-0.5-0.1-0.8-0.3-1.1s-0.5-0.3-0.9-0.3c-0.3,0-0.5,0-0.7,0.1
		c-0.2,0.1-0.4,0.1-0.5,0.2s-0.3,0.2-0.4,0.2s-0.3,0.1-0.4,0.1c-0.1,0-0.3,0-0.4-0.1c-0.1-0.1-0.2-0.2-0.2-0.3L234.7,25.2z
		 M238.9,28.6c-0.5,0-0.9,0.1-1.3,0.1c-0.3,0.1-0.6,0.1-0.8,0.2c-0.2,0.1-0.3,0.2-0.4,0.3c-0.1,0.1-0.1,0.3-0.1,0.4
		c0,0.3,0.1,0.5,0.3,0.6s0.4,0.2,0.7,0.2c0.3,0,0.6-0.1,0.9-0.2c0.3-0.1,0.5-0.3,0.8-0.6V28.6z"/>
	<path class="st2" d="M242.5,33.7c-0.1,0-0.1-0.1-0.1-0.1s0-0.1,0-0.2c0,0,0-0.1,0-0.1c0-0.1,0.1-0.1,0.1-0.1
		c0.1-0.1,0.1-0.1,0.2-0.2s0.2-0.2,0.2-0.3c0.1-0.1,0.2-0.2,0.2-0.4c0.1-0.1,0.1-0.3,0.2-0.4c-0.2,0-0.3,0-0.5-0.1
		c-0.1-0.1-0.3-0.2-0.3-0.3c-0.1-0.1-0.2-0.2-0.2-0.4c-0.1-0.1-0.1-0.3-0.1-0.5c0-0.1,0-0.3,0.1-0.4s0.1-0.2,0.2-0.3
		c0.1-0.1,0.2-0.2,0.4-0.2c0.1-0.1,0.3-0.1,0.5-0.1c0.2,0,0.4,0,0.5,0.1s0.3,0.2,0.4,0.3s0.2,0.3,0.2,0.4c0,0.2,0.1,0.3,0.1,0.5
		c0,0.2,0,0.5-0.1,0.8c-0.1,0.3-0.2,0.5-0.3,0.8c-0.2,0.3-0.3,0.5-0.6,0.8c-0.2,0.3-0.5,0.5-0.8,0.7L242.5,33.7z"/>
	<path class="st2" d="M251.6,25.1c0.2-0.2,0.3-0.3,0.5-0.5s0.4-0.3,0.6-0.4c0.2-0.1,0.4-0.2,0.6-0.2c0.2-0.1,0.5-0.1,0.8-0.1
		c0.4,0,0.8,0.1,1.1,0.3c0.3,0.2,0.6,0.4,0.9,0.8s0.4,0.8,0.6,1.2c0.1,0.5,0.2,1,0.2,1.7c0,0.6-0.1,1.1-0.2,1.6
		c-0.2,0.5-0.4,0.9-0.7,1.3c-0.3,0.4-0.6,0.6-1,0.8c-0.4,0.2-0.9,0.3-1.4,0.3c-0.4,0-0.8-0.1-1.1-0.2c-0.3-0.1-0.6-0.3-0.8-0.5v3.1
		h-2.1V24.1h1.3c0.3,0,0.4,0.1,0.5,0.4L251.6,25.1z M251.7,29.8c0.2,0.2,0.4,0.4,0.6,0.5s0.5,0.1,0.7,0.1c0.3,0,0.5,0,0.7-0.1
		c0.2-0.1,0.4-0.2,0.5-0.4c0.1-0.2,0.3-0.5,0.3-0.8c0.1-0.3,0.1-0.7,0.1-1.1c0-0.4,0-0.8-0.1-1.1s-0.2-0.5-0.3-0.7
		c-0.1-0.2-0.3-0.3-0.4-0.4c-0.2-0.1-0.4-0.1-0.6-0.1c-0.4,0-0.7,0.1-0.9,0.2s-0.5,0.4-0.7,0.6V29.8z"/>
	<path class="st2" d="M265,24.1v7.7h-1.3c-0.3,0-0.4-0.1-0.5-0.4l-0.1-0.5c-0.2,0.2-0.3,0.3-0.5,0.4s-0.3,0.2-0.5,0.3
		s-0.4,0.2-0.6,0.2s-0.5,0.1-0.7,0.1c-0.4,0-0.8-0.1-1.1-0.2c-0.3-0.1-0.6-0.3-0.8-0.6s-0.4-0.6-0.5-0.9c-0.1-0.4-0.2-0.8-0.2-1.2
		v-4.9h2.1V29c0,0.4,0.1,0.8,0.3,1c0.2,0.2,0.5,0.4,0.9,0.4c0.3,0,0.6-0.1,0.8-0.2c0.3-0.1,0.5-0.3,0.7-0.5v-5.6H265z"/>
	<path class="st2" d="M268.3,28.3c0.1,0.7,0.3,1.3,0.6,1.6c0.3,0.3,0.8,0.5,1.4,0.5c0.3,0,0.5,0,0.7-0.1c0.2-0.1,0.4-0.1,0.5-0.2
		c0.2-0.1,0.3-0.2,0.4-0.2c0.1-0.1,0.3-0.1,0.4-0.1c0.2,0,0.3,0.1,0.4,0.2l0.6,0.8c-0.2,0.3-0.5,0.5-0.7,0.6
		c-0.3,0.2-0.5,0.3-0.8,0.4s-0.6,0.2-0.9,0.2c-0.3,0-0.6,0.1-0.8,0.1c-0.5,0-1-0.1-1.5-0.3c-0.5-0.2-0.9-0.4-1.2-0.8
		s-0.6-0.8-0.8-1.3c-0.2-0.5-0.3-1.1-0.3-1.8c0-0.5,0.1-1,0.3-1.5c0.2-0.5,0.4-0.9,0.7-1.2s0.7-0.6,1.2-0.8c0.5-0.2,1-0.3,1.6-0.3
		c0.5,0,1,0.1,1.4,0.2c0.4,0.2,0.8,0.4,1.1,0.7c0.3,0.3,0.5,0.7,0.7,1.1c0.2,0.4,0.3,0.9,0.3,1.5c0,0.2,0,0.3,0,0.4
		c0,0.1,0,0.2-0.1,0.2c0,0.1-0.1,0.1-0.1,0.1c-0.1,0-0.1,0-0.2,0H268.3z M271.6,27c0-0.2,0-0.4-0.1-0.6c-0.1-0.2-0.1-0.4-0.3-0.5
		c-0.1-0.1-0.3-0.3-0.5-0.4c-0.2-0.1-0.4-0.1-0.7-0.1c-0.5,0-0.9,0.1-1.2,0.4s-0.5,0.7-0.5,1.2H271.6z"/>
	<path class="st2" d="M281.6,20.6v11.2h-1.3c-0.3,0-0.4-0.1-0.5-0.4l-0.2-0.7c-0.2,0.2-0.3,0.3-0.5,0.5c-0.2,0.1-0.4,0.3-0.6,0.4
		c-0.2,0.1-0.4,0.2-0.6,0.2c-0.2,0.1-0.5,0.1-0.8,0.1c-0.4,0-0.8-0.1-1.1-0.3c-0.3-0.2-0.6-0.4-0.9-0.8c-0.3-0.3-0.4-0.8-0.6-1.2
		s-0.2-1-0.2-1.7c0-0.6,0.1-1.1,0.2-1.6s0.4-0.9,0.7-1.3s0.6-0.6,1-0.8c0.4-0.2,0.9-0.3,1.4-0.3c0.4,0,0.8,0.1,1.1,0.2
		c0.3,0.1,0.5,0.3,0.8,0.5v-4H281.6z M279.5,26.1c-0.2-0.2-0.4-0.4-0.6-0.5s-0.5-0.1-0.7-0.1c-0.3,0-0.5,0-0.7,0.1s-0.4,0.2-0.5,0.4
		s-0.3,0.5-0.3,0.8c-0.1,0.3-0.1,0.7-0.1,1.1c0,0.4,0,0.8,0.1,1.1c0.1,0.3,0.2,0.5,0.3,0.7c0.1,0.2,0.3,0.3,0.4,0.4
		c0.2,0.1,0.4,0.1,0.6,0.1c0.4,0,0.7-0.1,0.9-0.2c0.2-0.1,0.5-0.3,0.7-0.6V26.1z"/>
	<path class="st2" d="M284.9,28.3c0.1,0.7,0.3,1.3,0.6,1.6s0.8,0.5,1.4,0.5c0.3,0,0.5,0,0.7-0.1c0.2-0.1,0.4-0.1,0.5-0.2
		s0.3-0.2,0.4-0.2c0.1-0.1,0.3-0.1,0.4-0.1c0.2,0,0.3,0.1,0.4,0.2l0.6,0.8c-0.2,0.3-0.5,0.5-0.7,0.6c-0.3,0.2-0.5,0.3-0.8,0.4
		s-0.6,0.2-0.9,0.2c-0.3,0-0.6,0.1-0.8,0.1c-0.5,0-1-0.1-1.5-0.3c-0.5-0.2-0.9-0.4-1.2-0.8c-0.3-0.3-0.6-0.8-0.8-1.3
		c-0.2-0.5-0.3-1.1-0.3-1.8c0-0.5,0.1-1,0.3-1.5c0.2-0.5,0.4-0.9,0.7-1.2c0.3-0.3,0.7-0.6,1.2-0.8s1-0.3,1.6-0.3
		c0.5,0,1,0.1,1.4,0.2c0.4,0.2,0.8,0.4,1.1,0.7c0.3,0.3,0.5,0.7,0.7,1.1c0.2,0.4,0.3,0.9,0.3,1.5c0,0.2,0,0.3,0,0.4
		c0,0.1,0,0.2-0.1,0.2c0,0.1-0.1,0.1-0.1,0.1c-0.1,0-0.1,0-0.2,0H284.9z M288.2,27c0-0.2,0-0.4-0.1-0.6s-0.1-0.4-0.3-0.5
		c-0.1-0.1-0.3-0.3-0.5-0.4c-0.2-0.1-0.4-0.1-0.7-0.1c-0.5,0-0.9,0.1-1.2,0.4c-0.3,0.3-0.5,0.7-0.5,1.2H288.2z"/>
	<path class="st2" d="M296.1,25.7c-0.1,0.1-0.1,0.1-0.2,0.2c-0.1,0-0.1,0.1-0.2,0.1c-0.1,0-0.2,0-0.3-0.1c-0.1,0-0.2-0.1-0.4-0.2
		s-0.3-0.1-0.4-0.2c-0.2,0-0.4-0.1-0.6-0.1c-0.3,0-0.6,0.1-0.8,0.2c-0.2,0.1-0.3,0.3-0.3,0.5c0,0.2,0.1,0.3,0.2,0.4
		c0.1,0.1,0.2,0.2,0.4,0.3c0.2,0.1,0.4,0.1,0.6,0.2c0.2,0.1,0.4,0.1,0.7,0.2c0.2,0.1,0.5,0.2,0.7,0.3c0.2,0.1,0.4,0.2,0.6,0.4
		c0.2,0.2,0.3,0.3,0.4,0.6c0.1,0.2,0.2,0.5,0.2,0.8c0,0.4-0.1,0.7-0.2,1c-0.1,0.3-0.3,0.6-0.6,0.8c-0.3,0.2-0.6,0.4-1,0.5
		c-0.4,0.1-0.9,0.2-1.4,0.2c-0.3,0-0.5,0-0.8-0.1c-0.3,0-0.5-0.1-0.7-0.2c-0.2-0.1-0.5-0.2-0.7-0.3c-0.2-0.1-0.4-0.2-0.5-0.4
		l0.5-0.8c0.1-0.1,0.1-0.2,0.2-0.2c0.1,0,0.2-0.1,0.3-0.1c0.1,0,0.2,0,0.3,0.1c0.1,0.1,0.2,0.1,0.4,0.2c0.1,0.1,0.3,0.1,0.5,0.2
		c0.2,0.1,0.4,0.1,0.7,0.1c0.2,0,0.4,0,0.5-0.1c0.1,0,0.3-0.1,0.4-0.2c0.1-0.1,0.2-0.2,0.2-0.3c0-0.1,0.1-0.2,0.1-0.3
		c0-0.2-0.1-0.3-0.2-0.4s-0.2-0.2-0.4-0.3s-0.4-0.2-0.6-0.2c-0.2-0.1-0.5-0.1-0.7-0.2s-0.5-0.2-0.7-0.3c-0.2-0.1-0.4-0.2-0.6-0.4
		c-0.2-0.2-0.3-0.4-0.4-0.6s-0.2-0.5-0.2-0.9c0-0.3,0.1-0.6,0.2-0.9c0.1-0.3,0.3-0.5,0.6-0.8c0.3-0.2,0.6-0.4,0.9-0.5
		s0.8-0.2,1.3-0.2c0.5,0,1,0.1,1.5,0.3c0.5,0.2,0.8,0.4,1.1,0.7L296.1,25.7z"/>
	<path class="st2" d="M308.4,20.6v11.2h-1.3c-0.3,0-0.4-0.1-0.5-0.4l-0.2-0.7c-0.2,0.2-0.3,0.3-0.5,0.5c-0.2,0.1-0.4,0.3-0.6,0.4
		c-0.2,0.1-0.4,0.2-0.6,0.2c-0.2,0.1-0.5,0.1-0.8,0.1c-0.4,0-0.8-0.1-1.1-0.3c-0.3-0.2-0.6-0.4-0.9-0.8c-0.3-0.3-0.4-0.8-0.6-1.2
		s-0.2-1-0.2-1.7c0-0.6,0.1-1.1,0.2-1.6s0.4-0.9,0.7-1.3s0.6-0.6,1-0.8c0.4-0.2,0.9-0.3,1.4-0.3c0.4,0,0.8,0.1,1.1,0.2
		c0.3,0.1,0.5,0.3,0.8,0.5v-4H308.4z M306.3,26.1c-0.2-0.2-0.4-0.4-0.6-0.5s-0.5-0.1-0.7-0.1c-0.3,0-0.5,0-0.7,0.1s-0.4,0.2-0.5,0.4
		s-0.3,0.5-0.3,0.8c-0.1,0.3-0.1,0.7-0.1,1.1c0,0.4,0,0.8,0.1,1.1c0.1,0.3,0.2,0.5,0.3,0.7c0.1,0.2,0.3,0.3,0.4,0.4
		c0.2,0.1,0.4,0.1,0.6,0.1c0.4,0,0.7-0.1,0.9-0.2c0.2-0.1,0.5-0.3,0.7-0.6V26.1z"/>
	<path class="st2" d="M311.7,28.3c0.1,0.7,0.3,1.3,0.6,1.6s0.8,0.5,1.4,0.5c0.3,0,0.5,0,0.7-0.1c0.2-0.1,0.4-0.1,0.5-0.2
		s0.3-0.2,0.4-0.2c0.1-0.1,0.3-0.1,0.4-0.1c0.2,0,0.3,0.1,0.4,0.2l0.6,0.8c-0.2,0.3-0.5,0.5-0.7,0.6c-0.3,0.2-0.5,0.3-0.8,0.4
		s-0.6,0.2-0.9,0.2c-0.3,0-0.6,0.1-0.8,0.1c-0.5,0-1-0.1-1.5-0.3c-0.5-0.2-0.9-0.4-1.2-0.8c-0.3-0.3-0.6-0.8-0.8-1.3
		c-0.2-0.5-0.3-1.1-0.3-1.8c0-0.5,0.1-1,0.3-1.5c0.2-0.5,0.4-0.9,0.7-1.2c0.3-0.3,0.7-0.6,1.2-0.8s1-0.3,1.6-0.3
		c0.5,0,1,0.1,1.4,0.2c0.4,0.2,0.8,0.4,1.1,0.7c0.3,0.3,0.5,0.7,0.7,1.1c0.2,0.4,0.3,0.9,0.3,1.5c0,0.2,0,0.3,0,0.4
		c0,0.1,0,0.2-0.1,0.2c0,0.1-0.1,0.1-0.1,0.1c-0.1,0-0.1,0-0.2,0H311.7z M315,27c0-0.2,0-0.4-0.1-0.6s-0.1-0.4-0.3-0.5
		c-0.1-0.1-0.3-0.3-0.5-0.4c-0.2-0.1-0.4-0.1-0.7-0.1c-0.5,0-0.9,0.1-1.2,0.4c-0.3,0.3-0.5,0.7-0.5,1.2H315z"/>
	<path class="st2" d="M322.9,25.7c-0.1,0.1-0.1,0.1-0.2,0.2c-0.1,0-0.1,0.1-0.2,0.1c-0.1,0-0.2,0-0.3-0.1c-0.1,0-0.2-0.1-0.4-0.2
		s-0.3-0.1-0.4-0.2c-0.2,0-0.4-0.1-0.6-0.1c-0.3,0-0.6,0.1-0.8,0.2c-0.2,0.1-0.3,0.3-0.3,0.5c0,0.2,0.1,0.3,0.2,0.4
		c0.1,0.1,0.2,0.2,0.4,0.3c0.2,0.1,0.4,0.1,0.6,0.2c0.2,0.1,0.4,0.1,0.7,0.2c0.2,0.1,0.5,0.2,0.7,0.3c0.2,0.1,0.4,0.2,0.6,0.4
		c0.2,0.2,0.3,0.3,0.4,0.6c0.1,0.2,0.2,0.5,0.2,0.8c0,0.4-0.1,0.7-0.2,1c-0.1,0.3-0.3,0.6-0.6,0.8c-0.3,0.2-0.6,0.4-1,0.5
		c-0.4,0.1-0.9,0.2-1.4,0.2c-0.3,0-0.5,0-0.8-0.1c-0.3,0-0.5-0.1-0.7-0.2c-0.2-0.1-0.5-0.2-0.7-0.3c-0.2-0.1-0.4-0.2-0.5-0.4
		l0.5-0.8c0.1-0.1,0.1-0.2,0.2-0.2c0.1,0,0.2-0.1,0.3-0.1c0.1,0,0.2,0,0.3,0.1c0.1,0.1,0.2,0.1,0.4,0.2c0.1,0.1,0.3,0.1,0.5,0.2
		c0.2,0.1,0.4,0.1,0.7,0.1c0.2,0,0.4,0,0.5-0.1c0.1,0,0.3-0.1,0.4-0.2c0.1-0.1,0.2-0.2,0.2-0.3c0-0.1,0.1-0.2,0.1-0.3
		c0-0.2-0.1-0.3-0.2-0.4s-0.2-0.2-0.4-0.3s-0.4-0.2-0.6-0.2c-0.2-0.1-0.5-0.1-0.7-0.2s-0.5-0.2-0.7-0.3c-0.2-0.1-0.4-0.2-0.6-0.4
		c-0.2-0.2-0.3-0.4-0.4-0.6s-0.2-0.5-0.2-0.9c0-0.3,0.1-0.6,0.2-0.9c0.1-0.3,0.3-0.5,0.6-0.8c0.3-0.2,0.6-0.4,0.9-0.5
		s0.8-0.2,1.3-0.2c0.5,0,1,0.1,1.5,0.3c0.5,0.2,0.8,0.4,1.1,0.7L322.9,25.7z"/>
</g>
<g class="st1">
	<path class="st2" d="M331,25.8c-0.1,0.1-0.1,0.1-0.2,0.2c-0.1,0-0.1,0.1-0.3,0.1c-0.1,0-0.2,0-0.3-0.1c-0.1-0.1-0.2-0.1-0.3-0.2
		c-0.1-0.1-0.3-0.1-0.4-0.2c-0.2-0.1-0.4-0.1-0.6-0.1c-0.3,0-0.6,0.1-0.8,0.2s-0.4,0.3-0.6,0.5c-0.1,0.2-0.3,0.5-0.3,0.8
		c-0.1,0.3-0.1,0.6-0.1,1c0,0.8,0.2,1.4,0.5,1.8s0.8,0.6,1.3,0.6c0.2,0,0.4,0,0.5,0c0.1,0,0.3-0.1,0.4-0.1c0.1,0,0.2-0.1,0.3-0.2
		c0.1-0.1,0.1-0.1,0.2-0.2c0.1-0.1,0.1-0.1,0.2-0.1s0.1,0,0.2,0c0.2,0,0.3,0.1,0.4,0.2l0.6,0.8c-0.2,0.3-0.5,0.5-0.7,0.6
		c-0.3,0.2-0.5,0.3-0.8,0.4s-0.5,0.2-0.8,0.2c-0.3,0-0.5,0.1-0.8,0.1c-0.5,0-0.9-0.1-1.4-0.3c-0.4-0.2-0.8-0.4-1.1-0.8
		s-0.6-0.8-0.8-1.3s-0.3-1.1-0.3-1.7c0-0.6,0.1-1.1,0.2-1.6c0.2-0.5,0.4-0.9,0.7-1.3c0.3-0.4,0.7-0.6,1.2-0.8s1-0.3,1.6-0.3
		c0.6,0,1.1,0.1,1.6,0.3s0.8,0.5,1.2,0.8L331,25.8z"/>
</g>
<g class="st1">
	<path class="st2" d="M336.1,24c0.6,0,1.1,0.1,1.6,0.3c0.5,0.2,0.9,0.4,1.2,0.8c0.3,0.3,0.6,0.8,0.8,1.2s0.3,1,0.3,1.7
		c0,0.6-0.1,1.2-0.3,1.7c-0.2,0.5-0.4,0.9-0.8,1.3s-0.7,0.6-1.2,0.8c-0.5,0.2-1,0.3-1.6,0.3c-0.6,0-1.1-0.1-1.6-0.3
		s-0.9-0.5-1.2-0.8s-0.6-0.8-0.8-1.3c-0.2-0.5-0.3-1-0.3-1.7c0-0.6,0.1-1.2,0.3-1.7s0.5-0.9,0.8-1.2c0.3-0.3,0.7-0.6,1.2-0.8
		C335,24.1,335.5,24,336.1,24z M336.1,30.4c0.6,0,1-0.2,1.3-0.6c0.3-0.4,0.4-1,0.4-1.8c0-0.8-0.1-1.4-0.4-1.8
		c-0.3-0.4-0.7-0.6-1.3-0.6c-0.6,0-1,0.2-1.3,0.6c-0.3,0.4-0.4,1-0.4,1.8c0,0.8,0.1,1.4,0.4,1.8C335,30.2,335.5,30.4,336.1,30.4z"/>
	<path class="st2" d="M343.2,25c0.2-0.2,0.3-0.3,0.5-0.4s0.3-0.2,0.5-0.3s0.4-0.2,0.6-0.2c0.2,0,0.5-0.1,0.7-0.1
		c0.4,0,0.8,0.1,1.1,0.2c0.3,0.1,0.6,0.3,0.8,0.6c0.2,0.3,0.4,0.6,0.5,0.9c0.1,0.4,0.2,0.8,0.2,1.2v4.9H346v-4.9
		c0-0.4-0.1-0.8-0.3-1c-0.2-0.2-0.5-0.4-0.9-0.4c-0.3,0-0.6,0.1-0.8,0.2c-0.3,0.1-0.5,0.3-0.7,0.5v5.6h-2.1v-7.7h1.3
		c0.3,0,0.4,0.1,0.5,0.4L343.2,25z"/>
</g>
<g class="st1">
	<path class="st2" d="M356.7,24.3v0.8c0,0.1,0,0.2-0.1,0.3c-0.1,0.1-0.2,0.1-0.3,0.2l-0.6,0.1c0.1,0.2,0.1,0.5,0.1,0.8
		c0,0.4-0.1,0.7-0.2,1c-0.2,0.3-0.4,0.6-0.6,0.8s-0.6,0.4-1,0.5c-0.4,0.1-0.8,0.2-1.2,0.2c-0.3,0-0.5,0-0.8-0.1
		c-0.2,0.1-0.3,0.3-0.3,0.4c0,0.1,0.1,0.3,0.2,0.3c0.1,0.1,0.3,0.1,0.6,0.1s0.5,0,0.8,0.1s0.6,0,0.9,0c0.3,0,0.6,0.1,0.9,0.1
		c0.3,0.1,0.6,0.2,0.8,0.3s0.4,0.3,0.6,0.6s0.2,0.5,0.2,0.9c0,0.3-0.1,0.7-0.3,1c-0.2,0.3-0.4,0.6-0.7,0.9s-0.7,0.5-1.2,0.6
		c-0.5,0.2-1,0.2-1.6,0.2c-0.6,0-1.1-0.1-1.5-0.2c-0.4-0.1-0.8-0.3-1.1-0.4c-0.3-0.2-0.5-0.4-0.6-0.6s-0.2-0.5-0.2-0.8
		c0-0.3,0.1-0.6,0.3-0.9c0.2-0.2,0.5-0.4,0.9-0.6c-0.2-0.1-0.4-0.3-0.5-0.4c-0.1-0.2-0.2-0.4-0.2-0.7c0-0.2,0.1-0.5,0.3-0.7
		s0.4-0.5,0.8-0.6c-0.4-0.2-0.7-0.5-0.9-0.8s-0.3-0.8-0.3-1.2c0-0.4,0.1-0.7,0.2-1c0.2-0.3,0.4-0.6,0.7-0.8c0.3-0.2,0.6-0.4,1-0.5
		c0.4-0.1,0.8-0.2,1.2-0.2c0.7,0,1.2,0.1,1.7,0.4H356.7z M354.7,32.1c0-0.1,0-0.2-0.1-0.3c-0.1-0.1-0.2-0.2-0.3-0.2
		c-0.1,0-0.3-0.1-0.5-0.1c-0.2,0-0.4,0-0.6-0.1c-0.2,0-0.4,0-0.7,0c-0.2,0-0.5,0-0.7-0.1c-0.2,0.1-0.3,0.2-0.4,0.4
		c-0.1,0.1-0.2,0.3-0.2,0.5c0,0.1,0,0.2,0.1,0.3c0.1,0.1,0.2,0.2,0.3,0.3c0.1,0.1,0.3,0.1,0.5,0.2c0.2,0,0.5,0.1,0.8,0.1
		c0.3,0,0.6,0,0.9-0.1c0.2,0,0.4-0.1,0.6-0.2c0.1-0.1,0.2-0.2,0.3-0.3C354.7,32.4,354.7,32.3,354.7,32.1z M352.7,27.7
		c0.4,0,0.7-0.1,0.9-0.3c0.2-0.2,0.3-0.5,0.3-0.8c0-0.4-0.1-0.6-0.3-0.8c-0.2-0.2-0.5-0.3-0.9-0.3c-0.4,0-0.7,0.1-0.9,0.3
		c-0.2,0.2-0.3,0.5-0.3,0.8c0,0.3,0.1,0.6,0.3,0.8C352,27.6,352.3,27.7,352.7,27.7z"/>
</g>
<g class="st1">
	<path class="st2" d="M359.4,28.3c0.1,0.7,0.3,1.3,0.6,1.6s0.8,0.5,1.4,0.5c0.3,0,0.5,0,0.7-0.1c0.2-0.1,0.4-0.1,0.5-0.2
		s0.3-0.2,0.4-0.2c0.1-0.1,0.3-0.1,0.4-0.1c0.2,0,0.3,0.1,0.4,0.2l0.6,0.8c-0.2,0.3-0.5,0.5-0.7,0.6c-0.3,0.2-0.5,0.3-0.8,0.4
		s-0.6,0.2-0.9,0.2c-0.3,0-0.6,0.1-0.8,0.1c-0.5,0-1-0.1-1.5-0.3c-0.5-0.2-0.9-0.4-1.2-0.8c-0.3-0.3-0.6-0.8-0.8-1.3
		c-0.2-0.5-0.3-1.1-0.3-1.8c0-0.5,0.1-1,0.3-1.5c0.2-0.5,0.4-0.9,0.7-1.2c0.3-0.3,0.7-0.6,1.2-0.8s1-0.3,1.6-0.3
		c0.5,0,1,0.1,1.4,0.2c0.4,0.2,0.8,0.4,1.1,0.7c0.3,0.3,0.5,0.7,0.7,1.1c0.2,0.4,0.3,0.9,0.3,1.5c0,0.2,0,0.3,0,0.4
		c0,0.1,0,0.2-0.1,0.2c0,0.1-0.1,0.1-0.1,0.1c-0.1,0-0.1,0-0.2,0H359.4z M362.6,27c0-0.2,0-0.4-0.1-0.6s-0.1-0.4-0.3-0.5
		c-0.1-0.1-0.3-0.3-0.5-0.4c-0.2-0.1-0.4-0.1-0.7-0.1c-0.5,0-0.9,0.1-1.2,0.4c-0.3,0.3-0.5,0.7-0.5,1.2H362.6z"/>
	<path class="st2" d="M367.9,20.6v11.2h-2.1V20.6H367.9z"/>
	<path class="st2" d="M369.4,25.2c0.5-0.4,1-0.7,1.5-0.9c0.5-0.2,1.1-0.3,1.8-0.3c0.5,0,0.9,0.1,1.2,0.2c0.4,0.1,0.7,0.4,0.9,0.6
		c0.3,0.3,0.4,0.6,0.6,1c0.1,0.4,0.2,0.8,0.2,1.2v4.9h-0.9c-0.2,0-0.3,0-0.4-0.1c-0.1-0.1-0.2-0.2-0.3-0.3l-0.2-0.5
		c-0.2,0.2-0.4,0.3-0.6,0.5s-0.4,0.2-0.6,0.3c-0.2,0.1-0.4,0.2-0.6,0.2s-0.5,0.1-0.7,0.1c-0.3,0-0.7,0-0.9-0.1
		c-0.3-0.1-0.5-0.2-0.7-0.4c-0.2-0.2-0.4-0.4-0.5-0.7c-0.1-0.3-0.2-0.6-0.2-0.9c0-0.3,0.1-0.6,0.2-0.9c0.1-0.3,0.4-0.5,0.7-0.8
		s0.8-0.4,1.4-0.6c0.6-0.2,1.3-0.2,2.2-0.3V27c0-0.5-0.1-0.8-0.3-1.1s-0.5-0.3-0.9-0.3c-0.3,0-0.5,0-0.7,0.1s-0.4,0.1-0.5,0.2
		s-0.3,0.2-0.4,0.2s-0.3,0.1-0.4,0.1c-0.1,0-0.3,0-0.4-0.1c-0.1-0.1-0.2-0.2-0.2-0.3L369.4,25.2z M373.6,28.6
		c-0.5,0-0.9,0.1-1.3,0.1c-0.3,0.1-0.6,0.1-0.8,0.2c-0.2,0.1-0.3,0.2-0.4,0.3c-0.1,0.1-0.1,0.3-0.1,0.4c0,0.3,0.1,0.5,0.3,0.6
		c0.2,0.1,0.4,0.2,0.7,0.2c0.3,0,0.6-0.1,0.9-0.2c0.3-0.1,0.5-0.3,0.8-0.6V28.6z"/>
	<path class="st2" d="M379.2,25.4c0.2-0.4,0.5-0.8,0.8-1c0.3-0.3,0.7-0.4,1.1-0.4c0.4,0,0.6,0.1,0.9,0.2l-0.1,1.5
		c0,0.1-0.1,0.2-0.1,0.2c-0.1,0-0.1,0.1-0.2,0.1c-0.1,0-0.2,0-0.3,0c-0.1,0-0.3,0-0.4,0c-0.2,0-0.4,0-0.5,0.1
		c-0.1,0.1-0.3,0.1-0.4,0.2c-0.1,0.1-0.2,0.2-0.3,0.4c-0.1,0.1-0.2,0.3-0.3,0.5v4.7h-2.1v-7.7h1.2c0.2,0,0.4,0,0.4,0.1
		c0.1,0.1,0.1,0.2,0.2,0.4L379.2,25.4z"/>
	<path class="st2" d="M385,20.6v11.2h-2.1V20.6H385z"/>
	<path class="st2" d="M386.6,25.2c0.5-0.4,1-0.7,1.5-0.9c0.5-0.2,1.1-0.3,1.8-0.3c0.5,0,0.9,0.1,1.2,0.2c0.4,0.1,0.7,0.4,0.9,0.6
		c0.3,0.3,0.4,0.6,0.6,1c0.1,0.4,0.2,0.8,0.2,1.2v4.9h-0.9c-0.2,0-0.3,0-0.4-0.1c-0.1-0.1-0.2-0.2-0.3-0.3l-0.2-0.5
		c-0.2,0.2-0.4,0.3-0.6,0.5s-0.4,0.2-0.6,0.3c-0.2,0.1-0.4,0.2-0.6,0.2s-0.5,0.1-0.7,0.1c-0.3,0-0.7,0-0.9-0.1
		c-0.3-0.1-0.5-0.2-0.7-0.4c-0.2-0.2-0.4-0.4-0.5-0.7c-0.1-0.3-0.2-0.6-0.2-0.9c0-0.3,0.1-0.6,0.2-0.9c0.1-0.3,0.4-0.5,0.7-0.8
		s0.8-0.4,1.4-0.6c0.6-0.2,1.3-0.2,2.2-0.3V27c0-0.5-0.1-0.8-0.3-1.1s-0.5-0.3-0.9-0.3c-0.3,0-0.5,0-0.7,0.1s-0.4,0.1-0.5,0.2
		s-0.3,0.2-0.4,0.2s-0.3,0.1-0.4,0.1c-0.1,0-0.3,0-0.4-0.1c-0.1-0.1-0.2-0.2-0.2-0.3L386.6,25.2z M390.8,28.6
		c-0.5,0-0.9,0.1-1.3,0.1c-0.3,0.1-0.6,0.1-0.8,0.2c-0.2,0.1-0.3,0.2-0.4,0.3c-0.1,0.1-0.1,0.3-0.1,0.4c0,0.3,0.1,0.5,0.3,0.6
		c0.2,0.1,0.4,0.2,0.7,0.2c0.3,0,0.6-0.1,0.9-0.2c0.3-0.1,0.5-0.3,0.8-0.6V28.6z"/>
	<path class="st2" d="M397.8,25.2c0.5-0.4,1-0.7,1.5-0.9c0.5-0.2,1.1-0.3,1.8-0.3c0.5,0,0.9,0.1,1.2,0.2c0.4,0.1,0.7,0.4,0.9,0.6
		c0.3,0.3,0.4,0.6,0.6,1c0.1,0.4,0.2,0.8,0.2,1.2v4.9h-0.9c-0.2,0-0.3,0-0.4-0.1c-0.1-0.1-0.2-0.2-0.3-0.3l-0.2-0.5
		c-0.2,0.2-0.4,0.3-0.6,0.5s-0.4,0.2-0.6,0.3c-0.2,0.1-0.4,0.2-0.6,0.2s-0.5,0.1-0.7,0.1c-0.3,0-0.7,0-0.9-0.1
		c-0.3-0.1-0.5-0.2-0.7-0.4c-0.2-0.2-0.4-0.4-0.5-0.7c-0.1-0.3-0.2-0.6-0.2-0.9c0-0.3,0.1-0.6,0.2-0.9c0.1-0.3,0.4-0.5,0.7-0.8
		s0.8-0.4,1.4-0.6c0.6-0.2,1.3-0.2,2.2-0.3V27c0-0.5-0.1-0.8-0.3-1.1s-0.5-0.3-0.9-0.3c-0.3,0-0.5,0-0.7,0.1s-0.4,0.1-0.5,0.2
		s-0.3,0.2-0.4,0.2s-0.3,0.1-0.4,0.1c-0.1,0-0.3,0-0.4-0.1c-0.1-0.1-0.2-0.2-0.2-0.3L397.8,25.2z M402,28.6c-0.5,0-0.9,0.1-1.3,0.1
		c-0.3,0.1-0.6,0.1-0.8,0.2c-0.2,0.1-0.3,0.2-0.4,0.3c-0.1,0.1-0.1,0.3-0.1,0.4c0,0.3,0.1,0.5,0.3,0.6c0.2,0.1,0.4,0.2,0.7,0.2
		c0.3,0,0.6-0.1,0.9-0.2c0.3-0.1,0.5-0.3,0.8-0.6V28.6z"/>
	<path class="st2" d="M412.5,24.1v10.2h-2.1v-3.4c-0.3,0.3-0.6,0.6-1,0.7s-0.8,0.3-1.3,0.3c-0.4,0-0.8-0.1-1.1-0.3
		c-0.3-0.2-0.6-0.4-0.9-0.8c-0.3-0.3-0.4-0.8-0.6-1.2c-0.1-0.5-0.2-1-0.2-1.7c0-0.6,0.1-1.1,0.2-1.6c0.2-0.5,0.4-0.9,0.7-1.3
		s0.6-0.6,1-0.8s0.9-0.3,1.4-0.3c0.2,0,0.4,0,0.6,0.1c0.2,0,0.4,0.1,0.5,0.2c0.2,0.1,0.3,0.2,0.5,0.3c0.1,0.1,0.3,0.2,0.4,0.4
		l0.1-0.4c0.1-0.2,0.2-0.4,0.5-0.4H412.5z M410.4,26.1c-0.2-0.2-0.4-0.4-0.6-0.5s-0.5-0.1-0.7-0.1c-0.3,0-0.5,0-0.7,0.1
		s-0.4,0.2-0.5,0.4c-0.1,0.2-0.3,0.5-0.3,0.8c-0.1,0.3-0.1,0.7-0.1,1.1c0,0.4,0,0.8,0.1,1.1s0.2,0.5,0.3,0.7
		c0.1,0.2,0.3,0.3,0.4,0.4c0.2,0.1,0.4,0.1,0.6,0.1c0.4,0,0.7-0.1,0.9-0.2c0.2-0.1,0.5-0.3,0.7-0.6V26.1z"/>
	<path class="st2" d="M421,24.1v7.7h-1.3c-0.3,0-0.4-0.1-0.5-0.4l-0.1-0.5c-0.2,0.2-0.3,0.3-0.5,0.4s-0.3,0.2-0.5,0.3
		s-0.4,0.2-0.6,0.2c-0.2,0-0.5,0.1-0.7,0.1c-0.4,0-0.8-0.1-1.1-0.2c-0.3-0.1-0.6-0.3-0.8-0.6c-0.2-0.3-0.4-0.6-0.5-0.9
		c-0.1-0.4-0.2-0.8-0.2-1.2v-4.9h2.1V29c0,0.4,0.1,0.8,0.3,1c0.2,0.2,0.5,0.4,0.9,0.4c0.3,0,0.6-0.1,0.8-0.2
		c0.3-0.1,0.5-0.3,0.7-0.5v-5.6H421z"/>
	<path class="st2" d="M424.8,24.1v7.7h-2.1v-7.7H424.8z M426.6,20.8l-1.9,2c-0.1,0.1-0.2,0.2-0.3,0.2c-0.1,0-0.2,0.1-0.4,0.1h-1.2
		l1-1.8c0.1-0.1,0.2-0.2,0.3-0.3c0.1-0.1,0.3-0.1,0.5-0.1H426.6z"/>
</g>
<path id="Rectángulo_171-2" class="st2" d="M201.5,47.5h97.1c8.1,0,14.7,6.6,14.7,14.7l0,0c0,8.1-6.6,14.7-14.7,14.7h-97.1
	c-8.1,0-14.7-6.6-14.7-14.7l0,0C186.7,54.1,193.3,47.5,201.5,47.5L201.5,47.5z"/>
<g class="st1">
	<path class="st0" d="M221.2,63c0,0.7-0.1,1.4-0.4,2s-0.6,1.2-1.1,1.6c-0.5,0.4-1,0.8-1.6,1c-0.6,0.3-1.3,0.4-2.1,0.4h-3.9V57.9h3.9
		c0.8,0,1.5,0.1,2.1,0.4c0.6,0.3,1.2,0.6,1.6,1.1c0.5,0.5,0.8,1,1.1,1.6C221,61.5,221.2,62.2,221.2,63z M219,63c0-0.5-0.1-1-0.2-1.4
		c-0.1-0.4-0.3-0.8-0.6-1.1c-0.3-0.3-0.6-0.5-1-0.7c-0.4-0.2-0.8-0.2-1.3-0.2h-1.8v6.9h1.8c0.5,0,0.9-0.1,1.3-0.2
		c0.4-0.2,0.7-0.4,1-0.7c0.3-0.3,0.5-0.7,0.6-1.1C218.9,64,219,63.5,219,63z"/>
</g>
<g class="st1">
	<path class="st0" d="M223.9,64.7c0.1,0.7,0.3,1.2,0.6,1.5s0.7,0.5,1.3,0.5c0.3,0,0.5,0,0.7-0.1c0.2-0.1,0.4-0.1,0.5-0.2
		c0.1-0.1,0.3-0.1,0.4-0.2c0.1-0.1,0.2-0.1,0.4-0.1c0.1,0,0.3,0.1,0.3,0.2l0.6,0.7c-0.2,0.2-0.4,0.4-0.7,0.6
		c-0.2,0.2-0.5,0.3-0.8,0.4s-0.5,0.2-0.8,0.2s-0.5,0.1-0.8,0.1c-0.5,0-1-0.1-1.4-0.2c-0.4-0.2-0.8-0.4-1.1-0.7
		c-0.3-0.3-0.6-0.7-0.8-1.2s-0.3-1-0.3-1.7c0-0.5,0.1-1,0.2-1.4c0.2-0.4,0.4-0.8,0.7-1.1c0.3-0.3,0.7-0.6,1.1-0.8
		c0.4-0.2,0.9-0.3,1.5-0.3c0.5,0,0.9,0.1,1.3,0.2c0.4,0.1,0.7,0.4,1,0.6c0.3,0.3,0.5,0.6,0.7,1c0.2,0.4,0.2,0.9,0.2,1.4
		c0,0.1,0,0.3,0,0.4c0,0.1,0,0.2-0.1,0.2c0,0.1-0.1,0.1-0.1,0.1c-0.1,0-0.1,0-0.2,0H223.9z M226.9,63.6c0-0.2,0-0.4-0.1-0.6
		c-0.1-0.2-0.1-0.3-0.3-0.5c-0.1-0.1-0.3-0.3-0.4-0.3c-0.2-0.1-0.4-0.1-0.6-0.1c-0.5,0-0.8,0.1-1.1,0.4c-0.3,0.3-0.4,0.6-0.5,1.1
		H226.9z"/>
	<path class="st0" d="M234.4,62.3c-0.1,0.1-0.1,0.1-0.2,0.2s-0.1,0.1-0.2,0.1c-0.1,0-0.2,0-0.3-0.1c-0.1,0-0.2-0.1-0.3-0.2
		c-0.1-0.1-0.3-0.1-0.4-0.2s-0.3-0.1-0.5-0.1c-0.3,0-0.6,0.1-0.7,0.2c-0.2,0.1-0.3,0.3-0.3,0.5c0,0.1,0,0.3,0.1,0.4
		c0.1,0.1,0.2,0.2,0.4,0.3c0.2,0.1,0.3,0.1,0.5,0.2c0.2,0.1,0.4,0.1,0.6,0.2c0.2,0.1,0.4,0.2,0.6,0.3c0.2,0.1,0.4,0.2,0.5,0.4
		c0.2,0.1,0.3,0.3,0.4,0.5c0.1,0.2,0.1,0.5,0.1,0.8c0,0.3-0.1,0.7-0.2,1c-0.1,0.3-0.3,0.6-0.6,0.8c-0.2,0.2-0.6,0.4-0.9,0.5
		c-0.4,0.1-0.8,0.2-1.3,0.2c-0.2,0-0.5,0-0.7-0.1c-0.2,0-0.5-0.1-0.7-0.2c-0.2-0.1-0.4-0.2-0.6-0.3c-0.2-0.1-0.4-0.2-0.5-0.4
		l0.4-0.7c0.1-0.1,0.1-0.1,0.2-0.2c0.1,0,0.2-0.1,0.3-0.1c0.1,0,0.2,0,0.3,0.1c0.1,0.1,0.2,0.1,0.3,0.2c0.1,0.1,0.3,0.1,0.4,0.2
		c0.2,0.1,0.4,0.1,0.6,0.1c0.2,0,0.3,0,0.5-0.1c0.1,0,0.2-0.1,0.3-0.2s0.1-0.2,0.2-0.2s0.1-0.2,0.1-0.3c0-0.2-0.1-0.3-0.2-0.4
		c-0.1-0.1-0.2-0.2-0.4-0.3s-0.3-0.1-0.6-0.2c-0.2-0.1-0.4-0.1-0.6-0.2c-0.2-0.1-0.4-0.2-0.6-0.3s-0.4-0.2-0.6-0.4
		c-0.2-0.2-0.3-0.3-0.4-0.6c-0.1-0.2-0.2-0.5-0.2-0.8c0-0.3,0.1-0.6,0.2-0.9s0.3-0.5,0.5-0.7c0.2-0.2,0.5-0.4,0.9-0.5
		c0.3-0.1,0.8-0.2,1.2-0.2c0.5,0,1,0.1,1.4,0.3s0.8,0.4,1,0.7L234.4,62.3z"/>
</g>
<g class="st1">
	<path class="st0" d="M241.4,62.4c-0.1,0.1-0.1,0.1-0.2,0.2c-0.1,0-0.1,0.1-0.2,0.1c-0.1,0-0.2,0-0.3-0.1s-0.2-0.1-0.3-0.2
		c-0.1-0.1-0.2-0.1-0.4-0.2c-0.2-0.1-0.3-0.1-0.6-0.1c-0.3,0-0.5,0.1-0.8,0.2s-0.4,0.3-0.5,0.5c-0.1,0.2-0.2,0.4-0.3,0.7
		c-0.1,0.3-0.1,0.6-0.1,0.9c0,0.7,0.1,1.3,0.4,1.7c0.3,0.4,0.7,0.6,1.2,0.6c0.2,0,0.3,0,0.5,0c0.1,0,0.2-0.1,0.3-0.1
		c0.1,0,0.2-0.1,0.2-0.2c0.1-0.1,0.1-0.1,0.2-0.2c0.1,0,0.1-0.1,0.2-0.1c0.1,0,0.1,0,0.2,0c0.1,0,0.3,0.1,0.3,0.2l0.6,0.7
		c-0.2,0.2-0.4,0.4-0.7,0.6s-0.5,0.3-0.7,0.4c-0.2,0.1-0.5,0.2-0.8,0.2s-0.5,0.1-0.8,0.1c-0.4,0-0.9-0.1-1.3-0.2
		c-0.4-0.2-0.7-0.4-1-0.7c-0.3-0.3-0.5-0.7-0.7-1.2c-0.2-0.5-0.3-1-0.3-1.6c0-0.5,0.1-1,0.2-1.5c0.2-0.5,0.4-0.8,0.7-1.2
		c0.3-0.3,0.7-0.6,1.1-0.8c0.4-0.2,1-0.3,1.5-0.3c0.6,0,1,0.1,1.4,0.3c0.4,0.2,0.8,0.4,1.1,0.8L241.4,62.4z"/>
</g>
<g class="st1">
	<path class="st0" d="M246.1,60.7c0.5,0,1,0.1,1.5,0.3c0.4,0.2,0.8,0.4,1.1,0.7c0.3,0.3,0.6,0.7,0.7,1.2c0.2,0.5,0.3,1,0.3,1.5
		s-0.1,1.1-0.3,1.6c-0.2,0.5-0.4,0.9-0.7,1.2c-0.3,0.3-0.7,0.6-1.1,0.7c-0.4,0.2-0.9,0.3-1.5,0.3c-0.5,0-1-0.1-1.5-0.3
		c-0.4-0.2-0.8-0.4-1.1-0.7c-0.3-0.3-0.6-0.7-0.7-1.2c-0.2-0.5-0.3-1-0.3-1.6s0.1-1.1,0.3-1.5c0.2-0.5,0.4-0.8,0.7-1.2
		c0.3-0.3,0.7-0.6,1.1-0.7C245.1,60.8,245.5,60.7,246.1,60.7z M246.1,66.7c0.6,0,1-0.2,1.2-0.6c0.3-0.4,0.4-0.9,0.4-1.7
		c0-0.7-0.1-1.3-0.4-1.7c-0.3-0.4-0.7-0.6-1.2-0.6c-0.6,0-1,0.2-1.2,0.6c-0.3,0.4-0.4,0.9-0.4,1.7c0,0.8,0.1,1.3,0.4,1.7
		C245.1,66.5,245.5,66.7,246.1,66.7z"/>
	<path class="st0" d="M252.7,61.7c0.1-0.1,0.3-0.3,0.5-0.4c0.2-0.1,0.3-0.2,0.5-0.3c0.2-0.1,0.4-0.1,0.6-0.2s0.4-0.1,0.7-0.1
		c0.4,0,0.7,0.1,1,0.2c0.3,0.1,0.6,0.3,0.8,0.6c0.2,0.2,0.4,0.5,0.5,0.9c0.1,0.3,0.2,0.7,0.2,1.1V68h-1.9v-4.6
		c0-0.4-0.1-0.7-0.3-0.9s-0.5-0.3-0.8-0.3c-0.3,0-0.5,0.1-0.8,0.2c-0.2,0.1-0.5,0.3-0.7,0.5V68h-1.9v-7.2h1.2c0.2,0,0.4,0.1,0.5,0.3
		L252.7,61.7z"/>
</g>
<g class="st1">
	<path class="st0" d="M265.4,61.1v0.7c0,0.1,0,0.2-0.1,0.3c-0.1,0.1-0.2,0.1-0.3,0.1l-0.6,0.1c0.1,0.2,0.1,0.5,0.1,0.7
		c0,0.4-0.1,0.7-0.2,1c-0.1,0.3-0.3,0.5-0.6,0.7c-0.3,0.2-0.6,0.4-0.9,0.5c-0.4,0.1-0.7,0.2-1.1,0.2c-0.3,0-0.5,0-0.7-0.1
		c-0.2,0.1-0.3,0.3-0.3,0.4c0,0.1,0.1,0.2,0.2,0.3c0.1,0.1,0.3,0.1,0.5,0.1s0.5,0,0.7,0c0.3,0,0.6,0,0.8,0c0.3,0,0.6,0.1,0.8,0.1
		c0.3,0.1,0.5,0.2,0.7,0.3s0.4,0.3,0.5,0.5s0.2,0.5,0.2,0.8c0,0.3-0.1,0.6-0.2,0.9c-0.2,0.3-0.4,0.6-0.7,0.8
		c-0.3,0.2-0.7,0.4-1.1,0.6s-0.9,0.2-1.5,0.2c-0.6,0-1-0.1-1.4-0.2c-0.4-0.1-0.7-0.2-1-0.4c-0.3-0.2-0.5-0.4-0.6-0.6
		s-0.2-0.5-0.2-0.7c0-0.3,0.1-0.6,0.3-0.8c0.2-0.2,0.5-0.4,0.8-0.5c-0.2-0.1-0.3-0.2-0.4-0.4c-0.1-0.2-0.2-0.4-0.2-0.6
		c0-0.2,0.1-0.4,0.2-0.7c0.2-0.2,0.4-0.4,0.7-0.6c-0.4-0.2-0.7-0.5-0.9-0.8s-0.3-0.7-0.3-1.2c0-0.4,0.1-0.7,0.2-1
		c0.1-0.3,0.4-0.5,0.6-0.7c0.3-0.2,0.6-0.4,0.9-0.5c0.4-0.1,0.7-0.2,1.2-0.2c0.6,0,1.2,0.1,1.6,0.4H265.4z M263.5,68.3
		c0-0.1,0-0.2-0.1-0.3c-0.1-0.1-0.2-0.1-0.3-0.2s-0.3-0.1-0.5-0.1c-0.2,0-0.4,0-0.6,0c-0.2,0-0.4,0-0.6,0c-0.2,0-0.4,0-0.6,0
		c-0.2,0.1-0.3,0.2-0.4,0.3c-0.1,0.1-0.2,0.3-0.2,0.5c0,0.1,0,0.2,0.1,0.3c0.1,0.1,0.1,0.2,0.3,0.3c0.1,0.1,0.3,0.1,0.5,0.2
		c0.2,0,0.5,0.1,0.8,0.1c0.3,0,0.6,0,0.8-0.1c0.2,0,0.4-0.1,0.5-0.2c0.1-0.1,0.2-0.2,0.3-0.3C263.4,68.6,263.5,68.5,263.5,68.3z
		 M261.6,64.2c0.4,0,0.7-0.1,0.9-0.3c0.2-0.2,0.3-0.5,0.3-0.8c0-0.3-0.1-0.6-0.3-0.8c-0.2-0.2-0.5-0.3-0.9-0.3
		c-0.4,0-0.7,0.1-0.9,0.3c-0.2,0.2-0.3,0.4-0.3,0.8c0,0.3,0.1,0.6,0.3,0.8S261.2,64.2,261.6,64.2z"/>
</g>
<g class="st1">
	<path class="st0" d="M267.8,64.7c0.1,0.7,0.3,1.2,0.6,1.5s0.7,0.5,1.3,0.5c0.3,0,0.5,0,0.7-0.1c0.2-0.1,0.4-0.1,0.5-0.2
		c0.1-0.1,0.3-0.1,0.4-0.2c0.1-0.1,0.2-0.1,0.4-0.1c0.1,0,0.3,0.1,0.3,0.2l0.6,0.7c-0.2,0.2-0.4,0.4-0.7,0.6s-0.5,0.3-0.8,0.4
		c-0.3,0.1-0.5,0.2-0.8,0.2s-0.5,0.1-0.8,0.1c-0.5,0-1-0.1-1.4-0.2s-0.8-0.4-1.1-0.7c-0.3-0.3-0.6-0.7-0.8-1.2s-0.3-1-0.3-1.7
		c0-0.5,0.1-1,0.2-1.4c0.2-0.4,0.4-0.8,0.7-1.1c0.3-0.3,0.7-0.6,1.1-0.8c0.4-0.2,0.9-0.3,1.5-0.3c0.5,0,0.9,0.1,1.3,0.2
		c0.4,0.1,0.7,0.4,1,0.6c0.3,0.3,0.5,0.6,0.7,1c0.2,0.4,0.2,0.9,0.2,1.4c0,0.1,0,0.3,0,0.4c0,0.1,0,0.2-0.1,0.2
		c0,0.1-0.1,0.1-0.1,0.1c-0.1,0-0.1,0-0.2,0H267.8z M270.9,63.6c0-0.2,0-0.4-0.1-0.6c-0.1-0.2-0.1-0.3-0.3-0.5
		c-0.1-0.1-0.3-0.3-0.4-0.3c-0.2-0.1-0.4-0.1-0.6-0.1c-0.5,0-0.8,0.1-1.1,0.4c-0.3,0.3-0.4,0.6-0.5,1.1H270.9z"/>
	<path class="st0" d="M275.8,57.6V68h-1.9V57.6H275.8z"/>
	<path class="st0" d="M277.2,61.8c0.4-0.4,0.9-0.7,1.4-0.9c0.5-0.2,1.1-0.3,1.7-0.3c0.4,0,0.8,0.1,1.2,0.2c0.3,0.1,0.6,0.3,0.9,0.6
		c0.2,0.3,0.4,0.5,0.5,0.9s0.2,0.7,0.2,1.1V68h-0.9c-0.2,0-0.3,0-0.4-0.1c-0.1-0.1-0.2-0.2-0.2-0.3l-0.2-0.5
		c-0.2,0.2-0.4,0.3-0.5,0.4c-0.2,0.1-0.3,0.2-0.5,0.3c-0.2,0.1-0.4,0.1-0.6,0.2c-0.2,0-0.4,0.1-0.7,0.1c-0.3,0-0.6,0-0.9-0.1
		c-0.3-0.1-0.5-0.2-0.7-0.4c-0.2-0.2-0.3-0.4-0.4-0.6c-0.1-0.2-0.2-0.5-0.2-0.9c0-0.3,0.1-0.5,0.2-0.8c0.1-0.3,0.4-0.5,0.7-0.7
		s0.8-0.4,1.3-0.5c0.5-0.1,1.2-0.2,2.1-0.2v-0.4c0-0.5-0.1-0.8-0.3-1c-0.2-0.2-0.5-0.3-0.8-0.3c-0.3,0-0.5,0-0.7,0.1
		c-0.2,0.1-0.3,0.1-0.5,0.2s-0.3,0.1-0.4,0.2c-0.1,0.1-0.3,0.1-0.4,0.1c-0.1,0-0.2,0-0.3-0.1s-0.2-0.1-0.2-0.2L277.2,61.8z
		 M281.1,65c-0.5,0-0.9,0.1-1.2,0.1s-0.6,0.1-0.7,0.2s-0.3,0.2-0.4,0.3c-0.1,0.1-0.1,0.2-0.1,0.4c0,0.3,0.1,0.5,0.2,0.6
		c0.2,0.1,0.4,0.2,0.7,0.2c0.3,0,0.6-0.1,0.8-0.2s0.5-0.3,0.7-0.5V65z"/>
</g>
<g class="st1">
	<path class="st0" d="M286.6,62c0.2-0.4,0.5-0.7,0.8-1c0.3-0.2,0.6-0.4,1.1-0.4c0.3,0,0.6,0.1,0.8,0.2l-0.1,1.4
		c0,0.1-0.1,0.2-0.1,0.2c0,0-0.1,0.1-0.2,0.1c-0.1,0-0.2,0-0.3,0c-0.1,0-0.3,0-0.4,0c-0.2,0-0.3,0-0.5,0.1c-0.1,0.1-0.3,0.1-0.4,0.2
		c-0.1,0.1-0.2,0.2-0.3,0.3c-0.1,0.1-0.2,0.3-0.2,0.5V68h-1.9v-7.2h1.1c0.2,0,0.3,0,0.4,0.1c0.1,0.1,0.1,0.2,0.2,0.4L286.6,62z"/>
</g>
</svg>
