<?xml version="1.0" encoding="utf-8"?>
<!-- Generator: Adobe Illustrator 23.0.0, SVG Export Plug-In . SVG Version: 6.00 Build 0)  -->
<svg version="1.1" id="Layer_1" xmlns="http://www.w3.org/2000/svg" xmlns:xlink="http://www.w3.org/1999/xlink" x="0px" y="0px"
	 viewBox="0 0 850 55" style="enable-background:new 0 0 850 55;" xml:space="preserve">
<style type="text/css">
	.st0{fill:#0FA3F4;}
	.st1{fill:#FFFFFF;}
	.st2{enable-background:new    ;}
</style>
<title>Cuenta_Congelada_Cintillos_WEB</title>
<rect id="Rectángulo_575" class="st0" width="850" height="55"/>
<path id="Rectángulo_171-2" class="st1" d="M587.2,11.9h112c9.4,0,17,7.6,17,17l0,0c0,9.4-7.6,17-17,17l0,0h-112
	c-9.4,0-17-7.6-17-17l0,0C570.2,19.5,577.8,11.9,587.2,11.9L587.2,11.9z"/>
<g class="st2">
	<path class="st1" d="M144.4,24.7h-3.8v10.9h-2.7V24.7h-3.8v-2.2h10.3V24.7z"/>
</g>
<g class="st2">
	<path class="st1" d="M152.5,26.3v9.3h-1.5c-0.3,0-0.5-0.1-0.6-0.4l-0.2-0.6c-0.2,0.2-0.4,0.3-0.6,0.5c-0.2,0.2-0.4,0.3-0.6,0.4
		c-0.2,0.1-0.5,0.2-0.7,0.3c-0.3,0.1-0.5,0.1-0.9,0.1c-0.5,0-1-0.1-1.3-0.3s-0.7-0.4-1-0.7c-0.3-0.3-0.5-0.7-0.6-1.1
		c-0.1-0.4-0.2-0.9-0.2-1.4v-5.9h2.5v5.9c0,0.5,0.1,0.9,0.4,1.2c0.2,0.3,0.6,0.4,1.1,0.4c0.3,0,0.7-0.1,1-0.2s0.6-0.4,0.9-0.6v-6.7
		H152.5z"/>
	<path class="st1" d="M165.5,28.4c-0.1,0.1-0.1,0.2-0.2,0.2s-0.2,0.1-0.3,0.1c-0.1,0-0.2,0-0.3-0.1c-0.1-0.1-0.2-0.1-0.4-0.2
		s-0.3-0.2-0.5-0.2c-0.2-0.1-0.4-0.1-0.7-0.1c-0.4,0-0.7,0.1-1,0.2c-0.3,0.1-0.5,0.3-0.7,0.6c-0.2,0.3-0.3,0.6-0.4,0.9
		c-0.1,0.4-0.1,0.8-0.1,1.2c0,0.9,0.2,1.7,0.6,2.2s0.9,0.8,1.6,0.8c0.2,0,0.4,0,0.6-0.1s0.3-0.1,0.4-0.1c0.1-0.1,0.2-0.1,0.3-0.2
		c0.1-0.1,0.2-0.1,0.3-0.2c0.1-0.1,0.2-0.1,0.2-0.1c0.1,0,0.2-0.1,0.3-0.1c0.2,0,0.3,0.1,0.4,0.2l0.7,0.9c-0.3,0.3-0.5,0.6-0.8,0.8
		c-0.3,0.2-0.6,0.4-0.9,0.5s-0.6,0.2-1,0.2s-0.7,0.1-1,0.1c-0.6,0-1.1-0.1-1.6-0.3c-0.5-0.2-1-0.5-1.3-0.9c-0.4-0.4-0.7-0.9-0.9-1.5
		s-0.3-1.3-0.3-2c0-0.7,0.1-1.3,0.3-1.9c0.2-0.6,0.5-1.1,0.9-1.5s0.9-0.8,1.4-1c0.6-0.2,1.2-0.4,2-0.4c0.7,0,1.3,0.1,1.9,0.3
		c0.5,0.2,1,0.6,1.4,1L165.5,28.4z"/>
	<path class="st1" d="M175.6,26.3v9.3h-1.5c-0.3,0-0.5-0.1-0.6-0.4l-0.2-0.6c-0.2,0.2-0.4,0.3-0.6,0.5c-0.2,0.2-0.4,0.3-0.6,0.4
		c-0.2,0.1-0.5,0.2-0.7,0.3c-0.3,0.1-0.5,0.1-0.9,0.1c-0.5,0-1-0.1-1.3-0.3s-0.7-0.4-1-0.7c-0.3-0.3-0.5-0.7-0.6-1.1
		c-0.1-0.4-0.2-0.9-0.2-1.4v-5.9h2.5v5.9c0,0.5,0.1,0.9,0.4,1.2c0.2,0.3,0.6,0.4,1.1,0.4c0.3,0,0.7-0.1,1-0.2s0.6-0.4,0.9-0.6v-6.7
		H175.6z"/>
	<path class="st1" d="M179.7,31.3c0.1,0.9,0.3,1.5,0.7,1.9c0.4,0.4,1,0.6,1.6,0.6c0.3,0,0.6,0,0.9-0.1s0.5-0.2,0.7-0.3
		c0.2-0.1,0.4-0.2,0.5-0.3s0.3-0.1,0.5-0.1c0.2,0,0.3,0.1,0.4,0.2l0.7,0.9c-0.3,0.3-0.6,0.6-0.9,0.8s-0.6,0.4-1,0.5
		c-0.3,0.1-0.7,0.2-1,0.2c-0.3,0-0.7,0.1-1,0.1c-0.6,0-1.3-0.1-1.8-0.3s-1-0.5-1.5-0.9s-0.7-0.9-1-1.6c-0.2-0.6-0.4-1.3-0.4-2.2
		c0-0.6,0.1-1.2,0.3-1.8c0.2-0.6,0.5-1,0.9-1.5s0.9-0.7,1.4-1c0.6-0.2,1.2-0.4,1.9-0.4c0.6,0,1.1,0.1,1.6,0.3
		c0.5,0.2,0.9,0.5,1.3,0.8c0.4,0.4,0.6,0.8,0.8,1.3c0.2,0.5,0.3,1.1,0.3,1.8c0,0.2,0,0.3,0,0.5c0,0.1,0,0.2-0.1,0.3
		c0,0.1-0.1,0.1-0.2,0.1c-0.1,0-0.2,0-0.3,0H179.7z M183.6,29.8c0-0.3,0-0.5-0.1-0.7c-0.1-0.2-0.2-0.4-0.3-0.6
		c-0.1-0.2-0.3-0.3-0.6-0.4c-0.2-0.1-0.5-0.2-0.8-0.2c-0.6,0-1.1,0.2-1.4,0.5c-0.3,0.3-0.6,0.8-0.7,1.4H183.6z"/>
</g>
<g class="st2">
	<path class="st1" d="M189.8,27.4c0.2-0.2,0.4-0.3,0.6-0.5c0.2-0.1,0.4-0.3,0.6-0.4c0.2-0.1,0.5-0.2,0.7-0.3
		c0.3-0.1,0.5-0.1,0.9-0.1c0.5,0,1,0.1,1.3,0.3c0.4,0.2,0.7,0.4,1,0.7c0.3,0.3,0.5,0.7,0.6,1.1c0.1,0.4,0.2,0.9,0.2,1.4v5.9h-2.5
		v-5.9c0-0.5-0.1-0.9-0.4-1.2c-0.2-0.3-0.6-0.4-1.1-0.4c-0.3,0-0.7,0.1-1,0.2c-0.3,0.1-0.6,0.4-0.9,0.6v6.7h-2.5v-9.3h1.5
		c0.3,0,0.5,0.1,0.6,0.4L189.8,27.4z"/>
</g>
<g class="st2">
	<path class="st1" d="M200.8,35.7c-0.4,0-0.8-0.1-1.1-0.2c-0.3-0.1-0.6-0.3-0.8-0.5c-0.2-0.2-0.4-0.5-0.5-0.8
		c-0.1-0.3-0.2-0.7-0.2-1.1v-5h-0.9c-0.1,0-0.2,0-0.3-0.1c-0.1-0.1-0.1-0.2-0.1-0.4v-1l1.5-0.3l0.5-2.4c0.1-0.3,0.2-0.4,0.5-0.4h1.3
		v2.8h2.4v1.7h-2.4v4.8c0,0.3,0.1,0.5,0.2,0.6s0.3,0.2,0.5,0.2c0.1,0,0.2,0,0.3,0s0.2-0.1,0.2-0.1s0.1-0.1,0.2-0.1
		c0.1,0,0.1,0,0.2,0c0.1,0,0.1,0,0.2,0c0,0,0.1,0.1,0.1,0.2l0.7,1.2c-0.3,0.3-0.7,0.5-1.2,0.6C201.7,35.6,201.3,35.7,200.8,35.7z"/>
	<path class="st1" d="M204.2,27.6c0.5-0.5,1.1-0.9,1.8-1.1s1.4-0.4,2.1-0.4c0.6,0,1,0.1,1.5,0.3c0.4,0.2,0.8,0.4,1.1,0.8
		c0.3,0.3,0.5,0.7,0.7,1.1c0.2,0.4,0.2,0.9,0.2,1.5v5.8h-1.1c-0.2,0-0.4,0-0.5-0.1c-0.1-0.1-0.2-0.2-0.3-0.4l-0.2-0.6
		c-0.2,0.2-0.5,0.4-0.7,0.5c-0.2,0.2-0.4,0.3-0.7,0.4c-0.2,0.1-0.5,0.2-0.8,0.2c-0.3,0.1-0.6,0.1-0.9,0.1c-0.4,0-0.8-0.1-1.1-0.2
		c-0.3-0.1-0.6-0.3-0.9-0.5c-0.2-0.2-0.4-0.5-0.6-0.8c-0.1-0.3-0.2-0.7-0.2-1.1c0-0.3,0.1-0.7,0.3-1c0.2-0.3,0.5-0.7,0.9-0.9
		c0.4-0.3,1-0.5,1.7-0.7c0.7-0.2,1.6-0.3,2.7-0.3v-0.5c0-0.6-0.1-1-0.4-1.3c-0.2-0.3-0.6-0.4-1.1-0.4c-0.3,0-0.6,0-0.9,0.1
		s-0.4,0.2-0.6,0.3c-0.2,0.1-0.3,0.2-0.5,0.3c-0.2,0.1-0.3,0.1-0.5,0.1c-0.2,0-0.3,0-0.4-0.1c-0.1-0.1-0.2-0.2-0.3-0.3L204.2,27.6z
		 M209.2,31.7c-0.6,0-1.1,0.1-1.5,0.2c-0.4,0.1-0.7,0.2-1,0.3c-0.2,0.1-0.4,0.3-0.5,0.4c-0.1,0.2-0.1,0.3-0.1,0.5
		c0,0.4,0.1,0.6,0.3,0.8c0.2,0.2,0.5,0.2,0.8,0.2c0.4,0,0.8-0.1,1.1-0.2c0.3-0.1,0.6-0.4,0.9-0.7V31.7z"/>
	<path class="st1" d="M219.9,31.3c0.1,0.9,0.3,1.5,0.7,1.9c0.4,0.4,1,0.6,1.6,0.6c0.3,0,0.6,0,0.9-0.1s0.5-0.2,0.7-0.3
		c0.2-0.1,0.4-0.2,0.5-0.3s0.3-0.1,0.5-0.1c0.2,0,0.3,0.1,0.4,0.2l0.7,0.9c-0.3,0.3-0.6,0.6-0.9,0.8s-0.6,0.4-1,0.5
		c-0.3,0.1-0.7,0.2-1,0.2c-0.3,0-0.7,0.1-1,0.1c-0.6,0-1.3-0.1-1.8-0.3s-1-0.5-1.5-0.9s-0.7-0.9-1-1.6c-0.2-0.6-0.4-1.3-0.4-2.2
		c0-0.6,0.1-1.2,0.3-1.8c0.2-0.6,0.5-1,0.9-1.5s0.9-0.7,1.4-1c0.6-0.2,1.2-0.4,1.9-0.4c0.6,0,1.1,0.1,1.6,0.3
		c0.5,0.2,0.9,0.5,1.3,0.8c0.4,0.4,0.6,0.8,0.8,1.3c0.2,0.5,0.3,1.1,0.3,1.8c0,0.2,0,0.3,0,0.5c0,0.1,0,0.2-0.1,0.3
		c0,0.1-0.1,0.1-0.2,0.1c-0.1,0-0.2,0-0.3,0H219.9z M223.8,29.8c0-0.3,0-0.5-0.1-0.7c-0.1-0.2-0.2-0.4-0.3-0.6
		c-0.1-0.2-0.3-0.3-0.6-0.4c-0.2-0.1-0.5-0.2-0.8-0.2c-0.6,0-1.1,0.2-1.4,0.5c-0.3,0.3-0.6,0.8-0.7,1.4H223.8z"/>
	<path class="st1" d="M233.3,28.2c-0.1,0.1-0.1,0.2-0.2,0.2c-0.1,0-0.2,0.1-0.3,0.1c-0.1,0-0.2,0-0.4-0.1s-0.3-0.1-0.4-0.2
		c-0.2-0.1-0.3-0.1-0.5-0.2c-0.2-0.1-0.4-0.1-0.7-0.1c-0.4,0-0.7,0.1-0.9,0.2c-0.2,0.2-0.3,0.4-0.3,0.7c0,0.2,0.1,0.3,0.2,0.5
		s0.3,0.2,0.5,0.3c0.2,0.1,0.4,0.2,0.7,0.3c0.3,0.1,0.5,0.2,0.8,0.3c0.3,0.1,0.6,0.2,0.8,0.3c0.3,0.1,0.5,0.3,0.7,0.5
		c0.2,0.2,0.4,0.4,0.5,0.7s0.2,0.6,0.2,1c0,0.5-0.1,0.9-0.2,1.2s-0.4,0.7-0.7,1c-0.3,0.3-0.7,0.5-1.2,0.6s-1,0.2-1.6,0.2
		c-0.3,0-0.6,0-0.9-0.1c-0.3-0.1-0.6-0.1-0.9-0.2c-0.3-0.1-0.5-0.2-0.8-0.4s-0.5-0.3-0.6-0.5l0.6-0.9c0.1-0.1,0.1-0.2,0.2-0.3
		c0.1-0.1,0.2-0.1,0.4-0.1c0.1,0,0.3,0,0.4,0.1c0.1,0.1,0.3,0.2,0.4,0.2c0.2,0.1,0.3,0.2,0.6,0.2c0.2,0.1,0.5,0.1,0.8,0.1
		c0.2,0,0.4,0,0.6-0.1c0.2-0.1,0.3-0.1,0.4-0.2s0.2-0.2,0.2-0.3c0.1-0.1,0.1-0.2,0.1-0.4c0-0.2-0.1-0.4-0.2-0.5
		c-0.1-0.1-0.3-0.2-0.5-0.3s-0.4-0.2-0.7-0.3s-0.5-0.2-0.8-0.3c-0.3-0.1-0.6-0.2-0.8-0.3s-0.5-0.3-0.7-0.5s-0.4-0.4-0.5-0.7
		c-0.1-0.3-0.2-0.7-0.2-1.1c0-0.4,0.1-0.7,0.2-1.1c0.1-0.3,0.4-0.6,0.7-0.9c0.3-0.3,0.7-0.5,1.1-0.6c0.4-0.2,1-0.2,1.6-0.2
		c0.7,0,1.3,0.1,1.8,0.3c0.5,0.2,1,0.5,1.3,0.8L233.3,28.2z"/>
	<path class="st1" d="M238.7,35.7c-0.4,0-0.8-0.1-1.1-0.2c-0.3-0.1-0.6-0.3-0.8-0.5c-0.2-0.2-0.4-0.5-0.5-0.8
		c-0.1-0.3-0.2-0.7-0.2-1.1v-5h-0.9c-0.1,0-0.2,0-0.3-0.1c-0.1-0.1-0.1-0.2-0.1-0.4v-1l1.5-0.3l0.5-2.4c0.1-0.3,0.2-0.4,0.5-0.4h1.3
		v2.8h2.4v1.7h-2.4v4.8c0,0.3,0.1,0.5,0.2,0.6s0.3,0.2,0.5,0.2c0.1,0,0.2,0,0.3,0s0.2-0.1,0.2-0.1s0.1-0.1,0.2-0.1
		c0.1,0,0.1,0,0.2,0c0.1,0,0.1,0,0.2,0c0,0,0.1,0.1,0.1,0.2l0.7,1.2c-0.3,0.3-0.7,0.5-1.2,0.6C239.6,35.6,239.1,35.7,238.7,35.7z"/>
	<path class="st1" d="M242.1,27.6c0.5-0.5,1.1-0.9,1.8-1.1s1.4-0.4,2.1-0.4c0.6,0,1,0.1,1.5,0.3c0.4,0.2,0.8,0.4,1.1,0.8
		c0.3,0.3,0.5,0.7,0.7,1.1c0.2,0.4,0.2,0.9,0.2,1.5v5.8h-1.1c-0.2,0-0.4,0-0.5-0.1c-0.1-0.1-0.2-0.2-0.3-0.4l-0.2-0.6
		c-0.2,0.2-0.5,0.4-0.7,0.5c-0.2,0.2-0.4,0.3-0.7,0.4c-0.2,0.1-0.5,0.2-0.8,0.2c-0.3,0.1-0.6,0.1-0.9,0.1c-0.4,0-0.8-0.1-1.1-0.2
		c-0.3-0.1-0.6-0.3-0.9-0.5c-0.2-0.2-0.4-0.5-0.6-0.8c-0.1-0.3-0.2-0.7-0.2-1.1c0-0.3,0.1-0.7,0.3-1c0.2-0.3,0.5-0.7,0.9-0.9
		c0.4-0.3,1-0.5,1.7-0.7c0.7-0.2,1.6-0.3,2.7-0.3v-0.5c0-0.6-0.1-1-0.4-1.3c-0.2-0.3-0.6-0.4-1.1-0.4c-0.3,0-0.6,0-0.9,0.1
		s-0.4,0.2-0.6,0.3c-0.2,0.1-0.3,0.2-0.5,0.3c-0.2,0.1-0.3,0.1-0.5,0.1c-0.2,0-0.3,0-0.4-0.1c-0.1-0.1-0.2-0.2-0.3-0.3L242.1,27.6z
		 M247.1,31.7c-0.6,0-1.1,0.1-1.5,0.2c-0.4,0.1-0.7,0.2-1,0.3c-0.2,0.1-0.4,0.3-0.5,0.4c-0.1,0.2-0.1,0.3-0.1,0.5
		c0,0.4,0.1,0.6,0.3,0.8c0.2,0.2,0.5,0.2,0.8,0.2c0.4,0,0.8-0.1,1.1-0.2c0.3-0.1,0.6-0.4,0.9-0.7V31.7z M249.1,22.4l-2.3,2.4
		c-0.1,0.1-0.2,0.2-0.4,0.3c-0.1,0.1-0.3,0.1-0.5,0.1h-1.5l1.3-2.2c0.1-0.2,0.2-0.3,0.3-0.4s0.3-0.1,0.6-0.1H249.1z"/>
</g>
<g class="st2">
	<path class="st1" d="M262.8,28.4c-0.1,0.1-0.1,0.2-0.2,0.2s-0.2,0.1-0.3,0.1c-0.1,0-0.2,0-0.3-0.1c-0.1-0.1-0.2-0.1-0.4-0.2
		s-0.3-0.2-0.5-0.2c-0.2-0.1-0.4-0.1-0.7-0.1c-0.4,0-0.7,0.1-1,0.2c-0.3,0.1-0.5,0.3-0.7,0.6c-0.2,0.3-0.3,0.6-0.4,0.9
		c-0.1,0.4-0.1,0.8-0.1,1.2c0,0.9,0.2,1.7,0.6,2.2s0.9,0.8,1.6,0.8c0.2,0,0.4,0,0.6-0.1s0.3-0.1,0.4-0.1c0.1-0.1,0.2-0.1,0.3-0.2
		c0.1-0.1,0.2-0.1,0.3-0.2c0.1-0.1,0.2-0.1,0.2-0.1c0.1,0,0.2-0.1,0.3-0.1c0.2,0,0.3,0.1,0.4,0.2l0.7,0.9c-0.3,0.3-0.5,0.6-0.8,0.8
		c-0.3,0.2-0.6,0.4-0.9,0.5s-0.6,0.2-1,0.2s-0.7,0.1-1,0.1c-0.6,0-1.1-0.1-1.6-0.3c-0.5-0.2-1-0.5-1.3-0.9c-0.4-0.4-0.7-0.9-0.9-1.5
		s-0.3-1.3-0.3-2c0-0.7,0.1-1.3,0.3-1.9c0.2-0.6,0.5-1.1,0.9-1.5s0.9-0.8,1.4-1c0.6-0.2,1.2-0.4,2-0.4c0.7,0,1.3,0.1,1.9,0.3
		c0.5,0.2,1,0.6,1.4,1L262.8,28.4z"/>
</g>
<g class="st2">
	<path class="st1" d="M268.9,26.1c0.7,0,1.3,0.1,1.9,0.3c0.6,0.2,1.1,0.5,1.5,0.9c0.4,0.4,0.7,0.9,0.9,1.5s0.3,1.3,0.3,2
		c0,0.7-0.1,1.4-0.3,2s-0.5,1.1-0.9,1.5c-0.4,0.4-0.9,0.7-1.5,1c-0.6,0.2-1.2,0.3-1.9,0.3c-0.7,0-1.3-0.1-1.9-0.3
		c-0.6-0.2-1.1-0.5-1.5-1c-0.4-0.4-0.7-0.9-0.9-1.5s-0.3-1.3-0.3-2c0-0.7,0.1-1.4,0.3-2s0.5-1.1,0.9-1.5c0.4-0.4,0.9-0.7,1.5-0.9
		C267.5,26.3,268.1,26.1,268.9,26.1z M268.9,33.8c0.7,0,1.2-0.2,1.6-0.7c0.3-0.5,0.5-1.2,0.5-2.2c0-1-0.2-1.7-0.5-2.2
		c-0.3-0.5-0.9-0.7-1.6-0.7c-0.7,0-1.3,0.2-1.6,0.7c-0.3,0.5-0.5,1.2-0.5,2.2c0,1,0.2,1.7,0.5,2.2C267.6,33.6,268.1,33.8,268.9,33.8
		z"/>
	<path class="st1" d="M277.4,27.4c0.2-0.2,0.4-0.3,0.6-0.5c0.2-0.1,0.4-0.3,0.6-0.4c0.2-0.1,0.5-0.2,0.7-0.3
		c0.3-0.1,0.5-0.1,0.9-0.1c0.5,0,1,0.1,1.3,0.3c0.4,0.2,0.7,0.4,1,0.7c0.3,0.3,0.5,0.7,0.6,1.1c0.1,0.4,0.2,0.9,0.2,1.4v5.9h-2.5
		v-5.9c0-0.5-0.1-0.9-0.4-1.2c-0.2-0.3-0.6-0.4-1.1-0.4c-0.3,0-0.7,0.1-1,0.2c-0.3,0.1-0.6,0.4-0.9,0.6v6.7h-2.5v-9.3h1.5
		c0.3,0,0.5,0.1,0.6,0.4L277.4,27.4z"/>
</g>
<g class="st2">
	<path class="st1" d="M293.7,26.6v0.9c0,0.1,0,0.3-0.1,0.3c-0.1,0.1-0.2,0.1-0.4,0.2l-0.8,0.2c0.1,0.3,0.2,0.6,0.2,0.9
		c0,0.5-0.1,0.9-0.3,1.2s-0.4,0.7-0.8,0.9c-0.3,0.3-0.7,0.5-1.2,0.6c-0.4,0.1-0.9,0.2-1.5,0.2c-0.3,0-0.6,0-0.9-0.1
		c-0.3,0.2-0.4,0.3-0.4,0.5c0,0.2,0.1,0.3,0.3,0.4s0.4,0.1,0.7,0.2c0.3,0,0.6,0.1,1,0.1s0.7,0,1.1,0.1c0.4,0,0.7,0.1,1.1,0.2
		c0.4,0.1,0.7,0.2,1,0.4c0.3,0.2,0.5,0.4,0.7,0.7s0.3,0.6,0.3,1.1c0,0.4-0.1,0.8-0.3,1.2s-0.5,0.7-0.9,1c-0.4,0.3-0.9,0.6-1.4,0.7
		c-0.6,0.2-1.2,0.3-1.9,0.3c-0.7,0-1.3-0.1-1.9-0.2c-0.5-0.1-1-0.3-1.3-0.5c-0.3-0.2-0.6-0.5-0.8-0.8s-0.3-0.6-0.3-0.9
		c0-0.4,0.1-0.8,0.4-1.1s0.6-0.5,1-0.7c-0.2-0.1-0.4-0.3-0.6-0.5s-0.2-0.5-0.2-0.8c0-0.3,0.1-0.6,0.3-0.9c0.2-0.3,0.5-0.6,0.9-0.8
		c-0.5-0.3-0.8-0.6-1.1-1c-0.3-0.4-0.4-0.9-0.4-1.5c0-0.5,0.1-0.9,0.3-1.3c0.2-0.4,0.5-0.7,0.8-1c0.3-0.3,0.7-0.5,1.2-0.6
		c0.5-0.1,1-0.2,1.5-0.2c0.8,0,1.5,0.2,2.1,0.5H293.7z M291.2,35.9c0-0.2-0.1-0.3-0.2-0.4c-0.1-0.1-0.2-0.2-0.4-0.2
		c-0.2-0.1-0.4-0.1-0.6-0.1c-0.2,0-0.5,0-0.7-0.1c-0.3,0-0.5,0-0.8,0c-0.3,0-0.6,0-0.8-0.1c-0.2,0.1-0.4,0.3-0.5,0.4
		c-0.1,0.2-0.2,0.4-0.2,0.6c0,0.2,0,0.3,0.1,0.4s0.2,0.2,0.3,0.3s0.4,0.2,0.6,0.2c0.3,0.1,0.6,0.1,1,0.1c0.4,0,0.8,0,1-0.1
		c0.3-0.1,0.5-0.1,0.7-0.2c0.2-0.1,0.3-0.2,0.4-0.4C291.2,36.3,291.2,36.1,291.2,35.9z M288.8,30.6c0.5,0,0.9-0.1,1.1-0.4
		c0.2-0.3,0.4-0.6,0.4-1c0-0.4-0.1-0.8-0.4-1c-0.2-0.2-0.6-0.4-1.1-0.4s-0.9,0.1-1.1,0.4c-0.2,0.2-0.4,0.6-0.4,1
		c0,0.4,0.1,0.7,0.4,1C288,30.5,288.3,30.6,288.8,30.6z"/>
</g>
<g class="st2">
	<path class="st1" d="M296.8,31.3c0.1,0.9,0.3,1.5,0.7,1.9c0.4,0.4,1,0.6,1.6,0.6c0.3,0,0.6,0,0.9-0.1s0.5-0.2,0.7-0.3
		c0.2-0.1,0.4-0.2,0.5-0.3s0.3-0.1,0.5-0.1c0.2,0,0.3,0.1,0.4,0.2l0.7,0.9c-0.3,0.3-0.6,0.6-0.9,0.8s-0.6,0.4-1,0.5
		c-0.3,0.1-0.7,0.2-1,0.2c-0.3,0-0.7,0.1-1,0.1c-0.6,0-1.3-0.1-1.8-0.3s-1-0.5-1.5-0.9s-0.7-0.9-1-1.6c-0.2-0.6-0.4-1.3-0.4-2.2
		c0-0.6,0.1-1.2,0.3-1.8c0.2-0.6,0.5-1,0.9-1.5s0.9-0.7,1.4-1c0.6-0.2,1.2-0.4,1.9-0.4c0.6,0,1.1,0.1,1.6,0.3
		c0.5,0.2,0.9,0.5,1.3,0.8c0.4,0.4,0.6,0.8,0.8,1.3c0.2,0.5,0.3,1.1,0.3,1.8c0,0.2,0,0.3,0,0.5c0,0.1,0,0.2-0.1,0.3
		c0,0.1-0.1,0.1-0.2,0.1c-0.1,0-0.2,0-0.3,0H296.8z M300.7,29.8c0-0.3,0-0.5-0.1-0.7c-0.1-0.2-0.2-0.4-0.3-0.6
		c-0.1-0.2-0.3-0.3-0.6-0.4c-0.2-0.1-0.5-0.2-0.8-0.2c-0.6,0-1.1,0.2-1.4,0.5c-0.3,0.3-0.6,0.8-0.7,1.4H300.7z"/>
	<path class="st1" d="M307,22.2v13.4h-2.5V22.2H307z"/>
	<path class="st1" d="M308.9,27.6c0.5-0.5,1.1-0.9,1.8-1.1s1.4-0.4,2.1-0.4c0.6,0,1,0.1,1.5,0.3c0.4,0.2,0.8,0.4,1.1,0.8
		c0.3,0.3,0.5,0.7,0.7,1.1c0.2,0.4,0.2,0.9,0.2,1.5v5.8h-1.1c-0.2,0-0.4,0-0.5-0.1c-0.1-0.1-0.2-0.2-0.3-0.4l-0.2-0.6
		c-0.2,0.2-0.5,0.4-0.7,0.5c-0.2,0.2-0.4,0.3-0.7,0.4c-0.2,0.1-0.5,0.2-0.8,0.2c-0.3,0.1-0.6,0.1-0.9,0.1c-0.4,0-0.8-0.1-1.1-0.2
		c-0.3-0.1-0.6-0.3-0.9-0.5c-0.2-0.2-0.4-0.5-0.6-0.8c-0.1-0.3-0.2-0.7-0.2-1.1c0-0.3,0.1-0.7,0.3-1c0.2-0.3,0.5-0.7,0.9-0.9
		c0.4-0.3,1-0.5,1.7-0.7c0.7-0.2,1.6-0.3,2.7-0.3v-0.5c0-0.6-0.1-1-0.4-1.3c-0.2-0.3-0.6-0.4-1.1-0.4c-0.3,0-0.6,0-0.9,0.1
		s-0.4,0.2-0.6,0.3c-0.2,0.1-0.3,0.2-0.5,0.3c-0.2,0.1-0.3,0.1-0.5,0.1c-0.2,0-0.3,0-0.4-0.1c-0.1-0.1-0.2-0.2-0.3-0.3L308.9,27.6z
		 M313.9,31.7c-0.6,0-1.1,0.1-1.5,0.2c-0.4,0.1-0.7,0.2-1,0.3c-0.2,0.1-0.4,0.3-0.5,0.4c-0.1,0.2-0.1,0.3-0.1,0.5
		c0,0.4,0.1,0.6,0.3,0.8c0.2,0.2,0.5,0.2,0.8,0.2c0.4,0,0.8-0.1,1.1-0.2c0.3-0.1,0.6-0.4,0.9-0.7V31.7z"/>
	<path class="st1" d="M326.5,22.2v13.4H325c-0.3,0-0.5-0.1-0.6-0.4l-0.2-0.8c-0.2,0.2-0.4,0.4-0.6,0.6s-0.4,0.3-0.7,0.4
		c-0.2,0.1-0.5,0.2-0.8,0.3c-0.3,0.1-0.6,0.1-0.9,0.1c-0.5,0-1-0.1-1.4-0.3c-0.4-0.2-0.8-0.5-1.1-0.9c-0.3-0.4-0.5-0.9-0.7-1.5
		s-0.3-1.3-0.3-2c0-0.7,0.1-1.3,0.3-1.9s0.5-1.1,0.8-1.5c0.3-0.4,0.8-0.8,1.3-1c0.5-0.2,1-0.4,1.6-0.4c0.5,0,0.9,0.1,1.3,0.2
		c0.3,0.2,0.7,0.4,0.9,0.6v-4.8H326.5z M324,28.7c-0.2-0.3-0.5-0.5-0.8-0.6c-0.3-0.1-0.6-0.2-0.9-0.2c-0.3,0-0.6,0.1-0.8,0.2
		s-0.5,0.3-0.6,0.5c-0.2,0.2-0.3,0.6-0.4,0.9c-0.1,0.4-0.1,0.8-0.1,1.3c0,0.5,0,1,0.1,1.3c0.1,0.4,0.2,0.7,0.3,0.9
		c0.1,0.2,0.3,0.4,0.5,0.5s0.4,0.1,0.7,0.1c0.4,0,0.8-0.1,1.1-0.3s0.6-0.4,0.8-0.7V28.7z"/>
	<path class="st1" d="M328.4,27.6c0.5-0.5,1.1-0.9,1.8-1.1s1.4-0.4,2.1-0.4c0.6,0,1,0.1,1.5,0.3c0.4,0.2,0.8,0.4,1.1,0.8
		c0.3,0.3,0.5,0.7,0.7,1.1c0.2,0.4,0.2,0.9,0.2,1.5v5.8h-1.1c-0.2,0-0.4,0-0.5-0.1c-0.1-0.1-0.2-0.2-0.3-0.4l-0.2-0.6
		c-0.2,0.2-0.5,0.4-0.7,0.5c-0.2,0.2-0.4,0.3-0.7,0.4c-0.2,0.1-0.5,0.2-0.8,0.2c-0.3,0.1-0.6,0.1-0.9,0.1c-0.4,0-0.8-0.1-1.1-0.2
		c-0.3-0.1-0.6-0.3-0.9-0.5c-0.2-0.2-0.4-0.5-0.6-0.8c-0.1-0.3-0.2-0.7-0.2-1.1c0-0.3,0.1-0.7,0.3-1c0.2-0.3,0.5-0.7,0.9-0.9
		c0.4-0.3,1-0.5,1.7-0.7c0.7-0.2,1.6-0.3,2.7-0.3v-0.5c0-0.6-0.1-1-0.4-1.3c-0.2-0.3-0.6-0.4-1.1-0.4c-0.3,0-0.6,0-0.9,0.1
		s-0.4,0.2-0.6,0.3c-0.2,0.1-0.3,0.2-0.5,0.3c-0.2,0.1-0.3,0.1-0.5,0.1c-0.2,0-0.3,0-0.4-0.1c-0.1-0.1-0.2-0.2-0.3-0.3L328.4,27.6z
		 M333.4,31.7c-0.6,0-1.1,0.1-1.5,0.2c-0.4,0.1-0.7,0.2-1,0.3c-0.2,0.1-0.4,0.3-0.5,0.4c-0.1,0.2-0.1,0.3-0.1,0.5
		c0,0.4,0.1,0.6,0.3,0.8c0.2,0.2,0.5,0.2,0.8,0.2c0.4,0,0.8-0.1,1.1-0.2c0.3-0.1,0.6-0.4,0.9-0.7V31.7z"/>
	<path class="st1" d="M337.8,37.8c-0.1-0.1-0.1-0.1-0.1-0.2c0-0.1,0-0.1,0-0.2c0-0.1,0-0.1,0.1-0.2c0-0.1,0.1-0.1,0.1-0.2
		c0.1-0.1,0.1-0.2,0.2-0.3c0.1-0.1,0.2-0.2,0.3-0.4s0.2-0.3,0.3-0.4s0.1-0.3,0.2-0.5c-0.2,0-0.4,0-0.5-0.1s-0.3-0.2-0.4-0.3
		c-0.1-0.1-0.2-0.3-0.3-0.4c-0.1-0.2-0.1-0.4-0.1-0.6c0-0.2,0-0.3,0.1-0.5c0.1-0.2,0.2-0.3,0.3-0.4s0.3-0.2,0.4-0.3
		c0.2-0.1,0.4-0.1,0.6-0.1c0.2,0,0.5,0,0.6,0.1c0.2,0.1,0.3,0.2,0.5,0.3c0.1,0.1,0.2,0.3,0.3,0.5c0.1,0.2,0.1,0.4,0.1,0.6
		c0,0.3,0,0.6-0.1,0.9c-0.1,0.3-0.2,0.7-0.4,1c-0.2,0.3-0.4,0.7-0.7,1c-0.3,0.3-0.6,0.6-0.9,0.9L337.8,37.8z"/>
	<path class="st1" d="M348.6,27.5c0.2-0.2,0.4-0.4,0.6-0.6c0.2-0.2,0.4-0.3,0.7-0.4c0.2-0.1,0.5-0.2,0.8-0.3
		c0.3-0.1,0.6-0.1,0.9-0.1c0.5,0,1,0.1,1.4,0.3s0.8,0.5,1.1,0.9c0.3,0.4,0.5,0.9,0.7,1.5s0.3,1.3,0.3,2c0,0.7-0.1,1.3-0.3,1.9
		c-0.2,0.6-0.5,1.1-0.8,1.5c-0.3,0.4-0.8,0.8-1.3,1c-0.5,0.2-1,0.4-1.6,0.4c-0.5,0-0.9-0.1-1.3-0.2c-0.4-0.2-0.7-0.4-0.9-0.6v3.7
		h-2.5V26.3h1.5c0.3,0,0.5,0.1,0.6,0.4L348.6,27.5z M348.8,33.1c0.2,0.3,0.5,0.5,0.8,0.6c0.3,0.1,0.6,0.2,0.9,0.2
		c0.3,0,0.6-0.1,0.8-0.2c0.2-0.1,0.5-0.3,0.6-0.5c0.2-0.2,0.3-0.6,0.4-0.9c0.1-0.4,0.1-0.8,0.1-1.3c0-0.5,0-1-0.1-1.3
		c-0.1-0.4-0.2-0.7-0.3-0.9c-0.1-0.2-0.3-0.4-0.5-0.5c-0.2-0.1-0.4-0.1-0.7-0.1c-0.4,0-0.8,0.1-1.1,0.3s-0.6,0.4-0.8,0.8V33.1z"/>
	<path class="st1" d="M364.7,26.3v9.3h-1.5c-0.3,0-0.5-0.1-0.6-0.4l-0.2-0.6c-0.2,0.2-0.4,0.3-0.6,0.5c-0.2,0.2-0.4,0.3-0.6,0.4
		c-0.2,0.1-0.5,0.2-0.7,0.3c-0.3,0.1-0.5,0.1-0.9,0.1c-0.5,0-1-0.1-1.3-0.3s-0.7-0.4-1-0.7c-0.3-0.3-0.5-0.7-0.6-1.1
		c-0.1-0.4-0.2-0.9-0.2-1.4v-5.9h2.5v5.9c0,0.5,0.1,0.9,0.4,1.2c0.2,0.3,0.6,0.4,1.1,0.4c0.3,0,0.7-0.1,1-0.2s0.6-0.4,0.9-0.6v-6.7
		H364.7z"/>
	<path class="st1" d="M368.8,31.3c0.1,0.9,0.3,1.5,0.7,1.9c0.4,0.4,1,0.6,1.6,0.6c0.3,0,0.6,0,0.9-0.1s0.5-0.2,0.7-0.3
		c0.2-0.1,0.4-0.2,0.5-0.3s0.3-0.1,0.5-0.1c0.2,0,0.3,0.1,0.4,0.2l0.7,0.9c-0.3,0.3-0.6,0.6-0.9,0.8s-0.6,0.4-1,0.5
		c-0.3,0.1-0.7,0.2-1,0.2c-0.3,0-0.7,0.1-1,0.1c-0.6,0-1.3-0.1-1.8-0.3s-1-0.5-1.5-0.9s-0.7-0.9-1-1.6c-0.2-0.6-0.4-1.3-0.4-2.2
		c0-0.6,0.1-1.2,0.3-1.8c0.2-0.6,0.5-1,0.9-1.5s0.9-0.7,1.4-1c0.6-0.2,1.2-0.4,1.9-0.4c0.6,0,1.1,0.1,1.6,0.3
		c0.5,0.2,0.9,0.5,1.3,0.8c0.4,0.4,0.6,0.8,0.8,1.3c0.2,0.5,0.3,1.1,0.3,1.8c0,0.2,0,0.3,0,0.5c0,0.1,0,0.2-0.1,0.3
		c0,0.1-0.1,0.1-0.2,0.1c-0.1,0-0.2,0-0.3,0H368.8z M372.7,29.8c0-0.3,0-0.5-0.1-0.7c-0.1-0.2-0.2-0.4-0.3-0.6
		c-0.1-0.2-0.3-0.3-0.6-0.4c-0.2-0.1-0.5-0.2-0.8-0.2c-0.6,0-1.1,0.2-1.4,0.5c-0.3,0.3-0.6,0.8-0.7,1.4H372.7z"/>
	<path class="st1" d="M384.6,22.2v13.4h-1.5c-0.3,0-0.5-0.1-0.6-0.4l-0.2-0.8c-0.2,0.2-0.4,0.4-0.6,0.6s-0.4,0.3-0.7,0.4
		c-0.2,0.1-0.5,0.2-0.8,0.3c-0.3,0.1-0.6,0.1-0.9,0.1c-0.5,0-1-0.1-1.4-0.3c-0.4-0.2-0.8-0.5-1.1-0.9c-0.3-0.4-0.5-0.9-0.7-1.5
		s-0.3-1.3-0.3-2c0-0.7,0.1-1.3,0.3-1.9s0.5-1.1,0.8-1.5c0.3-0.4,0.8-0.8,1.3-1c0.5-0.2,1-0.4,1.6-0.4c0.5,0,0.9,0.1,1.3,0.2
		c0.3,0.2,0.7,0.4,0.9,0.6v-4.8H384.6z M382.2,28.7c-0.2-0.3-0.5-0.5-0.8-0.6c-0.3-0.1-0.6-0.2-0.9-0.2c-0.3,0-0.6,0.1-0.8,0.2
		s-0.5,0.3-0.6,0.5c-0.2,0.2-0.3,0.6-0.4,0.9c-0.1,0.4-0.1,0.8-0.1,1.3c0,0.5,0,1,0.1,1.3c0.1,0.4,0.2,0.7,0.3,0.9
		c0.1,0.2,0.3,0.4,0.5,0.5s0.4,0.1,0.7,0.1c0.4,0,0.8-0.1,1.1-0.3s0.6-0.4,0.8-0.7V28.7z"/>
	<path class="st1" d="M388.7,31.3c0.1,0.9,0.3,1.5,0.7,1.9c0.4,0.4,1,0.6,1.6,0.6c0.3,0,0.6,0,0.9-0.1s0.5-0.2,0.7-0.3
		c0.2-0.1,0.4-0.2,0.5-0.3s0.3-0.1,0.5-0.1c0.2,0,0.3,0.1,0.4,0.2l0.7,0.9c-0.3,0.3-0.6,0.6-0.9,0.8s-0.6,0.4-1,0.5
		c-0.3,0.1-0.7,0.2-1,0.2c-0.3,0-0.7,0.1-1,0.1c-0.6,0-1.3-0.1-1.8-0.3s-1-0.5-1.5-0.9s-0.7-0.9-1-1.6c-0.2-0.6-0.4-1.3-0.4-2.2
		c0-0.6,0.1-1.2,0.3-1.8c0.2-0.6,0.5-1,0.9-1.5s0.9-0.7,1.4-1c0.6-0.2,1.2-0.4,1.9-0.4c0.6,0,1.1,0.1,1.6,0.3
		c0.5,0.2,0.9,0.5,1.3,0.8c0.4,0.4,0.6,0.8,0.8,1.3c0.2,0.5,0.3,1.1,0.3,1.8c0,0.2,0,0.3,0,0.5c0,0.1,0,0.2-0.1,0.3
		c0,0.1-0.1,0.1-0.2,0.1c-0.1,0-0.2,0-0.3,0H388.7z M392.6,29.8c0-0.3,0-0.5-0.1-0.7c-0.1-0.2-0.2-0.4-0.3-0.6
		c-0.1-0.2-0.3-0.3-0.6-0.4c-0.2-0.1-0.5-0.2-0.8-0.2c-0.6,0-1.1,0.2-1.4,0.5c-0.3,0.3-0.6,0.8-0.7,1.4H392.6z"/>
	<path class="st1" d="M402.1,28.2c-0.1,0.1-0.1,0.2-0.2,0.2c-0.1,0-0.2,0.1-0.3,0.1c-0.1,0-0.2,0-0.4-0.1s-0.3-0.1-0.4-0.2
		c-0.2-0.1-0.3-0.1-0.5-0.2c-0.2-0.1-0.4-0.1-0.7-0.1c-0.4,0-0.7,0.1-0.9,0.2c-0.2,0.2-0.3,0.4-0.3,0.7c0,0.2,0.1,0.3,0.2,0.5
		s0.3,0.2,0.5,0.3c0.2,0.1,0.4,0.2,0.7,0.3c0.3,0.1,0.5,0.2,0.8,0.3c0.3,0.1,0.6,0.2,0.8,0.3c0.3,0.1,0.5,0.3,0.7,0.5
		c0.2,0.2,0.4,0.4,0.5,0.7s0.2,0.6,0.2,1c0,0.5-0.1,0.9-0.2,1.2s-0.4,0.7-0.7,1c-0.3,0.3-0.7,0.5-1.2,0.6s-1,0.2-1.6,0.2
		c-0.3,0-0.6,0-0.9-0.1c-0.3-0.1-0.6-0.1-0.9-0.2c-0.3-0.1-0.5-0.2-0.8-0.4s-0.5-0.3-0.6-0.5l0.6-0.9c0.1-0.1,0.1-0.2,0.2-0.3
		c0.1-0.1,0.2-0.1,0.4-0.1c0.1,0,0.3,0,0.4,0.1c0.1,0.1,0.3,0.2,0.4,0.2c0.2,0.1,0.3,0.2,0.6,0.2c0.2,0.1,0.5,0.1,0.8,0.1
		c0.2,0,0.4,0,0.6-0.1c0.2-0.1,0.3-0.1,0.4-0.2s0.2-0.2,0.2-0.3c0.1-0.1,0.1-0.2,0.1-0.4c0-0.2-0.1-0.4-0.2-0.5
		c-0.1-0.1-0.3-0.2-0.5-0.3s-0.4-0.2-0.7-0.3s-0.5-0.2-0.8-0.3c-0.3-0.1-0.6-0.2-0.8-0.3s-0.5-0.3-0.7-0.5s-0.4-0.4-0.5-0.7
		c-0.1-0.3-0.2-0.7-0.2-1.1c0-0.4,0.1-0.7,0.2-1.1c0.1-0.3,0.4-0.6,0.7-0.9c0.3-0.3,0.7-0.5,1.1-0.6c0.4-0.2,1-0.2,1.6-0.2
		c0.7,0,1.3,0.1,1.8,0.3c0.5,0.2,1,0.5,1.3,0.8L402.1,28.2z"/>
	<path class="st1" d="M416.8,22.2v13.4h-1.5c-0.3,0-0.5-0.1-0.6-0.4l-0.2-0.8c-0.2,0.2-0.4,0.4-0.6,0.6s-0.4,0.3-0.7,0.4
		c-0.2,0.1-0.5,0.2-0.8,0.3c-0.3,0.1-0.6,0.1-0.9,0.1c-0.5,0-1-0.1-1.4-0.3c-0.4-0.2-0.8-0.5-1.1-0.9c-0.3-0.4-0.5-0.9-0.7-1.5
		s-0.3-1.3-0.3-2c0-0.7,0.1-1.3,0.3-1.9s0.5-1.1,0.8-1.5c0.3-0.4,0.8-0.8,1.3-1c0.5-0.2,1-0.4,1.6-0.4c0.5,0,0.9,0.1,1.3,0.2
		c0.3,0.2,0.7,0.4,0.9,0.6v-4.8H416.8z M414.3,28.7c-0.2-0.3-0.5-0.5-0.8-0.6c-0.3-0.1-0.6-0.2-0.9-0.2c-0.3,0-0.6,0.1-0.8,0.2
		s-0.5,0.3-0.6,0.5c-0.2,0.2-0.3,0.6-0.4,0.9c-0.1,0.4-0.1,0.8-0.1,1.3c0,0.5,0,1,0.1,1.3c0.1,0.4,0.2,0.7,0.3,0.9
		c0.1,0.2,0.3,0.4,0.5,0.5s0.4,0.1,0.7,0.1c0.4,0,0.8-0.1,1.1-0.3s0.6-0.4,0.8-0.7V28.7z"/>
	<path class="st1" d="M420.9,31.3c0.1,0.9,0.3,1.5,0.7,1.9c0.4,0.4,1,0.6,1.6,0.6c0.3,0,0.6,0,0.9-0.1s0.5-0.2,0.7-0.3
		c0.2-0.1,0.4-0.2,0.5-0.3s0.3-0.1,0.5-0.1c0.2,0,0.3,0.1,0.4,0.2l0.7,0.9c-0.3,0.3-0.6,0.6-0.9,0.8c-0.3,0.2-0.6,0.4-1,0.5
		c-0.3,0.1-0.7,0.2-1,0.2c-0.3,0-0.7,0.1-1,0.1c-0.6,0-1.3-0.1-1.8-0.3s-1-0.5-1.5-0.9s-0.7-0.9-1-1.6c-0.2-0.6-0.4-1.3-0.4-2.2
		c0-0.6,0.1-1.2,0.3-1.8c0.2-0.6,0.5-1,0.9-1.5s0.9-0.7,1.4-1c0.6-0.2,1.2-0.4,1.9-0.4c0.6,0,1.1,0.1,1.6,0.3
		c0.5,0.2,0.9,0.5,1.3,0.8c0.4,0.4,0.6,0.8,0.8,1.3c0.2,0.5,0.3,1.1,0.3,1.8c0,0.2,0,0.3,0,0.5c0,0.1,0,0.2-0.1,0.3
		c0,0.1-0.1,0.1-0.2,0.1c-0.1,0-0.2,0-0.3,0H420.9z M424.8,29.8c0-0.3,0-0.5-0.1-0.7c-0.1-0.2-0.2-0.4-0.3-0.6
		c-0.1-0.2-0.3-0.3-0.6-0.4c-0.2-0.1-0.5-0.2-0.8-0.2c-0.6,0-1.1,0.2-1.4,0.5c-0.3,0.3-0.6,0.8-0.7,1.4H424.8z"/>
	<path class="st1" d="M434.3,28.2c-0.1,0.1-0.1,0.2-0.2,0.2c-0.1,0-0.2,0.1-0.3,0.1s-0.2,0-0.4-0.1s-0.3-0.1-0.4-0.2
		c-0.2-0.1-0.3-0.1-0.5-0.2c-0.2-0.1-0.4-0.1-0.7-0.1c-0.4,0-0.7,0.1-0.9,0.2s-0.3,0.4-0.3,0.7c0,0.2,0.1,0.3,0.2,0.5
		s0.3,0.2,0.5,0.3c0.2,0.1,0.4,0.2,0.7,0.3c0.3,0.1,0.5,0.2,0.8,0.3c0.3,0.1,0.5,0.2,0.8,0.3c0.3,0.1,0.5,0.3,0.7,0.5
		c0.2,0.2,0.4,0.4,0.5,0.7s0.2,0.6,0.2,1c0,0.5-0.1,0.9-0.2,1.2s-0.4,0.7-0.7,1c-0.3,0.3-0.7,0.5-1.2,0.6c-0.5,0.2-1,0.2-1.6,0.2
		c-0.3,0-0.6,0-0.9-0.1c-0.3-0.1-0.6-0.1-0.9-0.2c-0.3-0.1-0.5-0.2-0.8-0.4s-0.5-0.3-0.6-0.5l0.6-0.9c0.1-0.1,0.1-0.2,0.2-0.3
		c0.1-0.1,0.2-0.1,0.4-0.1c0.1,0,0.3,0,0.4,0.1c0.1,0.1,0.3,0.2,0.4,0.2c0.2,0.1,0.3,0.2,0.6,0.2c0.2,0.1,0.5,0.1,0.8,0.1
		c0.2,0,0.4,0,0.6-0.1c0.2-0.1,0.3-0.1,0.4-0.2c0.1-0.1,0.2-0.2,0.2-0.3c0.1-0.1,0.1-0.2,0.1-0.4c0-0.2-0.1-0.4-0.2-0.5
		c-0.1-0.1-0.3-0.2-0.5-0.3s-0.4-0.2-0.7-0.3c-0.3-0.1-0.5-0.2-0.8-0.3c-0.3-0.1-0.6-0.2-0.8-0.3c-0.3-0.1-0.5-0.3-0.7-0.5
		s-0.4-0.4-0.5-0.7c-0.1-0.3-0.2-0.7-0.2-1.1c0-0.4,0.1-0.7,0.2-1.1c0.1-0.3,0.4-0.6,0.7-0.9c0.3-0.3,0.7-0.5,1.1-0.6
		c0.4-0.2,1-0.2,1.6-0.2c0.7,0,1.3,0.1,1.8,0.3c0.5,0.2,1,0.5,1.3,0.8L434.3,28.2z"/>
</g>
<g class="st2">
	<path class="st1" d="M444,28.4c-0.1,0.1-0.1,0.2-0.2,0.2c-0.1,0.1-0.2,0.1-0.3,0.1c-0.1,0-0.2,0-0.3-0.1c-0.1-0.1-0.2-0.1-0.4-0.2
		c-0.1-0.1-0.3-0.2-0.5-0.2c-0.2-0.1-0.4-0.1-0.7-0.1c-0.4,0-0.7,0.1-1,0.2c-0.3,0.1-0.5,0.3-0.7,0.6c-0.2,0.3-0.3,0.6-0.4,0.9
		c-0.1,0.4-0.1,0.8-0.1,1.2c0,0.9,0.2,1.7,0.6,2.2s0.9,0.8,1.6,0.8c0.2,0,0.4,0,0.6-0.1s0.3-0.1,0.4-0.1c0.1-0.1,0.2-0.1,0.3-0.2
		s0.2-0.1,0.3-0.2c0.1-0.1,0.2-0.1,0.2-0.1c0.1,0,0.2-0.1,0.3-0.1c0.2,0,0.3,0.1,0.4,0.2l0.7,0.9c-0.3,0.3-0.5,0.6-0.8,0.8
		s-0.6,0.4-0.9,0.5c-0.3,0.1-0.6,0.2-1,0.2s-0.7,0.1-1,0.1c-0.6,0-1.1-0.1-1.6-0.3s-1-0.5-1.3-0.9c-0.4-0.4-0.7-0.9-0.9-1.5
		c-0.2-0.6-0.3-1.3-0.3-2c0-0.7,0.1-1.3,0.3-1.9s0.5-1.1,0.9-1.5s0.9-0.8,1.4-1c0.6-0.2,1.2-0.4,2-0.4c0.7,0,1.3,0.1,1.9,0.3
		c0.5,0.2,1,0.6,1.4,1L444,28.4z"/>
</g>
<g class="st2">
	<path class="st1" d="M450.1,26.1c0.7,0,1.3,0.1,1.9,0.3s1.1,0.5,1.5,0.9s0.7,0.9,0.9,1.5c0.2,0.6,0.3,1.3,0.3,2
		c0,0.7-0.1,1.4-0.3,2c-0.2,0.6-0.5,1.1-0.9,1.5s-0.9,0.7-1.5,1s-1.2,0.3-1.9,0.3c-0.7,0-1.3-0.1-1.9-0.3s-1.1-0.5-1.5-1
		s-0.7-0.9-0.9-1.5c-0.2-0.6-0.3-1.3-0.3-2c0-0.7,0.1-1.4,0.3-2c0.2-0.6,0.5-1.1,0.9-1.5s0.9-0.7,1.5-0.9S449.3,26.1,450.1,26.1z
		 M450.1,33.8c0.7,0,1.2-0.2,1.6-0.7c0.3-0.5,0.5-1.2,0.5-2.2c0-1-0.2-1.7-0.5-2.2s-0.9-0.7-1.6-0.7c-0.7,0-1.3,0.2-1.6,0.7
		s-0.5,1.2-0.5,2.2c0,1,0.2,1.7,0.5,2.2C448.8,33.6,449.3,33.8,450.1,33.8z"/>
	<path class="st1" d="M458.6,27.4c0.2-0.2,0.4-0.3,0.6-0.5c0.2-0.1,0.4-0.3,0.6-0.4c0.2-0.1,0.5-0.2,0.7-0.3s0.5-0.1,0.9-0.1
		c0.5,0,1,0.1,1.3,0.3s0.7,0.4,1,0.7c0.3,0.3,0.5,0.7,0.6,1.1c0.1,0.4,0.2,0.9,0.2,1.4v5.9H462v-5.9c0-0.5-0.1-0.9-0.4-1.2
		s-0.6-0.4-1.1-0.4c-0.3,0-0.7,0.1-1,0.2c-0.3,0.1-0.6,0.4-0.9,0.6v6.7h-2.5v-9.3h1.5c0.3,0,0.5,0.1,0.6,0.4L458.6,27.4z"/>
</g>
<g class="st2">
	<path class="st1" d="M474.8,26.6v0.9c0,0.1,0,0.3-0.1,0.3s-0.2,0.1-0.4,0.2l-0.8,0.2c0.1,0.3,0.2,0.6,0.2,0.9
		c0,0.5-0.1,0.9-0.3,1.2c-0.2,0.4-0.4,0.7-0.8,0.9c-0.3,0.3-0.7,0.5-1.2,0.6c-0.5,0.1-0.9,0.2-1.5,0.2c-0.3,0-0.6,0-0.9-0.1
		c-0.3,0.2-0.4,0.3-0.4,0.5c0,0.2,0.1,0.3,0.3,0.4s0.4,0.1,0.7,0.2c0.3,0,0.6,0.1,1,0.1c0.4,0,0.7,0,1.1,0.1c0.4,0,0.7,0.1,1.1,0.2
		c0.4,0.1,0.7,0.2,1,0.4c0.3,0.2,0.5,0.4,0.7,0.7s0.3,0.6,0.3,1.1c0,0.4-0.1,0.8-0.3,1.2s-0.5,0.7-0.9,1s-0.9,0.6-1.4,0.7
		c-0.6,0.2-1.2,0.3-1.9,0.3c-0.7,0-1.3-0.1-1.9-0.2s-1-0.3-1.3-0.5c-0.3-0.2-0.6-0.5-0.8-0.8s-0.3-0.6-0.3-0.9
		c0-0.4,0.1-0.8,0.4-1.1s0.6-0.5,1-0.7c-0.2-0.1-0.4-0.3-0.6-0.5c-0.1-0.2-0.2-0.5-0.2-0.8c0-0.3,0.1-0.6,0.3-0.9
		c0.2-0.3,0.5-0.6,0.9-0.8c-0.5-0.3-0.8-0.6-1.1-1c-0.3-0.4-0.4-0.9-0.4-1.5c0-0.5,0.1-0.9,0.3-1.3c0.2-0.4,0.5-0.7,0.8-1
		c0.3-0.3,0.7-0.5,1.2-0.6c0.5-0.1,1-0.2,1.5-0.2c0.8,0,1.5,0.2,2.1,0.5H474.8z M472.4,35.9c0-0.2-0.1-0.3-0.2-0.4
		c-0.1-0.1-0.2-0.2-0.4-0.2c-0.2-0.1-0.4-0.1-0.6-0.1s-0.5,0-0.7-0.1c-0.3,0-0.5,0-0.8,0c-0.3,0-0.6,0-0.8-0.1
		c-0.2,0.1-0.4,0.3-0.5,0.4c-0.1,0.2-0.2,0.4-0.2,0.6c0,0.2,0,0.3,0.1,0.4c0.1,0.1,0.2,0.2,0.3,0.3s0.4,0.2,0.6,0.2
		c0.3,0.1,0.6,0.1,1,0.1c0.4,0,0.8,0,1-0.1s0.5-0.1,0.7-0.2c0.2-0.1,0.3-0.2,0.4-0.4C472.3,36.3,472.4,36.1,472.4,35.9z M470,30.6
		c0.5,0,0.9-0.1,1.1-0.4c0.2-0.3,0.4-0.6,0.4-1c0-0.4-0.1-0.8-0.4-1c-0.2-0.2-0.6-0.4-1.1-0.4s-0.9,0.1-1.1,0.4
		c-0.2,0.2-0.4,0.6-0.4,1c0,0.4,0.1,0.7,0.4,1C469.2,30.5,469.5,30.6,470,30.6z"/>
</g>
<g class="st2">
	<path class="st1" d="M478,31.3c0.1,0.9,0.3,1.5,0.7,1.9c0.4,0.4,1,0.6,1.6,0.6c0.3,0,0.6,0,0.9-0.1s0.5-0.2,0.7-0.3
		c0.2-0.1,0.4-0.2,0.5-0.3c0.2-0.1,0.3-0.1,0.5-0.1c0.2,0,0.3,0.1,0.4,0.2l0.7,0.9c-0.3,0.3-0.6,0.6-0.9,0.8c-0.3,0.2-0.6,0.4-1,0.5
		s-0.7,0.2-1,0.2s-0.7,0.1-1,0.1c-0.6,0-1.3-0.1-1.8-0.3c-0.6-0.2-1-0.5-1.5-0.9s-0.7-0.9-1-1.6c-0.2-0.6-0.4-1.3-0.4-2.2
		c0-0.6,0.1-1.2,0.3-1.8c0.2-0.6,0.5-1,0.9-1.5c0.4-0.4,0.9-0.7,1.4-1s1.2-0.4,1.9-0.4c0.6,0,1.1,0.1,1.6,0.3
		c0.5,0.2,0.9,0.5,1.3,0.8c0.4,0.4,0.6,0.8,0.8,1.3c0.2,0.5,0.3,1.1,0.3,1.8c0,0.2,0,0.3,0,0.5c0,0.1,0,0.2-0.1,0.3
		c0,0.1-0.1,0.1-0.2,0.1c-0.1,0-0.2,0-0.3,0H478z M481.9,29.8c0-0.3,0-0.5-0.1-0.7c-0.1-0.2-0.2-0.4-0.3-0.6
		c-0.2-0.2-0.3-0.3-0.6-0.4c-0.2-0.1-0.5-0.2-0.8-0.2c-0.6,0-1.1,0.2-1.4,0.5s-0.6,0.8-0.7,1.4H481.9z"/>
	<path class="st1" d="M488.2,22.2v13.4h-2.5V22.2H488.2z"/>
	<path class="st1" d="M490,27.6c0.5-0.5,1.1-0.9,1.8-1.1s1.4-0.4,2.1-0.4c0.6,0,1,0.1,1.5,0.3c0.4,0.2,0.8,0.4,1.1,0.8
		c0.3,0.3,0.5,0.7,0.7,1.1c0.2,0.4,0.2,0.9,0.2,1.5v5.8h-1.1c-0.2,0-0.4,0-0.5-0.1c-0.1-0.1-0.2-0.2-0.3-0.4l-0.2-0.6
		c-0.2,0.2-0.5,0.4-0.7,0.5c-0.2,0.2-0.4,0.3-0.7,0.4c-0.2,0.1-0.5,0.2-0.8,0.2c-0.3,0.1-0.6,0.1-0.9,0.1c-0.4,0-0.8-0.1-1.1-0.2
		c-0.3-0.1-0.6-0.3-0.9-0.5c-0.2-0.2-0.4-0.5-0.6-0.8s-0.2-0.7-0.2-1.1c0-0.3,0.1-0.7,0.3-1c0.2-0.3,0.5-0.7,0.9-0.9
		c0.4-0.3,1-0.5,1.7-0.7c0.7-0.2,1.6-0.3,2.7-0.3v-0.5c0-0.6-0.1-1-0.4-1.3c-0.2-0.3-0.6-0.4-1.1-0.4c-0.3,0-0.6,0-0.9,0.1
		c-0.2,0.1-0.4,0.2-0.6,0.3c-0.2,0.1-0.3,0.2-0.5,0.3c-0.2,0.1-0.3,0.1-0.5,0.1c-0.2,0-0.3,0-0.4-0.1s-0.2-0.2-0.3-0.3L490,27.6z
		 M495.1,31.7c-0.6,0-1.1,0.1-1.5,0.2s-0.7,0.2-1,0.3c-0.2,0.1-0.4,0.3-0.5,0.4c-0.1,0.2-0.1,0.3-0.1,0.5c0,0.4,0.1,0.6,0.3,0.8
		s0.5,0.2,0.8,0.2c0.4,0,0.8-0.1,1.1-0.2c0.3-0.1,0.6-0.4,0.9-0.7V31.7z"/>
	<path class="st1" d="M501.8,27.8c0.3-0.5,0.6-0.9,1-1.3s0.8-0.5,1.4-0.5c0.4,0,0.8,0.1,1,0.3l-0.2,1.8c0,0.1-0.1,0.2-0.1,0.2
		c-0.1,0-0.1,0.1-0.3,0.1c-0.1,0-0.2,0-0.4,0c-0.2,0-0.3,0-0.5,0c-0.2,0-0.4,0-0.6,0.1c-0.2,0.1-0.3,0.2-0.5,0.3
		c-0.1,0.1-0.3,0.3-0.4,0.4c-0.1,0.2-0.2,0.4-0.3,0.6v5.7h-2.5v-9.3h1.5c0.3,0,0.4,0,0.5,0.1c0.1,0.1,0.2,0.2,0.2,0.5L501.8,27.8z"
		/>
	<path class="st1" d="M508.8,22.2v13.4h-2.5V22.2H508.8z"/>
	<path class="st1" d="M510.6,27.6c0.5-0.5,1.1-0.9,1.8-1.1s1.4-0.4,2.1-0.4c0.6,0,1,0.1,1.5,0.3c0.4,0.2,0.8,0.4,1.1,0.8
		c0.3,0.3,0.5,0.7,0.7,1.1c0.2,0.4,0.2,0.9,0.2,1.5v5.8H517c-0.2,0-0.4,0-0.5-0.1c-0.1-0.1-0.2-0.2-0.3-0.4l-0.2-0.6
		c-0.2,0.2-0.5,0.4-0.7,0.5c-0.2,0.2-0.4,0.3-0.7,0.4c-0.2,0.1-0.5,0.2-0.8,0.2c-0.3,0.1-0.6,0.1-0.9,0.1c-0.4,0-0.8-0.1-1.1-0.2
		c-0.3-0.1-0.6-0.3-0.9-0.5c-0.2-0.2-0.4-0.5-0.6-0.8s-0.2-0.7-0.2-1.1c0-0.3,0.1-0.7,0.3-1c0.2-0.3,0.5-0.7,0.9-0.9
		c0.4-0.3,1-0.5,1.7-0.7c0.7-0.2,1.6-0.3,2.7-0.3v-0.5c0-0.6-0.1-1-0.4-1.3c-0.2-0.3-0.6-0.4-1.1-0.4c-0.3,0-0.6,0-0.9,0.1
		c-0.2,0.1-0.4,0.2-0.6,0.3c-0.2,0.1-0.3,0.2-0.5,0.3c-0.2,0.1-0.3,0.1-0.5,0.1c-0.2,0-0.3,0-0.4-0.1s-0.2-0.2-0.3-0.3L510.6,27.6z
		 M515.7,31.7c-0.6,0-1.1,0.1-1.5,0.2s-0.7,0.2-1,0.3c-0.2,0.1-0.4,0.3-0.5,0.4c-0.1,0.2-0.1,0.3-0.1,0.5c0,0.4,0.1,0.6,0.3,0.8
		s0.5,0.2,0.8,0.2c0.4,0,0.8-0.1,1.1-0.2c0.3-0.1,0.6-0.4,0.9-0.7V31.7z"/>
	<path class="st1" d="M524.1,27.6c0.5-0.5,1.1-0.9,1.8-1.1s1.4-0.4,2.1-0.4c0.6,0,1,0.1,1.5,0.3c0.4,0.2,0.8,0.4,1.1,0.8
		c0.3,0.3,0.5,0.7,0.7,1.1c0.2,0.4,0.2,0.9,0.2,1.5v5.8h-1.1c-0.2,0-0.4,0-0.5-0.1c-0.1-0.1-0.2-0.2-0.3-0.4l-0.2-0.6
		c-0.2,0.2-0.5,0.4-0.7,0.5c-0.2,0.2-0.4,0.3-0.7,0.4c-0.2,0.1-0.5,0.2-0.8,0.2c-0.3,0.1-0.6,0.1-0.9,0.1c-0.4,0-0.8-0.1-1.1-0.2
		c-0.3-0.1-0.6-0.3-0.9-0.5c-0.2-0.2-0.4-0.5-0.6-0.8s-0.2-0.7-0.2-1.1c0-0.3,0.1-0.7,0.3-1c0.2-0.3,0.5-0.7,0.9-0.9
		c0.4-0.3,1-0.5,1.7-0.7c0.7-0.2,1.6-0.3,2.7-0.3v-0.5c0-0.6-0.1-1-0.4-1.3c-0.2-0.3-0.6-0.4-1.1-0.4c-0.3,0-0.6,0-0.9,0.1
		c-0.2,0.1-0.4,0.2-0.6,0.3c-0.2,0.1-0.3,0.2-0.5,0.3c-0.2,0.1-0.3,0.1-0.5,0.1c-0.2,0-0.3,0-0.4-0.1s-0.2-0.2-0.3-0.3L524.1,27.6z
		 M529.2,31.7c-0.6,0-1.1,0.1-1.5,0.2s-0.7,0.2-1,0.3c-0.2,0.1-0.4,0.3-0.5,0.4c-0.1,0.2-0.1,0.3-0.1,0.5c0,0.4,0.1,0.6,0.3,0.8
		s0.5,0.2,0.8,0.2c0.4,0,0.8-0.1,1.1-0.2c0.3-0.1,0.6-0.4,0.9-0.7V31.7z"/>
	<path class="st1" d="M541.8,26.3v12.3h-2.5v-4.1c-0.4,0.4-0.8,0.7-1.2,0.9c-0.4,0.2-1,0.3-1.6,0.3c-0.5,0-1-0.1-1.4-0.3
		c-0.4-0.2-0.8-0.5-1.1-0.9s-0.5-0.9-0.7-1.5s-0.3-1.3-0.3-2c0-0.7,0.1-1.3,0.3-1.9c0.2-0.6,0.5-1.1,0.8-1.5c0.3-0.4,0.8-0.8,1.3-1
		s1-0.4,1.6-0.4c0.3,0,0.5,0,0.8,0.1c0.2,0.1,0.4,0.1,0.6,0.2c0.2,0.1,0.4,0.2,0.5,0.3s0.3,0.3,0.5,0.4l0.1-0.4
		c0.1-0.3,0.3-0.4,0.6-0.4H541.8z M539.3,28.7c-0.2-0.3-0.5-0.5-0.8-0.6c-0.3-0.1-0.6-0.2-0.9-0.2c-0.3,0-0.6,0.1-0.8,0.2
		s-0.5,0.3-0.6,0.5s-0.3,0.6-0.4,0.9c-0.1,0.4-0.1,0.8-0.1,1.3c0,0.5,0,1,0.1,1.3s0.2,0.7,0.3,0.9c0.1,0.2,0.3,0.4,0.5,0.5
		s0.4,0.1,0.7,0.1c0.4,0,0.8-0.1,1.1-0.3s0.6-0.4,0.8-0.7V28.7z"/>
	<path class="st1" d="M552,26.3v9.3h-1.5c-0.3,0-0.5-0.1-0.6-0.4l-0.2-0.6c-0.2,0.2-0.4,0.3-0.6,0.5c-0.2,0.2-0.4,0.3-0.6,0.4
		c-0.2,0.1-0.5,0.2-0.7,0.3c-0.3,0.1-0.5,0.1-0.9,0.1c-0.5,0-1-0.1-1.3-0.3c-0.4-0.2-0.7-0.4-1-0.7c-0.3-0.3-0.5-0.7-0.6-1.1
		s-0.2-0.9-0.2-1.4v-5.9h2.5v5.9c0,0.5,0.1,0.9,0.4,1.2s0.6,0.4,1.1,0.4c0.3,0,0.7-0.1,1-0.2c0.3-0.2,0.6-0.4,0.9-0.6v-6.7H552z"/>
	<path class="st1" d="M556.6,26.3v9.3h-2.5v-9.3H556.6z M558.7,22.4l-2.3,2.4c-0.1,0.1-0.2,0.2-0.4,0.3c-0.1,0.1-0.3,0.1-0.5,0.1
		h-1.5l1.3-2.2c0.1-0.2,0.2-0.3,0.3-0.4s0.3-0.1,0.6-0.1H558.7z"/>
</g>
<g class="st2">
	<path class="st0" d="M610.2,29.8c0,0.8-0.1,1.6-0.4,2.3c-0.3,0.7-0.7,1.3-1.2,1.8c-0.5,0.5-1.1,0.9-1.9,1.2
		c-0.7,0.3-1.5,0.4-2.4,0.4h-4.5V24h4.5c0.9,0,1.7,0.1,2.4,0.4c0.7,0.3,1.4,0.7,1.9,1.2c0.5,0.5,0.9,1.1,1.2,1.8
		C610.1,28.1,610.2,28.9,610.2,29.8z M607.8,29.8c0-0.6-0.1-1.2-0.2-1.6c-0.2-0.5-0.4-0.9-0.7-1.2s-0.7-0.6-1.1-0.8
		s-0.9-0.3-1.5-0.3h-2v7.8h2c0.5,0,1-0.1,1.5-0.3c0.4-0.2,0.8-0.4,1.1-0.8s0.5-0.8,0.7-1.2S607.8,30.4,607.8,29.8z"/>
</g>
<g class="st2">
	<path class="st0" d="M613.4,31.8c0.1,0.8,0.3,1.3,0.7,1.7c0.4,0.4,0.9,0.5,1.5,0.5c0.3,0,0.6,0,0.8-0.1c0.2-0.1,0.4-0.2,0.6-0.2
		c0.2-0.1,0.3-0.2,0.5-0.2c0.1-0.1,0.3-0.1,0.4-0.1c0.2,0,0.3,0.1,0.4,0.2l0.6,0.8c-0.2,0.3-0.5,0.5-0.8,0.7
		c-0.3,0.2-0.6,0.3-0.9,0.4c-0.3,0.1-0.6,0.2-0.9,0.2s-0.6,0.1-0.9,0.1c-0.6,0-1.1-0.1-1.6-0.3s-0.9-0.5-1.3-0.8
		c-0.4-0.4-0.7-0.8-0.9-1.4c-0.2-0.5-0.3-1.2-0.3-1.9c0-0.6,0.1-1.1,0.3-1.6c0.2-0.5,0.4-0.9,0.8-1.3s0.8-0.7,1.3-0.9
		s1.1-0.3,1.7-0.3c0.5,0,1,0.1,1.5,0.3c0.4,0.2,0.8,0.4,1.2,0.7c0.3,0.3,0.6,0.7,0.8,1.2s0.3,1,0.3,1.6c0,0.2,0,0.3,0,0.4
		s0,0.2-0.1,0.3c0,0.1-0.1,0.1-0.2,0.1c-0.1,0-0.1,0-0.2,0H613.4z M616.8,30.5c0-0.2,0-0.4-0.1-0.7s-0.2-0.4-0.3-0.6
		c-0.1-0.2-0.3-0.3-0.5-0.4c-0.2-0.1-0.4-0.1-0.7-0.1c-0.5,0-0.9,0.1-1.2,0.4c-0.3,0.3-0.5,0.7-0.6,1.3H616.8z"/>
	<path class="st0" d="M625.3,29c-0.1,0.1-0.1,0.2-0.2,0.2c-0.1,0-0.1,0.1-0.3,0.1c-0.1,0-0.2,0-0.3-0.1c-0.1-0.1-0.2-0.1-0.4-0.2
		s-0.3-0.1-0.5-0.2c-0.2-0.1-0.4-0.1-0.6-0.1c-0.4,0-0.6,0.1-0.8,0.2s-0.3,0.3-0.3,0.6c0,0.2,0.1,0.3,0.2,0.4s0.3,0.2,0.4,0.3
		c0.2,0.1,0.4,0.2,0.6,0.2c0.2,0.1,0.5,0.2,0.7,0.2c0.2,0.1,0.5,0.2,0.7,0.3c0.2,0.1,0.4,0.3,0.6,0.4c0.2,0.2,0.3,0.4,0.4,0.6
		c0.1,0.2,0.2,0.5,0.2,0.9c0,0.4-0.1,0.8-0.2,1.1s-0.4,0.6-0.6,0.9c-0.3,0.2-0.6,0.4-1.1,0.6c-0.4,0.1-0.9,0.2-1.5,0.2
		c-0.3,0-0.6,0-0.8-0.1s-0.5-0.1-0.8-0.2c-0.3-0.1-0.5-0.2-0.7-0.3c-0.2-0.1-0.4-0.3-0.6-0.4l0.5-0.8c0.1-0.1,0.1-0.2,0.2-0.2
		c0.1-0.1,0.2-0.1,0.3-0.1c0.1,0,0.3,0,0.4,0.1s0.2,0.1,0.4,0.2s0.3,0.1,0.5,0.2c0.2,0.1,0.4,0.1,0.7,0.1c0.2,0,0.4,0,0.6-0.1
		c0.2,0,0.3-0.1,0.4-0.2c0.1-0.1,0.2-0.2,0.2-0.3c0-0.1,0.1-0.2,0.1-0.3c0-0.2-0.1-0.3-0.2-0.4c-0.1-0.1-0.3-0.2-0.4-0.3
		c-0.2-0.1-0.4-0.2-0.6-0.2c-0.2-0.1-0.5-0.1-0.7-0.2s-0.5-0.2-0.7-0.3s-0.4-0.3-0.6-0.4c-0.2-0.2-0.3-0.4-0.4-0.7
		c-0.1-0.3-0.2-0.6-0.2-1c0-0.3,0.1-0.7,0.2-1c0.1-0.3,0.3-0.6,0.6-0.8c0.3-0.2,0.6-0.4,1-0.6s0.9-0.2,1.4-0.2
		c0.6,0,1.1,0.1,1.6,0.3c0.5,0.2,0.9,0.4,1.2,0.8L625.3,29z"/>
</g>
<g class="st2">
	<path class="st0" d="M633.3,29.2c-0.1,0.1-0.1,0.2-0.2,0.2c-0.1,0-0.2,0.1-0.3,0.1c-0.1,0-0.2,0-0.3-0.1c-0.1-0.1-0.2-0.1-0.3-0.2
		c-0.1-0.1-0.3-0.1-0.5-0.2c-0.2-0.1-0.4-0.1-0.7-0.1c-0.3,0-0.6,0.1-0.9,0.2c-0.2,0.1-0.4,0.3-0.6,0.5c-0.2,0.2-0.3,0.5-0.4,0.8
		c-0.1,0.3-0.1,0.7-0.1,1.1c0,0.8,0.2,1.5,0.5,1.9c0.3,0.4,0.8,0.7,1.4,0.7c0.2,0,0.4,0,0.5-0.1c0.1,0,0.3-0.1,0.4-0.1
		s0.2-0.1,0.3-0.2c0.1-0.1,0.2-0.1,0.2-0.2c0.1-0.1,0.1-0.1,0.2-0.1c0.1,0,0.2-0.1,0.2-0.1c0.2,0,0.3,0.1,0.4,0.2l0.6,0.8
		c-0.2,0.3-0.5,0.5-0.8,0.7s-0.5,0.3-0.8,0.4c-0.3,0.1-0.6,0.2-0.9,0.2s-0.6,0.1-0.9,0.1c-0.5,0-1-0.1-1.4-0.3
		c-0.5-0.2-0.9-0.5-1.2-0.8c-0.3-0.4-0.6-0.8-0.8-1.3c-0.2-0.5-0.3-1.1-0.3-1.8c0-0.6,0.1-1.2,0.3-1.7c0.2-0.5,0.4-1,0.8-1.3
		c0.3-0.4,0.8-0.7,1.3-0.9s1.1-0.3,1.7-0.3c0.6,0,1.2,0.1,1.7,0.3c0.5,0.2,0.9,0.5,1.3,0.9L633.3,29.2z"/>
</g>
<g class="st2">
	<path class="st0" d="M638.7,27.2c0.6,0,1.2,0.1,1.7,0.3c0.5,0.2,0.9,0.5,1.3,0.8c0.4,0.4,0.6,0.8,0.8,1.3c0.2,0.5,0.3,1.1,0.3,1.8
		c0,0.7-0.1,1.2-0.3,1.8s-0.5,1-0.8,1.3c-0.4,0.4-0.8,0.7-1.3,0.8c-0.5,0.2-1.1,0.3-1.7,0.3c-0.6,0-1.2-0.1-1.7-0.3
		c-0.5-0.2-0.9-0.5-1.3-0.8c-0.4-0.4-0.6-0.8-0.8-1.3c-0.2-0.5-0.3-1.1-0.3-1.8c0-0.7,0.1-1.2,0.3-1.8c0.2-0.5,0.5-1,0.8-1.3
		c0.4-0.4,0.8-0.6,1.3-0.8C637.5,27.3,638.1,27.2,638.7,27.2z M638.7,34c0.6,0,1.1-0.2,1.4-0.7c0.3-0.4,0.5-1.1,0.5-1.9
		c0-0.9-0.2-1.5-0.5-1.9c-0.3-0.4-0.8-0.7-1.4-0.7c-0.6,0-1.1,0.2-1.4,0.7c-0.3,0.4-0.5,1.1-0.5,1.9c0,0.9,0.2,1.5,0.5,1.9
		C637.6,33.8,638.1,34,638.7,34z"/>
	<path class="st0" d="M646.3,28.3c0.2-0.2,0.3-0.3,0.5-0.4c0.2-0.1,0.4-0.2,0.6-0.3c0.2-0.1,0.4-0.2,0.6-0.2
		c0.2-0.1,0.5-0.1,0.8-0.1c0.4,0,0.8,0.1,1.2,0.2c0.3,0.2,0.6,0.4,0.9,0.6c0.2,0.3,0.4,0.6,0.5,1s0.2,0.8,0.2,1.3v5.2h-2.2v-5.2
		c0-0.5-0.1-0.8-0.3-1.1c-0.2-0.3-0.5-0.4-0.9-0.4c-0.3,0-0.6,0.1-0.9,0.2c-0.3,0.1-0.5,0.3-0.8,0.6v5.9h-2.2v-8.2h1.4
		c0.3,0,0.5,0.1,0.6,0.4L646.3,28.3z"/>
</g>
<g class="st2">
	<path class="st0" d="M660.8,27.6v0.8c0,0.1,0,0.2-0.1,0.3c-0.1,0.1-0.2,0.1-0.4,0.2l-0.7,0.1c0.1,0.3,0.1,0.5,0.1,0.8
		c0,0.4-0.1,0.8-0.3,1.1s-0.4,0.6-0.7,0.8c-0.3,0.2-0.6,0.4-1,0.5c-0.4,0.1-0.8,0.2-1.3,0.2c-0.3,0-0.6,0-0.8-0.1
		c-0.2,0.1-0.3,0.3-0.3,0.5c0,0.2,0.1,0.3,0.2,0.3c0.2,0.1,0.4,0.1,0.6,0.1s0.5,0,0.8,0.1s0.6,0,1,0.1c0.3,0,0.7,0.1,1,0.1
		c0.3,0.1,0.6,0.2,0.8,0.3c0.2,0.2,0.4,0.4,0.6,0.6c0.2,0.3,0.2,0.6,0.2,1c0,0.4-0.1,0.7-0.3,1.1s-0.4,0.7-0.8,0.9
		c-0.3,0.3-0.8,0.5-1.3,0.7s-1.1,0.2-1.7,0.2c-0.6,0-1.2-0.1-1.7-0.2c-0.5-0.1-0.9-0.3-1.2-0.5s-0.5-0.4-0.7-0.7
		c-0.1-0.3-0.2-0.5-0.2-0.8c0-0.4,0.1-0.7,0.3-0.9c0.2-0.3,0.5-0.5,0.9-0.6c-0.2-0.1-0.4-0.3-0.5-0.5c-0.1-0.2-0.2-0.4-0.2-0.7
		c0-0.2,0.1-0.5,0.3-0.8c0.2-0.3,0.5-0.5,0.8-0.7c-0.4-0.2-0.8-0.5-1-0.9c-0.2-0.4-0.4-0.8-0.4-1.3c0-0.4,0.1-0.8,0.3-1.1
		s0.4-0.6,0.7-0.8c0.3-0.2,0.7-0.4,1.1-0.5s0.8-0.2,1.3-0.2c0.7,0,1.3,0.1,1.9,0.4H660.8z M658.6,35.9c0-0.1,0-0.3-0.1-0.4
		c-0.1-0.1-0.2-0.2-0.4-0.2c-0.2-0.1-0.3-0.1-0.5-0.1c-0.2,0-0.4,0-0.7-0.1c-0.2,0-0.5,0-0.7,0c-0.3,0-0.5,0-0.7-0.1
		c-0.2,0.1-0.3,0.2-0.5,0.4c-0.1,0.2-0.2,0.3-0.2,0.5c0,0.1,0,0.3,0.1,0.4c0.1,0.1,0.2,0.2,0.3,0.3s0.3,0.1,0.6,0.2
		c0.2,0,0.5,0.1,0.9,0.1c0.4,0,0.7,0,0.9-0.1s0.5-0.1,0.6-0.2c0.2-0.1,0.3-0.2,0.3-0.3C658.5,36.2,658.6,36.1,658.6,35.9z
		 M656.5,31.1c0.5,0,0.8-0.1,1-0.3c0.2-0.2,0.3-0.5,0.3-0.9c0-0.4-0.1-0.7-0.3-0.9c-0.2-0.2-0.6-0.3-1-0.3s-0.8,0.1-1,0.3
		c-0.2,0.2-0.3,0.5-0.3,0.9c0,0.4,0.1,0.7,0.3,0.9C655.7,31,656,31.1,656.5,31.1z"/>
</g>
<g class="st2">
	<path class="st0" d="M663.6,31.8c0.1,0.8,0.3,1.3,0.7,1.7c0.4,0.4,0.9,0.5,1.5,0.5c0.3,0,0.6,0,0.8-0.1c0.2-0.1,0.4-0.2,0.6-0.2
		c0.2-0.1,0.3-0.2,0.5-0.2c0.1-0.1,0.3-0.1,0.4-0.1c0.2,0,0.3,0.1,0.4,0.2l0.6,0.8c-0.2,0.3-0.5,0.5-0.8,0.7
		c-0.3,0.2-0.6,0.3-0.9,0.4c-0.3,0.1-0.6,0.2-0.9,0.2s-0.6,0.1-0.9,0.1c-0.6,0-1.1-0.1-1.6-0.3s-0.9-0.5-1.3-0.8
		c-0.4-0.4-0.7-0.8-0.9-1.4c-0.2-0.5-0.3-1.2-0.3-1.9c0-0.6,0.1-1.1,0.3-1.6c0.2-0.5,0.4-0.9,0.8-1.3s0.8-0.7,1.3-0.9
		s1.1-0.3,1.7-0.3c0.5,0,1,0.1,1.5,0.3c0.4,0.2,0.8,0.4,1.2,0.7c0.3,0.3,0.6,0.7,0.8,1.2s0.3,1,0.3,1.6c0,0.2,0,0.3,0,0.4
		s0,0.2-0.1,0.3c0,0.1-0.1,0.1-0.2,0.1c-0.1,0-0.1,0-0.2,0H663.6z M667.1,30.5c0-0.2,0-0.4-0.1-0.7s-0.2-0.4-0.3-0.6
		c-0.1-0.2-0.3-0.3-0.5-0.4c-0.2-0.1-0.4-0.1-0.7-0.1c-0.5,0-0.9,0.1-1.2,0.4c-0.3,0.3-0.5,0.7-0.6,1.3H667.1z"/>
	<path class="st0" d="M672.6,23.6v11.9h-2.2V23.6H672.6z"/>
	<path class="st0" d="M674.3,28.5c0.5-0.4,1-0.8,1.6-1s1.2-0.3,1.9-0.3c0.5,0,0.9,0.1,1.3,0.2s0.7,0.4,1,0.7c0.3,0.3,0.5,0.6,0.6,1
		c0.1,0.4,0.2,0.8,0.2,1.3v5.2h-1c-0.2,0-0.4,0-0.5-0.1s-0.2-0.2-0.3-0.4l-0.2-0.5c-0.2,0.2-0.4,0.3-0.6,0.5s-0.4,0.3-0.6,0.3
		c-0.2,0.1-0.4,0.2-0.7,0.2s-0.5,0.1-0.8,0.1c-0.4,0-0.7,0-1-0.1c-0.3-0.1-0.6-0.2-0.8-0.4c-0.2-0.2-0.4-0.4-0.5-0.7
		c-0.1-0.3-0.2-0.6-0.2-1c0-0.3,0.1-0.6,0.2-0.9c0.2-0.3,0.4-0.6,0.8-0.8c0.4-0.2,0.9-0.5,1.5-0.6c0.6-0.2,1.4-0.3,2.4-0.3v-0.4
		c0-0.5-0.1-0.9-0.3-1.1c-0.2-0.2-0.5-0.4-0.9-0.4c-0.3,0-0.6,0-0.8,0.1c-0.2,0.1-0.4,0.1-0.5,0.2c-0.2,0.1-0.3,0.2-0.4,0.2
		c-0.1,0.1-0.3,0.1-0.5,0.1c-0.2,0-0.3,0-0.4-0.1c-0.1-0.1-0.2-0.2-0.3-0.3L674.3,28.5z M678.8,32.1c-0.5,0-1,0.1-1.3,0.1
		c-0.4,0.1-0.6,0.2-0.9,0.3c-0.2,0.1-0.4,0.2-0.4,0.4c-0.1,0.1-0.1,0.3-0.1,0.4c0,0.3,0.1,0.5,0.3,0.7c0.2,0.1,0.4,0.2,0.7,0.2
		c0.4,0,0.7-0.1,1-0.2s0.5-0.3,0.8-0.6V32.1z"/>
</g>
<g class="st2">
	<path class="st0" d="M685,28.7c0.3-0.5,0.6-0.8,0.9-1.1c0.3-0.3,0.7-0.4,1.2-0.4c0.4,0,0.7,0.1,0.9,0.3l-0.1,1.6
		c0,0.1-0.1,0.2-0.1,0.2c-0.1,0-0.1,0.1-0.2,0.1c-0.1,0-0.2,0-0.4,0c-0.2,0-0.3,0-0.4,0c-0.2,0-0.4,0-0.5,0.1s-0.3,0.1-0.4,0.2
		c-0.1,0.1-0.2,0.2-0.3,0.4c-0.1,0.2-0.2,0.3-0.3,0.5v5h-2.2v-8.2h1.3c0.2,0,0.4,0,0.5,0.1c0.1,0.1,0.1,0.2,0.2,0.4L685,28.7z"/>
</g>
</svg>
