<?xml version="1.0" encoding="utf-8"?>
<!-- Generator: Adobe Illustrator 22.0.1, SVG Export Plug-In . SVG Version: 6.00 Build 0)  -->
<svg version="1.1" id="Layer_1" xmlns="http://www.w3.org/2000/svg" xmlns:xlink="http://www.w3.org/1999/xlink" x="0px" y="0px"
	 viewBox="0 0 166 38.6" style="enable-background:new 0 0 166 38.6;" xml:space="preserve">
<style type="text/css">
	.st0{fill:#FFFFFF;}
</style>
<g id="Group_535" transform="translate(39.29 2.912)">
	<g id="Group_1002" transform="translate(-39.29 -2.912)">
		<g id="Group_1002-2">
			<path id="Path_2141" class="st0" d="M13.4,9.5h10.4V1.1c0-0.6-0.5-1.1-1.1-1.1H1.1C0.5,0,0,0.5,0,1.1v16.6l0,0v0.1
				c0.1,6.5,5.4,11.7,11.9,11.6c0,0,0,0,0,0c2.6,0,5.1-0.8,7.2-2.3c-3.1-7-6.7-15.2-6.9-15.6C11.9,10.7,11.5,9.5,13.4,9.5z"/>
			<path id="Path_2142" class="st0" d="M37,9.5H23.9v8.1l0,0v0.1c0,3.7-1.8,7.1-4.7,9.3c2.2,5,4.2,9.4,4.4,10
				c0.7,1.5,1.1,1.6,1.7,1.6h0.1c0.5,0,1-0.1,1.7-1.6s11-24.9,11.3-25.6C38.5,10.7,39,9.5,37,9.5z"/>
		</g>
		<g id="Group_1025" transform="translate(38.29 18.078)">
			<g id="Group_1023" transform="translate(0 0.33)">
				<g id="Group_1021" transform="translate(0 0.275)">
					<path id="Path_2168" class="st0" d="M4.8,11C2.1,11,0,8.9,0,6.2C0,6.1,0,6.1,0,6V1c0-0.5,0.4-1,1-1s1,0.4,1,1v5C2,6,2,9,4.7,9
						s2.7-3,2.7-3V1c0-0.5,0.4-1,1-1c0.5,0,1,0.4,1,1v5c0.2,2.6-1.7,4.8-4.3,5C5,11,4.9,11,4.8,11z"/>
				</g>
				<path id="Path_2169" class="st0" d="M19.3,0.3h-7.1c-0.5,0-1,0.4-1,1s0.4,1,1,1h2.5v7.7c0,0.5,0.4,1,1,1s1-0.4,1-1l0,0V2.3h2.5
					c0.5,0,1-0.4,1-1c0,0,0,0,0,0C20.2,0.7,19.8,0.3,19.3,0.3C19.3,0.3,19.3,0.3,19.3,0.3z"/>
				<path id="Path_2170" class="st0" d="M29.3,9h-5.1V6.5h4.3c0.5,0,1-0.4,1-1s-0.4-1-1-1h-4.3V2.3h5.1c0.5,0,1-0.4,1-1s-0.4-1-1-1
					h-6c-0.5,0-1,0.4-1,1c0,0,0,0,0,0V10c0,0.5,0.4,1,1,1c0,0,0,0,0,0h6c0.5,0,1-0.4,1-1c0,0,0,0,0,0C30.3,9.4,29.8,9,29.3,9z"/>
				<g id="Group_1022" transform="translate(32.307)">
					<path id="Path_2171" class="st0" d="M5.5,11.1C2.5,11.1,0,8.6,0,5.6C0,2.5,2.5,0,5.5,0c1.3,0,2.5,0.4,3.5,1.3
						c0.4,0.3,0.5,1,0.2,1.4c-0.3,0.4-1,0.5-1.4,0.2c0,0,0,0,0,0C7.2,2.4,6.4,2.1,5.5,2.1C3.6,2.1,2,3.7,2,5.6c0,2,1.6,3.6,3.6,3.6
						c0.8,0,1.6-0.3,2.2-0.8c0.4-0.4,1.1-0.3,1.4,0.1C9.5,9,9.5,9.7,9,10c0,0,0,0,0,0C8,10.7,6.8,11.1,5.5,11.1z"/>
				</g>
			</g>
			<g id="Group_1024" transform="translate(43.286)">
				<path id="Path_2172" class="st0" d="M10.1,0.3c-0.2-0.1-0.3-0.1-0.5,0C9.5,0.4,9.3,0.5,9.2,0.7l-4,8.7l-4-8.7
					C1.1,0.3,0.7,0.2,0.4,0.3C0.1,0.5-0.1,0.9,0.1,1.2l4.6,10c0.1,0.2,0.3,0.4,0.5,0.4h0.1c0.3,0,0.5-0.2,0.6-0.4l4.7-10
					C10.6,0.9,10.4,0.5,10.1,0.3z"/>
				<path id="Path_2173" class="st0" d="M19.8,10.3h-6.4V6.5H19c0.4,0,0.7-0.3,0.7-0.7c0-0.4-0.3-0.7-0.7-0.7l0,0h-5.6V1.6h6.3
					c0.4,0,0.6-0.3,0.7-0.6c0,0,0,0,0,0c0-0.4-0.3-0.6-0.6-0.7c0,0,0,0-0.1,0h-7c-0.4,0-0.6,0.3-0.7,0.6c0,0,0,0,0,0v10
					c0,0.4,0.3,0.6,0.6,0.7c0,0,0,0,0,0h7.1c0.4,0,0.7-0.3,0.7-0.7S20.2,10.3,19.8,10.3L19.8,10.3L19.8,10.3z"/>
				<path id="Path_2174" class="st0" d="M74.1,10.3h-6.4V6.5h5.6c0.4,0,0.7-0.3,0.7-0.7c0-0.4-0.3-0.7-0.7-0.7h-5.6V1.6H74
					c0.4,0,0.6-0.3,0.7-0.6c0,0,0,0,0,0c0-0.4-0.3-0.6-0.6-0.7c0,0,0,0-0.1,0h-7c-0.4,0-0.6,0.3-0.7,0.6c0,0,0,0,0,0v10
					c0,0.4,0.3,0.6,0.6,0.7c0,0,0,0,0,0h7.1c0.4,0,0.7-0.3,0.7-0.7S74.4,10.3,74.1,10.3L74.1,10.3L74.1,10.3z"/>
				<path id="Path_2175" class="st0" d="M31.1,0.3c-0.4,0-0.6,0.3-0.7,0.6c0,0,0,0,0,0v8.2l-7.1-8.6c-0.2-0.2-0.5-0.3-0.7-0.2
					c-0.3,0.1-0.4,0.3-0.4,0.6v10c0,0.4,0.3,0.7,0.7,0.7s0.7-0.3,0.7-0.7l0,0V2.7l7.1,8.6c0.1,0.1,0.3,0.2,0.5,0.2
					c0.1,0,0.2,0,0.2-0.1c0.3-0.1,0.4-0.3,0.4-0.6V0.9C31.8,0.6,31.5,0.3,31.1,0.3C31.1,0.3,31.1,0.3,31.1,0.3z"/>
				<path id="Path_2176" class="st0" d="M41.7,0.3H34c-0.4,0-0.6,0.3-0.7,0.6c0,0,0,0,0,0c0,0.4,0.3,0.6,0.6,0.7c0,0,0,0,0,0h3.2
					v9.3c0,0.4,0.3,0.7,0.7,0.7s0.7-0.3,0.7-0.7V1.6h3.2c0.4,0,0.6-0.3,0.7-0.6c0,0,0,0,0,0C42.4,0.6,42.1,0.3,41.7,0.3
					C41.7,0.3,41.7,0.3,41.7,0.3z"/>
				<path id="Path_2177" class="st0" d="M52.6,0.3c-0.4,0-0.6,0.3-0.7,0.6c0,0,0,0,0,0v6.3c0,1.8-1.4,3.3-3.2,3.3c0,0,0,0-0.1,0
					h-0.4c-1.8,0-3.2-1.4-3.2-3.2c0,0,0,0,0-0.1V0.9c0-0.4-0.3-0.7-0.7-0.7s-0.7,0.3-0.7,0.7v6.3c0,2.5,2,4.5,4.5,4.6
					c0,0,0.1,0,0.1,0h0.4c2.5,0,4.6-2,4.6-4.5c0,0,0,0,0,0V0.9C53.3,0.6,53,0.3,52.6,0.3C52.6,0.3,52.6,0.3,52.6,0.3z"/>
				<path id="Path_2178" class="st0" d="M61.6,6.9c1.7-0.2,2.9-1.7,2.9-3.4c0-3.3-3.4-3.3-4.5-3.3h-3.9c-0.4,0-0.6,0.3-0.7,0.6
					c0,0,0,0,0,0v10.2c0,0.4,0.3,0.7,0.7,0.7s0.7-0.3,0.7-0.7l0,0v-4h3.4l3.3,4.3c0.2,0.3,0.6,0.3,0.9,0.1c0.3-0.2,0.3-0.6,0.1-0.9
					L61.6,6.9z M56.7,1.6H60c2.6,0,3.2,0.8,3.2,2c0,2.1-2.6,2.2-2.9,2.2h-3.6L56.7,1.6z"/>
				<path id="Path_2179" class="st0" d="M80.7,5.2c-3.1-0.5-3.1-1.4-3.1-2.1c0-0.9,0.8-1.8,2.5-1.8c1,0,1.9,0.3,2.6,0.9
					c0.2,0.3,0.6,0.3,0.9,0c0,0,0,0,0,0c0.1-0.1,0.2-0.3,0.2-0.4c0-0.2-0.1-0.3-0.2-0.4c-1-0.9-2.3-1.3-3.6-1.3
					c-2.6,0-3.7,1.6-3.7,3.1c0,1.9,1.2,2.9,4.1,3.4c2.7,0.5,2.7,1.4,2.7,1.9c-0.1,1.1-1,2-2.1,1.9c-1.4,0.1-2.9-0.4-4-1.3
					c-0.1-0.1-0.3-0.2-0.5-0.2c-0.2,0-0.3,0.1-0.4,0.2c-0.1,0.1-0.2,0.3-0.2,0.5c0,0.2,0.1,0.3,0.2,0.4c1.2,1,2.7,1.6,4.2,1.6
					c0.2,0,0.4,0,0.7-0.1c1.8,0,3.3-1.4,3.4-3.2C84.3,7.3,84,5.9,80.7,5.2z"/>
			</g>
		</g>
	</g>
</g>
</svg>
