<svg xmlns="http://www.w3.org/2000/svg" viewBox="0 0 29.9 17.9">
  <defs>
    <style>
      .cls-1, .cls-2 {
        fill: #626262;
      }

      .cls-1 {
        fill-rule: evenodd;
      }
    </style>
  </defs>
  <g id="Group_940" data-name="Group 940" transform="translate(-546.1 -193)">
    <g id="Group_796" data-name="Group 796">
      <g id="Group_795" data-name="Group 795">
        <path id="Path_1418" data-name="Path 1418" class="cls-1" d="M571.7,205.4h-1.6c-.1-.3-.1-.7-.2-1h-2.2c-.1,0-.1,0-.2.1-.1.3-.2.5-.3.8l-.1.1h-1.8c0-.1,0-.1.1-.1.9-2.1,1.7-4.1,2.6-6.2a.749.749,0,0,1,.8-.5h1.4c.1,0,.1,0,.1.1.5,2.2.9,4.4,1.4,6.6C571.7,205.3,571.7,205.4,571.7,205.4Zm-2.2-2.4a22.105,22.105,0,0,1-.5-2.5h0c-.3.8-.6,1.7-.9,2.5Z"/>
        <path id="Path_1419" data-name="Path 1419" class="cls-1" d="M549.6,198.8v-.2h3a.876.876,0,0,1,.9.7c.2,1.3.5,2.5.7,3.8v.1c.1-.2.1-.3.2-.5.5-1.4,1.1-2.7,1.6-4.1,0-.1.1-.1.2-.1h1.7c0,.1,0,.1-.1.1-.9,2.2-1.9,4.4-2.8,6.6,0,.1-.1.1-.2.1h-1.7c-.1,0-.1,0-.1-.1-.5-1.8-.9-3.6-1.4-5.4-.1-.3-.2-.5-.5-.6a7.542,7.542,0,0,0-1.5-.4Z"/>
        <path id="Path_1420" data-name="Path 1420" class="cls-1" d="M565.7,198.8c-.1.5-.2.9-.3,1.4a.6.6,0,0,0-.4-.1,3.329,3.329,0,0,0-1.4-.1.52.52,0,0,0-.4.2.385.385,0,0,0,0,.7,2.506,2.506,0,0,0,.7.4,4.7,4.7,0,0,1,.9.6,1.711,1.711,0,0,1,.6,1.9,2.2,2.2,0,0,1-1.5,1.6,3.8,3.8,0,0,1-2.1.2,3.079,3.079,0,0,1-1.3-.3c-.1,0-.1-.1-.2-.1l.3-1.5c.1.1.2.1.4.2a3.722,3.722,0,0,0,1.8.2.764.764,0,0,0,.5-.2.468.468,0,0,0,0-.8,2.093,2.093,0,0,0-.6-.4c-.3-.2-.7-.4-1-.6a1.815,1.815,0,0,1-.3-2.6,2.371,2.371,0,0,1,1.5-.9,4.5,4.5,0,0,1,2.8.2Z"/>
        <path id="Path_1421" data-name="Path 1421" class="cls-1" d="M557.3,205.4a6.359,6.359,0,0,1,.2-.7c.4-2,.9-4,1.3-6,0-.1,0-.1.1-.1h1.7c-.1.3-.1.5-.2.8-.4,2-.8,3.9-1.3,5.9a.215.215,0,0,1-.2.2h-1.5A.1.1,0,0,0,557.3,205.4Z"/>
      </g>
    </g>
    <path id="Path_1422" data-name="Path 1422" class="cls-2" d="M574.5,193.8a.789.789,0,0,1,.8.8v14.9a.789.789,0,0,1-.8.8H547.6a.789.789,0,0,1-.8-.8V194.6a.789.789,0,0,1,.8-.8h26.9m0-.8H547.6a1.538,1.538,0,0,0-1.5,1.5v14.9a1.538,1.538,0,0,0,1.5,1.5h26.9a1.538,1.538,0,0,0,1.5-1.5V194.5a1.538,1.538,0,0,0-1.5-1.5Z"/>
  </g>
</svg>
