<svg xmlns="http://www.w3.org/2000/svg" viewBox="0 0 98.419 24.74">
  <defs>
    <style>
      .cls-1 {
        fill: #fff;
      }
    </style>
  </defs>
  <g id="Group_531" data-name="Group 531" transform="translate(19)">
    <g id="Group_1020" data-name="Group 1020" transform="translate(-19)">
      <path id="Path_498" data-name="Path 498" class="cls-1" d="M34.679,0H29.451L24.686,15.984,19.932.011,19.942,0H14.715V.011L9.971,15.963,5.217,0H0L7.357,24.718v.022h5.228l-.011-.022L17.329,8.777,22.083,24.74H27.3L32.065,8.745,36.83,24.74h5.217Z"/>
      <g id="Group_1019" data-name="Group 1019" transform="translate(24 -22.545)">
        <path id="Path_499" data-name="Path 499" class="cls-1" d="M220.827,279.354l-2.845-8.454h-1.409l-2.419,8.321-2.393-8.321H209.9l3.3,10.528h1.861l2.18-7.763,2.605,7.763h1.888l3.031-10.528h-1.6Z" transform="translate(-187.322 -241.523)"/>
        <path id="Path_500" data-name="Path 500" class="cls-1" d="M272.812,269.4a20.285,20.285,0,0,0-3.8.4v1.462a12.08,12.08,0,0,1,3.137-.425c1.728,0,2.579.877,2.579,3.11H271.4a3.377,3.377,0,0,0-3.4,3.27,3.281,3.281,0,0,0,3.35,3.509,5.075,5.075,0,0,0,3.483-1.223v.824h1.542v-7.391A3.312,3.312,0,0,0,272.812,269.4Zm1.834,8.88a3.811,3.811,0,0,1-2.685.957c-1.781,0-2.339-.984-2.339-1.994s.611-1.994,2.526-1.994h2.526v3.031Z" transform="translate(-229.976 -240.422)"/>
        <path id="Path_501" data-name="Path 501" class="cls-1" d="M378.112,269.4a20.285,20.285,0,0,0-3.8.4v1.462a12.08,12.08,0,0,1,3.137-.425c1.728,0,2.579.877,2.579,3.11H376.7a3.377,3.377,0,0,0-3.4,3.27,3.324,3.324,0,0,0,3.376,3.536,5.075,5.075,0,0,0,3.483-1.223v.824H381.7v-7.391A3.353,3.353,0,0,0,378.112,269.4Zm1.834,8.88a3.811,3.811,0,0,1-2.685.957c-1.781,0-2.34-.984-2.34-1.994s.611-1.994,2.526-1.994h2.526v3.031Z" transform="translate(-307.282 -240.422)"/>
        <path id="Path_502" data-name="Path 502" class="cls-1" d="M315.732,279.461a5.5,5.5,0,0,1-3.057.851c-1.117,0-2.021-.585-2.021-2.339V270.9H308.9v7.125c0,2.419.957,3.589,3.217,3.589a7.446,7.446,0,0,0,3.669-.877v2.34a2.331,2.331,0,0,1-2.366,2.1c-.824,0-2.526-.133-2.526-.133v1.143s.372.346,2.791.346a3.9,3.9,0,0,0,3.8-3.749V270.927h-1.728v8.534Z" transform="translate(-260.003 -241.523)"/>
        <path id="Path_503" data-name="Path 503" class="cls-1" d="M352.455,270.7v-.691H350.7v10.528h1.755v-8.667a4.555,4.555,0,0,1,3.536-.611v-1.3C354.794,269.213,353.146,270.2,352.455,270.7Z" transform="translate(-290.69 -240.634)"/>
      </g>
    </g>
  </g>
</svg>
