<?xml version="1.0" encoding="utf-8"?>
<!-- Generator: Adobe Illustrator 22.0.1, SVG Export Plug-In . SVG Version: 6.00 Build 0)  -->
<svg version="1.1" xmlns="http://www.w3.org/2000/svg" xmlns:xlink="http://www.w3.org/1999/xlink" x="0px" y="0px"
	 viewBox="0 0 15.7 15.7" style="enable-background:new 0 0 15.7 15.7;" xml:space="preserve">
<style type="text/css">
	.st0{fill:#F7F8FA;}
	.st1{fill:#DCF2F9;}
	.st2{fill:#00AEEF;}
	.st3{fill:#FFFFFF;}
	.st4{fill:#1C75BC;}
	.st5{fill:none;stroke:#00AEEF;stroke-miterlimit:10;}
	.st6{fill:#EE2A7B;}
	.st7{fill:#EC008C;}
	.st8{fill:#414042;}
	.st9{fill:#626262;}
	.st10{fill:#88CE00;}
	.st11{fill:#0FA3F4;}
	.st12{fill:#D1D3D4;}
	.st13{fill:#969696;}
	.st14{fill:url(#SVGID_1_);}
	.st15{fill:#0D85D6;}
	.st16{fill:none;stroke:#444242;stroke-width:1.2517;stroke-miterlimit:10;}
	.st17{fill:url(#SVGID_2_);}
	.st18{fill:url(#SVGID_3_);}
	.st19{fill:#F9F9F9;}
	.st20{fill:#E6E7E8;}
	.st21{fill:#F1F2F2;}
	.st22{fill-rule:evenodd;clip-rule:evenodd;fill:#F4F4F4;}
	.st23{fill:url(#SVGID_6_);}
	.st24{fill:url(#SVGID_7_);}
	.st25{fill:url(#SVGID_8_);}
	.st26{fill-rule:evenodd;clip-rule:evenodd;fill:#414042;}
	.st27{fill:#1178F2;}
	.st28{fill:#FCCC30;}
	.st29{fill:#E5E5E5;}
	.st30{fill:#FF761A;}
	.st31{fill-rule:evenodd;clip-rule:evenodd;fill:#0FA3F4;}
	.st32{fill-rule:evenodd;clip-rule:evenodd;fill:#FFFFFF;}
	.st33{fill:#F4F4F4;}
	.st34{fill:#C49A6C;}
	.st35{fill:none;stroke:#CCCCCC;stroke-miterlimit:10;stroke-dasharray:7;}
	.st36{fill:#6D6E71;}
	.st37{fill:none;stroke:#3BC3ED;stroke-width:3;stroke-miterlimit:10;}
	.st38{opacity:0.15;fill:none;stroke:#3BC3ED;stroke-width:3;stroke-miterlimit:10;}
	.st39{opacity:0.5;fill:#FFFFFF;}
	.st40{fill:url(#SVGID_29_);}
	.st41{fill:url(#SVGID_30_);}
	.st42{fill:url(#SVGID_31_);}
	.st43{fill:url(#SVGID_40_);}
	.st44{fill:none;stroke:#0FA3F4;stroke-miterlimit:10;}
</style>
<g id="regla">
	<path class="st32" d="M15.7,7.5C15.6,3.3,12.2,0,8,0C3.9,0,0.5,3.2,0.3,7.3c0,0.1,0,0.2,0,0.3c0,1.4,0.4,2.8,1.1,4L0,15.7l4.3-1.4
		C5.4,15,6.7,15.3,8,15.3c4.3,0,7.7-3.4,7.7-7.7C15.7,7.6,15.7,7.5,15.7,7.5L15.7,7.5z M11.6,9.2c-0.2-0.1-1.1-0.6-1.3-0.6
		C10.1,8.5,10,8.5,9.8,8.7C9.7,8.9,9.3,9.3,9.2,9.4C9.1,9.6,9,9.6,8.8,9.5C8.6,9.4,8,9.2,7.3,8.5C6.7,8,6.4,7.4,6.3,7.3
		C6.1,7.1,6.2,7,6.3,6.9c0.1-0.1,0.2-0.2,0.3-0.3c0,0,0-0.1,0.1-0.1c0.1-0.1,0.1-0.1,0.1-0.2c0.1-0.1,0-0.2,0-0.3
		c0-0.1-0.4-1-0.6-1.4C6.1,4.1,5.9,4.2,5.8,4.2c-0.1,0-0.2,0-0.4,0c-0.1,0-0.3,0-0.5,0.2C4.7,4.6,4.2,5,4.2,6c0,0.2,0,0.4,0.1,0.6
		C4.5,7.3,5,7.8,5,7.9C5.1,8,6.3,10,8.3,10.7c1.9,0.8,1.9,0.5,2.3,0.5c0.3,0,1.1-0.4,1.3-0.9C12,9.9,12,9.5,11.9,9.4
		C11.9,9.4,11.7,9.3,11.6,9.2L11.6,9.2z"/>
</g>
<g id="menú_desplegable_de_carrito">
</g>
</svg>
