<svg xmlns="http://www.w3.org/2000/svg" width="19" height="11" viewBox="0 0 19 11">
  <g id="Group_1620" data-name="Group 1620" transform="translate(-1017 -149)">
    <g id="Group_1551" data-name="Group 1551">
      <path id="Path_2806" data-name="Path 2806" d="M1026.5,160a10.932,10.932,0,0,1-6.648-2.653,16.941,16.941,0,0,1-2.683-2.642l-.169-.219.161-.226a14.819,14.819,0,0,1,2.569-2.628,10.023,10.023,0,0,1,13.54,0,14.814,14.814,0,0,1,2.569,2.628l.161.226-.169.219a16.948,16.948,0,0,1-2.683,2.642A10.932,10.932,0,0,1,1026.5,160Zm-8.611-5.53c.822.969,4.344,4.8,8.611,4.8s7.789-3.834,8.611-4.8c-.776-.971-4.086-4.744-8.611-4.744S1018.663,153.5,1017.889,154.47Z" fill="#fff"/>
    </g>
    <path id="Path_2807" data-name="Path 2807" d="M1026.5,150.587a3.854,3.854,0,1,0,4.018,3.85A3.937,3.937,0,0,0,1026.5,150.587Zm0,5.073a1.226,1.226,0,1,1,1.315-1.223A1.272,1.272,0,0,1,1026.5,155.66Z" fill="#fff"/>
  </g>
</svg>
