<svg xmlns="http://www.w3.org/2000/svg" viewBox="0 0 27.176 20.24">
  <defs>
    <style>
      .cls-1 {
        fill: #626262;
        fill-rule: evenodd;
      }
    </style>
  </defs>
  <g id="Group_939" data-name="Group 939" transform="translate(-709.974 -193)">
    <g id="Group_793" data-name="Group 793" transform="translate(709.974 193)">
      <path id="Path_1416" data-name="Path 1416" class="cls-1" d="M728.547,194.865c.339-.339.452-.678.678-.791a1.451,1.451,0,0,1,1.583-.565,1.323,1.323,0,0,1,.9,1.244,6.847,6.847,0,0,1,0,2.148,18.422,18.422,0,0,1-1.244,3.505c-.792,1.583-1.583,2.148-3.392,1.131a3.5,3.5,0,0,0-.226.9c-.113.339-.113.565-.226,1.018,1.244-.113,2.488-.339,3.731-.452,1.47-.113,2.94-.339,4.41-.452.339,0,.792-.113.9.452a.9.9,0,0,1-.792,1.018c-1.357.226-2.827.339-4.184.452s-2.6.339-3.957.452c-.339,0-.565.113-.565.565a.8.8,0,0,1-.792.9c-.565.113-.792-.226-.792-.9v-.339a36.129,36.129,0,0,0-6.106.9,2.752,2.752,0,0,0-2.148,1.7,21.749,21.749,0,0,1-2.035,3.505,10.475,10.475,0,0,1-1.583,1.583,2.829,2.829,0,0,1-1.47.339c-.678,0-1.131-.452-1.244-1.244a5.081,5.081,0,0,1,.452-2.6,8.378,8.378,0,0,1,4.184-4.184A2.391,2.391,0,0,0,716,203.572c.113-.678.452-1.244.678-2.148a3.968,3.968,0,0,1-.9.565,6.719,6.719,0,0,0-.9.452c-.9.226-1.47-.113-1.47-1.018a12.274,12.274,0,0,1,.452-2.827c.226-.9.678-1.809.9-2.827a.7.7,0,0,1,.9-.565c.565.113.792.339.678.9a15.051,15.051,0,0,1-.565,2.148c-.226.678-.452,1.244-.678,1.922,0,.226.113.339.113.565a.847.847,0,0,0,.565-.113,15.046,15.046,0,0,0,1.583-2.148,24.332,24.332,0,0,0,1.131-3.053c.226-.452,1.47-1.47,1.922-1.357.113,0,.226.226.226.339,0,.226-.113.565-.113.791-1.018,2.94-2.035,5.993-3.053,8.933,0,.113-.113.226-.113.452,1.018-.113,1.922-.339,2.94-.452,1.357-.226,2.6-.339,3.957-.565.452,0,.792-.113.792-.678a4.974,4.974,0,0,1,.226-1.131c-1.244.565-1.357.452-2.035-.678-.226.226-.339.565-.565.791a1.316,1.316,0,0,1-2.374-.565,4.062,4.062,0,0,1,.113-2.827,18.093,18.093,0,0,1,1.47-3.392c.792-1.244,1.583-1.357,2.827-.678.113-.226.113-.565.339-.565a1.2,1.2,0,0,1,.9-.113,1.29,1.29,0,0,1,.339.678,19.688,19.688,0,0,1-.565,2.488c-.226,1.018-.339,1.922-.565,2.94v.678a1.207,1.207,0,0,0,.792-1.018c.452-1.7.792-3.392,1.131-5.088.113-.452.113-.9.678-.791C728.321,193.848,728.66,194.074,728.547,194.865Zm-6.9,5.2a5.512,5.512,0,0,1,.339.791c.226-.226.565-.339.678-.678.565-1.357,1.131-2.714,1.583-4.071.226-.452-.113-.678-.565-.452a4.427,4.427,0,0,0-1.131.9A13.144,13.144,0,0,0,721.65,200.066Zm5.88.226a1.485,1.485,0,0,0,1.922-1.018,22.388,22.388,0,0,0,.678-2.94,2.039,2.039,0,0,0-.113-1.131C728.095,196.448,727.982,198.483,727.529,200.293Zm-12.438,6.558c-.339.113-.452.226-.565.226a7.163,7.163,0,0,0-3.053,3.731c-.113.339-.452.9,0,1.244.452.226.9-.226,1.131-.565.565-.9,1.018-1.809,1.583-2.714A15.554,15.554,0,0,0,715.092,206.851Z" transform="translate(-709.974 -192.943)"/>
      <path id="Path_1417" data-name="Path 1417" class="cls-1" d="M734.046,198.427c.339.452.452.792.226,1.131a4.863,4.863,0,0,1-2.714,2.035,1.626,1.626,0,0,1-2.148-1.357,6.15,6.15,0,0,1,0-2.035,8.2,8.2,0,0,1,1.809-4.184A2.568,2.568,0,0,1,733.254,193c.9,0,1.244.452,1.357,1.244.113,1.7-.792,2.94-2.714,3.618-.792.339-1.018.565-.9,1.47.113.792.565,1.018,1.244.678a14.321,14.321,0,0,0,1.47-1.244Zm-2.6-1.7c.113,0,.113.113.226.113a2.207,2.207,0,0,0,1.47-1.357c.113-.226,0-.452,0-.792-.226.113-.678.113-.792.226A9.017,9.017,0,0,1,731.445,196.731Z" transform="translate(-707.445 -193)"/>
    </g>
  </g>
</svg>
