<?xml version="1.0" encoding="utf-8"?>
<!-- Generator: Adobe Illustrator 22.0.1, SVG Export Plug-In . SVG Version: 6.00 Build 0)  -->
<svg version="1.1" xmlns="http://www.w3.org/2000/svg" xmlns:xlink="http://www.w3.org/1999/xlink" x="0px" y="0px"
	 viewBox="0 0 223.4 60.2" style="enable-background:new 0 0 223.4 60.2;" xml:space="preserve">
<style type="text/css">
	.st0{fill:#014B8E;}
	.st1{fill:#F57D31;}
	.st2{fill-rule:evenodd;clip-rule:evenodd;fill:#2E3191;}
	.st3{fill-rule:evenodd;clip-rule:evenodd;fill:#EC1C24;}
	.st4{fill-rule:evenodd;clip-rule:evenodd;fill:#0A83BA;}
	.st5{fill-rule:evenodd;clip-rule:evenodd;fill:#BDCD0D;}
	.st6{fill-rule:evenodd;clip-rule:evenodd;fill:#304A9E;}
	.st7{fill-rule:evenodd;clip-rule:evenodd;fill:#00A551;}
</style>
<g id="GuÌas_para_la_mesa_de_trabajo">
</g>
<g id="Layer_1">
	<g>
		<path class="st4" d="M37.8,29.7c0,0.1,0.1,0.1,0.2,0.2c2.9,1.6,4.7,4.2,5.4,7.4c0.6,2.6,0.7,5.2,0.6,7.8c-0.1,1.6-0.3,3.3-0.7,4.9
			c-1.2,4.3-3.9,7.1-8.1,8.5c-1.8,0.6-3.7,1-5.7,1.2c-1.8,0.2-3.6,0.2-5.4,0.2c-6.2,0-12.3,0-18.5,0c-0.9,0-1.7,0-2.6-0.2
			c-0.3-0.1-0.5-0.1-0.8-0.2c-0.9-0.3-1.5-0.9-1.8-1.8c-0.3-0.8-0.3-1.7-0.4-2.5c0-0.3,0-0.6,0-0.8C0,38.7,0,23.1,0,7.6
			c0-0.8,0-1.7,0.2-2.5c0.1-0.3,0.1-0.6,0.2-0.8c0.3-0.8,0.9-1.4,1.7-1.7c0.8-0.3,1.6-0.3,2.3-0.4c0.4,0,0.8,0,1.2,0
			c6.1,0,12.1,0,18.2,0c2.7,0,5.3,0.2,7.9,0.8c1,0.2,2,0.5,2.9,0.9c3.7,1.6,6.1,4.3,7.1,8.2c0.7,2.6,0.7,5.2,0.6,7.8
			c-0.1,1.5-0.3,2.9-0.8,4.3c-0.7,2.1-1.9,3.9-3.6,5.3C37.9,29.5,37.8,29.6,37.8,29.7z M19.6,35.2C19.6,35.2,19.6,35.2,19.6,35.2
			c-2.3,0-4.7,0-7,0c-0.5,0-0.5,0-0.5,0.5c0,0.1,0,0.1,0,0.2c0,4.4,0,8.9,0,13.3c0,0.1,0,0.2,0,0.3c0,0.2,0.1,0.3,0.3,0.3
			c0.1,0,0.3,0,0.4,0c3.9,0,7.8,0,11.7,0c0.7,0,1.4,0,2.1-0.1c0.8-0.1,1.5-0.2,2.2-0.5c1.2-0.4,1.9-1.2,2.3-2.4
			c0.1-0.4,0.2-0.9,0.3-1.4c0.2-1.7,0.2-3.5,0.1-5.2c0-0.5-0.1-1.1-0.2-1.6c-0.4-1.6-1.4-2.6-3-3c-1.1-0.3-2.2-0.3-3.3-0.4
			C23.2,35.2,21.4,35.2,19.6,35.2z M18.7,12.2C18.7,12.2,18.7,12.2,18.7,12.2c-2.1,0-4.1,0-6.2,0c-0.4,0-0.4,0-0.4,0.4
			c0,0.5,0,1,0,1.5c0,3.5,0,7,0,10.5c0,0.5,0,0.5,0.4,0.5c3.8,0,7.6,0,11.4,0c1.1,0,2.2-0.1,3.3-0.4c1.4-0.4,2.3-1.4,2.6-2.8
			c0.3-1.5,0.3-3.1,0.2-4.6c0-0.7-0.1-1.3-0.3-1.9c-0.3-1.1-1-2-2.1-2.4c-0.3-0.1-0.6-0.2-0.9-0.3c-1-0.3-2.1-0.4-3.2-0.4
			C22,12.2,20.4,12.2,18.7,12.2z"/>
		<path class="st4" d="M169.7,29.7c0.1,0.1,0.2,0.1,0.3,0.2c2.8,1.6,4.6,4,5.4,7.1c0.5,1.8,0.6,3.6,0.7,5.4c0,2.1,0,4.2-0.5,6.2
			c-0.4,1.9-1.1,3.8-2.2,5.4c-1.4,2-3.4,3.3-5.6,4.2c-1.7,0.6-3.4,1-5.2,1.2c-2,0.3-4,0.3-6,0.3c-6.3,0-12.6,0-18.9,0
			c-0.8,0-1.6,0-2.4-0.2c-1.9-0.4-2.7-1.2-3-3.2c-0.1-0.7-0.1-1.3-0.1-2c0-15.7,0-31.4,0-47c0-0.8,0-1.7,0.2-2.5
			c0.3-1.4,1.2-2.3,2.6-2.6c0.8-0.2,1.6-0.2,2.5-0.2c6.6,0,13.2,0,19.9,0c2.8,0,5.5,0.4,8.1,1.2c1.9,0.6,3.6,1.5,5,2.8
			c1.8,1.6,2.9,3.7,3.5,6.1c0.6,2.3,0.7,4.6,0.6,7c-0.1,1.5-0.3,3-0.7,4.5c-0.7,2.3-1.9,4.3-3.8,5.8
			C169.9,29.6,169.8,29.6,169.7,29.7z M151.6,35.2C151.6,35.2,151.6,35.2,151.6,35.2c-2.3,0-4.7,0-7,0c-0.5,0-0.5,0-0.5,0.5
			c0,0.1,0,0.1,0,0.2c0,4.4,0,8.9,0,13.3c0,0.1,0,0.2,0,0.3c0,0.2,0.1,0.3,0.3,0.3c0.1,0,0.3,0,0.4,0c3.9,0,7.8,0,11.7,0
			c0.7,0,1.4,0,2.1-0.1c0.8-0.1,1.6-0.2,2.3-0.5c1.1-0.4,1.9-1.2,2.2-2.3c0.1-0.3,0.2-0.6,0.2-1c0.2-1.3,0.2-2.6,0.2-3.9
			c0-1.1-0.1-2.2-0.3-3.3c-0.4-1.6-1.3-2.6-2.9-3c-1.1-0.3-2.2-0.4-3.3-0.4C155.3,35.2,153.4,35.2,151.6,35.2z M150.8,12.2
			C150.8,12.2,150.8,12.2,150.8,12.2c-2.1,0-4.1,0-6.2,0c-0.4,0-0.5,0-0.5,0.4c0,4,0,8.1,0,12.1c0,0.4,0,0.4,0.4,0.4
			c3.8,0,7.6,0,11.4,0c1.1,0,2.1-0.1,3.1-0.4c1.5-0.4,2.4-1.3,2.8-2.9c0.1-0.3,0.1-0.5,0.1-0.8c0.2-1.4,0.1-2.8,0.1-4.2
			c0-0.6-0.1-1.1-0.3-1.7c-0.3-1.1-1-1.8-2-2.2c-0.3-0.1-0.6-0.2-0.9-0.3c-1-0.3-2.1-0.4-3.2-0.4C154.1,12.2,152.4,12.2,150.8,12.2z
			"/>
		<path class="st4" d="M73.7,56.7c-1.8,0.8-3.5,1.4-5.2,2c-2.4,0.8-4.9,1.3-7.4,1.5c-1.4,0.1-2.8,0-4.2-0.3c-2.9-0.7-5-2.4-6.3-5.1
			c-0.8-1.7-1.2-3.4-1.6-5.2c-0.5-3-0.7-6-0.7-9.1c0-2.4,0-4.8,0.2-7.2c0.2-2.7,0.6-5.4,1.5-8c0.3-0.8,0.7-1.6,1.1-2.4
			c1.4-2.3,3.4-3.6,6-4.1c2-0.4,3.9-0.3,5.9-0.1c3.5,0.5,6.8,1.7,10,3c0.2,0.1,0.3,0.1,0.5,0.2c0,0,0.1,0,0.1,0
			c0-0.2,0.1-0.3,0.1-0.5c0.3-1.2,1-1.9,2.2-2.2c0.6-0.2,1.2-0.2,1.8-0.3c1.4-0.1,2.7-0.1,4.1,0.1c0.3,0,0.5,0.1,0.8,0.2
			c1,0.3,1.6,1,1.9,2c0.2,0.6,0.3,1.3,0.3,1.9c0,0.4,0,0.9,0,1.3c0,9.8,0,19.7,0,29.5c0,0.9,0,1.9-0.2,2.8c-0.3,1.5-1.1,2.3-2.6,2.6
			c-0.7,0.1-1.5,0.2-2.3,0.2c-1.1,0-2.3,0-3.4-0.2c-0.3-0.1-0.5-0.1-0.7-0.2c-0.9-0.3-1.5-0.9-1.8-1.8
			C73.9,57.2,73.8,56.9,73.7,56.7z M73.6,39.4c0-2.5,0-4.9,0-7.4c0-0.3,0-0.4-0.3-0.6c-2-0.9-4.1-1.8-6.2-2.4
			c-1.4-0.4-2.8-0.7-4.3-0.7c-0.7,0-1.3,0.3-1.6,0.9c-0.3,0.5-0.5,1-0.6,1.5c-0.3,1.1-0.4,2.2-0.5,3.4c-0.2,3.8-0.3,7.6,0.1,11.4
			c0.1,1,0.3,2.1,0.6,3.1c0.5,1.3,1.1,1.7,2.5,1.7c1,0,2-0.2,2.9-0.4c2.4-0.6,4.7-1.6,7-2.5c0.3-0.1,0.5-0.3,0.5-0.7
			C73.6,44.2,73.6,41.8,73.6,39.4z"/>
		<path class="st4" d="M101.7,22c1.2-0.5,2.5-1,3.8-1.5c2.2-0.8,4.5-1.5,6.8-1.8c2.1-0.3,4.1-0.3,6.2,0.1c2.3,0.5,4.1,1.8,5.4,3.8
			c1,1.5,1.5,3.2,2,4.9c0.6,2.1,0.7,4.3,0.7,6.5c0,6.9,0,13.8,0,20.7c0,0.8-0.1,1.7-0.3,2.5c-0.3,1.2-1,1.9-2.2,2.2
			c-0.5,0.1-1.1,0.2-1.6,0.3c-1.5,0.1-3,0.1-4.5-0.1c-0.3-0.1-0.6-0.1-0.9-0.3c-0.8-0.3-1.3-0.9-1.6-1.6c-0.2-0.6-0.3-1.3-0.4-1.9
			c0-0.5,0-1,0-1.5c0-6.9,0-13.8,0-20.6c0-1.1-0.1-2.1-0.3-3.2c-0.1-0.3-0.1-0.6-0.3-0.8c-0.4-0.9-1-1.3-2-1.3c-1.4,0-2.7,0.3-4,0.7
			c-2.2,0.6-4.3,1.5-6.3,2.4c-0.2,0.1-0.3,0.2-0.3,0.5c0,0.1,0,0.2,0,0.4c0,7.3,0,14.6,0,21.9c0,1,0,1.9-0.2,2.9
			c-0.3,1.3-1,2.1-2.4,2.5c-0.5,0.1-1,0.2-1.4,0.2c-1.5,0.1-3,0.1-4.4-0.2c-0.3-0.1-0.5-0.1-0.8-0.2c-0.9-0.3-1.4-0.9-1.7-1.8
			c-0.2-0.6-0.3-1.2-0.3-1.8c0-0.7-0.1-1.3-0.1-2c0-9.7,0-19.3,0-29c0-1.1,0-2.2,0.2-3.3c0.3-1.3,1.1-2.1,2.4-2.4
			c1.4-0.3,2.9-0.3,4.3-0.2c0.6,0,1.3,0.1,1.9,0.3c1.2,0.3,2,1.1,2.3,2.3C101.6,21.6,101.6,21.7,101.7,22
			C101.7,21.9,101.7,21.9,101.7,22z"/>
		<path class="st4" d="M212.1,42.3c0,4.1,0,8.2,0,12.3c0,0.7,0,1.3-0.1,2c-0.3,1.8-1,2.7-2.8,3c-1.8,0.3-3.7,0.3-5.5,0
			c-1.9-0.3-2.7-1.2-2.9-3.1c-0.1-0.7-0.1-1.3-0.1-2c0-8.5,0-16.9,0-25.4c0-0.7,0.1-0.7-0.7-0.7c-0.8,0-1.5-0.1-2.3-0.2
			c-1.4-0.3-2.3-1.1-2.6-2.5c-0.3-1.3-0.3-2.6,0-4c0.3-1.6,1.2-2.3,2.8-2.6c0.8-0.1,1.5-0.1,2.3-0.2c0.4,0,0.4,0,0.4-0.4
			c0.1-1.8,0.2-3.6,0.4-5.4c0.2-1.9,0.6-3.7,1.2-5.4c0.7-2.1,2.1-3.4,4.1-4.3c1.6-0.7,3.2-1.1,4.9-1.2c2.1-0.2,4.1-0.1,6.2-0.1
			c0.8,0,1.7,0.1,2.5,0.4c2.2,0.6,3.3,1.9,3.4,4.2c0,0.6,0,1.2-0.1,1.8c-0.3,1.5-1.2,2.6-2.7,3.2c-1.2,0.5-2.5,0.7-3.8,0.7
			c-0.8,0-1.6,0-2.3,0.1c-1.4,0.3-2,0.9-2.2,2.3c-0.2,1.3-0.1,2.6-0.1,3.9c0,0.2,0.1,0.3,0.2,0.3c0.1,0,0.3,0,0.4,0
			c1.5,0,3,0,4.5,0.1c0.6,0,1.1,0.1,1.6,0.3c1.1,0.3,1.8,1,2.1,2.1c0.3,1.1,0.3,2.3,0.2,3.4c0,0.4-0.1,0.9-0.2,1.3c-0.3,1-1,1.7-2,2
			c-0.7,0.2-1.4,0.3-2.1,0.3c-1.4,0-2.9,0-4.3,0c-0.5,0-0.5,0-0.5,0.5C212.1,33.3,212.1,37.8,212.1,42.3z"/>
		<path class="st4" d="M191.9,39.3c0,5,0,10.1,0,15.1c0,0.9,0,1.8-0.2,2.6c-0.3,1.3-1,2.1-2.3,2.4c-0.5,0.1-1,0.2-1.5,0.2
			c-1.5,0.1-3,0.1-4.5-0.1c-0.3-0.1-0.6-0.2-0.9-0.3c-0.8-0.3-1.3-0.9-1.6-1.6c-0.3-0.7-0.4-1.5-0.4-2.3c0-0.4,0-0.8,0-1.2
			c0-9.8,0-19.7,0-29.5c0-1,0-1.9,0.2-2.8c0.3-1.4,1.1-2.3,2.5-2.6c0.5-0.1,1.1-0.2,1.6-0.2c1.4-0.1,2.8-0.1,4.1,0.1
			c0.3,0,0.5,0.1,0.8,0.2c1,0.3,1.6,1,1.9,1.9c0.3,1,0.3,2,0.3,3C191.9,29.2,191.9,34.3,191.9,39.3z"/>
		<circle class="st5" cx="186.7" cy="8.2" r="8.2"/>
		<circle class="st4" cx="186.7" cy="8.2" r="3.6"/>
	</g>
</g>
</svg>
