<?xml version="1.0" encoding="utf-8"?>
<!-- Generator: Adobe Illustrator 22.0.1, SVG Export Plug-In . SVG Version: 6.00 Build 0)  -->
<svg version="1.1" xmlns="http://www.w3.org/2000/svg" xmlns:xlink="http://www.w3.org/1999/xlink" x="0px" y="0px"
	 viewBox="0 0 186.4 57.9" style="enable-background:new 0 0 186.4 57.9;" xml:space="preserve">
<style type="text/css">
	.st0{fill:#014B8E;}
	.st1{fill:#F57D31;}
	.st2{fill-rule:evenodd;clip-rule:evenodd;fill:#2E3191;}
	.st3{fill-rule:evenodd;clip-rule:evenodd;fill:#EC1C24;}
	.st4{fill-rule:evenodd;clip-rule:evenodd;fill:#0A83BA;}
	.st5{fill-rule:evenodd;clip-rule:evenodd;fill:#BDCD0D;}
	.st6{fill-rule:evenodd;clip-rule:evenodd;fill:#304A9E;}
	.st7{fill-rule:evenodd;clip-rule:evenodd;fill:#00A551;}
</style>
<g id="GuÌas_para_la_mesa_de_trabajo">
</g>
<g id="Layer_1">
	<g>
		<path class="st2" d="M161.9,0c4.5,0,5.4,1.1,7,5.9l17.6,52h-15.6L167,45.4h-21.1l-3.8,12.5h-9L150.8,0L161.9,0L161.9,0z
			 M164.4,36.9h-15.9l7.9-26.4L164.4,36.9L164.4,36.9z"/>
		<path class="st2" d="M73.3,57.9H49V0h25.2c11.8,0,15.9,9.6,9.9,18.5l-2.8,4.2C101.1,33,94.6,57.9,73.3,57.9L73.3,57.9z M70.4,25.5
			l4.8-7.2c1.2-1.8,1.5-2.9,1.5-4.2c0-3.5-3.1-6.5-6.7-6.5h-7.4v42.6h4.1c6.9,0,12.1-3.7,12.1-12.4C78.8,30.5,75.4,26.7,70.4,25.5
			L70.4,25.5z"/>
		<path class="st2" d="M24.3,57.9H0V0h25.2C37,0,41.1,9.6,35.1,18.5l-2.8,4.2C52.1,33,45.7,57.9,24.3,57.9L24.3,57.9z M21.4,25.5
			l4.8-7.2c1.2-1.8,1.5-2.9,1.5-4.2c0-3.5-3.1-6.5-6.7-6.5h-7.4v42.6h4.1c6.9,0,12.1-3.7,12.1-12.4C29.8,30.5,26.5,26.7,21.4,25.5
			L21.4,25.5z"/>
		<path class="st2" d="M130.7,0h9.1l-17.6,57.9l-13.9,0L89.4,0l10.2,0c3.9,0,5,1,7,7.6l11,36.4L130.7,0L130.7,0z"/>
	</g>
</g>
</svg>
