<?xml version="1.0" encoding="utf-8"?>
<!-- Generator: Adobe Illustrator 22.0.1, SVG Export Plug-In . SVG Version: 6.00 Build 0)  -->
<svg version="1.1" xmlns="http://www.w3.org/2000/svg" xmlns:xlink="http://www.w3.org/1999/xlink" x="0px" y="0px"
	 viewBox="0 0 230.2 58.9" style="enable-background:new 0 0 230.2 58.9;" xml:space="preserve">
<style type="text/css">
	.st0{fill:#014B8E;}
	.st1{fill:#F57D31;}
	.st2{fill-rule:evenodd;clip-rule:evenodd;fill:#2E3191;}
	.st3{fill-rule:evenodd;clip-rule:evenodd;fill:#EC1C24;}
	.st4{fill-rule:evenodd;clip-rule:evenodd;fill:#0A83BA;}
	.st5{fill-rule:evenodd;clip-rule:evenodd;fill:#BDCD0D;}
	.st6{fill-rule:evenodd;clip-rule:evenodd;fill:#304A9E;}
	.st7{fill-rule:evenodd;clip-rule:evenodd;fill:#00A551;}
</style>
<g id="GuÌas_para_la_mesa_de_trabajo">
</g>
<g id="Layer_1">
	<g>
		<path class="st0" d="M108.2,6.1c7.2-5.8,18-7.5,27.3-5c3.5,0.9,7.4,2.5,8.2,5.9c0.1,2.8-1.2,5.5-1.8,8.2
			c-4.4-3.5-10.8-4.7-16.6-3.9c-6.3,1.1-10.7,5.8-13,10.7c-2.7,5.8-3.9,12.4-1.5,18.5c1.3,3.2,4.2,6,8,7c6,1.6,12.5-0.4,17-4
			c-0.9,3.5-1.3,7.1-2.5,10.6c-1.1,2.9-4.8,3.9-7.9,4.4c-8.2,1.3-17.6-0.2-23.4-5.7c-5.7-5.4-7-13-6.7-20
			C95.9,23,99.7,12.8,108.2,6.1z"/>
		<g>
			<path class="st0" d="M53.6,2.3c6-1,12.1-1.5,18.3-1.4c5.6,0.3,11.6,1.3,15.8,4.9c4.9,4.1,5.1,11.4,1.1,16.1
				c-2.4,2.8-6,4.9-9.9,5.7c3.1,1.1,6.2,2.7,7.7,5.5c3.6,6.4,1.7,14.8-4.5,19.6c-4.9,3.9-11.6,5.3-18,5.7c-4.8,0.2-9.7,0-14.3-1.3
				c-2.4-0.6-4.4-2.4-5.2-4.5c-1.2-3.1-0.7-6.4,0-9.5C47.6,29.4,50.5,15.8,53.6,2.3z M64.9,10.6c-0.8,3.9-1.8,7.8-2.5,11.7
				c-0.2,1.1,1.3,1.6,2.3,1.4c4.1,0.1,8.7-0.3,11.7-3c2.7-2.5,3.1-7.5-0.7-9.3C72.4,9.8,68.4,10.5,64.9,10.6z M60.1,32.5
				c-1.1,3.7-1.7,7.5-2.6,11.3c-0.3,1.6-1.2,3.4,0.2,4.8c4.3,0,9,0.3,12.8-1.9c4.5-2.3,6-8.5,2.3-11.9C69.3,32,64.4,32.7,60.1,32.5z
				"/>
		</g>
		<g>
			<path class="st0" d="M152.7,2.6c4.2-1.2,8.8-1.3,13.2-1.4c6.1-0.1,12.6,0.1,17.9,2.9c4.1,2,6.6,6,7.1,10
				c1.4,8.9-3.7,18.5-12.9,22.8c-6.1,3-13.3,3.2-20.1,2.8c-1.1,4.4-1.9,8.9-3,13.3c-0.6,2.3-2.3,4.6-5.1,5.3c-3.1,0.3-6.3,0-9.4,0.1
				C144.7,39.8,148.5,21.1,152.7,2.6z M165,11c-1.2,5.4-2.4,10.8-3.5,16.1c-0.4,1.1,0.5,2.1,1.6,2.6c3.3,0.5,6.8,0,9.8-1.4
				c5.5-2.8,7.8-9.4,5.3-14.4C175.5,10,169.4,10.7,165,11z"/>
		</g>
		<path class="st0" d="M197.2,15c1.9-4,4.5-8.2,9.3-9.9c2.4-0.8,4.9,0.3,6.4,2c2.8,6.2,2.2,13.1-0.1,19.3
			C208.5,21.7,203.2,17.8,197.2,15z"/>
		<path class="st1" d="M212.8,7.1c5.4,2.4,9.3,6.9,13,11c2.8,3.1,4.7,7.1,4.3,11.1c-0.3,3.4-2.4,6.5-4.7,9.2
			c-4.7,5.3-10.4,9.9-16.7,13.7c-2.6,1.5-5.7,2.8-8.8,1.9c-4.2-0.9-7-4.3-8.8-7.7c9.2-4.5,17.8-11,21.6-20
			C215,20.2,215.7,13.3,212.8,7.1z"/>
		<path class="st0" d="M6,15c1.9-4,4.5-8.2,9.3-9.9c2.4-0.8,4.9,0.3,6.4,2c2.8,6.2,2.2,13.1-0.1,19.3C17.3,21.7,12,17.8,6,15z"/>
		<path class="st1" d="M21.7,7.1c5.4,2.4,9.3,6.9,13,11c2.8,3.1,4.7,7.1,4.3,11.1c-0.3,3.4-2.4,6.5-4.7,9.2
			c-4.7,5.3-10.4,9.9-16.7,13.7c-2.6,1.5-5.7,2.8-8.8,1.9c-4.2-0.9-7-4.3-8.8-7.7c9.2-4.5,17.8-11,21.6-20
			C23.8,20.2,24.5,13.3,21.7,7.1z"/>
	</g>
</g>
</svg>
