<svg xmlns="http://www.w3.org/2000/svg" width="16.461" height="16.462" viewBox="0 0 16.461 16.462">
  <g id="Group_1666" data-name="Group 1666" transform="translate(-0.001 0)">
    <g id="Group_1665" data-name="Group 1665" transform="translate(0 0)">
      <g id="Group_1664" data-name="Group 1664">
        <path id="Path_2929" data-name="Path 2929" d="M15.358,4.1a8.2,8.2,0,0,0-3-3A8.051,8.051,0,0,0,8.231,0,8.051,8.051,0,0,0,4.1,1.1a8.194,8.194,0,0,0-3,3A8.051,8.051,0,0,0,0,8.231a8.053,8.053,0,0,0,1.1,4.132,8.2,8.2,0,0,0,3,3,8.052,8.052,0,0,0,4.132,1.1,8.052,8.052,0,0,0,4.132-1.1,8.194,8.194,0,0,0,3-3,8.053,8.053,0,0,0,1.1-4.132A8.053,8.053,0,0,0,15.358,4.1Zm-2.079,7.057a5.812,5.812,0,0,1-2.122,2.122,5.7,5.7,0,0,1-2.926.782,5.7,5.7,0,0,1-2.926-.782,5.813,5.813,0,0,1-2.122-2.122A5.7,5.7,0,0,1,2.4,8.231a5.7,5.7,0,0,1,.782-2.926A5.812,5.812,0,0,1,5.305,3.183,5.7,5.7,0,0,1,8.231,2.4a5.7,5.7,0,0,1,2.926.782,5.812,5.812,0,0,1,2.122,2.122,5.7,5.7,0,0,1,.782,2.926A5.7,5.7,0,0,1,13.279,11.157Z" transform="translate(0)" fill="#0fa3f4"/>
        <path id="Path_2930" data-name="Path 2930" d="M174.445,128h-.686a.33.33,0,0,0-.343.343v3.773h-2.4a.33.33,0,0,0-.343.343v.686a.33.33,0,0,0,.343.343h3.43a.33.33,0,0,0,.343-.343v-4.8a.33.33,0,0,0-.343-.343Z" transform="translate(-165.186 -123.882)" fill="#0fa3f4"/>
      </g>
    </g>
  </g>
</svg>
