<svg xmlns="http://www.w3.org/2000/svg" xmlns:xlink="http://www.w3.org/1999/xlink" width="20" height="20.02" viewBox="0 0 20 20.02">
  <defs>
    <clipPath id="clip-path">
      <rect id="Rectangle_696" data-name="Rectangle 696" width="20" height="20.02" fill="#969696"/>
    </clipPath>
  </defs>
  <g id="Group_1441" data-name="Group 1441" transform="translate(-532 -405)">
    <g id="Group_1440" data-name="Group 1440" transform="translate(532 405)">
      <g id="Group_1439" data-name="Group 1439" transform="translate(0 0)" clip-path="url(#clip-path)">
        <path id="Path_2667" data-name="Path 2667" d="M551.867,413.858a.649.649,0,0,0-.641-.491,2.2,2.2,0,0,1-1.506-3.829.554.554,0,0,0,.061-.752,9.857,9.857,0,0,0-1.579-1.594.555.555,0,0,0-.758.061,2.3,2.3,0,0,1-2.485.558,2.213,2.213,0,0,1-1.346-2.163.553.553,0,0,0-.489-.582,9.944,9.944,0,0,0-2.242-.006.555.555,0,0,0-.493.57,2.218,2.218,0,0,1-1.365,2.126,2.3,2.3,0,0,1-2.467-.562.555.555,0,0,0-.752-.063,9.9,9.9,0,0,0-1.612,1.594.554.554,0,0,0,.059.757,2.208,2.208,0,0,1,.557,2.487,2.3,2.3,0,0,1-2.168,1.347.542.542,0,0,0-.576.49,9.978,9.978,0,0,0,0,2.266.66.66,0,0,0,.654.49,2.186,2.186,0,0,1,2.051,1.365,2.216,2.216,0,0,1-.557,2.464.553.553,0,0,0-.06.751,9.887,9.887,0,0,0,1.576,1.6.554.554,0,0,0,.758-.06,2.294,2.294,0,0,1,2.484-.559,2.21,2.21,0,0,1,1.348,2.163.553.553,0,0,0,.489.582,9.931,9.931,0,0,0,2.242.006.555.555,0,0,0,.493-.571,2.215,2.215,0,0,1,1.364-2.125,2.3,2.3,0,0,1,2.468.561.557.557,0,0,0,.752.063,9.93,9.93,0,0,0,1.612-1.594.554.554,0,0,0-.059-.758,2.208,2.208,0,0,1-.558-2.486,2.231,2.231,0,0,1,2.039-1.351l.123,0a.555.555,0,0,0,.583-.489,9.938,9.938,0,0,0,0-2.266Zm-9.887,5.561a4.434,4.434,0,1,1,4.434-4.434,4.438,4.438,0,0,1-4.434,4.434Zm0-1.11" transform="translate(-531.999 -404.999)" fill="#969696" fill-rule="evenodd"/>
      </g>
    </g>
  </g>
</svg>
