<svg xmlns="http://www.w3.org/2000/svg" width="25" height="25" viewBox="0 0 25 25">
  <g id="Grupo_2249" data-name="Grupo 2249" transform="translate(347.194 1494.992)">
    <path id="Trazado_3466" data-name="Trazado 3466" d="M-146.526-1460.77l-1.793-6.887-.242,7.575a1.788,1.788,0,0,1-.54,1.214l-.032.033-11.954,11.934,4.725,2.572a.966.966,0,0,0,1.317-.357l8.4-15.386c0-.009.009-.019.013-.028A.874.874,0,0,0-146.526-1460.77Z" transform="translate(-175.695 -25.787)" fill="#87e400"/>
    <path id="Trazado_3467" data-name="Trazado 3467" d="M-325.465-1485.266l.021-.023a.877.877,0,0,0,.285-.613l.263-8.3a.759.759,0,0,0-.792-.795l-8.263.264a.87.87,0,0,0-.61.286l-.023.021-12.342,12.391a.967.967,0,0,0,.028,1.362l7.734,7.765a.958.958,0,0,0,1.357.028Zm-2.934-7.631a1.418,1.418,0,0,1,1.416,1.421,1.418,1.418,0,0,1-1.416,1.421,1.418,1.418,0,0,1-1.416-1.421A1.418,1.418,0,0,1-328.4-1492.9Z" transform="translate(0 0)" fill="#87e400"/>
  </g>
</svg>
