<svg xmlns="http://www.w3.org/2000/svg" width="18" height="17.974" viewBox="0 0 18 17.974">
  <g id="Grupo_8430" data-name="Grupo 8430" transform="translate(623 138.709)">
    <path id="Trazado_9859" data-name="Trazado 9859" d="M-605.077-138.211a.764.764,0,0,0-.754-.5h-16.34a.763.763,0,0,0-.753.5.737.737,0,0,0,.179.894l6.293,6.293v6.2a.786.786,0,0,0,.242.575l3.268,3.268a.76.76,0,0,0,.575.243.888.888,0,0,0,.319-.064.763.763,0,0,0,.5-.753v-9.472l6.293-6.293A.737.737,0,0,0-605.077-138.211Z" transform="translate(0 0)" fill="#1178f2"/>
  </g>
</svg>
