<?xml version="1.0" encoding="utf-8"?>
<!-- Generator: Adobe Illustrator 22.0.1, SVG Export Plug-In . SVG Version: 6.00 Build 0)  -->
<svg version="1.1" xmlns="http://www.w3.org/2000/svg" xmlns:xlink="http://www.w3.org/1999/xlink" x="0px" y="0px"
	 viewBox="0 0 333.2 58.4" style="enable-background:new 0 0 333.2 58.4;" xml:space="preserve">
<style type="text/css">
	.st0{fill:#014B8E;}
	.st1{fill:#F57D31;}
	.st2{fill-rule:evenodd;clip-rule:evenodd;fill:#2E3191;}
	.st3{fill-rule:evenodd;clip-rule:evenodd;fill:#EC1C24;}
	.st4{fill-rule:evenodd;clip-rule:evenodd;fill:#0A83BA;}
	.st5{fill-rule:evenodd;clip-rule:evenodd;fill:#BDCD0D;}
	.st6{fill-rule:evenodd;clip-rule:evenodd;fill:#304A9E;}
	.st7{fill-rule:evenodd;clip-rule:evenodd;fill:#00A551;}
</style>
<g id="GuÌas_para_la_mesa_de_trabajo">
</g>
<g id="Layer_1">
	<g>
		<path class="st6" d="M0,58.4h51.7c4,0,7.3-3.3,7.3-7.3V0H7.3C3.3,0,0,3.3,0,7.3V58.4L0,58.4z M13.9,49.1l30.7-5.4V11.7L13.9,17
			V49.1L13.9,49.1z"/>
		<path class="st7" d="M214.9,23.7c4.9,0,8.8,4.3,8.8,11c0,6.7-3.9,11.2-8.8,11.2c-2.6,0-4.9-1.1-6.5-3.2c-1.6-2.1-2.1-4.4-2.1-7.1
			c0-3.2,0.2-5.8,1.6-8C209.7,25.1,212.2,23.7,214.9,23.7L214.9,23.7z M206.6,8.2l-0.1,14.2c4.1-4.2,8.7-5.2,14.4-3.6
			c6.4,1.8,10.1,7.8,10.2,16.1c0.2,10.6-7.2,17.2-15.9,17.3c-9.6,0.1-16.2-6.6-16.1-16.4V8.2H206.6L206.6,8.2z M192.6,16.9h2.2v7.6
			h-2.2l0,0v0c-1.6,0-3.1,0.7-4.3,1.8c-1.1,1.1-1.8,2.6-1.8,4.3h0l0,0v20.9H179V30.6l0,0h0c0-3.8,1.5-7.2,4-9.6
			C185.5,18.5,188.8,17,192.6,16.9L192.6,16.9L192.6,16.9L192.6,16.9z M162.9,38.5h-11c0.1,0.4,0.2,0.8,0.4,1.1
			c1.3,3.4,4.2,5.2,7.6,5.8l0,0h0c0.4,0.1,0.9,0.1,1.4,0.2c0.4,0,0.9,0.1,1.4,0.1l0,0c3.6,0.1,6.4-1.1,8.1-2c0.2,1.5,0.1,4-0.1,5
			c-0.6,3.2-6.4,3.4-8.5,3.4v0c-0.7,0-1.3,0-2-0.1c-0.7,0-1.3-0.1-2-0.3l0,0c-8.8-1.6-13.6-9.2-13.2-17.6v0V34l0,0
			c0.2-7.1,4.2-13.4,11-15.5h0l0.1,0l0,0c5.5-1.6,10.5-0.1,13.9,2.8c0.6,0.6,1.2,1.2,1.8,1.9c0.5,0.7,1,1.4,1.4,2.2l0,0.1l0,0l0,0
			c0.8,1.6,1.1,3.1,1.1,4.5c0,1.7-0.6,3.2-1.5,4.5c-0.9,1.1-2,2-3.3,2.6v0C167.5,38,165.1,38.5,162.9,38.5L162.9,38.5z M151.7,32.7
			h11.4c2.5,0,5.5-1.3,4-4.7l0-0.1l0,0l0,0c-0.2-0.4-0.4-0.7-0.6-1.1c-0.2-0.4-0.6-0.8-0.9-1.1c-1.9-1.9-4.7-2.9-7.7-1.9v0l-0.1,0
			l0,0c-0.5,0.2-1,0.4-1.5,0.6c-0.4,0.2-0.9,0.5-1.3,0.9C153.5,26.8,152.3,29.5,151.7,32.7L151.7,32.7z M132,8.5v8.9h12.4l-0.3,2.8
			c-0.3,2.5-1.7,3.2-4.6,3.3H132v16.1l0,0c0,0.5,0,1.6,0.1,2c0.5,2.5,1.9,3.2,4.3,3.4c2.3,0.3,6.1-0.1,7.8-0.9
			c0.3,2.8-0.1,6.4-1.7,7c-1.5,0.6-4.7,0.8-6.8,0.8c-1,0-2.1-0.1-3.1-0.3c-1.8-0.3-4.4-1.7-5.6-3c-2.3-2.7-2.5-5.7-2.6-8.8l0-0.2
			V8.5H132L132,8.5z M102.3,16.9h2.7l0,0v0c3.8,0,7.2,1.5,9.6,3.9c2.5,2.5,4,5.9,4,9.6l0,0l0,0v20.9H111V30.6l0,0h0
			c0-1.7-0.7-3.2-1.8-4.3c-1.1-1.1-2.7-1.8-4.3-1.8v0l0,0h-2.7l0,0v0c-1.6,0-3.1,0.7-4.3,1.8c-1.1,1.1-1.8,2.6-1.8,4.3h0l0,0v20.9
			h-7.6V30.6l0,0l0,0c0-3.8,1.5-7.2,4-9.6C95.2,18.5,98.5,17,102.3,16.9L102.3,16.9L102.3,16.9L102.3,16.9z M74.3,7.8h7.7v43.6h-7.7
			V7.8L74.3,7.8z M280.2,16.9h2.7h0v0c3.7,0,7.1,1.5,9.6,3.9c2.4,2.5,4,5.9,4,9.6h0l0,0v20.9h-7.6V30.6l0,0h0c0-1.7-0.7-3.2-1.8-4.3
			c-1.1-1.1-2.6-1.8-4.3-1.8v0h0h-2.7h0v0c-1.7,0-3.2,0.7-4.2,1.8c-1.1,1.1-1.8,2.6-1.8,4.3h0l0,0v20.9h-7.6V30.6l0,0h0
			c0-3.8,1.6-7.2,4-9.6C273,18.5,276.4,17,280.2,16.9L280.2,16.9L280.2,16.9L280.2,16.9z M302.7,7.8h7.7v43.6h-7.7V7.8L302.7,7.8z
			 M331.6,18.6H324l-13.7,15.5l15.3,17.3h7.6l-15.3-17.3L331.6,18.6L331.6,18.6z M254.8,36.5v-0.2c-1.8,0.2-3.5,0.1-5,0.1
			c-2.9,0-4.6,0.3-6.2,1c-1.6,0.7-2.4,2.1-2.6,3.4l0,0v0.2l0,0c-0.2,2.7,1.2,4.7,3.6,5.1h0.1v0c2.9,0.4,5.2-0.1,6.9-0.9
			c1.4-0.6,2.3-2.2,2.8-4.2C254.8,39.9,254.8,38,254.8,36.5L254.8,36.5z M245.5,17.3c3.8-0.3,8.3,0,11.4,2.4c1.2,0.9,2.3,2,3.1,3.7
			c0.9,1.7,0.9,3.9,1.1,5.8v10.1c0,5-1.6,9.4-6.7,11.7c-1.6,0.7-3.5,1.1-5.6,1.2c-8.6,0.2-15-4.1-14.4-12c0.4-5.7,5.3-8.1,10.9-8.5
			c2.7-0.2,7.4,0.4,9.1,0c0.1-1.7-0.3-4-0.8-5.2c-0.5-1-1.3-2.2-2.6-2.6c-1.7-0.7-4.2-0.8-6.2-0.7c-2.6,0.2-4.6,0.6-7.5,2.3l0-2.9
			c0-0.9,0.1-2,0.6-2.7C239.1,18,243.1,17.5,245.5,17.3L245.5,17.3z"/>
	</g>
</g>
</svg>
