<svg xmlns="http://www.w3.org/2000/svg" width="30" height="18" viewBox="0 0 30 18">
  <g id="Grupo_2286" data-name="Grupo 2286" transform="translate(-534 -296)">
    <path id="Trazado_2690" data-name="Trazado 2690" d="M3764.623,169H3737.7a1.531,1.531,0,0,0-1.536,1.525v14.95A1.531,1.531,0,0,0,3737.7,187h26.927a1.532,1.532,0,0,0,1.537-1.525v-14.95a1.532,1.532,0,0,0-1.537-1.525Z" transform="translate(-3202.16 127)" fill="#fff"/>
    <g id="Grupo_2285" data-name="Grupo 2285" transform="translate(-3241.16 127)">
      <path id="Trazado_2692" data-name="Trazado 2692" d="M3794.057,172.013a6.038,6.038,0,0,0-3.282.969,6.746,6.746,0,0,1,0,10.037,6,6,0,1,0,3.282-11.006Z" fill="#f79e1f"/>
      <path id="Trazado_2693" data-name="Trazado 2693" d="M3790.1,173.488A5.936,5.936,0,1,0,3792.18,178,5.955,5.955,0,0,0,3790.1,173.488Z" fill="#f26122"/>
      <path id="Trazado_2694" data-name="Trazado 2694" d="M3789.427,172.982a5.989,5.989,0,1,0,0,10.037,6.748,6.748,0,0,1,0-10.037Z" fill="#eb1d24"/>
    </g>
  </g>
</svg>
