<svg xmlns="http://www.w3.org/2000/svg" width="24" height="21" viewBox="0 0 24 21">
  <g id="Group_1736" data-name="Group 1736" transform="translate(-263.994 -305.174)">
    <g id="Path_2901" data-name="Path 2901" transform="translate(0 0)" fill="none">
      <path d="M288,311.554a6.264,6.264,0,0,0-12-2.63,6.263,6.263,0,0,0-12,2.63,6.412,6.412,0,0,0,1.522,4.157,6.3,6.3,0,0,0,.7.708l9.579,9.665a.3.3,0,0,0,.213.09.3.3,0,0,0,.215-.09l9.935-10.027h0a6.4,6.4,0,0,0,1.836-4.5Z" stroke="none"/>
      <path d="M 270.275390625 306.1740417480469 C 267.3638000488281 306.1740417480469 264.9950256347656 308.5875854492188 264.9950256347656 311.5542297363281 C 264.9950256347656 312.1674499511719 265.0962219238281 312.7691955566406 265.2958068847656 313.3428039550781 C 265.515625 313.9748229980469 265.8464965820313 314.5538635253906 266.2801208496094 315.06494140625 C 266.4617614746094 315.2796936035156 266.6603088378906 315.4801025390625 266.8701782226563 315.6606750488281 L 266.9002990722656 315.6865844726563 L 266.9282836914063 315.7148132324219 L 276.0107421875 324.8795166015625 L 285.2138366699219 315.5911865234375 L 285.4451904296875 315.3556213378906 C 285.9927368164063 314.798095703125 286.4202575683594 314.1155090332031 286.6813659667969 313.3822326660156 C 286.8894958496094 312.7966918945313 286.9950256347656 312.1816711425781 286.9950256347656 311.5542297363281 C 286.9950256347656 308.5875854492188 284.6266174316406 306.1740417480469 281.7154235839844 306.1740417480469 C 279.6528015136719 306.1740417480469 277.7655639648438 307.4138793945313 276.9074096679688 309.3326721191406 L 275.9940795898438 311.3748168945313 L 275.0815124511719 309.3323364257813 C 274.2243041992188 307.4137573242188 272.3377990722656 306.1740417480469 270.275390625 306.1740417480469 M 270.275390625 305.1740417480469 C 272.8152160644531 305.1740417480469 275.0074157714844 306.7150573730469 275.9945373535156 308.9244079589844 C 276.9826354980469 306.7150573730469 279.1743469238281 305.1740417480469 281.7154235839844 305.1740417480469 C 285.1776123046875 305.1740417480469 287.9950256347656 308.036376953125 287.9950256347656 311.5542297363281 C 287.9950256347656 312.3130798339844 287.8637390136719 313.0415954589844 287.6235961914063 313.7171630859375 C 287.3074035644531 314.6051635742188 286.802490234375 315.4007263183594 286.1586608886719 316.0563049316406 L 286.1593933105469 316.0576477050781 L 276.2248840332031 326.0841674804688 C 276.1654663085938 326.1442260742188 276.0881652832031 326.1740417480469 276.0099487304688 326.1740417480469 C 275.9324645996094 326.1740417480469 275.8556823730469 326.1442260742188 275.7967224121094 326.0841674804688 L 266.2179870605469 316.4187316894531 C 265.9656066894531 316.2015991210938 265.7319030761719 315.9652404785156 265.5166625976563 315.7108154296875 C 265.0119934082031 315.1159973144531 264.6139221191406 314.4263610839844 264.351318359375 313.6713256835938 C 264.1204833984375 313.0079650878906 263.9950256347656 312.2962646484375 263.9950256347656 311.5542297363281 C 263.9950256347656 308.036376953125 266.8117370605469 305.1740417480469 270.275390625 305.1740417480469 Z" stroke="none" fill="#f7215e"/>
    </g>
  </g>
</svg>
