<svg xmlns="http://www.w3.org/2000/svg" width="19.999" height="20.707" viewBox="0 0 19.999 20.707">
  <g id="Grupo_4557" data-name="Grupo 4557" transform="translate(-8720.404 -7074.224)">
    <path id="Trazado_8773" data-name="Trazado 8773" d="M8729.431,7109.645a4.681,4.681,0,1,0-3.792,0c-2.219.707-5.234,2.4-5.234,5.02,0,2.813,6.009,2.8,7.13,2.8s7.131.011,7.131-2.8C8734.665,7112.041,8731.648,7110.352,8729.431,7109.645Z" transform="translate(0 -22.534)" fill="#969696"/>
    <g id="Grupo_4556" data-name="Grupo 4556" transform="translate(8728.227 7074.224)">
      <path id="Trazado_8774" data-name="Trazado 8774" d="M8781.314,7092.04a.667.667,0,0,1-.126-1.321c1.285-.249,2.816-.771,2.816-1.845,0-2.111-2.569-3.682-4.77-4.385a.667.667,0,0,1-.068-1.245,4.014,4.014,0,1,0-4.81-6.116.666.666,0,1,1-1.056-.812,5.348,5.348,0,1,1,7.633,7.393c2.31,1.02,4.405,2.779,4.405,5.166,0,1.1-.677,2.532-3.9,3.153A.629.629,0,0,1,8781.314,7092.04Z" transform="translate(-8773.163 -7074.225)" fill="#969696"/>
    </g>
  </g>
</svg>
