<?xml version="1.0" encoding="utf-8"?>
<!-- Generator: Adobe Illustrator 22.0.1, SVG Export Plug-In . SVG Version: 6.00 Build 0)  -->
<svg version="1.1" xmlns="http://www.w3.org/2000/svg" xmlns:xlink="http://www.w3.org/1999/xlink" x="0px" y="0px"
	 viewBox="0 0 357.5 63.8" style="enable-background:new 0 0 357.5 63.8;" xml:space="preserve">
<style type="text/css">
	.st0{fill:#014B8E;}
	.st1{fill:#F57D31;}
	.st2{fill-rule:evenodd;clip-rule:evenodd;fill:#2E3191;}
	.st3{fill-rule:evenodd;clip-rule:evenodd;fill:#EC1C24;}
	.st4{fill-rule:evenodd;clip-rule:evenodd;fill:#0A83BA;}
	.st5{fill-rule:evenodd;clip-rule:evenodd;fill:#BDCD0D;}
	.st6{fill-rule:evenodd;clip-rule:evenodd;fill:#304A9E;}
	.st7{fill-rule:evenodd;clip-rule:evenodd;fill:#00A551;}
</style>
<g id="GuÌas_para_la_mesa_de_trabajo">
</g>
<g id="Layer_1">
	<g>
		<path class="st3" d="M12.8,31.7c-2-3.2-2.5-7.6-2.5-10.9C10.3,9.5,20.4,0,30.9,0h32.9L51,12.9H30.7C22.5,12.9,12.6,21.2,12.8,31.7
			L12.8,31.7z M25.3,22.5c0.8-2.7,3.5-6.2,6-8c-4.8,0-10.1,2.3-14.2,8H25.3L25.3,22.5z M31.9,16.1c-1.9,1.6-3.9,4.1-5,6.4h9.9
			C35.8,20.2,33.8,17.7,31.9,16.1L31.9,16.1z M16.3,24.1c-1.2,2.2-1.8,4.7-2,7.2h9.2c0-2.5,0.4-5,1.3-7.2H16.3L16.3,24.1z
			 M26.3,24.1c-0.8,2.2-1.2,4.7-1.4,7.2h14c-0.2-2.5-0.6-5-1.4-7.2H26.3L26.3,24.1z M46.5,22.5c-3.9-5.7-9.3-8-14-8
			c2.4,1.8,4.9,5.3,6,8H46.5L46.5,22.5z M39.1,24.1c0.8,2.2,1.2,4.7,1.2,7.2h9.2c-0.2-2.5-0.8-5-2-7.2H39.1L39.1,24.1z M17.1,41.4
			c4.1,6,9.5,8,14.2,8c-2.5-1.9-5.1-5.4-6-8H17.1L17.1,41.4z M31.9,48c1.8-1.6,3.9-4.3,4.9-6.6H27C28,43.7,30.1,46.3,31.9,48
			L31.9,48z M24.7,40c-0.8-2.5-1.3-4.9-1.3-7.2h-9.2c0.2,2.4,0.8,4.9,2,7.2H24.7L24.7,40z M37.5,40c0.8-2.3,1.2-4.8,1.4-7.2h-14
			c0.2,2.4,0.6,4.9,1.4,7.2H37.5L37.5,40z M38.5,41.4c-1,2.7-3.5,6.1-6,8c4.7,0,10.1-2,14-8H38.5L38.5,41.4z M47.5,40
			c1.3-2.3,1.9-4.8,2-7.2h-9.2c0,2.2-0.4,4.7-1.2,7.2H47.5L47.5,40z M51,31.9c0.2,10.9-9.6,19.2-17.9,19.2H12.8L0,63.8h32.9
			c10.5,0,20.6-9.5,20.6-20.8c0-3.3-0.4-7.6-2.5-10.9V31.9L51,31.9z"/>
		<path class="st3" d="M147.3,49.4c-8.6,0-14.7-5.1-14.7-13.2c0-7.9,6.3-13.2,14.7-13.2c8.3,0,14.7,5.2,14.7,13.2
			C162,44.3,155.8,49.4,147.3,49.4L147.3,49.4z M293.6,23.6v25.3h-8.5l-0.1-2.5h-0.2c-0.9,0.9-2.9,3.1-8.4,3.1
			c-6.1,0-11.5-5.3-11.5-13.2c0-7.3,4.7-13.2,12-13.2c4.9,0,7,2.2,7.7,2.9h0.2l0.1-2.3H293.6L293.6,23.6z M227.7,23.6v25.3h-8.5
			l-0.1-2.5h-0.2c-0.9,0.9-2.9,3.1-8.4,3.1c-6.1,0-11.5-5.3-11.5-13.2c0-7.3,4.7-13.2,12-13.2c4.9,0,7,2.2,7.7,2.9h0.2l0.1-2.3
			H227.7L227.7,23.6z M186.3,23.6h8.8v25.3h-8.8V23.6L186.3,23.6z M233.4,48.9V13.2h8.8v12.2h0.1c0.6-0.4,3.5-2.4,7.6-2.4
			c6.8,0,11.9,5.5,11.9,12.8c0,9.1-5.6,13.6-11.9,13.6c-4.8,0-7.2-2.2-7.8-2.9h-0.1l-0.1,2.3H233.4L233.4,48.9z M147.3,43.1
			c3.6,0,5.7-3.1,5.7-6.9c0-3.8-2-6.9-5.7-6.9c-3.8,0-5.7,3.1-5.7,6.9C141.6,39.9,143.8,43.1,147.3,43.1L147.3,43.1z M182,42
			c-0.4,0.1-1.6,0.4-2.4,0.4c-1.8,0-3.7-0.8-3.7-3.9V30h5.5v-6.4h-5.5v-8.1h-8.8v8.1h-3.8V30h3.8v10c0,5.5,2.6,9.4,9.1,9.4
			c1.9,0,3.6-0.3,4.8-0.5L182,42L182,42z M82.1,47.9c2.5,0.7,6.2,1.4,10.2,1.4c7.5,0,15-2.7,15-10.9c0-11.3-15.6-9.7-15.6-14.2
			c0-2.3,2.4-2.8,4.7-2.8c3.3,0,7.4,1.6,8.3,1.9l0.7-7.8c-2.3-0.8-5.7-1.2-9-1.2c-7.4,0-14.7,2.9-14.7,10.2
			c0,11.1,15.5,8.8,15.5,14.6c0,2.2-2.2,3.1-5.1,3.1c-3.9,0-7.6-2-9.2-2.7L82.1,47.9L82.1,47.9z M274.2,36c0,4.2,2.3,6.8,5.4,6.8
			c2.7,0,5.4-2.6,5.4-6.4c0-3.9-2.4-6.6-5.4-6.6C276.4,29.7,274.2,32.5,274.2,36L274.2,36z M208.3,36c0,4.2,2.3,6.8,5.4,6.8
			c2.7,0,5.4-2.6,5.4-6.4c0-3.9-2.4-6.6-5.4-6.6C210.5,29.7,208.3,32.5,208.3,36L208.3,36z M130.4,24c-0.7-0.2-3.1-1-6.3-1
			c-7.9,0-13.9,5-13.9,13.2c0,7.5,5.3,13.2,13.5,13.2c3.5,0,6-0.9,6.6-1.1l-0.4-7.4c-0.7,0.3-2.4,1.3-4.5,1.3c-3.5,0-6.1-2.5-6.1-6
			c0-3.7,2.8-6.1,6.2-6.1c2,0,3.7,0.9,4.3,1.2L130.4,24L130.4,24z M331.1,48.9h8.8V37.2h0.1l7.8,11.7h9.8l-9.4-13.4l9.2-11.8h-9.7
			l-7.6,10.4h-0.1V13.3h-8.8V48.9L331.1,48.9z M299.3,48.9h8.6V35.8c0-3.1,2-5.2,4.6-5.2c3,0,4.6,1.9,4.6,5.2v13.1h8.6V33.7
			c0-5.7-3.7-10.6-10.5-10.6c-4.5,0-6.9,2.5-7.9,3.4h-0.2l-0.1-2.8h-7.7V48.9L299.3,48.9z M190.7,10.8c-2.7,0-4.9,2.2-4.9,4.9
			c0,2.7,2.2,4.9,4.9,4.9c2.7,0,4.9-2.2,4.9-4.9C195.6,13.1,193.4,10.8,190.7,10.8L190.7,10.8z M252.7,36.2c0-3.4-1.9-6.4-5.3-6.4
			c-3,0-5.3,2.5-5.3,6.4c0,3.7,1.9,6.4,5.3,6.4C250.4,42.6,252.7,40.1,252.7,36.2L252.7,36.2z"/>
	</g>
</g>
</svg>
