<svg xmlns="http://www.w3.org/2000/svg" width="30" height="18" viewBox="0 0 30 18">
  <g id="Grupo_1450" data-name="Grupo 1450" transform="translate(-3736.16 -169)">
    <path id="Trazado_2690" data-name="Trazado 2690" d="M3764.623,169H3737.7a1.531,1.531,0,0,0-1.536,1.525v14.95A1.531,1.531,0,0,0,3737.7,187h26.927a1.532,1.532,0,0,0,1.537-1.525v-14.95a1.532,1.532,0,0,0-1.537-1.525Z" fill="#fff"/>
    <g id="Grupo_2284" data-name="Grupo 2284">
      <path id="Trazado_2686" data-name="Trazado 2686" d="M3761.834,181.423h-1.642c-.072-.338-.142-.67-.213-1.008-.041,0-.076-.008-.113-.008q-1.031,0-2.06,0a.141.141,0,0,0-.158.112c-.093.276-.194.55-.3.821a.153.153,0,0,1-.1.087c-.592.006-1.185.006-1.794.006.021-.055.035-.1.054-.141q1.3-3.083,2.6-6.161a.813.813,0,0,1,.809-.536c.458,0,.916,0,1.373,0,.093,0,.12.032.14.12q.688,3.292,1.385,6.585C3761.822,181.332,3761.827,181.372,3761.834,181.423ZM3759.68,179c-.177-.846-.352-1.68-.528-2.514l-.028,0c-.3.832-.61,1.666-.917,2.511Z" fill="#1a1f71" fill-rule="evenodd"/>
      <path id="Trazado_2687" data-name="Trazado 2687" d="M3739.776,174.784c.014-.067.026-.122.04-.186.04,0,.081-.006.12-.006h2.868a.831.831,0,0,1,.872.724q.356,1.886.713,3.77c.007.038.019.075.039.146.069-.171.126-.312.181-.454q.813-2.037,1.623-4.074a.149.149,0,0,1,.168-.114c.538.005,1.077,0,1.618,0h.129c-.023.057-.039.1-.057.144q-1.392,3.3-2.783,6.6a.137.137,0,0,1-.153.1q-.832-.008-1.666,0c-.086,0-.119-.02-.14-.107-.466-1.8-.939-3.6-1.406-5.406a.834.834,0,0,0-.473-.58,7.985,7.985,0,0,0-1.612-.529Z" fill="#1a1f71" fill-rule="evenodd"/>
      <path id="Trazado_2688" data-name="Trazado 2688" d="M3755.864,174.784c-.1.475-.2.944-.308,1.425-.142-.05-.277-.1-.417-.149a2.97,2.97,0,0,0-1.436-.126,1.2,1.2,0,0,0-.446.183.425.425,0,0,0-.021.736c.216.16.462.285.695.427a10.545,10.545,0,0,1,.912.563,1.669,1.669,0,0,1,.632,1.87,2.2,2.2,0,0,1-1.49,1.567,4.563,4.563,0,0,1-2.051.231,5.183,5.183,0,0,1-1.268-.252c-.069-.022-.136-.052-.216-.08.108-.5.215-.995.323-1.5.126.054.245.109.364.156a3.223,3.223,0,0,0,1.833.225,1.263,1.263,0,0,0,.5-.22.481.481,0,0,0,.042-.77,4.842,4.842,0,0,0-.628-.416c-.321-.2-.668-.361-.971-.583a1.734,1.734,0,0,1-.3-2.559,2.634,2.634,0,0,1,1.517-.917,4.6,4.6,0,0,1,2.65.141.469.469,0,0,1,.058.023Z" fill="#1a1f71" fill-rule="evenodd"/>
      <path id="Trazado_2689" data-name="Trazado 2689" d="M3747.444,181.43c.054-.253.1-.49.156-.725q.648-3,1.295-6.006c.014-.065.024-.109.11-.109.539.005,1.077,0,1.618,0a.453.453,0,0,1,.072.011c-.056.265-.111.524-.168.785q-.633,2.938-1.262,5.876c-.029.134-.08.17-.214.168-.486-.01-.972,0-1.459,0Z" fill="#1a1f71" fill-rule="evenodd"/>
    </g>
  </g>
</svg>
